<?xml version="1.0" encoding="UTF-8"?>
<!DOCTYPE svg PUBLIC "-//W3C//DTD SVG 1.1//EN" "http://www.w3.org/Graphics/SVG/1.1/DTD/svg11.dtd">
<!-- Creator: CorelDRAW -->
<svg xmlns="http://www.w3.org/2000/svg" xml:space="preserve" width="88.8718mm" height="34.6463mm" version="1.1" style="shape-rendering:geometricPrecision; text-rendering:geometricPrecision; image-rendering:optimizeQuality; fill-rule:evenodd; clip-rule:evenodd"
viewBox="0 0 1243.7 484.85"
 xmlns:xlink="http://www.w3.org/1999/xlink"
 xmlns:xodm="http://www.corel.com/coreldraw/odm/2003">
 <defs>
  <style type="text/css">
   <![CDATA[
    .fil0 {fill:#A37535}
    .fil2 {fill:#FA9226}
    .fil1 {fill:#FEC270}
   ]]>
  </style>
 </defs>
 <g id="Capa_x0020_1">
  <metadata id="CorelCorpID_0Corel-Layer"/>
  <g id="_2490394354832">
   <polygon class="fil0" points="1082.08,323.23 1162.89,404.04 1243.7,484.85 1082.08,484.85 920.47,484.85 1001.27,404.04 "/>
   <rect class="fil1" x="-0" y="161.62" width="323.23" height="323.23"/>
   <polygon class="fil2" points="161.62,0 242.42,80.81 323.23,161.62 161.62,161.62 -0,161.62 80.81,80.81 "/>
   <rect class="fil0" x="323.23" y="323.23" width="323.23" height="161.62"/>
   <polygon class="fil2" points="484.85,484.85 565.66,404.04 646.47,323.23 484.85,323.23 323.23,323.23 404.04,404.04 "/>
   <rect class="fil0" x="323.23" y="0" width="323.23" height="323.23"/>
   <polygon class="fil1" points="484.85,161.62 565.66,80.81 646.47,0 484.85,0 323.23,0 404.04,80.81 "/>
  </g>
 </g>
</svg>
