<svg id="gc_logo" xmlns="http://www.w3.org/2000/svg" width="334.578" height="79.159" viewBox="0 0 334.578 79.159">
  <g id="Grupo_34" data-name="Grupo 34">
    <path id="Trazado_306" data-name="Trazado 306" d="M189.57,65.176a13.506,13.506,0,0,1,.862-4.842,12.265,12.265,0,0,1,2.4-3.935,11.126,11.126,0,0,1,3.714-2.638,11.636,11.636,0,0,1,4.758-.961,20.106,20.106,0,0,1,3.569.3,15.646,15.646,0,0,1,3.035.862l.732,7.1h-.031a22.538,22.538,0,0,0-1.426-2.654,12.381,12.381,0,0,0-1.906-2.372,9.521,9.521,0,0,0-2.4-1.693,6.6,6.6,0,0,0-2.951-.648,7,7,0,0,0-2.867.595,6.815,6.815,0,0,0-2.341,1.723,8.056,8.056,0,0,0-1.556,2.768,11.505,11.505,0,0,0-.564,3.729,13.459,13.459,0,0,0,.763,4.629,11.379,11.379,0,0,0,2.089,3.63,9.43,9.43,0,0,0,3.134,2.372,9.064,9.064,0,0,0,3.9.846,9.919,9.919,0,0,0,2.227-.252,7.167,7.167,0,0,0,2.074-.831,6.745,6.745,0,0,0,1.723-1.472,6.59,6.59,0,0,0,1.174-2.189l.13.031a10.322,10.322,0,0,1-1.38,3.485,8.8,8.8,0,0,1-2.2,2.372,8.636,8.636,0,0,1-2.768,1.342,11.176,11.176,0,0,1-3.1.435,12.07,12.07,0,0,1-4.163-.717,9.088,9.088,0,0,1-3.431-2.173,10.574,10.574,0,0,1-2.326-3.668,14.3,14.3,0,0,1-.862-5.193Z" transform="translate(-45.011 -12.531)" fill="#a17535"/>
    <path id="Trazado_307" data-name="Trazado 307" d="M217.33,53.438v-.2h8.99v.2a2.287,2.287,0,0,0-1.792.915A3.67,3.67,0,0,0,223.9,56.6V73.417a3.576,3.576,0,0,0,.648,2.242,2.329,2.329,0,0,0,1.807.915v.2h-8.99v-.2a2.287,2.287,0,0,0,1.792-.915,3.67,3.67,0,0,0,.633-2.242V56.6a3.576,3.576,0,0,0-.648-2.242A2.341,2.341,0,0,0,217.33,53.438Z" transform="translate(-51.602 -12.635)" fill="#a17535"/>
    <path id="Trazado_308" data-name="Trazado 308" d="M257.36,73.4a4.844,4.844,0,0,0,.694,2.257,2.089,2.089,0,0,0,1.723.892v.2h-8.99v-.2a2.5,2.5,0,0,0,1.861-.915,3.042,3.042,0,0,0,.595-2.242l-1.258-16.852L244.45,76.317h-.961L235.658,57.04,234.5,73.061a3.513,3.513,0,0,0,.595,2.372,2.575,2.575,0,0,0,1.861,1.113v.2h-5.7v-.2a2.184,2.184,0,0,0,1.739-1.113,5.25,5.25,0,0,0,.679-2.372l1.159-15.823a6.726,6.726,0,0,0-.053-1.662,2.753,2.753,0,0,0-.412-1.1,2.218,2.218,0,0,0-.732-.679,3.726,3.726,0,0,0-.991-.381v-.2h5.772l7.168,17.516,6.566-17.516h5.643v.2a7.083,7.083,0,0,0-.679.4,2.067,2.067,0,0,0-.61.663,3.292,3.292,0,0,0-.4,1.075,5.9,5.9,0,0,0-.069,1.609l1.327,16.219Z" transform="translate(-54.908 -12.63)" fill="#a17535"/>
    <path id="Trazado_309" data-name="Trazado 309" d="M276.615,68.6h8.426L280.664,57.95Zm-2.288,3.386,7.328-19.041h.93l8.624,20.4c.175.419.351.816.534,1.174a4.9,4.9,0,0,0,.595.961,3.218,3.218,0,0,0,.732.679,2.216,2.216,0,0,0,.961.336v.2h-9.12v-.2a3.517,3.517,0,0,0,1.723-.564,1.535,1.535,0,0,0,.564-1.3,3.344,3.344,0,0,0-.114-.862,8.909,8.909,0,0,0-.313-.93l-1.357-3.348h-9.158l-1.06,2.821a5.312,5.312,0,0,0-.4,1.922,1.951,1.951,0,0,0,.549,1.525,3.642,3.642,0,0,0,1.708.732v.2H270.85v-.2a3.639,3.639,0,0,0,2.005-1.624,16.48,16.48,0,0,0,1.479-2.882Z" transform="translate(-64.311 -12.564)" fill="#a17535"/>
    <path id="Trazado_310" data-name="Trazado 310" d="M309.75,65.014h1.662a6.261,6.261,0,0,0,4.476-1.4,5.329,5.329,0,0,0,1.456-4.049,7.578,7.578,0,0,0-.328-2.257,4.943,4.943,0,0,0-.976-1.761,4.5,4.5,0,0,0-1.54-1.129,4.985,4.985,0,0,0-2.059-.4,3.121,3.121,0,0,0-1.975.564,2.37,2.37,0,0,0-.717,1.96v8.457ZM321.828,73.9a8.154,8.154,0,0,0,1.228,1.777,3.319,3.319,0,0,0,1.556.877v.2h-5.8c-.114-.153-.252-.366-.412-.633s-.336-.549-.511-.862-.351-.633-.534-.961-.328-.633-.465-.892L314.866,69.1a10,10,0,0,0-.831-1.441,4.185,4.185,0,0,0-.991-1.014,3.787,3.787,0,0,0-1.3-.58,7.353,7.353,0,0,0-1.762-.183h-.229v7.534a4.215,4.215,0,0,0,.519,2.288,2.306,2.306,0,0,0,1.975.862v.2H303.23v-.2a2.335,2.335,0,0,0,1.792-.862,3.631,3.631,0,0,0,.633-2.288V56.6a3.656,3.656,0,0,0-.633-2.257,2.307,2.307,0,0,0-1.792-.9v-.2h9.486q4.415,0,6.634,1.479a5.135,5.135,0,0,1,2.227,4.6,4.983,4.983,0,0,1-.465,2.173,5.711,5.711,0,0,1-1.281,1.739,7.653,7.653,0,0,1-1.96,1.312,12.705,12.705,0,0,1-2.5.877,3.872,3.872,0,0,1,1.739.618,4.556,4.556,0,0,1,1.54,1.807l3.187,6.07Z" transform="translate(-72 -12.635)" fill="#a17535"/>
    <path id="Trazado_311" data-name="Trazado 311" d="M339.98,65.014h1.662a6.261,6.261,0,0,0,4.476-1.4,5.329,5.329,0,0,0,1.456-4.049,7.577,7.577,0,0,0-.328-2.257,4.944,4.944,0,0,0-.976-1.761,4.5,4.5,0,0,0-1.54-1.129,4.984,4.984,0,0,0-2.059-.4,3.136,3.136,0,0,0-1.975.564,2.37,2.37,0,0,0-.717,1.96v8.457ZM352.058,73.9a8.155,8.155,0,0,0,1.228,1.777,3.319,3.319,0,0,0,1.556.877v.2h-5.8c-.114-.153-.252-.366-.412-.633s-.336-.549-.511-.862-.351-.633-.534-.961-.328-.633-.465-.892L345.1,69.1a9.994,9.994,0,0,0-.831-1.441,4.186,4.186,0,0,0-.991-1.014,3.787,3.787,0,0,0-1.3-.58,7.352,7.352,0,0,0-1.761-.183h-.229v7.534a4.216,4.216,0,0,0,.519,2.288,2.306,2.306,0,0,0,1.975.862v.2H333.46v-.2a2.335,2.335,0,0,0,1.792-.862,3.631,3.631,0,0,0,.633-2.288V56.6a3.656,3.656,0,0,0-.633-2.257,2.307,2.307,0,0,0-1.792-.9v-.2h9.486q4.415,0,6.634,1.479a5.13,5.13,0,0,1,2.219,4.6,4.983,4.983,0,0,1-.465,2.173,5.712,5.712,0,0,1-1.281,1.739,7.652,7.652,0,0,1-1.96,1.312,12.882,12.882,0,0,1-2.5.877,3.872,3.872,0,0,1,1.739.618,4.555,4.555,0,0,1,1.54,1.807l3.187,6.07Z" transform="translate(-79.178 -12.635)" fill="#a17535"/>
    <path id="Trazado_312" data-name="Trazado 312" d="M369.49,49.462l-.069-.069,5.307-6.6,3.348,3.248-.168.595-8.426,2.821ZM374.1,73.78a5.8,5.8,0,0,0,2.905-.747,6.941,6.941,0,0,0,2.242-2.089,10.323,10.323,0,0,0,1.426-3.248,16.966,16.966,0,0,0,.5-4.232,19.694,19.694,0,0,0-.58-4.941,13.761,13.761,0,0,0-1.609-3.9,8.182,8.182,0,0,0-2.44-2.555,5.58,5.58,0,0,0-3.1-.915,5.256,5.256,0,0,0-2.737.747,6.675,6.675,0,0,0-2.143,2.12,11.266,11.266,0,0,0-1.4,3.287,16.964,16.964,0,0,0-.5,4.232,20.686,20.686,0,0,0,.549,4.926,13.962,13.962,0,0,0,1.525,3.866,7.74,7.74,0,0,0,2.356,2.539,5.318,5.318,0,0,0,3,.915Zm-.328.763a11.713,11.713,0,0,1-8.357-3.416,11.371,11.371,0,0,1-2.486-3.782,12.518,12.518,0,0,1-.892-4.774,12.1,12.1,0,0,1,.93-4.728,12.427,12.427,0,0,1,2.524-3.866,11.779,11.779,0,0,1,3.736-2.623,10.992,10.992,0,0,1,4.56-.961,11.531,11.531,0,0,1,10.851,7.237,12.444,12.444,0,0,1,.892,4.743,12.139,12.139,0,0,1-.93,4.713,12.41,12.41,0,0,1-2.524,3.881,11.834,11.834,0,0,1-3.729,2.623,10.992,10.992,0,0,1-4.56.961Z" transform="translate(-85.964 -10.154)" fill="#a17535"/>
    <path id="Trazado_313" data-name="Trazado 313" d="M410.591,53.24h6.367v.2a2.661,2.661,0,0,0-2.089,1.113,4.13,4.13,0,0,0-.663,2.372V76.765h-1.327l-14.565-20.04V73.081a4.064,4.064,0,0,0,.679,2.372,2.739,2.739,0,0,0,2.1,1.113v.2H394.73v-.2a2.661,2.661,0,0,0,2.089-1.113,4.13,4.13,0,0,0,.663-2.372V56.359a2.575,2.575,0,0,0-.763-1.761,4.067,4.067,0,0,0-1.99-1.159v-.2h6.07l12.574,17.348V56.923a4.08,4.08,0,0,0-.679-2.372,2.739,2.739,0,0,0-2.1-1.113v-.2Z" transform="translate(-93.727 -12.635)" fill="#a17535"/>
    <path id="Trazado_314" data-name="Trazado 314" d="M197.958,19.388a17.677,17.677,0,0,1,2.768.221,10.962,10.962,0,0,1,2.4.633l.564,5.223h-.023c-.374-.732-.77-1.426-1.182-2.089a8.335,8.335,0,0,0-1.426-1.723,6.536,6.536,0,0,0-1.83-1.174,6.1,6.1,0,0,0-2.394-.442,5.207,5.207,0,0,0-2.1.427,4.688,4.688,0,0,0-1.693,1.258,6.046,6.046,0,0,0-1.136,2.066,8.9,8.9,0,0,0-.412,2.821,10.375,10.375,0,0,0,.686,3.82,9.889,9.889,0,0,0,1.807,3,8.244,8.244,0,0,0,2.555,1.952,6.517,6.517,0,0,0,2.89.694,10.54,10.54,0,0,0,1.136-.061,3.31,3.31,0,0,0,.793-.16V30.612a2.7,2.7,0,0,0-.473-1.639,1.781,1.781,0,0,0-1.38-.686v-.145h6.443v.145a1.684,1.684,0,0,0-1.365.686,2.678,2.678,0,0,0-.465,1.639v6.52h-.076a1.541,1.541,0,0,0-.633-.831,1.816,1.816,0,0,0-.953-.267,2.967,2.967,0,0,0-.389.023,1.6,1.6,0,0,0-.412.122,12.694,12.694,0,0,1-2.013.671,11.437,11.437,0,0,1-2.677.282,8.693,8.693,0,0,1-2.928-.5,7.053,7.053,0,0,1-2.516-1.548,7.577,7.577,0,0,1-1.754-2.638,9.719,9.719,0,0,1-.656-3.759,10.907,10.907,0,0,1,.61-3.7,8.505,8.505,0,0,1,1.769-2.943,8.147,8.147,0,0,1,2.8-1.952,9.17,9.17,0,0,1,3.683-.709Z" transform="translate(-44.904 -4.595)" fill="#a17535"/>
    <path id="Trazado_315" data-name="Trazado 315" d="M216.429,28.373h1.22a4.645,4.645,0,0,0,3.294-1.022,3.932,3.932,0,0,0,1.075-2.982,5.507,5.507,0,0,0-.244-1.662,3.629,3.629,0,0,0-.717-1.3,3.32,3.32,0,0,0-1.136-.831,3.654,3.654,0,0,0-1.51-.29,2.275,2.275,0,0,0-1.449.412,1.73,1.73,0,0,0-.526,1.441v6.222Zm8.884,6.543a5.792,5.792,0,0,0,.9,1.3,2.414,2.414,0,0,0,1.144.648v.145h-4.27c-.084-.114-.183-.267-.305-.465s-.252-.4-.381-.633-.259-.465-.389-.709-.244-.465-.343-.656l-1.487-3.172a7.493,7.493,0,0,0-.61-1.06,3.249,3.249,0,0,0-.732-.747,2.783,2.783,0,0,0-.953-.427,5.319,5.319,0,0,0-1.3-.137h-.168v5.544a3.048,3.048,0,0,0,.381,1.685,1.7,1.7,0,0,0,1.449.633v.145H211.61v-.145a1.719,1.719,0,0,0,1.319-.633,2.688,2.688,0,0,0,.465-1.685V22.173a2.673,2.673,0,0,0-.465-1.662,1.69,1.69,0,0,0-1.319-.656V19.71h6.977a8.878,8.878,0,0,1,4.88,1.09,3.774,3.774,0,0,1,1.639,3.378,3.677,3.677,0,0,1-.343,1.6,4.272,4.272,0,0,1-.938,1.281,5.74,5.74,0,0,1-1.441.968,9.388,9.388,0,0,1-1.845.648,2.822,2.822,0,0,1,1.281.45,3.384,3.384,0,0,1,1.136,1.327l2.341,4.469Z" transform="translate(-50.244 -4.673)" fill="#a17535"/>
    <path id="Trazado_316" data-name="Trazado 316" d="M238.151,19.71v.145a1.69,1.69,0,0,0-1.319.656,2.707,2.707,0,0,0-.465,1.662v9.2a5.558,5.558,0,0,0,1.159,3.8,4.192,4.192,0,0,0,3.309,1.3,4.514,4.514,0,0,0,3.4-1.319,5.537,5.537,0,0,0,1.281-4V22.661a3.556,3.556,0,0,0-.473-1.83,1.964,1.964,0,0,0-1.327-.976V19.71h4.224v.145a1.919,1.919,0,0,0-1.319.961,3.549,3.549,0,0,0-.465,1.845v8.495a7.933,7.933,0,0,1-.381,2.539,5.114,5.114,0,0,1-1.121,1.906,4.817,4.817,0,0,1-1.883,1.2,7.745,7.745,0,0,1-2.646.412,7.173,7.173,0,0,1-5.04-1.609,6.347,6.347,0,0,1-1.746-4.9V22.181a2.657,2.657,0,0,0-.473-1.647,1.72,1.72,0,0,0-1.327-.671v-.145h6.611Z" transform="translate(-54.977 -4.673)" fill="#a17535"/>
    <path id="Trazado_317" data-name="Trazado 317" d="M265.713,25.058a7.05,7.05,0,0,0-.244-1.891,4.563,4.563,0,0,0-.709-1.5,3.4,3.4,0,0,0-1.136-1A3.154,3.154,0,0,0,262.1,20.3a2.127,2.127,0,0,0-1.487.45,1.691,1.691,0,0,0-.488,1.3v7.641h1q4.587,0,4.591-4.636Zm-5.589,5.3v3.66a5.611,5.611,0,0,0,.122,1.281,2.154,2.154,0,0,0,.381.854,1.625,1.625,0,0,0,.648.5,2.925,2.925,0,0,0,.93.221v.145H255.32v-.145a1.691,1.691,0,0,0,1.319-.656,2.707,2.707,0,0,0,.465-1.662V22.183a2.673,2.673,0,0,0-.465-1.662,1.679,1.679,0,0,0-1.319-.656V19.72h7.221a7.742,7.742,0,0,1,4.774,1.235,4.521,4.521,0,0,1,1.6,3.82,4.811,4.811,0,0,1-.572,2.356,5.091,5.091,0,0,1-1.6,1.754,7.635,7.635,0,0,1-2.455,1.1,12.352,12.352,0,0,1-3.157.381h-1Z" transform="translate(-60.623 -4.676)" fill="#a17535"/>
    <path id="Trazado_318" data-name="Trazado 318" d="M278.486,27.555a15.313,15.313,0,0,0,.4,3.622,10.161,10.161,0,0,0,1.121,2.844,5.78,5.78,0,0,0,1.731,1.868,3.89,3.89,0,0,0,2.211.671,4.24,4.24,0,0,0,2.135-.549,5.015,5.015,0,0,0,1.647-1.54,7.42,7.42,0,0,0,1.052-2.394,12.353,12.353,0,0,0,.366-3.111,14.693,14.693,0,0,0-.427-3.637,10.257,10.257,0,0,0-1.182-2.867,5.807,5.807,0,0,0-1.792-1.876,4.091,4.091,0,0,0-2.28-.671,3.84,3.84,0,0,0-2.013.549,4.8,4.8,0,0,0-1.571,1.563,8.13,8.13,0,0,0-1.022,2.417,12.35,12.35,0,0,0-.366,3.111Zm-3.416.755a8.842,8.842,0,0,1,.686-3.477,9.356,9.356,0,0,1,1.853-2.844,8.639,8.639,0,0,1,2.745-1.929,8.076,8.076,0,0,1,3.355-.709,8.467,8.467,0,0,1,7.984,5.323,9.1,9.1,0,0,1,.656,3.492,8.848,8.848,0,0,1-.686,3.462,9.336,9.336,0,0,1-1.853,2.86,8.638,8.638,0,0,1-2.745,1.929,8.077,8.077,0,0,1-3.355.709,8.588,8.588,0,0,1-6.146-2.516,8.416,8.416,0,0,1-1.83-2.783,9.131,9.131,0,0,1-.656-3.515Z" transform="translate(-65.313 -4.588)" fill="#a17535"/>
    <path id="Trazado_319" data-name="Trazado 319" d="M30.253,13.308c-.015,0-.038-.008-.053-.008v.008Z" transform="translate(-7.167 -3.151)" fill="#a17535"/>
    <path id="Trazado_320" data-name="Trazado 320" d="M132.06,63.919h.015a.223.223,0,0,1-.015-.069Z" transform="translate(-31.354 -15.154)" fill="#a17535"/>
    <path id="Trazado_321" data-name="Trazado 321" d="M25.071,10.28A20.588,20.588,0,0,1,27.3,3.737,11.471,11.471,0,0,1,30.2.58a31.259,31.259,0,0,0-21.6,14.3c2.936-2.806,8.243-5.978,16.479-4.6Z" transform="translate(-2.038 -0.131)" fill="#a17535"/>
    <path id="Trazado_322" data-name="Trazado 322" d="M31.6,77.973H30.46a11.172,11.172,0,0,1-6.451-1.5A16.513,16.513,0,0,1,18.77,80.94a17.461,17.461,0,0,1-8.1,2.051,16.806,16.806,0,0,1-2.4-.175c5.521,8.1,13.139,9.341,21.984,5.955,6.253-2.387,8.335-8.693,8.685-14.641A9.676,9.676,0,0,1,31.6,77.966Z" transform="translate(-1.96 -17.595)" fill="#a17535"/>
    <path id="Trazado_323" data-name="Trazado 323" d="M16.346,77.073v.053c5.9-3.088,8.51-10.63,9.265-13.276-1.609,0-5.277,0-11.705.191A43.993,43.993,0,0,0,1.24,66.42a39.5,39.5,0,0,0,3.4,10.721,11.663,11.663,0,0,0,.77,1.35A15.643,15.643,0,0,0,16.346,77.073Z" transform="translate(-0.291 -15.154)" fill="#a17535"/>
    <path id="Trazado_324" data-name="Trazado 324" d="M25.392,54.715a25.739,25.739,0,0,1,.259-7.763,16,16,0,0,1-6.566,1.456,14.841,14.841,0,0,1-5.307-.976c-5.4-2.051-8.99-5.147-10.63-9.227a14.338,14.338,0,0,1-.984-6.116,61.24,61.24,0,0,0-1.5,25.172A46.224,46.224,0,0,1,13.534,54.9c6.573-.244,10.249-.214,11.858-.191Z" transform="translate(0.005 -7.613)" fill="#a17535"/>
    <path id="Trazado_325" data-name="Trazado 325" d="M15.522,41.9a14.055,14.055,0,0,0,11.789-1.014,22.846,22.846,0,0,1,1.35-3.675,19.9,19.9,0,0,1-1.792-5.658,1.588,1.588,0,0,1,.946-1.67A30.25,30.25,0,0,1,36.995,27.7a11.037,11.037,0,0,1,2.555.191,15.568,15.568,0,0,0-10-11l.031-.038c-16.692-6.375-23.052,5.239-23.334,5.78a15.206,15.206,0,0,0-.419,10.981c1.472,3.63,4.743,6.428,9.707,8.3Z" transform="translate(-1.182 -3.541)" fill="#a17535"/>
    <path id="Trazado_326" data-name="Trazado 326" d="M34.21,4.436h.053A19.361,19.361,0,0,0,32.25,10.46,33.324,33.324,0,0,1,36.6,11.81a17.432,17.432,0,0,1,8.48,6.573,15.526,15.526,0,0,1,7.709-7.511,16.477,16.477,0,0,1,11-1.258A27.06,27.06,0,0,0,47.448.463a40.124,40.124,0,0,0-7.465-.45A10.807,10.807,0,0,0,34.2,4.428Z" transform="translate(-7.654 0.009)" fill="#a17535"/>
    <path id="Trazado_327" data-name="Trazado 327" d="M57.826,15.7c-6.5,3.294-7.305,7.686-7.336,7.862v.069a19.35,19.35,0,0,1,1.578,4.514,12.274,12.274,0,0,1,2.211,1c.625.351,1.632-.206,1.914-.381s.633-.389.915-.595a24.873,24.873,0,0,1,5.8-2.852,51.5,51.5,0,0,1,8.022-2.44,2.443,2.443,0,0,0,1.861-2.913,2.486,2.486,0,0,0-.252-.663,33.264,33.264,0,0,0-2.7-4.118,15.617,15.617,0,0,0-12.033.526Z" transform="translate(-11.985 -3.37)" fill="#a17535"/>
    <path id="Trazado_328" data-name="Trazado 328" d="M40.238,50.8c-1.266-1.647-2.5-2.066-3.172-1.96l-.015.084H36.86c-1.121.435-.77,4.835-1.556,7.686a16.238,16.238,0,0,1-1.022,2.7.588.588,0,0,1,0,.282,29.731,29.731,0,0,1-4.133,9.532c.77.5,2.7,1.35,6.573,1.159a8.788,8.788,0,0,0,7.412-5.307,37.856,37.856,0,0,0-.7-6.077,19.839,19.839,0,0,0-3.2-8.1Z" transform="translate(-7.155 -11.588)" fill="#a17535"/>
    <path id="Trazado_329" data-name="Trazado 329" d="M48.03,44.645a16.7,16.7,0,0,1-5.483-3.485,11.207,11.207,0,0,1-2.8-4.835.8.8,0,0,1,.526-1.014,1.047,1.047,0,0,1,.214-.038,15.491,15.491,0,0,1,8.693,2.1l-1.159,7.267Zm15.32,29.32a2.527,2.527,0,0,1-.419-.907,3.122,3.122,0,0,1-.084-1.136l.236-2.013.389-4.316c-.061.038-.122.076-.191.114a2.249,2.249,0,0,1-2.143.038c-1.083-.564-2.638-1.617-3.149-1.967l-.023-.015a2.657,2.657,0,0,1-.953-1.212,15.1,15.1,0,0,1-.824-3.165,14.152,14.152,0,0,0-1.983-4.026,25.059,25.059,0,0,1-2.738-5.292l-.008-.031a10.04,10.04,0,0,1,.587-6.764,2.069,2.069,0,0,1,1.609-1.22h.008a1.908,1.908,0,0,1,2.059,1.289c.534,1.96,1.967,2.158,3.622,2.387a7.091,7.091,0,0,1,2.943.846,8.447,8.447,0,0,0,.053-2.15,9.4,9.4,0,0,0-2.692-1.556l-.015-.008c-.5-.221-.968-.435-1.373-.641a2,2,0,0,1-.984-2.2v-.008a2.083,2.083,0,0,1,2.028-1.533H65.2a6.831,6.831,0,0,1,4.537,1.746.32.32,0,0,0,.214.076.311.311,0,0,0,.206-.1.3.3,0,0,0,.076-.191L70.67,28.54a1.353,1.353,0,0,0-1.319-1.38,1.313,1.313,0,0,0-.3.031,49.646,49.646,0,0,0-9.212,2.7,24.579,24.579,0,0,0-6.5,3.325,3.5,3.5,0,0,1-3.538.389,10.511,10.511,0,0,0-5.6-1.35,29.063,29.063,0,0,0-8.632,2.051,17.7,17.7,0,0,0,5.292,10.02c.435.366.854.7,1.243,1,4.43,3.172,6.749,3.172,7.656,7.359a26.241,26.241,0,0,1,.32,11.774c-1.51,6.588-4.24,21.145-4.24,21.145H61.977a7.263,7.263,0,0,0,7.13-6.047l.77-4.5H65.294a2.415,2.415,0,0,1-1.975-1.075Z" transform="translate(-8.442 -6.442)" fill="#a17535"/>
    <path id="Trazado_330" data-name="Trazado 330" d="M114.584,36.254a11.329,11.329,0,0,1-2.806,4.888,16.58,16.58,0,0,1-5.483,3.485l-1.144-7.32a15.466,15.466,0,0,1,8.685-2.1.814.814,0,0,1,.785.854.892.892,0,0,1-.031.2Zm3.973-2.051a28.966,28.966,0,0,0-8.617-2.051,10.652,10.652,0,0,0-5.62,1.35,3.5,3.5,0,0,1-3.561-.336,24.949,24.949,0,0,0-6.482-3.325,49.218,49.218,0,0,0-9.227-2.7,1.341,1.341,0,0,0-1.578,1.068,1.144,1.144,0,0,0-.023.282l.5,11.5a.3.3,0,0,0,.076.191.3.3,0,0,0,.206.1.285.285,0,0,0,.213-.076,6.86,6.86,0,0,1,4.537-1.746H94.91a2.071,2.071,0,0,1,2,1.533v.015a1.992,1.992,0,0,1-.976,2.2c-.412.214-.869.427-1.38.648l-.015.008a9.5,9.5,0,0,0-2.692,1.556,8.438,8.438,0,0,0,.053,2.15,7.157,7.157,0,0,1,2.943-.846c1.655-.229,3.081-.427,3.622-2.387a1.908,1.908,0,0,1,2.059-1.289h.008a2.077,2.077,0,0,1,1.617,1.22,10.022,10.022,0,0,1,.587,6.756l-.008.03a25.54,25.54,0,0,1-2.738,5.284A14.115,14.115,0,0,0,98,59.367a15.1,15.1,0,0,1-.824,3.165,2.641,2.641,0,0,1-.946,1.212l-.031.023c-.511.343-2.066,1.4-3.149,1.967a2.249,2.249,0,0,1-2.143-.038c-.069-.038-.13-.076-.191-.114l.4,4.324.236,2.013a2.964,2.964,0,0,1-.084,1.136,2.527,2.527,0,0,1-.419.907,2.428,2.428,0,0,1-1.983,1.075H84.319l.778,4.5a7.266,7.266,0,0,0,7.16,6.032h16.2s-2.7-14.557-4.24-21.145a26.132,26.132,0,0,1,.32-11.774c.915-4.24,3.226-4.148,7.519-7.442.4-.3.808-.633,1.243-1a17.656,17.656,0,0,0,5.292-10.02l-.053.015Z" transform="translate(-19.811 -6.432)" fill="#a17535"/>
    <path id="Trazado_331" data-name="Trazado 331" d="M75.628,49.162A4.812,4.812,0,0,0,70.8,44.48H64.823a.147.147,0,0,0-.13.137.122.122,0,0,0,.061.107c.3.16.724.358,1.174.564,1.487.671,3.332,1.51,3.714,2.577a8.324,8.324,0,0,1-.221,4.613,13.356,13.356,0,0,0-.458,2.852,21.864,21.864,0,0,0,.336,3.21c.038.236.076.5.122.785a.8.8,0,0,1-.191.656.823.823,0,0,1-.61.282h-.053a2.392,2.392,0,0,0-1.914.778.643.643,0,0,1-.564.137.913.913,0,0,1-.595-.465l-3.1-5.544a.843.843,0,0,1,.625-1.19c.168-.031.419-.046.732-.069.923-.069,3.081-.229,3.233-.946a.9.9,0,0,0-.153-.747c-.4-.564-1.441-.984-2.951-1.182l-.938-.092a3.842,3.842,0,0,1-3.248-2.455l-.153-.366a.1.1,0,0,0-.092-.061h-.015a.073.073,0,0,0-.069.046l-.008.023a8.049,8.049,0,0,0-.519,5.528,23.093,23.093,0,0,0,2.486,4.857,14.7,14.7,0,0,1,2.25,4.735,13.288,13.288,0,0,0,.732,2.814,15.07,15.07,0,0,0,3.614,2.311.419.419,0,0,0,.053-.069A12.156,12.156,0,0,1,71.7,63.437l.015-.008a9.347,9.347,0,0,1,3.82-1.838l.107-12.422Z" transform="translate(-13.904 -10.555)" fill="#a17535"/>
    <path id="Trazado_332" data-name="Trazado 332" d="M91.891,68.309a.238.238,0,0,0,.053.069,15.222,15.222,0,0,0,3.614-2.311,13.238,13.238,0,0,0,.732-2.821,14.775,14.775,0,0,1,2.249-4.735,23.841,23.841,0,0,0,2.486-4.857,8.093,8.093,0,0,0-.519-5.528L100.5,48.1a.067.067,0,0,0-.069-.046h-.015a.1.1,0,0,0-.091.061l-.008.015-.153.366a3.847,3.847,0,0,1-3.256,2.448l-.938.091c-1.51.2-2.555.618-2.951,1.182a.929.929,0,0,0-.153.747c.153.717,2.311.877,3.233.946.313.023.564.046.732.069a.864.864,0,0,1,.61.442.832.832,0,0,1,.015.747l-.008.023-3.1,5.521a.89.89,0,0,1-.595.465.654.654,0,0,1-.564-.137,2.391,2.391,0,0,0-1.96-.778.817.817,0,0,1-.808-.938c.046-.29.084-.541.122-.785a21.865,21.865,0,0,0,.336-3.21,13.357,13.357,0,0,0-.458-2.852,8.255,8.255,0,0,1-.221-4.613c.381-1.068,2.227-1.9,3.714-2.577.45-.206.877-.4,1.174-.564a.132.132,0,0,0-.069-.244H89.047a4.8,4.8,0,0,0-4.827,4.682l.107,12.422a9.417,9.417,0,0,1,3.82,1.838l.015.015A12.088,12.088,0,0,1,91.891,68.309Z" transform="translate(-19.995 -10.555)" fill="#a17535"/>
    <path id="Trazado_333" data-name="Trazado 333" d="M85.429,81.953h-.008l-3.287-.336v-5.04c0-.946,1.708-1.685,2.532-1.9a.772.772,0,0,0,.549-.923c0-.008,0-.015-.008-.015a.74.74,0,0,0-.877-.58c-.008,0-.015,0-.015.008a6.927,6.927,0,0,0-1.266.442h-.137a6.474,6.474,0,0,1-1.571.282,6.561,6.561,0,0,1-1.708-.32,7.521,7.521,0,0,0-1.266-.435.759.759,0,0,0-.846.671.779.779,0,0,0,.488.846c.839.214,2.532.961,2.532,1.9v5.094l-3.2.374a.791.791,0,0,0,0,1.556h.076l3.912-.389,3.965.336h.076a.781.781,0,0,0,.069-1.556Z" transform="translate(-18.207 -17.358)" fill="#a17535"/>
    <path id="Trazado_334" data-name="Trazado 334" d="M133.462,10.28a20.589,20.589,0,0,0-2.227-6.543A11.471,11.471,0,0,0,128.33.58a31.259,31.259,0,0,1,21.6,14.3C147,12.072,141.69,8.9,133.454,10.28Z" transform="translate(-30.469 -0.131)" fill="#a17535"/>
    <path id="Trazado_335" data-name="Trazado 335" d="M124.113,77.973h1.136a11.172,11.172,0,0,0,6.451-1.5,16.513,16.513,0,0,0,5.239,4.469,17.461,17.461,0,0,0,8.1,2.051,16.806,16.806,0,0,0,2.4-.175c-5.521,8.1-13.139,9.341-21.984,5.955-6.253-2.387-8.335-8.693-8.685-14.641a9.676,9.676,0,0,0,7.336,3.836Z" transform="translate(-27.724 -17.595)" fill="#a17535"/>
    <path id="Trazado_336" data-name="Trazado 336" d="M141.335,77.073v.053c-5.9-3.088-8.51-10.63-9.265-13.276,1.609,0,5.277,0,11.705.191a43.993,43.993,0,0,1,12.666,2.379,39.5,39.5,0,0,1-3.4,10.721,11.671,11.671,0,0,1-.77,1.35A15.643,15.643,0,0,1,141.335,77.073Z" transform="translate(-31.357 -15.154)" fill="#a17535"/>
    <path id="Trazado_337" data-name="Trazado 337" d="M131.879,54.715a25.74,25.74,0,0,0-.259-7.763,16,16,0,0,0,6.566,1.456,14.841,14.841,0,0,0,5.307-.976c5.4-2.051,8.99-5.147,10.63-9.227a14.337,14.337,0,0,0,.984-6.116,61.24,61.24,0,0,1,1.5,25.172A46.224,46.224,0,0,0,143.737,54.9c-6.573-.244-10.249-.214-11.858-.191Z" transform="translate(-31.25 -7.613)" fill="#a17535"/>
    <path id="Trazado_338" data-name="Trazado 338" d="M138.988,41.9A14.055,14.055,0,0,1,127.2,40.889a22.846,22.846,0,0,0-1.35-3.675,19.667,19.667,0,0,0,1.792-5.658,1.588,1.588,0,0,0-.946-1.67,30.249,30.249,0,0,0-9.181-2.189,11.069,11.069,0,0,0-2.555.191,15.553,15.553,0,0,1,10-11l-.031-.038c16.692-6.375,23.052,5.239,23.334,5.78a15.206,15.206,0,0,1,.419,10.981c-1.472,3.63-4.743,6.428-9.707,8.3Z" transform="translate(-27.294 -3.541)" fill="#a17535"/>
    <path id="Trazado_339" data-name="Trazado 339" d="M121.229,4.436h-.053a19.361,19.361,0,0,1,2.013,6.024,33.325,33.325,0,0,0-4.347,1.35,17.432,17.432,0,0,0-8.479,6.573,15.526,15.526,0,0,0-7.709-7.511,16.477,16.477,0,0,0-11-1.258A27.06,27.06,0,0,1,107.991.463a40.124,40.124,0,0,1,7.465-.45,10.807,10.807,0,0,1,5.78,4.415Z" transform="translate(-21.759 0.009)" fill="#a17535"/>
    <path id="Trazado_340" data-name="Trazado 340" d="M100.471,15.7c6.5,3.294,7.305,7.686,7.336,7.862v.069a19.35,19.35,0,0,0-1.578,4.514,12.274,12.274,0,0,0-2.211,1c-.625.351-1.632-.206-1.914-.381s-.633-.389-.915-.595a24.873,24.873,0,0,0-5.8-2.852,51.5,51.5,0,0,0-8.022-2.44A2.443,2.443,0,0,1,85.5,19.963a2.485,2.485,0,0,1,.252-.663,34.159,34.159,0,0,1,2.7-4.118,15.617,15.617,0,0,1,12.033.526Z" transform="translate(-20.285 -3.37)" fill="#a17535"/>
    <path id="Trazado_341" data-name="Trazado 341" d="M120.677,50.8c1.266-1.647,2.5-2.066,3.172-1.96l.015.084h.191c1.121.435.77,4.835,1.548,7.686a15.62,15.62,0,0,0,1.029,2.7.589.589,0,0,0,0,.282,29.73,29.73,0,0,0,4.133,9.532c-.77.5-2.7,1.35-6.573,1.159a8.788,8.788,0,0,1-7.412-5.307,37.852,37.852,0,0,1,.7-6.077,19.839,19.839,0,0,1,3.2-8.1Z" transform="translate(-27.726 -11.588)" fill="#a17535"/>
  </g>
  <path id="Trazado_342" data-name="Trazado 342" d="M431.317,50.086a2,2,0,0,0,2.234-1.891h-1.273a.9.9,0,0,1-.976.839c-.724,0-1.113-.5-1.113-1.418v-.084c0-.93.412-1.434,1.09-1.434a.821.821,0,0,1,.892.793h1.334a1.961,1.961,0,0,0-2.227-1.83,2.358,2.358,0,0,0-2.455,2.471v.1A2.264,2.264,0,0,0,431.317,50.086Zm-.061,1.464a3.924,3.924,0,1,0-.008,0Zm0,.587a4.564,4.564,0,1,0-4.606-4.56A4.554,4.554,0,0,0,431.256,52.138Z" transform="translate(-101.307 -10.206)" fill="#a37535"/>
</svg>
