<?xml version="1.0" encoding="UTF-8"?>
<!DOCTYPE svg PUBLIC "-//W3C//DTD SVG 1.1//EN" "http://www.w3.org/Graphics/SVG/1.1/DTD/svg11.dtd">
<!-- Creator: CorelDRAW -->
<svg xmlns="http://www.w3.org/2000/svg" xml:space="preserve" width="31.0043mm" height="7.3337mm" version="1.1" style="shape-rendering:geometricPrecision; text-rendering:geometricPrecision; image-rendering:optimizeQuality; fill-rule:evenodd; clip-rule:evenodd"
viewBox="0 0 2418.53 572.07"
 xmlns:xlink="http://www.w3.org/1999/xlink"
 xmlns:xodm="http://www.corel.com/coreldraw/odm/2003">
 <defs>
  <style type="text/css">
   <![CDATA[
    .fil0 {fill:#A17535;fill-rule:nonzero}
   ]]>
  </style>
 </defs>
 <g id="Capa_x0020_1">
  <metadata id="CorelCorpID_0Corel-Layer"/>
  <path class="fil0" d="M1044.97 380.5c0,-12.46 2.08,-24.13 6.24,-35.01 4.16,-10.88 9.95,-20.34 17.38,-28.42 7.43,-8.07 16.39,-14.42 26.86,-19.06 10.47,-4.63 21.94,-6.95 34.41,-6.95 9.27,0 17.86,0.72 25.78,2.15 7.91,1.44 15.23,3.52 21.94,6.24l5.27 51.31 -0.24 0c-2.88,-6.39 -6.32,-12.79 -10.31,-19.18 -3.99,-6.4 -8.59,-12.11 -13.78,-17.15 -5.2,-5.04 -11,-9.11 -17.39,-12.23 -6.4,-3.12 -13.51,-4.67 -21.34,-4.67 -7.36,0 -14.27,1.43 -20.74,4.31 -6.47,2.88 -12.11,7.04 -16.91,12.47 -4.79,5.43 -8.55,12.11 -11.26,20.02 -2.72,7.91 -4.08,16.9 -4.08,26.97 0,12.15 1.83,23.3 5.51,33.45 3.67,10.16 8.71,18.91 15.11,26.26 6.39,7.36 13.95,13.07 22.66,17.14 8.71,4.08 18.11,6.12 28.18,6.12 5.44,0 10.79,-0.6 16.07,-1.8 5.27,-1.2 10.27,-3.2 14.99,-6 4.71,-2.79 8.88,-6.35 12.47,-10.66 3.6,-4.32 6.43,-9.6 8.51,-15.84l0.96 0.24c-2.08,9.76 -5.4,18.15 -9.95,25.18 -4.56,7.04 -9.87,12.75 -15.94,17.15 -6.08,4.4 -12.75,7.64 -20.02,9.71 -7.28,2.07 -14.75,3.12 -22.43,3.12 -10.55,0 -20.58,-1.72 -30.09,-5.16 -9.52,-3.44 -17.79,-8.67 -24.82,-15.71 -7.04,-7.03 -12.63,-15.86 -16.79,-26.5 -4.16,-10.62 -6.24,-23.14 -6.24,-37.53zm1340.53 -92.29c9.01,0 15.55,-4.68 16.15,-13.67l-9.18 0c-0.53,4.14 -3.27,6.08 -7.07,6.08 -5.21,0 -8.04,-3.61 -8.04,-10.24l0 -0.62c0,-6.72 3,-10.34 7.86,-10.34 3.89,0 5.92,2.04 6.45,5.75l9.63 0c-0.71,-9.01 -7.15,-13.25 -16.08,-13.25 -10.16,0 -17.76,7.06 -17.76,17.84l0 0.71c0,10.67 6.19,17.74 18.03,17.74zm-0.45 10.6c-15.19,0 -28.26,-11.48 -28.26,-28.7 0,-17.04 12.63,-28.8 28.44,-28.8 15.54,0 28.18,11.66 28.18,28.62 0,17.22 -12.99,28.88 -28.36,28.88zm0 4.24c18.64,0 33.48,-14.4 33.48,-33.12 0,-18.28 -14.39,-32.86 -33.3,-32.86 -18.73,0 -33.48,14.66 -33.48,33.04 0,18.63 14.84,32.94 33.3,32.94zm-1713.18 -19.61c9.17,-11.91 18.06,-14.94 22.94,-14.16l0.09 0.58 1.37 0c8.1,3.13 5.56,34.95 11.22,55.54 1.89,6.72 4.37,13.25 7.43,19.53 -0.15,0.67 -0.15,1.37 0,2.05 5.83,24.55 15.94,47.87 29.86,68.91 -5.56,3.61 -19.52,9.77 -47.53,8.39 -23.62,-1.8 -44.28,-16.58 -53.59,-38.35 0.49,-14.76 2.19,-29.45 5.08,-43.93 3.29,-20.99 11.19,-40.99 23.13,-58.57zm-92.24 -194.34c46.95,23.82 52.81,55.54 53,56.81 -0.01,0.16 -0.01,0.32 0,0.48 -5.13,10.36 -8.96,21.31 -11.42,32.61 -5.57,1.86 -10.93,4.28 -16.01,7.22 -4.49,2.53 -11.81,-1.47 -13.86,-2.74 -2.05,-1.26 -4.59,-2.83 -6.64,-4.29 -13.03,-8.66 -27.15,-15.59 -41.98,-20.6 -18.82,-7.42 -38.21,-13.32 -57.98,-17.66 -9.52,-2.11 -15.55,-11.54 -13.44,-21.06 0.37,-1.69 0.99,-3.3 1.83,-4.81 5.76,-10.39 12.29,-20.34 19.53,-29.77 28.33,-10.43 59.66,-9.06 86.97,3.81zm139.39 -57.01l-0.39 0c7.21,13.62 12.12,28.32 14.54,43.54 -10.69,2.51 -21.19,5.77 -31.43,9.76 -24.92,9.01 -46.37,25.65 -61.3,47.54 -11.5,-24.16 -31.27,-43.41 -55.74,-54.27 -24.67,-12.12 -52.78,-15.34 -79.55,-9.08 30.24,-35.4 72.13,-58.86 118.11,-66.17 17.85,-2.76 35.92,-3.85 53.97,-3.23 17.2,5.49 31.96,16.77 41.78,31.92zm88.34 245.2c-28.1,10.22 -59.28,7.54 -85.22,-7.32 -2.48,-9.11 -5.75,-18 -9.76,-26.55 6.34,-12.91 10.73,-26.69 12.98,-40.9 0.69,-5.11 -2.1,-10.05 -6.82,-12.1 -21.16,-8.71 -43.57,-14.04 -66.38,-15.81 -6.18,-0.27 -12.37,0.19 -18.44,1.36 9.06,-37.07 36.29,-67.01 72.33,-79.55l-0.2 -0.3c120.65,-46.07 166.62,37.87 168.67,41.78 10.87,25.15 11.94,53.45 3.03,79.36 -10.63,26.26 -34.26,46.46 -70.18,60.03zm-79.95 63.15c2.21,-18.69 1.58,-37.61 -1.86,-56.12 14.88,6.86 31.06,10.45 47.44,10.55 13.11,-0.02 26.1,-2.39 38.36,-7.03 39.04,-14.84 65,-37.19 76.81,-66.67 5.55,-14.05 7.98,-29.14 7.13,-44.21 16.19,59.24 19.88,121.2 10.84,181.94 -30.03,-10.09 -61.36,-15.84 -93.02,-17.08 -47.54,-1.76 -74.09,-1.57 -85.71,-1.37zm67.55 107.08l0 0.39c-42.65,-22.35 -61.49,-76.82 -66.96,-95.95 11.61,0 38.17,0 84.63,1.37 31.2,1.22 62.05,7 91.56,17.18 -4.45,26.87 -12.73,52.97 -24.6,77.5 -1.75,3.51 -3.61,6.93 -5.56,9.76 -26.72,6.3 -54.83,2.65 -79.07,-10.25zm-98.2 -11.12l8.2 0c16.29,1.16 32.55,-2.61 46.66,-10.84 10.22,13.31 23.12,24.31 37.88,32.31 18.04,9.61 38.13,14.7 58.56,14.84 5.82,0 11.62,-0.42 17.38,-1.27 -39.92,58.57 -94.98,67.55 -158.92,43.04 -45.19,-17.27 -60.22,-62.86 -62.76,-105.81 12.62,16.72 32.08,26.89 53,27.72zm47.72 -363.08c-2.66,-16.55 -8.1,-32.54 -16.1,-47.27 -5.51,-8.86 -12.63,-16.6 -20.98,-22.85 64.57,10.23 121.53,47.94 156.18,103.37 -21.23,-20.26 -59.57,-43.24 -119.09,-33.25zm-258.6 393.59c-0.02,0 -0.03,-0.01 -0.04,-0.01l-23.78 -2.4 0 -36.44c0,-6.83 12.35,-12.21 18.29,-13.75 2.85,-0.69 4.63,-3.69 3.96,-6.69 -0.01,-0.04 -0.02,-0.09 -0.03,-0.13 -0.66,-3 -3.52,-4.86 -6.37,-4.17 -0.05,0.01 -0.09,0.02 -0.12,0.03 -3.14,0.77 -6.19,1.83 -9.15,3.17l-1.01 0c-3.69,1.16 -7.5,1.83 -11.34,2.02 -4.19,-0.22 -8.34,-1 -12.35,-2.31 -2.96,-1.33 -6.02,-2.39 -9.15,-3.17 -2.95,-0.44 -5.68,1.72 -6.09,4.83 -0.36,2.66 1.12,5.22 3.53,6.12 6.04,1.54 18.29,6.93 18.29,13.75l0 36.83 -23.14 2.69c-2.96,0.4 -5.04,3.25 -4.65,6.36 0.32,2.55 2.22,4.56 4.65,4.89l0.55 0 28.26 -2.79 28.64 2.4 0.55 0c2.76,-0.03 5.08,-2.21 5.4,-5.09 0.26,-3.12 -1.93,-5.87 -4.9,-6.15zm33.82 -49.48c0.11,0.19 0.24,0.36 0.41,0.5 4.65,-1.24 24.24,-13.71 26.1,-16.69 2.5,-6.55 4.28,-13.42 5.3,-20.38 1.38,-9.77 8.61,-21.64 16.28,-34.21 7.08,-11.61 14.4,-23.64 17.95,-35.13 3.5,-13.32 2.17,-27.52 -3.76,-39.96l-0.07 -0.16c-0.07,-0.19 -0.26,-0.34 -0.48,-0.31l-0.08 0.01 -0.08 -0.01c-0.29,-0.02 -0.57,0.17 -0.67,0.45l-0.03 0.08 -1.08 2.64c-3.74,9.84 -12.98,16.8 -23.52,17.71l-6.76 0.68c-10.89,1.45 -18.46,4.48 -21.33,8.54 -1.15,1.64 -1.5,3.41 -1.08,5.41 1.11,5.19 16.7,6.33 23.36,6.82 2.28,0.17 4.08,0.3 5.3,0.51 1.9,0.31 3.49,1.47 4.38,3.18 0.89,1.71 0.93,3.69 0.09,5.42l-0.07 0.15 -22.38 39.91c-0.83,1.68 -2.51,3 -4.29,3.38 -1.51,0.31 -2.95,-0.05 -4.06,-1.01 -5.4,-4.67 -7.93,-5.67 -14.18,-5.63 -1.7,0.01 -3.34,-0.73 -4.47,-2.03 -1.13,-1.31 -1.63,-3.04 -1.37,-4.75 0.31,-2.07 0.61,-3.93 0.87,-5.66 1.31,-8.33 2.1,-13.36 2.43,-23.21 -0.01,-6.52 -1.68,-13.68 -3.31,-20.62 -2.63,-11.24 -5.35,-22.87 -1.62,-33.35 2.75,-7.7 16.1,-13.75 26.83,-18.61 3.26,-1.48 6.35,-2.88 8.5,-4.06 0.27,-0.18 0.44,-0.48 0.44,-0.8 0.02,-0.54 -0.4,-0.98 -0.93,-1.01l-43.19 0c-19.35,-0.25 -33.45,14.61 -34.92,33.83l0.77 89.77c4.04,0.5 12.65,2.96 27.62,13.3l0.11 0.08c11.83,9.22 21.14,21.4 26.96,35.22zm-73.55 -138.38c-1.46,-19.22 -15.58,-34.06 -34.88,-33.83l-43.23 0c-0.52,0.03 -0.94,0.48 -0.92,1.01 0.01,0.32 0.17,0.62 0.44,0.8 2.15,1.18 5.24,2.57 8.5,4.06 10.73,4.86 24.07,10.91 26.83,18.6 3.73,10.49 1.01,22.12 -1.62,33.36 -1.62,6.93 -3.3,14.1 -3.32,20.61 0.34,9.85 1.12,14.89 2.43,23.22 0.26,1.73 0.56,3.59 0.87,5.66 0.26,1.71 -0.24,3.44 -1.38,4.75 -1.12,1.29 -2.73,2.03 -4.43,2.03 -0.12,0 -0.25,0 -0.37,0 -6.02,0 -8.54,1.05 -13.84,5.63 -1.11,0.96 -2.54,1.31 -4.05,1.01 -1.78,-0.37 -3.46,-1.69 -4.29,-3.38l-22.45 -40.06c-0.83,-1.74 -0.79,-3.71 0.09,-5.42 0.89,-1.71 2.49,-2.86 4.38,-3.18 1.22,-0.2 3.02,-0.33 5.3,-0.5 6.65,-0.48 22.26,-1.63 23.36,-6.82 0.43,-2 0.08,-3.77 -1.08,-5.41 -2.86,-4.06 -10.43,-7.09 -21.33,-8.54l-6.79 -0.68c-10.51,-0.91 -19.74,-7.87 -23.5,-17.76l-1.08 -2.67c-0.1,-0.28 -0.39,-0.47 -0.67,-0.45l-0.08 0.01 -0.08 -0.01c-0.2,-0.02 -0.4,0.12 -0.48,0.31l-0.07 0.16c-5.93,12.44 -7.27,26.63 -3.76,39.96 3.55,11.49 10.87,23.5 17.96,35.13 7.66,12.57 14.89,24.44 16.27,34.21 1.01,6.95 2.79,13.81 5.3,20.37 1.86,2.99 21.45,15.46 26.1,16.7 0.16,-0.14 0.3,-0.31 0.41,-0.5 5.81,-13.82 15.13,-26 26.96,-35.22l0.11 -0.08c14.97,-10.35 23.58,-12.81 27.62,-13.31l0.76 -89.77zm238.92 -63.54c-3.67,13.3 -10.66,25.46 -20.3,35.33 -11.42,10.94 -24.89,19.49 -39.63,25.19l-8.29 -52.9c18.96,-11.15 40.8,-16.44 62.76,-15.23 3.28,0.13 5.84,2.91 5.69,6.19 -0.02,0.48 -0.09,0.96 -0.23,1.42zm28.7 -14.84c-19.88,-8.11 -40.88,-13.11 -62.27,-14.84 -14.18,-0.58 -28.24,2.81 -40.61,9.77 -8.39,3.95 -18.27,3.02 -25.77,-2.44 -14.34,-10.27 -30.13,-18.36 -46.85,-24.01 -21.55,-8.65 -43.87,-15.19 -66.67,-19.52 -5.29,-1.02 -10.41,2.43 -11.44,7.73 -0.13,0.67 -0.2,1.35 -0.18,2.04l3.65 83.12c0,0.5 0.2,1 0.54,1.39 0.37,0.43 0.9,0.69 1.47,0.73 0.58,0.03 1.12,-0.15 1.56,-0.53 9.3,-8.1 20.5,-12.58 32.82,-12.61l42.67 0c0.05,-0.01 0.12,-0.01 0.18,-0.01 6.73,0 12.68,4.53 14.46,11.07l0.02 0.08c1.48,6.25 -1.42,12.78 -7.05,15.87 -2.98,1.54 -6.31,3.11 -9.97,4.69l-0.11 0.05c-7.08,2.66 -13.6,6.44 -19.43,11.24 -0.79,4.46 -0.16,11.27 0.38,15.56 6.44,-4.07 13.98,-5.12 21.3,-6.13 11.96,-1.66 22.29,-3.1 26.16,-17.25 1.65,-6 8.05,-9.99 14.9,-9.3l0.08 0.01c5.15,0.69 9.61,4.08 11.66,8.85 7.03,15.27 8.53,32.61 4.23,48.86l-0.08 0.23c-5.06,13.45 -11.72,26.3 -19.78,38.18 -6.35,8.93 -11.17,18.72 -14.38,29.14 -1.14,7.82 -3.14,15.52 -5.96,22.89 -1.35,3.55 -3.72,6.58 -6.84,8.75l-0.21 0.14c-3.7,2.5 -14.95,10.13 -22.76,14.2 -4.89,2.55 -10.68,2.45 -15.48,-0.27 -0.49,-0.27 -0.96,-0.55 -1.4,-0.83l2.84 31.23 1.7 14.54c0.34,2.86 0.1,5.64 -0.59,8.22 -0.56,2.36 -1.59,4.6 -3.04,6.57 -3.28,4.7 -8.43,7.76 -14.31,7.76l-32.88 0 5.64 32.54c4.33,25.2 26.17,43.62 51.73,43.63l117.13 0c0,0 -19.53,-105.22 -30.65,-152.85 -5.73,-28.18 -4.92,-57.3 2.34,-85.11 6.64,-30.65 23.33,-29.97 54.37,-53.79 2.92,-2.15 5.86,-4.59 8.98,-7.22 20.38,-19.28 33.82,-44.74 38.26,-72.43l-0.39 0.1zm-427.63 75.45c-14.73,-5.71 -28.2,-14.27 -39.63,-25.18 -9.57,-9.77 -16.52,-21.78 -20.2,-34.95 -0.98,-3.08 0.73,-6.37 3.82,-7.35 0.5,-0.16 1.02,-0.24 1.54,-0.27 22,-1.21 43.86,4.09 62.86,15.23l-8.39 52.51zm110.74 211.93c-1.46,-1.97 -2.49,-4.2 -3.06,-6.58 -0.69,-2.57 -0.92,-5.35 -0.58,-8.21l1.71 -14.55 2.83 -31.22c-0.44,0.28 -0.9,0.56 -1.4,0.83 -4.8,2.72 -10.59,2.82 -15.48,0.27 -7.81,-4.07 -19.06,-11.7 -22.76,-14.21l-0.18 -0.12c-3.15,-2.19 -5.52,-5.21 -6.87,-8.77 -2.82,-7.37 -4.82,-15.07 -5.97,-22.88 -3.2,-10.41 -8.03,-20.2 -14.34,-29.09 -8.1,-11.93 -14.75,-24.78 -19.81,-38.23l-0.08 -0.23c-4.31,-16.26 -2.8,-33.62 4.24,-48.89 2.02,-4.72 6.49,-8.13 11.65,-8.81l0.07 -0.01c6.85,-0.69 13.25,3.3 14.89,9.3 3.88,14.16 14.21,15.58 26.17,17.25 7.32,1.01 14.86,2.06 21.3,6.13 0.55,-4.29 1.17,-11.11 0.39,-15.56 -5.83,-4.81 -12.36,-8.58 -19.43,-11.24l-0.11 -0.05c-3.66,-1.58 -6.99,-3.14 -9.91,-4.66 -5.69,-3.12 -8.59,-9.65 -7.11,-15.91l0.02 -0.08c1.81,-6.6 7.82,-11.13 14.68,-11.07l42.62 0c12.33,0.04 23.54,4.52 32.82,12.6 0.44,0.39 1,0.57 1.57,0.54 0.58,-0.04 1.1,-0.3 1.48,-0.73 0.34,-0.39 0.53,-0.89 0.53,-1.4l3.16 -82.9c0.11,-5.39 -4.17,-9.85 -9.56,-9.96 -0.72,-0.02 -1.44,0.05 -2.15,0.19 -22.77,4.33 -45.07,10.87 -66.57,19.53 -16.76,5.63 -32.58,13.72 -46.95,24.01 -7.38,5.52 -17.17,6.6 -25.58,2.83 -12.32,-6.97 -26.36,-10.34 -40.5,-9.76 -21.44,1.72 -42.47,6.72 -62.38,14.84 4.45,27.69 17.9,53.15 38.27,72.42 3.12,2.64 6.15,5.08 8.98,7.22 32.01,22.94 48.8,22.94 55.35,53.2 7.21,27.83 8.01,56.94 2.34,85.11 -10.93,47.64 -30.65,152.86 -30.65,152.86l116.64 0c25.52,-0.12 47.27,-18.57 51.54,-43.73l5.58 -32.54 -33.11 0c-5.87,0 -11.02,-3.06 -14.3,-7.75zm-157.78 -204.6c-9.17,-11.91 -18.06,-14.94 -22.94,-14.16l-0.09 0.58 -1.36 0c-8.1,3.13 -5.57,34.95 -11.23,55.54 -1.88,6.72 -4.36,13.25 -7.41,19.53 0.14,0.67 0.14,1.37 0,2.05 -5.84,24.55 -15.95,47.87 -29.87,68.91 5.56,3.61 19.52,9.77 47.53,8.39 23.62,-1.8 44.28,-16.58 53.59,-38.35 -0.49,-14.76 -2.19,-29.45 -5.07,-43.93 -3.3,-20.99 -11.2,-40.99 -23.14,-58.57zm92.24 -194.34c-46.95,23.82 -52.81,55.54 -53.01,56.81 0.01,0.16 0.01,0.32 0,0.48 5.13,10.36 8.97,21.31 11.42,32.61 5.57,1.86 10.93,4.28 16.01,7.22 4.49,2.53 11.81,-1.47 13.86,-2.74 2.05,-1.26 4.59,-2.83 6.64,-4.29 13.03,-8.66 27.15,-15.59 41.98,-20.6 18.82,-7.42 38.21,-13.32 57.98,-17.66 9.52,-2.11 15.54,-11.54 13.44,-21.06 -0.37,-1.69 -0.99,-3.3 -1.83,-4.81 -5.76,-10.39 -12.28,-20.34 -19.52,-29.77 -28.33,-10.43 -59.66,-9.06 -86.97,3.81zm-139.39 -57.01l0.39 0c-7.21,13.62 -12.12,28.32 -14.54,43.54 10.69,2.51 21.19,5.77 31.43,9.76 24.92,9.01 46.38,25.65 61.3,47.54 11.51,-24.16 31.27,-43.41 55.74,-54.27 24.67,-12.12 52.78,-15.34 79.55,-9.08 -30.24,-35.4 -72.12,-58.86 -118.11,-66.17 -17.85,-2.76 -35.92,-3.85 -53.97,-3.23 -17.2,5.49 -31.96,16.77 -41.78,31.92zm-88.34 245.2c28.1,10.22 59.27,7.54 85.22,-7.32 2.48,-9.11 5.75,-18 9.76,-26.55 -6.35,-12.91 -10.72,-26.69 -12.98,-40.9 -0.69,-5.11 2.1,-10.05 6.83,-12.1 21.16,-8.71 43.56,-14.04 66.37,-15.81 6.19,-0.27 12.38,0.19 18.46,1.36 -9.07,-37.07 -36.3,-67.01 -72.34,-79.55l0.2 -0.3c-120.65,-46.07 -166.62,37.87 -168.67,41.78 -10.86,25.15 -11.94,53.45 -3.02,79.36 10.64,26.26 34.26,46.46 70.18,60.03zm79.94 63.15c-2.21,-18.69 -1.58,-37.61 1.86,-56.12 -14.88,6.86 -31.06,10.45 -47.44,10.55 -13.11,-0.02 -26.1,-2.39 -38.36,-7.03 -39.04,-14.84 -65,-37.19 -76.81,-66.67 -5.55,-14.05 -7.98,-29.14 -7.13,-44.21 -16.19,59.24 -19.88,121.2 -10.83,181.94 30.04,-10.09 61.36,-15.84 93.02,-17.08 47.54,-1.76 74.09,-1.57 85.7,-1.37zm-67.55 107.08l0 0.39c42.65,-22.35 61.49,-76.82 66.96,-95.95 -11.62,0 -38.17,0 -84.63,1.37 -31.2,1.22 -62.05,7 -91.56,17.18 4.44,26.87 12.72,52.97 24.6,77.5 1.76,3.51 3.61,6.93 5.56,9.76 26.73,6.3 54.83,2.65 79.07,-10.25zm98.2 -11.12l-8.2 0c-16.29,1.16 -32.55,-2.61 -46.66,-10.84 -10.22,13.31 -23.12,24.31 -37.87,32.31 -18.03,9.61 -38.14,14.7 -58.57,14.84 -5.82,0 -11.62,-0.42 -17.38,-1.27 39.92,58.57 94.98,67.55 158.91,43.04 45.19,-17.27 60.22,-62.86 62.76,-105.81 -12.62,16.72 -32.08,26.89 -53,27.72zm-47.72 -363.08c2.66,-16.55 8.1,-32.54 16.1,-47.27 5.51,-8.86 12.63,-16.6 20.98,-22.85 -64.57,10.23 -121.53,47.94 -156.18,103.37 21.23,-20.26 59.57,-43.24 119.09,-33.25zm561.45 279.13c0.04,0 0.09,0 0.13,0 -0.05,-0.16 -0.09,-0.33 -0.13,-0.48l0 0.48zm-561.07 -279.07c-0.12,-0.02 -0.25,-0.04 -0.38,-0.05 0,0.02 -0.01,0.04 -0.01,0.05l0.39 0zm1374.07 92.59c0,9.53 0.97,18.26 2.91,26.2 1.94,7.94 4.65,14.8 8.12,20.55 3.46,5.76 7.64,10.27 12.53,13.49 4.88,3.24 10.2,4.85 15.97,4.85 5.64,0 10.79,-1.32 15.44,-3.96 4.64,-2.65 8.61,-6.36 11.91,-11.12 3.29,-4.76 5.82,-10.52 7.58,-17.29 1.76,-6.76 2.64,-14.26 2.64,-22.5 0,-9.52 -1.03,-18.29 -3.08,-26.29 -2.07,-8 -4.91,-14.92 -8.56,-20.73 -3.64,-5.82 -7.97,-10.35 -12.97,-13.58 -5,-3.24 -10.5,-4.86 -16.5,-4.86 -5.29,0 -10.14,1.33 -14.56,3.97 -4.41,2.65 -8.21,6.41 -11.38,11.3 -3.18,4.88 -5.65,10.7 -7.41,17.47 -1.76,6.76 -2.64,14.27 -2.64,22.5zm-24.7 5.47c0,-8.94 1.65,-17.32 4.94,-25.14 3.29,-7.82 7.76,-14.67 13.41,-20.55 5.65,-5.88 12.26,-10.52 19.84,-13.94 7.59,-3.41 15.68,-5.12 24.26,-5.12 8.82,0 17.03,1.62 24.62,4.85 7.58,3.24 14.2,7.71 19.85,13.41 5.64,5.71 10.06,12.44 13.23,20.2 3.18,7.77 4.77,16.18 4.77,25.24 0,8.81 -1.65,17.17 -4.94,25.05 -3.29,7.89 -7.76,14.77 -13.41,20.65 -5.65,5.88 -12.26,10.53 -19.84,13.94 -7.59,3.41 -15.68,5.12 -24.27,5.12 -8.82,0 -17.02,-1.61 -24.61,-4.85 -7.59,-3.24 -14.2,-7.68 -19.85,-13.32 -5.64,-5.65 -10.05,-12.35 -13.23,-20.12 -3.18,-7.76 -4.77,-16.23 -4.77,-25.41zm-33.7 -24.17c0,-4.95 -0.59,-9.5 -1.76,-13.67 -1.18,-4.18 -2.88,-7.79 -5.12,-10.86 -2.23,-3.05 -4.97,-5.47 -8.2,-7.23 -3.24,-1.76 -6.92,-2.64 -11.03,-2.64 -4.83,0 -8.41,1.09 -10.76,3.26 -2.36,2.19 -3.53,5.33 -3.53,9.45l0 55.22 7.23 0c22.11,0 33.17,-11.17 33.17,-33.52zm-40.4 38.29l0 26.47c0,3.64 0.29,6.73 0.88,9.26 0.59,2.54 1.5,4.59 2.74,6.18 1.23,1.58 2.79,2.79 4.67,3.61 1.88,0.83 4.11,1.36 6.7,1.59l0 1.06 -49.75 0 0 -1.06c4.11,-0.23 7.29,-1.83 9.52,-4.77 2.23,-2.94 3.35,-6.93 3.35,-12l0 -89.45c0,-5.06 -1.12,-9.06 -3.35,-12.01 -2.23,-2.93 -5.41,-4.52 -9.52,-4.76l0 -1.06 52.23 0c15.29,0 26.79,2.97 34.49,8.91 7.7,5.94 11.55,15.15 11.55,27.61 0,6.35 -1.38,12.03 -4.14,17.03 -2.77,5 -6.61,9.24 -11.56,12.7 -4.94,3.47 -10.85,6.12 -17.73,7.94 -6.88,1.83 -14.49,2.74 -22.85,2.74l-7.23 0zm-118.04 -76.93l0 1.06c-4.12,0.23 -7.29,1.83 -9.53,4.77 -2.23,2.94 -3.35,6.93 -3.35,12l0 66.52c0,12 2.79,21.15 8.38,27.43 5.59,6.3 13.56,9.44 23.91,9.44 10.23,0 18.44,-3.17 24.61,-9.52 6.18,-6.36 9.27,-16 9.27,-28.94l0 -61.4c0,-4.94 -1.15,-9.35 -3.44,-13.24 -2.29,-3.88 -5.5,-6.22 -9.62,-7.05l0 -1.06 30.52 0 0 1.06c-4.12,0.83 -7.29,3.14 -9.52,6.97 -2.24,3.82 -3.35,8.27 -3.35,13.32l0 61.4c0,6.83 -0.91,12.94 -2.74,18.36 -1.82,5.41 -4.52,10 -8.11,13.76 -3.59,3.77 -8.12,6.65 -13.59,8.64 -5.47,2 -11.85,3 -19.14,3 -15.88,0 -28.03,-3.88 -36.44,-11.65 -8.41,-7.76 -12.61,-19.59 -12.61,-35.46l0 -61.58c0,-4.95 -1.15,-8.92 -3.44,-11.91 -2.29,-3 -5.5,-4.62 -9.62,-4.85l0 -1.06 47.82 0zm-122.8 62.64l8.82 0c10.71,0 18.64,-2.47 23.82,-7.41 5.17,-4.94 7.76,-12.11 7.76,-21.53 0,-4.34 -0.58,-8.35 -1.76,-12 -1.18,-3.64 -2.91,-6.76 -5.2,-9.35 -2.29,-2.58 -5.03,-4.59 -8.21,-6 -3.18,-1.41 -6.83,-2.11 -10.94,-2.11 -4.47,0 -7.97,1 -10.5,3 -2.54,2 -3.79,5.48 -3.79,10.41l0 44.99zm64.22 47.28c2.23,4.12 4.42,7.27 6.53,9.44 2.11,2.18 4.88,3.74 8.29,4.68l0 1.06 -30.88 0c-0.59,-0.83 -1.32,-1.94 -2.2,-3.35 -0.88,-1.41 -1.79,-2.94 -2.74,-4.59 -0.94,-1.64 -1.88,-3.35 -2.82,-5.12 -0.94,-1.76 -1.76,-3.35 -2.47,-4.76l-10.76 -22.93c-1.41,-2.94 -2.89,-5.5 -4.41,-7.68 -1.54,-2.18 -3.3,-3.97 -5.3,-5.38 -2,-1.41 -4.3,-2.44 -6.88,-3.09 -2.59,-0.65 -5.71,-0.97 -9.35,-0.97l-1.23 0 0 40.05c0,5.3 0.91,9.35 2.73,12.18 1.82,2.82 5.32,4.35 10.5,4.59l0 1.06 -47.99 0 0 -1.06c4.11,-0.23 7.29,-1.76 9.52,-4.59 2.23,-2.82 3.35,-6.88 3.35,-12.18l0 -89.46c0,-5.05 -1.12,-9.05 -3.35,-12 -2.24,-2.93 -5.41,-4.52 -9.52,-4.76l0 -1.06 50.46 0c15.64,0 27.4,2.62 35.28,7.86 7.89,5.23 11.83,13.38 11.83,24.43 0,4.24 -0.83,8.09 -2.47,11.56 -1.64,3.47 -3.91,6.56 -6.79,9.26 -2.88,2.71 -6.35,5.03 -10.41,6.97 -4.06,1.93 -8.5,3.5 -13.32,4.67 3.06,0.24 6.15,1.33 9.27,3.27 3.11,1.93 5.85,5.14 8.2,9.61l16.94 32.29zm-159.15 -111.68c6.7,0 13.38,0.53 20.02,1.58 6.65,1.06 12.44,2.59 17.38,4.6l4.06 37.76 -0.17 0c-2.71,-5.3 -5.56,-10.32 -8.56,-15.09 -3,-4.77 -6.44,-8.91 -10.33,-12.44 -3.88,-3.53 -8.29,-6.35 -13.23,-8.46 -4.94,-2.12 -10.7,-3.17 -17.29,-3.17 -5.41,0 -10.47,1.03 -15.17,3.08 -4.7,2.06 -8.79,5.09 -12.26,9.09 -3.47,4 -6.2,8.97 -8.2,14.92 -2,5.94 -3,12.73 -3,20.38 0,10 1.65,19.2 4.94,27.61 3.29,8.41 7.64,15.65 13.06,21.7 5.41,6.06 11.56,10.76 18.44,14.11 6.88,3.35 13.85,5.03 20.91,5.03 2.94,0 5.67,-0.15 8.21,-0.44 2.53,-0.29 4.44,-0.67 5.73,-1.14l0 -37.93c0,-4.83 -1.15,-8.77 -3.44,-11.83 -2.29,-3.06 -5.62,-4.7 -9.97,-4.94l0 -1.06 46.58 0 0 1.06c-4.35,0.23 -7.64,1.88 -9.88,4.94 -2.24,3.06 -3.35,7 -3.35,11.83l0 47.11 -0.53 0c-0.94,-2.71 -2.47,-4.7 -4.59,-6 -2.11,-1.3 -4.42,-1.94 -6.88,-1.94 -1.06,0 -2,0.06 -2.82,0.18 -0.83,0.12 -1.83,0.4 -3,0.88 -4.24,1.88 -9.08,3.49 -14.56,4.85 -5.47,1.35 -11.91,2.03 -19.32,2.03 -7.29,0 -14.35,-1.21 -21.17,-3.62 -6.82,-2.41 -12.88,-6.15 -18.18,-11.2 -5.29,-5.05 -9.52,-11.41 -12.7,-19.06 -3.17,-7.64 -4.76,-16.7 -4.76,-27.17 0,-9.65 1.47,-18.56 4.41,-26.73 2.93,-8.18 7.2,-15.27 12.79,-21.26 5.59,-6 12.32,-10.7 20.2,-14.11 7.88,-3.41 16.76,-5.12 26.64,-5.12zm1184.15 186.58l46.05 0 0 1.44c-6.88,0.64 -11.91,3.32 -15.11,8.04 -3.2,4.72 -4.8,10.43 -4.8,17.14l0 143.41 -9.59 0 -105.28 -144.84 0 118.22c0,6.72 1.64,12.43 4.91,17.15 3.28,4.71 8.35,7.4 15.23,8.04l0 1.44 -46.04 0 0 -1.44c6.87,-0.64 11.9,-3.32 15.11,-8.04 3.19,-4.72 4.79,-10.44 4.79,-17.15l0 -120.86c0,-4.48 -1.84,-8.71 -5.52,-12.71 -3.68,-4 -8.47,-6.79 -14.38,-8.4l0 -1.44 43.89 0 90.89 125.42 0 -98.8c0,-6.72 -1.65,-12.43 -4.92,-17.14 -3.28,-4.71 -8.35,-7.4 -15.23,-8.04l0 -1.44zm-241 -9.35l-0.48 -0.48 38.37 -47.72 24.22 23.5 -1.19 4.31 -60.92 20.38zm33.33 175.78c7.68,0 14.66,-1.8 20.98,-5.4 6.31,-3.6 11.71,-8.63 16.19,-15.11 4.48,-6.47 7.91,-14.31 10.31,-23.5 2.39,-9.19 3.6,-19.38 3.6,-30.58 0,-12.95 -1.4,-24.86 -4.2,-35.73 -2.8,-10.87 -6.68,-20.27 -11.63,-28.18 -4.95,-7.91 -10.84,-14.06 -17.62,-18.46 -6.8,-4.39 -14.28,-6.59 -22.43,-6.59 -7.19,0 -13.79,1.79 -19.78,5.4 -5.99,3.6 -11.15,8.71 -15.47,15.34 -4.31,6.64 -7.67,14.55 -10.07,23.75 -2.39,9.19 -3.6,19.39 -3.6,30.57 0,12.95 1.32,24.82 3.95,35.61 2.64,10.8 6.32,20.11 11.03,27.94 4.71,7.83 10.39,13.95 17.03,18.35 6.63,4.39 13.87,6.59 21.7,6.59zm-2.4 5.51c-11.99,0 -23.14,-2.2 -33.46,-6.6 -10.3,-4.39 -19.3,-10.43 -26.97,-18.11 -7.68,-7.67 -13.67,-16.79 -17.99,-27.33 -4.31,-10.55 -6.47,-22.06 -6.47,-34.53 0,-12.15 2.24,-23.54 6.72,-34.18 4.47,-10.62 10.55,-19.94 18.22,-27.93 7.68,-8 16.67,-14.31 26.98,-18.95 10.31,-4.63 21.3,-6.95 32.97,-6.95 11.99,0 23.14,2.2 33.45,6.59 10.31,4.4 19.31,10.48 26.98,18.23 7.67,7.75 13.67,16.9 17.98,27.45 4.32,10.55 6.47,21.99 6.47,34.3 0,11.99 -2.24,23.34 -6.71,34.05 -4.48,10.71 -10.55,20.06 -18.23,28.06 -7.68,8 -16.66,14.31 -26.97,18.94 -10.31,4.64 -21.3,6.96 -32.97,6.96zm-195.2 -86.81l11.99 0c14.55,0 25.34,-3.35 32.38,-10.07 7.03,-6.72 10.55,-16.47 10.55,-29.25 0,-5.91 -0.8,-11.35 -2.39,-16.31 -1.61,-4.95 -3.96,-9.19 -7.07,-12.71 -3.12,-3.52 -6.83,-6.23 -11.16,-8.15 -4.31,-1.92 -9.27,-2.88 -14.87,-2.88 -6.08,0 -10.83,1.36 -14.27,4.07 -3.44,2.72 -5.16,7.44 -5.16,14.15l0 61.15zm87.29 64.27c3.03,5.6 6,9.88 8.88,12.83 2.87,2.96 6.63,5.08 11.27,6.35l0 1.44 -41.97 0c-0.8,-1.12 -1.8,-2.64 -3,-4.56 -1.19,-1.92 -2.43,-3.99 -3.71,-6.23 -1.28,-2.24 -2.56,-4.56 -3.84,-6.96 -1.28,-2.39 -2.39,-4.56 -3.35,-6.47l-14.63 -31.17c-1.92,-3.99 -3.92,-7.47 -5.99,-10.44 -2.08,-2.96 -4.48,-5.39 -7.19,-7.31 -2.72,-1.92 -5.84,-3.32 -9.35,-4.2 -3.52,-0.88 -7.76,-1.33 -12.72,-1.33l-1.68 0 0 54.44c0,7.19 1.24,12.71 3.72,16.55 2.47,3.84 7.23,5.92 14.27,6.23l0 1.44 -65.23 0 0 -1.44c5.59,-0.31 9.91,-2.39 12.95,-6.23 3.04,-3.84 4.56,-9.35 4.56,-16.55l0 -121.58c0,-6.87 -1.52,-12.31 -4.56,-16.3 -3.03,-3.99 -7.36,-6.15 -12.95,-6.48l0 -1.44 68.58 0c21.26,0 37.25,3.56 47.97,10.67 10.7,7.11 16.06,18.18 16.06,33.21 0,5.76 -1.12,10.99 -3.35,15.7 -2.25,4.72 -5.32,8.92 -9.24,12.59 -3.91,3.68 -8.63,6.83 -14.14,9.48 -5.52,2.63 -11.55,4.76 -18.11,6.35 4.15,0.33 8.35,1.8 12.58,4.44 4.24,2.64 7.96,7 11.16,13.07l23.02 43.89zm-253.95 -64.27l11.99 0c14.55,0 25.34,-3.35 32.37,-10.07 7.04,-6.72 10.55,-16.47 10.55,-29.25 0,-5.91 -0.8,-11.35 -2.39,-16.31 -1.61,-4.95 -3.96,-9.19 -7.08,-12.71 -3.12,-3.52 -6.84,-6.23 -11.16,-8.15 -4.31,-1.92 -9.27,-2.88 -14.87,-2.88 -6.08,0 -10.84,1.36 -14.27,4.07 -3.44,2.72 -5.16,7.44 -5.16,14.15l0 61.15zm87.29 64.27c3.04,5.6 6,9.88 8.88,12.83 2.87,2.96 6.63,5.08 11.26,6.35l0 1.44 -41.96 0c-0.8,-1.12 -1.8,-2.64 -3,-4.56 -1.19,-1.92 -2.43,-3.99 -3.71,-6.23 -1.28,-2.24 -2.56,-4.56 -3.84,-6.96 -1.28,-2.39 -2.39,-4.56 -3.35,-6.47l-14.63 -31.17c-1.92,-3.99 -3.92,-7.47 -5.99,-10.44 -2.08,-2.96 -4.48,-5.39 -7.19,-7.31 -2.72,-1.92 -5.84,-3.32 -9.35,-4.2 -3.52,-0.88 -7.76,-1.33 -12.72,-1.33l-1.68 0 0 54.44c0,7.19 1.24,12.71 3.72,16.55 2.47,3.84 7.23,5.92 14.27,6.23l0 1.44 -65.23 0 0 -1.44c5.59,-0.31 9.91,-2.39 12.95,-6.23 3.03,-3.84 4.56,-9.35 4.56,-16.55l0 -121.58c0,-6.87 -1.52,-12.31 -4.56,-16.3 -3.04,-3.99 -7.36,-6.15 -12.95,-6.48l0 -1.44 68.58 0c21.26,0 37.25,3.56 47.96,10.67 10.71,7.11 16.07,18.18 16.07,33.21 0,5.76 -1.12,10.99 -3.35,15.7 -2.24,4.72 -5.32,8.92 -9.24,12.59 -3.92,3.68 -8.63,6.83 -14.15,9.48 -5.51,2.63 -11.55,4.76 -18.1,6.35 4.15,0.33 8.35,1.8 12.58,4.44 4.24,2.64 7.96,7 11.16,13.07l23.02 43.89zm-271.22 -37.89l60.92 0 -31.65 -76.98 -29.26 76.98zm-16.55 24.46l53 -137.65 6.72 0 62.35 147.48c1.27,3.04 2.55,5.87 3.84,8.51 1.27,2.64 2.71,4.96 4.31,6.96 1.59,2 3.35,3.64 5.27,4.91 1.92,1.28 4.24,2.08 6.96,2.4l0 1.44 -65.95 0 0 -1.44c5.59,-0.64 9.74,-2.01 12.47,-4.08 2.72,-2.07 4.08,-5.19 4.08,-9.35 0,-2.07 -0.28,-4.16 -0.84,-6.24 -0.56,-2.07 -1.32,-4.31 -2.28,-6.71l-9.83 -24.22 -66.19 0 -7.68 20.38c-1.92,4.95 -2.88,9.59 -2.88,13.91 0,4.96 1.33,8.64 3.96,11.03 2.64,2.39 6.75,4.16 12.35,5.28l0 1.44 -44.85 0 0 -1.44c5.59,-1.6 10.43,-5.52 14.51,-11.76 4.08,-6.23 7.63,-13.19 10.67,-20.86zm-54.68 9.83c0.64,6.87 2.32,12.31 5.04,16.31 2.71,3.99 6.87,6.16 12.46,6.47l0 1.44 -64.99 0 0 -1.44c5.59,-0.31 10.08,-2.51 13.43,-6.59 3.35,-4.08 4.79,-9.47 4.31,-16.19l-9.11 -121.82 -54.44 142.92 -6.95 0 -56.59 -139.33 -8.39 115.83c-0.48,6.71 0.96,12.43 4.31,17.15 3.36,4.71 7.83,7.4 13.43,8.03l0 1.44 -41.25 0 0 -1.44c5.59,-0.63 9.79,-3.32 12.59,-8.03 2.8,-4.72 4.44,-10.44 4.91,-17.15l8.4 -114.39c0.31,-4.8 0.2,-8.79 -0.37,-11.99 -0.56,-3.2 -1.55,-5.83 -3,-7.92 -1.44,-2.07 -3.2,-3.71 -5.27,-4.91 -2.08,-1.2 -4.48,-2.11 -7.19,-2.76l0 -1.44 41.72 0 51.8 126.62 47.48 -126.62 40.77 0 0 1.44c-1.61,0.8 -3.24,1.76 -4.92,2.88 -1.68,1.12 -3.15,2.72 -4.43,4.8 -1.28,2.08 -2.25,4.68 -2.88,7.79 -0.64,3.12 -0.8,7 -0.48,11.63l9.6 117.27zm-265.46 -144.37l0 -1.44 64.99 0 0 1.44c-5.59,0.33 -9.91,2.52 -12.95,6.6 -3.04,4.07 -4.56,9.47 -4.56,16.19l0 121.58c0,6.72 1.56,12.11 4.68,16.19 3.11,4.08 7.47,6.28 13.07,6.6l0 1.44 -64.99 0 0 -1.44c5.59,-0.32 9.91,-2.52 12.95,-6.6 3.04,-4.08 4.56,-9.47 4.56,-16.19l0 -121.58c0,-6.72 -1.55,-12.11 -4.67,-16.19 -3.12,-4.08 -7.48,-6.27 -13.07,-6.6z"/>
 </g>
</svg>
