<?xml version="1.0" encoding="UTF-8"?>
<!DOCTYPE svg PUBLIC "-//W3C//DTD SVG 1.1//EN" "http://www.w3.org/Graphics/SVG/1.1/DTD/svg11.dtd">
<!-- Creator: CorelDRAW -->
<svg xmlns="http://www.w3.org/2000/svg" xml:space="preserve" width="49.2892mm" height="49.2892mm" version="1.1" style="shape-rendering:geometricPrecision; text-rendering:geometricPrecision; image-rendering:optimizeQuality; fill-rule:evenodd; clip-rule:evenodd"
viewBox="0 0 251.52 251.52"
 xmlns:xlink="http://www.w3.org/1999/xlink"
 xmlns:xodm="http://www.corel.com/coreldraw/odm/2003">
 <defs>
  <style type="text/css">
   <![CDATA[
    .fil0 {fill:none}
    .fil1 {fill:#202040}
    .fil2 {fill:#29B16E}
    .fil3 {fill:#FC0E28}
   ]]>
  </style>
 </defs>
 <g id="Capa_x0020_1">
  <metadata id="CorelCorpID_0Corel-Layer"/>
  <g id="_2487265951408">
   <polygon class="fil0" points="125.76,44.66 188.64,148.09 251.52,251.52 125.76,251.52 -0,251.52 62.88,148.09 "/>
   <polygon class="fil0" points="125.76,44.66 188.64,148.09 251.52,251.52 125.76,251.52 -0,251.52 62.88,148.09 "/>
   <polygon class="fil1" points="125.76,44.66 188.64,148.09 251.52,251.52 125.76,251.52 -0,251.52 62.88,148.09 "/>
   <polygon class="fil2" points="88.34,106.2 132.52,178.86 176.69,251.52 88.34,251.52 -0,251.52 44.17,178.86 "/>
   <polygon class="fil3" points="162.49,22.33 144.12,33.5 125.76,44.66 125.76,22.33 125.76,0 144.12,11.17 "/>
  </g>
 </g>
</svg>
