<?xml version="1.0" encoding="UTF-8"?>
<!DOCTYPE svg PUBLIC "-//W3C//DTD SVG 1.1//EN" "http://www.w3.org/Graphics/SVG/1.1/DTD/svg11.dtd">
<!-- Creator: CorelDRAW -->
<svg xmlns="http://www.w3.org/2000/svg" xml:space="preserve" width="67.3274mm" height="40.3032mm" version="1.1" style="shape-rendering:geometricPrecision; text-rendering:geometricPrecision; image-rendering:optimizeQuality; fill-rule:evenodd; clip-rule:evenodd"
viewBox="0 0 2106.69 1261.09"
 xmlns:xlink="http://www.w3.org/1999/xlink"
 xmlns:xodm="http://www.corel.com/coreldraw/odm/2003">
 <defs>
  <style type="text/css">
   <![CDATA[
    .fil0 {fill:#191B1F}
    .fil1 {fill:#A37535}
   ]]>
  </style>
 </defs>
 <g id="Capa_x0020_1">
  <metadata id="CorelCorpID_0Corel-Layer"/>
  <g id="_2490416138480">
   <polygon class="fil0" points="1358.83,483.58 1358.83,742.75 1121.8,518.34 1121.79,259.17 "/>
   <polygon class="fil1" points="1121.79,259.17 1495.73,259.17 1732.76,483.58 1358.83,483.58 "/>
   <polygon class="fil0" points="984.9,742.75 984.9,1001.92 747.87,777.51 747.87,518.34 "/>
   <polygon class="fil1" points="747.87,518.34 1121.8,518.34 1358.83,742.75 984.9,742.75 "/>
   <polygon class="fil0" points="1732.76,224.41 1732.76,483.58 1495.72,259.17 1495.72,0 "/>
   <polygon class="fil1" points="1495.72,0 1869.65,0 2106.69,224.41 1732.76,224.41 "/>
   <polygon class="fil1" points="373.93,777.51 747.87,777.51 984.9,1001.92 610.97,1001.92 "/>
   <polygon class="fil0" points="610.97,1001.92 610.97,1261.09 373.94,1036.68 373.93,777.51 "/>
   <polygon class="fil1" points="-0,1036.68 373.93,1036.68 610.97,1261.09 237.03,1261.09 "/>
  </g>
 </g>
</svg>
