<?xml version="1.0" encoding="UTF-8"?>
<!DOCTYPE svg PUBLIC "-//W3C//DTD SVG 1.1//EN" "http://www.w3.org/Graphics/SVG/1.1/DTD/svg11.dtd">
<!-- Creator: CorelDRAW -->
<svg xmlns="http://www.w3.org/2000/svg" xml:space="preserve" width="59.3782mm" height="40.1532mm" version="1.1" style="shape-rendering:geometricPrecision; text-rendering:geometricPrecision; image-rendering:optimizeQuality; fill-rule:evenodd; clip-rule:evenodd"
viewBox="0 0 138113.86 93396.46"
 xmlns:xlink="http://www.w3.org/1999/xlink"
 xmlns:xodm="http://www.corel.com/coreldraw/odm/2003">
 <defs>
  <style type="text/css">
   <![CDATA[
    .fil0 {fill:#191B1F}
    .fil2 {fill:#A98D85}
    .fil1 {fill:#FFF5EF}
   ]]>
  </style>
 </defs>
 <g id="Capa_x0020_1">
  <metadata id="CorelCorpID_0Corel-Layer"/>
  <g id="_2490801767280">
   <path class="fil0" d="M91415.4 0c25790.49,0 46698.46,20907.28 46698.46,46698.23 0,25790.49 -20907.97,46698.23 -46698.46,46698.23 -8100.54,0 -15718.43,-2064.09 -22358.47,-5692.43l0 -82011.6c6640.04,-3629.03 14257.93,-5692.43 22358.47,-5692.43z"/>
   <path class="fil1" d="M46698.23 0c-25790.95,0 -46698.23,20907.28 -46698.23,46698.23 0,25790.49 20907.28,46698.23 46698.23,46698.23 8100.54,0 15718.66,-2064.09 22358.7,-5692.43l0 -82011.6c-6640.04,-3629.03 -14258.16,-5692.43 -22358.7,-5692.43z"/>
   <path class="fil2" d="M69056.7 87704.26c-14502.16,-7924.23 -24339.53,-23315.85 -24339.53,-41006.03 0,-17690.41 9837.6,-33082.27 24339.76,-41006.27 14501.93,7924.23 24339.29,23315.85 24339.29,41006.27 0,17690.18 -9837.6,33082.04 -24339.53,41006.03z"/>
  </g>
 </g>
</svg>
