<svg id="_2504341853024" xmlns="http://www.w3.org/2000/svg" width="603.883" height="141.341" viewBox="0 0 603.883 141.341">
  <path id="Trazado_614" data-name="Trazado 614" d="M386.222,538.224h6.558a17.057,17.057,0,0,1,4.125.5,11.382,11.382,0,0,1,3.37,1.4,10.749,10.749,0,0,1,3.807,4.067,12.258,12.258,0,0,1,1.454,5.66,12.012,12.012,0,0,1-1.459,5.554,11.061,11.061,0,0,1-3.795,4.048,11.368,11.368,0,0,1-3.376,1.407,17.034,17.034,0,0,1-4.123.5H385.89V538.22h.338ZM800.05,556.1a3.039,3.039,0,0,0,1.085,2.616,2.709,2.709,0,0,0,1.554.452,2.848,2.848,0,0,0,2.037-.693,2.613,2.613,0,0,0,.722-1.944c0-1.8-1.513-2.382-2.658-2.824-.16-.06-.311-.12-.434-.17-1.791-.608-4.621-1.569-4.621-4.93a4.864,4.864,0,0,1,5.075-4.953l.058,0a4.9,4.9,0,0,1,3.384,1.378,4.736,4.736,0,0,1,1.419,3.426l0,.394H804.9l-.023-.313a2.622,2.622,0,0,0-.651-1.672,2.093,2.093,0,0,0-1.5-.627,2.115,2.115,0,0,0-1.535.591,2.241,2.241,0,0,0-.647,1.56,1.916,1.916,0,0,0,.89,1.62,6.967,6.967,0,0,0,1.851.824,9.716,9.716,0,0,1,3.206,1.579,4.735,4.735,0,0,1,1.764,3.874v.075a5.42,5.42,0,0,1-1.372,3.793,5.5,5.5,0,0,1-4.1,1.6l-.222,0a5.7,5.7,0,0,1-3.544-1.342,5.255,5.255,0,0,1-1.762-4.133l.01-.508h2.782l.006.332Zm-19.221-2.268a5.959,5.959,0,0,0,1.9,3.621,6.2,6.2,0,0,0,4.17,1.716,6.509,6.509,0,0,0,3.482-1.039,5.478,5.478,0,0,0,2.152-2.656l.081-.222h2.955l-.156.448a9.116,9.116,0,0,1-3.3,4.392,8.887,8.887,0,0,1-5.181,1.664,9.023,9.023,0,0,1-6.368-15.383,9.1,9.1,0,0,1,6.332-2.718h.008a8.961,8.961,0,0,1,7.7,4.419,8.649,8.649,0,0,1,1.131,2.793,9.977,9.977,0,0,1,.189,2.645l-.019.319H780.827Zm12.19-2.587a6.191,6.191,0,0,0-10.185-3.444,6.185,6.185,0,0,0-1.967,3.442h12.152ZM775.09,561.367h-2.463v-2.332a7.477,7.477,0,0,1-2.282,1.78,8.829,8.829,0,0,1-3.909.946,9.272,9.272,0,0,1-6.573-2.6,9.068,9.068,0,0,1,.044-12.937,9.2,9.2,0,0,1,6.527-2.567,8.767,8.767,0,0,1,3.884.923,7.616,7.616,0,0,1,2.307,1.786v-8.146h2.8v23.143h-.338Zm-8.652-2.193a6.279,6.279,0,0,0,4.486-1.884,6.431,6.431,0,0,0,1.826-4.548,6.634,6.634,0,0,0-1.861-4.619,6.15,6.15,0,0,0-4.45-1.876,6.294,6.294,0,0,0-6.463,6.523,6.25,6.25,0,0,0,6.463,6.4Zm-11.993,2.193h-2.463v-2.328a7.41,7.41,0,0,1-2.284,1.8,8.728,8.728,0,0,1-3.907.923,9.272,9.272,0,0,1-6.573-2.6,9.068,9.068,0,0,1,.044-12.937,9.194,9.194,0,0,1,6.527-2.567,8.725,8.725,0,0,1,3.942.925,7.19,7.19,0,0,1,2.247,1.8v-2.3h2.8v17.281h-.338Zm-8.654-2.193a6.279,6.279,0,0,0,4.486-1.884,6.431,6.431,0,0,0,1.826-4.548,6.634,6.634,0,0,0-1.861-4.619,6.149,6.149,0,0,0-4.45-1.876,6.295,6.295,0,0,0-6.463,6.523,6.25,6.25,0,0,0,6.463,6.4Zm-12.237,2.193h-2.463v-2.332a7.476,7.476,0,0,1-2.282,1.78,8.83,8.83,0,0,1-3.909.946,9.272,9.272,0,0,1-6.573-2.6,9.068,9.068,0,0,1,.044-12.937,9.2,9.2,0,0,1,6.527-2.567,8.768,8.768,0,0,1,3.884.923,7.619,7.619,0,0,1,2.307,1.786v-8.146h2.8v23.143h-.338Zm-8.652-2.193a6.279,6.279,0,0,0,4.486-1.884,6.431,6.431,0,0,0,1.826-4.548,6.633,6.633,0,0,0-1.861-4.619,6.15,6.15,0,0,0-4.45-1.876,6.295,6.295,0,0,0-6.463,6.523,6.25,6.25,0,0,0,6.463,6.4Zm-26.141-5.336a5.958,5.958,0,0,0,1.9,3.621,6.2,6.2,0,0,0,4.17,1.716,6.511,6.511,0,0,0,3.482-1.04,5.479,5.479,0,0,0,2.152-2.656l.081-.222H713.5l-.156.448a9.119,9.119,0,0,1-3.305,4.392,8.887,8.887,0,0,1-5.181,1.664,9.023,9.023,0,0,1-6.368-15.383,9.1,9.1,0,0,1,6.332-2.718h.008a8.961,8.961,0,0,1,7.7,4.419,8.652,8.652,0,0,1,1.131,2.793,10.062,10.062,0,0,1,.189,2.645l-.019.32H698.762Zm12.19-2.587a6.191,6.191,0,0,0-10.185-3.444,6.184,6.184,0,0,0-1.967,3.442h12.15Zm-32.5-7.166h2.5l5.639,13.439,5.727-13.439h3.006q-3.651,8.64-7.3,17.281H685.24l-7.3-17.281h.506Zm-10.171-.425a8.944,8.944,0,0,1,6.347,2.656,8.931,8.931,0,0,1,0,12.8,9.005,9.005,0,0,1-15.339-6.285,9.1,9.1,0,0,1,8.99-9.173Zm.031,15.514a6.223,6.223,0,0,0,4.465-1.936,6.559,6.559,0,0,0,1.755-4.619,6.168,6.168,0,0,0-1.751-4.415,6.47,6.47,0,0,0-4.469-1.957,6.3,6.3,0,0,0-4.463,1.975,6.5,6.5,0,0,0-1.757,4.579,6.359,6.359,0,0,0,1.811,4.482A6.2,6.2,0,0,0,668.309,559.172ZM641.8,544.081h2.463v1.564a6.067,6.067,0,0,1,1.73-1.288,6.834,6.834,0,0,1,3.094-.7,8.421,8.421,0,0,1,2.936.469,6.985,6.985,0,0,1,2.556,1.664,6.729,6.729,0,0,1,1.622,2.606,10.466,10.466,0,0,1,.542,3.49v9.476h-2.8v-9.476a7.7,7.7,0,0,0-.386-2.525,4.5,4.5,0,0,0-1.089-1.784,4.584,4.584,0,0,0-1.517-.969,4.963,4.963,0,0,0-3.726,0,4.55,4.55,0,0,0-1.515.967,4.453,4.453,0,0,0-1.087,1.793,7.459,7.459,0,0,0-.359,2.517c.11.33,0,8.32,0,9.48h-2.8V544.081h.338Zm-20.1,16.391-6.6-16.391h2.973l5.067,12.694,5.415-12.694h2.979q-4.961,11.556-9.914,23.111h-2.961Zm-23.556-4.37a3.04,3.04,0,0,0,1.085,2.616,2.71,2.71,0,0,0,1.554.452,2.849,2.849,0,0,0,2.037-.693,2.613,2.613,0,0,0,.722-1.944c0-1.8-1.513-2.382-2.658-2.822-.149-.058-.295-.114-.434-.172h0c-1.791-.608-4.619-1.569-4.619-4.93a4.864,4.864,0,0,1,5.075-4.953l.058,0a4.9,4.9,0,0,1,3.384,1.378,4.735,4.735,0,0,1,1.419,3.426l0,.394h-2.772l-.023-.313a2.632,2.632,0,0,0-.652-1.672,2.089,2.089,0,0,0-1.5-.627,2.115,2.115,0,0,0-1.535.591,2.232,2.232,0,0,0-.647,1.56,1.916,1.916,0,0,0,.89,1.62,6.966,6.966,0,0,0,1.851.824,9.718,9.718,0,0,1,3.206,1.579,4.735,4.735,0,0,1,1.764,3.874v.075a5.421,5.421,0,0,1-1.371,3.793,5.5,5.5,0,0,1-4.1,1.6l-.222,0a5.711,5.711,0,0,1-3.546-1.342,5.256,5.256,0,0,1-1.764-4.133l.01-.508h2.782l.006.332ZM585,543.658a8.946,8.946,0,0,1,6.349,2.656,8.931,8.931,0,0,1,0,12.8,9.005,9.005,0,0,1-15.339-6.285,9.1,9.1,0,0,1,8.99-9.173Zm.031,15.514a6.219,6.219,0,0,0,4.465-1.936,6.559,6.559,0,0,0,1.755-4.619A6.168,6.168,0,0,0,589.5,548.2a6.471,6.471,0,0,0-4.469-1.957,6.3,6.3,0,0,0-4.463,1.975,6.5,6.5,0,0,0-1.757,4.579,6.363,6.363,0,0,0,1.811,4.482A6.2,6.2,0,0,0,585.028,559.172Zm-14.057-20.95h2.463v23.143h-2.8V538.222Zm-3.857,23.141h-2.463v-2.328a7.411,7.411,0,0,1-2.284,1.8,8.729,8.729,0,0,1-3.907.923,9.272,9.272,0,0,1-6.573-2.6,9.065,9.065,0,0,1,.044-12.935,9.2,9.2,0,0,1,6.527-2.567,8.725,8.725,0,0,1,3.942.925,7.188,7.188,0,0,1,2.247,1.8v-2.3h2.8q-.006,8.64,0,17.281h-.338Zm-8.654-2.193a6.279,6.279,0,0,0,4.486-1.884,6.431,6.431,0,0,0,1.826-4.548,6.634,6.634,0,0,0-1.861-4.619,6.15,6.15,0,0,0-4.451-1.876A6.294,6.294,0,0,0,552,552.767a6.25,6.25,0,0,0,6.463,6.4Zm-11.9-.755a9.736,9.736,0,0,1-1.585,6.274,7.2,7.2,0,0,1-2.845,2.3,10.169,10.169,0,0,1-4.015.9,9.921,9.921,0,0,1-5.662-1.726,8.389,8.389,0,0,1-3.16-4.619l-.127-.432h2.924l.085.212a6.509,6.509,0,0,0,2.33,2.961,6.264,6.264,0,0,0,3.581,1.017,5.369,5.369,0,0,0,5.675-5.857v-.411a6.587,6.587,0,0,1-2.1,1.739,8.656,8.656,0,0,1-4.029.983,9.224,9.224,0,0,1-6.438-2.662,8.729,8.729,0,0,1-2.583-6.3,9.01,9.01,0,0,1,2.591-6.415,9.121,9.121,0,0,1,6.43-2.728,8.353,8.353,0,0,1,3.865.942,7.453,7.453,0,0,1,2.264,1.851v-2.367h2.8v14.333Zm-8.93.755a5.863,5.863,0,0,0,4.318-1.791,6.934,6.934,0,0,0,1.934-4.643,6.653,6.653,0,0,0-1.853-4.606,6.065,6.065,0,0,0-8.783-.012,6.685,6.685,0,0,0-1.836,4.616,6.582,6.582,0,0,0,1.836,4.573,6.05,6.05,0,0,0,4.384,1.859Zm-25.836-5.336a5.959,5.959,0,0,0,1.9,3.621,6.2,6.2,0,0,0,4.17,1.716,6.509,6.509,0,0,0,3.482-1.039,5.479,5.479,0,0,0,2.152-2.656l.081-.222h2.955l-.156.448a9.115,9.115,0,0,1-3.3,4.392,8.887,8.887,0,0,1-5.181,1.664,9.023,9.023,0,0,1-6.368-15.383,9.1,9.1,0,0,1,6.332-2.718h.008a8.961,8.961,0,0,1,7.7,4.419,8.7,8.7,0,0,1,1.131,2.793,9.894,9.894,0,0,1,.189,2.645l-.019.32H511.793Zm12.19-2.587A6.191,6.191,0,0,0,513.8,547.8a6.184,6.184,0,0,0-1.967,3.442h12.152Zm-22.937-7.166h2.463v1.554a4.238,4.238,0,0,1,1.618-1.363,7.387,7.387,0,0,1,2.757-.614l.359-.025v2.917l-.311.025a5.84,5.84,0,0,0-1.957.483,3.948,3.948,0,0,0-1.394,1.037,4.8,4.8,0,0,0-.8,1.471,5.475,5.475,0,0,0-.276,1.741v10.053h-2.8V544.077h.338Zm-15.7,12.781h2.77l-2.979,6.534h-2.986l2.979-6.534Zm-11.687-.761a3.04,3.04,0,0,0,1.085,2.616,2.71,2.71,0,0,0,1.554.452,2.849,2.849,0,0,0,2.037-.693,2.613,2.613,0,0,0,.722-1.944c0-1.8-1.513-2.382-2.658-2.822-.149-.058-.295-.114-.434-.172h0c-1.791-.608-4.619-1.568-4.619-4.93a4.864,4.864,0,0,1,5.075-4.953l.058,0a4.9,4.9,0,0,1,3.384,1.378,4.735,4.735,0,0,1,1.419,3.425l0,.394H478.51l-.023-.313a2.632,2.632,0,0,0-.651-1.672,2.09,2.09,0,0,0-1.5-.627,2.114,2.114,0,0,0-1.535.591,2.232,2.232,0,0,0-.647,1.56,1.916,1.916,0,0,0,.89,1.62,6.978,6.978,0,0,0,1.853.824,9.715,9.715,0,0,1,3.206,1.579,4.734,4.734,0,0,1,1.764,3.874v.073a5.423,5.423,0,0,1-1.371,3.795,5.5,5.5,0,0,1-4.1,1.6l-.22,0a5.711,5.711,0,0,1-3.546-1.342,5.256,5.256,0,0,1-1.764-4.133l.01-.508h2.782l.006.332Zm-19.221-2.268a5.958,5.958,0,0,0,1.9,3.621,6.2,6.2,0,0,0,4.17,1.716,6.507,6.507,0,0,0,3.482-1.039,5.479,5.479,0,0,0,2.152-2.656l.081-.222h2.955l-.156.448a9.116,9.116,0,0,1-3.3,4.392,8.887,8.887,0,0,1-5.181,1.664,9.023,9.023,0,0,1-6.368-15.383,9.1,9.1,0,0,1,6.332-2.718h.008a8.962,8.962,0,0,1,7.7,4.419,8.653,8.653,0,0,1,1.131,2.793,9.978,9.978,0,0,1,.189,2.645l-.019.319H454.44Zm12.19-2.587a6.191,6.191,0,0,0-10.185-3.444,6.185,6.185,0,0,0-1.967,3.442h12.152Zm-16.81,5.046a10.848,10.848,0,0,1-2.747,3.523,8.916,8.916,0,0,1-5.81,1.944,9.272,9.272,0,0,1-6.544-2.6,8.945,8.945,0,0,1,0-12.847,9.317,9.317,0,0,1,6.542-2.658,9.7,9.7,0,0,1,5.249,1.556,8.715,8.715,0,0,1,3.322,4.089l.189.465h-3.04l-.1-.181a6.169,6.169,0,0,0-2.286-2.44,6.389,6.389,0,0,0-3.274-.9,6.8,6.8,0,0,0-4.7,1.923,6.182,6.182,0,0,0-1.828,4.509,6.615,6.615,0,0,0,9.808,5.671,5.956,5.956,0,0,0,2.278-2.367l.1-.183h3.094l-.253.492Zm-22.827-18.07h2.463v23.143h-2.8V538.22Zm-4.008,23.141h-2.34v-1.853a5.7,5.7,0,0,1-1.683,1.434,6.76,6.76,0,0,1-3.353.815,8.1,8.1,0,0,1-3.971-.946,6.684,6.684,0,0,1-2-1.67,6.607,6.607,0,0,1-1.239-2.7,12.885,12.885,0,0,1-.293-2.861v-9.507h2.8v9.476a9.323,9.323,0,0,0,.305,2.538,4.547,4.547,0,0,0,.8,1.622,4.152,4.152,0,0,0,1.776,1.172,5.612,5.612,0,0,0,1.818.282,5.34,5.34,0,0,0,1.7-.251,4,4,0,0,0,1.585-.985,4.868,4.868,0,0,0,1.156-1.652,8.112,8.112,0,0,0,.475-3.089v-9.113h2.8v17.281h-.338Zm-34.183-2.71h2.911c1.99,0,5.015,0,7.507-1.751a9.952,9.952,0,0,0,2.187-2.569,8.936,8.936,0,0,0,1.2-4.571,8.758,8.758,0,0,0-.975-4,9.028,9.028,0,0,0-2.71-3.164,9.26,9.26,0,0,0-3.089-1.3,18.669,18.669,0,0,0-4.121-.367H388.8v17.725Z" transform="translate(-305.826 -426.549)" fill="#23a9e1"/>
  <path id="Trazado_615" data-name="Trazado 615" d="M101.071,50.53A50.53,50.53,0,1,1,50.54,0,50.53,50.53,0,0,1,101.071,50.53Z" transform="translate(-0.01)" fill="#23a9e1"/>
  <path id="Trazado_616" data-name="Trazado 616" d="M127.175,87.642c-2.886-3.166-8.658-9.4-18.808-9.4-14.339,0-25.512,12.291-25.512,26.722,0,15.177,12.569,26.35,25.605,26.35,1.954,0,17.132-.187,23.742-17.132H100.08V104.96h43.576c-.371,23.091-18.808,35.567-35.567,35.567A35.265,35.265,0,0,1,72.8,104.96c0-19.833,15.364-35.94,35.2-35.94a35.308,35.308,0,0,1,30.913,18.622H127.177Z" transform="translate(-57.697 -54.7)" fill="#fff"/>
  <path id="Trazado_617" data-name="Trazado 617" d="M522.407,116.064A44.244,44.244,0,1,1,478.164,71.82,44.243,44.243,0,0,1,522.407,116.064Z" transform="translate(-343.891 -56.919)" fill="#bfd42f"/>
  <path id="Trazado_618" data-name="Trazado 618" d="M538.615,163.1c-11.918,0-17.69,10.335-17.69,18.435,0,9.312,7.355,18.157,17.6,18.157a18.021,18.021,0,0,0,17.97-18.157C556.492,170.552,548.579,163.1,538.615,163.1Zm17.69,44.134V199.23h-.187c-3.724,6.332-10.522,9.312-17.505,9.312-17.412,0-27.373-13.314-27.373-26.908,0-12.569,8.845-27.373,27.373-27.373,7.169,0,13.781,2.979,17.505,8.658h.187v-7.262h9.683v51.582h-9.683Z" transform="translate(-405.169 -122.254)" fill="#fff"/>
  <path id="Trazado_619" data-name="Trazado 619" d="M888.547,77.044A44.244,44.244,0,1,1,844.3,32.8,44.243,44.243,0,0,1,888.547,77.044Z" transform="translate(-634.064 -25.995)" fill="#e2188f"/>
  <path id="Trazado_620" data-name="Trazado 620" d="M999.653,148.9H989.97V80h9.683Z" transform="translate(-784.57 -63.401)" fill="#fff"/>
  <path id="Trazado_621" data-name="Trazado 621" d="M1160.661,116.309a44.18,44.18,0,1,1-44.179-44.179,44.182,44.182,0,0,1,44.179,44.179Z" transform="translate(-849.819 -57.164)" fill="#f99d25"/>
  <path id="Trazado_622" data-name="Trazado 622" d="M1201.257,178.171c-.465-7.542-7.355-15.084-16.667-15.084s-16.2,7.542-16.667,15.084h33.332Zm-33.332,7.449c2.421,9.963,10.428,14.059,16.945,14.059a16.489,16.489,0,0,0,14.71-8.658h9.683a26.289,26.289,0,0,1-24.767,17.5c-14.619,0-26.257-12.569-26.257-27.189,0-15.455,11.918-27.1,26.444-27.1a26.444,26.444,0,0,1,26.257,26.444c0,1.676-.187,4.282-.28,4.934h-42.737Z" transform="translate(-917.927 -122.238)" fill="#fff"/>
  <path id="Trazado_623" data-name="Trazado 623" d="M1518.581,116.309A44.18,44.18,0,1,1,1474.4,72.13a44.182,44.182,0,0,1,44.182,44.179Z" transform="translate(-1133.476 -57.164)" fill="#a33895"/>
  <path id="Trazado_624" data-name="Trazado 624" d="M1589.3,210.369V158.786h9.032v4.656h.187c4.1-5.772,10.708-5.959,13.127-6.052v9.963a18.161,18.161,0,0,0-6.982,1.863c-3.073,1.676-5.681,5.588-5.681,12.943v28.211H1589.3Z" transform="translate(-1259.549 -124.734)" fill="#fff"/>
  <path id="Trazado_625" data-name="Trazado 625" d="M1804.341,90.289a44.18,44.18,0,1,1-44.179-44.179A44.182,44.182,0,0,1,1804.341,90.289Z" transform="translate(-1359.946 -36.543)" fill="#00afaa"/>
  <path id="Trazado_626" data-name="Trazado 626" d="M1914.064,146.6h-9.683V95.018h9.683ZM1904.14,91l5.986-12.9,9.905-.058L1912.5,91h-8.356Z" transform="translate(-1509.066 -61.848)" fill="#fff"/>
  <path id="Trazado_627" data-name="Trazado 627" d="M2149.24,115.419a44.18,44.18,0,1,1-44.181-44.179A44.18,44.18,0,0,1,2149.24,115.419Z" transform="translate(-1633.285 -56.459)" fill="#d02030"/>
  <path id="Trazado_628" data-name="Trazado 628" d="M2169.246,162.213c-11.918,0-17.692,10.335-17.692,18.435,0,9.312,7.355,18.157,17.6,18.157a18.021,18.021,0,0,0,17.97-18.157c0-10.986-7.913-18.435-17.876-18.435Zm17.69,44.134V198.34h-.187c-3.724,6.332-10.521,9.312-17.505,9.312-17.412,0-27.373-13.314-27.373-26.908,0-12.569,8.845-27.373,27.373-27.373,7.169,0,13.781,2.979,17.505,8.658h.187v-7.262h9.683v51.582h-9.683Z" transform="translate(-1697.471 -121.548)" fill="#fff"/>
  <path id="Trazado_629" data-name="Trazado 629" d="M2484.8,160.983a32.484,32.484,0,1,1-32.484-32.483A32.484,32.484,0,0,1,2484.8,160.983Z" transform="translate(-1917.759 -101.838)" fill="#23a9e1"/>
  <path id="Trazado_630" data-name="Trazado 630" d="M2520.671,233.006a5.726,5.726,0,0,0-1.318-1.82,4.368,4.368,0,0,0-3-1.071,4.7,4.7,0,0,0-3.6,1.45,6.214,6.214,0,0,0,0,8,4.922,4.922,0,0,0,6.125.772,4.883,4.883,0,0,0,1.764-2.1l.069-.147h3.9l-.115.334a8.717,8.717,0,0,1-3.144,4.309,8.6,8.6,0,0,1-5.06,1.608,8.2,8.2,0,0,1-6.028-2.461,9.136,9.136,0,0,1-2.511-6.312,8.979,8.979,0,0,1,2.507-6.264,8.314,8.314,0,0,1,6.061-2.477,8.472,8.472,0,0,1,5.073,1.633,8.26,8.26,0,0,1,3.1,4.363l.081.315h-3.836l-.071-.143Zm-18.783,10.683v-1.656a6.587,6.587,0,0,1-2.121,1.589,7.915,7.915,0,0,1-3.4.728,8.445,8.445,0,0,1-6.137-2.425,8.88,8.88,0,0,1-2.517-6.258,9.278,9.278,0,0,1,2.542-6.4,8.278,8.278,0,0,1,6.112-2.434,8.046,8.046,0,0,1,3.235.668,6.587,6.587,0,0,1,2.054,1.4V221.85h3.54v22.093h-3.307v-.253Zm-5.347-13.574a4.958,4.958,0,0,0-3.693,1.525,5.925,5.925,0,0,0-1.6,4,5.6,5.6,0,0,0,1.575,3.861,5.09,5.09,0,0,0,3.685,1.575,5.314,5.314,0,0,0,3.8-1.579,5.475,5.475,0,0,0,1.577-3.855,5.575,5.575,0,0,0-1.509-3.953,5.288,5.288,0,0,0-3.84-1.571Z" transform="translate(-1971.555 -175.82)" fill="#fff"/>
  <path id="Trazado_631" data-name="Trazado 631" d="M2779.927,265.151a12.047,12.047,0,1,0,12.046,12.046A12.06,12.06,0,0,0,2779.927,265.151Zm-2.548,13.627v5.986H2773.3V268.942h6.231A7.824,7.824,0,0,1,2784.1,270a3.762,3.762,0,0,1,1.456,3.316,4.182,4.182,0,0,1-.751,2.579,4.344,4.344,0,0,1-2.286,1.473,3.158,3.158,0,0,1,1.5.876,7.569,7.569,0,0,1,1.336,2.042l2.226,4.482h-4.342l-1.934-3.93a4.229,4.229,0,0,0-1.182-1.612,2.649,2.649,0,0,0-1.6-.446h-1.152Zm1.718-2.807a2.767,2.767,0,0,0,1.826-.492,2.417,2.417,0,0,0,0-3.114,2.87,2.87,0,0,0-1.826-.461h-1.718v4.067Zm.83,16.343a15.117,15.117,0,1,1,15.117-15.117A15.134,15.134,0,0,1,2779.927,292.314Z" transform="translate(-2191.161 -207.703)" fill="#23a9e1"/>
</svg>
