<svg id="_2489463724848" xmlns="http://www.w3.org/2000/svg" width="93.35" height="93.35" viewBox="0 0 93.35 93.35">
  <ellipse id="Elipse_11" data-name="Elipse 11" cx="46.675" cy="46.675" rx="46.675" ry="46.675" fill="none"/>
  <g id="Grupo_24" data-name="Grupo 24" transform="translate(21.953 9.779)">
    <path id="Trazado_157" data-name="Trazado 157" d="M96.336,102.875h41.082v.264H96.336Zm34.553-4.16h.317v2.74h-.317Zm-31.708,0H99.5v2.74h-.317Zm11.535,2.74h-.369c.2-.427.355-.939.541-1.406l.391-1.034c.112-.305.06-.3.386-.3.2,0,.26.407.338.61.1.245.162.45.257.691l.512,1.437h-.367a1.715,1.715,0,0,0-.143-.491c-.191-.5-.017-.405-1.122-.405-.191,0-.376.708-.422.9Zm4.739-.052h-1.21V98.714h1.21C116.809,98.714,116.795,101.4,115.456,101.4Zm17.75.1a1.378,1.378,0,0,1-.991-.326,1.489,1.489,0,0,1,.884-2.571,1.452,1.452,0,0,1,.1,2.9Zm2.106-.1h-.264V98.714h.369a10.1,10.1,0,0,0,.705,1.087,6.948,6.948,0,0,0,.767,1.075V98.714h.317V101.4c-.422,0-.343.069-.717-.5a10.064,10.064,0,0,0-1.18-1.666V101.4Zm-27.653,0h-.315V98.714h.474a4.685,4.685,0,0,0,.191.548,15.8,15.8,0,0,1,.6,1.666L109.3,99.3a2.447,2.447,0,0,0,.2-.589h.474V101.4h-.317V99.188a1.269,1.269,0,0,0-.229.508l-.615,1.706H108.5a4.1,4.1,0,0,0-.181-.558,7.485,7.485,0,0,0-.662-1.656Zm20.8-2.688h1.949v.264h-.789V101.4h-.317V98.979h-.844v-.264Zm-4.477,1.16h1.37v.264h-1.37v1h1.632v.317h-1.949v-2.74h1.9v.264h-1.58v.9Zm-6.691,0h1.37v.264H117.3v1h1.635v.317h-1.949v-2.74h1.9v.264H117.3v.9Zm-12.062-.157c0,.122.038.157.16.157h1.265v.264h-1.265c-.253,0-.16.353-.16,1h1.632v.317h-1.947v-2.74h1.947v.264h-1.632Zm-2.685-1h2v.264h-.841V101.4h-.317V98.979h-.844Zm23.862.527c0,.858,1.739.372,1.739,1.265v.317c0,.865-2.211,1.048-2.211-.264.6,0,.2.131.536.465.36.362,1.361.322,1.361-.36,0-.388-.615-.5-.948-.579-.372-.093-.844-.2-.844-.684,0-.941,1.554-1.022,1.963-.331a2.751,2.751,0,0,1,.143.381h-.369C127.708,98.6,126.41,98.817,126.41,99.241Zm-5.688.791a1.037,1.037,0,1,0,2.054.264h-.948v-.264h1.21v1.423h-.264v-.422c-.136.093-.083.076-.188.181a1.368,1.368,0,0,1-2.226-1.132,1.409,1.409,0,0,1,2.676-.679,1.084,1.084,0,0,1-.369.052c-.191-.824-1.947-.841-1.947.579Zm-18.436.631c0,1.108-2.156,1.194-2.266-.1h.367c.019.9,1.527.92,1.527.1,0-.851-1.739-.15-1.739-1.37,0-.863,1.959-1,2.054.157h-.317c-.2-.882-1.4-.639-1.4-.157,0,.791,1.77.219,1.77,1.37Zm-5.373-1.423c0,.5.269.443.941.639.584.172.8.2.8.889,0,.839-1.7,1.022-2.128.231-.1-.2-.057-.274-.138-.443h.367c.05.593.412.684.9.684.689,0,.956-.786.272-1.01-.56-.183-1.377-.155-1.377-.834,0-1.106,2.03-1.029,2.054.052H98.28c-.212-.91-1.37-.584-1.37-.21Zm36.026-.9c.093-.176.207-.365.315-.527h.317A.824.824,0,0,1,132.938,98.345ZM96.331,96.817h41.082v.264H96.331ZM118.4,91.6h1.21v1.265H118.4Zm-17.7-.736c0-.207.369-.67.505-.865.107-.155.188-.253.286-.4l.841-1.21c.655-.991.353-.791,1.685-.791v3.212h.736v.844c-.927,0-.736-.226-.736,1.21h-1.21v-1.21H100.7v-.791Zm26.178,2.106a1.587,1.587,0,0,1-1.711-.82,4.546,4.546,0,0,1,.038-3.855c.729-1.234,3.3-1.382,3.3,1.83a3.112,3.112,0,0,1-.865,2.559,1.49,1.49,0,0,1-.767.284Zm-15.222,0a1.593,1.593,0,0,1-1.709-.82c-.658-1.177-.767-4.658,1.551-4.658,2.011,0,2.109,3.3,1.4,4.618a1.609,1.609,0,0,1-.479.574,1.5,1.5,0,0,1-.767.284Zm-6.479-2.685c0-1.418.5-2.79,1.9-2.79,1.225,0,1.842,1.089,1.842,2.316a4.158,4.158,0,0,1-.41,2.383,1.7,1.7,0,0,1-2.959-.117,4.442,4.442,0,0,1-.369-1.79ZM118.4,88.866h1.21v1.21H118.4Zm10.956.317v-.791a1.615,1.615,0,0,0,1.225-.512c.057-.062.069-.088.119-.145.191-.217.138-.133,1.025-.133v5.266h-1.21V89.021c-.345.007-.76.157-1.158.157Zm-15.224,0v-.791c1.213-.026,1.268-.789,1.527-.789h.844v5.266H115.3V89.023c-.346.007-.76.157-1.16.157Zm-17.38,0v-.791c1.132-.024,1.3-.789,1.527-.789h.844v5.266h-1.21V89.023c-.346.007-.76.157-1.16.157Zm24.967.367a6.71,6.71,0,0,0-1.265-.1,1.885,1.885,0,0,1,.45-1.394c.841-1.041,3.079-.536,3.079.763a2.175,2.175,0,0,1-.751,2.04l-1.251,1.065h2v.948H120.4c0-.782-.086-.813.155-1.006.076-.06.143-.112.238-.183.643-.5,1.773-1.389,1.913-2.2.224-1.3-.774-1.346-.956-.691-.119.429-.04.381-.031.758Zm15.169-.948h-2a9.355,9.355,0,0,1-.157.948c.222-.05.172-.088.362-.164a1.575,1.575,0,0,1,2.114,1.48v.369a1.784,1.784,0,0,1-1.739,1.737,1.921,1.921,0,0,1-1.666-.493c-.141-.183-.674-1.244-.231-1.244h1c0,1.22,1.37,1.1,1.37.052,0-1.639-1.134-1.222-1.265-.736-.336-.029-.7-.16-1.053-.16.017-.193.076-.508.1-.693l.214-1.84c.017-.164-.014-.257.164-.257H137c0,.265-.083.736-.1,1ZM95.335,75.064a1.355,1.355,0,0,1-.1-.315c.241-.057.41-.148.665-.231s.455-.162.7-.25c.224-.081.462-.145.705-.241a3.029,3.029,0,0,1,.722-.226l.062.315c-.186.088-.45.16-.662.243l-2.085.708Zm25.072-2.371a7.155,7.155,0,0,1,.443-2.347,4.948,4.948,0,0,1,2.664-3.026,8.379,8.379,0,0,1,4.006-.527,5.332,5.332,0,0,1,4.489,2.411,6.958,6.958,0,0,1,.129,6.948,5.657,5.657,0,0,1-.579.9c-1.454,1.716-2.75,1.806-4.882,1.806-2.542,0-3.877-.624-5.245-2.5a4.578,4.578,0,0,1-.541-1.039,8.393,8.393,0,0,1-.481-2.626Zm17.328.474c.06.257.2.4.057.741a.6.6,0,0,1-.581.367,11.1,11.1,0,0,1-1.477-.424,1.132,1.132,0,0,1,.052-.262c.667.055,1.637.791,1.818.019.1-.443-.25-.584-.531-.674a9.038,9.038,0,0,1-.97-.3,1.309,1.309,0,0,0,.052-.262c.236.019,1.6.5,1.9.527a1.156,1.156,0,0,0-.052.264h-.265Zm-41.452.1a5.189,5.189,0,0,0,1.423-.317c.06.124.048.191.1.317a6.882,6.882,0,0,0-1.01.253c-.944.26-.936.329-.936-.1l.21-.1a.363.363,0,0,1-.326-.2.7.7,0,0,1-.148-.539c0-.648,1.165-.6,1.792-.9l.062.315-1.292.35c-.591.255-.1.915.124.915Zm40.084-1.949c0-1.473,2.054-1.125,2.054-.21a1.06,1.06,0,0,1-.248.858c-.431.484-1.806.288-1.806-.646Zm-39.4-.844c.257,0,.169-.052.257.112a1.977,1.977,0,0,1,.06.362c0,.219-.715.276-.944.322-.16.031-.4.055-.546.091-.331.079-.169.091-.145.379-.207,0-.124-.014-.264.052v-.317c-.274,0-.474.1-.684,0v-.21c.2-.017.376-.088.579-.1a1.06,1.06,0,0,0-.052-.367,1.209,1.209,0,0,0,.264-.052,1.083,1.083,0,0,0,.052.369l1.339-.245c.2-.091.091-.164.083-.386Zm42.3-.736a1.071,1.071,0,0,0,.317.052v.264h-.369A1.073,1.073,0,0,0,139.265,69.744Zm-2.581-.265c.541,0,1.47.2,1.949.212-.007.372-.083.305-.97.181-.963-.133-.979.021-.979-.391Zm-35.974-2.685h7.532v2.9h-1.632v6.057h1.632v2.9h-7.532v-2.9h1.632V69.691h-1.632Zm11.9,3c0,.941,3.505,1.408,4.642,1.785a3.766,3.766,0,0,1,1.868,1.344c1.587,2.106,1.246,5.006-1.811,5.731a7.966,7.966,0,0,1-3.915-.11,9.026,9.026,0,0,1-1.38-.517,1.4,1.4,0,0,0-.457-.229v.841h-2.528V74.376H111.3c.122.519.9,1.139,1.339,1.4a5.356,5.356,0,0,0,3.329.474c.651-.11,1.1-.767-1.075-1.306-1.747-.434-4.046-1.015-5.18-2.562a3.263,3.263,0,0,1-.627-1.9,4.192,4.192,0,0,1,.048-1.113,3.405,3.405,0,0,1,2.569-2.593c2.669-.784,4.963.815,5.392.915v-.736h2.633v4H117.3c-.138,0-.241-.315-.643-.724-.667-.679-4.044-1.563-4.044-.434ZM96.34,68.481a.939.939,0,0,1-.369,1.842.923.923,0,1,1,.052-1.842c0,.541.1.932.1,1.473a.62.62,0,0,0,.505-1.084c-.255-.16-.3.026-.3-.388Zm42.979.262v.16c-.534,0-.631-.253-.631.317h-.264a2.989,2.989,0,0,0,.052-.369l-.941-.06c-.441-.052-.586-.222-.586.324a.331.331,0,0,1-.052-.631l1.58.052c0-.317-.014-.31.265-.317,0,.469.026.369.631.369-.036.064-.052.057-.052.157Zm-44.4-1.685h.317c.019.858.643.684,1.685.684v.264c-.717,0-1.237.052-1.949.052v-.317h.315c-.086-.126-.167-.164-.243-.284-.1-.162-.062-.257-.126-.4Zm43.244-.789c.646,0,.634.429.634.841,0,.46-.212.634-.681.636-.634,0-1.025-.119-1.056.262h-.21a.288.288,0,0,1,.21-.474c-.055-.2-.093-.126-.2-.331-.245-.484-.1-1.037.51-1.037.438,0,.524.541.565.913.031.288-.05.458.3.386a.472.472,0,0,0-.074-.929v-.262ZM95.235,65.8a.6.6,0,0,0,.584.522l1.1.057v.317l-1.949-.16v-.262h.264c-.069-.257-.264-.2-.264-.579,0-.827.7-.734,1.332-.646.539.074.724-.169.724.331-1.027,0-1.792-.334-1.792.422Zm43.086-1.42h.262c0,.486.1.836.1,1.37-.326.076-.41-.081-.905-.412a4.53,4.53,0,0,0-.886-.536c.007.374.1.71.1,1.158h-.21c-.038-.472-.157-1.02-.157-1.527.415,0,.424.1.989.484.274.183.536.338.8.517a8.616,8.616,0,0,0-.1-1.053Zm-1.792-.264v-.317a14.511,14.511,0,0,0,1.606-.248c.3-.048.319-.019.343.248C137.94,63.839,136.992,64.111,136.529,64.111Zm2.528-.739h.367v.264l-.315.06a1.178,1.178,0,0,1-.055-.324Zm-42.031,0c.841,1.258-.9,1.718-.9.791v-.946c-.372,0-.684-.093-.684.579,0,.262.317.2.317.422,0,.305-.527.181-.527-.474,0-.458.257-.841.474-.841.486,0,.715.157,1.265.157.245,0,.064-.145.243-.174l.179.014c-.007.31-.071.448-.367.472Zm40.241-2.159a.885.885,0,0,1,.736,1.42c.405-.093.822-.224,1.21-.315l.062.315-2.85.7c-.017-.176,0-.112-.055-.222.117-.162-.033-.086.21-.1a1.043,1.043,0,0,1-.412-1.146,1.105,1.105,0,0,1,1.1-.643Zm-39.924.946c.117-.222.057-.253.21-.315.107.1.143.114.093.348-.117.548-.674.174-1.778-.083a1.337,1.337,0,0,0-.1.317c-.114-.026-.145,0-.188-.124-.1-.3.169-.014-.024-.25a1.764,1.764,0,0,0-.524-.152c0-.288.012-.312.2-.272a1.609,1.609,0,0,0,.479.112c0-.241.16-.5.274-.255.155.336-.548.212.758.539A3.862,3.862,0,0,0,97.344,62.159Zm-1.37-1.473a4.867,4.867,0,0,1,.941.269,7.861,7.861,0,0,1,.956.31c-.045.093-.062.172-.1.265l-1.842-.579a1.16,1.16,0,0,0,.052-.262Zm-.631.052a2.887,2.887,0,0,1-.367-.052,1.338,1.338,0,0,1,.1-.317,1.337,1.337,0,0,0,.317.1,1.483,1.483,0,0,0-.052.265Zm41.874-.579c.281.064.5.2.527.527a1.155,1.155,0,0,1-.317.052c-.081-.972-1.361-.141-1.79-.1a1.18,1.18,0,0,0-.052-.265,18.14,18.14,0,0,1,1.842-.634l.06.21c-.174.231-.1-.014-.272.212Zm-39.662.474c-.841,0-1.532-.729-1-1.58a1.076,1.076,0,0,1,1.871.539A.965.965,0,0,1,97.553,60.634Zm38.662-2.793a.589.589,0,0,1,.56.284c.91,1.246-.948,1.3-1.1,1.651-.1.241.143.186-.2.276a.419.419,0,0,1,0-.579c-1.084-.574-.515-1.37-.1-1.37a.709.709,0,0,1,.572.374,4.889,4.889,0,0,1,.374.627c.415-.219.615-.346.21-.948h-.422c-.033-.138-.124-.317.1-.317ZM114.41,64.582c-2.6,1.377-5-2.064-5-5.109a11.77,11.77,0,0,1,1.125-5.3,4.532,4.532,0,0,0,.245-.6,4.2,4.2,0,0,1,.465.7c.176.262.31.46.5.712s.334.443.529.684a24.882,24.882,0,0,0,2.986,3.071l-.181.82a5.186,5.186,0,0,0,.92,4.079,3.033,3.033,0,0,1-1.761-.767,7.828,7.828,0,0,1-2.047-3.01c-.129-.3-.253-.605-.36-.905-.1-.272-.212-.793-.362-.9a7.624,7.624,0,0,0,1.451,4.446,7.564,7.564,0,0,0,.481.729Zm-16.8-7.11c0,.388.238.462.529.631a4.538,4.538,0,0,0,.786.369.582.582,0,0,1-.1.317c-.3-.157-.546-.3-.86-.458l-.877-.438a.746.746,0,0,0,.1-.262.759.759,0,0,1,.264.1,2.258,2.258,0,0,1-.052-.422c0-.236.255-.634.474-.634a1.369,1.369,0,0,1,.991.326c.229.138.462.236.7.357a.759.759,0,0,0-.1.264l-1.017-.51c-.183-.093-.326-.193-.5-.119a.549.549,0,0,0-.322.472Zm36.922.579c-.036-.155.007-.076-.1-.16l.152-.164a.3.3,0,0,0,.029-.024s.019-.014.029-.024c-1-.083-1.087-1.9.527-1.9a.987.987,0,0,1,.791.841c0,.2-.036.1-.052.317a8.731,8.731,0,0,0,1.053-.579,2.558,2.558,0,0,1,.16.262,25.878,25.878,0,0,1-2.581,1.423ZM98.819,56c-.169.124-.043.088-.21.21-.226-.338-.212-.238-.212-.579a.853.853,0,0,1,.791-.791c.265,0,.946.546,1.21.684.226-.15.1-.186.369-.052-.086.317-.241.367-.474.317,0,1.489-1.21,1.134-1.21.579a2.663,2.663,0,0,1,.422-1.053c-.26-.174-.6-.424-.839.167-.1.265.036.338.155.519Zm18.172,8.271a6.729,6.729,0,0,1-1.423-3.477,4.83,4.83,0,0,1,1.251-3.491,13.821,13.821,0,0,1,1-1.106c.172-.172.353-.376.531-.522.236-.186.367-.357.579-.527,1.063-.848,3.767-3.315,3.8-4.732.553.405,1.291,3.508,1.42,4.427.388,2.8.286,7.327-1.88,9.493a3.318,3.318,0,0,1-1.963.986,4.809,4.809,0,0,1-2.421-.422,3.239,3.239,0,0,1,.46-.434c.176-.176.26-.3.422-.474a12.46,12.46,0,0,0,1.978-3.448,24.329,24.329,0,0,0,1.339-4.98,5.279,5.279,0,0,0,.119-.827c-.041.06-.01-.038-.071.141a.625.625,0,0,0-.041.172c-.029.136-.057.26-.093.381-.229.765-.379,1.356-.674,2.116-.091.229-.162.412-.262.634A19.537,19.537,0,0,1,118.7,62.3c-.141.186-.243.334-.386.508a16.683,16.683,0,0,1-1.33,1.463Zm17-10.122a.724.724,0,0,1,.8.693c0,.393-.622.777-1.01,1.041a3.408,3.408,0,0,1-.41.274c-.04-.155-.021-.086-.1-.21.276-.41,1.21-.743,1.21-1.158a.7.7,0,0,0-.343-.45c-.422-.207-.936.391-1.5.767a2.348,2.348,0,0,1-.157-.264l1.527-1.106.2.167-.212.245Zm-35.121-.886,2.264,1.792-.167.2c-.276-.183-2.1-1.673-2.307-1.73C98.707,53.35,98.738,53.35,98.871,53.259Zm33.226-.886a.856.856,0,0,1,1.253.643c.071.512-.982,1.015-.982,1.244,0,.153.138.431-.164.281a.362.362,0,0,1-.1-.493c-.958-.021-1.268-1.263-.315-1.263.334,0,.765.472,1,.631.026-.043.589-.479.007-.855-.222-.143-.3-.043-.536.012l-.167-.2Zm-31.437-.536a1.458,1.458,0,0,1,.791-1.473,1.6,1.6,0,0,1,2.264,1.58,1.515,1.515,0,0,1-1.318,1.315h-.317a1.717,1.717,0,0,1-1.423-1.423Zm31.3-.407.262.293c-.3.2-.184.124-.431-.043-.119.081-.948.834-.948,1.053s.052-.026.157.262l-.114.1c-.167-.036-.412-.2-.412-.41,0-.238.729-.782,1.053-1.265l-.222-.255c.3-.2.183-.122.431.043l.462-.434.179.214-.419.443Zm-27.874-1.277c0,.3.558.917.791,1.265a2.227,2.227,0,0,0-.265.16c-.186-.355-.879-1.16-1.158-1.58a2.357,2.357,0,0,1,.264-.16,2.84,2.84,0,0,0,.21.264.735.735,0,0,1,.367-.736,1.355,1.355,0,0,0,.157.317.481.481,0,0,0-.367.474Zm26.652,1a.863.863,0,0,1-.684.791,1.446,1.446,0,0,1-1.38-.729,1.072,1.072,0,0,1,.01-1.115l.315.162a3.218,3.218,0,0,0-.157.472,1.092,1.092,0,0,0,.593.829.706.706,0,0,0,.51.064c.946-.315-.162-1.3-.367-1.632-.479-.779.458-1.575,1.408-.774a1.082,1.082,0,0,1,.329,1.353,1.254,1.254,0,0,0-.315-.157c.534-1.01-1.108-1.656-1.144-.836-.014.353.629.932.784,1.249a1.031,1.031,0,0,1,.1.326ZM125.363,49.2c-.8,0-1.4-.679-.81-1.654a.937.937,0,0,1,1.706.441c0,.674-.4,1.21-.9,1.21Zm-19.434-.9c.193-.052.067-.055.264-.1.11.21.2.343.312.529s.2.355.319.524a3.6,3.6,0,0,1,.579,1.158c0,.631-1.144,1.311-1.635.579a.5.5,0,0,0,.264-.157c.148.1.183.21.422.21a.812.812,0,0,0,.643-.465c.1-.281-.2-.534-.276-.8h-.1a.841.841,0,0,1-1.53.424c-.817-1.106.126-1.687.529-1.687.2,0,.1.033.317.052a2.76,2.76,0,0,1-.1-.264Zm21.279.052a1.179,1.179,0,0,1,.736,0c-.038.164-.067.152-.1.315-.243-.057-.612-.472-1.037.334-.079.15-.11.238-.2.381a1.028,1.028,0,0,0-.188.391c-.2-.052-.069-.052-.265-.1a3.933,3.933,0,0,1,.438-.879c.169-.305.3-.562.458-.858a.83.83,0,0,0,.264.1C127.277,48.2,127.248,48.2,127.208,48.36ZM107.192,48.1c0,.122.017.062.052.21-.264.062-.317.112-.317-.21,0-.477.546-.686,1.053-.686.255,0,.479.591.579.791.026.055.2.429.234.455.262.241.3-.231.346.281-.388.093-.188.207-.579-.052a.906.906,0,0,1-.226.405c-.631.634-1.806-.129-.624-.939a1.519,1.519,0,0,0,.429-.307c-.169-.724-.948-.307-.948.052Zm9.851-1.792c0-.381.052-.527.052-.9h.262v1.949h-.315Zm-7.322,2.371a1.338,1.338,0,0,1-.317.1c-.1-.45-.322-.934-.467-1.377-.057-.172-.129-.31-.164-.467a1.155,1.155,0,0,1,.317-.052c.033.145.024.119.1.21a.605.605,0,0,1,.488-.517.581.581,0,0,1,.681.191,11.742,11.742,0,0,1,.567,1.485c-.093.045-.172.062-.265.1-.169-.322-.391-1.215-.555-1.394-.317-.343-.963,0-.808.593l.415,1.115Zm8.059-2.159a.957.957,0,0,1,1.894-.264c0,.569-.124,1.265-.9,1.265a.946.946,0,0,1-1-1Zm-6.848-.264c.093-.045.172-.06.264-.1l.527,1.9a1.069,1.069,0,0,1-.315.052l-.474-1.844Zm.9,0a1.16,1.16,0,0,1-.052-.262l1.37-.264c.033.141.052.1.052.212,0,.067-.748,1.508-.841,1.685a6.328,6.328,0,0,0,.662-.129c.479-.1.527-.15.55.129l-1.527.317c0-.755.622-1.175.791-1.9-.324.076-.674.136-1,.21Zm12.958-.157a.923.923,0,0,0-.369-.1c-.1.157-.1.076-.181.293a.988.988,0,0,0-.083.391,1.338,1.338,0,0,1,.317.1.34.34,0,0,0-.052.21.9.9,0,0,1-.367-.1c-.257.481-.386,1.4-.634,1.58l-.207-.06c.014-.186.436-1.246.524-1.627-.219-.05-.245-.031-.264-.264.341-.162.293.267.469-.267.167-.5.272-.469.584-.469a.394.394,0,0,1,.245.069c.091.081.043.069.019.248Zm-4.16-.1a.819.819,0,0,1,1.044.007c.4.4-.079,1.11-.1,1.887-.665,0-.052-.4-.052-1.475,0-.329-.567-.519-.882-.2a4.3,4.3,0,0,0-.329,1.411h-.317a6.881,6.881,0,0,1,.181-.979c.06-.305.164-.691.188-.97.145.071.1.052.317.052-.069.143-.048.057-.052.264Zm-6.636.21h-.317c.057-.684.531-.684,1-.684.365,0,.488.248.524.581.033.3.107.715.107,1,.141.067.057.048.264.052v.262c-.529,0-.286-.012-.579-.21-.789,1.177-2.485-.693-.052-.9-.074-.884-.934-.691-.948-.1Zm-3-.948.06.315a1.137,1.137,0,0,0-.272.055C110.652,45.365,110.585,45.25,110.985,45.25Zm4.952-.1v-.317h.317v.579h.367v.264c-.6,0-.307.086-.315.841-.007.808.019.662.367.634v.262c-.736,0-.6.048-.643-.357-.141-1.365.191-1.38-.41-1.38v-.21c.524,0,.317-.041.317-.317Zm1.16-.684h.262v.317H117.1ZM92.13,51.52v52.83a11.072,11.072,0,0,0,.743,4.313,9.906,9.906,0,0,0,4.909,5.2,9.756,9.756,0,0,0,4.091.965h29.969a9.906,9.906,0,0,0,5.5-1.768,10.96,10.96,0,0,0,2.454-2.445,9.97,9.97,0,0,0,1.792-5.583v-54.1a10.28,10.28,0,0,0-.253-2.223,9.953,9.953,0,0,0-9.808-7.677H102.243a9.944,9.944,0,0,0-7.282,2.988,10.645,10.645,0,0,0-2.047,3.114,10.86,10.86,0,0,0-.782,4.38Z" transform="translate(-92.13 -41.04)" fill="#fff5ef" fill-rule="evenodd"/>
    <path id="Trazado_158" data-name="Trazado 158" d="M229.132,162.789c0,1.4-.2,4.372,1.79,4.372h.369c1.975,0,1.74-2.685,1.74-4.056s-.562-2.476-2-2.476a1.98,1.98,0,0,0-1.463.539A2.562,2.562,0,0,0,229.132,162.789Z" transform="translate(-196.482 -132.134)" fill="#fff5ef" fill-rule="evenodd"/>
    <path id="Trazado_159" data-name="Trazado 159" d="M233.79,241.709a4.586,4.586,0,0,0,.126,1.244c.255.9,1.025.851,1.265.04.179-.612.376-3.024-.653-3.024-.617,0-.736,1.07-.736,1.739Z" transform="translate(-200.035 -192.568)" fill="#fff5ef" fill-rule="evenodd"/>
    <path id="Trazado_160" data-name="Trazado 160" d="M169.91,241.717a4.585,4.585,0,0,0,.126,1.244c.255.9,1.4,1.222,1.4-1.191,0-.774-.074-1.789-.791-1.789-.617,0-.736,1.07-.736,1.74Z" transform="translate(-151.376 -192.576)" fill="#fff5ef" fill-rule="evenodd"/>
    <path id="Trazado_161" data-name="Trazado 161" d="M151.748,241.264c0,.574-.153,2.316.736,2.316.848,0,.736-1.642.736-2.211,0-1.987-1.475-1.8-1.475-.1Z" transform="translate(-137.535 -192.542)" fill="#fff5ef" fill-rule="evenodd"/>
    <path id="Trazado_162" data-name="Trazado 162" d="M129.23,81.823a1.466,1.466,0,0,0,1.423,1.42,1.078,1.078,0,0,0,1-1.053,1.511,1.511,0,0,0-1.423-1.37A1.092,1.092,0,0,0,129.23,81.823Z" transform="translate(-120.39 -71.341)" fill="#fff5ef" fill-rule="evenodd"/>
    <path id="Trazado_163" data-name="Trazado 163" d="M259.87,284.9c0,1.57,2.054,1.708,2.054-.052A1.033,1.033,0,1,0,259.87,284.9Z" transform="translate(-219.9 -225.903)" fill="#fff5ef" fill-rule="evenodd"/>
    <path id="Trazado_164" data-name="Trazado 164" d="M186.27,286.333c1.2,0,1.527.048,1.527-1.315,0-.984-.9-.841-1.527-.841v2.159Z" transform="translate(-163.838 -226.236)" fill="#fff5ef" fill-rule="evenodd"/>
    <path id="Trazado_165" data-name="Trazado 165" d="M228.48,68.508c0,.76.846.867,1.191.243.45-.815-.112-1.191-.455-1.191C228.852,67.56,228.48,68.1,228.48,68.508Z" transform="translate(-195.99 -61.241)" fill="#fff5ef" fill-rule="evenodd"/>
    <path id="Trazado_166" data-name="Trazado 166" d="M110.89,116.975c0,.674,1.58,1.1,1.58.052C112.47,116.348,110.89,115.874,110.89,116.975Z" transform="translate(-106.42 -98.382)" fill="#fff5ef" fill-rule="evenodd"/>
    <path id="Trazado_167" data-name="Trazado 167" d="M146.7,73.941c0,.946,1.423,1.337,1.423.265a1.054,1.054,0,0,0-.684-.9.773.773,0,0,0-.736.631Z" transform="translate(-133.697 -65.621)" fill="#fff5ef" fill-rule="evenodd"/>
    <path id="Trazado_168" data-name="Trazado 168" d="M201.07,61.316c0,1,1.265,1.165,1.265-.157a.6.6,0,0,0-1.1-.415A1.572,1.572,0,0,0,201.07,61.316Z" transform="translate(-175.111 -55.84)" fill="#fff5ef" fill-rule="evenodd"/>
    <path id="Trazado_169" data-name="Trazado 169" d="M279.6,166.525c.334,0,.791.012.791-.631,0-.4-.479-.634-.948-.634C278.523,165.26,278.573,166.525,279.6,166.525Z" transform="translate(-234.312 -135.66)" fill="#fff5ef" fill-rule="evenodd"/>
    <path id="Trazado_170" data-name="Trazado 170" d="M277.78,127.7c0,.946,1.58.729,1.58-.052a.9.9,0,0,0-.193-.438.873.873,0,0,0-1.065-.029A.662.662,0,0,0,277.78,127.7Z" transform="translate(-233.543 -106.528)" fill="#fff5ef" fill-rule="evenodd"/>
    <path id="Trazado_171" data-name="Trazado 171" d="M270.119,104.939c0-.984-1-.741-1.358-.305a.638.638,0,0,0,.832.939c.2-.088.524-.357.524-.634Z" transform="translate(-226.568 -89.191)" fill="#fff5ef" fill-rule="evenodd"/>
    <path id="Trazado_172" data-name="Trazado 172" d="M131.66,243.857h1.265v-1.9a6.492,6.492,0,0,0-.653.927l-.612.97Z" transform="translate(-122.241 -194.084)" fill="#fff5ef" fill-rule="evenodd"/>
    <path id="Trazado_173" data-name="Trazado 173" d="M123.248,101.959c0-.3-.288-.455-.474-.579-.114.217-.429.763-.226,1.015C122.853,102.772,123.248,102.276,123.248,101.959Z" transform="translate(-115.249 -87.002)" fill="#fff5ef" fill-rule="evenodd"/>
    <path id="Trazado_174" data-name="Trazado 174" d="M184.016,64.644c.577.138.9-.174.9-.474a2.812,2.812,0,0,0-.052-.369c-.438.212-1.177.15-.841.844Z" transform="translate(-162.058 -58.377)" fill="#fff5ef" fill-rule="evenodd"/>
    <path id="Trazado_175" data-name="Trazado 175" d="M272.47,114.255a.581.581,0,0,0,.631.631c.191,0,.186-.062.369-.1a.961.961,0,0,0-.255-.484C272.734,113.686,272.47,114.174,272.47,114.255Z" transform="translate(-229.498 -96.61)" fill="#fff5ef" fill-rule="evenodd"/>
    <path id="Trazado_176" data-name="Trazado 176" d="M280.471,147.838c-.1.422-.15.948.579.948.222,0,.148-.207.064-.541-.1-.4-.26-.558-.643-.41Z" transform="translate(-235.55 -122.346)" fill="#fff5ef" fill-rule="evenodd"/>
    <path id="Trazado_177" data-name="Trazado 177" d="M257.22,91.749a.777.777,0,0,0,.2.384c.35.35.732.174.963-.174-.522-.276-.689-.751-1.158-.21Z" transform="translate(-217.882 -79.477)" fill="#fff5ef" fill-rule="evenodd"/>
    <path id="Trazado_178" data-name="Trazado 178" d="M110.441,134.951c0-.522-.274-.536-.686-.631,0,.334-.055.813.122.989C110.1,135.538,110.441,135.345,110.441,134.951Z" transform="translate(-105.549 -112.093)" fill="#fff5ef" fill-rule="evenodd"/>
    <path id="Trazado_179" data-name="Trazado 179" d="M105.14,158.329c0,.376.3.572.684.579,0-.405-.076-.8-.1-1.158A.554.554,0,0,0,105.14,158.329Z" transform="translate(-102.04 -129.94)" fill="#fff5ef" fill-rule="evenodd"/>
    <path id="Trazado_180" data-name="Trazado 180" d="M157.59,71.9a.8.8,0,0,0-.157-.579c-.2.136-.822.484-.708.808.174.493.865.041.865-.226Z" transform="translate(-141.323 -64.105)" fill="#fff5ef" fill-rule="evenodd"/>
    <path id="Trazado_181" data-name="Trazado 181" d="M171.9,286.008h.9c-.207-.436-.293-1.027-.474-1.158-.071.148-.155.4-.217.572a5.119,5.119,0,0,0-.2.586Z" transform="translate(-152.892 -226.754)" fill="#fff5ef" fill-rule="evenodd"/>
    <path id="Trazado_182" data-name="Trazado 182" d="M283.33,175.7v-.052l-.06.045Z" transform="translate(-237.724 -143.575)" fill="#fff5ef" fill-rule="evenodd"/>
  </g>
</svg>
