<svg id="_2503191530288" xmlns="http://www.w3.org/2000/svg" width="93.35" height="93.35" viewBox="0 0 93.35 93.35">
  <ellipse id="Elipse_13" data-name="Elipse 13" cx="46.675" cy="46.675" rx="46.675" ry="46.675" fill="none"/>
  <g id="Grupo_26" data-name="Grupo 26" transform="translate(15.607 15.214)">
    <path id="Trazado_193" data-name="Trazado 193" d="M219.383,209.034a9.355,9.355,0,0,0,.43,2.71,5.635,5.635,0,0,0,1.325,2.206c.094.1.094.119.176.216a4.713,4.713,0,0,0,.413.371l.639.538a18.222,18.222,0,0,0,5.689,2.553c1.131.351,2.636.663,3.706,1,.609.193,1.924.574,1.924,1.39,0,.853-2.326.827-2.878.827a7.729,7.729,0,0,1-6.591-2.957c-.265-.357-.4-.835-.56-.835H219.34v8.416h5.014v-1.658l1.606.792a15.643,15.643,0,0,0,9.435.832,7.7,7.7,0,0,0,2.1-.78,5.945,5.945,0,0,0,3.169-5.509A8.761,8.761,0,0,0,239,214.577c-.119-.164-.207-.292-.335-.449-1.636-2.006-3.332-2.4-5.649-2.983-1.282-.321-3.887-.882-4.979-1.3-.622-.239-1.675-.676-1.675-1.465a.67.67,0,0,1,.4-.728c.937-.429,3.008-.079,3.878.106a6.35,6.35,0,0,1,3.975,2.128,3.284,3.284,0,0,1,.419.8h4.971v-7.8h-5.189v1.439a15.1,15.1,0,0,0-7.194-2.223,9.267,9.267,0,0,0-5.906,1.856,4.781,4.781,0,0,0-.941.891c-.13.165-.276.348-.39.525a7.141,7.141,0,0,0-1.006,3.66Z" transform="translate(-203.382 -188.229)" fill="#fff5ef" fill-rule="evenodd"/>
    <path id="Trazado_194" data-name="Trazado 194" d="M379.954,216.366c0-2.664-.3-5.841,3.27-5.841a3.9,3.9,0,0,1,2.3.449c2.085,1.111,1.8,4.679,1.8,6.876,0,1.7-.364,3.706-1.71,4.571a3.944,3.944,0,0,1-4.017-.109,2.93,2.93,0,0,1-.623-.642c-.9-1.184-1.02-3.556-1.02-5.3Zm-8.5-.26a13.779,13.779,0,0,0,1.366,6.483l.4.65c.062.094.092.158.151.242.2.294.39.545.6.833.105.138.216.291.33.413a10.11,10.11,0,0,0,2.765,2.294c2.943,1.494,5.115,1.337,8.475,1.337,6.846,0,10.2-6.119,10.2-12.3a11.341,11.341,0,0,0-2.459-7.046c-.068-.086-.1-.109-.163-.186a9.173,9.173,0,0,0-1.184-1.215,10.577,10.577,0,0,0-7.007-2.541c-2.921,0-4.573-.183-7.276.922a9.8,9.8,0,0,0-4.369,3.785A14.324,14.324,0,0,0,371.45,216.105Z" transform="translate(-333.601 -190.765)" fill="#fff5ef" fill-rule="evenodd"/>
    <path id="Trazado_195" data-name="Trazado 195" d="M108.45,205.271v5.582h3.183v11.512h-3.052c-.1,0-.131.03-.131.132v5.581h14.609v-5.713h-3.14V210.853h3.14V205.14H108.581C108.48,205.14,108.45,205.17,108.45,205.271Z" transform="translate(-108.45 -190.832)" fill="#fff5ef" fill-rule="evenodd"/>
    <path id="Trazado_196" data-name="Trazado 196" d="M194.307,389.343a7.738,7.738,0,0,1,3.723.682,7.829,7.829,0,0,1,2.121,1.412,8.375,8.375,0,0,1-1.164.229c-.4.068-.809.119-1.269.171a23.639,23.639,0,0,1-8.294-.488,7.884,7.884,0,0,1,4.883-2Zm7.151,1.787c-.1-.15-.216-.177-.26-.35a11.737,11.737,0,0,0,1.477-1.009,27.131,27.131,0,0,0,3.975-3.612,2.985,2.985,0,0,1,.636.324l.6.36a6.59,6.59,0,0,1,1.12.8,6.743,6.743,0,0,0-.83.521,24.436,24.436,0,0,1-5.64,2.647c-.344.114-.727.24-1.074.321Zm-20.626-3.663,1.551-.979a1.91,1.91,0,0,1,.586-.286,12.292,12.292,0,0,0,1.536,1.559c.262.23.43.44.8.727.505.393.9.776,1.561,1.271.5.37.957.682,1.465,1.02-.229.343-.242.245-1.259-.092a24.514,24.514,0,0,1-5.456-2.655,4.66,4.66,0,0,1-.786-.567Zm3.183-1.832.928-.38a16.751,16.751,0,0,1,3-.973.778.778,0,0,0,.138.3l.5.938c.389.766,1.523,2.585,2,3.273a1.962,1.962,0,0,1,.191.288,10.753,10.753,0,0,0-1.525.915,7.792,7.792,0,0,1-.724-.453c-.142-.095-.219-.163-.357-.255s-.235-.158-.358-.252c-.609-.459-1.412-1.078-1.973-1.6-.124-.115-.2-.153-.328-.282a2.664,2.664,0,0,0-.322-.289,8.12,8.12,0,0,1-1.17-1.226Zm16.265,4.4-.756-.509c-.286-.17-.527-.3-.815-.449.158-.3.518-.761.76-1.16l2.162-3.681a20.727,20.727,0,0,1,3.969,1.4,11.952,11.952,0,0,1-1.2,1.195l-1.294,1.148c-.5.443-1.517,1.18-2.082,1.58-.239.17-.5.317-.741.479Zm-11.206-6.06a28.188,28.188,0,0,1,4.4-.566c.307,0,.414-.045.7-.045v4.84a8.572,8.572,0,0,0-2.311.436,1.656,1.656,0,0,0-.174-.262c-.069-.1-.114-.177-.193-.286-.371-.512-1.478-2.281-1.785-2.883-.26-.514-.373-.639-.639-1.235Zm8.546,4.666a9.331,9.331,0,0,0-2.311-.436v-4.84a27.642,27.642,0,0,1,4.516.453c.2.037.458.1.629.112A42.762,42.762,0,0,1,198,388.069,3.393,3.393,0,0,0,197.62,388.645Zm-3.139,4.49a28.94,28.94,0,0,0,4.8-.348,23.143,23.143,0,0,0,4.093-1.052,23.8,23.8,0,0,0,4.959-2.323,28.786,28.786,0,0,0,3.581-2.611l.548-.5c.091-.092.164-.177.263-.26a12.463,12.463,0,0,0,1.02-1.026c.095-.1.167-.164.263-.26a3.313,3.313,0,0,0,.242-.282c.095-.114.158-.157.248-.275l.943-1.151a12.672,12.672,0,0,0,1.282-1.857h-1.351l-1.973,2.52c-.078.086-.076.107-.154.2-.111.127-.229.226-.35.348s-.171.217-.3.351l-1.439,1.35a13.393,13.393,0,0,0-1.144.95l-2.529-1.613c.367-.55,1.078-1.327,1.525-1.963.124-.174.232-.33.357-.514s.232-.311.354-.518c.229-.387.478-.714.684-1.1h-1.351a25.566,25.566,0,0,1-2.616,3.532,2.778,2.778,0,0,1-.5-.2,21.649,21.649,0,0,0-3.778-1.323,5.05,5.05,0,0,1,.417-.977,7.794,7.794,0,0,0,.41-1.029h-1.22a5.735,5.735,0,0,1-.367.853,5.785,5.785,0,0,0-.374.846,25.177,25.177,0,0,0-5.713-.653v-1.046h-1.134v1.046a25.551,25.551,0,0,0-2.969.214,18.452,18.452,0,0,0-2.7.484,4.753,4.753,0,0,0-.378-.842,5.666,5.666,0,0,1-.364-.9H186.5c.235.489.413,1.039.653,1.527a1.984,1.984,0,0,1,.219.524,4.929,4.929,0,0,0-1.085.311,20.253,20.253,0,0,0-2.577,1,3.483,3.483,0,0,1-.525.217,11.925,11.925,0,0,1-1.395-1.7,14.56,14.56,0,0,1-1.265-1.875h-1.353c.2.379.427.727.663,1.082.593.888,1.223,1.726,1.885,2.563.13.164.314.344.416.5a17.1,17.1,0,0,0-2,1.265.745.745,0,0,1-.305.174c-.511-.342-.961-.856-1.439-1.22a24.513,24.513,0,0,1-2.147-2.213c-.383-.43-.707-.879-1.055-1.343a3.268,3.268,0,0,1-.548-.8h-1.4a20.256,20.256,0,0,0,2.431,3.239,2.815,2.815,0,0,1,.255.268,17.847,17.847,0,0,0,1.534,1.561c.117.118.17.138.283.24a27.114,27.114,0,0,0,6.21,4.168c.135.065.243.1.364.158a22.74,22.74,0,0,0,2.99,1.151,24.028,24.028,0,0,0,7.168,1.16Z" transform="translate(-163.916 -341.546)" fill="#fff5ef" fill-rule="evenodd"/>
    <path id="Trazado_197" data-name="Trazado 197" d="M192.252,110.214c.345.081.689.184,1.059.249s.8.112,1.166.142v4.972c-.255,0-.361-.048-.653-.045a4.609,4.609,0,0,1-.679-.017c-.2-.03-.478-.036-.642-.056-.712-.094-1.015-.073-1.913-.224-.423-.071-.823-.132-1.213-.225a8.174,8.174,0,0,1,.653-1.264c.209-.407.461-.825.705-1.213.13-.2.236-.384.366-.594l1.151-1.725Zm3.357,5.319v-4.971a8.037,8.037,0,0,0,2.311-.479c.142.268.58.836.776,1.143.258.4.489.768.737,1.182a20.208,20.208,0,0,1,1.366,2.514,3.76,3.76,0,0,0-.593.106c-.232.046-.391.081-.622.119l-1.882.256c-.194.012-.471.027-.685.055a11.979,11.979,0,0,1-1.407.073Zm-7.413-.784a25.054,25.054,0,0,1-3.563-1.189,3.5,3.5,0,0,0-.492-.206,32.163,32.163,0,0,1,2.52-2.409,24.276,24.276,0,0,1,2.842-2.082,8.067,8.067,0,0,0,1.613.917,2.125,2.125,0,0,1-.366.593L188.2,114.75Zm10.815-5.146a3.859,3.859,0,0,0,.741-.391l.7-.479c.127.085.236.142.376.235l1.786,1.266a26.326,26.326,0,0,1,3.245,2.946,3.282,3.282,0,0,0-.465.189,18.521,18.521,0,0,1-3.46,1.207l-1.754-3.132-1.091-1.655a.846.846,0,0,1-.076-.186ZM183.1,112.83a17.877,17.877,0,0,1-2.18-1.308,22.61,22.61,0,0,1,3.429-2.108c.163-.081.3-.128.452-.2a23.992,23.992,0,0,1,2.468-1.02l1.065-.331.272.25a27.3,27.3,0,0,0-3.923,3.074,17.663,17.663,0,0,0-1.58,1.646Zm18.523-5.155,2.1.665,1.944.8a24.961,24.961,0,0,1,2.652,1.446c.3.183.564.389.853.541a13.191,13.191,0,0,1-1.622,1.125c-.2.122-.416.232-.6.357l-3.327-3.039c-.773-.625-1.428-1.074-2.254-1.628l.252-.271Zm-6.7,1.8a8.029,8.029,0,0,1-4.184-1.18,4.836,4.836,0,0,1-1.049-.781,21.5,21.5,0,0,1,2.467-.455,24.605,24.605,0,0,1,7,.1l1.127.181c-.06.23-.833.718-1.029.846a7.624,7.624,0,0,1-1.226.648,8.154,8.154,0,0,1-3.107.642Zm-21.323,8.154h1.351a24.573,24.573,0,0,1,1.688-2.193l1.222-1.348c.236-.235.445-.4.676-.633.33-.331.689-.606,1.046-.917a1.662,1.662,0,0,0,.34-.314,26.964,26.964,0,0,0,2.353,1.482l-.731.927a18.36,18.36,0,0,0-2.016,3h1.308a17.453,17.453,0,0,1,1.5-2.16c.317-.422.692-.8.984-1.241.161.086.331.147.509.233s.332.148.518.222c.377.151.7.279,1.071.412a20.724,20.724,0,0,0,2.262.7,13.477,13.477,0,0,0-.784,1.832h1.22a2.068,2.068,0,0,1,.157-.367l.543-1.16a9.556,9.556,0,0,1,1.338.232,25.811,25.811,0,0,0,4.329.38v.915h1.134c0-1-.2-.963.655-.958a17.889,17.889,0,0,0,2.28-.206l2.134-.351a6.626,6.626,0,0,1,.686-.142l.566,1.222a3.158,3.158,0,0,1,.176.435h1.22a7.039,7.039,0,0,0-.4-1,5.422,5.422,0,0,1-.429-1.009,13.639,13.639,0,0,0,2.137-.7,19.989,19.989,0,0,0,2-.872,26.6,26.6,0,0,1,2.7,3.576h1.31a26.332,26.332,0,0,0-2.543-3.65l-.423-.492a19.856,19.856,0,0,0,2.442-1.612,9.776,9.776,0,0,1,1.559,1.23c.5.465.954.915,1.439,1.4a22.633,22.633,0,0,1,2.5,3.129h1.395c-.75-1.12-1.321-1.865-2.173-2.927a26.006,26.006,0,0,0-2.569-2.577,23.256,23.256,0,0,0-1.985-1.592,25.254,25.254,0,0,0-10.448-4.421,26.365,26.365,0,0,0-9.051-.013c-.6.1-1.158.224-1.69.358a23.57,23.57,0,0,0-3.113.986c-.252.1-.481.186-.715.288l-3.4,1.746c-.414.249-.832.525-1.239.807a24.47,24.47,0,0,0-2.3,1.8c-.767.681-1.343,1.287-2.074,2.026-.106.108-.122.155-.216.26a27.142,27.142,0,0,0-2.054,2.613,2.544,2.544,0,0,0-.4.648Z" transform="translate(-164.215 -105.716)" fill="#fff5ef" fill-rule="evenodd"/>
    <path id="Trazado_198" data-name="Trazado 198" d="M303.244,480.386a8.006,8.006,0,0,1,.243-2.546c.154-.463.416-.986,1.02-.986,1.435,0,1.22,2.839,1.22,3.838,0,.846-.171,2.624-1.371,2.421-1.052-.178-1.114-1.826-1.114-2.726Zm-2.094-.827a6.9,6.9,0,0,0,.784,3.924,2.86,2.86,0,0,0,2.79,1.394c1.659,0,2.645-1.523,2.963-3.055.5-2.423.075-6.712-3.006-6.712a2.863,2.863,0,0,0-2.73,1.413A6,6,0,0,0,301.15,479.558Z" transform="translate(-273.418 -421.95)" fill="#fff5ef" fill-rule="evenodd"/>
    <path id="Trazado_199" data-name="Trazado 199" d="M357.529,483.143c-1.357,0-1.265-2.442-1.265-3.4,0-.777.094-2.334.829-2.747s1.288.157,1.492.95a5.829,5.829,0,0,1,.164,1.492c.01.2.045.271.046.522,0,.809-.023,2.639-.815,3.07a1.373,1.373,0,0,1-.452.114Zm-3.357-3.488a7.056,7.056,0,0,0,.75,3.786,2.872,2.872,0,0,0,2.434,1.446,2.735,2.735,0,0,0,2.156-.724,3.122,3.122,0,0,0,.676-.848,8.306,8.306,0,0,0,.016-6.64,2.874,2.874,0,0,0-2.5-1.556,2.8,2.8,0,0,0-1.832.479,4.891,4.891,0,0,0-1.7,4.055Z" transform="translate(-318.808 -421.958)" fill="#fff5ef" fill-rule="evenodd"/>
    <path id="Trazado_200" data-name="Trazado 200" d="M194.544,477.919v.131c.2,0,.282.036.524.043.453.016,1.219.131,1.658.131A1.445,1.445,0,0,1,197.2,477a1,1,0,0,1,.843-.058c.5.178.509.721.509,1.148,0,.96-.816.872-1.395.872v1.613c.537,0,.933-.073,1.3.312.348.368.653,2.255-.82,2.255-1.1,0-1.219-1.089-1.046-1.826l-2.015.168c-.285.027-.235-.032-.217.222.014.193,0,.364.026.553a2.675,2.675,0,0,0,1.194,2.163,4.1,4.1,0,0,0,2.364.471c1.652,0,3.27-1,3.27-2.7a2.118,2.118,0,0,0-.967-2.128,1.918,1.918,0,0,0-.646-.269v-.086a1.962,1.962,0,0,0,1.308-1.918,2.584,2.584,0,0,0-2.835-2.661,3.276,3.276,0,0,0-2.952,1.147,3,3,0,0,0-.58,1.645Z" transform="translate(-181.986 -421.967)" fill="#fff5ef" fill-rule="evenodd"/>
    <path id="Trazado_201" data-name="Trazado 201" d="M250.55,478.188h4.361c-.269.4-.747.945-1.169,1.579a15.922,15.922,0,0,0-2.127,4.805,5.237,5.237,0,0,0-.235,1.159c3.156,0,2.546.163,2.628-.511.023-.174.055-.409.088-.61.065-.387.147-.794.24-1.156a13.365,13.365,0,0,1,2.572-5.06c.085-.095.317-.248.317-.381v-1.7h-6.672v1.877Z" transform="translate(-230.1 -422.977)" fill="#fff5ef" fill-rule="evenodd"/>
    <path id="Trazado_202" data-name="Trazado 202" d="M410.706,477.664h-.176v1.525a6.878,6.878,0,0,0,2.006-.305v6.846h2.136c.1,0,.132-.029.132-.131v-9.157c0-.1-.03-.132-.132-.132H413.1c-.163,0-.17.232-.4.512a2.731,2.731,0,0,1-1.993.84Z" transform="translate(-367.057 -422.977)" fill="#fff5ef" fill-rule="evenodd"/>
  </g>
</svg>
