<svg id="_2492875772128" xmlns="http://www.w3.org/2000/svg" width="93.35" height="93.35" viewBox="0 0 93.35 93.35">
  <ellipse id="Elipse_12" data-name="Elipse 12" cx="46.675" cy="46.675" rx="46.675" ry="46.675" fill="none"/>
  <g id="Grupo_25" data-name="Grupo 25" transform="translate(15.32 15.172)">
    <path id="Trazado_183" data-name="Trazado 183" d="M50.647,53.961A6.969,6.969,0,0,0,52.291,58.9a10.27,10.27,0,0,0,3.14,2.358c.2.1.366.161.565.261a23.831,23.831,0,0,0,2.265.875c1.216.41,2.445.7,3.68,1.03.856.23,3.14.72,3.14,1.7,0,.527-.714.7-1.129.745a11.592,11.592,0,0,1-4.263-.155,8.911,8.911,0,0,1-1.787-.652,6.484,6.484,0,0,1-2.674-2.513c-.074-.124-.143-.391-.3-.391H50.69c-.1,0-.13.031-.13.13v8.24c0,.1.031.13.13.13h4.97v-1.7a15.61,15.61,0,0,0,7.719,2.048,11.237,11.237,0,0,0,6.062-1.483A5.926,5.926,0,0,0,72.1,64.641a6.34,6.34,0,0,0-.627-3.121,8.882,8.882,0,0,0-1.136-2c-1.992-2.662-4.257-2.892-7.291-3.655a33.663,33.663,0,0,1-3.711-1c-.583-.236-1.669-.676-1.669-1.471,0-.534.285-.732.769-.844a10.675,10.675,0,0,1,4.331.416,8.645,8.645,0,0,1,2.29.98,3.912,3.912,0,0,1,.844.819,4.082,4.082,0,0,1,.335.5c.161.292.155.5.335.5h4.8c.1,0,.13-.031.13-.13V47.992c0-.1-.031-.13-.13-.13H66.228V49.3a10.259,10.259,0,0,0-1.508-.8c-.155-.062-.23-.118-.385-.18a14.641,14.641,0,0,0-5.169-1.241,9.256,9.256,0,0,0-3.884.6,6.45,6.45,0,0,0-4.617,6.286Z" transform="translate(-34.507 -33.038)" fill="#fff5ef" fill-rule="evenodd"/>
    <path id="Trazado_184" data-name="Trazado 184" d="M98.715,65.779a3.112,3.112,0,0,1-3.158-1.731c-.912-1.781-.726-4.809-.726-6.993,0-1.589.385-2.929,1.731-3.5a4.947,4.947,0,0,1,4.009.248c1.371.918,1.675,2.861,1.675,4.474,0,.465.043.8.043,1.222l-.118,2.327a4.577,4.577,0,0,1-1.539,3.388A3.508,3.508,0,0,1,98.715,65.779Zm-.788,5.5c2.1,0,4.2.143,6.124-.639a6.325,6.325,0,0,0,.993-.447c.155-.093.279-.161.441-.254a8.239,8.239,0,0,0,1.222-.912l.875-.869c.068-.093.1-.105.168-.186,1.948-2.184,3-5.982,3-9.122a11.369,11.369,0,0,0-3.109-7.794,9.76,9.76,0,0,0-1.433-1.272,10.662,10.662,0,0,0-6.186-2.01c-2.954,0-5.274-.223-7.893,1.092a9.124,9.124,0,0,0-.9.5,8.623,8.623,0,0,0-1.62,1.26l-.348.347a9.284,9.284,0,0,0-.956,1.185l-.98,1.893c-.137.335-.267.683-.391,1.049a11.529,11.529,0,0,0-.695,3.624,13.346,13.346,0,0,0,.13,2.625,13.546,13.546,0,0,0,.9,3.419,10.71,10.71,0,0,0,10.66,6.522Z" transform="translate(-48.038 -33.295)" fill="#fff5ef" fill-rule="evenodd"/>
    <path id="Trazado_185" data-name="Trazado 185" d="M24.69,53.572h3.146v11.6H24.69v5.758h14.7V65.169H36.25v-11.6h3.14v-5.8H24.69Z" transform="translate(-24.69 -33.3)" fill="#fff5ef" fill-rule="evenodd"/>
    <path id="Trazado_186" data-name="Trazado 186" d="M58.709,29.023a10.366,10.366,0,0,0,2.265.347v5.014a27.314,27.314,0,0,1-2.923-.174l-1.713-.254a3.516,3.516,0,0,0-.558-.1c.112-.211.2-.422.323-.639.645-1.08,1.036-1.886,1.806-3.034.273-.4.527-.776.794-1.167Zm3.4,5.361V29.371a11.58,11.58,0,0,0,2.352-.478l1.526,2.352c.236.4.478.788.707,1.21.242.441.453.85.683,1.278a27.437,27.437,0,0,1-5.274.658Zm-7.5-.782a3.614,3.614,0,0,0-.509-.149l-2.55-.85c-.174-.062-.31-.13-.5-.2a1.74,1.74,0,0,0-.5-.192,11.466,11.466,0,0,1,1.514-1.582l.658-.565c.13-.124.217-.186.347-.3a25.851,25.851,0,0,1,2.892-2.128,7.037,7.037,0,0,0,1.657.962c-.621.925-.949,1.39-1.576,2.432-.13.217-.236.41-.372.633L54.607,33.6Zm10.9-5.187a10.767,10.767,0,0,0,1.483-.875,10,10,0,0,1,1.489.956c.428.31,1.986,1.526,2.383,1.936a18.851,18.851,0,0,1,1.582,1.557l-.906.4c-.316.137-.645.267-.968.385-.261.093-1.775.627-2.054.652-.118-.217-.211-.447-.341-.664l-1.086-1.924C66.459,29.786,66.118,29.321,65.51,28.415ZM49.42,31.642a21.276,21.276,0,0,1-2.135-1.309,20.942,20.942,0,0,1,3.456-2.122,24.057,24.057,0,0,1,4.04-1.582l.23.211-.745.54a31.147,31.147,0,0,0-2.525,2.01L49.42,31.648Zm18.535-4.927c.23-.428.186-.267,1.272.031.6.168,1.477.515,2.048.745a24.493,24.493,0,0,1,3.251,1.632c.161.1.273.161.434.267l.844.552a7.716,7.716,0,0,1-1.092.782l-1.179.7c-.236-.161-.621-.676-.949-.968-.137-.124-.211-.168-.347-.3a28.7,28.7,0,0,0-3.518-2.892,5.353,5.353,0,0,1-.769-.54Zm-6.28,1.526A7.846,7.846,0,0,1,57.1,27.019a6.984,6.984,0,0,1-1.005-.738,25.435,25.435,0,0,1,8.569-.5l2.159.323c-.037.149-.254.3-.434.434a9.14,9.14,0,0,1-1.719,1.03,7.981,7.981,0,0,1-2.991.67Zm-21.8,8.284h1.353c.521-.776,1.111-1.5,1.694-2.228a22.659,22.659,0,0,1,1.917-2l.863-.757c.087-.068.112-.1.186-.161.316-.254.329-.4.67-.137a14.6,14.6,0,0,0,2.079,1.278,6.925,6.925,0,0,1-.738.956l-1.1,1.52c-.074.112-.105.143-.186.254a3.135,3.135,0,0,0-.161.273c-.124.192-.23.335-.341.527-.391.658-.4.484.962.484.161,0,.558-.707.664-.863l.943-1.322a8.789,8.789,0,0,1,1.055-1.26c.223.05,1.241.527,1.564.658a21.209,21.209,0,0,0,2.221.745,4.413,4.413,0,0,1,.577.168,2.117,2.117,0,0,1-.2.453,8.234,8.234,0,0,0-.583,1.427h1.222l.347-.788a4.175,4.175,0,0,0,.347-.782,8.24,8.24,0,0,1,1.347.223,25.81,25.81,0,0,0,4.412.385v.956h1.136v-.956l1.526-.087c.478-.037,1.036-.112,1.5-.168l2.135-.354a4.441,4.441,0,0,1,.695-.137l.738,1.7h1.222a13.889,13.889,0,0,0-.869-2.048,4.932,4.932,0,0,0,1.1-.335,21.939,21.939,0,0,0,3.121-1.278c.174.254.534.621.738.875L75.729,36.1c.4.6.285.434,1.483.434.267,0-.087-.4-.149-.5l-1.1-1.644c-.143-.192-.242-.341-.385-.534l-1.03-1.278c-.068-.081-.155-.192-.211-.273a3.521,3.521,0,0,0,.645-.36l1.229-.819a5.168,5.168,0,0,1,.608-.434,10,10,0,0,1,1.315,1.042,16.486,16.486,0,0,1,1.427,1.365c.174.217.422.4.6.614.726.869,1.44,1.731,2.1,2.65.174.242.223.174.614.174h.831a5,5,0,0,0-.813-1.284l-.676-.894c-.093-.13-.168-.192-.254-.31-.155-.2-.31-.372-.472-.571a15.407,15.407,0,0,0-1.824-1.88c-.366-.3-.707-.683-1.1-1-.105-.087-.174-.149-.285-.236a25.943,25.943,0,0,0-31.1-1.4l-3.493,2.873c-.347.354-.714.689-1.049,1.049-.105.112-.124.168-.236.285a15.569,15.569,0,0,0-1.44,1.744l-.67.943a2.387,2.387,0,0,0-.4.683Z" transform="translate(-30.451 -24.45)" fill="#fff5ef" fill-rule="evenodd"/>
    <path id="Trazado_187" data-name="Trazado 187" d="M61.371,97.188a7.992,7.992,0,0,1,4.586,1.3,5.225,5.225,0,0,1,1.036.838,24.929,24.929,0,0,1-10.816-.087,7.642,7.642,0,0,1,2.2-1.415,7.816,7.816,0,0,1,2.985-.633Zm7.018,1.787c-.124,0-.292-.223-.347-.3a13.584,13.584,0,0,0,1.5-1.03c.261-.192.465-.347.714-.552a28.689,28.689,0,0,0,2.7-2.445A6.443,6.443,0,0,1,73.62,94c.211.112.385.192.6.323l1.713,1.16-1.7,1.049c-.273.168-.577.329-.875.478l-.931.465a24.341,24.341,0,0,1-4.04,1.5ZM47.5,95.314l1.005-.658a6.817,6.817,0,0,1,1.092-.608c.192.13,1.253,1.247,1.557,1.539l.676.59a27.391,27.391,0,0,0,2.476,1.973,5.672,5.672,0,0,1,.738.521l-.18.211a13.363,13.363,0,0,1-1.514-.478,25.091,25.091,0,0,1-2.42-1.03A21.181,21.181,0,0,1,47.5,95.314Zm18.057,1.657a2.2,2.2,0,0,1,.366-.6c.732-1.055,1.241-2.029,1.868-3.059.248-.4.441-.9.689-1.272a8.06,8.06,0,0,1,1.074.279c.627.18,1.378.465,1.992.707l.7.3c.1.05.161.062.248.1-.05.18-.211.279-.335.4l-.391.391-.782.745a1.408,1.408,0,0,1-.192.155c-.087.068-.124.118-.2.192l-.428.36c-.67.521-.894.776-1.737,1.359-1.328.918-1.154.949-1.607.639a6.585,6.585,0,0,0-1.253-.707ZM50.692,93.484l1.893-.769a16.7,16.7,0,0,1,2.035-.627,11.754,11.754,0,0,1,.695,1.222l2.228,3.661a6.071,6.071,0,0,0-1.526.912c-.118-.081-.236-.143-.347-.217a29.787,29.787,0,0,1-2.954-2.24l-.484-.434a18.61,18.61,0,0,1-1.539-1.514ZM64.43,96.493a8.628,8.628,0,0,0-2.308-.434V91.175a29.587,29.587,0,0,1,3.971.347c.385.062.856.186,1.222.217a26.554,26.554,0,0,1-1.34,2.451l-1.136,1.744c-.13.192-.279.372-.4.558Zm-8.638-4.71,2.476-.4,2.718-.2v4.883a9.484,9.484,0,0,0-1.812.279c-.192.056-.366.118-.54.155l-1.477-2.277c-.31-.484-.583-1.042-.856-1.5l-.5-.937Zm5.318,9.246a27.581,27.581,0,0,0,5.163-.372,25.179,25.179,0,0,0,6.379-1.992A20.594,20.594,0,0,0,76.021,96.8l2.4-1.781a25.388,25.388,0,0,0,2.662-2.569,22.23,22.23,0,0,0,2.091-2.619c.081-.118.137-.18.217-.3.515-.769.509-.577-.925-.577-.168,0-.521.614-.627.763L79.9,92.05a19.02,19.02,0,0,1-1.8,1.731,4.873,4.873,0,0,1-1.21.925l-.577-.422A11.991,11.991,0,0,0,75.09,93.5a2.4,2.4,0,0,0-.683-.36l2.6-3.593a2.3,2.3,0,0,0,.323-.589H76.021c-.422.627-.819,1.253-1.278,1.862-.2.267-1.272,1.551-1.384,1.756-.155-.081-.335-.149-.509-.236L71.268,91.7c-.366-.13-.7-.248-1.111-.372A7.081,7.081,0,0,0,69,91a13.288,13.288,0,0,0,.869-2.048H68.643l-.391.875a5.409,5.409,0,0,0-.391.869,26.6,26.6,0,0,0-4.97-.652L62.1,90V88.954H60.967v1.092a25.491,25.491,0,0,0-5.082.54,2.968,2.968,0,0,1-.67.112,3.164,3.164,0,0,0-.186-.465l-.5-1.117c-.13-.273-.385-.168-1.185-.168-.236,0,.006.347.056.465l.478,1.092c.093.2.149.354.248.54a10.567,10.567,0,0,0-2.221.7,21.319,21.319,0,0,0-2.048.869c-.192-.292-1.284-1.57-1.744-2.221l-.962-1.44H45.839A24.921,24.921,0,0,0,48.4,92.671a2.889,2.889,0,0,1,.4.515,5.676,5.676,0,0,0-1.185.689l-.831.565a.733.733,0,0,1-.292.186l-1.452-1.21a30.834,30.834,0,0,1-2.439-2.575c-.23-.292-.441-.546-.67-.85L41.3,89.1c-.081-.112-.081-.124-.254-.137-.385-.031-.794,0-1.179,0a19.492,19.492,0,0,0,2.178,3.009c.093.118.155.161.248.273a27.129,27.129,0,0,0,2.048,2.091,21.381,21.381,0,0,0,2.017,1.644c.192.149.4.3.608.434a24.172,24.172,0,0,0,2.575,1.57L51.666,99a23.51,23.51,0,0,0,3.9,1.291,22.925,22.925,0,0,0,5.535.745Z" transform="translate(-30.451 -48.918)" fill="#fff5ef" fill-rule="evenodd"/>
    <path id="Trazado_188" data-name="Trazado 188" d="M57.71,115.474c.441,0,1.52.3,1.917.3.211-.9,2.178-1.4,2.178,1.005a2.162,2.162,0,0,1-.3,1.1,1.067,1.067,0,0,1-1.973-.621v-.434l-1.092.043c-.186.006-.385-.012-.571,0-.2.012-.267.043-.521.043a3.264,3.264,0,0,0,.273,1.557,2.684,2.684,0,0,0,.614.869,2.718,2.718,0,0,0,.943.54,3.673,3.673,0,0,0,4.753-2.017,4.228,4.228,0,0,0,.217-1.222c.006-.137-.031-.236-.037-.428a3.022,3.022,0,0,0-1.4-2.4,2.745,2.745,0,0,0-2.923.087c.05-.211.093-.546.118-.757.031-.261.1-.583.1-.813h3.574c0-.527.13-1.117.13-1.874H58.442c-.2,0-.223.8-.273,1.167-.05.4-.112.881-.155,1.278l-.316,2.563Z" transform="translate(-37.084 -57.09)" fill="#fff5ef" fill-rule="evenodd"/>
    <path id="Trazado_189" data-name="Trazado 189" d="M71.907,115.537c0-.974-.05-2.563.589-3.289.391-.441,1.328-.546,1.682.621.285.937.434,4.213-.323,5.051-.285.316-1.334.633-1.737-.683a7.051,7.051,0,0,1-.211-1.706Zm-2.091-.912a6.78,6.78,0,0,0,.813,3.984,3.038,3.038,0,0,0,4.114.937,3.164,3.164,0,0,0,.577-.465c1.557-1.638,1.489-5.678.5-7.372a2.86,2.86,0,0,0-2.736-1.539,3.267,3.267,0,0,0-3.028,2.73,7,7,0,0,0-.242,1.719Z" transform="translate(-41.812 -56.98)" fill="#fff5ef" fill-rule="evenodd"/>
    <path id="Trazado_190" data-name="Trazado 190" d="M85.463,118.2a.906.906,0,0,1-.707-.292,1.725,1.725,0,0,1-.341-.7c-.31-.98-.509-5.237.962-5.237a.869.869,0,0,1,.894.416c.608.894.5,3.667.285,4.685-.124.571-.391,1.136-1.086,1.136Zm-3.357-3.444a6.718,6.718,0,0,0,.8,3.822,2.744,2.744,0,0,0,.428.527,2.979,2.979,0,0,0,3,.757c2.966-.757,2.923-6.236,1.744-8.2a2.872,2.872,0,0,0-2.705-1.483c-2.283,0-3.27,2.451-3.27,4.579Z" transform="translate(-46.476 -56.983)" fill="#fff5ef" fill-rule="evenodd"/>
    <path id="Trazado_191" data-name="Trazado 191" d="M48.431,113v1.57c0,.565.043.987.043,1.57H46.383a5.164,5.164,0,0,1,.49-.776c.267-.4,1.353-2.128,1.564-2.364Zm-3.7,3.14v1.483c0,.1.031.13.13.13h3.618v2.135h2.265v-2.135h1.222v-1.613H50.739V110.6c0-.1-.031-.13-.13-.13H48.691c-.155,0-.881,1.185-1.024,1.378l-2.215,3.2a10.525,10.525,0,0,0-.732,1.1Z" transform="translate(-32.291 -57.093)" fill="#fff5ef" fill-rule="evenodd"/>
    <path id="Trazado_192" data-name="Trazado 192" d="M95.176,111.856v1.526c.323-.074.98-.074,1.508-.192a3.774,3.774,0,0,1,.5-.112v6.8h2.135c.1,0,.13-.031.13-.13V110.59c0-.1-.031-.13-.13-.13h-1.57c-.2,0-.223.589-.974.987a3.732,3.732,0,0,1-1.6.41Z" transform="translate(-51.436 -57.09)" fill="#fff5ef" fill-rule="evenodd"/>
  </g>
</svg>
