<svg id="_2490417892000" xmlns="http://www.w3.org/2000/svg" width="93.35" height="93.35" viewBox="0 0 93.35 93.35">
  <ellipse id="Elipse_14" data-name="Elipse 14" cx="46.675" cy="46.675" rx="46.675" ry="46.675" fill="none"/>
  <g id="Grupo_27" data-name="Grupo 27" transform="translate(11.586 11.593)">
    <path id="Trazado_203" data-name="Trazado 203" d="M114.018,128.507h.67v.813h-.67Zm5.357-1.675c0-3.2,2.145-3.391,2.936-2.023.708,1.225.693,4.561-1.356,4.561-1.087,0-1.577-1.539-1.577-2.535Zm-15.5,2.535c-1.506,0-1.77-1.63-1.77-2.869,0-3.164,3.348-3.612,3.348.334a3.051,3.051,0,0,1-.827,2.235,1.305,1.305,0,0,1-.753.3Zm2.056-2.633c0-3.77,3.348-3.393,3.348-.334a3.835,3.835,0,0,1-.415,2.168,1.378,1.378,0,0,1-2.552-.112,3.714,3.714,0,0,1-.381-1.723Zm8.085-1.194h.67v.86h-.67Zm-15.691.381c0-2.523,3.2-2.681,3.2.286a4.676,4.676,0,0,1-.372,2.354,1.575,1.575,0,0,1-.434.524,1.41,1.41,0,0,1-2.257-1.013,1.887,1.887,0,0,1,.527-.1c.319,1.373,2.009,1.2,2.009-1.006-.331.088-.234.622-1.387.622-.71,0-1.291-.858-1.291-1.675Zm25.544-.908c.658,0,1.139-.272,1.194-.958h.384v5.261h-.574v-3.874h-1.006v-.431Zm-13.442,0c.662,0,1.139-.262,1.2-.958h.381v5.261h-.574v-3.874h-1.006v-.431Zm17.364,1.051c.186-.05.214-.181.429-.291.925-.472,2.156.15,2.156,1.773a1.685,1.685,0,0,1-1.532,1.818,1.538,1.538,0,0,1-1.606-1.025,3.819,3.819,0,0,1-.162-.651h.622a1.023,1.023,0,0,0,1.751.8c.622-.772.264-2.278-.46-2.278-.472,0-.55-.05-.874.274a.926.926,0,0,0-.174.207c-.141.222.041.188-.674.188l.1-1.434c0-.324.041-.455.05-.717.024-.867-.508-.672,2.628-.672v.574h-2.152c-.033.405-.1,1.01-.1,1.434Zm-11.43-.622.048.813h-.574c0-.224-.048-.276-.048-.622a1.491,1.491,0,1,1,2.964.048,2.144,2.144,0,0,1-.272,1.02,3.046,3.046,0,0,1-.522.77,6.088,6.088,0,0,1-1.017.944c-.179.133-.3.174-.343.329h2.2v.574h-3.014v-.67a5.743,5.743,0,0,0,1.73-1.475c.093-.114.188-.272.272-.4.55-.848.46-2.142-.326-2.142h-.431a.8.8,0,0,0-.67.813Zm-2.009-3.541a13.586,13.586,0,0,1-9.365-3.791c-.2-.2-.355-.357-.55-.55l-.515-.584a8.132,8.132,0,0,1-.91-1.292h.622a6.651,6.651,0,0,0,.9,1.208,11.319,11.319,0,0,0,1.83,1.708c.155.019.815-.617,1.244-.717-.017-.207-.031-.143-.152-.276-.081-.091-.133-.164-.214-.265a10.587,10.587,0,0,1-1.115-1.658h.574c.219.329.422.643.662.965a4.477,4.477,0,0,0,.772.9,2.693,2.693,0,0,0,.546-.219,14.036,14.036,0,0,1,1.7-.593,3.6,3.6,0,0,0-.212-.505,3.65,3.65,0,0,1-.219-.548h.574a4.879,4.879,0,0,0,.381.91c.324-.026,1.377-.293,2.2-.336l.813-.048v-.527h.574v.527a13.954,13.954,0,0,1,3.014.384c.155-.293.276-.617.431-.91h.527a10.773,10.773,0,0,1-.431,1.053,10.467,10.467,0,0,1,2.3.813,11.658,11.658,0,0,0,1.434-1.866h.574a3.813,3.813,0,0,1-.334.574l-1.149,1.577a4.09,4.09,0,0,1,.7.4c.253.148.453.307.684.462l.779-.658a13.948,13.948,0,0,0,2.042-2.357h.624a12.391,12.391,0,0,1-1.425,1.83,12.954,12.954,0,0,1-1.11,1.089,15.429,15.429,0,0,1-1.916,1.384,13.676,13.676,0,0,1-6.886,1.916Zm10.811-7.365c-2.216,0-3.841,0-5.466-1.613a6.211,6.211,0,0,1-1.239-1.823,7.2,7.2,0,0,1,.543-6.455,5.257,5.257,0,0,1,2.581-1.963,10.2,10.2,0,0,1,5.3,0,5.391,5.391,0,0,1,1.859,1.106,6.4,6.4,0,0,1,1.439,7.015c-.057.174-.122.336-.2.517a4.9,4.9,0,0,1-4.816,3.219Zm-27.121-12.2h7.606v2.967h-1.673v6.124h1.673v2.917H98.043v-2.917h1.673v-6.124H98.044v-2.967Zm12,3.014c0,.751,1.384,1.015,2.068,1.187,1.878.472,3.376.55,4.506,2.044,1.246,1.649,1.387,3.963-.424,5.166-1.751,1.163-4.451.882-6.348.124a7.934,7.934,0,0,1-.853-.438v.908h-2.583V109.99h2.3a2.9,2.9,0,0,0,1.37,1.454,5.272,5.272,0,0,0,3.286.477.885.885,0,0,0,.41-.117.327.327,0,0,0,.2-.329c0-.567-1.708-.92-2.209-1.041a11.942,11.942,0,0,1-3.019-1.094,3.813,3.813,0,0,1-2.28-3.748c0-2.164,2.123-3.443,3.827-3.443a6.879,6.879,0,0,1,3.465.743c.26.107.584.348.791.4v-.765h2.678v4.065h-2.44c-.21,0-.164-.334-.56-.732a5.465,5.465,0,0,0-3.905-.913.363.363,0,0,0-.272.4Zm10.763-6.505a17.671,17.671,0,0,1,1.53,2.2h-.574a16.76,16.76,0,0,0-1.21-1.658c-.114-.131-.131-.081-.176-.255l-2.3.863c.057.245.372.808.431,1.051h-.574l-.381-.908a13.017,13.017,0,0,1-3.062.381v.527h-.574v-.477c-.386-.091-1.089-.057-1.551-.122l-1.508-.212-.336.813h-.574c.157-.3.272-.655.431-.956l-1.811-.629a4.11,4.11,0,0,0-.581-.234c-.045.174-.041.1-.153.229-.067.076-.1.133-.172.212a11.482,11.482,0,0,0-.967,1.377h-.622a19.593,19.593,0,0,1,1.272-1.79c.088-.11.145-.169.212-.267-.229-.122-.438-.253-.66-.393l-.631-.422-.827.705a13.311,13.311,0,0,0-1.613,1.83c-.279.4-.162.334-.86.334l.908-1.244a14.787,14.787,0,0,1,3.512-3.04,13.456,13.456,0,0,1,13.885,0,14.453,14.453,0,0,1,1.887,1.365c.11.088.164.164.269.257.126.11.183.133.312.262a14.016,14.016,0,0,1,1.949,2.4h-.624a10.173,10.173,0,0,0-1.325-1.642,6.362,6.362,0,0,0-.741-.739,1.837,1.837,0,0,0-.207-.176c-.1-.074-.119-.11-.2-.179-.15-.122-.281-.222-.438-.326a9.254,9.254,0,0,1-1.339.86Zm-32,15.067a27.37,27.37,0,0,0,.67,6.172,28.131,28.131,0,0,0,1.585,4.682c.136.334.334.684.5,1.027l1.749,2.94a17.593,17.593,0,0,0,1.339,1.77l1.485,1.673c.5.536,1.082,1,1.625,1.482a23.848,23.848,0,0,0,3.627,2.592l1.017.56a9.6,9.6,0,0,0,1.051.527l1.056.477a24.233,24.233,0,0,0,6.114,1.682,25.289,25.289,0,0,0,11.118-.824l1.713-.581a29.244,29.244,0,0,0,3.66-1.747,26.872,26.872,0,0,0,2.776-1.863,27.563,27.563,0,0,0,2.883-2.571,26.327,26.327,0,0,0,2.438-2.969,26.776,26.776,0,0,0,1.744-2.847c.176-.353.372-.7.522-1.058a30.707,30.707,0,0,0,1.618-4.551,24.833,24.833,0,0,0,.51-2.6,26.066,26.066,0,0,0-1.239-12.3c-.248-.748-.6-1.482-.915-2.195a8.9,8.9,0,0,0-.508-1.025l-.562-1.017a30.7,30.7,0,0,0-2.211-3.193,20.661,20.661,0,0,0-1.873-2.1l-1.411-1.268c-.1-.086-.136-.114-.236-.2-.291-.236-.546-.458-.846-.684s-.6-.457-.917-.662c-.16-.1-.276-.21-.45-.315a27.562,27.562,0,0,0-5.726-2.836c-.369-.138-.76-.255-1.163-.369a27.43,27.43,0,0,0-3.874-.813,26.416,26.416,0,0,0-9.25.467c-.41.1-.834.212-1.249.331s-.789.248-1.194.381c-.767.257-1.518.574-2.254.9a24.343,24.343,0,0,0-5.364,3.3c-.157.124-.284.243-.446.367s-.255.219-.417.348a26.221,26.221,0,0,0-3.424,3.658c-.241.322-.429.577-.662.915a26.527,26.527,0,0,0-3.922,8.7,24.192,24.192,0,0,0-.689,5.626Z" transform="translate(-79.234 -79.161)" fill="#fff5ef" fill-rule="evenodd"/>
    <path id="Trazado_204" data-name="Trazado 204" d="M49.971,84.125A33.856,33.856,0,0,1,52.69,70.438l.643-1.413.353-.7c.236-.472.477-.922.741-1.363a44.149,44.149,0,0,1,2.485-3.734l1.418-1.742a3.444,3.444,0,0,0,.25-.276l.753-.827a16.923,16.923,0,0,1,1.311-1.272l1.389-1.241c.372-.324.748-.629,1.137-.92.789-.589,1.608-1.187,2.45-1.713a36.7,36.7,0,0,1,7.015-3.41,33.8,33.8,0,0,1,11.583-1.859l1.484.045c.5,0,1.94.164,2.357.226a40.926,40.926,0,0,1,5.1,1.068,33.916,33.916,0,0,1,8.542,3.848c.453.276.841.56,1.265.841.407.269.793.572,1.189.867a15.676,15.676,0,0,1,1.406,1.129c.119.112.172.138.286.238s.152.157.276.253L108.5,60.8c.172.222.317.317.479.527a2.6,2.6,0,0,0,.248.279,34.741,34.741,0,0,1,3.648,5.1l1.1,2.011c.117.236.219.481.336.72a32.381,32.381,0,0,1,2.845,9.546,33.829,33.829,0,0,1-2.45,18.164c-.407.948-.905,1.849-1.353,2.759-.11.224-.255.465-.379.672a39.724,39.724,0,0,1-3.605,5.1l-.5.55c-.119.119-.136.169-.241.288-.16.181-.331.324-.5.5a11.613,11.613,0,0,1-1.025,1.032c-.362.3-.672.674-1.032.977a3.3,3.3,0,0,0-.284.241,14.089,14.089,0,0,1-1.425,1.16c-.188.145-.365.291-.565.438l-3.755,2.416c-.25.133-.436.243-.686.367-1.289.639-2.223,1.063-3.527,1.589-.272.11-.491.183-.765.288a33.143,33.143,0,0,1-10.408,1.932,37.009,37.009,0,0,1-5.664-.315,33.143,33.143,0,0,1-8.09-2.195l-2.14-.97a37.451,37.451,0,0,1-5.13-3.145l-1.992-1.594a3.442,3.442,0,0,0-.276-.25,17.846,17.846,0,0,1-1.616-1.544L57.78,105.3a26.505,26.505,0,0,1-2.621-3.6,35.672,35.672,0,0,1-2.488-4.735l-.863-2.245a33.08,33.08,0,0,1-1.837-10.6Zm-1.339-.384a9.385,9.385,0,0,0,.012,1.039c.041.3,0,.72.048,1.051L48.87,87.8a32.731,32.731,0,0,0,1.582,7.122,28.5,28.5,0,0,0,1.556,3.848,37.388,37.388,0,0,0,4.656,7.3l1.518,1.735c.191.2.357.355.55.55.624.624,1.234,1.241,1.916,1.816a45.679,45.679,0,0,0,4.044,3.038,32.733,32.733,0,0,0,3.469,1.985,33.426,33.426,0,0,0,8.964,2.993,35.133,35.133,0,0,0,23.4-3.646,31.585,31.585,0,0,0,3.329-2.078,28.731,28.731,0,0,0,3.286-2.6,3.258,3.258,0,0,1,.293-.279,32.557,32.557,0,0,0,2.409-2.421,34.734,34.734,0,0,0,3.488-4.6c.67-1.134,1.337-2.247,1.93-3.427a28.056,28.056,0,0,0,1.3-3.01l.562-1.589a33.873,33.873,0,0,0,1.68-10.182,45.429,45.429,0,0,0-.286-5.214,28.526,28.526,0,0,0-.679-3.674c-.138-.548-.272-1.153-.453-1.7A35.462,35.462,0,0,0,115.6,69.01a34.365,34.365,0,0,0-3.193-5.514c-.16-.214-.291-.405-.446-.61s-.307-.412-.469-.629a22.4,22.4,0,0,0-1.718-2.064c-.1-.107-.186-.176-.288-.286l-.524-.574-.55-.55a35.161,35.161,0,0,0-35.964-8.292A33.527,33.527,0,0,0,63.7,54.9L61.2,56.806c-.207.169-.376.336-.6.505a27.491,27.491,0,0,0-2.233,2.121c-.1.117-.122.169-.238.288l-.81.865c-.484.608-1.017,1.194-1.482,1.818-.322.431-.608.827-.929,1.27-.472.648-.889,1.32-1.3,2A36.53,36.53,0,0,0,51.089,70.8c-.217.546-.405,1.063-.589,1.613a35.7,35.7,0,0,0-1.871,11.33Z" transform="translate(-48.623 -48.652)" fill="#fff5ef" fill-rule="evenodd"/>
    <path id="Trazado_205" data-name="Trazado 205" d="M229.5,159.781a12.81,12.81,0,0,0,.21,3.234,1.815,1.815,0,0,0,2.376,1.265,1.5,1.5,0,0,0,1.044-.917,3.993,3.993,0,0,0,.291-1.623,7.332,7.332,0,0,0,.029-.886,4.484,4.484,0,0,0-.5-2.421,1.861,1.861,0,0,0-1.778-.662c-1.2,0-1.675.8-1.675,2.009Z" transform="translate(-186.397 -131.769)" fill="#fff5ef" fill-rule="evenodd"/>
    <path id="Trazado_206" data-name="Trazado 206" d="M158.586,306.5l.012.014S158.579,306.509,158.586,306.5Zm-4.544,2.345a8.223,8.223,0,0,1,1.053.238l.813-3.253c0,1.194.048,2.237.048,3.443a5.917,5.917,0,0,0,1.006.241c.112,0,.348-.555.415-.686.081-.157.133-.224.207-.367.067-.126.124-.257.188-.384l.815-1.482c-.036.427-.71,2.807-.72,3.155a5.968,5.968,0,0,0,1.1.241c.081-.346,1.051-4.244,1.051-4.449a7.177,7.177,0,0,0-1.673-.431,1.084,1.084,0,0,1-.164.362l-.57,1.1c-.076.143-.117.183-.193.334l-.191.384a2.57,2.57,0,0,1-.415.734v-3.348c-.393-.01-1.353-.353-1.72-.384,0,.226-.45,1.973-.517,2.259l-.412,1.694a2.553,2.553,0,0,0-.124.593Z" transform="translate(-128.921 -243.383)" fill="#fff5ef" fill-rule="evenodd"/>
    <path id="Trazado_207" data-name="Trazado 207" d="M250.648,295.227Zm1.866-.1-1.866.1ZM254.379,295.037ZM254.379,295.037Zm0,0a4.353,4.353,0,0,1-.7-.4l-2.03-1.272c-.3.2-.717.4-1.051.574l2.2,4.115a6.3,6.3,0,0,1,.958-.479,15.265,15.265,0,0,0-.925-1.8,3.02,3.02,0,0,1-.319-.639c.515.119,2.471,1.635,2.8,1.561a4.289,4.289,0,0,0,.932-.555,2.768,2.768,0,0,0-.257-.51l-1.627-3.014a3.3,3.3,0,0,1-.272-.543l-.956.477a5.582,5.582,0,0,0,.608,1.261,11.311,11.311,0,0,1,.639,1.23Z" transform="translate(-202.472 -234.068)" fill="#fff5ef" fill-rule="evenodd"/>
    <path id="Trazado_208" data-name="Trazado 208" d="M140.024,72.687a2.642,2.642,0,0,0,.6-.212,2.477,2.477,0,0,1,.643-.219c.293,0,.527.4.527.717,0,.493-1.3.81-1.339.815l-.431-1.1ZM138.59,72.3c.033.407,1.644,3.939,1.675,4.306.393-.01.839-.357,1.149-.384-.029-.355-.546-1.237-.574-1.577.7-.336.636-.222.855-.043l1.079.889c.181.141.174.086.424-.019.317-.131.665-.25.944-.4-.131-.179-1.463-1.1-1.627-1.339.329-.493.431-.293.431-1.149a1.44,1.44,0,0,0-1.339-1.339c-.8,0-2.4.91-3.014,1.051Z" transform="translate(-117.152 -65.865)" fill="#fff5ef" fill-rule="evenodd"/>
    <path id="Trazado_209" data-name="Trazado 209" d="M276.47,104.455c.129-.193.291-.264.465-.443s.305-.255.479-.431l.967-.848c.043.031.407.429.46.5a1.51,1.51,0,0,1,.3.648c0,.617-1.068,1.961-2.059,1.246a1.736,1.736,0,0,1-.319-.3l-.3-.367Zm-1.577-.241a16.7,16.7,0,0,0,1.2,1.38c1.689,2.128,4.2.036,4.2-1.475a3.058,3.058,0,0,0-1.065-2c-.126-.131-.155-.2-.286-.338a4.983,4.983,0,0,0-.61-.634l-2.166,1.9c-.076.074-.112.122-.193.191l-1.087.97Z" transform="translate(-220.974 -88.641)" fill="#fff5ef" fill-rule="evenodd"/>
    <path id="Trazado_210" data-name="Trazado 210" d="M127.574,297.544a1.153,1.153,0,0,1-1.1-.908,1.819,1.819,0,0,1,.45-1.37,1.1,1.1,0,0,1,2.037.46,1.742,1.742,0,0,1-.45,1.272A1.336,1.336,0,0,1,127.574,297.544Zm-2.249-1.482a2.129,2.129,0,0,0,.705,1.878,2.323,2.323,0,0,0,2.676.4,2.6,2.6,0,0,0,1.4-2.185,2.1,2.1,0,0,0-.729-1.854,2.311,2.311,0,0,0-3.3.119,2.47,2.47,0,0,0-.5.7,2.808,2.808,0,0,0-.255.941Z" transform="translate(-107.044 -235.283)" fill="#fff5ef" fill-rule="evenodd"/>
    <path id="Trazado_211" data-name="Trazado 211" d="M254.212,86.174c.236.062,2.752,1.937,3.014,2.009a5.728,5.728,0,0,1,.477-.765l-1.454-1.034c-.188-.126-.338-.241-.508-.353.145-.274.355-.558.527-.815.281.067,1.384.944,1.768,1.149.164-.307.367-.512.527-.813L256.841,84.4a3.294,3.294,0,0,0,.384-.622c.217.017.331.172.486.276a8.39,8.39,0,0,0,1.473.92,5.912,5.912,0,0,1,.479-.765c-.453-.238-2.638-1.849-2.869-1.913l-1.961,2.869a5.1,5.1,0,0,0-.622,1.006Z" transform="translate(-205.222 -74.282)" fill="#fff5ef" fill-rule="evenodd"/>
    <path id="Trazado_212" data-name="Trazado 212" d="M112.49,85.869l2.016,2.817c.124.164.217.3.341.472a2.166,2.166,0,0,1,.322.491c.229-.055,2.919-2.042,2.964-2.106-.076-.281-.415-.531-.477-.765-.3.081-1.763,1.318-2.056,1.387-.043-.162-.029-.081-.122-.212-.06-.086-.076-.112-.138-.2s-.081-.1-.145-.188c-.112-.148-.1-.069-.119-.262a5.239,5.239,0,0,0,.8-.539,4.688,4.688,0,0,1,.827-.56,1.907,1.907,0,0,0-.527-.813c-.393.207-1.334.991-1.723,1.194-.074-.276-.315-.372-.381-.67l1.768-1.244a3.153,3.153,0,0,0-.574-.765,6.994,6.994,0,0,0-.679.467c-.245.167-.458.322-.693.5l-1.4.991Z" transform="translate(-97.272 -75.509)" fill="#fff5ef" fill-rule="evenodd"/>
    <path id="Trazado_213" data-name="Trazado 213" d="M192.541,312.2h-.717v-1.339c.412-.1,1.627-.2,1.627.527C193.451,311.948,193.268,312.2,192.541,312.2Zm-1.482-2.247h-.479c0,.238.048.264.05.524v1.768c.06.72.045,1.554.045,2.347h1.244c0-.546-.048-.922-.048-1.482,1.034,0,2.774-.014,2.774-1.482,0-.824-.148-1.494-1.153-1.668a4.476,4.476,0,0,0-1.184-.045,11.584,11.584,0,0,1-1.251.041Z" transform="translate(-156.754 -247.642)" fill="#fff5ef" fill-rule="evenodd"/>
    <path id="Trazado_214" data-name="Trazado 214" d="M220.782,309.133l.1-1.818a8.1,8.1,0,0,1,.958,1.577c-.267,0-.722.212-1.053.238Zm-.81-2.907c0,1.051-.481,3.963-.481,4.916l1.241-.3c.019-.832-.114-.729.5-.879,1.3-.319,1.087-.386,1.33.019a1.331,1.331,0,0,1,.181.346,9.051,9.051,0,0,1,1.244-.286,4.161,4.161,0,0,0-.662-1.058l-2.114-3.055-1.241.3Z" transform="translate(-178.775 -244.625)" fill="#fff5ef" fill-rule="evenodd"/>
    <path id="Trazado_215" data-name="Trazado 215" d="M93.019,107.167a2.195,2.195,0,0,0,.276,1.349,2.861,2.861,0,0,0,.55.693,2.344,2.344,0,0,0,3.355.033,1.908,1.908,0,0,0,.6-1.692,2.155,2.155,0,0,0-.143-.67,2.749,2.749,0,0,0-.479.191,3.2,3.2,0,0,1-.477.191,1.183,1.183,0,0,1-.391,1.38c-.939.622-2.228-.643-2.23-1.38a1.075,1.075,0,0,1,1.091-1.006,2.739,2.739,0,0,1,.334.048,5.1,5.1,0,0,0,.241-1.053,2.229,2.229,0,0,0-2.047.536,2.158,2.158,0,0,0-.679,1.377Z" transform="translate(-82.44 -91.736)" fill="#fff5ef" fill-rule="evenodd"/>
    <path id="Trazado_216" data-name="Trazado 216" d="M101.45,278.739a2.134,2.134,0,0,0,.679,1.854,2.332,2.332,0,0,0,2.237.488,7.768,7.768,0,0,0-.334-1.006c-.21,0-.181.048-.527.048-.848,0-1.444-1.113-.441-2.116,1.048-1.048,2.068-.326,2.068.488a2.5,2.5,0,0,1-.1.431,4.719,4.719,0,0,0,1.051.286l.048-.91a2.166,2.166,0,0,0-1.913-1.913h-.381a2.645,2.645,0,0,0-2.39,2.342Z" transform="translate(-88.862 -222.124)" fill="#fff5ef" fill-rule="evenodd"/>
    <path id="Trazado_217" data-name="Trazado 217" d="M213.655,69.166a6.606,6.606,0,0,0,1.2.238l.381-1.768a9.988,9.988,0,0,1,1.063.226l1.089.2.191-.91c-.331-.007-1.732-.431-2.154-.431a5.614,5.614,0,0,0,.191-.91c.586.05,1.849.467,2.345.479a7.089,7.089,0,0,1,.191-.91c-.238-.019-.624-.138-.865-.186l-2.626-.577c-.353,1.506-.655,3.04-1.006,4.544Z" transform="translate(-174.327 -60.815)" fill="#fff5ef" fill-rule="evenodd"/>
    <path id="Trazado_218" data-name="Trazado 218" d="M268.434,276.326l-1.647-.462c-.281-.036-.5.343-.9.646a.516.516,0,0,0-.231.3,4.283,4.283,0,0,1,.679.133l2.044.443c.355.074.274.119.469.346l1.208,1.28.86-.765c-.045-.164-.04-.11-.155-.229l-1.132-1.26c-.224-.272-.176-.384-.241-.956-.071-.62-.243-1.689-.243-2.2a3.684,3.684,0,0,0-1.048,1.006c-.012.114.284,1.52.329,1.72Z" transform="translate(-213.944 -219.999)" fill="#fff5ef" fill-rule="evenodd"/>
    <path id="Trazado_219" data-name="Trazado 219" d="M167.492,64.055a5.627,5.627,0,0,0,.143.908c.067.031-.012.012.079.01,0,0,.138-.012.15-.014a8.016,8.016,0,0,1,.967-.141c0,.3.529,3.446.572,3.636a5.138,5.138,0,0,0,.751-.11c.417-.064.467.079.386-.353-.088-.465-.162-.984-.243-1.484-.079-.469-.138-1-.234-1.492-.081-.427-.122-.407.315-.465.272-.036.565-.11.794-.114l-.112-.844c-.048-.138-.045-.091-.176-.079-.555.048-3.014.531-3.393.541Z" transform="translate(-139.166 -59.959)" fill="#fff5ef" fill-rule="evenodd"/>
    <path id="Trazado_220" data-name="Trazado 220" d="M147.02,241.468a4.764,4.764,0,0,0,.21,1.37c.412,1.056,1.647,1.1,1.918-.581.124-.767.112-2.461-.691-2.8a.828.828,0,0,0-.877.133,1.323,1.323,0,0,0-.429.767,5.723,5.723,0,0,0-.131,1.11Z" transform="translate(-123.574 -193.94)" fill="#fff5ef" fill-rule="evenodd"/>
    <path id="Trazado_221" data-name="Trazado 221" d="M219.682,240.989c0,.815-.11,2.583,1.1,2.583.443,0,.705-.4.841-.736.331-.824.374-3.172-.662-3.417-.929-.219-1.282.87-1.282,1.57Z" transform="translate(-178.919 -193.94)" fill="#fff5ef" fill-rule="evenodd"/>
    <path id="Trazado_222" data-name="Trazado 222" d="M163.277,241.085c0,.822-.076,2.485,1.1,2.485.441,0,.705-.4.841-.736.331-.827.4-3.217-.7-3.424C163.649,239.243,163.277,240.215,163.277,241.085Z" transform="translate(-135.956 -193.941)" fill="#fff5ef" fill-rule="evenodd"/>
    <path id="Trazado_223" data-name="Trazado 223" d="M183.352,220.6c.093.126.119.1.3.133a15,15,0,0,0,2.716.3,12.993,12.993,0,0,0,2.774-.336,3.958,3.958,0,0,0-1.175-.786,4.423,4.423,0,0,0-4.613.691Z" transform="translate(-151.247 -178.815)" fill="#fff5ef" fill-rule="evenodd"/>
    <path id="Trazado_224" data-name="Trazado 224" d="M196.61,124.081v2.678a12.666,12.666,0,0,0,2.774-.336,23.785,23.785,0,0,0-1.482-2.583,3.6,3.6,0,0,0-.627.141,3.723,3.723,0,0,1-.665.1Z" transform="translate(-161.347 -105.924)" fill="#fff5ef" fill-rule="evenodd"/>
    <path id="Trazado_225" data-name="Trazado 225" d="M171.11,123.48l1.07.412a4.134,4.134,0,0,0,1.177.305,23.68,23.68,0,0,1,1.53-2.631,9.613,9.613,0,0,1-.908-.527,14.658,14.658,0,0,0-1.878,1.423A4.734,4.734,0,0,0,171.11,123.48Z" transform="translate(-141.923 -103.791)" fill="#fff5ef" fill-rule="evenodd"/>
    <path id="Trazado_226" data-name="Trazado 226" d="M183.36,116.977c.079.3.805.641,1.065.751a4.362,4.362,0,0,0,3.5-.017,3.359,3.359,0,0,0,1.132-.782,12.435,12.435,0,0,0-4.253-.186l-1.439.236Z" transform="translate(-151.254 -100.445)" fill="#fff5ef" fill-rule="evenodd"/>
    <path id="Trazado_227" data-name="Trazado 227" d="M238.56,77.181c.386.091.732.346,1.1.431l.465-1.065c.2-.46,1.332-2.976,1.353-3.238a2.232,2.232,0,0,1-.558-.207,3.894,3.894,0,0,0-.543-.222,3.917,3.917,0,0,1-.224.543c-.21.472-1.58,3.6-1.594,3.762Z" transform="translate(-193.301 -67.107)" fill="#fff5ef" fill-rule="evenodd"/>
    <path id="Trazado_228" data-name="Trazado 228" d="M182.55,126.633a11.17,11.17,0,0,0,2.774.286v-2.678a4.275,4.275,0,0,1-1.194-.191c-.067.1-.126.164-.2.276l-.622.958c-.272.45-.512.886-.755,1.349Z" transform="translate(-150.637 -106.084)" fill="#fff5ef" fill-rule="evenodd"/>
    <path id="Trazado_229" data-name="Trazado 229" d="M196.4,67.643l1.2.048c0-.858.048-1.563.048-2.392l.048-1.818c.007-.586.174-.477-1.2-.477C196.5,64.574,196.4,66.061,196.4,67.643Z" transform="translate(-161.187 -59.578)" fill="#fff5ef" fill-rule="evenodd"/>
    <path id="Trazado_230" data-name="Trazado 230" d="M196.61,208.991a5.17,5.17,0,0,1,1.244.238,23.541,23.541,0,0,0,1.53-2.535,13.044,13.044,0,0,0-2.006-.288c-.315,0-.527-.045-.767-.045v2.631Z" transform="translate(-161.347 -168.781)" fill="#fff5ef" fill-rule="evenodd"/>
    <path id="Trazado_231" data-name="Trazado 231" d="M204.022,210.991a3.421,3.421,0,0,1,.815.479,8.363,8.363,0,0,0,1.551-1.079,6.943,6.943,0,0,0,1.318-1.313,4.1,4.1,0,0,1-.512-.2c-.2-.079-.31-.126-.522-.2a4.528,4.528,0,0,0-1.168-.317,2.681,2.681,0,0,1-.334.672c-.365.629-.539.965-.979,1.6a.617.617,0,0,0-.172.355Z" transform="translate(-166.991 -170.304)" fill="#fff5ef" fill-rule="evenodd"/>
    <path id="Trazado_232" data-name="Trazado 232" d="M182.75,206.846a2.094,2.094,0,0,0,.319.686c.117.234.236.41.372.634l.791,1.215a5.056,5.056,0,0,1,1.244-.238V206.56a11.049,11.049,0,0,0-2.159.183C183.115,206.777,182.934,206.832,182.75,206.846Z" transform="translate(-150.79 -168.933)" fill="#fff5ef" fill-rule="evenodd"/>
    <path id="Trazado_233" data-name="Trazado 233" d="M204.03,121.339c.017.207.984,1.635,1.165,1.992a3.772,3.772,0,0,1,.367.734,7.218,7.218,0,0,0,1.094-.341c.174-.057.336-.122.517-.2a4.1,4.1,0,0,1,.543-.224,13.765,13.765,0,0,0-2.631-2.249c-.486-.338-.4.138-1.053.288Z" transform="translate(-166.999 -103.708)" fill="#fff5ef" fill-rule="evenodd"/>
    <path id="Trazado_234" data-name="Trazado 234" d="M171.5,209.125a3.287,3.287,0,0,0,.61.634,14.284,14.284,0,0,0,2.164,1.711,4.716,4.716,0,0,1,.86-.479,2.03,2.03,0,0,0-.365-.641l-.77-1.287a2.937,2.937,0,0,1-.35-.7,6.716,6.716,0,0,0-1.106.329,7.171,7.171,0,0,0-1.046.436Z" transform="translate(-142.22 -170.304)" fill="#fff5ef" fill-rule="evenodd"/>
    <path id="Trazado_235" data-name="Trazado 235" d="M131.16,240.417c0,.746.055,1.387,1.1,1.387.975,0,1.187-1.363.72-2.011a.822.822,0,0,0-.705-.4A1.01,1.01,0,0,0,131.16,240.417Z" transform="translate(-111.493 -193.94)" fill="#fff5ef" fill-rule="evenodd"/>
    <path id="Trazado_236" data-name="Trazado 236" d="M209.45,215.068l.152.183a6.134,6.134,0,0,0,1.134-.334,13.669,13.669,0,0,0,2.016-.951l.908-.574a5.606,5.606,0,0,0-1.292-.813l-2.917,2.488Z" transform="translate(-171.128 -173.519)" fill="#fff5ef" fill-rule="evenodd"/>
    <path id="Trazado_237" data-name="Trazado 237" d="M209.02,118.613a17.214,17.214,0,0,1,1.935,1.477,3.459,3.459,0,0,0,.343.329,3,3,0,0,1,.35.319c.1.1.269.315.348.369a4.8,4.8,0,0,0,1.244-.813,12.886,12.886,0,0,0-4.065-1.866l-.153.183Z" transform="translate(-170.8 -101.803)" fill="#fff5ef" fill-rule="evenodd"/>
    <path id="Trazado_238" data-name="Trazado 238" d="M164.08,120.814a3.156,3.156,0,0,0,1.244.717c.05-.183.479-.55.636-.705a17.335,17.335,0,0,1,2.235-1.782l-.153-.183a12.577,12.577,0,0,0-3.093,1.342,4.877,4.877,0,0,0-.87.612Z" transform="translate(-136.569 -102.131)" fill="#fff5ef" fill-rule="evenodd"/>
    <path id="Trazado_239" data-name="Trazado 239" d="M164.49,213.353a12.572,12.572,0,0,0,3.474,1.742c.3.1.319.181.546.029-.052-.191-.2-.222-.343-.329s-.25-.174-.388-.279l-1.792-1.556c-.1-.1-.267-.312-.348-.369a5.677,5.677,0,0,0-1.146.765Z" transform="translate(-136.881 -173.526)" fill="#fff5ef" fill-rule="evenodd"/>
  </g>
</svg>
