<?xml version="1.0" encoding="UTF-8"?>
<!DOCTYPE svg PUBLIC "-//W3C//DTD SVG 1.1//EN" "http://www.w3.org/Graphics/SVG/1.1/DTD/svg11.dtd">
<!-- Creator: CorelDRAW -->
<svg xmlns="http://www.w3.org/2000/svg" xml:space="preserve" width="7.9368mm" height="7.9368mm" version="1.1" style="shape-rendering:geometricPrecision; text-rendering:geometricPrecision; image-rendering:optimizeQuality; fill-rule:evenodd; clip-rule:evenodd"
viewBox="0 0 391.76 391.76"
 xmlns:xlink="http://www.w3.org/1999/xlink"
 xmlns:xodm="http://www.corel.com/coreldraw/odm/2003">
 <defs>
  <style type="text/css">
   <![CDATA[
    .fil0 {fill:none}
    .fil1 {fill:#FFF5EF}
   ]]>
  </style>
 </defs>
 <g id="Capa_x0020_1">
  <metadata id="CorelCorpID_0Corel-Layer"/>
  <g id="_2490417892000">
   <circle class="fil0" cx="195.88" cy="195.88" r="195.88"/>
   <g>
    <path class="fil1" d="M194.6 255.74l2.81 0 0 3.41 -2.81 0 0 -3.41zm22.48 -7.03c0,-13.42 9,-14.23 12.32,-8.49 2.97,5.14 2.91,19.14 -5.69,19.14 -4.56,0 -6.62,-6.46 -6.62,-10.64zm-65.04 10.64c-6.32,0 -7.43,-6.84 -7.43,-12.04 0,-13.28 14.05,-15.16 14.05,1.4 0,3.41 -1.1,7.37 -3.47,9.38 -0.69,0.58 -1.98,1.26 -3.16,1.26zm8.63 -11.05c0,-15.82 14.05,-14.24 14.05,-1.4 0,3.57 0.05,5.84 -1.74,9.1 -2.33,4.23 -8,4.94 -10.71,-0.47 -0.99,-1.97 -1.6,-4.26 -1.6,-7.23zm33.93 -5.01l2.81 0 0 3.61 -2.81 0 0 -3.61zm-65.85 1.6c0,-10.59 13.45,-11.25 13.45,1.2 0,3.41 0.11,6.97 -1.56,9.88 -0.56,0.98 -0.96,1.51 -1.82,2.2 -2.67,2.15 -8.05,1.85 -9.47,-4.25 0.76,-0.18 1.25,-0.4 2.21,-0.4 1.34,5.76 8.43,5.04 8.43,-4.22 -1.39,0.37 -0.98,2.61 -5.82,2.61 -2.98,0 -5.42,-3.6 -5.42,-7.03zm107.2 -3.81c2.76,0 4.78,-1.14 5.01,-4.02l1.61 0 0 22.08 -2.41 0 0 -16.26 -4.22 0 0 -1.81zm-56.41 0c2.78,0 4.78,-1.1 5.02,-4.02l1.6 0 0 22.08 -2.41 0 0 -16.26 -4.22 0 0 -1.81zm72.87 4.41c0.78,-0.21 0.9,-0.76 1.8,-1.22 3.88,-1.98 9.05,0.63 9.05,7.44 0,3.92 -2.56,7.63 -6.43,7.63 -3.4,0 -5.54,-1.32 -6.74,-4.3 -0.4,-1.01 -0.44,-1.68 -0.68,-2.73l2.61 0c0,5.11 5.54,5.6 7.35,3.34 2.61,-3.24 1.11,-9.56 -1.93,-9.56 -1.98,0 -2.31,-0.21 -3.67,1.15 -0.4,0.4 -0.45,0.44 -0.73,0.87 -0.59,0.93 0.17,0.79 -2.83,0.79l0.4 -6.02c-0.01,-1.36 0.17,-1.91 0.21,-3.01 0.1,-3.64 -2.13,-2.82 11.03,-2.82l0 2.41 -9.03 0c-0.14,1.7 -0.4,4.24 -0.4,6.02zm-47.97 -2.61l0.2 3.41 -2.41 0c0,-0.94 -0.2,-1.16 -0.2,-2.61 0,-9.19 12.44,-9.12 12.44,0.2 0,1.76 -0.52,3.05 -1.14,4.28 -0.93,1.86 -1.07,1.8 -2.19,3.23 -1.03,1.31 -2.9,2.94 -4.27,3.96 -0.75,0.56 -1.26,0.73 -1.44,1.38l9.24 0 0 2.41 -12.65 0 0 -2.81c1.86,-0.5 5.76,-4.33 7.26,-6.19 0.39,-0.48 0.79,-1.14 1.14,-1.67 2.31,-3.56 1.93,-8.99 -1.37,-8.99l-1.81 0c-1.54,0 -2.81,1.8 -2.81,3.41zm-8.43 -14.86c-15.14,0 -29.84,-6.46 -39.3,-15.91 -0.82,-0.82 -1.49,-1.5 -2.31,-2.31l-2.16 -2.45c-0.77,-1 -3.52,-4.34 -3.82,-5.42l2.61 0c0.21,0.81 2.92,4.21 3.76,5.07 1.06,1.09 6.49,7.02 7.68,7.17 0.65,0.08 3.42,-2.59 5.22,-3.01 -0.07,-0.87 -0.13,-0.6 -0.64,-1.16 -0.34,-0.38 -0.56,-0.69 -0.9,-1.11 -1.01,-1.24 -4.44,-5.92 -4.68,-6.96l2.41 0c0.92,1.38 1.77,2.7 2.78,4.05 0.84,1.12 2.17,3.07 3.24,3.78 1.04,-0.24 1.36,-0.53 2.29,-0.92 1.9,-0.79 5.26,-2.05 7.14,-2.49 -0.16,-0.69 -0.57,-1.35 -0.89,-2.12 -0.32,-0.76 -0.74,-1.53 -0.92,-2.3l2.41 0c0.06,0.72 1.27,3.18 1.6,3.82 1.36,-0.11 5.78,-1.23 9.24,-1.41l3.41 -0.2 0 -2.21 2.41 0 0 2.21c2.75,0 11.02,0.82 12.65,1.61 0.65,-1.23 1.16,-2.59 1.81,-3.82l2.21 0c-0.1,1.23 -1.52,3.17 -1.81,4.42 1.8,0.04 8.22,2.66 9.64,3.41 1.44,-0.96 5.09,-6.44 6.02,-7.83l2.41 0c-0.14,0.51 -1.09,1.93 -1.4,2.41l-4.82 6.62c0.81,0.22 2.17,1.21 2.95,1.67 1.06,0.62 1.9,1.29 2.87,1.94l3.27 -2.76c3.27,-3.14 6.04,-6.11 8.57,-9.89l2.62 0c-1.62,2.42 -3.83,5.57 -5.98,7.68 -1.54,1.52 -2.92,3.22 -4.66,4.57 -3.12,2.41 -4.18,3.49 -8.04,5.81 -7.18,4.3 -17.44,8.04 -28.9,8.04zm45.37 -30.91c-9.3,0 -16.12,0.01 -22.94,-6.77 -1.87,-1.87 -4.14,-5.01 -5.2,-7.65 -3.46,-8.61 -2.83,-19.28 2.28,-27.09 2.46,-3.77 6.63,-6.75 10.83,-8.24 5.65,-2 16.58,-1.92 22.24,-0 2.56,0.86 5.89,2.74 7.8,4.64 8.32,8.23 9.69,18.52 6.04,29.44 -0.24,0.73 -0.51,1.41 -0.84,2.17 -3.85,8.61 -10.15,13.51 -20.21,13.51zm-113.82 -51.19l31.92 0 0 12.45 -7.02 0 0 25.7 7.02 0 0 12.24 -31.92 0 0 -12.24 7.02 0 0 -25.7 -7.02 0 0 -12.45zm50.38 12.65c0,3.15 5.81,4.26 8.68,4.98 7.88,1.98 14.17,2.31 18.91,8.58 5.23,6.92 5.82,16.63 -1.78,21.68 -7.35,4.88 -18.68,3.7 -26.64,0.52 -1.39,-0.55 -2.37,-1.2 -3.58,-1.84l0 3.81 -10.84 0 0 -18.27 9.64 0c0.51,2.22 3.55,4.98 5.75,6.1 4.3,2.17 8.92,2.78 13.79,2 0.85,-0.13 1.12,-0.13 1.72,-0.49 0.51,-0.3 0.82,-0.59 0.82,-1.38 0,-2.38 -7.17,-3.86 -9.27,-4.37 -4.91,-1.21 -8.56,-2.38 -12.67,-4.59 -6.37,-3.43 -9.57,-7.83 -9.57,-15.73 0,-9.08 8.91,-14.45 16.06,-14.45 6.81,0 8.55,0.64 14.54,3.12 1.09,0.45 2.45,1.46 3.32,1.69l0 -3.21 11.24 0 0 17.06 -10.24 0c-0.88,0 -0.69,-1.4 -2.35,-3.07 -3.01,-3 -12.78,-5.07 -16.39,-3.83 -0.78,0.27 -1.14,0.72 -1.14,1.68zm45.17 -27.3c0.23,0.86 5.89,6.95 6.42,9.23l-2.41 0c-1.58,-2.37 -3.21,-4.79 -5.08,-6.96 -0.48,-0.55 -0.55,-0.34 -0.74,-1.07l-9.64 3.62c0.24,1.03 1.56,3.39 1.81,4.41l-2.41 0 -1.6 -3.81c-4.06,0.94 -8.04,1.6 -12.85,1.6l0 2.21 -2.41 0 0 -2c-1.62,-0.38 -4.57,-0.24 -6.51,-0.51l-6.33 -0.89 -1.41 3.41 -2.41 0c0.66,-1.24 1.14,-2.75 1.81,-4.01l-7.6 -2.64c-0.71,-0.29 -1.62,-0.79 -2.44,-0.98 -0.19,0.73 -0.17,0.43 -0.64,0.96 -0.28,0.32 -0.44,0.56 -0.72,0.89 -1.16,1.41 -3.28,4.31 -4.06,5.78l-2.61 0c2.39,-3.57 2.57,-4 5.34,-7.51 0.37,-0.46 0.61,-0.71 0.89,-1.12 -0.96,-0.51 -1.84,-1.06 -2.77,-1.65l-2.65 -1.77 -3.47 2.96c-2.5,2.52 -4.7,4.7 -6.77,7.68 -1.17,1.68 -0.68,1.4 -3.61,1.4l3.81 -5.22c3.6,-4.65 10,-9.84 14.74,-12.76 17.84,-10.98 40.44,-10.63 58.27,-0.02 3.38,2.01 5.05,3.44 7.92,5.73 0.46,0.37 0.69,0.69 1.13,1.08 0.53,0.46 0.77,0.56 1.31,1.1 2.42,2.44 6.67,7.25 8.18,10.09l-2.62 0c-1.38,-2.61 -3.69,-4.65 -5.56,-6.89 -1.7,-2.03 -1.39,-1.39 -3.11,-3.1 -0.4,-0.39 -0.43,-0.39 -0.87,-0.74 -0.4,-0.31 -0.5,-0.46 -0.86,-0.75 -0.63,-0.51 -1.18,-0.93 -1.84,-1.37 -1.12,0.74 -4.46,3.3 -5.62,3.61zm-134.3 63.23c0,8.71 0.98,18.62 2.81,25.9 2.2,8.75 3.48,11.83 6.65,19.65 0.57,1.4 1.4,2.87 2.11,4.31l7.34 12.34c1.7,2.56 3.64,5.15 5.62,7.43l6.23 7.02c2.08,2.25 4.54,4.19 6.82,6.22 4.65,4.14 9.89,7.69 15.22,10.88l4.27 2.35c1.55,0.87 2.69,1.48 4.41,2.21l4.43 2c7.61,3.4 17.33,5.88 25.66,7.06 15.28,2.17 32.06,1.3 46.66,-3.46l7.19 -2.44c5.3,-2.14 10.38,-4.47 15.36,-7.33 4.06,-2.32 7.92,-5.02 11.65,-7.82 4.33,-3.24 8.27,-6.98 12.1,-10.79 2.84,-2.83 8.02,-9.16 10.23,-12.46 2.59,-3.88 5.23,-7.77 7.32,-11.95 0.74,-1.48 1.56,-2.92 2.19,-4.44 2.7,-6.55 5.01,-11.96 6.79,-19.1 0.88,-3.54 1.61,-7.1 2.14,-10.91 2.54,-18.28 0.53,-34.3 -5.2,-51.63 -1.04,-3.14 -2.51,-6.22 -3.84,-9.21 -0.7,-1.56 -1.25,-2.84 -2.13,-4.3l-2.36 -4.27c-2.82,-4.71 -5.9,-9.09 -9.28,-13.4 -2.36,-3.01 -5.13,-6.18 -7.86,-8.8l-5.92 -5.32c-0.41,-0.36 -0.57,-0.48 -0.99,-0.82 -1.22,-0.99 -2.29,-1.92 -3.55,-2.87 -1.28,-0.95 -2.53,-1.92 -3.85,-2.78 -0.67,-0.44 -1.16,-0.88 -1.89,-1.32 -9.43,-5.73 -13.57,-7.98 -24.03,-11.9 -1.55,-0.58 -3.19,-1.07 -4.88,-1.55 -5.41,-1.55 -10.48,-2.6 -16.26,-3.41 -12.23,-1.72 -27.45,-0.86 -38.82,1.96 -1.72,0.43 -3.5,0.89 -5.24,1.39 -1.72,0.5 -3.31,1.04 -5.01,1.6 -3.22,1.08 -6.37,2.41 -9.46,3.79 -8.35,3.72 -15.55,8.28 -22.51,13.83 -0.66,0.52 -1.19,1.02 -1.87,1.54 -0.71,0.55 -1.07,0.92 -1.75,1.46 -4.02,3.21 -11.14,11.02 -14.37,15.35 -1.01,1.35 -1.8,2.42 -2.78,3.84 -7.72,11.17 -13.15,23.35 -16.46,36.53 -1.69,6.72 -2.89,15.38 -2.89,23.61z"/>
    <path class="fil1" d="M54.28 197.52c0,-21.63 3.66,-38.53 11.41,-57.44l2.7 -5.93c0.53,-1.06 0.95,-1.89 1.48,-2.95 0.99,-1.98 2,-3.87 3.11,-5.72 3.27,-5.43 6.64,-10.61 10.43,-15.67l5.95 -7.31c0.43,-0.48 0.66,-0.64 1.05,-1.16l3.16 -3.47c1.79,-1.78 3.53,-3.77 5.5,-5.34l5.83 -5.21c1.56,-1.36 3.14,-2.64 4.77,-3.86 3.31,-2.47 6.75,-4.98 10.28,-7.19 9.33,-5.83 19.07,-10.56 29.44,-14.31 15.53,-5.61 31.82,-7.8 48.61,-7.8l6.23 0.19c2.09,0.02 8.14,0.69 9.89,0.95 7.63,1.13 14.27,2.5 21.42,4.48 12.7,3.52 24.66,9.32 35.85,16.15 1.9,1.16 3.53,2.35 5.31,3.53 1.71,1.13 3.33,2.4 4.99,3.64 2,1.51 4.09,3.01 5.9,4.74 0.5,0.47 0.72,0.58 1.2,1 0.48,0.43 0.64,0.66 1.16,1.06l9.95 9.72c0.72,0.93 1.33,1.33 2.01,2.21 0.46,0.6 0.56,0.66 1.04,1.17 4.89,5.23 12,15.67 15.31,21.42l4.61 8.44c0.49,0.99 0.92,2.02 1.41,3.02 6.1,12.35 9.91,26.27 11.94,40.06 1.82,12.4 1.84,26.8 0.07,39.2 -1.84,12.97 -5.26,25.16 -10.35,37.03 -1.71,3.98 -3.8,7.76 -5.68,11.58 -0.46,0.94 -1.07,1.95 -1.59,2.82 -4.54,7.52 -9.47,14.69 -15.13,21.41l-2.1 2.31c-0.5,0.5 -0.57,0.71 -1.01,1.21 -0.67,0.76 -1.39,1.36 -2.11,2.1 -1.6,1.66 -2.44,2.77 -4.3,4.33 -1.52,1.27 -2.82,2.83 -4.33,4.1 -0.53,0.45 -0.68,0.5 -1.19,1.01 -1.81,1.8 -3.97,3.34 -5.98,4.87 -0.79,0.61 -1.53,1.22 -2.37,1.84l-15.76 10.14c-1.05,0.56 -1.83,1.02 -2.88,1.54 -5.41,2.68 -9.33,4.46 -14.8,6.67 -1.14,0.46 -2.06,0.77 -3.21,1.21 -12.3,4.76 -30.94,8.11 -43.68,8.11 -8.39,0 -15.56,-0.11 -23.77,-1.32 -11.83,-1.75 -23.06,-4.63 -33.95,-9.21l-8.98 -4.07c-7.56,-3.78 -14.67,-8.26 -21.53,-13.2l-8.36 -6.69c-0.48,-0.43 -0.64,-0.66 -1.16,-1.05 -2.3,-1.76 -4.66,-4.35 -6.78,-6.48l-8.24 -9.03c-4.06,-4.66 -7.77,-9.8 -11,-15.1 -3.89,-6.38 -7.53,-12.94 -10.44,-19.87l-3.62 -9.42c-4.79,-14.38 -7.71,-28.89 -7.71,-44.49zm-5.62 -1.61c0,1.28 -0.11,3.17 0.05,4.36 0.17,1.27 0.01,3.02 0.2,4.41l0.75 8.28c0.84,9.79 3.6,20.72 6.64,29.89 1.84,5.54 3.93,10.99 6.53,16.15 6.67,13.22 10.78,19.39 19.54,30.65l6.37 7.28c0.8,0.82 1.5,1.49 2.31,2.31 2.62,2.62 5.18,5.21 8.04,7.62 5.43,4.57 11.06,8.8 16.97,12.75 4.62,3.08 9.56,5.82 14.56,8.33 11.5,5.74 24.95,10.39 37.62,12.56 19.86,3.41 35.13,3.49 55,0.09 4.83,-0.82 9.84,-2.2 14.56,-3.51 10.03,-2.79 19.48,-7.1 28.66,-11.88 4.84,-2.52 9.49,-5.62 13.97,-8.72 4.35,-3.02 9.96,-7.21 13.79,-10.91 0.48,-0.46 0.69,-0.75 1.23,-1.17 3.07,-2.36 7.22,-7.27 10.11,-10.16 3.85,-3.86 11.93,-14.71 14.64,-19.29 2.81,-4.76 5.61,-9.43 8.1,-14.38 2.03,-4.06 3.89,-8.33 5.44,-12.63l2.36 -6.67c4.33,-13.65 7.05,-28.15 7.05,-42.73 0,-7.93 -0.38,-14.34 -1.2,-21.88 -0.57,-5.18 -1.67,-10.71 -2.85,-15.42 -0.58,-2.3 -1.14,-4.84 -1.9,-7.14 -2.23,-6.84 -4.33,-13.58 -7.5,-20.01 -3.95,-8.02 -8.04,-15.99 -13.4,-23.14 -0.67,-0.9 -1.22,-1.7 -1.87,-2.56 -0.66,-0.88 -1.29,-1.73 -1.97,-2.64 -2.15,-2.88 -4.69,-6.04 -7.21,-8.66 -0.43,-0.45 -0.78,-0.74 -1.21,-1.2l-2.2 -2.41c-0.82,-0.82 -1.49,-1.49 -2.31,-2.31 -38.01,-38.01 -96.26,-53.02 -150.93,-34.8 -12.94,4.31 -25.59,10.6 -36.71,18.5l-10.47 8c-0.87,0.71 -1.58,1.41 -2.5,2.12 -2.12,1.64 -7.73,7.05 -9.37,8.9 -0.43,0.49 -0.51,0.71 -1,1.21l-3.4 3.63c-2.03,2.55 -4.27,5.01 -6.22,7.63 -1.35,1.81 -2.55,3.47 -3.9,5.33 -1.98,2.72 -3.73,5.54 -5.44,8.41 -4.11,6.9 -7.63,14.04 -10.62,21.5 -0.91,2.29 -1.7,4.46 -2.47,6.77 -5.07,15.21 -7.85,31.12 -7.85,47.55z"/>
    <path class="fil1" d="M229.52 166.21c0,4.3 -0.25,9.63 0.88,13.57 1.31,4.56 5.23,6.49 9.97,5.31 2.17,-0.54 3.59,-1.98 4.38,-3.85 0.8,-1.9 1.25,-4.11 1.22,-6.81 -0.01,-1.39 0.29,-2.65 0.12,-3.72 -0.36,-2.32 0.46,-6.68 -2.1,-10.16 -2.01,-2.75 -4.5,-2.78 -7.46,-2.78 -5.04,0 -7.03,3.37 -7.03,8.43z"/>
    <path class="fil1" d="M173.12 313.55l0.05 0.06c0,-0 -0.08,-0.04 -0.05,-0.06zm-19.07 9.84c1.37,0.11 3.11,0.7 4.42,1l3.41 -13.65c0,5.01 0.2,9.39 0.2,14.45 0.43,0.21 3.58,1.01 4.22,1.01 0.47,0 1.46,-2.33 1.74,-2.88 0.34,-0.66 0.56,-0.94 0.87,-1.54 0.28,-0.53 0.52,-1.08 0.79,-1.61l3.42 -6.22c-0.15,1.79 -2.98,11.78 -3.02,13.24 1.24,0.29 3.31,1.01 4.62,1.01 0.34,-1.45 4.41,-17.81 4.41,-18.67 0,-0.52 -6.7,-1.81 -7.02,-1.81 -0.14,0.62 -0.36,0.98 -0.69,1.52l-2.39 4.63c-0.32,0.6 -0.49,0.77 -0.81,1.4 -0.31,0.62 -0.49,0.99 -0.8,1.61 -0.44,0.88 -1.08,2.6 -1.74,3.08l0 -14.05c-1.65,-0.04 -5.68,-1.48 -7.22,-1.61 -0.02,0.95 -1.89,8.28 -2.17,9.48l-1.73 7.11c-0.21,0.82 -0.51,1.64 -0.52,2.49z"/>
    <path class="fil1" d="M250.8 305.32zm7.83 -0.4l-7.83 0.4zm7.83 -0.4zm0 0zm0 0c-0.69,-0.18 -2.19,-1.24 -2.93,-1.69l-8.52 -5.34c-1.27,0.85 -3.01,1.67 -4.41,2.41l9.23 17.27c1,-0.53 3.07,-1.79 4.02,-2.01 -0.09,-1.05 -3.26,-6.3 -3.88,-7.56 -0.46,-0.94 -1.11,-1.67 -1.34,-2.68 2.16,0.5 10.37,6.86 11.75,6.55 0.18,-0.04 3.47,-1.69 3.91,-2.33 -0.16,-0.7 -0.71,-1.39 -1.08,-2.14l-6.83 -12.65c-0.36,-0.71 -0.99,-1.64 -1.14,-2.28l-4.01 2c0.02,0.99 1.96,4.25 2.55,5.29 0.54,0.97 2.48,4.33 2.68,5.16z"/>
    <path class="fil1" d="M144.61 77.28c0.73,-0.06 1.8,-0.6 2.53,-0.89 0.66,-0.27 2.02,-0.92 2.7,-0.92 1.23,0 2.21,1.67 2.21,3.01 0,2.07 -5.44,3.4 -5.62,3.42l-1.81 -4.62zm-6.02 -1.61c0.14,1.71 6.9,16.53 7.03,18.07 1.65,-0.04 3.52,-1.5 4.82,-1.61 -0.12,-1.49 -2.29,-5.19 -2.41,-6.62 2.95,-1.41 2.67,-0.93 3.59,-0.18l4.53 3.73c0.76,0.59 0.73,0.36 1.78,-0.08 1.33,-0.55 2.79,-1.05 3.96,-1.67 -0.55,-0.75 -6.14,-4.6 -6.83,-5.62 1.38,-2.07 1.81,-1.23 1.81,-4.82 0,-2.22 -2.25,-5.62 -5.62,-5.62 -3.37,0 -10.07,3.82 -12.65,4.41z"/>
    <path class="fil1" d="M281.52 115.02c0.54,-0.81 1.22,-1.11 1.95,-1.86 0.73,-0.74 1.28,-1.07 2.01,-1.81l4.06 -3.56c0.18,0.13 1.71,1.8 1.93,2.09 0.42,0.56 1.28,1.92 1.28,2.72 0,2.59 -4.48,8.23 -8.64,5.23 -0.51,-0.37 -0.91,-0.76 -1.34,-1.27l-1.26 -1.54zm-6.62 -1.01c0.2,0.74 4.26,4.81 5.04,5.79 7.09,8.93 17.64,0.15 17.64,-6.19 0,-3.34 -2.32,-6.17 -4.47,-8.38 -0.53,-0.55 -0.65,-0.86 -1.2,-1.42 -0.9,-0.89 -1.57,-1.99 -2.56,-2.66l-9.09 7.98c-0.32,0.31 -0.47,0.51 -0.81,0.8l-4.56 4.07z"/>
    <path class="fil1" d="M134.78 309.94c-2.26,0 -4.62,-2.11 -4.62,-3.81 0,-2.43 0.19,-3.48 1.89,-5.75 3.44,-4.58 8.55,-1.31 8.55,1.93 0,2.28 -0.42,3.47 -1.89,5.34 -0.77,0.99 -2.31,2.29 -3.93,2.29zm-9.44 -6.22c0,3.63 0.4,5.42 2.96,7.88 2.91,2.81 7.34,3.65 11.23,1.69 3.11,-1.56 5.88,-5.28 5.88,-9.17 0,-3.41 -0.41,-5.32 -3.06,-7.78 -3.92,-3.65 -9.67,-3.64 -13.86,0.5 -0.92,0.91 -1.49,1.73 -2.1,2.93 -0.41,0.81 -1.07,2.83 -1.07,3.95z"/>
    <path class="fil1" d="M254.22 98.56c0.99,0.26 11.55,8.13 12.65,8.43 0.24,-0.91 1.52,-2.29 2,-3.21l-6.1 -4.34c-0.79,-0.53 -1.42,-1.01 -2.13,-1.48 0.61,-1.15 1.49,-2.34 2.21,-3.42 1.18,0.28 5.81,3.96 7.42,4.82 0.69,-1.29 1.54,-2.15 2.21,-3.41l-7.23 -4.82c0.41,-0.62 1.43,-1.93 1.61,-2.61 0.91,0.07 1.39,0.72 2.04,1.16 1.34,0.92 5.24,3.78 6.18,3.86 0.25,-0.91 1.52,-2.28 2.01,-3.21 -1.9,-1 -11.07,-7.76 -12.04,-8.03l-8.23 12.04c-0.54,0.82 -2.54,3.43 -2.61,4.22z"/>
    <path class="fil1" d="M112.49 92.13l8.46 11.82c0.52,0.69 0.91,1.27 1.43,1.98 0.4,0.53 1.21,1.52 1.35,2.06 0.96,-0.23 12.25,-8.57 12.44,-8.84 -0.32,-1.18 -1.74,-2.23 -2,-3.21 -1.26,0.34 -7.4,5.53 -8.63,5.82 -0.18,-0.68 -0.12,-0.34 -0.51,-0.89 -0.25,-0.36 -0.32,-0.47 -0.58,-0.82 -0.25,-0.35 -0.34,-0.43 -0.61,-0.79 -0.47,-0.62 -0.44,-0.29 -0.5,-1.1 0.64,-0.17 2.69,-1.77 3.36,-2.26 0.74,-0.55 2.73,-2.16 3.47,-2.35 -0.07,-0.85 -1.54,-2.92 -2.21,-3.41 -1.65,0.87 -5.6,4.16 -7.23,5.01 -0.31,-1.16 -1.32,-1.56 -1.6,-2.81l7.42 -5.22c-0.41,-0.78 -1.73,-2.75 -2.41,-3.21 -1.12,0.59 -1.81,1.26 -2.85,1.96 -1.03,0.7 -1.92,1.35 -2.91,2.11l-5.88 4.16z"/>
    <path class="fil1" d="M198.81 319.57l-3.01 0 0 -5.62c1.73,-0.4 6.83,-0.84 6.83,2.21 0,2.36 -0.77,3.41 -3.82,3.41zm-6.22 -9.43l-2.01 0c0,1 0.2,1.11 0.21,2.2l0 7.42c0.25,3.02 0.19,6.52 0.19,9.85l5.22 0c0,-2.29 -0.2,-3.87 -0.2,-6.22 4.34,0 11.64,-0.06 11.64,-6.22 0,-3.46 -0.62,-6.27 -4.84,-7 -1.39,-0.24 -3.3,-0.38 -4.97,-0.19 -1.61,0.18 -3.36,0.17 -5.25,0.17z"/>
    <path class="fil1" d="M224.91 319.37l0.4 -7.63c0.43,0.32 3.94,5.74 4.02,6.62 -1.12,0.02 -3.03,0.89 -4.42,1zm-3.4 -12.2c-0.01,4.41 -2.02,16.63 -2.02,20.63l5.21 -1.25c0.08,-3.49 -0.48,-3.06 2.1,-3.69 5.46,-1.34 4.56,-1.62 5.58,0.08 0.29,0.48 0.62,0.91 0.76,1.45 1.3,-0.3 3.97,-1.17 5.22,-1.2 -0.08,-0.97 -2.21,-3.68 -2.78,-4.44l-8.87 -12.82 -5.21 1.25z"/>
    <path class="fil1" d="M93.02 113.41c0,2.21 -0.07,3.62 1.16,5.66 0.61,1.01 1.43,2.18 2.31,2.91 4.36,3.63 9.8,4.42 14.08,0.14 2.4,-2.4 2.53,-3.95 2.53,-7.1 0,-0.81 -0.35,-2.29 -0.6,-2.81 -0.66,0.15 -1.44,0.54 -2.01,0.8 -0.54,0.24 -1.45,0.68 -2,0.8 0.02,0.98 1.31,3.85 -1.64,5.79 -3.94,2.61 -9.35,-2.7 -9.36,-5.79 -0,-1.95 1.82,-4.22 4.58,-4.22 0.69,0 0.77,0.15 1.4,0.2 0.26,-0.54 1.01,-3.58 1.01,-4.42 -3.18,-0.32 -5.9,-0.39 -8.59,2.25 -1.21,1.2 -2.85,3.47 -2.85,5.78z"/>
    <path class="fil1" d="M101.45 286.25c0,3.2 0.18,5.16 2.85,7.78 3.75,3.67 7.47,2.09 9.39,2.05 -0.11,-1.42 -1.08,-2.81 -1.4,-4.22 -0.88,0.02 -0.76,0.2 -2.21,0.2 -3.56,0 -6.06,-4.67 -1.85,-8.88 4.4,-4.4 8.68,-1.37 8.68,2.05 0,0.5 -0.29,1.32 -0.4,1.81 0.69,0.33 3.59,1.2 4.41,1.2l0.2 -3.82c0,-3.79 -4.31,-8.03 -8.03,-8.03l-1.6 0c-4.78,0 -10.03,5.17 -10.03,9.83z"/>
    <path class="fil1" d="M213.67 83.7c1.27,0.3 3.64,1 5.02,1l1.6 -7.42c1.29,0.1 3.26,0.7 4.46,0.95l4.57 0.85 0.8 -3.82c-1.39,-0.03 -7.27,-1.81 -9.04,-1.81 0.23,-0.96 0.78,-2.81 0.8,-3.82 2.46,0.21 7.76,1.96 9.84,2.01 0.09,-1.15 0.55,-2.74 0.8,-3.82 -1,-0.08 -2.62,-0.58 -3.63,-0.78l-11.02 -2.42c-1.48,6.32 -2.75,12.76 -4.22,19.07z"/>
    <path class="fil1" d="M277.3 285.04l-6.91 -1.94c-1.18,-0.15 -2.11,1.44 -3.76,2.71 -0.46,0.36 -0.8,0.61 -0.97,1.24 0.77,0.02 2.18,0.4 2.85,0.56l8.58 1.86c1.49,0.31 1.15,0.5 1.97,1.45l5.07 5.37 3.61 -3.21c-0.19,-0.69 -0.17,-0.46 -0.65,-0.96l-4.75 -5.29c-0.94,-1.14 -0.74,-1.61 -1.01,-4.01 -0.3,-2.6 -1.02,-7.09 -1.02,-9.22 -0.55,0.14 -4.31,3.4 -4.4,4.22 -0.05,0.48 1.19,6.38 1.38,7.22z"/>
    <path class="fil1" d="M167.5 65.84c0,0.61 0.43,3.47 0.6,3.81 0.28,0.13 -0.05,0.05 0.33,0.04 0.02,0 0.58,-0.05 0.63,-0.06 1.06,-0.16 2.94,-0.59 4.06,-0.59 0,1.24 2.22,14.46 2.4,15.26 1.04,0 2.1,-0.3 3.15,-0.46 1.75,-0.27 1.96,0.33 1.62,-1.48 -0.37,-1.95 -0.68,-4.13 -1.02,-6.23 -0.33,-1.97 -0.58,-4.18 -0.98,-6.26 -0.34,-1.79 -0.51,-1.71 1.32,-1.95 1.14,-0.15 2.37,-0.46 3.33,-0.48l-0.47 -3.54c-0.2,-0.58 -0.19,-0.38 -0.74,-0.33 -2.33,0.2 -12.65,2.23 -14.24,2.27z"/>
    <path class="fil1" d="M147.02 248.11c0,1.72 0.37,4.44 0.88,5.75 1.73,4.43 6.91,4.63 8.05,-2.44 0.52,-3.22 0.47,-10.33 -2.9,-11.74 -1.29,-0.54 -2.7,-0.31 -3.68,0.56 -0.97,0.86 -1.45,1.75 -1.8,3.22 -0.27,1.12 -0.55,3.22 -0.55,4.66z"/>
    <path class="fil1" d="M219.69 246.1c0,3.42 -0.46,10.84 4.62,10.84 1.86,0 2.96,-1.66 3.53,-3.09 1.39,-3.46 1.57,-13.31 -2.78,-14.34 -3.9,-0.92 -5.38,3.65 -5.38,6.59z"/>
    <path class="fil1" d="M163.28 246.5c0,3.45 -0.32,10.43 4.62,10.43 1.85,0 2.96,-1.66 3.53,-3.09 1.39,-3.47 1.66,-13.5 -2.94,-14.37 -3.65,-0.7 -5.21,3.38 -5.21,7.03z"/>
    <path class="fil1" d="M183.36 224.02c0.39,0.53 0.5,0.41 1.24,0.56 3.55,0.7 7.83,1.25 11.4,1.25 2.54,0 10.14,-0.69 11.64,-1.41 -0.73,-0.99 -3.52,-2.71 -4.93,-3.3 -11.45,-4.74 -18.33,2.62 -19.36,2.9z"/>
    <path class="fil1" d="M196.61 124.85l0 11.24c4.08,0 8.3,-0.63 11.64,-1.41 -0.15,-1.81 -5.98,-9.92 -6.22,-10.84 -0.9,0.02 -1.75,0.41 -2.63,0.59 -0.8,0.16 -1.91,0.41 -2.79,0.41z"/>
    <path class="fil1" d="M171.11 131.28l4.49 1.73c1.37,0.46 3.34,1.28 4.94,1.28 0.49,-2.1 5.5,-9.29 6.42,-11.04 -1.44,-0.77 -2.5,-1.33 -3.81,-2.21 -2.23,1.5 -6.04,4.1 -7.88,5.97 -1.31,1.33 -3.2,2.44 -4.16,4.27z"/>
    <path class="fil1" d="M183.36 118.03c0.33,1.24 3.38,2.69 4.47,3.15 4.56,1.94 10.19,2.08 14.67,-0.07 1.51,-0.73 3.93,-2.06 4.75,-3.28 -6.23,-1.45 -11.48,-1.38 -17.85,-0.78l-6.04 0.99z"/>
    <path class="fil1" d="M238.56 90.93c1.62,0.38 3.07,1.45 4.62,1.81l1.95 -4.47c0.82,-1.93 5.59,-12.49 5.68,-13.59 -0.66,-0.05 -1.7,-0.59 -2.34,-0.87 -0.65,-0.29 -1.67,-0.79 -2.28,-0.93 -0.14,0.61 -0.65,1.63 -0.94,2.28 -0.88,1.98 -6.63,15.09 -6.69,15.79z"/>
    <path class="fil1" d="M182.55 134.89c4.05,0.94 7.18,1.2 11.64,1.2l0 -11.24c-2.21,0 -3.27,-0.39 -5.01,-0.8 -0.28,0.41 -0.53,0.69 -0.84,1.16l-2.61 4.02c-1.14,1.89 -2.15,3.72 -3.17,5.66z"/>
    <path class="fil1" d="M196.4 82.5l5.02 0.2c0,-3.6 0.2,-6.56 0.2,-10.04l0.2 -7.63c0.03,-2.46 0.73,-2 -5.02,-2 0,6.59 -0.4,12.83 -0.4,19.47z"/>
    <path class="fil1" d="M196.61 217.4c2,0 3.6,0.63 5.22,1 2.77,-4.14 4.06,-6.17 6.42,-10.64 -1.95,-0.45 -6.36,-1.19 -8.42,-1.21 -1.32,-0.01 -2.21,-0.19 -3.22,-0.19l0 11.04z"/>
    <path class="fil1" d="M204.03 219.4c1.02,0.24 2.58,1.45 3.42,2.01 1.36,-0.32 5.25,-3.55 6.51,-4.53 1.05,-0.81 5.26,-4.49 5.53,-5.51 -0.63,-0.14 -1.45,-0.58 -2.15,-0.86 -0.82,-0.33 -1.3,-0.53 -2.19,-0.82 -1.31,-0.43 -3.44,-1.33 -4.9,-1.33 -0.24,1.02 -0.93,2 -1.4,2.82 -1.53,2.64 -2.26,4.05 -4.11,6.73 -0.38,0.55 -0.66,0.77 -0.72,1.49z"/>
    <path class="fil1" d="M182.75 207.76c0.08,1.01 0.89,1.99 1.34,2.88 0.49,0.98 0.99,1.72 1.56,2.66l3.32 5.1c1.62,-0.38 3.22,-1 5.22,-1l0 -10.84c-3.75,0 -5.52,0.19 -9.06,0.77 -0.85,0.14 -1.61,0.37 -2.38,0.43z"/>
    <path class="fil1" d="M204.03 122.64c0.07,0.87 4.13,6.86 4.89,8.36 0.5,0.99 1.29,2.03 1.54,3.08 1.08,-0.09 3.5,-1.07 4.59,-1.43 0.73,-0.24 1.41,-0.51 2.17,-0.84 0.64,-0.29 1.67,-0.79 2.28,-0.94 -1.85,-2.76 -8.35,-7.57 -11.04,-9.44 -2.04,-1.42 -1.69,0.58 -4.42,1.21z"/>
    <path class="fil1" d="M171.51 211.57c0.98,1.46 1.4,1.49 2.56,2.66 2.64,2.67 6.02,5.13 9.08,7.18 1.03,-0.55 2.49,-1.74 3.61,-2.01 -0.06,-0.71 -0.91,-1.75 -1.53,-2.69l-3.23 -5.4c-0.52,-0.95 -1.21,-1.86 -1.47,-2.95 -1.15,0.09 -3.59,1.03 -4.64,1.38 -1.51,0.5 -3.1,1.15 -4.39,1.83z"/>
    <path class="fil1" d="M131.16 243.7c0,3.13 0.23,5.82 4.62,5.82 4.09,0 4.98,-5.72 3.02,-8.44 -0.76,-1.04 -1.3,-1.47 -2.96,-1.66 -2.73,-0.32 -4.68,1.95 -4.68,4.28z"/>
    <path class="fil1" d="M209.45 223.02l0.64 0.77c1.25,-0.08 3.52,-0.99 4.76,-1.4 2.9,-0.97 5.8,-2.57 8.46,-3.99l3.81 -2.41c-0.44,-0.61 -4.52,-3.2 -5.42,-3.41l-12.24 10.44z"/>
    <path class="fil1" d="M209.02 119.2c2.31,1.55 6.12,4.28 8.12,6.2 0.53,0.52 0.83,0.91 1.44,1.38 0.68,0.52 0.88,0.76 1.47,1.34 0.43,0.43 1.13,1.32 1.46,1.55 0.94,-0.22 4.76,-2.73 5.22,-3.41 -1.32,-1.81 -13.88,-7.57 -17.06,-7.83l-0.64 0.77z"/>
    <path class="fil1" d="M164.08 127.06c0.36,0.54 3.9,2.98 5.22,3.01 0.21,-0.77 2.01,-2.31 2.67,-2.96 2.34,-2.36 6.62,-5.63 9.38,-7.48l-0.64 -0.77c-3.48,0.76 -10.04,3.72 -12.98,5.63 -0.91,0.59 -3.12,1.85 -3.65,2.57z"/>
    <path class="fil1" d="M164.49 215.79c5.31,3.56 8.37,5.19 14.58,7.31 1.24,0.42 1.34,0.76 2.29,0.12 -0.22,-0.8 -0.83,-0.93 -1.44,-1.38 -0.57,-0.42 -1.05,-0.73 -1.63,-1.17l-7.52 -6.53c-0.43,-0.43 -1.12,-1.31 -1.46,-1.55 -1,0.53 -4.31,2.45 -4.81,3.21z"/>
   </g>
  </g>
 </g>
</svg>
