<?xml version="1.0" encoding="UTF-8"?>
<!DOCTYPE svg PUBLIC "-//W3C//DTD SVG 1.1//EN" "http://www.w3.org/Graphics/SVG/1.1/DTD/svg11.dtd">
<!-- Creator: CorelDRAW -->
<svg xmlns="http://www.w3.org/2000/svg" xml:space="preserve" width="7.9368mm" height="7.9368mm" version="1.1" style="shape-rendering:geometricPrecision; text-rendering:geometricPrecision; image-rendering:optimizeQuality; fill-rule:evenodd; clip-rule:evenodd"
viewBox="0 0 648.66 648.66"
 xmlns:xlink="http://www.w3.org/1999/xlink"
 xmlns:xodm="http://www.corel.com/coreldraw/odm/2003">
 <defs>
  <style type="text/css">
   <![CDATA[
    .fil0 {fill:none}
    .fil1 {fill:#FFF5EF}
   ]]>
  </style>
 </defs>
 <g id="Capa_x0020_1">
  <metadata id="CorelCorpID_0Corel-Layer"/>
  <g id="_2503191530288">
   <circle class="fil0" cx="324.33" cy="324.33" r="324.33"/>
   <g>
    <path class="fil1" d="M219.64 250.28c0,6.54 1.36,13.94 2.99,18.83 2.04,6.12 5.07,11.07 9.21,15.33 0.65,0.67 0.65,0.83 1.22,1.5 0.99,1.19 1.82,1.54 2.87,2.58l4.44 3.74c11.72,8.78 25.61,13.43 39.53,17.74 7.86,2.44 18.32,4.61 25.75,6.97 4.23,1.34 13.37,3.99 13.37,9.66 0,5.93 -16.16,5.75 -20,5.75 -18.37,0 -34.69,-5.61 -45.8,-20.55 -1.84,-2.48 -2.81,-5.8 -3.89,-5.8l-29.99 0 0 58.48 34.84 0 0 -11.52 11.16 5.5c20.01,8.05 43.91,11.24 65.56,5.78 7.25,-1.83 8.5,-2.41 14.58,-5.42 12.67,-6.26 22.02,-19.99 22.02,-38.28 0,-11.61 -6.55,-24.99 -11.56,-31.77 -0.83,-1.14 -1.44,-2.03 -2.33,-3.12 -11.37,-13.94 -23.15,-16.71 -39.25,-20.73 -8.91,-2.23 -27.01,-6.13 -34.6,-9.04 -4.32,-1.66 -11.64,-4.7 -11.64,-10.18 0,-2.8 0.8,-4.14 2.81,-5.06 6.51,-2.98 20.9,-0.55 26.95,0.74 10.18,2.17 21.63,6.17 27.62,14.79 0.89,1.29 2.54,4.03 2.91,5.58l34.54 0 0 -54.23 -36.06 0 0 10c-12.11,-8.11 -34.21,-15.45 -49.99,-15.45 -17.5,0 -30.11,4.67 -41.04,12.9 -2.48,1.86 -4.71,3.82 -6.54,6.19 -0.9,1.15 -1.92,2.42 -2.71,3.65 -4.5,7 -6.99,16.85 -6.99,25.43z"/>
    <path class="fil1" d="M430.54 283.61c0,-18.51 -2.07,-40.59 22.72,-40.59 6.73,0 9.82,-0.16 15.96,3.12 14.49,7.72 12.52,32.51 12.52,47.78 0,11.81 -2.53,25.75 -11.88,31.76 -7.55,4.85 -20.61,4.58 -27.91,-0.76 -1.79,-1.32 -2.98,-2.68 -4.33,-4.46 -6.23,-8.23 -7.09,-24.71 -7.09,-36.84zm-59.09 -1.81c0,17.32 2.58,31.22 9.49,45.05l2.75 4.52c0.43,0.65 0.64,1.1 1.05,1.68 1.42,2.04 2.71,3.79 4.19,5.79 0.73,0.96 1.5,2.02 2.29,2.87 5.65,6.06 11.46,12.01 19.21,15.94 20.45,10.38 35.54,9.29 58.89,9.29 47.57,0 70.9,-42.52 70.9,-85.45 0,-18.55 -6.45,-35.42 -17.09,-48.96 -0.47,-0.6 -0.69,-0.76 -1.13,-1.29 -2.36,-2.92 -5.37,-6.05 -8.23,-8.44 -13.95,-11.68 -30.08,-17.66 -48.69,-17.66 -20.3,0 -31.78,-1.27 -50.56,6.41 -4.14,1.69 -8.38,4.31 -11.99,6.8 -7.11,4.92 -13.89,12.02 -18.37,19.5 -6.5,10.85 -12.71,30.01 -12.71,43.95z"/>
    <path class="fil1" d="M108.45 206.05l0 38.79 22.12 0 0 79.99 -21.21 0c-0.7,0 -0.91,0.21 -0.91,0.92l0 38.78 101.51 0 0 -39.7 -21.82 0 0 -79.99 21.82 0 0 -39.7 -100.6 0c-0.7,0 -0.91,0.21 -0.91,0.91z"/>
    <path class="fil1" d="M319.63 437.84c9.76,0 17.02,0.48 25.87,4.74 3.62,1.75 12.73,6.81 14.74,9.81 -1.15,0.56 -6.25,1.29 -8.09,1.59 -2.78,0.47 -5.62,0.83 -8.82,1.19 -20.41,2.3 -38.53,1.06 -57.63,-3.39 8.88,-7.72 21.66,-13.93 33.93,-13.93zm49.69 12.42c-0.69,-1.04 -1.5,-1.23 -1.81,-2.43 1.57,-0.42 8.58,-5.75 10.26,-7.01 6.53,-4.9 23.68,-19.22 27.62,-25.1 1.19,0.27 3.24,1.54 4.42,2.25l4.16 2.5c1.55,0.92 6.97,4.34 7.78,5.55 -1.21,0.33 -4.48,2.85 -5.77,3.62 -14.59,8.71 -22.83,12.93 -39.19,18.39 -2.39,0.79 -5.05,1.67 -7.46,2.23zm-143.32 -25.45l10.78 -6.8c0.97,-0.59 2.94,-1.9 4.07,-1.99 0.4,1.5 9.18,9.51 10.67,10.83 1.82,1.6 2.99,3.06 5.57,5.05 3.51,2.73 6.25,5.39 10.85,8.83 3.45,2.57 6.65,4.74 10.18,7.09 -1.59,2.38 -1.68,1.7 -8.75,-0.64 -12.37,-4.1 -27.15,-11.25 -37.91,-18.45 -1.23,-0.82 -4.78,-2.94 -5.46,-3.94zm22.12 -12.73l6.45 -2.64c4.25,-1.69 17.33,-6.76 20.82,-6.76 0.23,1.01 0.47,1.27 0.96,2.07l3.47 6.52c2.7,5.32 10.58,17.96 13.92,22.74 0.65,0.94 0.81,1 1.33,2 -5.8,3.06 -5.21,2.75 -10.6,6.36 -1.9,-1.01 -3.22,-1.94 -5.03,-3.15 -0.99,-0.66 -1.52,-1.13 -2.48,-1.77 -0.96,-0.64 -1.63,-1.1 -2.49,-1.75 -4.23,-3.19 -9.81,-7.49 -13.71,-11.14 -0.86,-0.8 -1.39,-1.06 -2.28,-1.96 -0.91,-0.93 -1.23,-1.21 -2.24,-2.01 -1.4,-1.12 -7.14,-6.64 -8.13,-8.52zm113.02 30.6l-5.25 -3.54c-1.99,-1.18 -3.66,-2.06 -5.66,-3.12 1.1,-2.08 3.6,-5.29 5.28,-8.06l15.02 -25.58c3.73,0 23.11,7.34 27.58,9.7 -0.88,1.32 -6.87,7.16 -8.36,8.3l-8.99 7.98c-3.47,3.08 -10.54,8.2 -14.47,10.98 -1.66,1.18 -3.46,2.2 -5.15,3.33zm-77.87 -42.11c6.12,-1.43 23.43,-4 30.6,-3.93 2.13,0.02 2.88,-0.31 4.85,-0.31l0 33.63c-4.02,0 -13.44,1.77 -16.06,3.03 -0.5,-0.94 -0.65,-1.04 -1.21,-1.82 -0.48,-0.67 -0.79,-1.23 -1.34,-1.99 -2.58,-3.56 -10.27,-15.85 -12.4,-20.03 -1.81,-3.57 -2.59,-4.44 -4.44,-8.58zm59.38 32.42c-2.74,-1.32 -12.88,-3.03 -16.06,-3.03l0 -33.63c9.29,0 22.07,1.41 31.38,3.15 1.4,0.26 3.18,0.68 4.37,0.78 -0.81,3.46 -15.27,26.14 -17.02,28.73 -0.65,0.95 -2.44,3.09 -2.67,4zm-21.81 31.2c11.52,0 22.62,-0.62 33.33,-2.42 9.97,-1.67 19.4,-4.03 28.44,-7.31 11.69,-4.23 24.06,-9.28 34.46,-16.14 10.87,-7.17 14.13,-9.1 24.88,-18.14l3.81 -3.47c0.63,-0.64 1.14,-1.23 1.83,-1.81 2.84,-2.38 4.63,-4.58 7.09,-7.13 0.66,-0.69 1.16,-1.14 1.83,-1.81 0.83,-0.83 0.96,-1.11 1.68,-1.96 0.66,-0.79 1.1,-1.09 1.72,-1.91l6.55 -8c1.82,-2.45 8.27,-10.52 8.91,-12.9l-9.39 0 -13.71 17.51c-0.54,0.6 -0.53,0.74 -1.07,1.36 -0.77,0.88 -1.59,1.57 -2.43,2.42 -0.89,0.9 -1.19,1.51 -2.11,2.44l-10 9.38c-1.88,1.67 -6.86,5.09 -7.95,6.6l-17.57 -11.21c2.55,-3.82 7.49,-9.22 10.6,-13.64 0.86,-1.21 1.61,-2.29 2.48,-3.57 0.88,-1.31 1.61,-2.16 2.46,-3.6 1.59,-2.69 3.32,-4.96 4.75,-7.67l-9.39 0c-2.09,3.96 -15.25,22.39 -18.18,24.54 -1.15,-0.27 -2.36,-0.91 -3.44,-1.41 -4.61,-2.16 -21.47,-8.79 -26.25,-9.19 0.14,-1.68 2.17,-5.05 2.9,-6.79 0.6,-1.46 2.75,-5.96 2.85,-7.15l-8.48 0c-0.5,2.13 -1.7,3.87 -2.55,5.93 -0.83,2.02 -2.11,3.78 -2.6,5.88 -12.76,-2.97 -26.05,-4.54 -39.7,-4.54l0 -7.27 -7.88 0 0 7.27c-7.24,0 -14.16,0.74 -20.63,1.49 -2.87,0.34 -16.12,2.1 -18.76,3.36 -0.47,-1.98 -1.78,-4.04 -2.63,-5.85 -0.56,-1.19 -2.44,-5.21 -2.53,-6.27l-8.79 0c1.63,3.4 2.87,7.22 4.54,10.61 0.64,1.27 1.16,2.06 1.52,3.64 -2.5,0.2 -5.23,1.39 -7.54,2.16 -5.97,1.99 -12.27,4.13 -17.91,6.93 -0.78,0.39 -2.79,1.32 -3.65,1.51 -2.33,-1.56 -8.02,-9.58 -9.69,-11.82 -1.3,-1.72 -8.23,-10.95 -8.79,-13.03l-9.4 0c1.4,2.63 2.97,5.05 4.61,7.52 4.12,6.17 8.5,11.99 13.1,17.81 0.9,1.14 2.18,2.39 2.89,3.46 -4.92,2.61 -9.44,5.55 -13.93,8.79 -0.73,0.52 -1.08,0.96 -2.12,1.21 -3.55,-2.38 -6.68,-5.95 -10,-8.48 -3.65,-2.79 -11.29,-11.32 -14.92,-15.38 -2.66,-2.99 -4.91,-6.11 -7.33,-9.33 -1.13,-1.51 -3.34,-3.85 -3.81,-5.59l-9.7 0c3.15,5.94 12.2,17.65 16.89,22.51 0.69,0.72 1.14,1.04 1.77,1.86 3.02,3.91 7.16,7.34 10.66,10.85 0.81,0.82 1.18,0.96 1.97,1.67 13.08,11.55 27.4,21.4 43.15,28.96 0.94,0.45 1.69,0.69 2.53,1.1 6.64,3.31 13.64,5.62 20.78,8 15.13,5.03 33.76,8.06 49.81,8.06z"/>
    <path class="fil1" d="M303.27 136.97c2.4,0.56 4.79,1.28 7.36,1.73 2.5,0.44 5.57,0.78 8.1,0.99l0 34.55c-1.77,0 -2.51,-0.33 -4.54,-0.31 -1.57,0.01 -3.24,0.1 -4.72,-0.12 -1.4,-0.21 -3.32,-0.25 -4.46,-0.39 -4.95,-0.65 -7.05,-0.51 -13.29,-1.56 -2.94,-0.49 -5.72,-0.92 -8.43,-1.56 0.51,-2.23 3.43,-6.64 4.54,-8.78 1.45,-2.83 3.2,-5.73 4.9,-8.43 0.9,-1.42 1.64,-2.67 2.54,-4.13l8 -11.99zm23.33 36.96l0 -34.54c4.23,0 13.25,-1.98 16.06,-3.33 0.99,1.86 4.03,5.81 5.39,7.94 1.79,2.78 3.4,5.34 5.12,8.21 1.58,2.65 9.33,15.47 9.49,17.47 -1.28,0.03 -2.77,0.47 -4.12,0.74 -1.61,0.32 -2.72,0.56 -4.32,0.83l-13.08 1.78c-1.35,0.08 -3.27,0.19 -4.76,0.38 -2.71,0.36 -6.6,0.51 -9.78,0.51zm-51.51 -5.45c-3.97,-0.33 -20.6,-6.49 -24.76,-8.26 -1.09,-0.47 -2.44,-1.21 -3.42,-1.43 1.87,-2.8 15,-14.54 17.51,-16.74 7.23,-6.31 12.37,-9.52 19.75,-14.47 2.39,1.6 8.52,5.74 11.21,6.37 -0.33,1.41 -1.72,2.93 -2.54,4.12l-17.76 30.42zm75.15 -35.76c1.14,-0.26 4.12,-2.04 5.15,-2.72l4.85 -3.33c0.88,0.59 1.64,0.99 2.61,1.63l12.41 8.8c4.66,3.5 19.9,16.51 22.55,20.47 -0.79,0.18 -2.37,0.91 -3.23,1.31 -3.88,1.81 -20.24,8.39 -24.04,8.39l-12.19 -21.76 -7.58 -11.5c-0.42,-0.7 -0.29,-0.74 -0.53,-1.29zm-110.59 22.43c-2.33,-0.54 -13.45,-7.95 -15.15,-9.09 1.83,-2.5 18.76,-12.1 23.83,-14.65 1.13,-0.56 2.1,-0.89 3.14,-1.41 5.17,-2.54 11.7,-5.18 17.15,-7.09l7.4 -2.3 1.89 1.74c-3.53,1.05 -23.06,17.11 -27.26,21.36 -2.35,2.37 -9.92,9.43 -10.98,11.44zm128.71 -35.82l14.61 4.62 13.51 5.57c4.93,2.04 13.73,7.17 18.43,10.05 2.08,1.27 3.92,2.7 5.93,3.76 -0.93,1.27 -9.07,6.5 -11.27,7.82 -1.41,0.85 -2.89,1.61 -4.18,2.48l-23.12 -21.12c-5.37,-4.34 -9.92,-7.46 -15.66,-11.31l1.75 -1.88zm-46.59 12.49c-10.99,0 -20.69,-3.17 -29.07,-8.2 -1.77,-1.05 -6.28,-3.92 -7.29,-5.43 1.9,-0.92 14.27,-2.75 17.14,-3.16 14.92,-2.17 33.84,-1.78 48.66,0.69l7.83 1.26c-0.42,1.6 -5.79,4.99 -7.15,5.88 -2.76,1.81 -5.34,3.13 -8.52,4.5 -5.69,2.46 -13.59,4.46 -21.59,4.46zm-148.17 56.66l9.39 0c3.6,-5.38 7.58,-10.33 11.73,-15.24l8.49 -9.37c1.64,-1.63 3.09,-2.77 4.7,-4.4 2.29,-2.3 4.79,-4.21 7.27,-6.37 0.92,-0.79 1.74,-1.26 2.36,-2.18 5.29,3.55 10.67,7.29 16.35,10.3l-5.08 6.44c-3.07,3.73 -13.26,17.6 -14.01,20.83l9.09 0c2.71,-5.12 6.92,-10.35 10.43,-15.01 2.2,-2.93 4.81,-5.58 6.84,-8.62 1.12,0.6 2.3,1.02 3.54,1.62 1.22,0.59 2.31,1.03 3.6,1.54 2.62,1.05 4.87,1.94 7.44,2.86 4.91,1.77 10.4,3.65 15.72,4.89 -0.96,1.83 -5.31,11.08 -5.45,12.73l8.48 0c0.25,-1.06 0.65,-1.5 1.09,-2.55l3.77 -8.06c2.74,0 6.47,1.14 9.3,1.61 9.98,1.66 19.6,2.64 30.08,2.64l0 6.36 7.88 0c0,-6.95 -1.42,-6.69 4.55,-6.66 4.98,0.02 10.99,-0.78 15.84,-1.43l14.83 -2.44c1.63,-0.32 3.21,-0.86 4.77,-0.99l3.93 8.49c0.35,0.77 1.04,2.24 1.22,3.02l8.48 0c-0.1,-1.23 -2.19,-5.51 -2.77,-6.92 -0.72,-1.77 -2.84,-5.29 -2.98,-7.01 2.99,-0.25 12.18,-3.8 14.85,-4.85 4.6,-1.81 9.57,-3.75 13.93,-6.06 3.86,2.59 16.55,21.51 18.78,24.85l9.1 0c-0.83,-3.54 -14.8,-21.94 -17.67,-25.36l-2.94 -3.42c8.7,-4.6 10.53,-6.9 16.97,-11.2 1.75,0.46 8.89,6.75 10.83,8.55 3.49,3.23 6.63,6.36 10,9.7 3.32,3.28 16.64,19.12 17.34,21.74l9.69 0c-5.21,-7.78 -9.18,-12.96 -15.1,-20.34 -5.23,-6.51 -11.78,-12.23 -17.85,-17.91 -4.31,-4.03 -9.06,-7.52 -13.79,-11.06 -20.17,-15.1 -47.6,-26.56 -72.6,-30.72 -21.78,-3.63 -41.08,-3.71 -62.89,-0.09 -4.18,0.69 -8.05,1.56 -11.74,2.49 -7.51,1.87 -14.5,4 -21.63,6.85 -1.75,0.71 -3.34,1.29 -4.97,2l-23.63 12.13c-2.88,1.73 -5.78,3.65 -8.61,5.61 -5.54,3.84 -10.99,8.02 -16.01,12.48 -5.33,4.73 -9.33,8.94 -14.41,14.08 -0.74,0.75 -0.85,1.08 -1.5,1.81 -7.35,8.31 -7.79,9.43 -14.27,18.16 -0.77,1.03 -2.48,3.24 -2.77,4.5z"/>
    <path class="fil1" d="M315.7 511.77c0,-6.12 -0.18,-12.02 1.69,-17.69 1.07,-3.22 2.89,-6.85 7.09,-6.85 9.97,0 8.48,19.73 8.48,26.67 0,5.88 -1.19,18.23 -9.53,16.82 -7.31,-1.24 -7.74,-12.69 -7.74,-18.94zm-14.55 -5.75c0,9.82 0.25,19.46 5.45,27.27 4.85,7.31 10,9.69 19.39,9.69 11.53,0 18.38,-10.58 20.59,-21.23 3.47,-16.84 0.52,-46.64 -20.89,-46.64 -8.77,0 -14.06,2.48 -18.97,9.82 -3.17,4.73 -5.57,13.27 -5.57,21.09z"/>
    <path class="fil1" d="M377.51 530.87c-9.43,0 -8.79,-16.97 -8.79,-23.64 0,-5.4 0.65,-16.22 5.76,-19.09 5.12,-2.88 8.95,1.09 10.37,6.6 1.19,4.64 0.93,6.44 1.14,10.37 0.07,1.4 0.31,1.88 0.32,3.63 0,5.62 -0.16,18.34 -5.66,21.33 -0.61,0.34 -2.37,0.79 -3.14,0.79zm-23.33 -24.24c0,9.47 0.59,19.14 5.21,26.31 3.28,5.08 8.7,10.05 16.91,10.05 7.47,0 9.69,-0.93 14.98,-5.03 1.79,-1.38 3.58,-3.94 4.7,-5.89 6.52,-11.34 6.42,-34.78 0.11,-46.14 -3.05,-5.5 -8.98,-10.81 -17.37,-10.81 -5.24,0 -8.25,0.37 -12.73,3.33 -8.23,5.43 -11.82,17.4 -11.82,28.18z"/>
    <path class="fil1" d="M195.71 494.51l0 0.91c1.41,0 1.96,0.25 3.64,0.3 3.15,0.11 8.47,0.91 11.52,0.91 0,-3.16 0.86,-6.98 3.33,-8.48 1.68,-1.03 3.92,-1.09 5.86,-0.4 3.48,1.24 3.54,5.01 3.54,7.98 0,6.67 -5.67,6.06 -9.69,6.06l0 11.21c3.73,0 6.48,-0.51 9.02,2.17 2.42,2.56 4.54,15.67 -5.7,15.67 -7.62,0 -8.47,-7.57 -7.27,-12.69l-14 1.17c-1.98,0.19 -1.63,-0.22 -1.51,1.54 0.1,1.34 -0.02,2.53 0.18,3.84 0.92,6.39 2.51,11.41 8.3,15.03 5.2,3.24 10.31,3.27 16.43,3.27 11.48,0 22.72,-6.95 22.72,-18.79 0,-6.68 -0.83,-10.9 -6.72,-14.79 -0.91,-0.6 -3.23,-1.77 -4.49,-1.87l0 -0.6c4.88,-1.14 9.09,-6.9 9.09,-13.33 0,-11.29 -7.86,-18.49 -19.7,-18.49 -8.66,0 -14.84,1.02 -20.51,7.97 -2.15,2.64 -4.03,7.68 -4.03,11.43z"/>
    <path class="fil1" d="M250.55 489.36l30.3 0c-1.87,2.8 -5.19,6.57 -8.12,10.97 -6.48,9.72 -11.9,21.81 -14.78,33.39 -0.59,2.36 -1.63,5.48 -1.63,8.05 21.93,0 17.69,1.13 18.26,-3.55 0.16,-1.21 0.38,-2.84 0.61,-4.24 0.45,-2.69 1.02,-5.52 1.67,-8.03 2.97,-11.58 9.84,-26.09 17.87,-35.16 0.59,-0.66 2.2,-1.72 2.2,-2.65l0 -11.83 -46.36 0 0 13.04z"/>
    <path class="fil1" d="M411.75 485.72l-1.22 0 0 10.6c3.87,0 11.48,-0.93 13.94,-2.12l0 47.57 14.84 0c0.7,0 0.92,-0.2 0.92,-0.91l0 -63.63c0,-0.69 -0.21,-0.92 -0.92,-0.92l-10.9 0c-1.13,0 -1.18,1.61 -2.81,3.56 -3.02,3.58 -8.68,5.84 -13.85,5.84z"/>
   </g>
  </g>
 </g>
</svg>
