<?xml version="1.0" encoding="UTF-8"?>
<!DOCTYPE svg PUBLIC "-//W3C//DTD SVG 1.1//EN" "http://www.w3.org/Graphics/SVG/1.1/DTD/svg11.dtd">
<!-- Creator: CorelDRAW -->
<svg xmlns="http://www.w3.org/2000/svg" xml:space="preserve" width="7.9368mm" height="7.9367mm" version="1.1" style="shape-rendering:geometricPrecision; text-rendering:geometricPrecision; image-rendering:optimizeQuality; fill-rule:evenodd; clip-rule:evenodd"
viewBox="0 0 150.45 150.45"
 xmlns:xlink="http://www.w3.org/1999/xlink"
 xmlns:xodm="http://www.corel.com/coreldraw/odm/2003">
 <defs>
  <style type="text/css">
   <![CDATA[
    .fil0 {fill:none}
    .fil1 {fill:#FFF5EF}
   ]]>
  </style>
 </defs>
 <g id="Capa_x0020_1">
  <metadata id="CorelCorpID_0Corel-Layer"/>
  <g id="_2492875772128">
   <circle class="fil0" cx="75.22" cy="75.22" r="75.22"/>
   <g>
    <path class="fil1" d="M50.7 58.17c0,3.27 0.68,5.63 2.65,7.96 1.31,1.55 3.26,2.9 5.06,3.8 0.32,0.16 0.59,0.26 0.91,0.42 0.84,0.42 2.7,1.09 3.65,1.41 1.96,0.66 3.94,1.13 5.93,1.66 1.38,0.37 5.06,1.16 5.06,2.74 0,0.85 -1.15,1.13 -1.82,1.2 -2.59,0.29 -4.31,0.31 -6.87,-0.25 -0.74,-0.16 -2.23,-0.69 -2.88,-1.05 -1.83,-1.02 -3.26,-2.2 -4.31,-4.05 -0.12,-0.2 -0.23,-0.63 -0.49,-0.63l-6.82 0c-0.16,0 -0.21,0.05 -0.21,0.21l0 13.28c0,0.16 0.05,0.21 0.21,0.21l8.01 0 0 -2.74c3.15,2.11 8.54,3.3 12.44,3.3 3.91,0 7.42,-0.83 9.77,-2.39 2.53,-1.68 4.29,-4.61 4.29,-7.87 0,-2.31 -0.15,-2.87 -1.01,-5.03 -0.47,-1.17 -1.12,-2.29 -1.83,-3.23 -3.21,-4.29 -6.86,-4.66 -11.75,-5.89 -1.69,-0.43 -4.38,-0.96 -5.98,-1.61 -0.94,-0.38 -2.69,-1.09 -2.69,-2.37 0,-0.86 0.46,-1.18 1.24,-1.36 1.87,-0.43 5.39,0.16 6.98,0.67 1.32,0.43 2.63,0.84 3.69,1.58 0.55,0.38 0.94,0.8 1.36,1.32 0.17,0.21 0.4,0.55 0.54,0.8 0.26,0.47 0.25,0.8 0.54,0.8l7.73 0c0.16,0 0.21,-0.05 0.21,-0.21l0 -12.3c0,-0.16 -0.05,-0.21 -0.21,-0.21l-8.29 0 0 2.32c-0.58,-0.39 -1.75,-1.02 -2.43,-1.29 -0.25,-0.1 -0.37,-0.19 -0.62,-0.29 -2.44,-1.02 -5.66,-2 -8.33,-2 -2.66,0 -3.78,0.08 -6.26,0.97 -4.5,1.62 -7.44,5.11 -7.44,10.13z"/>
    <path class="fil1" d="M106.36 76.8c-2.6,0 -4.1,-0.87 -5.09,-2.79 -1.47,-2.87 -1.17,-7.75 -1.17,-11.27 0,-2.56 0.62,-4.72 2.79,-5.64 1.8,-0.76 4.88,-0.66 6.46,0.4 2.21,1.48 2.7,4.61 2.7,7.21 -0,0.75 0.07,1.29 0.07,1.97l-0.19 3.75c-0.28,2.14 -0.74,4.21 -2.48,5.46 -0.69,0.5 -1.9,0.91 -3.09,0.91zm-1.27 8.86c3.38,0 6.77,0.23 9.87,-1.03 0.56,-0.22 1.13,-0.43 1.6,-0.72 0.25,-0.15 0.45,-0.26 0.71,-0.41 1.06,-0.63 1.15,-0.83 1.97,-1.47l1.41 -1.4c0.11,-0.15 0.16,-0.17 0.27,-0.3 3.14,-3.52 4.83,-9.64 4.83,-14.7 0,-5.26 -2.37,-9.93 -5.01,-12.56 -1.06,-1.06 -1.08,-1.11 -2.31,-2.05 -2.64,-2 -6.42,-3.24 -9.97,-3.24 -4.76,0 -8.5,-0.36 -12.72,1.76 -0.5,0.25 -0.97,0.49 -1.45,0.8 -1.02,0.67 -1.71,1.12 -2.61,2.03 -0.2,0.2 -0.36,0.36 -0.56,0.56 -0.49,0.49 -1.15,1.33 -1.54,1.91l-1.58 3.05c-0.22,0.54 -0.43,1.1 -0.63,1.69 -0.88,2.65 -0.92,3.35 -1.12,5.84 -0.1,1.27 0.03,2.94 0.21,4.23 0.29,2.09 0.69,3.59 1.45,5.51 1.02,2.56 3.76,5.94 6.2,7.57 3.11,2.08 6.81,2.94 10.98,2.94z"/>
    <polygon class="fil1" points="24.69,57.12 29.76,57.12 29.76,75.81 24.69,75.81 24.69,85.09 48.38,85.09 48.38,75.81 43.32,75.81 43.32,57.12 48.38,57.12 48.38,47.77 24.69,47.77 "/>
    <path class="fil1" d="M70.23 31.82c0.71,0.06 1.65,0.56 3.65,0.56l0 8.08c-2.01,0 -2.85,-0.12 -4.71,-0.28l-2.76 -0.41c-0.3,-0.06 -0.6,-0.15 -0.9,-0.16 0.18,-0.34 0.32,-0.68 0.52,-1.03 1.04,-1.74 1.67,-3.04 2.91,-4.89 0.44,-0.65 0.85,-1.25 1.28,-1.88zm5.48 8.64l0 -8.08c1.44,0 3.53,-0.75 3.79,-0.77l2.46 3.79c0.38,0.64 0.77,1.27 1.14,1.95 0.39,0.71 0.73,1.37 1.1,2.06 -2.3,0.54 -6.05,1.06 -8.5,1.06zm-12.09 -1.26c-0.16,-0.08 -0.58,-0.18 -0.82,-0.24l-4.11 -1.37c-0.28,-0.1 -0.5,-0.21 -0.8,-0.33 -0.29,-0.12 -0.53,-0.29 -0.81,-0.31 0.11,-0.41 2,-2.12 2.44,-2.55l1.06 -0.91c0.21,-0.2 0.35,-0.3 0.56,-0.49 1.48,-1.32 3.04,-2.34 4.66,-3.43 0.21,0.29 2.21,1.44 2.67,1.55 -1,1.49 -1.53,2.24 -2.54,3.92 -0.21,0.35 -0.38,0.66 -0.6,1.02l-1.71 3.14zm17.57 -8.36c0.53,-0.13 2.35,-1.4 2.39,-1.41 0.39,0.09 2.01,1.25 2.4,1.54 0.69,0.5 3.2,2.46 3.84,3.12 0.64,0.66 2.09,1.83 2.55,2.51l-1.46 0.65c-0.51,0.22 -1.04,0.43 -1.56,0.62 -0.42,0.15 -2.86,1.01 -3.31,1.05 -0.19,-0.35 -0.34,-0.72 -0.55,-1.07l-1.75 -3.1c-1.02,-1.7 -1.57,-2.45 -2.55,-3.91zm-25.93 5.2c-1.36,-0.72 -2.22,-1.29 -3.44,-2.11 0.44,-0.66 4.6,-2.93 5.57,-3.42 1.53,-0.77 4.77,-2.15 6.51,-2.55l0.37 0.34 -1.2 0.87c-0.72,0.49 -3.4,2.56 -4.07,3.24l-3.74 3.64zm29.87 -7.94c0.37,-0.69 0.3,-0.43 2.05,0.05 0.96,0.27 2.38,0.83 3.3,1.2 1.76,0.71 3.61,1.66 5.24,2.63 0.26,0.16 0.44,0.26 0.7,0.43l1.36 0.89c-0.2,0.27 -1.4,1.03 -1.76,1.26l-1.9 1.13c-0.38,-0.26 -1,-1.09 -1.53,-1.56 -0.22,-0.2 -0.34,-0.27 -0.56,-0.49 -1.38,-1.39 -4.14,-3.65 -5.67,-4.66 -0.28,-0.18 -1.1,-0.68 -1.24,-0.87zm-10.12 2.46c-3.09,0 -4.96,-0.52 -7.38,-1.97 -0.58,-0.34 -1.12,-0.76 -1.62,-1.19 4.05,-0.94 9.42,-1.41 13.81,-0.8l3.48 0.52c-0.06,0.24 -0.41,0.48 -0.7,0.7 -0.74,0.57 -1.92,1.3 -2.77,1.66 -1.3,0.54 -3.02,1.08 -4.82,1.08zm-35.14 13.35l2.18 0c0.84,-1.25 1.79,-2.42 2.73,-3.59 0.56,-0.69 2.44,-2.71 3.09,-3.23l1.39 -1.22c0.14,-0.11 0.18,-0.16 0.3,-0.26 0.51,-0.41 0.53,-0.65 1.08,-0.22 1.04,0.8 2.2,1.45 3.35,2.06 -0.08,0.29 -0.99,1.28 -1.19,1.54l-1.77 2.45c-0.12,0.18 -0.17,0.23 -0.3,0.41 -0.12,0.17 -0.16,0.27 -0.26,0.44 -0.2,0.31 -0.37,0.54 -0.55,0.85 -0.63,1.06 -0.64,0.78 1.55,0.78 0.26,0 0.9,-1.14 1.07,-1.39l1.52 -2.13c0.35,-0.44 1.26,-1.74 1.7,-2.03 0.36,0.08 2,0.85 2.52,1.06 1.14,0.46 2.39,0.87 3.58,1.2 0.2,0.05 0.75,0.18 0.93,0.27 -0.07,0.29 -0.2,0.46 -0.33,0.73 -0.22,0.48 -0.9,1.85 -0.94,2.3l1.97 0 0.56 -1.27c0.19,-0.42 0.46,-0.81 0.56,-1.26 0.74,0 1.45,0.24 2.17,0.36 2.38,0.4 4.61,0.62 7.11,0.62l0 1.54 1.83 0 0 -1.54 2.46 -0.14c0.77,-0.06 1.67,-0.18 2.41,-0.27l3.44 -0.57c0.35,-0.07 0.76,-0.21 1.12,-0.22l1.19 2.74 1.97 0c-0.04,-0.49 -1.19,-2.9 -1.4,-3.3 0.59,-0.05 1.23,-0.35 1.78,-0.54 1.7,-0.57 3.48,-1.25 5.03,-2.06 0.28,0.41 0.86,1 1.19,1.41l2.75 3.79c0.65,0.97 0.46,0.7 2.39,0.7 0.43,0 -0.14,-0.65 -0.24,-0.81l-1.78 -2.65c-0.23,-0.31 -0.39,-0.55 -0.62,-0.86l-1.66 -2.06c-0.11,-0.13 -0.25,-0.31 -0.34,-0.44 0.23,-0.06 0.82,-0.43 1.04,-0.58l1.98 -1.32c0.32,-0.23 0.63,-0.52 0.98,-0.7 0.76,0.41 1.44,1.14 2.12,1.68 0.44,0.35 1.95,1.76 2.3,2.2 0.28,0.35 0.68,0.65 0.97,0.99 1.17,1.4 2.32,2.79 3.39,4.27 0.28,0.39 0.36,0.28 0.99,0.28 0.45,-0 0.89,0 1.34,0 -0.04,-0.49 -1,-1.62 -1.31,-2.07l-1.09 -1.44c-0.15,-0.21 -0.27,-0.31 -0.41,-0.5 -0.25,-0.32 -0.5,-0.6 -0.76,-0.92 -0.73,-0.92 -2.07,-2.31 -2.94,-3.03 -0.59,-0.49 -1.14,-1.1 -1.77,-1.61 -0.17,-0.14 -0.28,-0.24 -0.46,-0.38 -1.13,-0.89 -2.25,-1.81 -3.47,-2.58 -6.42,-4.03 -13.49,-6.94 -23.21,-6.94 -9.58,0 -17.18,3.1 -23.44,7.27l-5.63 4.63c-0.56,0.57 -1.15,1.11 -1.69,1.69 -0.17,0.18 -0.2,0.27 -0.38,0.46 -0.82,0.81 -1.63,1.88 -2.32,2.81l-1.08 1.52c-0.2,0.26 -0.58,0.78 -0.65,1.1z"/>
    <path class="fil1" d="M74.52 102.24c2.98,0 5.09,0.66 7.39,2.09 0.41,0.26 1.44,1 1.67,1.35 -5.56,1.29 -12.02,1.12 -17.43,-0.14 0.43,-0.64 2.69,-1.94 3.55,-2.28 1.38,-0.55 2.92,-1.02 4.81,-1.02zm11.31 2.88c-0.2,0 -0.47,-0.36 -0.56,-0.49 0.31,-0.08 2.05,-1.38 2.42,-1.66 0.42,-0.31 0.75,-0.56 1.15,-0.89 1.82,-1.49 2.58,-2.16 4.35,-3.94 0.3,-0.3 0.76,-0.83 1.07,-1.04 0.34,0.18 0.62,0.31 0.96,0.52l2.76 1.87 -2.74 1.69c-0.44,0.27 -0.93,0.53 -1.41,0.77l-1.5 0.75c-0.85,0.43 -5.64,2.41 -6.51,2.41zm-33.66 -5.9l1.62 -1.06c0.3,-0.2 1.44,-0.91 1.76,-0.98 0.31,0.21 2.02,2.01 2.51,2.48l1.09 0.95c1.34,1.19 2.51,2.13 3.99,3.18 0.27,0.19 1.04,0.64 1.19,0.84l-0.29 0.34c-0.81,-0.17 -1.65,-0.5 -2.44,-0.77 -1,-0.33 -3.02,-1.22 -3.9,-1.66 -0.93,-0.46 -5.09,-2.68 -5.53,-3.32zm29.1 2.67c0.08,-0.33 0.4,-0.68 0.59,-0.96 1.18,-1.7 2,-3.27 3.01,-4.93 0.4,-0.65 0.71,-1.45 1.11,-2.05 0.46,0.04 1.25,0.32 1.73,0.45 1.01,0.29 2.22,0.75 3.21,1.14l1.13 0.49c0.16,0.08 0.26,0.1 0.4,0.16 -0.08,0.29 -0.34,0.45 -0.54,0.65 -0.23,0.23 -0.41,0.41 -0.63,0.63l-1.26 1.2c-0.14,0.14 -0.17,0.14 -0.31,0.25 -0.14,0.11 -0.2,0.19 -0.33,0.31l-0.69 0.58c-1.08,0.84 -1.44,1.25 -2.8,2.19 -2.14,1.48 -1.86,1.53 -2.59,1.03 -0.46,-0.31 -1.57,-1.03 -2.02,-1.14zm-23.96 -5.62l3.05 -1.24c0.63,-0.22 2.87,-1.01 3.28,-1.01 0.11,0 1,1.77 1.12,1.97l3.59 5.9c-0.45,0.11 -2.24,1.17 -2.46,1.47 -0.19,-0.13 -0.38,-0.23 -0.56,-0.35 -1.82,-1.21 -3.1,-2.21 -4.76,-3.61l-0.78 -0.7c-0.49,-0.5 -2.06,-1.82 -2.48,-2.44zm22.14 4.85c-0.59,-0.29 -2.81,-0.7 -3.72,-0.7l0 -7.87c1.77,0 4.63,0.27 6.4,0.56 0.62,0.1 1.38,0.3 1.97,0.35 -0.1,0.44 -1.82,3.4 -2.16,3.95l-1.83 2.81c-0.21,0.31 -0.45,0.6 -0.65,0.9zm-13.92 -7.59l3.99 -0.65 4.38 -0.33 0 7.87c-0.68,0 -2.26,0.26 -2.92,0.45 -0.31,0.09 -0.59,0.19 -0.87,0.25l-2.38 -3.67c-0.5,-0.78 -0.94,-1.68 -1.38,-2.42l-0.81 -1.51zm8.57 14.9c3.2,0 5.18,-0.08 8.32,-0.6 4.09,-0.68 6.71,-1.69 10.28,-3.21 1.94,-0.83 3.73,-1.86 5.43,-3l3.87 -2.87c1.54,-1.25 2.95,-2.68 4.29,-4.14 1.23,-1.33 2.36,-2.73 3.37,-4.22 0.13,-0.19 0.22,-0.29 0.35,-0.49 0.83,-1.24 0.82,-0.93 -1.49,-0.93 -0.27,0 -0.84,0.99 -1.01,1.23l-3.13 3.76c-0.78,1.02 -1.98,1.88 -2.9,2.79 -0.42,0.42 -1.54,1.4 -1.95,1.49l-0.93 -0.68c-0.64,-0.49 -1.28,-0.85 -1.97,-1.26 -0.36,-0.21 -0.68,-0.49 -1.1,-0.58l4.19 -5.79c0.18,-0.29 0.45,-0.64 0.52,-0.95l-2.11 0c-0.68,1.01 -1.32,2.02 -2.06,3 -0.32,0.43 -2.05,2.5 -2.23,2.83 -0.25,-0.13 -0.54,-0.24 -0.82,-0.38l-2.55 -1.04c-0.59,-0.21 -1.13,-0.4 -1.79,-0.6 -0.45,-0.13 -1.44,-0.51 -1.87,-0.52 0.35,-0.73 1.36,-2.79 1.4,-3.3l-1.97 0 -0.63 1.41c-0.2,0.44 -0.52,0.94 -0.63,1.4 -0.94,-0.45 -6.67,-1.06 -8.01,-1.05l-1.27 -0.07 0 -1.69 -1.83 0 0 1.76c-2.86,0 -5.47,0.33 -8.19,0.87 -0.41,0.08 -0.64,0.18 -1.08,0.18 -0.04,-0.19 -0.21,-0.55 -0.3,-0.75l-0.81 -1.8c-0.21,-0.44 -0.62,-0.27 -1.91,-0.27 -0.38,0 0.01,0.56 0.09,0.75l0.77 1.76c0.15,0.32 0.24,0.57 0.4,0.87 -0.76,0.02 -2.82,0.82 -3.58,1.13 -1.08,0.43 -2.28,0.86 -3.3,1.4 -0.31,-0.47 -2.07,-2.53 -2.81,-3.58l-1.55 -2.32 -2.11 0c0.06,0.73 3.68,5.47 4.13,5.99 0.22,0.25 0.5,0.54 0.65,0.83 -0.54,0.13 -1.45,0.82 -1.91,1.11l-1.34 0.91c-0.16,0.13 -0.27,0.25 -0.47,0.3l-2.34 -1.95c-0.94,-0.83 -3.15,-3.17 -3.93,-4.15 -0.37,-0.47 -0.71,-0.88 -1.08,-1.37l-1.02 -1.44c-0.13,-0.18 -0.13,-0.2 -0.41,-0.22 -0.62,-0.05 -1.28,0 -1.9,0 0.06,0.7 2.98,4.15 3.51,4.85 0.15,0.19 0.25,0.26 0.4,0.44 1.01,1.21 2.17,2.28 3.3,3.37 1,0.96 2.14,1.82 3.25,2.65 0.31,0.24 0.65,0.49 0.98,0.7 1.35,0.89 2.69,1.81 4.15,2.53l3.42 1.64c2,0.89 4.14,1.55 6.28,2.08 2.86,0.72 5.91,1.2 8.92,1.2z"/>
    <path class="fil1" d="M57.93 118.54c0.71,0 2.45,0.48 3.09,0.49 0.34,-1.45 3.51,-2.26 3.51,1.62 0,0.67 -0.21,1.35 -0.48,1.77 -0.95,1.51 -3.18,0.82 -3.18,-1l0 -0.7 -1.76 0.07c-0.3,0.01 -0.62,-0.02 -0.92,-0 -0.33,0.02 -0.43,0.07 -0.84,0.07 0,1.07 0.03,1.52 0.44,2.51 0.2,0.47 0.63,1.1 0.99,1.4 0.45,0.38 0.91,0.67 1.52,0.87 2.87,0.96 6.58,-0.02 7.66,-3.25 0.24,-0.72 0.31,-1.25 0.35,-1.97 0.01,-0.22 -0.05,-0.38 -0.06,-0.69 -0.07,-1.71 -1.13,-3.21 -2.25,-3.86 -1.51,-0.87 -3.3,-0.8 -4.71,0.14 0.08,-0.34 0.15,-0.88 0.19,-1.22 0.05,-0.42 0.16,-0.94 0.16,-1.31l5.76 0c0,-0.85 0.21,-1.8 0.21,-3.02l-8.5 0c-0.33,0 -0.36,1.29 -0.44,1.88 -0.08,0.64 -0.18,1.42 -0.25,2.06l-0.51 4.13z"/>
    <path class="fil1" d="M73.19 118.82c0,-1.57 -0.08,-4.13 0.95,-5.3 0.63,-0.71 2.14,-0.88 2.71,1 0.46,1.51 0.7,6.79 -0.52,8.14 -0.46,0.51 -2.15,1.02 -2.8,-1.1 -0.2,-0.65 -0.34,-1.88 -0.34,-2.75zm-3.37 -1.47c0,2.4 0.03,4.45 1.31,6.42 1.47,2.26 4.35,2.82 6.63,1.51 0.27,-0.16 0.71,-0.51 0.93,-0.75 2.51,-2.64 2.4,-9.15 0.8,-11.88 -0.9,-1.54 -2.15,-2.48 -4.41,-2.48 -2.59,0 -4.3,2.08 -4.88,4.4 -0.21,0.85 -0.39,1.75 -0.39,2.77z"/>
    <path class="fil1" d="M87.52 123.11c-0.53,0 -0.88,-0.19 -1.14,-0.47 -0.29,-0.31 -0.41,-0.69 -0.55,-1.13 -0.5,-1.58 -0.82,-8.44 1.55,-8.44 0.57,0 0.98,0 1.44,0.67 0.98,1.44 0.81,5.91 0.46,7.55 -0.2,0.92 -0.63,1.83 -1.75,1.83zm-5.41 -5.55c0,2.29 0.14,4.45 1.29,6.16 0.28,0.41 0.35,0.51 0.69,0.85 1.33,1.33 3,1.68 4.83,1.22 4.78,-1.22 4.71,-10.05 2.81,-13.22 -0.88,-1.47 -2.16,-2.39 -4.36,-2.39 -3.68,0 -5.27,3.95 -5.27,7.38z"/>
    <path class="fil1" d="M50.7 114.54c0,0.84 0,1.69 0,2.53 0,0.91 0.07,1.59 0.07,2.53l-3.37 0c0.07,-0.25 0.61,-0.99 0.79,-1.25 0.43,-0.65 2.18,-3.43 2.52,-3.81zm-5.97 5.06l0 2.39c0,0.16 0.05,0.21 0.21,0.21l5.83 0 0 3.44 3.65 0 0 -3.44 1.97 0 0 -2.6 -1.97 0 0 -8.92c0,-0.16 -0.05,-0.21 -0.21,-0.21l-3.09 0c-0.25,0 -1.42,1.91 -1.65,2.22l-3.57 5.15c-0.16,0.23 -1.18,1.62 -1.18,1.77z"/>
    <path class="fil1" d="M95.18 112.71l0 2.46c0.52,-0.12 1.58,-0.12 2.43,-0.31 0.28,-0.06 0.53,-0.16 0.8,-0.18l0 10.96 3.44 0c0.16,0 0.21,-0.05 0.21,-0.21l0 -14.76c0,-0.16 -0.05,-0.21 -0.21,-0.21l-2.53 0c-0.33,0 -0.36,0.95 -1.57,1.59 -0.78,0.42 -1.49,0.57 -2.58,0.66z"/>
   </g>
  </g>
 </g>
</svg>
