<svg id="_2775766105376" xmlns="http://www.w3.org/2000/svg" width="93.348" height="93.348" viewBox="0 0 93.348 93.348">
  <ellipse id="Elipse_15" data-name="Elipse 15" cx="46.674" cy="46.674" rx="46.674" ry="46.674" fill="none"/>
  <g id="Grupo_29" data-name="Grupo 29" transform="translate(15.162 12.334)">
    <path id="Trazado_284" data-name="Trazado 284" d="M72.342,119.041l.086-55.6a5.047,5.047,0,0,1,4.424-4.3c1.066-.161,4.628.128,5.758-.041.475-.073,4.9-.019,5.782-.019h27.949c3.525,0,6.91.043,10.422.043a5.117,5.117,0,0,1,3.544,1.034l.679.63a4.524,4.524,0,0,1,.792,1.171,5.073,5.073,0,0,1,.523,2.094v55.77a5.118,5.118,0,0,1-4.882,4.927H77.273A5.085,5.085,0,0,1,73.1,122.3a5.81,5.81,0,0,1-.76-3.253Zm5.058,7.238h49.884a6.674,6.674,0,0,0,6.54-6.585V66.061c0-.306,0-.61,0-.917,0-.34-.045-.512-.045-.872a6.166,6.166,0,0,0-1.842-4.655,6.426,6.426,0,0,0-1.578-1.214,6.614,6.614,0,0,0-2.9-.8H77.224a6.657,6.657,0,0,0-6.369,6.366l0,53.591a10.363,10.363,0,0,1-.032,1.233A7.908,7.908,0,0,0,70.858,120a6.546,6.546,0,0,0,1.668,4.045,5.366,5.366,0,0,0,1.017.944,6.759,6.759,0,0,0,3.855,1.289Z" transform="translate(-70.805 -57.6)" fill="#fff5ef" fill-rule="evenodd"/>
    <path id="Trazado_285" data-name="Trazado 285" d="M156.2,154.606a3.728,3.728,0,0,0,.465,1.8,5.058,5.058,0,0,0,2.407,2.041,13.481,13.481,0,0,0,1.76.508c1.272.317,4.266.917,5.347,1.323.623.233,1.184.426,1.184,1.171,0,2.124-5.343,2.105-6.859.752a2.166,2.166,0,0,1-.627-.852c-.128-.276-.15-.642-.664-.773-.293-.075-2.218.1-2.752.133a1.172,1.172,0,0,0-.6.139c-.529.319-.126,1.24.062,1.713a5.173,5.173,0,0,0,2.24,2.557,11.788,11.788,0,0,0,5.017,1.347,11.983,11.983,0,0,0,3.672-.383,6.243,6.243,0,0,0,3.887-2.349,5.713,5.713,0,0,0,.683-2.456,2.976,2.976,0,0,0-.557-2.146,4.48,4.48,0,0,0-1.026-1.109c-1.225-1-3.105-1.336-4.737-1.675a32.439,32.439,0,0,1-4.246-1.075c-.636-.317-.8-1.293.522-1.857,1.019-.435,3.7-.437,4.649.261.91.672.531,1.452,1.426,1.452a14.161,14.161,0,0,0,1.668-.075c1.118-.152,2.246.281,1.606-1.5-1.486-4.135-8.154-4.283-11.444-2.972a4.613,4.613,0,0,0-3.084,4.024Z" transform="translate(-137.437 -130.098)" fill="#fff5ef" fill-rule="evenodd"/>
    <path id="Trazado_286" data-name="Trazado 286" d="M244.911,163.2a4.452,4.452,0,0,1-4.129-2.587c-.758-1.617-.437-4.949.606-6.082a5.028,5.028,0,0,1,3.261-1.493,4.68,4.68,0,0,1,2.936.683,2.8,2.8,0,0,1,.336.231,3.134,3.134,0,0,1,.61.567,4.469,4.469,0,0,1,.465.67,6.534,6.534,0,0,1-.308,6.334A4.648,4.648,0,0,1,244.911,163.2Zm-8.5-5.234a7.777,7.777,0,0,0,5.107,7.8,9.646,9.646,0,0,0,6.977.011c6.154-2.036,6.827-11.08,1.756-14.457a9.1,9.1,0,0,0-2.887-1.257,10.653,10.653,0,0,0-6.127.433,7.878,7.878,0,0,0-4.827,7.469Z" transform="translate(-200.947 -130.054)" fill="#fff5ef" fill-rule="evenodd"/>
    <path id="Trazado_287" data-name="Trazado 287" d="M147.261,100.845a1.842,1.842,0,0,1,.2-.537l1.315-2.394c.208-.308.409-.552.638-.844a5.632,5.632,0,0,1,3.109-2.079,4.157,4.157,0,0,1,3.707,1.332,9.752,9.752,0,0,1,1.364,1.6,16.1,16.1,0,0,1,1.077,1.889c.09.182.148.34.231.51a1.906,1.906,0,0,1,.218.565,30.507,30.507,0,0,1-6.585.567c-.979,0-1.852-.1-2.745-.176a14.2,14.2,0,0,1-2.531-.435ZM157.6,95.481a5.476,5.476,0,0,1,1.075.278,20.08,20.08,0,0,1,2.994,1.191,21.191,21.191,0,0,1,2.6,1.585c.178.124.683.433.743.653a11,11,0,0,1-1.043.353c-.358.118-.7.246-1.069.37-.306.1-1.9.6-2.208.627a14.535,14.535,0,0,1-.638-1.366c-.12-.251-.225-.422-.351-.653a12.289,12.289,0,0,0-1.2-1.9l-.91-1.139ZM145.6,100.5a15.046,15.046,0,0,1-2.218-.66l-2.056-.694a15.1,15.1,0,0,1,1.615-1.178,16.491,16.491,0,0,1,1.773-1.017c.321-.161.606-.3.949-.448a20.06,20.06,0,0,1,2.578-.91,5.112,5.112,0,0,0,.542-.156c-.034.126-.756.949-.9,1.148a15.892,15.892,0,0,0-1.872,3.272c-.081.173-.218.64-.409.64Zm-9.373,4.1c.561,0,.767-.482,1-.876a17.669,17.669,0,0,1,1.585-2.165c.077-.092.137-.133.212-.223l.7-.737c.377-.379.255-.394,1.259-.017.231.086.452.152.685.229l3.495,1.214a3.741,3.741,0,0,0-.116.366c-.045.139-.066.238-.109.37-.152.48-.409,1.1-.171,1.488a.748.748,0,0,0,1.266,0c.27-.439.435-1.874.743-1.874a3.955,3.955,0,0,1,.734.094c.216.034.516.081.717.111a30.859,30.859,0,0,0,10.608-.094c1.12-.186.769-.317,1.246,1.1.118.349.208,1.009.867,1.009a.71.71,0,0,0,.741-.741c0-.452-.473-1.535-.48-1.876a32.273,32.273,0,0,0,3.775-1.2c.831-.317,1.268-.655,1.546-.289l1.229,1.345c.582.666,1.484,2.165,1.7,2.4.756.812,1.383.064,1.383-.3a1.131,1.131,0,0,0-.208-.662c-.124-.2-.244-.375-.355-.559A20.906,20.906,0,0,0,167.9,99.7a20.011,20.011,0,0,0-2.9-2.51c-.193-.133-.338-.24-.54-.375s-.358-.225-.559-.358-.351-.212-.546-.326a18.079,18.079,0,0,0-2.426-1.193,21.229,21.229,0,0,0-6.647-1.508h-1.743a20.365,20.365,0,0,0-9.8,2.848,19.967,19.967,0,0,0-3.139,2.311l-1.788,1.831a22.875,22.875,0,0,0-1.548,2.073c-.122.184-.225.338-.349.522a3.753,3.753,0,0,0-.355.563.736.736,0,0,0,.67,1.017Z" transform="translate(-121.655 -85.757)" fill="#fff5ef" fill-rule="evenodd"/>
    <path id="Trazado_288" data-name="Trazado 288" d="M141.444,236.979c.1-.137.287-.161.475-.223l.555-.184c.377-.126.713-.223,1.09-.349l1.615-.522c.1-.034.154-.056.263-.088l.2-.043c.163,0,.2.1.281.291l.482,1.09a16.314,16.314,0,0,0,1.987,3.114c.09.1.169.161.255.268a.931.931,0,0,1,.212.313l-1.056-.3c-.385-.107-.7-.238-1.043-.353s-.677-.259-1-.4c-.685-.3-1.193-.582-1.833-.914-.293-.152-.582-.353-.869-.525a14.876,14.876,0,0,1-1.617-1.176Zm16.178,3.662a9.283,9.283,0,0,1,.692-.833,13.023,13.023,0,0,0,1.056-1.518l1.206-2.413c.109-.263.111-.291.317-.291a19.868,19.868,0,0,1,2.088.66l2.1.692a10.5,10.5,0,0,1-1.6,1.195,19.352,19.352,0,0,1-5.861,2.512Zm-4.362.523c-1.807,0-3.1-1.278-4.105-2.565l-.88-1.345-.745-1.478a1.581,1.581,0,0,1-.2-.542c1.1-.585,4.927-.57,6.76-.567l1.914.09a16.959,16.959,0,0,1,3.229.478c-.5.949-.615,1.351-1.268,2.439-.964,1.615-2.666,3.49-4.707,3.49Zm-17.66-9.026a2.287,2.287,0,0,0,.567,1.266c.619.934.878,1.221,1.484,2,.077.1.122.133.206.231a2.223,2.223,0,0,0,.2.238c.6.593.749.842,1.527,1.525a19.218,19.218,0,0,0,4.351,3.017,26.828,26.828,0,0,0,3.077,1.283,19.523,19.523,0,0,0,10.906.409,21.313,21.313,0,0,0,5.105-1.917c.182-.111.366-.206.559-.311.216-.118.362-.227.567-.349.368-.218.7-.454,1.043-.7a16.229,16.229,0,0,0,1.445-1.169l2.174-2.231c.375-.475,2.111-2.613,2.111-3.208a.79.79,0,0,0-.741-.741c-.54,0-.794.621-1.028.976a19.479,19.479,0,0,1-2.208,2.805c-.7.7-.411.6-1.872.062a37.217,37.217,0,0,0-3.788-1.227,5.523,5.523,0,0,1,.253-.925c.137-.484.516-1.3-.206-1.606-.959-.411-1.152.8-1.353,1.527-.214.773.03.7-1.906.422-.478-.069-1.026-.148-1.54-.206a28.851,28.851,0,0,0-9.062.313,7.067,7.067,0,0,1-.747.124c-.394-.822-.285-2.268-1.263-2.268-.638,0-.726.636-.642,1.122s.319,1.047.424,1.495l-3.724,1.246a9.794,9.794,0,0,1-1.291.411c-.261,0-.452-.257-.6-.4l-1.4-1.651c-.3-.4-.548-.764-.827-1.18-.231-.345-.559-1.036-1.013-1.036a.767.767,0,0,0-.784.653Z" transform="translate(-121.725 -194.245)" fill="#fff5ef" fill-rule="evenodd"/>
    <path id="Trazado_289" data-name="Trazado 289" d="M126.45,152.91v14.347a.543.543,0,0,0,.61.567h2.4c.448,0,.7-.214.7-.655V153.041c0-.563-.268-.741-.829-.741h-2.137C126.748,152.3,126.45,152.465,126.45,152.91Z" transform="translate(-114.534 -132.021)" fill="#fff5ef" fill-rule="evenodd"/>
    <path id="Trazado_290" data-name="Trazado 290" d="M309.668,316.933a1.021,1.021,0,0,1-.6-.18.823.823,0,0,1,.473-1.478,1.026,1.026,0,0,1,.8.206A.846.846,0,0,1,309.668,316.933Zm-.829-3.531c0-.946,1.657-.983,1.657,0S308.84,314.4,308.84,313.4Zm-.829,1.263c-.343.092-.741.842-.741,1.308a1.777,1.777,0,0,0,.664,1.6,3.118,3.118,0,0,0,3.484.017,1.9,1.9,0,0,0-.094-2.972,2.226,2.226,0,0,0,.508-.934c.45-2.493-3.289-2.857-4.156-1.233a1.815,1.815,0,0,0,.019,1.741,2.282,2.282,0,0,1,.315.469Z" transform="translate(-256.634 -257.107)" fill="#fff5ef" fill-rule="evenodd"/>
    <path id="Trazado_291" data-name="Trazado 291" d="M266.376,316.589c-.315,0-.677-.041-.8-.377a21.185,21.185,0,0,1-.073-2.587c0-1.328,1.124-1.171,1.411-.582.229.469.291,3.022-.139,3.383a.855.855,0,0,1-.4.165Zm-2.486-1.962c0,.456.051.889.086,1.308a2.279,2.279,0,0,0,.358,1.081,2.452,2.452,0,0,0,3.775.081c.619-.831.638-2.835.443-3.951a2.385,2.385,0,0,0-4.234-.887,4.915,4.915,0,0,0-.426,2.366Z" transform="translate(-222.543 -256.979)" fill="#fff5ef" fill-rule="evenodd"/>
    <path id="Trazado_292" data-name="Trazado 292" d="M206.01,314.652a5.841,5.841,0,0,1,.041-.612c.019-.236-.169-1.221.743-1.221a.734.734,0,0,1,.685.493,6.682,6.682,0,0,1-.1,3.236.757.757,0,0,1-1.33-.5c-.011-.223.017-.475,0-.7s-.041-.4-.041-.7Zm-1.57-.043c0,1.7.054,3.531,2.4,3.531,1.929,0,2.356-1.559,2.356-3.227a4.417,4.417,0,0,0-.469-2.452,2.452,2.452,0,0,0-3.812-.086,3.788,3.788,0,0,0-.471,2.231Z" transform="translate(-175.824 -257.136)" fill="#fff5ef" fill-rule="evenodd"/>
    <path id="Trazado_293" data-name="Trazado 293" d="M157.306,316.77c-.726,0-.741-.544-.741-1.133v-2.049a.742.742,0,0,1,1.413-.366,8.105,8.105,0,0,1,.069,2.938.693.693,0,0,1-.739.612Zm-2.353-1.962c0,1.171.054,2.371,1.019,2.947a2.529,2.529,0,0,0,3.3-.638,6.235,6.235,0,0,0,0-4.662,2.451,2.451,0,0,0-3.932.032,4.829,4.829,0,0,0-.383,2.321Z" transform="translate(-136.931 -257.117)" fill="#fff5ef" fill-rule="evenodd"/>
    <path id="Trazado_294" data-name="Trazado 294" d="M181.156,314.768l.047-1.173a.746.746,0,0,1,1.45-.1,9.363,9.363,0,0,1,.043,2.73.767.767,0,0,1-1.293.525c-.323-.317-.158-.814-.21-1.272a5.69,5.69,0,0,1-.039-.7Zm-1.57-.043a4.774,4.774,0,0,0,.463,2.679c.839,1.214,3.782,1.415,4.186-1.084a7.145,7.145,0,0,0,.069-1.908,2.943,2.943,0,0,0-.67-2.12,2.7,2.7,0,0,0-2.677-.473c-1.2.482-1.368,1.591-1.368,2.906Z" transform="translate(-156.291 -257.252)" fill="#fff5ef" fill-rule="evenodd"/>
    <path id="Trazado_295" data-name="Trazado 295" d="M240.376,313.789c1.388,0,1.081.1,1.383-.535.458-.972,2.193-.227.7,1.268-.319.319-1.535,1.57-1.777,1.754a1.425,1.425,0,0,0-.61,1.394c0,.2.094.349.3.349h4.056c.411,0,.3-.428.3-1.047,0-.452-.51-.349-.959-.349h-1.353a12.455,12.455,0,0,1,1.276-1.341c.124-.128.173-.216.306-.349a2.121,2.121,0,0,0,.043-2.9,2.559,2.559,0,0,0-2.7-.323,2.06,2.06,0,0,0-.657.52c-.388.385-.76,1.559-.315,1.559Z" transform="translate(-203.824 -257.102)" fill="#fff5ef" fill-rule="evenodd"/>
    <path id="Trazado_296" data-name="Trazado 296" d="M106.4,313.781a2.075,2.075,0,0,0,.784.088c.5,0,.54-.069.713-.422.266-.542.3-.582.814-.582.612,0,.784.867-.032,1.713-.289.3-.572.585-.874.874-.582.559-1.538,1.173-1.538,1.951,0,.266-.056.653.306.653.715,0,3.818.062,4.272-.043a2.044,2.044,0,0,0,.088-.914c0-.531-.409-.437-.917-.437h-1.351c.152-.572,2.135-1.72,2.135-3.054a1.827,1.827,0,0,0-.627-1.55c-.1-.077-.158-.137-.244-.191a2.546,2.546,0,0,0-2.383-.118,2.072,2.072,0,0,0-1.148,2.036Z" transform="translate(-98.672 -257.137)" fill="#fff5ef" fill-rule="evenodd"/>
    <path id="Trazado_297" data-name="Trazado 297" d="M131.261,313.535c0,.48.351.3.653.3.435,0,.692.173.857-.319.193-.568.308-.64.844-.64.426,0,.959.7-.1,1.735-.169.163-.248.293-.413.458l-.893.85c-.52.52-1.079.786-1.079,1.538,0,.255.069.61.3.61h4.141c.323,0,.218-.642.218-1.133,0-.39-.833-.218-1.266-.218-.4,0-.612-.043-1-.043.122-.456,2.18-1.756,2.18-3.184,0-1.936-2.542-2.527-3.784-1.385a2.258,2.258,0,0,0-.664,1.43Z" transform="translate(-118.212 -257.152)" fill="#fff5ef" fill-rule="evenodd"/>
    <path id="Trazado_298" data-name="Trazado 298" d="M287.1,313.869c0,.182.486.959.653.959.218,0,.743-.527.927-.687a.759.759,0,0,1,.338-.227v3.707c0,.912-.043.829,1.133.829.259,0,.349-.176.349-.435v-5.668c0-.445-.424-.306-.741-.306-.259,0-.242-.064-.482,0-.424.109-1.133.9-1.587,1.251-.133.1-.178.152-.313.255-.09.069-.281.21-.281.33Z" transform="translate(-240.783 -257.531)" fill="#fff5ef" fill-rule="evenodd"/>
    <path id="Trazado_299" data-name="Trazado 299" d="M230.09,317.586a.72.72,0,0,0,1.439.043A.72.72,0,0,0,230.09,317.586Z" transform="translate(-195.981 -261.379)" fill="#fff5ef" fill-rule="evenodd"/>
    <path id="Trazado_300" data-name="Trazado 300" d="M230.09,331.169a.72.72,0,1,0,.231-.512.951.951,0,0,0-.231.51Z" transform="translate(-195.981 -272.039)" fill="#fff5ef" fill-rule="evenodd"/>
  </g>
</svg>
