<?xml version="1.0" encoding="UTF-8"?>
<!DOCTYPE svg PUBLIC "-//W3C//DTD SVG 1.1//EN" "http://www.w3.org/Graphics/SVG/1.1/DTD/svg11.dtd">
<!-- Creator: CorelDRAW -->
<svg xmlns="http://www.w3.org/2000/svg" xml:space="preserve" width="7.9368mm" height="7.9368mm" version="1.1" style="shape-rendering:geometricPrecision; text-rendering:geometricPrecision; image-rendering:optimizeQuality; fill-rule:evenodd; clip-rule:evenodd"
viewBox="0 0 648.66 648.66"
 xmlns:xlink="http://www.w3.org/1999/xlink"
 xmlns:xodm="http://www.corel.com/coreldraw/odm/2003">
 <defs>
  <style type="text/css">
   <![CDATA[
    .fil0 {fill:none}
    .fil1 {fill:#FFF5EF;fill-rule:nonzero}
   ]]>
  </style>
 </defs>
 <g id="Capa_x0020_1">
  <metadata id="CorelCorpID_0Corel-Layer"/>
  <g id="_2492137757184">
   <circle class="fil0" cx="324.33" cy="324.33" r="324.33"/>
   <g>
    <g>
     <path class="fil1" d="M174.29 368.38c0,0 0,0 31.83,4.58 -18.39,11.66 -57.97,28.09 -89.34,17.07 -34.27,-12.03 -34.83,-52.27 -3.48,-98.69 31.41,-46.51 100.89,-68.3 134.92,-67.09 34.02,1.2 74.85,8.21 76.5,63.27 0,0 11.8,-76.15 -88.45,-75.78 -104.42,0.39 -207.97,104.55 -183.14,168.03 20.55,52.53 136.28,40.64 191.46,-31.24l-70.29 19.84z"/>
     <path class="fil1" d="M189.51 280.27c0,0 0,0 -31.83,-4.58 18.4,-11.65 57.97,-28.08 89.34,-17.07 34.27,12.04 34.83,52.27 3.49,98.69 -31.42,46.51 -100.89,68.31 -134.93,67.1 -34.02,-1.21 -74.85,-8.21 -76.5,-63.27 0,0 -11.8,76.15 88.45,75.79 104.42,-0.39 207.97,-104.56 183.14,-168.03 -20.55,-52.53 -136.28,-40.65 -191.45,31.23l70.29 -19.84z"/>
     <g>
      <polygon class="fil1" points="137.71,305.75 157.84,305.75 156.85,312.31 144.42,312.31 143.19,320.52 154.98,320.52 153.94,327.17 142.18,327.17 140.81,336.32 152.86,336.32 151.87,342.92 132.08,342.92 "/>
      <polygon class="fil1" points="137.71,305.75 157.84,305.75 156.85,312.31 144.42,312.31 143.19,320.52 154.98,320.52 153.94,327.17 142.18,327.17 140.81,336.32 152.86,336.32 151.87,342.92 132.08,342.92 "/>
      <path class="fil1" d="M189.08 309.68l-4.13 5.41c-1.42,-1 -2.59,-1.76 -3.53,-2.26 -0.93,-0.51 -1.86,-0.77 -2.79,-0.77 -1.41,0 -2.57,0.41 -3.47,1.23 -0.9,0.82 -1.35,1.86 -1.35,3.13 0,1.11 0.49,2.08 1.46,2.91 0.96,0.83 2.63,1.76 4.99,2.78 1.89,1.19 3.18,2.1 3.88,2.73 0.69,0.64 1.35,1.58 1.96,2.84 0.61,1.26 0.92,2.63 0.92,4.12 0,3.21 -1.2,5.94 -3.61,8.2 -2.4,2.26 -5.32,3.38 -8.74,3.38 -4.09,0 -8.04,-1.6 -11.83,-4.81l4.36 -5.38c0.98,0.68 2.1,1.43 3.37,2.25 1.27,0.83 2.52,1.23 3.77,1.23 1.36,0 2.52,-0.45 3.48,-1.35 0.96,-0.89 1.45,-1.98 1.45,-3.24 0,-1.15 -0.48,-2.17 -1.43,-3.03 -0.96,-0.87 -2.39,-1.7 -4.29,-2.49 -1.9,-0.79 -3.26,-1.49 -4.06,-2.09 -0.8,-0.6 -1.61,-1.56 -2.41,-2.88 -0.8,-1.31 -1.2,-2.94 -1.2,-4.88 0,-3.31 1.2,-6.05 3.61,-8.21 2.4,-2.17 5.45,-3.26 9.13,-3.26 3.7,0 7.18,1.49 10.44,4.45z"/>
      <path class="fil1" d="M189.08 309.68l-4.13 5.41c-1.42,-1 -2.59,-1.76 -3.53,-2.26 -0.93,-0.51 -1.86,-0.77 -2.79,-0.77 -1.41,0 -2.57,0.41 -3.47,1.23 -0.9,0.82 -1.35,1.86 -1.35,3.13 0,1.11 0.49,2.08 1.46,2.91 0.96,0.83 2.63,1.76 4.99,2.78 1.89,1.19 3.18,2.1 3.88,2.73 0.69,0.64 1.35,1.58 1.96,2.84 0.61,1.26 0.92,2.63 0.92,4.12 0,3.21 -1.2,5.94 -3.61,8.2 -2.4,2.26 -5.32,3.38 -8.74,3.38 -4.09,0 -8.04,-1.6 -11.83,-4.81l4.36 -5.38c0.98,0.68 2.1,1.43 3.37,2.25 1.27,0.83 2.52,1.23 3.77,1.23 1.36,0 2.52,-0.45 3.48,-1.35 0.96,-0.89 1.45,-1.98 1.45,-3.24 0,-1.15 -0.48,-2.17 -1.43,-3.03 -0.96,-0.87 -2.39,-1.7 -4.29,-2.49 -1.9,-0.79 -3.26,-1.49 -4.06,-2.09 -0.8,-0.6 -1.61,-1.56 -2.41,-2.88 -0.8,-1.31 -1.2,-2.94 -1.2,-4.88 0,-3.31 1.2,-6.05 3.61,-8.21 2.4,-2.17 5.45,-3.26 9.13,-3.26 3.7,0 7.18,1.49 10.44,4.45z"/>
      <path class="fil1" d="M209.58 312.31l-1.55 10.51 1.56 0.06c1.95,0 3.6,-0.54 4.94,-1.62 1.35,-1.08 2.03,-2.39 2.03,-3.95 0,-1.77 -0.57,-3.03 -1.7,-3.81 -1.14,-0.78 -2.9,-1.17 -5.28,-1.19zm-6.7 -6.56l7.05 0c4.7,0 8.29,0.96 10.75,2.87 2.46,1.92 3.69,4.69 3.69,8.31 0,2.85 -0.67,5.36 -2.01,7.54 -1.33,2.18 -3.58,3.63 -6.73,4.35l7.24 14.11 -7.77 0 -6.9 -13.45 -1.16 0 -1.99 13.45 -7.7 0 5.52 -37.18z"/>
      <path class="fil1" d="M209.58 312.31l-1.55 10.51 1.56 0.06c1.95,0 3.6,-0.54 4.94,-1.62 1.35,-1.08 2.03,-2.39 2.03,-3.95 0,-1.77 -0.57,-3.03 -1.7,-3.81 -1.14,-0.78 -2.9,-1.17 -5.28,-1.19zm-6.7 -6.56l7.05 0c4.7,0 8.29,0.96 10.75,2.87 2.46,1.92 3.69,4.69 3.69,8.31 0,2.85 -0.67,5.36 -2.01,7.54 -1.33,2.18 -3.58,3.63 -6.73,4.35l7.24 14.11 -7.77 0 -6.9 -13.45 -1.16 0 -1.99 13.45 -7.7 0 5.52 -37.18z"/>
     </g>
    </g>
    <g>
     <polygon class="fil1" points="338.37,265.35 355.14,265.35 354.32,270.82 343.96,270.82 342.93,277.66 352.76,277.66 351.89,283.2 342.1,283.2 340.95,290.83 350.99,290.83 350.16,296.33 333.67,296.33 "/>
     <polygon class="fil1" points="338.37,265.35 355.14,265.35 354.32,270.82 343.96,270.82 342.93,277.66 352.76,277.66 351.89,283.2 342.1,283.2 340.95,290.83 350.99,290.83 350.16,296.33 333.67,296.33 "/>
     <polygon class="fil1" points="362.77,265.35 368.66,265.35 371.85,282.76 380.58,265.35 386.53,265.35 386.53,296.33 380.8,296.33 380.8,277.82 371.36,296.33 368.37,296.33 364.88,277.03 358.35,296.33 352.27,296.33 "/>
     <path class="fil1" d="M399.73 270.82l-1.33 8.7 1.72 0c1.53,0 2.8,-0.46 3.83,-1.36 1.03,-0.91 1.54,-2.02 1.54,-3.34 0,-1.13 -0.42,-2.08 -1.27,-2.84 -0.85,-0.77 -1.9,-1.15 -3.15,-1.15l-1.35 0zm-5.7 -5.48l6.45 0c7.75,0 11.63,3.27 11.63,9.82 0,1.72 -0.38,3.31 -1.16,4.79 -0.77,1.48 -1.74,2.6 -2.93,3.36 -1.18,0.77 -2.39,1.24 -3.65,1.43 -1.26,0.19 -3.51,0.3 -6.74,0.34l-1.66 11.25 -6.42 0 4.48 -30.98z"/>
     <path class="fil1" d="M423.98 270.82l-1.29 8.75 1.3 0.05c1.63,0 3,-0.45 4.13,-1.35 1.12,-0.9 1.68,-1.99 1.68,-3.29 0,-1.46 -0.47,-2.53 -1.41,-3.17 -0.95,-0.65 -2.41,-0.97 -4.41,-0.99zm-5.57 -5.48l5.88 0c3.91,0 6.9,0.8 8.95,2.39 2.05,1.59 3.08,3.91 3.08,6.92 0,2.38 -0.56,4.47 -1.68,6.28 -1.11,1.82 -2.98,3.02 -5.61,3.63l6.03 11.75 -6.47 0 -5.75 -11.21 -0.97 0 -1.65 11.21 -6.42 0 4.6 -30.98z"/>
     <polygon class="fil1" points="443.56,265.35 460.33,265.35 459.51,270.82 449.15,270.82 448.12,277.66 457.96,277.66 457.08,283.2 447.29,283.2 446.14,290.83 456.18,290.83 455.36,296.33 438.86,296.33 "/>
     <path class="fil1" d="M480.09 268.62l-3.45 4.51c-1.18,-0.83 -2.16,-1.46 -2.93,-1.89 -0.78,-0.42 -1.55,-0.64 -2.33,-0.64 -1.18,0 -2.14,0.34 -2.89,1.02 -0.75,0.69 -1.12,1.55 -1.12,2.61 0,0.93 0.4,1.74 1.21,2.43 0.81,0.69 2.2,1.46 4.17,2.32 1.57,0.99 2.65,1.75 3.23,2.27 0.58,0.53 1.13,1.32 1.64,2.36 0.51,1.05 0.77,2.19 0.77,3.43 0,2.67 -1.01,4.95 -3.01,6.83 -2.01,1.88 -4.44,2.82 -7.28,2.82 -3.42,0 -6.7,-1.34 -9.86,-4.01l3.64 -4.48c0.82,0.56 1.75,1.19 2.8,1.87 1.05,0.69 2.1,1.03 3.14,1.03 1.14,0 2.1,-0.38 2.9,-1.12 0.81,-0.75 1.21,-1.65 1.21,-2.71 0,-0.96 -0.4,-1.8 -1.19,-2.53 -0.79,-0.72 -1.99,-1.41 -3.58,-2.08 -1.59,-0.66 -2.71,-1.24 -3.38,-1.75 -0.67,-0.5 -1.33,-1.3 -2,-2.39 -0.67,-1.09 -1.01,-2.45 -1.01,-4.07 0,-2.75 1.01,-5.03 3.01,-6.84 2.01,-1.81 4.54,-2.71 7.61,-2.71 3.09,0 5.99,1.23 8.71,3.7z"/>
     <path class="fil1" d="M496.61 275.54l-4.9 9.13 7.2 0 -2.3 -9.13zm-1.11 -10.19l4.44 0 7.89 30.98 -6 0 -1.57 -6.23 -11.47 0 -3.34 6.23 -6.6 0 16.65 -30.98z"/>
    </g>
    <g>
     <path class="fil1" d="M343.86 357.81l-1.29 8.75 1.3 0.05c1.62,0 2.99,-0.45 4.12,-1.35 1.13,-0.9 1.69,-2 1.69,-3.29 0,-1.46 -0.47,-2.53 -1.42,-3.17 -0.95,-0.65 -2.41,-0.97 -4.4,-0.99zm-5.58 -5.48l5.88 0c3.91,0 6.91,0.8 8.96,2.39 2.05,1.59 3.07,3.91 3.07,6.92 0,2.38 -0.56,4.47 -1.67,6.28 -1.12,1.82 -2.98,3.02 -5.61,3.63l6.02 11.75 -6.46 0 -5.75 -11.21 -0.96 0 -1.66 11.21 -6.42 0 4.6 -30.98z"/>
     <path class="fil1" d="M343.86 357.81l-1.29 8.75 1.3 0.05c1.62,0 2.99,-0.45 4.12,-1.35 1.13,-0.9 1.69,-2 1.69,-3.29 0,-1.46 -0.47,-2.53 -1.42,-3.17 -0.95,-0.65 -2.41,-0.97 -4.4,-0.99zm-5.58 -5.48l5.88 0c3.91,0 6.91,0.8 8.96,2.39 2.05,1.59 3.07,3.91 3.07,6.92 0,2.38 -0.56,4.47 -1.67,6.28 -1.12,1.82 -2.98,3.02 -5.61,3.63l6.02 11.75 -6.46 0 -5.75 -11.21 -0.96 0 -1.66 11.21 -6.42 0 4.6 -30.98z"/>
     <polygon class="fil1" points="363.43,352.33 380.21,352.33 379.38,357.81 369.02,357.81 367.99,364.65 377.82,364.65 376.96,370.19 367.16,370.19 366.01,377.81 376.05,377.81 375.22,383.31 358.73,383.31 "/>
     <path class="fil1" d="M399.95 355.61l-3.45 4.51c-1.18,-0.83 -2.16,-1.46 -2.93,-1.89 -0.78,-0.42 -1.55,-0.64 -2.32,-0.64 -1.19,0 -2.15,0.34 -2.89,1.02 -0.74,0.69 -1.12,1.55 -1.12,2.61 0,0.93 0.4,1.74 1.22,2.43 0.81,0.69 2.2,1.46 4.16,2.31 1.58,1 2.65,1.76 3.24,2.28 0.58,0.53 1.13,1.32 1.63,2.36 0.51,1.05 0.77,2.19 0.77,3.43 0,2.67 -1.01,4.95 -3.01,6.83 -2,1.88 -4.43,2.82 -7.28,2.82 -3.41,0 -6.69,-1.34 -9.86,-4.01l3.63 -4.49c0.82,0.57 1.76,1.19 2.81,1.88 1.05,0.69 2.1,1.03 3.14,1.03 1.13,0 2.1,-0.38 2.9,-1.13 0.8,-0.74 1.2,-1.64 1.2,-2.7 0,-0.96 -0.4,-1.8 -1.19,-2.53 -0.79,-0.73 -1.99,-1.41 -3.57,-2.08 -1.59,-0.66 -2.72,-1.24 -3.38,-1.75 -0.67,-0.5 -1.34,-1.3 -2.01,-2.39 -0.67,-1.1 -1,-2.45 -1,-4.07 0,-2.75 1,-5.03 3.01,-6.84 2,-1.81 4.54,-2.71 7.61,-2.71 3.08,0 5.98,1.23 8.7,3.7z"/>
     <path class="fil1" d="M409.63 357.81l-1.33 8.7 1.72 0c1.53,0 2.81,-0.46 3.84,-1.36 1.03,-0.91 1.54,-2.03 1.54,-3.34 0,-1.13 -0.42,-2.08 -1.27,-2.84 -0.86,-0.77 -1.9,-1.15 -3.15,-1.15l-1.35 0zm-5.69 -5.48l6.44 0c7.76,0 11.64,3.27 11.64,9.82 0,1.72 -0.39,3.31 -1.16,4.79 -0.77,1.48 -1.75,2.6 -2.93,3.36 -1.18,0.77 -2.39,1.24 -3.65,1.43 -1.26,0.19 -3.51,0.3 -6.75,0.33l-1.66 11.26 -6.42 0 4.49 -30.98z"/>
     <path class="fil1" d="M450.14 367.22c0,-2.93 -0.83,-5.3 -2.47,-7.1 -1.64,-1.81 -3.8,-2.71 -6.47,-2.71 -2.75,0 -5.14,1.08 -7.17,3.24 -2.02,2.16 -3.03,4.73 -3.03,7.72 0,2.86 0.83,5.21 2.49,7.05 1.66,1.84 3.78,2.76 6.36,2.76 2.82,0 5.24,-1.08 7.26,-3.23 2.02,-2.16 3.03,-4.74 3.03,-7.74zm-8.35 -15.36c4.72,0 8.35,1.35 10.91,4.04 2.56,2.69 3.83,6.43 3.83,11.23 0,4.95 -1.59,8.97 -4.79,12.03 -3.19,3.07 -7.35,4.6 -12.48,4.58 -4.54,-0.02 -8.13,-1.39 -10.75,-4.12 -2.62,-2.73 -3.93,-6.45 -3.93,-11.15 0,-4.77 1.61,-8.73 4.81,-11.88 3.21,-3.15 7.34,-4.73 12.39,-4.73z"/>
     <polygon class="fil1" points="463.5,352.33 470.05,352.33 479.97,373.07 483.01,352.33 489.36,352.33 484.8,383.31 478.85,383.31 468.47,361.8 465.34,383.31 458.95,383.31 "/>
     <path class="fil1" d="M510.17 355.61l-3.45 4.51c-1.18,-0.83 -2.16,-1.46 -2.93,-1.89 -0.78,-0.42 -1.55,-0.64 -2.33,-0.64 -1.18,0 -2.14,0.34 -2.89,1.02 -0.75,0.69 -1.13,1.55 -1.13,2.61 0,0.93 0.41,1.74 1.22,2.43 0.81,0.69 2.2,1.46 4.17,2.31 1.57,1 2.65,1.76 3.23,2.28 0.58,0.53 1.13,1.32 1.64,2.36 0.51,1.05 0.77,2.19 0.77,3.43 0,2.67 -1.01,4.95 -3.01,6.83 -2.01,1.88 -4.44,2.82 -7.28,2.82 -3.42,0 -6.7,-1.34 -9.86,-4.01l3.64 -4.49c0.82,0.57 1.75,1.19 2.8,1.88 1.05,0.69 2.1,1.03 3.14,1.03 1.14,0 2.1,-0.38 2.9,-1.13 0.81,-0.74 1.21,-1.64 1.21,-2.7 0,-0.96 -0.4,-1.8 -1.19,-2.53 -0.79,-0.73 -1.99,-1.41 -3.57,-2.08 -1.59,-0.66 -2.72,-1.24 -3.39,-1.75 -0.67,-0.5 -1.33,-1.3 -2,-2.39 -0.67,-1.1 -1.01,-2.45 -1.01,-4.07 0,-2.75 1.01,-5.03 3.01,-6.84 2.01,-1.81 4.54,-2.71 7.61,-2.71 3.08,0 5.99,1.23 8.71,3.7z"/>
     <path class="fil1" d="M526.7 362.52l-4.9 9.13 7.2 0 -2.3 -9.13zm-1.11 -10.19l4.44 0 7.89 30.98 -6 0 -1.57 -6.24 -11.47 0 -3.34 6.24 -6.6 0 16.65 -30.98z"/>
     <path class="fil1" d="M551.18 357.45l-1.11 7.41 2.41 0c1.52,0 2.78,-0.34 3.77,-1.04 0.99,-0.69 1.49,-1.56 1.49,-2.6 0,-1.14 -0.42,-2.06 -1.27,-2.75 -0.85,-0.69 -2,-1.03 -3.47,-1.03l-1.81 0zm-1.84 12.3l-1.26 8.44 3.19 0c1.9,0 3.44,-0.38 4.61,-1.14 1.18,-0.76 1.77,-1.75 1.77,-2.96 0,-1.21 -0.56,-2.24 -1.64,-3.08 -1.1,-0.84 -2.43,-1.26 -4.02,-1.26l-2.64 0zm-3.78 -17.42l7.34 0c7.09,0 10.64,2.64 10.64,7.93 0,2.91 -1.46,5.31 -4.39,7.19 3.18,1.5 4.76,3.85 4.76,7.06 0,2.76 -1.15,4.93 -3.47,6.47 -2.32,1.55 -5.59,2.33 -9.81,2.33l-9.77 0 4.69 -30.98z"/>
     <polygon class="fil1" points="571.17,352.33 577.53,352.33 573.83,377.81 584.07,377.81 583.29,383.31 566.61,383.31 "/>
     <polygon class="fil1" points="591.84,352.33 608.61,352.33 607.79,357.81 597.43,357.81 596.4,364.65 606.23,364.65 605.36,370.19 595.56,370.19 594.42,377.81 604.45,377.81 603.63,383.31 587.14,383.31 "/>
    </g>
    <g>
     <path class="fil1" d="M355.53 311.31l-3.45 4.51c-1.18,-0.83 -2.16,-1.46 -2.93,-1.89 -0.78,-0.42 -1.55,-0.64 -2.33,-0.64 -1.18,0 -2.14,0.34 -2.89,1.02 -0.75,0.69 -1.12,1.55 -1.12,2.61 0,0.93 0.4,1.74 1.21,2.43 0.81,0.69 2.2,1.46 4.17,2.32 1.57,0.99 2.65,1.75 3.23,2.27 0.58,0.53 1.13,1.32 1.64,2.36 0.51,1.05 0.77,2.19 0.77,3.43 0,2.67 -1.01,4.95 -3.01,6.83 -2.01,1.88 -4.44,2.82 -7.28,2.82 -3.42,0 -6.7,-1.34 -9.86,-4.01l3.64 -4.49c0.82,0.57 1.76,1.19 2.8,1.88 1.05,0.69 2.1,1.03 3.14,1.03 1.14,0 2.1,-0.38 2.9,-1.12 0.81,-0.75 1.21,-1.65 1.21,-2.71 0,-0.96 -0.4,-1.8 -1.19,-2.53 -0.79,-0.73 -1.99,-1.41 -3.57,-2.08 -1.59,-0.66 -2.72,-1.24 -3.39,-1.75 -0.67,-0.5 -1.33,-1.3 -2,-2.39 -0.67,-1.1 -1.01,-2.45 -1.01,-4.07 0,-2.75 1.01,-5.03 3.01,-6.84 2.01,-1.81 4.54,-2.71 7.61,-2.71 3.09,0 5.99,1.23 8.71,3.7z"/>
     <path class="fil1" d="M355.53 311.31l-3.45 4.51c-1.18,-0.83 -2.16,-1.46 -2.93,-1.89 -0.78,-0.42 -1.55,-0.64 -2.33,-0.64 -1.18,0 -2.14,0.34 -2.89,1.02 -0.75,0.69 -1.12,1.55 -1.12,2.61 0,0.93 0.4,1.74 1.21,2.43 0.81,0.69 2.2,1.46 4.17,2.32 1.57,0.99 2.65,1.75 3.23,2.27 0.58,0.53 1.13,1.32 1.64,2.36 0.51,1.05 0.77,2.19 0.77,3.43 0,2.67 -1.01,4.95 -3.01,6.83 -2.01,1.88 -4.44,2.82 -7.28,2.82 -3.42,0 -6.7,-1.34 -9.86,-4.01l3.64 -4.49c0.82,0.57 1.76,1.19 2.8,1.88 1.05,0.69 2.1,1.03 3.14,1.03 1.14,0 2.1,-0.38 2.9,-1.12 0.81,-0.75 1.21,-1.65 1.21,-2.71 0,-0.96 -0.4,-1.8 -1.19,-2.53 -0.79,-0.73 -1.99,-1.41 -3.57,-2.08 -1.59,-0.66 -2.72,-1.24 -3.39,-1.75 -0.67,-0.5 -1.33,-1.3 -2,-2.39 -0.67,-1.1 -1.01,-2.45 -1.01,-4.07 0,-2.75 1.01,-5.03 3.01,-6.84 2.01,-1.81 4.54,-2.71 7.61,-2.71 3.09,0 5.99,1.23 8.71,3.7z"/>
     <path class="fil1" d="M382.56 322.92c0,-2.93 -0.82,-5.3 -2.46,-7.1 -1.65,-1.81 -3.81,-2.71 -6.48,-2.71 -2.75,0 -5.14,1.08 -7.16,3.24 -2.03,2.16 -3.03,4.73 -3.03,7.72 0,2.86 0.83,5.21 2.48,7.05 1.66,1.85 3.78,2.76 6.37,2.76 2.81,0 5.23,-1.08 7.25,-3.23 2.03,-2.16 3.03,-4.74 3.03,-7.74zm-8.35 -15.36c4.72,0 8.36,1.35 10.91,4.04 2.56,2.69 3.84,6.43 3.84,11.23 0,4.95 -1.6,8.97 -4.79,12.03 -3.2,3.07 -7.36,4.6 -12.49,4.58 -4.54,-0.02 -8.12,-1.39 -10.75,-4.12 -2.62,-2.73 -3.93,-6.45 -3.93,-11.15 0,-4.77 1.61,-8.73 4.82,-11.88 3.2,-3.15 7.33,-4.73 12.38,-4.73z"/>
     <path class="fil1" d="M418.74 310.16l-0.83 5.66c-2.06,-1.72 -4.45,-2.57 -7.19,-2.57 -3.09,0 -5.79,1.13 -8.1,3.4 -2.31,2.26 -3.47,4.89 -3.47,7.88 0,2.67 0.83,4.85 2.48,6.52 1.67,1.68 3.82,2.52 6.46,2.52 2.42,0 5.03,-0.77 7.84,-2.29l-0.92 6.29c-2.55,1.32 -5.14,1.99 -7.79,1.99 -4.59,0 -8.19,-1.45 -10.78,-4.34 -2.6,-2.89 -3.89,-6.33 -3.89,-10.31 0,-5.29 1.73,-9.5 5.21,-12.64 3.48,-3.14 7.3,-4.71 11.45,-4.71 3.79,0 6.96,0.87 9.53,2.6z"/>
     <polygon class="fil1" points="423.07,308.03 429.45,308.03 424.87,339.02 418.47,339.02 "/>
     <path class="fil1" d="M446.05 318.23l-4.9 9.13 7.2 0 -2.3 -9.13zm-1.11 -10.19l4.44 0 7.89 30.98 -6 0 -1.57 -6.23 -11.47 0 -3.34 6.23 -6.6 0 16.65 -30.98z"/>
     <polygon class="fil1" points="464.86,308.03 471.24,308.03 467.53,333.52 477.78,333.52 476.99,339.02 460.31,339.02 "/>
     <polygon class="fil1" points="489.31,308.03 495.2,308.03 498.4,325.45 507.12,308.03 513.07,308.03 513.07,339.02 507.34,339.02 507.34,320.51 497.91,339.02 494.92,339.02 491.43,319.71 484.89,339.02 478.81,339.02 "/>
     <polygon class="fil1" points="521.3,308.03 538.08,308.03 537.26,313.51 526.89,313.51 525.87,320.35 535.7,320.35 534.83,325.89 525.03,325.89 523.89,333.52 533.93,333.52 533.11,339.02 516.61,339.02 "/>
     <polygon class="fil1" points="541.83,308.03 548.39,308.03 558.3,328.78 561.35,308.03 567.69,308.03 563.15,339.02 557.19,339.02 546.81,317.51 543.67,339.02 537.28,339.02 "/>
     <polygon class="fil1" points="570.86,308.03 589.85,308.03 589.02,313.51 582.7,313.51 578.97,339.02 572.65,339.02 576.33,313.51 570.1,313.51 "/>
     <polygon class="fil1" points="593.22,308.03 610,308.03 609.18,313.51 598.82,313.51 597.79,320.35 607.62,320.35 606.75,325.89 596.95,325.89 595.81,333.52 605.85,333.52 605.03,339.02 588.53,339.02 "/>
    </g>
   </g>
  </g>
 </g>
</svg>
