<?xml version="1.0" encoding="UTF-8"?>
<!DOCTYPE svg PUBLIC "-//W3C//DTD SVG 1.1//EN" "http://www.w3.org/Graphics/SVG/1.1/DTD/svg11.dtd">
<!-- Creator: CorelDRAW -->
<svg xmlns="http://www.w3.org/2000/svg" xml:space="preserve" width="7.9368mm" height="7.9368mm" version="1.1" style="shape-rendering:geometricPrecision; text-rendering:geometricPrecision; image-rendering:optimizeQuality; fill-rule:evenodd; clip-rule:evenodd"
viewBox="0 0 391.76 391.76"
 xmlns:xlink="http://www.w3.org/1999/xlink"
 xmlns:xodm="http://www.corel.com/coreldraw/odm/2003">
 <defs>
  <style type="text/css">
   <![CDATA[
    .fil0 {fill:none}
    .fil1 {fill:#FFF5EF}
   ]]>
  </style>
 </defs>
 <g id="Capa_x0020_1">
  <metadata id="CorelCorpID_0Corel-Layer"/>
  <g id="_2489463724848">
   <circle class="fil0" cx="195.88" cy="195.88" r="195.88"/>
   <g>
    <path class="fil1" d="M109.78 300.54l172.41 0 0 1.11 -172.41 0 0 -1.11zm145.01 -17.46l1.33 0 0 11.5 -1.33 0 0 -11.5zm-133.07 0l1.33 0 0 11.5 -1.33 0 0 -11.5zm48.41 11.5l-1.55 0c0.86,-1.79 1.49,-3.94 2.27,-5.9l1.64 -4.34c0.47,-1.28 0.25,-1.25 1.62,-1.25 0.86,0 1.09,1.71 1.42,2.56 0.4,1.03 0.68,1.89 1.08,2.9l2.15 6.03 -1.54 0c-0.06,-0.76 -0.34,-1.38 -0.6,-2.06 -0.8,-2.08 -0.07,-1.7 -4.71,-1.7 -0.8,0 -1.58,2.97 -1.77,3.76zm19.89 -0.22l-5.08 0 0 -11.28 5.08 0c5.68,0 5.62,11.28 0,11.28zm74.49 0.44c-1.85,0 -3.16,-0.45 -4.16,-1.37 -3.46,-3.21 -2.16,-10.79 3.71,-10.79 8.24,0 7.61,12.16 0.44,12.16zm8.84 -0.44l-1.11 0 0 -11.28 1.55 0c0.18,0.68 2.38,3.69 2.96,4.56 0.68,1.02 2.48,4.01 3.22,4.51l0 -9.07 1.33 0 0 11.28c-1.77,0 -1.44,0.29 -3.01,-2.08 -0.65,-0.98 -4.05,-6.66 -4.95,-6.99l0 9.07zm-116.05 0l-1.32 0 0 -11.28 1.99 0c0.21,0.9 0.48,1.39 0.8,2.3 0.51,1.45 2.42,5.86 2.52,6.99l2.9 -6.82c0.25,-0.67 0.78,-1.64 0.85,-2.47l1.99 0 0 11.28 -1.33 0 0 -9.29c-0.57,0.66 -0.67,1.25 -0.96,2.13l-2.58 7.16 -1.32 0c-0.18,-0.77 -0.45,-1.55 -0.76,-2.34 -0.46,-1.19 -1.89,-6.29 -2.78,-6.95l0 9.29zm87.31 -11.28l8.18 0 0 1.11 -3.31 0 0 10.17 -1.33 0 0 -10.17 -3.54 0 0 -1.11zm-18.79 4.87l5.75 0 0 1.11 -5.75 0 0 4.2 6.85 0 0 1.33 -8.18 0 0 -11.5 7.96 0 0 1.11 -6.63 0 0 3.76zm-28.08 0l5.75 0 0 1.11 -5.75 0 0 4.2 6.86 0 0 1.33 -8.18 0 0 -11.5 7.96 0 0 1.11 -6.63 0 0 3.76zm-50.62 -0.66c0,0.51 0.16,0.66 0.67,0.66l5.31 0 0 1.11 -5.31 0c-1.06,0 -0.67,1.48 -0.67,4.2l6.85 0 0 1.33 -8.17 0 0 -11.5 8.17 0 0 1.11 -6.85 0 0 3.09zm-11.27 -4.21l8.4 0 0 1.11 -3.53 0 0 10.17 -1.33 0 0 -10.17 -3.54 0 0 -1.11zm100.14 2.21c0,3.6 7.3,1.56 7.3,5.31l0 1.33c0,3.63 -9.28,4.4 -9.28,-1.11 2.51,0 0.85,0.55 2.25,1.95 1.51,1.52 5.71,1.35 5.71,-1.51 0,-1.63 -2.58,-2.09 -3.98,-2.43 -1.56,-0.39 -3.54,-0.83 -3.54,-2.87 0,-3.95 6.52,-4.29 8.24,-1.39 0.43,0.73 0.29,0.95 0.6,1.6l-1.55 0c-0.3,-3.59 -5.75,-2.66 -5.75,-0.88zm-23.87 3.32c0,6.84 8.5,6.39 8.62,1.11l-3.98 0 0 -1.11 5.08 0 0 5.97 -1.11 0 0 -1.77c-0.57,0.39 -0.35,0.32 -0.79,0.76 -2.37,2.3 -9.15,1.83 -9.34,-4.75 -0.18,-6.17 8.07,-8.85 11.23,-2.85 -0.65,0.15 -0.68,0.22 -1.55,0.22 -0.8,-3.46 -8.17,-3.53 -8.17,2.43zm-77.37 2.65c0,4.65 -9.05,5.01 -9.51,-0.44l1.54 0c0.08,3.79 6.41,3.86 6.41,0.44 0,-3.57 -7.3,-0.63 -7.3,-5.75 0,-3.62 8.22,-4.21 8.62,0.66l-1.33 0c-0.86,-3.7 -5.89,-2.68 -5.88,-0.66 0.01,3.32 7.43,0.92 7.43,5.75zm-22.55 -5.97c0,2.08 1.13,1.86 3.95,2.68 2.45,0.72 3.35,0.85 3.35,3.73 0,3.52 -7.15,4.29 -8.93,0.97 -0.44,-0.82 -0.24,-1.15 -0.58,-1.86l1.54 0c0.21,2.49 1.73,2.87 3.76,2.87 2.89,0 4.01,-3.3 1.14,-4.24 -2.35,-0.77 -5.78,-0.65 -5.78,-3.5 0,-4.64 8.52,-4.32 8.62,0.22l-1.33 0c-0.89,-3.82 -5.75,-2.45 -5.75,-0.88zm151.19 -3.76c0.39,-0.74 0.87,-1.53 1.32,-2.21l1.33 0c-0.15,0.57 -1.26,2.18 -2.65,2.21zm-153.63 -6.41l172.41 0 0 1.11 -172.41 0 0 -1.11zm92.62 -21.88l5.08 0 0 5.31 -5.08 0 0 -5.31zm-74.27 -3.09c0,-0.87 1.55,-2.81 2.12,-3.63 0.45,-0.65 0.79,-1.06 1.2,-1.67l3.53 -5.08c2.75,-4.16 1.48,-3.32 7.07,-3.32l0 13.48 3.09 0 0 3.54c-3.89,0 -3.09,-0.95 -3.09,5.08l-5.08 0 0 -5.08 -8.84 0 0 -3.32zm109.86 8.84c-3.03,0 -5.14,-0.02 -7.18,-3.44 -2.44,-4.09 -2.2,-12.17 0.16,-16.18 3.06,-5.18 13.87,-5.8 13.87,7.68 0,3.82 -0.56,8.6 -3.63,10.74 -0.76,0.53 -2.05,1.19 -3.22,1.19zm-63.88 0c-2.89,0 -5.3,-0.06 -7.17,-3.44 -2.76,-4.94 -3.22,-19.55 6.51,-19.55 8.44,0 8.85,13.85 5.89,19.38 -0.5,0.93 -1.16,1.83 -2.01,2.41 -0.77,0.53 -2.05,1.19 -3.22,1.19zm-27.19 -11.27c0,-5.95 2.09,-11.71 7.96,-11.71 5.14,0 7.73,4.57 7.73,9.72 0,3.63 0.23,6.89 -1.72,10 -2.77,4.43 -9.42,4.73 -12.42,-0.49 -0.89,-1.54 -1.55,-5.05 -1.55,-7.51zm55.49 -5.97l5.08 0 0 5.08 -5.08 0 0 -5.08zm45.98 1.33l0 -3.32c2.17,-0.05 3.83,-0.73 5.14,-2.15 0.24,-0.26 0.29,-0.37 0.5,-0.61 0.8,-0.91 0.58,-0.56 4.3,-0.56l0 22.1 -5.08 0 0 -16.14c-1.45,0.03 -3.19,0.66 -4.86,0.66zm-63.89 0l0 -3.32c5.09,-0.11 5.32,-3.31 6.41,-3.31l3.54 0 0 22.1 -5.08 0 0 -16.14c-1.45,0.03 -3.19,0.66 -4.87,0.66zm-72.94 0l0 -3.32c4.75,-0.1 5.44,-3.31 6.41,-3.31l3.54 0 0 22.1 -5.08 0 0 -16.14c-1.45,0.03 -3.19,0.66 -4.87,0.66zm104.78 1.54c-1.33,-0.31 -3.65,-0.44 -5.31,-0.44 0,-2.88 0.56,-4.2 1.89,-5.85 3.53,-4.37 12.92,-2.25 12.92,3.2 0,4.05 -0.02,5.43 -3.15,8.56l-5.25 4.47 8.4 0 0 3.98 -15.03 0c0,-3.28 -0.36,-3.41 0.65,-4.22 0.32,-0.25 0.6,-0.47 1,-0.77 2.7,-2.1 7.44,-5.83 8.03,-9.22 0.94,-5.46 -3.25,-5.65 -4.01,-2.9 -0.5,1.8 -0.17,1.6 -0.13,3.18zm63.66 -3.98l-8.4 0c-0.23,0.98 -0.34,3.3 -0.66,3.98 0.93,-0.21 0.72,-0.37 1.52,-0.69 4.26,-1.69 8.87,1.71 8.87,6.21l0 1.55c0,3.88 -3.41,7.29 -7.3,7.29 -2.5,0 -5.34,0.1 -6.99,-2.07 -0.59,-0.77 -2.83,-5.22 -0.97,-5.22l4.2 0c0,5.12 5.75,4.63 5.75,0.22 0,-6.88 -4.76,-5.13 -5.31,-3.09 -1.41,-0.12 -2.93,-0.67 -4.42,-0.67 0.07,-0.81 0.32,-2.13 0.4,-2.91l0.9 -7.72c0.07,-0.69 -0.06,-1.08 0.69,-1.08l12.16 0c-0.02,1.11 -0.35,3.09 -0.44,4.2zm-174.4 -56.81c-0.21,-0.44 -0.32,-0.79 -0.44,-1.32 1.01,-0.24 1.72,-0.62 2.79,-0.97 1.13,-0.38 1.91,-0.68 2.93,-1.05 0.94,-0.34 1.94,-0.61 2.96,-1.01 0.82,-0.33 2.12,-0.87 3.03,-0.95l0.26 1.32c-0.78,0.37 -1.89,0.67 -2.78,1.02l-8.75 2.97zm105.22 -9.95c0,-3.4 0.88,-7.3 1.86,-9.85 2.41,-6.29 5.4,-9.85 11.18,-12.7 5.45,-2.69 10.61,-2.21 16.81,-2.21 8.4,0 14.91,4.3 18.84,10.12 5.87,8.7 5.07,20.08 0.54,29.16 -0.52,1.05 -1.71,2.92 -2.43,3.76 -6.1,7.2 -11.54,7.58 -20.49,7.58 -10.67,0 -16.27,-2.62 -22.01,-10.48 -1,-1.36 -1.63,-2.78 -2.27,-4.36 -1.14,-2.82 -2.02,-7.79 -2.02,-11.02zm72.72 1.99c0.25,1.08 0.83,1.66 0.24,3.11 -0.36,0.86 -1.21,1.56 -2.44,1.54 -0.73,-0.02 -5.61,-1.49 -6.2,-1.78 0.05,-0.6 0.1,-0.6 0.22,-1.1 2.8,0.23 6.87,3.32 7.63,0.08 0.44,-1.86 -1.05,-2.45 -2.23,-2.83 -1.27,-0.4 -3.05,-0.75 -4.07,-1.24 0.11,-0.5 0.17,-0.51 0.22,-1.1 0.99,0.08 6.7,2.1 7.96,2.21 -0.12,0.5 -0.17,0.51 -0.22,1.11l-1.11 0zm-173.96 0.44c1.49,0 5.01,-0.86 5.97,-1.33 0.25,0.52 0.2,0.8 0.44,1.33 -1.2,0.1 -3.19,0.77 -4.24,1.06 -3.96,1.09 -3.93,1.38 -3.93,-0.4l0.88 -0.44c-0.78,-0.07 -0.96,-0.28 -1.37,-0.84 -0.64,-0.86 -0.62,-1.29 -0.62,-2.26 0,-2.72 4.89,-2.5 7.52,-3.76l0.26 1.32 -5.42 1.47c-2.48,1.07 -0.4,3.84 0.52,3.84zm168.22 -8.18c0,-6.18 8.62,-4.72 8.62,-0.88 0,1.47 0.03,2.4 -1.04,3.6 -1.81,2.03 -7.58,1.21 -7.58,-2.71zm-165.34 -3.54c1.08,0.02 0.71,-0.22 1.08,0.47 0.07,0.14 0.25,1.22 0.25,1.52 0,0.92 -3,1.16 -3.96,1.35 -0.67,0.13 -1.67,0.23 -2.29,0.38 -1.39,0.33 -0.71,0.38 -0.61,1.59 -0.87,0.02 -0.52,-0.06 -1.11,0.22l0 -1.33c-1.15,0 -1.99,0.42 -2.87,0l0 -0.88c0.84,-0.07 1.58,-0.37 2.43,-0.44 0,-0.87 -0.07,-0.9 -0.22,-1.54 0.59,-0.05 0.6,-0.1 1.11,-0.22 0,0.87 0.07,0.9 0.22,1.55l5.62 -1.03c0.85,-0.38 0.38,-0.69 0.35,-1.62zm177.5 -3.09c0.52,0.12 0.65,0.21 1.33,0.22l0 1.11 -1.55 0c0.12,-0.52 0.21,-0.65 0.22,-1.33zm-10.83 -1.11c2.27,0 6.17,0.84 8.18,0.89 -0.03,1.56 -0.35,1.28 -4.07,0.76 -4.04,-0.56 -4.11,0.09 -4.11,-1.64zm-150.97 -11.27l31.61 0 0 12.16 -6.85 0 0 25.42 6.85 0 0 12.16 -31.61 0 0 -12.16 6.85 0 0 -25.42 -6.85 0 0 -12.16zm49.96 12.6c0,3.95 14.71,5.91 19.48,7.49 3.37,1.12 5.89,3.06 7.84,5.64 6.66,8.84 5.23,21.01 -7.6,24.05 -5.23,1.24 -11.43,1.03 -16.43,-0.46 -1.55,-0.46 -4.4,-1.41 -5.79,-2.17 -0.79,-0.43 -0.94,-0.73 -1.92,-0.96l0 3.53 -10.61 0 0 -17.9 9.5 0c0.51,2.18 3.78,4.78 5.62,5.88 3.63,2.16 9.44,2.76 13.97,1.99 2.73,-0.46 4.63,-3.22 -4.51,-5.48 -7.33,-1.82 -16.98,-4.26 -21.74,-10.75 -1.62,-2.21 -2.41,-4.42 -2.63,-7.99 -0.09,-1.54 -0.13,-3.04 0.2,-4.67 1.17,-5.69 5.31,-9.28 10.78,-10.88 11.2,-3.29 20.83,3.42 22.63,3.84l0 -3.09 11.05 0 0 16.8 -10.17 0c-0.58,0 -1.01,-1.32 -2.7,-3.04 -2.8,-2.85 -16.97,-6.56 -16.97,-1.82zm-68.3 -5.52c4.1,0.34 4.67,7.73 -1.55,7.73 -5.25,0 -5.53,-7.73 0.22,-7.73 0,2.27 0.44,3.91 0.44,6.18 3.79,0 3.42,-3.75 2.12,-4.55 -1.07,-0.67 -1.24,0.11 -1.24,-1.63zm180.37 1.1l0 0.67c-2.24,0 -2.65,-1.06 -2.65,1.33l-1.11 0c0.07,-0.86 0.2,-0.58 0.22,-1.55l-3.95 -0.25c-1.85,-0.22 -2.46,-0.93 -2.46,1.36 -1.87,-0.43 -0.98,-2.65 -0.22,-2.65l6.63 0.22c0,-1.33 -0.06,-1.3 1.11,-1.33 0,1.97 0.11,1.55 2.65,1.55 -0.15,0.27 -0.22,0.24 -0.22,0.66zm-186.34 -7.07l1.33 0c0.08,3.6 2.7,2.87 7.07,2.87l0 1.11c-3.01,0 -5.19,0.22 -8.18,0.22l0 -1.33 1.32 0c-0.36,-0.53 -0.7,-0.69 -1.02,-1.19 -0.43,-0.68 -0.26,-1.08 -0.53,-1.68zm181.48 -3.31c2.71,0 2.66,1.8 2.66,3.53 0,1.93 -0.89,2.66 -2.86,2.67 -2.66,0.01 -4.3,-0.5 -4.43,1.1l-0.88 0c-0.56,-1 -0.21,-1.74 0.88,-1.99 -0.23,-0.85 -0.39,-0.53 -0.82,-1.39 -1.03,-2.03 -0.41,-4.35 2.14,-4.35 1.84,0 2.2,2.27 2.37,3.83 0.13,1.21 -0.21,1.92 1.26,1.62 2.16,-0.45 1.96,-3.71 -0.31,-3.9l0 -1.1zm-180.15 -1.99c0,1.06 1.05,2.04 2.45,2.19l4.62 0.24 0 1.33 -8.18 -0.67 0 -1.1 1.11 0c-0.29,-1.08 -1.11,-0.84 -1.11,-2.43 0,-3.47 2.93,-3.08 5.59,-2.71 2.26,0.31 3.04,-0.71 3.04,1.39 -4.31,0 -7.52,-1.4 -7.52,1.77zm180.82 -5.96l1.1 0c0,2.04 0.44,3.51 0.44,5.75 -1.37,0.32 -1.72,-0.34 -3.8,-1.73 -0.9,-0.6 -2.74,-1.99 -3.72,-2.25 0.03,1.57 0.44,2.98 0.44,4.86l-0.88 0c-0.16,-1.98 -0.66,-4.28 -0.66,-6.41 1.74,0 1.78,0.44 4.15,2.03 1.15,0.77 2.25,1.42 3.36,2.17 0,-1.45 -0.27,-3.1 -0.44,-4.42zm-7.52 -1.11l0 -1.33c1.64,0 4.89,-0.75 6.74,-1.04 1.24,-0.2 1.34,-0.08 1.44,1.04 -2.26,0.19 -6.24,1.33 -8.18,1.33zm10.61 -3.1l1.54 0 0 1.11 -1.32 0.25c-0.13,-0.55 -0.21,-0.69 -0.23,-1.36zm-176.39 0c3.53,5.28 -3.76,7.21 -3.76,3.32l0 -3.97c-1.56,0 -2.87,-0.39 -2.87,2.43 0,1.1 1.33,0.82 1.33,1.77 0,1.28 -2.21,0.76 -2.21,-1.99 0,-1.92 1.08,-3.53 1.99,-3.53 2.04,0 3,0.66 5.31,0.66 1.03,0 0.27,-0.61 1.02,-0.73 0,0 0.7,0.06 0.75,0.06 -0.03,1.3 -0.3,1.88 -1.54,1.98zm168.88 -9.06c2.83,0 4.87,2.61 3.09,5.96 1.7,-0.39 3.45,-0.94 5.08,-1.32l0.26 1.32 -11.96 2.93c-0.07,-0.74 -0.01,-0.47 -0.23,-0.93 0.49,-0.68 -0.14,-0.36 0.88,-0.44 -0.18,-0.27 -2.63,-1.72 -1.73,-4.81 0.46,-1.59 2.44,-2.7 4.6,-2.7zm-167.55 3.97c0.49,-0.93 0.24,-1.06 0.88,-1.32 0.45,0.43 0.6,0.48 0.39,1.46 -0.49,2.3 -2.83,0.73 -7.46,-0.35 -0.21,0.44 -0.32,0.79 -0.44,1.33 -0.48,-0.11 -0.61,0.02 -0.79,-0.52 -0.44,-1.25 0.71,-0.06 -0.1,-1.05 -0.24,-0.29 -1.73,-0.53 -2.2,-0.64 0.02,-1.21 0.05,-1.31 0.86,-1.14 0.86,0.18 0.91,0.45 2.01,0.47 0.02,-1.01 0.67,-2.09 1.15,-1.07 0.65,1.41 -2.3,0.89 3.18,2.26 0.84,0.21 1.72,0.51 2.52,0.57zm-5.75 -6.18c1.32,0.11 2.76,0.77 3.95,1.13 1.22,0.38 2.91,0.77 4.01,1.3 -0.19,0.39 -0.26,0.72 -0.44,1.11l-7.73 -2.43c0.12,-0.5 0.17,-0.51 0.22,-1.1zm-2.65 0.22c-0.97,-0.02 -0.69,-0.15 -1.54,-0.22 0.12,-0.54 0.23,-0.89 0.44,-1.33 0.44,0.21 0.79,0.32 1.33,0.44 -0.14,0.59 -0.13,0.42 -0.22,1.11zm175.73 -2.43c1.18,0.27 2.1,0.85 2.21,2.21 -0.52,0.12 -0.65,0.2 -1.33,0.22 -0.34,-4.08 -5.71,-0.59 -7.51,-0.44 -0.05,-0.6 -0.1,-0.6 -0.22,-1.11 0.81,-0.39 6.95,-2.59 7.73,-2.66l0.25 0.88c-0.73,0.97 -0.43,-0.06 -1.14,0.89zm-166.45 1.99c-3.53,0 -6.43,-3.06 -4.2,-6.63 1.86,-2.99 7.66,-1.46 7.85,2.26 0.1,2.1 -1.44,4.37 -3.65,4.37zm162.25 -11.72c1.25,0 1.79,0.41 2.35,1.19 3.82,5.23 -3.98,5.44 -4.61,6.93 -0.43,1.01 0.6,0.78 -0.84,1.16 -0.65,-0.97 -0.65,-1.46 0,-2.43 -4.55,-2.41 -2.16,-5.75 -0.44,-5.75 1.21,0 1.88,0.85 2.4,1.57 0.56,0.75 1.14,1.8 1.57,2.63 1.74,-0.92 2.58,-1.45 0.88,-3.98l-1.77 0c-0.14,-0.58 -0.52,-1.33 0.44,-1.33zm-91.51 28.29c-10.92,5.78 -21,-8.66 -21,-21.44 0,-8.67 1.33,-14.65 4.72,-22.25 0.32,-0.72 0.87,-1.84 1.03,-2.51 0.55,0.4 1.46,2.19 1.95,2.92 0.74,1.1 1.3,1.93 2.09,2.99 0.78,1.04 1.4,1.86 2.22,2.87 2.61,3.23 9.93,11.15 12.53,12.89l-0.76 3.44c-1.18,6.66 0.29,11.79 3.86,17.12 -2.91,-0.07 -5.34,-1.62 -7.39,-3.22 -3.86,-3.01 -6.66,-8.19 -8.59,-12.63 -0.54,-1.25 -1.06,-2.54 -1.51,-3.8 -0.41,-1.14 -0.89,-3.33 -1.52,-3.78 0,7.92 2.26,12.26 6.09,18.66 0.69,1.16 1.24,2.02 2.02,3.06l4.26 5.68zm-70.51 -29.84c0,1.63 1,1.94 2.22,2.65 0.71,0.4 2.51,1.37 3.3,1.55 -0.06,0.75 -0.17,0.81 -0.44,1.33 -1.24,-0.66 -2.29,-1.26 -3.61,-1.92l-3.68 -1.84c0.24,-0.45 0.31,-0.52 0.44,-1.1 0.59,0.13 0.65,0.2 1.11,0.44 -0.07,-0.81 -0.22,-0.63 -0.22,-1.77 0,-0.99 1.07,-2.66 1.99,-2.66 1.91,0 2.09,0.11 4.16,1.37 0.96,0.58 1.94,0.99 2.92,1.5 -0.24,0.46 -0.31,0.52 -0.44,1.11l-4.27 -2.14c-0.77,-0.39 -1.37,-0.81 -2.11,-0.5 -0.63,0.27 -1.35,1.05 -1.35,1.98zm154.95 2.43c-0.15,-0.65 0.03,-0.32 -0.44,-0.67l0.64 -0.69c0.03,-0.02 0.1,-0.08 0.12,-0.1 0.02,-0.02 0.08,-0.06 0.12,-0.1 -4.19,-0.35 -4.56,-7.96 2.21,-7.96 1.54,0 3.32,2.12 3.32,3.53 0,0.83 -0.15,0.42 -0.22,1.33 0.93,-0.22 3.37,-1.88 4.42,-2.43 0.3,0.44 0.4,0.61 0.67,1.1 -1.82,0.96 -9.6,5.87 -10.83,5.97zm-149.87 -8.62c-0.71,0.52 -0.18,0.37 -0.88,0.88 -0.95,-1.42 -0.89,-1 -0.89,-2.43 0,-1.11 1.16,-3.32 3.32,-3.32 1.11,0 3.97,2.29 5.08,2.87 0.95,-0.63 0.42,-0.78 1.55,-0.22 -0.36,1.33 -1.01,1.54 -1.99,1.33 0,6.25 -5.08,4.76 -5.08,2.43 0,-1.49 1.21,-3.37 1.77,-4.42 -1.09,-0.73 -2.52,-1.78 -3.52,0.7 -0.44,1.11 0.15,1.42 0.65,2.18zm76.26 34.71c-1.87,-1.37 -5.97,-9.98 -5.97,-14.59 0,-6.37 1.49,-10.06 5.25,-14.65 1.45,-1.76 2.6,-3.05 4.2,-4.64 0.72,-0.72 1.48,-1.58 2.23,-2.19 0.99,-0.78 1.54,-1.5 2.43,-2.21 4.46,-3.56 15.81,-13.91 15.95,-19.86 2.32,1.7 5.42,14.72 5.96,18.58 1.63,11.76 1.2,30.75 -7.89,39.84 -1.88,1.87 -4.87,3.86 -8.24,4.14 -6.09,0.49 -6.8,-0.98 -10.16,-1.77 0.49,-0.74 1.22,-1.11 1.93,-1.82 0.74,-0.74 1.09,-1.27 1.77,-1.99 3.24,-3.4 6.51,-10.01 8.3,-14.47 2.62,-6.54 4.44,-13.81 5.62,-20.9 0.19,-1.13 0.5,-2.36 0.5,-3.47 -0.17,0.25 -0.04,-0.16 -0.3,0.59 -0.16,0.45 -0.07,0.22 -0.17,0.72 -0.12,0.57 -0.24,1.09 -0.39,1.6 -0.96,3.21 -1.59,5.69 -2.83,8.88 -0.38,0.96 -0.68,1.73 -1.1,2.66 -2.92,6.56 -5.57,11.54 -9.9,17.3 -0.59,0.78 -1.02,1.4 -1.62,2.13 -0.88,1.08 -4.73,5.58 -5.58,6.14zm71.35 -42.48c2.33,0.03 3.36,1.55 3.36,2.91 0,1.65 -2.61,3.26 -4.24,4.37 -0.69,0.48 -1,0.77 -1.72,1.15 -0.17,-0.65 -0.09,-0.36 -0.44,-0.88 1.16,-1.72 5.08,-3.12 5.08,-4.86 0,-0.67 -0.9,-1.62 -1.44,-1.89 -1.77,-0.87 -3.93,1.64 -6.29,3.22 -0.29,-0.44 -0.4,-0.61 -0.66,-1.11l6.41 -4.64 0.85 0.7 -0.89 1.03zm-147.39 -3.72l9.5 7.52 -0.7 0.85c-1.16,-0.77 -8.8,-7.02 -9.68,-7.26 0.19,-0.73 0.32,-0.73 0.88,-1.11zm139.44 -3.72c3.45,-1.84 5.12,1.75 5.26,2.7 0.3,2.15 -4.12,4.26 -4.12,5.22 0,0.64 0.58,1.81 -0.69,1.18 -0.75,-0.37 -0.76,-1.35 -0.42,-2.07 -4.02,-0.09 -5.32,-5.3 -1.32,-5.3 1.4,0 3.21,1.98 4.2,2.65 0.11,-0.18 2.47,-2.01 0.03,-3.59 -0.93,-0.6 -1.25,-0.18 -2.25,0.05l-0.7 -0.85zm-131.93 -2.25c0,-2.88 0.63,-4.52 3.32,-6.18 3.13,-1.93 9.5,0.09 9.5,6.63 0,2.53 -3,5.52 -5.53,5.52l-1.33 0c-2.57,0 -5.97,-3.39 -5.97,-5.97zm131.35 -1.71l1.1 1.23c-1.27,0.86 -0.77,0.52 -1.81,-0.18 -0.5,0.34 -3.98,3.5 -3.98,4.42 0,0.94 0.22,-0.11 0.66,1.1l-0.48 0.4c-0.7,-0.15 -1.73,-0.82 -1.73,-1.72 0,-1 3.06,-3.28 4.42,-5.31l-0.93 -1.07c1.27,-0.86 0.77,-0.51 1.81,0.18l1.94 -1.82 0.75 0.9 -1.76 1.86zm-116.98 -5.36c0,1.24 2.34,3.85 3.32,5.31 -0.49,0.26 -0.67,0.37 -1.11,0.67 -0.78,-1.49 -3.69,-4.87 -4.86,-6.63 0.44,-0.3 0.61,-0.4 1.11,-0.67 0.27,0.4 0.57,0.75 0.88,1.11 0,-1.74 0.5,-2.39 1.54,-3.09 0.15,0.58 0.39,0.8 0.66,1.33 -0.84,0.23 -1.54,0.93 -1.54,1.99zm111.85 4.2c0,1.43 -1.5,3.32 -2.87,3.32 -2.7,0 -4.23,-0.77 -5.79,-3.06 -0.98,-1.44 -0.73,-3.22 0.04,-4.68l1.32 0.68c-0.14,0.58 -0.66,1.48 -0.66,1.98 0,1.47 1.44,2.97 2.49,3.48 0.74,0.36 1.53,0.47 2.14,0.27 3.97,-1.32 -0.68,-5.46 -1.54,-6.85 -2.01,-3.27 1.92,-6.61 5.91,-3.25 1.82,1.53 2.36,3.65 1.38,5.68 -0.52,-0.28 -0.75,-0.51 -1.32,-0.66 2.24,-4.24 -4.65,-6.95 -4.8,-3.51 -0.06,1.48 2.64,3.91 3.29,5.24 0.15,0.3 0.4,1.02 0.4,1.37zm-22.55 -8.18c-3.35,0 -5.88,-2.85 -3.4,-6.94 1.83,-3.01 7.16,-1.81 7.16,1.85 0,2.83 -1.67,5.08 -3.76,5.08zm-81.56 -3.76c0.81,-0.22 0.28,-0.23 1.11,-0.44 0.46,0.88 0.84,1.44 1.31,2.22 0.45,0.76 0.86,1.49 1.34,2.2 0.58,0.87 2.43,3.68 2.43,4.86 0,2.65 -4.8,5.5 -6.86,2.43 0.63,-0.17 0.68,-0.29 1.11,-0.66 0.62,0.41 0.77,0.88 1.77,0.88 1.08,0 2.42,-1.1 2.7,-1.95 0.4,-1.18 -0.86,-2.24 -1.16,-3.35l-0.44 0c-0.07,3.28 -4.41,4.5 -6.42,1.78 -3.43,-4.64 0.53,-7.08 2.22,-7.08 0.83,0 0.42,0.14 1.33,0.22 -0.24,-0.46 -0.26,-0.69 -0.44,-1.11zm89.3 0.22c1.4,-0.33 1.7,-0.33 3.09,0 -0.16,0.69 -0.28,0.64 -0.44,1.32 -1.02,-0.24 -2.57,-1.98 -4.35,1.4 -0.33,0.63 -0.46,1 -0.83,1.6 -0.4,0.65 -0.6,0.83 -0.79,1.64 -0.82,-0.22 -0.29,-0.22 -1.11,-0.44 0.06,-0.8 1.4,-2.9 1.84,-3.69 0.71,-1.28 1.26,-2.36 1.92,-3.6 0.46,0.24 0.53,0.3 1.11,0.44 -0.15,0.67 -0.27,0.65 -0.44,1.33zm-84 -1.11c0,0.51 0.07,0.26 0.22,0.88 -1.11,0.26 -1.33,0.47 -1.33,-0.88 0,-2 2.29,-2.88 4.42,-2.88 1.07,0 2.01,2.48 2.43,3.32 0.11,0.23 0.86,1.8 0.98,1.91 1.1,1.01 1.27,-0.97 1.45,1.18 -1.63,0.39 -0.79,0.87 -2.43,-0.22 -0.14,0.62 -0.54,1.29 -0.95,1.7 -2.65,2.66 -7.58,-0.54 -2.62,-3.94 0.67,-0.46 1.35,-0.67 1.8,-1.29 -0.71,-3.04 -3.98,-1.29 -3.98,0.22zm41.34 -7.52c0,-1.6 0.22,-2.21 0.22,-3.76l1.1 0 0 8.18 -1.32 0 0 -4.42zm-30.73 9.95c-0.44,0.21 -0.79,0.32 -1.33,0.44 -0.44,-1.89 -1.35,-3.92 -1.96,-5.78 -0.24,-0.72 -0.54,-1.3 -0.69,-1.96 0.52,-0.12 0.65,-0.2 1.33,-0.22 0.14,0.61 0.1,0.5 0.44,0.88 0.3,-1.27 0.87,-1.85 2.05,-2.17 1.23,-0.34 2.18,-0.1 2.86,0.8 0.4,0.53 2.18,5.38 2.38,6.23 -0.39,0.19 -0.72,0.26 -1.11,0.44 -0.71,-1.35 -1.64,-5.1 -2.33,-5.85 -1.33,-1.44 -4.04,0 -3.39,2.49l1.74 4.68zm33.82 -9.06c0,-6.27 7.95,-5.16 7.95,-1.11 0,2.39 -0.52,5.31 -3.76,5.31 -2.52,0 -4.2,-1.68 -4.2,-4.2zm-28.74 -1.11c0.39,-0.19 0.72,-0.25 1.11,-0.44l2.21 7.96c-0.52,0.12 -0.65,0.21 -1.32,0.22l-1.99 -7.74zm3.76 0c-0.12,-0.5 -0.17,-0.51 -0.22,-1.1l5.75 -1.11c0.14,0.59 0.22,0.42 0.22,0.89 0,0.28 -3.14,6.33 -3.53,7.07 0.84,-0.07 1.85,-0.35 2.78,-0.54 2.01,-0.42 2.21,-0.63 2.31,0.54l-6.41 1.33c0,-3.17 2.61,-4.93 3.32,-7.96 -1.36,0.32 -2.83,0.57 -4.2,0.88zm54.38 -0.66c-0.49,-0.23 -0.87,-0.39 -1.55,-0.44 -0.44,0.66 -0.4,0.32 -0.76,1.23 -0.23,0.59 -0.33,0.94 -0.35,1.64 0.54,0.12 0.89,0.23 1.33,0.44 -0.2,0.4 -0.17,0.28 -0.22,0.88 -0.68,-0.05 -1.06,-0.21 -1.54,-0.44 -1.08,2.02 -1.62,5.87 -2.66,6.63l-0.87 -0.25c0.06,-0.78 1.83,-5.23 2.2,-6.83 -0.92,-0.21 -1.03,-0.13 -1.11,-1.11 1.43,-0.68 1.23,1.12 1.97,-1.12 0.7,-2.11 1.14,-1.97 2.45,-1.97 0.39,0 0.8,0.09 1.03,0.29 0.38,0.34 0.18,0.29 0.08,1.04zm-17.46 -0.44c1.02,-0.55 2.84,-1.51 4.38,0.03 1.69,1.68 -0.33,4.66 -0.4,7.92 -2.79,0 -0.22,-1.66 -0.22,-6.19 0,-1.38 -2.38,-2.18 -3.7,-0.83 -0.69,0.71 -1.38,5.14 -1.38,5.92l-1.33 0c0.03,-1.13 0.51,-2.9 0.76,-4.11 0.25,-1.28 0.69,-2.9 0.79,-4.07 0.61,0.3 0.42,0.22 1.33,0.22 -0.29,0.6 -0.2,0.24 -0.22,1.11zm-27.85 0.88l-1.33 0c0.24,-2.87 2.23,-2.87 4.21,-2.87 1.53,0 2.05,1.04 2.2,2.44 0.14,1.26 0.45,3 0.45,4.19 0.59,0.28 0.24,0.2 1.11,0.22l0 1.1c-2.22,0 -1.2,-0.05 -2.43,-0.88 -3.31,4.94 -10.43,-2.91 -0.22,-3.76 -0.31,-3.71 -3.92,-2.9 -3.98,-0.44zm-12.6 -3.98l0.25 1.32c-0.63,0.05 -0.64,0.11 -1.14,0.23 -0.51,-1.07 -0.79,-1.55 0.89,-1.55zm20.78 -0.44l0 -1.33 1.33 0 0 2.43 1.54 0 0 1.11c-2.51,0 -1.29,0.36 -1.32,3.53 -0.03,3.39 0.08,2.78 1.54,2.66l0 1.1c-3.09,0 -2.53,0.2 -2.7,-1.5 -0.59,-5.73 0.8,-5.79 -1.72,-5.79l0 -0.88c2.2,0 1.33,-0.17 1.33,-1.33zm4.87 -2.87l1.1 0 0 1.33 -1.1 0 0 -1.33zm-104.78 29.62l0 221.71c0,7.2 1.01,12.98 3.12,18.1 4.08,9.91 11.03,17.01 20.6,21.84 4.25,2.14 10.87,4.05 17.17,4.05l125.77 0c8.53,0 16.81,-3.09 23.08,-7.42 3.64,-2.51 7.76,-6.67 10.3,-10.26 4.59,-6.5 7.52,-15.09 7.52,-23.43l0 -227.02c0,-3.24 -0.45,-6.76 -1.06,-9.33 -1.85,-7.82 -5.63,-14.48 -11.26,-20.12 -6.68,-6.69 -16.61,-12.1 -29.9,-12.1l-122.9 0c-13.89,0 -23.53,5.6 -30.56,12.54 -3.23,3.19 -6.93,8.92 -8.59,13.07 -2.2,5.46 -3.28,10.66 -3.28,18.38z"/>
    <path class="fil1" d="M229.15 169.69c0,5.86 -0.85,18.35 7.51,18.35l1.55 0c8.29,0 7.3,-11.27 7.3,-17.02 0,-5.81 -2.36,-10.39 -8.4,-10.39 -2.31,0 -4.66,0.66 -6.14,2.26 -1.29,1.38 -1.82,4.18 -1.82,6.8z"/>
    <path class="fil1" d="M233.79 247.27c0,1.83 0.07,3.6 0.53,5.22 1.07,3.78 4.3,3.57 5.31,0.17 0.75,-2.57 1.58,-12.69 -2.74,-12.69 -2.59,0 -3.09,4.49 -3.09,7.3z"/>
    <path class="fil1" d="M169.91 247.27c0,1.83 0.07,3.6 0.53,5.22 1.07,3.77 5.88,5.13 5.88,-5 0,-3.25 -0.31,-7.51 -3.32,-7.51 -2.59,0 -3.09,4.49 -3.09,7.3z"/>
    <path class="fil1" d="M151.78 245.51c0,2.41 -0.64,9.72 3.09,9.72 3.56,0 3.09,-6.89 3.09,-9.28 0,-8.34 -6.19,-7.55 -6.19,-0.44z"/>
    <path class="fil1" d="M129.23 85.03c0,3.11 2.77,5.96 5.97,5.96 2.03,0 4.2,-1.99 4.2,-4.42 0,-2.44 -2.6,-5.75 -5.97,-5.75 -2.06,0 -4.2,2.14 -4.2,4.21z"/>
    <path class="fil1" d="M259.87 288.61c0,6.59 8.62,7.17 8.62,-0.22 0,-6.29 -8.62,-6.2 -8.62,0.22z"/>
    <path class="fil1" d="M186.27 293.25c5.04,0 6.41,0.2 6.41,-5.52 0,-4.13 -3.76,-3.53 -6.41,-3.53l0 9.06z"/>
    <path class="fil1" d="M228.48 71.54c0,3.19 3.55,3.64 5,1.02 1.89,-3.42 -0.47,-5 -1.91,-5 -1.53,0 -3.09,2.27 -3.09,3.98z"/>
    <path class="fil1" d="M110.89 119.07c0,2.83 6.63,4.61 6.63,0.22 0,-2.85 -6.63,-4.84 -6.63,-0.22z"/>
    <path class="fil1" d="M146.7 75.96c0,3.97 5.97,5.61 5.97,1.11 0,-2.27 -2.43,-3.76 -2.87,-3.76 -1.4,0 -3.09,1.33 -3.09,2.65z"/>
    <path class="fil1" d="M201.07 64.02c0,4.18 5.31,4.89 5.31,-0.66 0,-3.3 -3.48,-3.62 -4.62,-1.74 -0.27,0.44 -0.69,1.75 -0.69,2.4z"/>
    <path class="fil1" d="M282.2 170.57c1.4,0 3.32,0.05 3.32,-2.65 0,-1.67 -2.01,-2.66 -3.98,-2.66 -3.87,0 -3.66,5.31 0.66,5.31z"/>
    <path class="fil1" d="M277.78 129.9c0,3.97 6.63,3.06 6.63,-0.22 0,-0.53 -0.49,-1.48 -0.81,-1.84 -1.18,-1.3 -3.32,-0.85 -4.47,-0.12 -0.79,0.5 -1.35,1.37 -1.35,2.18z"/>
    <path class="fil1" d="M274.9 107.13c0,-4.13 -4.2,-3.11 -5.7,-1.28 -1.62,1.97 0.37,5.33 3.49,3.94 0.83,-0.37 2.2,-1.5 2.2,-2.66z"/>
    <path class="fil1" d="M131.66 249.92l5.31 0 0 -7.96c-0.59,0.39 -2.2,3.09 -2.74,3.89l-2.57 4.07z"/>
    <path class="fil1" d="M125.7 103.81c0,-1.27 -1.21,-1.91 -1.99,-2.43 -0.48,0.91 -1.8,3.2 -0.95,4.26 1.28,1.58 2.94,-0.5 2.94,-1.83z"/>
    <path class="fil1" d="M184.28 67.34c2.42,0.58 3.76,-0.73 3.76,-1.99 0,-0.77 -0.16,-0.85 -0.22,-1.55 -1.84,0.89 -4.94,0.63 -3.53,3.54z"/>
    <path class="fil1" d="M272.47 115.09c0,1.59 0.93,2.65 2.65,2.65 0.8,0 0.78,-0.26 1.55,-0.44 -0.07,-0.82 -0.64,-1.48 -1.07,-2.03 -2.02,-2.57 -3.13,-0.52 -3.13,-0.18z"/>
    <path class="fil1" d="M280.65 148.02c-0.41,1.77 -0.63,3.98 2.43,3.98 0.93,0 0.62,-0.87 0.27,-2.27 -0.42,-1.68 -1.09,-2.34 -2.7,-1.72z"/>
    <path class="fil1" d="M257.22 92.54c0.14,0.62 0.4,1.19 0.82,1.61 1.47,1.47 3.07,0.73 4.04,-0.73 -2.19,-1.16 -2.89,-3.15 -4.86,-0.88z"/>
    <path class="fil1" d="M112.66 136.97c0,-2.19 -1.15,-2.25 -2.88,-2.65 0,1.4 -0.23,3.41 0.51,4.15 0.96,0.96 2.37,0.15 2.37,-1.5z"/>
    <path class="fil1" d="M105.14 160.18c0,1.58 1.27,2.4 2.87,2.43 0,-1.7 -0.32,-3.34 -0.44,-4.86 -1.45,0.03 -2.43,0.99 -2.43,2.43z"/>
    <path class="fil1" d="M160.4 73.75c0,-1.36 -0.02,-1.22 -0.66,-2.43 -0.84,0.57 -3.45,2.03 -2.97,3.39 0.73,2.07 3.63,0.17 3.63,-0.95z"/>
    <path class="fil1" d="M171.9 289.71l3.76 0c-0.87,-1.83 -1.23,-4.31 -1.99,-4.86 -0.3,0.62 -0.65,1.69 -0.91,2.4 -0.29,0.8 -0.65,1.57 -0.86,2.46z"/>
    <polygon class="fil1" points="283.52,175.87 283.52,175.65 283.27,175.84 "/>
   </g>
  </g>
 </g>
</svg>
