<?xml version="1.0" encoding="UTF-8"?>
<!DOCTYPE svg PUBLIC "-//W3C//DTD SVG 1.1//EN" "http://www.w3.org/Graphics/SVG/1.1/DTD/svg11.dtd">
<!-- Creator: CorelDRAW -->
<svg xmlns="http://www.w3.org/2000/svg" xml:space="preserve" width="7.9368mm" height="7.9368mm" version="1.1" style="shape-rendering:geometricPrecision; text-rendering:geometricPrecision; image-rendering:optimizeQuality; fill-rule:evenodd; clip-rule:evenodd"
viewBox="0 0 391.76 391.76"
 xmlns:xlink="http://www.w3.org/1999/xlink"
 xmlns:xodm="http://www.corel.com/coreldraw/odm/2003">
 <defs>
  <style type="text/css">
   <![CDATA[
    .fil0 {fill:none}
    .fil1 {fill:#FFF5EF;fill-rule:nonzero}
   ]]>
  </style>
 </defs>
 <g id="Capa_x0020_1">
  <metadata id="CorelCorpID_0Corel-Layer"/>
  <g id="_2491323391904">
   <circle class="fil0" cx="195.88" cy="195.88" r="195.88"/>
   <path class="fil1" d="M73.14 318.62l245.48 0 0 -245.49 -245.48 0 0 245.49zm48.52 -117.21l0 7.72 -11.63 0 0 33.22 -8.49 0 0 -33.22 -11.57 0 0 -7.72 31.7 0zm10.53 -13.18l0 -42.7 7.94 0 0 42.7c-2.65,0 -5.29,0 -7.94,0zm107.54 110.76l-9.23 0 -11.2 -13.97 0 13.97 -7.94 0 0 -43.09 7.94 0 0 25.85 10.59 -13.54 9.48 0 -12.37 15.2 12.74 15.58zm-73.44 -6.9c2.4,0 4.37,-0.8 5.97,-2.4 1.6,-1.59 2.4,-3.63 2.4,-6.09 0,-2.46 -0.8,-4.49 -2.4,-6.1 -1.6,-1.6 -3.57,-2.4 -5.97,-2.4 -2.4,0 -4.37,0.8 -5.97,2.4 -1.54,1.6 -2.34,3.63 -2.34,6.1 0,2.46 0.8,4.5 2.34,6.09 1.6,1.6 3.57,2.4 5.97,2.4zm0 7.75c-4.55,0 -8.43,-1.54 -11.57,-4.68 -3.14,-3.14 -4.68,-7.01 -4.68,-11.57 0,-4.56 1.54,-8.37 4.68,-11.51 3.14,-3.14 7.02,-4.74 11.57,-4.74 4.56,0 8.44,1.6 11.57,4.74 3.14,3.14 4.74,6.95 4.74,11.51 0,4.56 -1.6,8.43 -4.74,11.57 -3.14,3.14 -7.02,4.68 -11.57,4.68zm83.3 -6.78c0.78,0 1.19,-0.35 1.19,-1l0 -0.03c0,-0.72 -0.44,-0.97 -1.19,-0.97l-0.88 0 0 2.01 0.88 0zm-2.38 -3.17l2.41 0c1.6,0 2.63,0.66 2.63,2.07l0 0.03c0,1.04 -0.59,1.6 -1.41,1.85l1.82 2.92 -1.56 0 -1.66 -2.67 -0.72 0 0 2.67 -1.51 0 0 -6.87zm8.09 3.51c0,-3.42 -2.38,-5.8 -5.71,-5.8 -3.33,0 -5.71,2.41 -5.71,5.83 0,3.45 2.51,5.77 5.71,5.77 3.23,0 5.71,-2.38 5.71,-5.8zm-12.67 0.03c0,-3.86 3.08,-6.96 6.96,-6.96 3.95,0 6.96,3.07 6.96,6.93 0,3.92 -3.08,6.93 -6.96,6.93 -3.86,0 -6.96,-2.98 -6.96,-6.9zm-46.48 -19.94c1.48,-3.94 5.17,-5.91 9.35,-5.91l0 8.87c-2.4,-0.31 -4.62,0.18 -6.53,1.48 -1.91,1.29 -2.83,3.38 -2.83,6.34l0 14.71 -7.94 0 0 -30.78 7.94 0 0 5.3zm-12.01 -157.68c-0.92,-4.19 -4,-6.22 -7.63,-6.22 -4.24,0 -7.14,2.28 -8.06,6.22l15.69 0zm-15.57 6.16c1.05,3.88 3.94,5.78 8.68,5.78 3.02,0 5.36,-1.05 6.89,-3.08l6.41 3.69c-3.02,4.37 -7.51,6.59 -13.42,6.59 -5.11,0 -9.17,-1.54 -12.25,-4.62 -3.08,-3.08 -4.62,-6.95 -4.62,-11.63 0,-4.62 1.54,-8.49 4.56,-11.57 3.02,-3.14 6.95,-4.67 11.69,-4.67 4.5,0 8.25,1.54 11.15,4.67 2.95,3.14 4.43,6.96 4.43,11.57 0,1.05 -0.12,2.09 -0.31,3.26l-23.21 0zm-21.63 -13.36c1.41,-3.94 4.92,-5.91 8.89,-5.91l0 8.87c-2.28,-0.31 -4.38,0.18 -6.2,1.48 -1.81,1.29 -2.69,3.39 -2.69,6.34l0 14.71 -7.54 0 0 -30.78 7.54 0 0 5.3zm-43.75 190.37l-12.06 -43.09 8.93 0 8.25 31.95 8.99 -31.95 7.26 0 9.05 31.95 8.25 -31.95 8.93 0 -12.07 43.09 -9.66 0 -8.12 -28.44 -8.06 28.44 -9.67 0zm151.51 -188.03l-6.95 0 0 12.8c0,3.33 2.4,3.39 6.95,3.14l0 7.2c-10.89,1.23 -14.9,-1.91 -14.9,-10.35l0 -12.8 -5.36 0 0 -7.64 5.36 0 0 -6.21 7.94 -2.4 0 8.62 6.95 0 0 7.64zm-9.48 58.99c-0.92,-4.19 -4,-6.22 -7.63,-6.22 -4.25,0 -7.14,2.28 -8.07,6.22l15.7 0zm-15.58 6.16c1.05,3.87 3.94,5.78 8.68,5.78 3.02,0 5.36,-1.05 6.9,-3.08l6.4 3.7c-3.02,4.37 -7.51,6.58 -13.42,6.58 -5.11,0 -9.17,-1.54 -12.25,-4.62 -3.08,-3.08 -4.62,-6.95 -4.62,-11.63 0,-4.62 1.54,-8.49 4.56,-11.57 3.02,-3.14 6.95,-4.68 11.7,-4.68 4.49,0 8.25,1.54 11.14,4.68 2.95,3.14 4.43,6.95 4.43,11.57 0,1.04 -0.12,2.09 -0.31,3.26l-23.21 0zm-66.18 5.41c2.46,0 4.49,-0.8 6.09,-2.4 1.66,-1.66 2.46,-3.76 2.46,-6.28 0,-2.52 -0.8,-4.62 -2.46,-6.21 -1.6,-1.66 -3.63,-2.46 -6.09,-2.46 -2.46,0 -4.5,0.8 -6.1,2.46 -1.6,1.6 -2.4,3.69 -2.4,6.21 0,2.53 0.8,4.62 2.4,6.28 1.6,1.6 3.63,2.4 6.1,2.4zm8.55 -24.07l7.94 0 0 30.78 -7.94 0 0 -3.63c-2.4,3.02 -5.72,4.5 -10.03,4.5 -4.13,0 -7.64,-1.54 -10.59,-4.68 -2.89,-3.14 -4.37,-7.02 -4.37,-11.57 0,-4.55 1.48,-8.37 4.37,-11.51 2.96,-3.14 6.47,-4.74 10.59,-4.74 4.31,0 7.63,1.48 10.03,4.49l0 -3.63zm-37.8 -46.49l0 3.32c0,6.16 -1.97,11.14 -5.91,14.96 -3.94,3.82 -9.05,5.73 -15.27,5.73 -6.65,0 -12.19,-2.16 -16.56,-6.47 -4.37,-4.37 -6.53,-9.66 -6.53,-15.88 0,-6.28 2.16,-11.57 6.47,-15.94 4.37,-4.37 9.73,-6.52 16.13,-6.52 8.07,0 15.08,3.94 18.78,10.03l-7.27 4.19c-2.03,-3.51 -6.46,-5.97 -11.57,-5.97 -4.13,0 -7.51,1.36 -10.16,4.07 -2.65,2.65 -3.94,6.03 -3.94,10.15 0,4.07 1.35,7.45 4,10.1 2.71,2.65 6.28,3.94 10.72,3.94 6.58,0 11.02,-3.08 12.55,-8.19l-13.05 0 0 -7.51 21.6 0zm57.2 73.45c-3.08,-3.14 -4.62,-6.95 -4.62,-11.57 0,-4.62 1.54,-8.44 4.62,-11.57 3.14,-3.14 7.02,-4.68 11.63,-4.68 5.97,0 11.26,3.08 13.79,7.94l-6.83 4c-1.23,-2.52 -3.88,-4.12 -7.02,-4.12 -4.74,0 -8.25,3.51 -8.25,8.44 0,2.4 0.8,4.43 2.34,6.03 1.54,1.54 3.51,2.34 5.91,2.34 3.2,0 5.85,-1.54 7.08,-4.06l6.9 3.94c-2.71,4.86 -7.94,8 -13.91,8 -4.62,0 -8.49,-1.54 -11.63,-4.68zm20.74 -57.02c2.46,0 4.49,-0.8 6.09,-2.4 1.66,-1.66 2.46,-3.76 2.46,-6.28 0,-2.52 -0.8,-4.62 -2.46,-6.21 -1.6,-1.66 -3.63,-2.47 -6.09,-2.47 -2.46,0 -4.5,0.8 -6.1,2.47 -1.6,1.6 -2.4,3.69 -2.4,6.21 0,2.52 0.79,4.62 2.4,6.28 1.6,1.6 3.63,2.4 6.1,2.4zm8.55 -24.07l7.94 0 0 30.78 -7.94 0 0 -3.63c-2.4,3.02 -5.73,4.49 -10.03,4.49 -4.12,0 -7.63,-1.54 -10.59,-4.67 -2.89,-3.14 -4.37,-7.02 -4.37,-11.57 0,-4.56 1.48,-8.37 4.37,-11.51 2.96,-3.14 6.47,-4.74 10.59,-4.74 4.31,0 7.64,1.48 10.03,4.49l0 -3.63zm-85.82 132.13c2.4,0 4.37,-0.8 5.97,-2.4 1.6,-1.6 2.4,-3.63 2.4,-6.1 0,-2.46 -0.8,-4.49 -2.4,-6.09 -1.6,-1.6 -3.57,-2.4 -5.97,-2.4 -2.4,0 -4.37,0.79 -5.97,2.4 -1.54,1.6 -2.34,3.63 -2.34,6.09 0,2.46 0.8,4.5 2.34,6.1 1.6,1.6 3.57,2.4 5.97,2.4zm0 7.76c-4.56,0 -8.44,-1.54 -11.57,-4.68 -3.14,-3.14 -4.68,-7.02 -4.68,-11.57 0,-4.55 1.54,-8.37 4.68,-11.51 3.13,-3.14 7.01,-4.74 11.57,-4.74 4.56,0 8.44,1.6 11.57,4.74 3.14,3.14 4.74,6.96 4.74,11.51 0,4.56 -1.6,8.44 -4.74,11.57 -3.13,3.14 -7.01,4.68 -11.57,4.68zm-23.2 -77.09c3.63,0 6.28,-2.83 6.28,-6.53 0,-3.75 -2.65,-6.52 -6.28,-6.52l-7.57 0 0 13.05 7.57 0zm0 -20.99c4.12,0 7.63,1.41 10.46,4.18 2.83,2.77 4.24,6.22 4.24,10.28 0,4.06 -1.42,7.51 -4.24,10.28 -2.83,2.77 -6.34,4.19 -10.46,4.19l-7.57 0 0 14.16 -8.49 0 0 -43.09 16.07 0z"/>
  </g>
 </g>
</svg>
