<?xml version="1.0" encoding="UTF-8"?>
<!DOCTYPE svg PUBLIC "-//W3C//DTD SVG 1.1//EN" "http://www.w3.org/Graphics/SVG/1.1/DTD/svg11.dtd">
<!-- Creator: CorelDRAW -->
<svg xmlns="http://www.w3.org/2000/svg" xml:space="preserve" width="7.9368mm" height="7.9368mm" version="1.1" style="shape-rendering:geometricPrecision; text-rendering:geometricPrecision; image-rendering:optimizeQuality; fill-rule:evenodd; clip-rule:evenodd"
viewBox="0 0 150.45 150.45"
 xmlns:xlink="http://www.w3.org/1999/xlink"
 xmlns:xodm="http://www.corel.com/coreldraw/odm/2003">
 <defs>
  <style type="text/css">
   <![CDATA[
    .fil0 {fill:none}
    .fil1 {fill:#FFF5EF}
   ]]>
  </style>
 </defs>
 <g id="Capa_x0020_1">
  <metadata id="CorelCorpID_0Corel-Layer"/>
  <g id="_2490038257104">
   <circle class="fil0" cx="75.22" cy="75.23" r="75.22"/>
   <g>
    <path class="fil1" d="M82.15 104.95c0,1.17 1.51,1.06 2.25,1.06l9.93 0c-0.81,1.21 -3.99,3.57 -5.25,4.33 -0.72,0.44 -1.32,0.75 -2.09,1.14 -2.05,1.03 -4.99,1.94 -7.38,2.19 -0.49,0.05 -1.02,0.13 -1.47,0.15 -0.25,0.01 -0.53,-0 -0.78,-0 -0.82,0 -0.26,0.15 -1.49,0.01 -0.23,-0.03 -0.53,-0.01 -0.77,-0.01 -2.6,0.02 -6.79,-1.21 -8.96,-2.3 -1.75,-0.88 -3.41,-1.85 -4.89,-3.14 -0.69,-0.6 -2.05,-1.73 -2.48,-2.38 0.8,0 13.65,0.06 14.13,-0.03 2.05,-0.37 0.75,-2.72 -0.15,-2.96 -0.75,-0.2 -2.02,0.19 -3.93,-0.93 -0.39,-0.23 -0.61,-0.39 -0.8,-0.82 -0.25,-0.57 -0.37,-2.03 -0.37,-2.86l0 -14.93 21.26 0 0 14.36c0,1.05 -0.12,2.29 -0.35,3.1 -0.59,2.05 -3.32,1.97 -4.86,2.04 -0.56,0.02 -0.83,0.32 -1.1,0.66 -0.21,0.27 -0.45,0.87 -0.45,1.31zm-29.36 -14.51c0,-4.29 2.17,-8.7 3.97,-12.3l1.95 -3.47 0 22.82c0,1.51 0.09,3.73 -1.08,4.62 -0.28,0.21 -0.95,0.58 -1.38,0.59 -0.05,-0.24 -0.18,-0.38 -0.31,-0.61l-1.01 -1.95c-0.33,-0.65 -0.89,-2.13 -1.1,-2.85 -0.13,-0.49 -0.29,-0.99 -0.42,-1.55 -0.37,-1.54 -0.62,-3.69 -0.62,-5.3zm45.21 10.07c-0.01,-0.25 -0.09,-0.85 -0.12,-1.07 -0.05,-0.38 0.01,-0.78 -0.03,-1.17 -0.15,-1.34 -0.06,-15.5 -0.06,-17.19l0.06 0.08c0.67,1.01 2.05,5.37 2.26,6.68 0.07,0.42 0.15,0.92 0.2,1.35 0.02,0.23 0.09,1.32 0.07,1.46 -0.09,0.76 -0.07,1.63 -0.22,2.82 -0.21,1.73 -0.64,3.3 -1.21,4.92l-0.68 1.65c-0.04,0.08 -0.07,0.14 -0.12,0.24l-0.17 0.26zm-21.48 -55.77c0.31,1.32 2.93,6.22 3.69,7.5l4.27 6.93c-0.62,0 -1.63,-0.03 -2.06,0.4 -0.71,0.71 0.18,2.45 1.02,2.61 0.4,0.08 1.7,-0.08 3.03,0.35 0.45,0.15 0.34,0.13 0.79,0.83 0.33,0.5 1.53,2.15 1.6,2.63 0.14,0.94 0.06,11.35 0.06,13.18l-21.26 0 0 -12.32c0,-0.85 0.11,-2.24 0.35,-2.82 0.45,-1.08 1.96,-1.59 3.12,-1.74 0.56,-0.07 0.96,-0.03 1.53,-0.09 0.7,-0.08 1.34,-1.11 1.34,-1.9 0,-1.06 -1.04,-1.13 -2.11,-1.13 -1.1,0 -2.21,0 -3.31,0 0.06,-0.22 0.36,-0.62 0.5,-0.84 0.16,-0.27 0.36,-0.58 0.54,-0.86 1.38,-2.04 2.46,-4.15 3.66,-6.13l1.47 -2.75c0.17,-0.34 0.31,-0.6 0.46,-0.95 0.1,-0.25 1.18,-2.79 1.33,-2.9zm0.21 -6.97c6.47,0 12.23,1.21 17.84,3.99l0.8 0.4c2.38,1.22 5.74,3.32 7.68,5.14 0.16,0.14 0.16,0.15 0.34,0.29 0.91,0.71 2.87,2.7 3.67,3.65 0.38,0.45 0.72,0.85 1.09,1.31 0.38,0.47 0.7,0.91 1.07,1.4 3.79,5.05 6.12,11.01 7.12,17.24 0.81,5.06 0.42,10.62 -0.8,15.52 -1.27,5.07 -3.89,10.45 -7.24,14.52 -0.55,0.67 -1.07,1.37 -1.69,1.97 -0.24,0.24 -0.33,0.4 -0.56,0.64 -0.56,0.56 -1.86,1.9 -2.47,2.38l-2.66 2.13c-1.43,1.07 -2.86,1.99 -4.44,2.88 -0.54,0.3 -1.03,0.55 -1.57,0.82 -0.29,0.14 -0.48,0.24 -0.82,0.38 -1.57,0.65 -2.63,1.18 -4.37,1.76 -6.98,2.34 -14.17,2.53 -21.43,1.03 -1.31,-0.27 -2.63,-0.67 -3.85,-1.08 -1.5,-0.5 -2.97,-1.06 -4.37,-1.76 -0.31,-0.16 -0.53,-0.27 -0.84,-0.42l-5.36 -3.23c-0.94,-0.7 -1.87,-1.4 -2.75,-2.18 -0.15,-0.13 -0.2,-0.14 -0.35,-0.28l-1.58 -1.51c-0.43,-0.43 -0.81,-0.8 -1.23,-1.23l-1.15 -1.31c-0.76,-0.94 -1.44,-1.77 -2.14,-2.78 -2.08,-3.02 -3.85,-6.27 -5.02,-9.77 -1.82,-5.43 -2.51,-11.31 -1.84,-17.24 0.4,-3.55 1.32,-7.3 2.77,-10.54 0.14,-0.31 0.28,-0.6 0.39,-0.88 0.63,-1.55 1.64,-3.3 2.53,-4.72 1.23,-1.97 2.47,-3.48 3.94,-5.22l0.88 -0.95c0.62,-0.71 1.41,-1.52 2.12,-2.11 1,-0.84 1.98,-1.69 3.03,-2.47l5.24 -3.28c2.4,-1.34 6.15,-2.66 8.85,-3.33 1.28,-0.32 2.71,-0.62 4.07,-0.79 1.43,-0.17 3,-0.37 4.56,-0.37 -0.04,0.52 -0.66,2.57 -0.8,3.14 -0.5,2.01 -1.27,3.9 -2.18,5.71 -0.23,0.47 -0.42,0.85 -0.66,1.32 -0.66,1.33 -1.34,2.61 -2.1,3.88 -0.26,0.43 -0.49,0.83 -0.73,1.24l-3.02 4.87c-0.27,0.44 -0.55,0.8 -0.79,1.25l-12.61 -0c-0.42,0 -1.14,0.26 -1.38,0.45 -0.74,0.58 0.04,1.95 0.6,2.38 0.43,0.33 2.09,0.12 3.27,0.39 2.67,0.61 2.94,1.62 2.94,4.31l0 3.38c0,0.42 -0.4,0.82 -0.6,1.16 -0.24,0.39 -0.44,0.73 -0.66,1.1 -1.8,3.01 -3.56,6.15 -4.87,9.42 -0.34,0.85 -0.63,1.7 -0.95,2.64 -0.3,0.9 -0.54,1.87 -0.74,2.85 -0.93,4.71 0.15,10.19 2.28,14.42 0.24,0.47 0.45,0.85 0.68,1.29 -0.78,0 -1.3,-0.02 -1.76,0.63 -0.47,0.66 -0.8,2 0.31,2.3 0.81,0.22 2.61,0.1 3.49,0.1 0.37,0.56 0.87,1.03 1.28,1.54 0.7,0.88 1.59,1.69 2.46,2.4l3.3 2.4c3.77,2.27 8.21,3.68 12.67,3.73 0.4,0 0.5,0.09 0.91,0.08 0.36,-0.01 0.43,-0.08 0.84,-0.08 3,-0 6.1,-0.7 8.84,-1.8 2.62,-1.05 5.73,-2.8 7.73,-4.73 0.81,-0.78 1.69,-1.56 2.42,-2.43 0.31,-0.37 0.6,-0.72 0.86,-1.11 1.27,0 2.54,0 3.8,0 1.21,0 2.82,0.13 2.82,-1.06 0,-0.86 -0.63,-1.91 -1.41,-1.97 -0.98,-0.08 -1.96,-0.11 -2.82,-0.56 2.07,-3.9 3.51,-9.28 2.86,-13.98 -0.35,-2.57 -1.08,-4.59 -1.91,-6.68 -0.51,-1.28 -1.69,-3.87 -2.44,-5.1 -0.11,-0.18 -0.34,-0.54 -0.34,-0.79 0,-3.53 -0.13,-7.2 0.15,-10.7 0.06,-0.79 0.24,-1.38 0.78,-1.89 0.2,-0.19 0.31,-0.21 0.57,-0.34 0.42,-0.21 0.76,-0.36 1.27,-0.49 1.17,-0.29 2.17,0.08 2.79,-0.8 0.69,-0.96 0.86,-2.12 -0.64,-2.39 -1.12,-0.2 -14.11,-0.08 -15.56,-0.08 -0.23,-0.43 -0.53,-0.79 -0.77,-1.2l-2.32 -3.66c-0.5,-0.82 -0.99,-1.64 -1.48,-2.47 -0.69,-1.16 -2.27,-3.91 -2.79,-5.16 -0.81,-1.97 -1.67,-3.57 -2.21,-5.75l-0.62 -2.34c-0.07,-0.26 -0.13,-0.63 -0.23,-0.83zm-41.47 39.15c0,28.73 28.54,48.27 55.11,39.41 0.67,-0.22 1.24,-0.41 1.88,-0.66 3.74,-1.46 5.96,-2.72 9.22,-4.93l2.89 -2.25c0.15,-0.13 0.21,-0.16 0.35,-0.28l4.44 -4.5c1.13,-1.35 2.04,-2.52 3.03,-4.01 0.36,-0.54 0.67,-1.04 1,-1.6 0.41,-0.67 1.52,-2.68 1.8,-3.34 0.15,-0.34 0.27,-0.57 0.4,-0.87 0.95,-2.14 1.75,-4.38 2.34,-6.67 1.15,-4.47 1.25,-6.9 1.25,-11.56 0,-5.03 -1.71,-11.81 -3.94,-16.34 -0.57,-1.15 -1.14,-2.21 -1.76,-3.31 -0.3,-0.52 -0.65,-1.06 -0.98,-1.55 -0.92,-1.38 -1.89,-2.75 -2.97,-4l-0.59 -0.68c-0.58,-0.75 -2.09,-2.21 -2.83,-2.95 -0.24,-0.24 -0.42,-0.34 -0.67,-0.6 -0.22,-0.22 -0.43,-0.38 -0.67,-0.6 -2.72,-2.42 -6.3,-4.65 -9.64,-6.2 -0.19,-0.09 -0.28,-0.15 -0.48,-0.23 -1.43,-0.59 -2.11,-0.92 -3.64,-1.43 -0.66,-0.22 -1.22,-0.41 -1.92,-0.61 -0.69,-0.2 -1.33,-0.35 -2.01,-0.52 -4.59,-1.16 -10.38,-1.46 -15.28,-0.77 -2.83,0.4 -5.64,1.02 -8.3,1.98l-2.8 1.07c-1.65,0.74 -2.73,1.25 -4.31,2.16 -1.69,0.97 -3.05,1.89 -4.61,3.06 -1.1,0.83 -2.48,2.01 -3.47,3.01 -0.56,0.56 -0.5,0.35 -0.99,0.98 -0.22,0.27 -0.74,0.73 -1.23,1.31l-2.05 2.45c-1.57,2.02 -2.83,4.08 -4.03,6.32 -0.56,1.05 -1.16,2.46 -1.59,3.55 -1.89,4.72 -2.94,9.99 -2.94,15.16z"/>
    <path class="fil1" d="M125.1 76.79c0,1.98 -0.15,3.89 -0.34,5.65 -0.21,1.87 -0.51,3.47 -0.87,5.18 -0.69,3.26 -1.79,6.01 -3.02,9.02l-2.01 3.98c-0.9,1.62 -1.88,3.1 -2.95,4.58 -0.24,0.33 -0.42,0.58 -0.65,0.9 -0.64,0.86 -1.36,1.64 -2.02,2.49l-2.2 2.38c-0.61,0.61 -1.2,1.24 -1.87,1.79l-2.05 1.75c-0.31,0.25 -0.57,0.43 -0.87,0.68 -1.1,0.91 -2.32,1.68 -3.51,2.48l-2.82 1.68c-0.19,0.1 -0.34,0.16 -0.51,0.26 -0.17,0.1 -0.3,0.18 -0.49,0.28 -3.54,1.75 -7.09,3.18 -10.97,4.1 -6.85,1.62 -14.14,1.74 -21.09,0.36 -3.41,-0.68 -6.6,-1.76 -9.74,-3.08 -0.32,-0.13 -0.6,-0.25 -0.88,-0.39l-1.71 -0.82c-2.84,-1.42 -7.24,-4.25 -9.6,-6.45l-1 -0.9c-0.47,-0.36 -0.83,-0.86 -1.31,-1.23 -0.59,-0.45 -2.98,-3.21 -3.65,-4.03 -1.76,-2.18 -3.28,-4.5 -4.69,-6.93l-1.29 -2.51c-0.74,-1.47 -1.39,-3 -1.92,-4.56 -0.22,-0.66 -0.46,-1.25 -0.64,-1.89 -0.48,-1.7 -2.9,-1.53 -2.9,0.37 0,1.21 2.71,7.04 3.45,8.52 0.73,1.46 1.63,2.83 2.46,4.23 0.89,1.49 1.98,2.85 3.03,4.22 0.12,0.16 0.19,0.21 0.32,0.38 0.22,0.27 0.39,0.48 0.6,0.73 0.79,0.98 2.97,3.38 3.88,4.14l1.75 1.56c1.11,0.89 2.15,1.85 3.33,2.66 0.78,0.54 1.56,1.16 2.37,1.65 0.3,0.18 0.51,0.34 0.82,0.52 0.83,0.5 1.66,1.04 2.53,1.48 2.36,1.19 3.9,2.03 6.42,2.94 10.23,3.71 20.41,4.29 31.07,1.62 1.94,-0.48 3.71,-1.13 5.59,-1.8l2.05 -0.84c4.56,-2.03 8.91,-4.66 12.68,-7.95 0.16,-0.14 0.23,-0.16 0.39,-0.32l1.9 -1.76c0.69,-0.69 1.6,-1.48 2.21,-2.22l4.57 -5.71c1.04,-1.43 1.93,-2.98 2.8,-4.52 0.54,-0.97 0.98,-1.97 1.48,-2.96 1.6,-3.18 3,-7.54 3.69,-11.02 0.45,-2.28 0.81,-4.66 1,-7.03 0.02,-0.26 -0.01,-0.49 0.02,-0.75l0.01 -5.68c-0.14,-0.92 -0.09,-1.79 -0.21,-2.68 -0.4,-2.9 -0.65,-4.62 -1.37,-7.5 -1.14,-4.58 -2.98,-8.97 -5.37,-12.94 -1.64,-2.74 -3.19,-4.83 -5.21,-7.33 -0.66,-0.81 -1.45,-1.54 -2.09,-2.34 -0.35,-0.44 -1.01,-1.03 -1.43,-1.45l-1.93 -1.74c-0.18,-0.14 -0.23,-0.22 -0.41,-0.36l-2.46 -1.97c-3.44,-2.58 -7.19,-4.78 -11.22,-6.39 -0.89,-0.35 -3.63,-1.53 -4.46,-1.53 -0.37,0 -0.71,0.16 -0.93,0.34 -0.84,0.67 -0.54,2.14 0.41,2.5l2 0.67c0.67,0.24 1.26,0.49 1.92,0.75 1.28,0.51 2.41,1.07 3.61,1.67 3.48,1.74 6.6,3.94 9.55,6.43l5 5c0.13,0.16 0.21,0.21 0.33,0.37 0.18,0.23 0.38,0.45 0.57,0.7l0.87 1.11c0.14,0.18 0.18,0.2 0.31,0.39 0.2,0.29 0.37,0.49 0.56,0.78 2.4,3.52 3.96,6.08 5.68,10.38 1.96,4.91 3.42,11.09 3.42,17.92z"/>
    <path class="fil1" d="M86.65 31.02c-0.92,-0.02 -3.51,-0.33 -4.65,-0.42l-2.88 -0.22c0,-0.45 0.07,-1.11 0.12,-1.5 0.08,-0.57 0.04,-1 0.12,-1.57l0.25 -3.13c1.33,0 2.53,0.23 3.8,0.28l3.8 0.35 -0.42 4.65c-0.02,0.37 -0.06,0.43 -0.07,0.77 -0.01,0.37 -0.06,0.49 -0.07,0.77zm-8.94 -0.7c0,1.32 1.35,1.52 2.39,1.55l3.64 0.3c0.53,0.07 1.22,0.08 1.81,0.16 0.64,0.09 1.21,0.15 1.69,-0.08 1.07,-0.51 0.8,-1.68 0.98,-3.03l0.25 -2.71c0.1,-0.94 0.26,-1.89 -0.16,-2.5 -0.47,-0.68 -1.46,-0.67 -2.23,-0.73l-4.56 -0.37c-1.39,-0.15 -2.78,-0.48 -3.23,0.88l-0.23 2.16c-0.01,0.42 -0.05,0.61 -0.07,1.05l-0.2 2.19c-0.03,0.44 -0.08,0.69 -0.08,1.12z"/>
    <path class="fil1" d="M23.21 65.73c0,1.9 3.39,2.91 4.54,1.23 0.45,-0.66 0.7,-2.08 0.87,-2.93 0.11,-0.56 0.21,-1.03 0.32,-1.58 0.08,-0.4 0.14,-1.29 0.62,-1.29 0.35,0 0.96,0.05 1.2,0.14 1.07,0.35 0.45,1.77 0.19,2.74 -0.16,0.6 -0.34,1.23 -0.53,1.87 -0.12,0.4 -0.39,1.59 -0.57,1.82 -0.36,0.47 -0.46,-0.15 -0.64,0.56 -0.07,0.29 -0.2,0.7 -0.22,0.98 2.08,0.49 2.4,-1.66 2.75,-2.88 0.21,-0.72 1.05,-3.63 1.05,-4.23 0,-0.9 -0.47,-1.35 -0.93,-1.82 -0.51,-0.51 -1.69,-0.58 -2.45,-0.58 -1.49,0 -1.72,1.79 -1.87,2.56 -0.09,0.47 -0.16,0.83 -0.27,1.28 -0.47,2.03 -0.27,3.01 -1.59,2.78 -0.53,-0.09 -0.75,-0.18 -1.06,-0.5 0.02,-0.25 0.1,-0.41 0.17,-0.68l0.55 -2.05c0.19,-0.68 0.48,-2.1 0.83,-2.62l0.56 0 0.56 -1.2c-0.91,-0.44 -2,-0.22 -2.49,0.75 -0.31,0.63 -1.11,3.72 -1.34,4.65 -0.07,0.27 -0.25,0.78 -0.25,1.01z"/>
    <path class="fil1" d="M23.84 82.35c0,-1.41 0.67,-2.74 2.32,-2.74 0.96,0 1.81,0.03 2.55,0.68 0.42,0.38 0.83,1.02 0.96,1.64 0.15,0.7 0.19,1.54 0.31,2.3 0.05,0.36 0.23,2.06 0.33,2.27l-4.42 0.58c-0.44,0.05 -1.05,0.16 -1.49,0.2 0,-0.98 -0.56,-4.03 -0.56,-4.93zm-1.34 -0.21c0,1.03 0.57,5.99 0.81,6.63l6.3 -0.78c0.37,-0.04 0.68,-0.1 1.06,-0.14 0.34,-0.04 0.8,-0.13 1.13,-0.14 0,-0.82 -0.7,-5.8 -0.92,-6.47 -0.87,-2.6 -3.7,-3.62 -6.05,-2.75 -0.76,0.28 -1.2,0.66 -1.65,1.31 -0.4,0.59 -0.67,1.55 -0.67,2.35z"/>
    <path class="fil1" d="M43.61 33.68c0.12,0.17 0.15,0.18 0.28,0.32l3.8 4.01c0.19,0.18 0.45,0.48 0.58,0.69 -0.31,-0.01 -0.34,-0.07 -0.7,-0.07l-5.93 -0.34c-0.25,-0.03 -0.51,0 -0.77,-0.01 -0.35,-0.01 -0.35,-0.07 -0.7,-0.08l-1.49 -0.08c-0.36,0.01 -0.36,0.02 -0.53,0.24 -0.25,0.34 -0.49,0.54 -0.73,0.89 0.24,0.16 3.41,3.72 4,4.31 0.17,0.17 0.2,0.25 0.35,0.42 0.26,0.3 1.35,1.33 1.43,1.6 0.2,-0.05 1.01,-0.85 1.06,-0.91l-2.9 -3.16c-0.23,-0.29 -0.35,-0.4 -0.61,-0.66l-1.14 -1.32c0.45,0 0.85,0.07 1.41,0.07l7.33 0.34c0.22,0.03 0.54,0.02 0.77,0.02 0.41,-0 0.36,0.03 0.58,-0.2 0.25,-0.25 0.57,-0.53 0.75,-0.8l-1.5 -1.53c-0.17,-0.17 -0.18,-0.21 -0.32,-0.38 -0.25,-0.31 -0.72,-0.69 -1.13,-1.2l-2.97 -3.09 -0.93 0.9z"/>
    <path class="fil1" d="M70.81 29.89c-0.28,-0.08 -1.04,-1.29 -1.21,-1.54 -0.51,-0.75 -3.22,-4.4 -3.51,-4.94 -0.17,0.08 -1.15,0.29 -1.41,0.35 0.06,0.24 0.18,0.33 0.32,0.52l5.11 7.14c0.14,0.21 0.19,0.38 0.54,0.37 0.03,-0 0.7,-0.09 0.74,-0.11 0.22,-0.07 0.2,-0.06 0.35,-0.5l1.44 -3.84c0.33,-0.88 0.62,-1.68 0.96,-2.56l0.96 -2.56c-1.85,0 -1.5,0.01 -1.89,1.07l-2.41 6.61z"/>
    <path class="fil1" d="M48.06 30.6c0.09,0.35 0.46,0.77 0.56,1.2 0.33,-0.03 3.26,-1.65 3.73,-1.9 0.14,0.26 0.26,0.51 0.4,0.8 0.15,0.31 0.27,0.49 0.42,0.77l2.49 4.77c0.41,-0.22 0.79,-0.42 1.2,-0.63l-3.31 -6.34c1.19,-0.63 2.39,-1.26 3.59,-1.9l-0.56 -1.2c-0.33,0.08 -1.65,0.82 -2.16,1.08l-6.36 3.36z"/>
    <path class="fil1" d="M26.45 55.24c0.44,0.1 0.72,0.45 1.2,0.56l1.67 -3.05c0.1,-0.18 0.15,-0.31 0.24,-0.47l4.75 2.57c0.3,0.18 1.36,0.78 1.66,0.81 0.16,-0.31 0.54,-0.95 0.56,-1.2 -0.26,-0.06 -2.9,-1.52 -3.13,-1.66l-3.14 -1.65c0.03,-0.37 1.11,-2.2 1.39,-2.7 0.1,-0.18 0.14,-0.31 0.24,-0.47 0.1,-0.17 0.18,-0.23 0.21,-0.5 -0.19,-0.1 -0.38,-0.18 -0.56,-0.28 -0.25,-0.13 -0.31,-0.25 -0.63,-0.28 -0.09,0.17 -0.16,0.32 -0.26,0.52l-3.91 7.21c-0.12,0.19 -0.21,0.34 -0.27,0.58z"/>
    <path class="fil1" d="M33 44.26l1.73 1.23c0.63,0.47 4.91,3.62 5.24,3.7 0.05,-0.17 0.25,-0.42 0.35,-0.56 0.13,-0.18 0.28,-0.31 0.35,-0.56 -0.47,-0.25 -4.74,-3.39 -5.17,-3.7l-1.73 -1.23c-0.22,0.42 -0.52,0.75 -0.78,1.13z"/>
    <path class="fil1" d="M22.5 73.69l0 0.42 1.2 0.07c1.14,0.01 3.93,0.3 4.93,0.28l1.89 0.09c0.23,0.03 0.32,0.16 0.42,-0.11 0.06,-0.16 0.09,-1 0.09,-1.26l-8.45 -0.42c0,0.4 -0.07,0.49 -0.07,0.92z"/>
    <path class="fil1" d="M59.61 25.17c0.13,0.26 0.25,0.71 0.34,1 0.31,0.94 2.31,6.73 2.33,7.03l1.33 -0.43 -2.03 -5.98c-0.15,-0.44 -0.61,-1.64 -0.64,-2.03 -0.24,0.02 -1.14,0.33 -1.34,0.42z"/>
   </g>
  </g>
 </g>
</svg>
