<?xml version="1.0" encoding="UTF-8"?>
<!DOCTYPE svg PUBLIC "-//W3C//DTD SVG 1.1//EN" "http://www.w3.org/Graphics/SVG/1.1/DTD/svg11.dtd">
<!-- Creator: CorelDRAW -->
<svg xmlns="http://www.w3.org/2000/svg" xml:space="preserve" width="7.9368mm" height="7.9368mm" version="1.1" style="shape-rendering:geometricPrecision; text-rendering:geometricPrecision; image-rendering:optimizeQuality; fill-rule:evenodd; clip-rule:evenodd"
viewBox="0 0 648.66 648.66"
 xmlns:xlink="http://www.w3.org/1999/xlink"
 xmlns:xodm="http://www.corel.com/coreldraw/odm/2003">
 <defs>
  <style type="text/css">
   <![CDATA[
    .fil0 {fill:none}
    .fil1 {fill:#FFF5EF}
   ]]>
  </style>
 </defs>
 <g id="Capa_x0020_1">
  <metadata id="CorelCorpID_0Corel-Layer"/>
  <g id="_2488430970672">
   <circle class="fil0" cx="324.33" cy="324.33" r="324.33"/>
   <g>
    <path class="fil1" d="M335.77 565.81c-24.51,0 -37.42,-1.32 -59.7,-6.23 -22.6,-4.97 -43.8,-13.31 -63.55,-24.36l-6.96 -4.02c-11.03,-5.98 -29.01,-19.26 -37.89,-28.05 -1.05,-1.05 -1.77,-1.38 -2.84,-2.47 -6.42,-6.45 -13.25,-12.64 -18.85,-19.79l-20.78 -28.49c-4.27,-7.17 -3.69,-4.89 -14.6,-2.21 -1.41,0.34 -4.31,0.59 -3.94,2.71 0.25,1.47 1.17,2.24 1.87,3.41 6.68,11.14 14.1,21.86 22.3,31.93l6.28 7.19c1.23,1.59 2.28,2.3 3.39,3.69 3.98,4.99 9.02,9.26 13.51,13.8 1.27,1.29 2.26,1.87 3.55,3.2 0.69,0.72 0.94,0.93 1.68,1.5l9.3 7.72c8.79,7.19 18.27,13.64 27.98,19.52 6.42,3.87 15.3,8.61 22.27,12.11 2.94,1.48 6.2,2.88 9.22,4.25 6.34,2.88 13.04,5.04 19.54,7.4 10.48,3.8 21.42,6 32.5,8.62 7.32,1.73 28.87,4.57 36.23,4.54 4.41,-0.02 9.1,-0.15 13.48,-0.02 5.73,0.17 5.41,1.14 12.19,0.16l12.67 -1.16c5.02,-0.56 5.1,0.19 12.26,-1.21 7.27,-1.42 15.83,-2.29 22.99,-4.32 7.04,-1.99 14.37,-3.7 21.28,-6.01l19.73 -7.21c23.88,-10.05 47.75,-24.6 67.5,-41.33 4.54,-3.84 16.26,-14.46 19.3,-18.27l8.02 -9c2.21,-2.48 4.23,-4.86 6.26,-7.56 9.82,-13.04 19.6,-26.14 26.9,-40.8 14.38,-28.85 22.19,-49.49 27.34,-81.85l2.69 -24.61c0.01,-3.56 0.5,-10.95 -0.02,-13.13 -3.47,0 -8.81,2.2 -12.12,3.11 -0.67,0.19 -2.54,0.66 -2.97,0.93 -1.81,1.12 -1.21,8.33 -1.46,10.24l-1.36 13.88c-0.68,4.9 -1.25,8.9 -2.02,13.57 -3.24,19.44 -9.48,40.68 -18.45,58.48l-6.5 12.65c-0.56,1.13 -0.86,1.41 -1.42,2.48 -0.98,1.85 -1.72,3.23 -2.8,4.99l-8.87 14.17c-3.65,5.26 -7.27,10.67 -11.38,15.56 -0.78,0.93 -0.89,1.22 -1.79,2.12 -0.92,0.9 -1.05,1.13 -1.81,2.08l-5.48 6.22c-3.24,3.87 -7.81,8.17 -11.33,11.72l-27.21 22.78 -21.2 13.54c-4.95,2.98 -10.18,5.33 -15.43,7.96 -14.38,7.2 -29.48,12.46 -45.25,16.42 -14.26,3.6 -24.91,5.28 -39.69,6.41 -4.75,0.36 -9.24,1.04 -14.56,1.04z"/>
    <path class="fil1" d="M72.39 319.09c0,0.69 0.64,1.41 1.06,1.41 2.39,0 13.62,-3.03 15.25,-3.9 0,-2.75 0.14,-4.45 0.34,-6.74 0.58,-6.64 0.91,-13.83 1.99,-20.35 2.76,-16.63 6.66,-31.64 11.89,-47.31 5.27,-15.76 13.11,-30.8 21.65,-44.99 6.03,-10.02 15.32,-23.24 23.42,-31.88 0.85,-0.91 1.02,-1.01 1.84,-2.07 3.1,-4 12.06,-12.86 16.24,-16.72l10.11 -8.69c7.01,-6.52 17.88,-13.63 25.82,-18.49l11.61 -6.82c9.01,-4.85 18.27,-9.19 27.79,-12.98 7.25,-2.89 14.61,-5.31 22.21,-7.57 15.28,-4.56 27.84,-7.05 43.81,-8.3 23.95,-1.88 33.47,-2.18 58.93,1.37 8.99,1.26 16.85,3.14 25.25,5.24 2.84,0.71 5.31,1.52 8.01,2.27 7.8,2.15 15.19,4.79 22.64,7.84l7.13 3.14c9.18,4.09 18.14,8.86 26.74,14.03 11.12,6.69 21.21,14 30.93,22.24 0.55,0.47 0.73,0.74 1.27,1.21l2.84 2.48c1.16,0.97 1.55,1.22 2.64,2.32 1.07,1.09 1.79,1.42 2.84,2.47l14.89 15.6c0.46,0.52 0.77,0.73 1.23,1.25 4.44,5 8.54,10.4 12.57,15.78l6.33 8.91c0.8,1.32 1.24,1.99 2.07,3.25 4.99,7.6 3.26,6.66 12.62,4.05 1.33,-0.38 2.49,-0.73 3.9,-1.06 1.58,-0.38 3.19,-0.42 3.19,-2.12 0,-1.67 -10.42,-16.36 -13.12,-20.2l-16.05 -20.46c-0.49,-0.59 -0.87,-0.9 -1.41,-1.43 -1.13,-1.12 -1.51,-1.9 -2.64,-3.02l-5.5 -5.85c-7.3,-7.89 -15.4,-14.31 -23.59,-21.08l-12.84 -9.49c-6.59,-4.66 -13.52,-9.19 -20.68,-13l-14.65 -7.68c-18.9,-9.46 -38.18,-15.41 -58.76,-19.93 -9.03,-1.99 -30.45,-5.51 -39.19,-5.48 -4.02,0.02 -6.97,0.38 -11.01,0.38 -2.24,-0.01 -2.94,-0.39 -5.3,-0.38 -7.87,0.03 -20.05,0.55 -27.51,1.57 -22.48,3.11 -36.38,6.23 -57.63,13.28 -3.81,1.27 -7.76,2.75 -11.29,4.31l-11.1 4.85c-11.67,4.98 -29.28,15.28 -39.81,22.93 -6.03,4.4 -12.31,8.68 -17.78,13.77 -5.71,5.31 -10.63,9.57 -16.3,15.24l-7.63 7.98c-1.39,1.37 -2.39,2.65 -3.72,4.07 -5.43,5.79 -12.9,15.37 -17.32,22.03 -1.14,1.72 -2.07,2.92 -3.2,4.61 -4.22,6.34 -8.47,12.86 -11.83,19.71 -2.57,5.23 -5.66,10.49 -7.85,15.9 -2.21,5.43 -4.96,10.91 -6.99,16.4 -6.76,18.29 -11.56,37.24 -14.13,56.77 -0.3,2.32 -0.69,4.85 -0.8,7 -0.42,7.61 -1.43,14.6 -1.43,22.33z"/>
    <path class="fil1" d="M119.18 323.35c0,3.45 1.01,6.19 1.71,8.92l6.8 26.16c-1.41,0.96 -1.9,0.92 -3.61,1.35l-24.31 6.53c-1.26,0.34 -2.66,0.95 -4.33,0.99 -1.63,-2.44 -4.36,-14.58 -5.1,-17.59l-3.55 -13.47c-1.24,-5.13 -1.14,-4.19 -9.93,-1.71l-15.81 4.05c-9.37,2.28 -8.1,0.1 -4.11,16.17l9.91 37.59c1.24,4.24 2.01,8.12 3.22,12.38 1.22,4.28 2.26,8.51 3.32,12.64 1.1,4.27 2.16,8.32 3.33,12.61 0.51,1.87 1.14,4.23 1.63,6.17 0.99,3.98 0.44,3.34 2.19,5.96 3.29,-0.07 21.63,-5.32 26.45,-6.53 4.37,-1.09 5.93,-0.75 4.45,-5.57 -1.78,-5.8 -3.06,-11.65 -4.78,-17.56 -0.64,-2.19 -4.49,-15.83 -4.49,-17.85 0,-1.41 1.86,-1.78 2.91,-2.06l20.49 -5.39c11.48,-3.21 8.04,-5.94 14.61,18l4.03 15.81c0.22,0.88 0.38,1.76 0.73,2.47 1.27,2.61 3.37,1.49 5.67,0.81 1.42,-0.42 2.53,-0.65 3.96,-1.01l19.65 -5.17c3.64,-0.89 3.97,-0.75 1.73,-8.28 -0.64,-2.17 -1.08,-4.15 -1.67,-6.48 -0.55,-2.19 -1.04,-3.97 -1.63,-6.16l-20.62 -78.99c-0.93,-4.02 -1.54,-2.81 -9.44,-0.84l-23.4 6.03z"/>
    <path class="fil1" d="M221.98 362.69l0 -8.16c0,-4.97 0.73,-8.7 0.71,-13.47 -0.02,-5.13 0.33,-9.28 0.71,-13.82l16.37 26.16c0.75,1.19 1.93,2.77 2.06,4.32 -1.96,1.04 -7,2.01 -9.71,2.69 -2.53,0.64 -7.72,2.27 -10.14,2.27zm-34.74 49.99c0,2.71 6.08,0.34 9.43,-0.5l15.19 -3.96c7.82,-1.7 8.71,-0.89 8.7,-10.78 0,-2.14 -0.01,-4.27 -0.02,-6.41 0,-2.62 0.52,-3.13 2.63,-3.74 7.64,-2.21 17.24,-4.2 25.62,-6.64 7.63,-2.21 5.79,-3.18 13.66,10 2.19,3.66 2.21,3.87 7.31,2.47 1.26,-0.35 2.62,-0.7 4.18,-1.14 2.84,-0.8 5.17,-1.45 8.09,-2.18 2.8,-0.7 14.11,-3.38 16.16,-4.75 -0.36,-1.59 -0.98,-2.1 -1.77,-3.2l-56.29 -79.11c-1.35,-2.04 -2.71,-3.77 -4.12,-5.81 -2.12,-3.08 -2.08,-3.83 -6.31,-2.71 -5.26,1.41 -10.58,2.89 -15.59,4.26 -2.9,0.79 -14.4,3.09 -15.33,4.87l-3.02 27.13c-0.2,3.02 -0.5,6.27 -0.93,9.35l-1.86 17.99c-0.7,6.24 -1.14,11.98 -1.94,18.27l-3.8 36.61z"/>
    <path class="fil1" d="M394.98 287.19c0,9.02 3.94,24.57 7.56,31.79 1.6,3.2 2.97,5.66 4.99,8.47 6.28,8.7 18.85,19.3 33.53,19.3 16.19,0 13.49,-0.14 28.63,-4.32 4.84,-1.34 12.67,-4.83 16.64,-8.19l4.8 -4.41c8.12,-9.22 10.55,-19.16 10.55,-32.35 0,-1.5 -1.36,-1.01 -2.74,-1.17 -0.89,-0.11 -2.23,-0.52 -3.32,-0.6 -1.81,-0.14 -2.17,0.23 -3.56,0.34 -1.76,0.14 -2.16,-0.22 -3.53,-0.34 -3.41,-0.28 -8.32,0.16 -11.69,0 -1.83,-0.1 -2.13,-0.72 -3.53,-0.72 -6.2,0 3.07,14.43 -11.85,23.25 -6.11,3.61 -14.61,3.74 -20.57,-0.76 -4.09,-3.1 -5.47,-7 -7.4,-11.03 -1.83,-3.81 -3.61,-10.18 -4.29,-14.5 -1.34,-8.52 -2.08,-13.95 1.99,-20.3 5.7,-8.87 18.43,-12.12 27.24,-5.39 9.47,7.24 -2.65,10.4 29.3,-5.43 1.41,-0.69 1.98,-0.98 2.95,-2.01 -0.87,-3.74 -10.77,-13.13 -14.04,-15.38 -13.4,-9.32 -30.84,-8.05 -45.83,-3.01 -11.27,3.79 -18.07,7.37 -25.47,15.64 -6.64,7.41 -10.37,19.96 -10.37,31.11z"/>
    <path class="fil1" d="M285.44 314.13c0,10.92 1.17,16.01 4.65,26.54 0.51,1.54 1.09,3.16 1.74,4.64 0.65,1.46 1.19,2.93 2,4.38 4.89,8.69 4.14,6.35 7.97,11.18 2.16,2.72 7.47,6.73 10.56,8.58 11.43,6.85 23.52,7.2 36.57,4.62 3.81,-0.75 6.65,-1.5 10.12,-2.65 12.83,-4.25 22.47,-9.98 28.38,-22.67 2.43,-5.21 4.37,-14.02 4.37,-21.5 0,-4.38 -11.23,-1.67 -18.9,-2.73 -14.16,-1.95 -11.2,-0.07 -12.1,6.48 -1.02,7.49 -2.17,12.58 -9.55,15.98 -6.96,3.22 -15.25,4.04 -21.07,-1.73 -7.1,-7.06 -9.64,-17.96 -11.01,-27.63 -1.06,-7.48 -1.51,-14.16 4.63,-20.42 7.72,-7.87 20.54,-8.43 27.63,0.57 4.09,5.19 1.97,4.13 16.61,-3.13l6.26 -3.31c6.48,-3.24 7.59,-2.97 4.47,-7.07 -0.85,-1.12 -1.43,-1.95 -2.3,-3.02 -4.77,-5.81 -10.37,-10.56 -17.8,-13.4 -16.82,-6.44 -42.02,0.16 -56.26,10.79 -2.93,2.19 -5.7,4.75 -7.91,7.69 -5.83,7.77 -9.06,17.39 -9.06,27.81z"/>
    <path class="fil1" d="M536.42 238.62c0,-2.69 13.62,-3.95 16.05,-4.17 7.38,-0.64 14.46,13.15 4.85,19.04 -3.46,2.12 -10.82,4.98 -15.59,4.98 -1.01,-4.29 -5.32,-17.17 -5.32,-19.85zm-38.28 -12.77c0,1.71 7.96,30.44 8.66,33.18l13.04 49.7c0.6,2.14 3.74,15.59 4.45,16.47 1.53,1.9 5.36,0.01 7.74,-0.59l21.06 -5.52c3.69,-0.9 2.96,-0.35 3.54,-1.77l0.11 -0.41c0,-0.04 0.02,-0.17 0.02,-0.22l-0.25 -1.34c-0.22,-0.87 -0.4,-1.53 -0.59,-2.29l-5.88 -22.48c-3.04,-12.08 -5.73,-9.24 11.27,-13.61 4.42,-1.13 10.09,-2.74 13.87,-4.55 8.66,-4.17 14.87,-9.52 18,-18.87 1.87,-5.59 1.89,-9.03 0.96,-15.59 -1.29,-9.09 -5.72,-18.49 -12.99,-23.86 -10.62,-7.84 -24.46,-4.83 -36.07,-1.93 -5.57,1.39 -10.73,2.77 -16.1,4.11l-27.93 7.16c-1.28,0.33 -2.9,0.69 -2.9,2.41z"/>
    <path class="fil1" d="M331.52 459.47c-12.19,0 -22.53,-1.36 -34.11,-4.18 -7.38,-1.79 -18.28,-5.69 -24.98,-9.06 -10.04,-5.07 -11.92,-6.13 -21.17,-12.5l-13.95 -11.57c-4.18,-4.23 -4.06,-4.02 -9.73,-2.47 -1.72,0.47 -3.08,0.78 -4.82,1.21 -11.83,2.96 -10.61,2.23 -4.58,9.06 3.72,4.23 8.11,8.02 12.42,11.68 6.49,5.49 17.18,13.04 24.71,17.12 16.68,9.02 27.93,12.91 46.18,16.57 3.75,0.75 8.09,1.68 11.7,2.12 4.5,0.56 9.24,0 13.68,0.5 6.28,0.7 19.01,-0.56 25.88,-1.53 13.24,-1.86 25.95,-5.58 38.14,-10.42 5.41,-2.15 9.06,-4.32 14.03,-6.89 7.07,-3.65 19.34,-12.4 24.73,-17.1 6.7,-5.84 11.5,-10.42 17.54,-17.2 0.7,-0.8 0.8,-1.12 1.59,-1.95 3.02,-3.17 10.53,-13.76 13.09,-18.1 5.23,-8.84 5.39,-9.69 9.68,-18.32l4.1 -10.08c0.68,-1.76 1.1,-3.21 1.71,-5.03 0.78,-2.36 5.74,-17.87 3.4,-17.87l-12.79 3.15c-2.08,0.42 -4.31,1.01 -5.71,2.09 -1.63,1.27 -2.1,3.3 -2.72,5.43 -2.52,8.71 -5.45,15.34 -9.25,22.65 -3.64,6.98 -12.52,20.7 -17.64,25.97 -0.93,0.96 -1.15,1.12 -2.01,2.24 -5.61,7.26 -18.42,16.88 -25.95,21.92 -13.36,8.95 -28.89,15.32 -44.73,19.07 -7.75,1.84 -18.86,3.47 -28.43,3.47z"/>
    <path class="fil1" d="M324.43 189.35c16.07,0 28.2,0.48 43.65,5.27 18.36,5.69 32.63,13.31 47.5,25.16l7.65 6.88c2.48,2.45 4.14,1.47 7.27,0.69 2.66,-0.67 5.02,-1.2 7.65,-1.92 2.33,-0.64 5.51,-1.34 7.52,-2.41 -0.19,-2.28 -3.1,-4.33 -4.52,-5.76l-10.99 -10.27c-0.65,-0.58 -0.74,-0.54 -1.39,-1.09l-10.47 -7.97c-7.73,-5.16 -10.57,-7.17 -20.01,-11.89 -9.57,-4.79 -19.61,-8.37 -30.96,-11.22 -12.84,-3.24 -26,-4.61 -41.13,-4.61 -10.07,0 -19.8,2.03 -28.51,3.75 -8.88,1.75 -17.16,4.45 -24.77,7.49 -14.5,5.8 -30.92,15.21 -42.7,25.71l-6.37 5.67c-9.12,9.15 -14.59,15.63 -21.93,26.64l-7.46 12.39c-1.29,2.56 -1.34,1.98 -2.75,5.39 -4.5,10.88 -6.12,13.92 -9.91,26.61 -2.47,8.29 -3.42,9.55 2.48,7.81 8.79,-2.6 15.47,-2.08 17.2,-6.91 1.66,-4.62 1.95,-6.46 4.19,-12.11 2.02,-5.08 5.28,-11.5 8,-16.11l6.32 -9.99 10.76 -13.35c0.92,-0.91 1.05,-1.12 1.81,-2.08 5.9,-7.4 21.99,-18.7 29.36,-23.1 17.37,-10.39 42.79,-18.67 62.5,-18.67z"/>
    <path class="fil1" d="M142.22 216.29c0,2.44 10.99,5.75 10.99,7.09 0,5.28 -6.49,-0.94 -11.52,-2.73 -2.35,-0.83 -2.95,1.55 -4.33,4.26 -1.13,2.22 -1.69,3.11 0.6,4.5 1.54,0.92 3.11,1.74 4.84,2.6l7.45 3.9c3.78,2.04 14.83,8.74 18.19,8.74 2.02,0 3.91,-5.48 3.91,-6.38 0,-2.28 -3.67,-3.22 -7.21,-5.2 -5.14,-2.88 -6.69,-2.5 -4.5,-5.79 2.49,0.58 12.2,6.73 13.48,6.73 1.34,0 4.61,-7.09 4.61,-7.09 0,-1.42 -5.48,-3.98 -7.21,-4.85l-6.02 -3.19c-0.88,-0.49 -1.15,-0.74 -2.01,-1.19 -2.78,-1.45 -5.26,-2.8 -8.04,-4.36 -1.43,-0.79 -2.5,-1.35 -3.9,-2.12 -6.11,-3.39 -5.79,-2.33 -7.55,1.19 -0.59,1.15 -1.78,2.39 -1.78,3.89z"/>
    <path class="fil1" d="M286.5 115.61c0.85,0.97 2.28,5.68 2.84,7.09 0.86,2.17 2.32,5.46 1.77,7.81 -1.25,0.29 -1.17,0.35 -2.84,0.35 -0.32,-3.82 -1.77,-12.51 -1.77,-15.24zm-4.96 30.48c11.64,-0.96 8.51,-2.94 8.51,-8.51l2.57 -0.83c1.34,-0.03 1.55,0.96 2,2.29 0.32,0.94 0.52,1.84 0.75,2.8 2.92,0.68 7.43,-0.38 8.86,-1.07 0.56,-2.43 -1.53,-6.11 -2.89,-9.52l-7.75 -19.19c-3.2,-8.03 -1.81,-6.69 -11.7,-4.25 -5.54,1.36 -4.9,0 -3.08,14.07 0.51,3.96 1.77,22.21 2.73,24.21z"/>
    <path class="fil1" d="M240.41 137.59c0,-3.82 2.15,-1.93 3.45,0.46 0.93,1.72 1.72,3.13 2.58,4.86 0.89,1.78 4.61,8.46 4.61,10.28 0,1.1 -0.64,1 -1.42,1.41 -1.69,-1.13 -5.93,-10.08 -7.09,-12.41 -0.52,-1.06 -2.13,-3.51 -2.13,-4.61zm0 -5.67c-4.45,0 -9.21,1.14 -9.21,6.38 0,2.62 6.6,15.22 7.87,17.3 1.63,2.69 2.46,5.57 6.15,6.28 3.22,0.62 6.64,-2.58 7.25,-5.15 5.7,1.33 9.21,-3.02 9.21,-3.19 0,-1.53 -1.05,-3.26 -1.7,-4.32l-10.59 -20.61c-0.87,-1.74 -3.38,-7.67 -4.72,-7.67 -1.66,0 -5.59,2.51 -6.27,3.67 -1.05,1.79 1.82,5.02 2.01,7.31z"/>
    <path class="fil1" d="M165.97 460.18c0,2.97 1.5,5.66 2.93,7.35 1.21,1.44 3.97,3.68 5.81,4.47 4.62,1.98 7.55,-0.06 10.95,-2.75 3.32,-2.63 3.32,-2.35 1.5,-4.4 -0.65,-0.74 -0.74,-1.01 -1.44,-1.76 -0.52,-0.56 -0.9,-0.83 -1.41,-1.43 -0.96,-1.12 -0.53,-1.49 -2.05,-1.49 -1.55,0 -3.46,4.25 -7.09,4.25 -1.22,0 -2.24,-1.18 0.26,-3.64 1.36,-1.33 2.41,-2.01 3.73,-3.36 1.29,-1.32 2.27,-1.94 3.54,-3.2 0.85,-0.84 1.08,-0.89 1.94,-1.61l5.51 -4.76c0.9,-0.81 3.33,-3.06 4.31,-0.92 1.16,2.5 -5.81,5.43 -5.81,8.63 0,1.87 3.59,5.19 4.96,6.38 2.89,-1.53 8.51,-6.52 8.51,-10.28 0,-4 -0.64,-6.5 -3.81,-9.67 -1.22,-1.22 -1.47,-1.7 -3.15,-2.52 -7.36,-3.6 -11.67,1.35 -17.26,6.05l-4.76 4.09c-3.08,3.11 -7.18,6.15 -7.18,10.55z"/>
    <path class="fil1" d="M334.71 515.13c0,5.88 -0.24,22.48 3.8,25.97 4.61,4 16.48,3.01 18.59,-2.88 0.51,-1.43 1.13,-7.13 0.64,-9.24 -0.14,-0.63 -0.39,-1.45 -2.11,-1.45 -2.35,0 -6.05,0.39 -6.6,2.26 -0.91,3.03 1.51,7.31 -2.26,7.31 -2.12,0 -2.06,-8.03 -2.12,-10.29l-0.37 -6.02c-0.1,-1.99 -0.72,-5.97 -0.04,-8.21 0.87,-2.86 3.27,-1.44 3.56,1.5 0.6,6.22 -1.48,6.7 5.35,7.07 2.23,0.11 4.25,0.74 4.25,-1.78 0,-3.53 -0.62,-8.19 -1.9,-10.5 -3.1,-5.59 -20.78,-7.14 -20.78,6.24z"/>
    <path class="fil1" d="M313.8 111.35c-0.02,-1.08 -0.16,-1.29 -0.35,-2.12 -1.68,-0.14 -0.75,-0.22 -2.22,-0.1 -1.01,0.08 -1.76,0.06 -2.75,0.09 -6.17,0.24 -2.89,4.58 -2.12,17.02 0.16,2.51 0.55,4.86 0.72,7.43 0.2,2.89 0.17,4.91 1.41,6.75 1.53,0 7,-0.27 7.69,-1.18 1.28,-1.72 -1.66,-19.54 -1.66,-24.35 0,-0.69 3.42,-6.6 4.25,10.29 0.83,17.02 0.69,13.49 6.39,13.47 5.93,-0.02 3.42,-2.97 2.85,-10.31 -0.36,-4.67 -1.05,-11.2 -1.94,-15.78 -1.1,-5.67 -5.95,-5.57 -9.3,-3.56 -1.42,0.87 -1.82,1.59 -2.97,2.35z"/>
    <path class="fil1" d="M519.4 375.45c0,2.69 1.27,2.76 1.42,4.61 -2.39,-0.57 -2.33,-0.96 -3.42,2.96 -1.63,5.81 -3.16,4.9 7.18,7.83 5.12,1.45 13.29,4.33 18.54,5.6 1.77,0.42 2.46,-0.51 3.02,-2.42 2.41,-8.17 3.17,-4.66 -16.93,-11.35 -1.51,-0.5 -5.53,-1.41 -5.53,-2.97 0,-4.19 19.26,4.96 24.1,4.96 1.71,0 2,-2.99 2.58,-4.51 1.68,-4.35 0.91,-3.69 -3.84,-4.86 -0.94,-0.23 -1.81,-0.5 -2.76,-0.78 -2.01,-0.6 -3.78,-1.28 -5.59,-1.86 -3.61,-1.15 -7.38,-2.34 -11.04,-3.16 -5.14,-1.15 -7.71,2.48 -7.71,5.95z"/>
    <path class="fil1" d="M396.39 505.2l-0.7 0c-0.71,-2.64 -3.07,-1.05 -5.48,-0.15 -3.78,1.41 -3.75,1.41 -2.11,6.31l4.53 13.56c2.78,8.34 2.3,10.69 7.62,8.96 6.75,-2.19 3.77,-1.12 -1.68,-19.85 -0.5,-1.71 -1.81,-4.9 -1.11,-6.34 1.32,-0.64 1.93,-0.28 2.56,0.99l3.42 9.69c1.13,3.38 3.02,10.27 4.66,12.72 0,0 7.8,-1.59 7.8,-3.19 0,-1.68 -6.05,-18.91 -7.13,-21.58 -2.04,-4.99 -2.51,-5.36 -6.33,-5.36 -2.87,0 -5.43,2.01 -6.03,4.25z"/>
    <path class="fil1" d="M497.78 439.27c0,2.85 -3.05,0.19 -3.85,-0.41 -0.95,-0.7 -3.31,-2.52 -4.31,-2.79 0.13,-5.86 8.16,0.74 8.16,3.2zm-18.8 -0.36c0,1.48 9.82,8.25 11.45,9.47 4.14,3.11 8.07,5.93 12.15,9.11 5.37,4.19 5.29,4.48 8.81,0 0.7,-0.9 2.12,-1.76 2.14,-3.04 0.04,-2.36 -9.38,-6.53 -11.15,-9.87 3.66,-6.93 6.39,-8.62 -1.62,-14.69 -2.45,-1.85 -5.43,-4.09 -8.67,-4.09 -4.3,0 -7.93,5.61 -10.48,9.01 -0.65,0.87 -2.64,3.15 -2.64,4.1z"/>
    <path class="fil1" d="M176.97 205.29c2.45,0.57 6.67,3.2 6.73,6.03 -4.83,1.16 -6.73,-3.53 -6.73,-6.03zm-17.02 -3.54c0,4.61 2.62,8.43 6.03,9.22 1.18,-0.79 4.61,-4.7 4.61,-6.38 0,-2.44 -3.91,-2.58 -3.91,-4.25 0,-0.96 0.17,-0.98 0.36,-1.77 3.59,0 5.3,3.47 5.17,5.17 -0.69,9.52 -3.84,9.34 2.77,14.17 3.18,2.32 8.06,3.73 10.71,-0.34 1.09,-1.68 0.85,-3.68 0.85,-6.24 2.22,1.49 1.66,1.93 3.84,-1.12 0.67,-0.93 1.41,-1.68 2.05,-2.57 1.82,-2.56 -0.53,-3.54 -2.35,-4.82 -3.53,-2.47 -6.83,-5.05 -10.49,-7.58 -4.09,-2.84 -7.6,-6.01 -12.15,-4.05 -2.79,1.2 -7.49,6.52 -7.49,10.58z"/>
    <path class="fil1" d="M451.7 480.38c0,-2.37 2.89,-0.58 4.82,2.27l3.13 4.32c2.05,2.84 5.17,5.69 5.17,9.37 -1.95,0.46 -1.59,0.17 -3.95,-2.79 -1.41,-1.77 -9.17,-11.14 -9.17,-13.17zm-7.45 1.77c0,3.6 0.49,4.47 2.48,7.45 2.04,3.06 8.5,13.82 12.77,13.82 6.34,0 17.96,-6.33 10.71,-17.09 -2.86,-4.25 -8.03,-13.75 -13.89,-13.75 -4.05,0 -2.35,0.16 -5.2,1.54 -3.22,1.56 -6.86,3.56 -6.86,8.03z"/>
    <path class="fil1" d="M207.8 173.75c0,-3.08 1.05,-2.45 3.2,0.35 0.92,1.19 2.46,2.66 2.83,4.26 -0.66,0.74 -0.92,1.05 -1.78,0.75 -0.73,-0.25 -1.32,-0.83 -1.86,-1.36 -0.99,-0.96 -2.38,-2.23 -2.38,-4zm-15.6 -7.44c0,3.43 1.19,6.87 4.26,8.51 1.24,-0.83 6.21,-4.08 6.03,-5.68 -0.21,-1.82 -3.2,-1.87 -3.2,-5.66 3.27,-0.76 4.96,2.95 4.96,4.25 0,0.87 -1.18,4.22 -1.55,5.17 -1.26,3.15 -4.02,5.43 0.57,10.34 1.22,1.31 2.65,3.05 4.41,3.75 4.44,1.76 8.17,-2.12 8.26,-6.51 1.21,0.29 1.89,1.47 4.52,-0.8 3.12,-2.71 4.92,-3.46 1.43,-6.91 -1.09,-1.07 -1.36,-1.58 -2.31,-2.65l-9.01 -10.14c-2.87,-3.57 -3.42,-3.96 -7.74,-3.96 -3.47,0 -10.64,4.68 -10.64,10.29z"/>
    <path class="fil1" d="M507.7 417.64c0,-2.8 3.05,-0.98 5.52,0.51 1.63,0.97 2.93,1.56 4.55,2.53 1.95,1.16 7.72,3.42 8.36,5.82 -2,2.22 -4.27,-0.38 -9.33,-3.07 -1.76,-0.94 -3.12,-1.67 -4.77,-2.66 -1.71,-1.02 -4.32,-1.96 -4.32,-3.12zm24.46 7.09c0,-5.41 -1.18,-6.88 -6.14,-9.82 -6.21,-3.68 -14.08,-9.3 -20.16,-4.42 -2.37,1.9 -4.67,5.88 -4.76,9.68 -0.16,6.13 7.06,9.06 12.51,12.12 4.18,2.34 9.3,4.95 13.3,1.72 2.02,-1.63 5.26,-5.83 5.26,-9.28z"/>
    <path class="fil1" d="M282.6 531.08c-5.24,-0.11 -1.31,-7.98 2.48,-8.87 -0.11,4.88 -2.02,6.87 -2.48,8.87zm-7.09 -16.3c3.44,0.8 1.71,1.77 7.8,1.77 0.5,-2.15 1.05,-4.42 2.12,-6.02 3.49,0.93 2.1,5.4 0.09,6.82 -3.46,2.43 -10.58,-0.44 -12.81,6.33 -1,3.02 -2.35,7.48 0.02,9.82 0.81,0.79 2.93,1.82 4.34,2.05 2.33,0.4 2.8,-1.11 4.81,-1.28 0.73,3.12 1.09,1.79 5.55,3.34l1.32 0.39c2.66,0.17 2.32,-2.45 2.94,-4.57 0.52,-1.81 0.86,-3.15 1.33,-5.05 0.9,-3.63 1.67,-6.55 2.42,-10.33 0.72,-3.56 2.06,-6.24 -1.41,-9.4 -5.34,-4.88 -18.53,-5.98 -18.53,6.12z"/>
    <path class="fil1" d="M343.57 133.34c-1.77,0 -1.35,-0.67 -1.45,-2.46 -0.07,-1.56 -0.46,-1.69 -0.2,-3.07 0.33,-1.81 1.58,-3.53 3.42,-3.69 0,2.22 -0.38,2.76 -0.36,4.95 0.02,1.9 0.49,4.27 -1.41,4.27zm-9.56 -18.09c0,3.2 1.4,4.26 6.02,4.26 2.02,0 2.2,-2.65 2.4,-4.33 0.48,-4.08 3.27,-2.05 3.27,-0.98 0,6.43 -1.42,4.84 -7.81,8.14 -7.26,3.74 -6.74,18.54 3.11,16.26 2.46,-0.57 1.99,-0.96 3.64,-2.07 0.78,1.49 0.9,2.07 3.17,2.14 2.2,0.08 3.46,0.34 5.34,0.34 1.59,-3.32 1.06,-18.65 1.06,-23.05 0,-7.74 -4.45,-8.51 -11.7,-8.51 -4.64,0 -8.51,3.37 -8.51,7.8z"/>
    <path class="fil1" d="M371.58 515.48c0,-0.82 2.09,-4.01 3.46,2.57 0.41,1.94 0.66,3.34 1,5.39 0.55,3.29 1.91,7.86 1.22,10.84l-2.12 0c-0.34,-1.41 -0.73,-2.72 -1.04,-4.28 -0.76,-3.88 -2.51,-11.16 -2.51,-14.51zm1.41 24.46c3.71,0 6.23,-0.03 9.52,-2.18 1.36,-0.88 3.6,-3.29 3.6,-5.26 0,-4.77 -1.41,-11.84 -2.4,-15.68 -1.33,-5.19 -3.6,-8.43 -9.64,-8.43 -4.61,0 -10.87,2.81 -10.8,8.49 0.02,1.34 -0.02,4.39 0.25,6.31 0.49,3.53 2.01,12.48 4.59,14.91 0.98,0.93 3.07,1.84 4.89,1.84z"/>
    <path class="fil1" d="M371.93 144.32c0,2.71 7.18,3.55 10.28,3.55 4.19,0 5.57,-3.42 6.69,-6.43l7.4 -19.55c2.04,-5.2 2.46,-6.64 -4.5,-6.64 -3.02,0 -2.24,3.45 -4.15,8.26l-3.65 8.75c0,-6.17 1.42,-11.57 1.42,-18.07 0,-1.51 -2.41,-1.51 -3.87,-1.82 -2.06,-0.44 -3.3,-0.48 -3.87,1.53 -0.92,3.3 0.01,7.72 -0.51,11.54l-0.62 11.43c-0.01,2.36 0.22,3.8 -1.41,4.63 -1.62,0.82 -3.2,0.18 -3.2,2.83z"/>
    <path class="fil1" d="M400.65 129.08c0,7.54 11.26,12.55 4.61,17.02 -5.21,-1.21 2.79,-5.5 -3.69,-7.31 -4.9,-1.36 -4.67,-1.96 -5.71,3.96 -1.54,8.8 20.03,15.55 20.03,0.16 0,-4.95 -3.17,-7.63 -5.57,-10.38 -1.38,-1.58 -1.95,-3.45 -0.54,-5.32 0.58,-0.78 1.45,-1.41 2.4,-0.46 1.1,1.09 -0.19,1.81 -0.19,3.04 0,2.13 3.59,3.55 6.37,3.55 3.73,0 3.99,-13.12 -10.98,-13.12 -3.84,0 -6.73,4.81 -6.73,8.86z"/>
    <path class="fil1" d="M442.48 158.86c0,5.61 -4.26,5.33 -4.26,3.54 0,-3.09 3.3,-3.43 0.94,-5.54 -1.86,-1.65 -3.04,-2.61 -5.19,-2.61 -2.12,0 -3.19,3.83 -3.19,6.73 0,4.5 10.13,13.93 17.65,6.3 4.07,-4.14 3.26,-7.65 0.79,-12.33 -0.88,-1.68 -2.49,-3.56 -2.49,-6.02 0,-3.77 3.9,-3.69 3.9,-2.48 0,3.99 -4.71,3.03 4.97,8.15 1.54,-2.31 4.69,-5.17 0.92,-10.14 -1.7,-2.26 -6.51,-5.45 -10.49,-5.45 -4.42,0 -10.11,6.83 -6.27,14.42 0.44,0.87 2.72,4.94 2.72,5.43z"/>
    <path class="fil1" d="M256.37 528.24c5.47,0 9.59,-4.02 10.63,-8.51 -2.17,-2.5 -5.89,-4.09 -8.5,0.01 -0.56,0.87 -1.27,2.83 -2.49,2.83 -5.08,0 5.7,-19.12 5.74,-19.14 0.89,-0.78 2.06,-0.5 2.06,0.7 0,2.09 -1.06,2.9 -1.06,4.61 0,0.71 8.51,8.31 8.51,-1.41 0,-4.15 -0.57,-5.21 -3.45,-7.54 -3.52,-2.84 -9.28,-3.93 -13.23,-0.99 -2.29,1.71 -5.83,11.03 -6.77,13.8 -1.41,4.21 -2.35,7.63 -0.38,10.77 1.45,2.31 5.33,4.88 8.95,4.88z"/>
    <path class="fil1" d="M174.48 181.9c0,0.42 3.1,6.18 5.95,1.7 0.7,-1.1 0.95,-1.57 2.56,-1.7 1.62,3.38 6.99,15.05 8.3,16.87 5.29,7.27 6.44,2.2 9.87,-1.19 1.96,-1.95 6.76,-5.39 3.33,-8.12 -4.13,-3.29 -3.69,1.84 -6.97,2.71 -1.14,-0.84 -5.71,-11.4 -6.73,-13.49 -1.01,-2.06 -4.17,-6.82 -6.44,-6.98 -1.69,-0.13 -5.08,4.5 -6.95,6.37 -0.87,0.86 -2.93,2.44 -2.93,3.81z"/>
    <path class="fil1" d="M457.37 461.59c0,1.79 4.35,5.58 7,8.6l10.62 11.36c7.01,8.39 5.97,7.96 10.82,3.53 2.92,-2.67 3.93,-1.4 -2.65,-8.51 -0.69,-0.74 -1.25,-1.23 -1.96,-1.95 -0.92,-0.92 -1.1,-1.41 -1.94,-2.31 -0.69,-0.74 -1.27,-1.19 -1.96,-1.95l-5.66 -6.39c-8.92,-9.28 -7.35,-10.22 -11.52,-6.02 -0.84,0.84 -2.75,2.28 -2.75,3.63z"/>
    <path class="fil1" d="M358.82 137.95c0,0.96 0.16,0.97 0.35,1.77l7.8 1.06c1.41,-2.65 4.65,-28.47 5.26,-32.67 0.72,-4.92 0.88,-3.98 -3.8,-4.94 -4.51,-0.93 -4.87,-0.25 -5.3,2.92 -0.8,5.84 -4.3,28.38 -4.3,31.86z"/>
    <path class="fil1" d="M298.19 537.45c0,3.73 4.36,3.03 6.3,3.31 3.71,0.53 2.62,0.29 4.58,-11.56 0.98,-5.87 3.3,-18.89 3.3,-24 0,-2.12 -6.74,-2.12 -8.51,-2.12 -1.05,4.47 -1.83,12.22 -2.64,17.22l-2.48 14.88c-0.25,0.98 -0.56,1.3 -0.56,2.28z"/>
    <path class="fil1" d="M410.22 494.21c0,1.77 1.03,1.18 0.9,3.08 -0.11,1.4 -0.55,1.41 -0.55,3.29 0,1.6 1.66,1.45 2.66,1.96 0.96,0.49 1.32,1.73 1.84,2.77 2.08,4.23 7.21,17.6 10.04,17.6 3.01,0 3.32,0.14 6.27,-1.18 2.8,-1.25 4.84,-1.16 1.89,-5.56l-2.84 0c-1.5,-2.84 -2.82,-5.48 -4.15,-8.61 -0.86,-2.01 -4,-7.18 -4,-9.11 0,-0.56 1.06,-0.47 1.06,-2.83 0,-1.9 -2.39,-1.72 -3.36,-2.32 -1.2,-0.74 -0.79,-3 -2.67,-3 -1.95,0 -7.09,2.27 -7.09,3.9z"/>
    <path class="fil1" d="M229.78 480.03c-2.29,0 -2.2,0.16 -3.54,1.06 0,6.37 -0.4,5.38 -4.9,12.13 -1.19,1.77 -2.19,3.36 -3.33,5.17 -3.94,6.22 -3.12,7.96 2.19,11.77 1.01,0.73 2.02,1.55 3.25,1.15 3.49,-1.12 1.36,-4.57 1.36,-4.7 0,-4.41 8.44,-13.34 9.22,-16.66l2.82 0.42c0.46,-0.72 1.32,-1.51 1.56,-2.41 0.38,-1.5 -0.84,-1.62 -0.84,-2.97 0,-2.57 3.41,-2.91 -1.53,-5.91 -2.96,-1.8 -3.82,-3.69 -6.27,0.95z"/>
    <path class="fil1" d="M522.6 353.47c-1.99,0 -2.51,0.6 -2.87,3.51 -0.27,2.14 -0.78,3.07 -0.33,4.99 1.49,0.34 2.62,0.33 3.65,1.31 1.33,1.27 0.95,2.24 3.44,2.24 1.09,0 1.53,-0.87 1.77,-1.77l14.94 2.79c3.04,0.51 8.83,2.13 10.44,-2.22 0.41,-1.1 1.54,-5.79 1.56,-6.95 -4.14,-2.76 -4.6,0.36 -5.9,0.84l-17.37 -2.75c-2.53,-0.58 -1.34,-1.33 -2.53,-2.78 -1.95,-2.36 -4.1,0.51 -4.68,0.79 -1.63,0.79 -0.24,-0.01 -2.12,-0.01z"/>
    <path class="fil1" d="M220.92 145.75l-0.96 -1.17c-1.59,-1.65 -2.18,-1.12 -5.29,0.95 -1.21,0.81 -2.12,1.36 -2.97,2.35 0.65,2.77 10.66,16.89 12.76,19.85 0.78,1.09 1.9,3.06 2.81,3.94 2.8,2.68 7.83,-3.16 7.83,-3.59 0,-1.77 -3.41,-5.97 -4.61,-7.8 -1.47,-2.23 -4.25,-5.76 -4.25,-8.51 0,-2.63 4.87,-1.46 -0.11,-8.05 -1.29,-1.71 -2.02,-3.65 -3.09,-3.65 -2.19,0 -1.66,3.69 -2.12,5.67z"/>
    <path class="fil1" d="M184.05 482.16c0.92,1.38 2.2,2.42 3.45,3.65 3.75,3.7 5.15,-0.38 9.4,-4.98l3.71 -3.73c3.62,-4.4 4.04,-2.36 6.54,-1.35 2.04,0.83 2.85,-1.03 3.95,-2.34 0.07,-0.08 6.91,-5.78 1.32,-5.78 -1.78,0 -1.59,0.32 -3.19,0.35 0.65,-2.82 2.76,-2.51 -1.68,-5.77 -1.3,-0.96 -1.91,-1.66 -3.29,-2.39 -1.35,0.72 -1.94,1.23 -2.89,2.44l-15.1 16.8c-1.11,1.09 -1.83,1.44 -2.21,3.1z"/>
    <path class="fil1" d="M435.03 489.25l-0.71 0c-0.38,-1.67 -0.64,-1.32 -1.41,-2.48 -3.17,0.74 -5.62,2.16 -7.45,4.26 0.29,1.22 13.69,25.52 15.24,25.52 1.25,0 6.73,-2.26 6.73,-3.9 0,-1.67 -0.89,-2.98 -1.7,-4.32 -11.03,-18.1 -3.62,-11.96 -3.62,-16.59 0,-1.86 -3.99,-7.51 -4.95,-8.16 -1.45,0.96 -2.13,3.29 -2.13,5.67z"/>
    <path class="fil1" d="M416.6 154.97c0,2.04 0.63,1.92 2.95,3.06 5.99,2.96 4.18,3.24 13.23,-14.88 3.09,-6.16 6.55,-10.2 1.95,-12.35 -6.55,-3.05 -4.85,-3.13 -11.76,10.69 -0.96,1.94 -6.37,11.98 -6.37,13.48z"/>
    <path class="fil1" d="M229.07 514.06c0,1.98 5.72,4.56 7.45,4.96 1.19,-1.02 3.06,-4.75 3.91,-6.37l10.04 -19.35c0.25,-2.09 -1.68,-2.35 -3.2,-3.11 -6.33,-3.17 -3.73,-2.52 -11.44,10.76l-6.76 13.1z"/>
    <path class="fil1" d="M200.01 495.27c0,1.16 5.62,5.9 7.45,4.99 0.73,-0.37 12.64,-16.55 14.57,-19.12 3.22,-4.28 3.56,-4.38 -0.69,-7.55 -1.2,-0.89 -2.95,-2.29 -4.38,-1.1l-2.83 3.59c-1.23,1.5 -14.12,18.55 -14.12,19.2z"/>
    <path class="fil1" d="M510.54 400.62c3.19,2.13 2.5,1.66 6.33,3.24l13.87 5.98c2.03,0.89 4.85,2.3 7.1,2.83l2.12 -3.55c0.59,-1.19 1.65,-2.74 1.77,-4.25 -0.9,-1.04 -1.34,-1.25 -2.79,-1.83l-10.28 -4.25c-2.84,-1.17 -11.77,-5.62 -14.23,-5.62 -1.55,0 -3.56,5.97 -3.9,7.45z"/>
    <path class="fil1" d="M258.85 131.92c0,3.15 1.72,5.99 4.02,6.97 4.43,1.87 9.34,-0.05 10.52,-4.86 0.96,-4 -1.69,-9.19 -7.45,-9.19 -3.65,0 -7.09,3.47 -7.09,7.09z"/>
    <path class="fil1" d="M315.21 523.63c0,4.51 3.02,7.6 7.09,7.63 9.34,0.07 10.38,-13.95 0.27,-14.54 -3.93,-0.22 -7.36,2.84 -7.36,6.91z"/>
    <path class="fil1" d="M484.31 467.27c10,0 9.99,-14.53 0,-14.53 -8.92,0 -9.24,14.53 0,14.53z"/>
    <path class="fil1" d="M504.16 397.79c4.08,4.69 4.77,0.7 5.88,-1.92 0.91,-2.14 1.53,-3.03 0.51,-5.17 -4.5,-1.05 -3.24,0.04 -5.62,5.02 -0.4,0.84 -0.52,1.06 -0.76,2.08z"/>
    <path class="fil1" d="M431.13 126.25c0,0.56 7.61,6.48 9.18,2.04 0.02,-0.08 0.13,-0.69 0.13,-0.74 0.09,-1.89 -1.15,-1.83 -3.4,-2.95 -2.39,-1.21 -5.91,-3.08 -5.91,1.65z"/>
    <path class="fil1" d="M220.21 469.04c0,0.95 1.73,2.34 2.39,2.93 0.69,0.6 0.89,0.65 1.58,1.26 2.55,2.26 3.38,1.16 4.89,-1.7 -0.6,-0.92 -4.7,-4.96 -7.09,-4.96 -1.01,0 -1.77,1.72 -1.77,2.48z"/>
    <path class="fil1" d="M244.67 485.34c0,1.49 8.86,7.41 8.86,1.78 0,-1.75 -2.78,-2.96 -4.29,-3.51 -2.07,-0.76 -4.57,-1.34 -4.57,1.73z"/>
   </g>
  </g>
 </g>
</svg>
