<svg id="_2490038257104" xmlns="http://www.w3.org/2000/svg" width="93.35" height="93.35" viewBox="0 0 93.35 93.35">
  <ellipse id="Elipse_9" data-name="Elipse 9" cx="46.675" cy="46.675" rx="46.675" ry="46.675" fill="none"/>
  <g id="Grupo_22" data-name="Grupo 22" transform="translate(13.962 13.782)">
    <path id="Trazado_95" data-name="Trazado 95" d="M64.356,78.6c0,.726.937.658,1.4.658h6.162a15.193,15.193,0,0,1-3.258,2.687c-.447.273-.819.465-1.3.707a14.612,14.612,0,0,1-4.579,1.359c-.3.031-.633.081-.912.093-.155.006-.329,0-.484,0a3.1,3.1,0,0,1-.925.006,4.071,4.071,0,0,0-.478-.006,15.109,15.109,0,0,1-5.56-1.427,14.287,14.287,0,0,1-3.034-1.948,11.323,11.323,0,0,1-1.539-1.477c.5,0,8.47.037,8.768-.019,1.272-.23.465-1.688-.093-1.837a5.12,5.12,0,0,1-2.439-.577.993.993,0,0,1-.5-.509,6.127,6.127,0,0,1-.23-1.775V65.267H68.551v8.911a7.889,7.889,0,0,1-.217,1.924c-.366,1.272-2.06,1.222-3.016,1.266a.851.851,0,0,0-.683.41,1.589,1.589,0,0,0-.279.813Zm-18.218-9c0-2.662,1.347-5.4,2.463-7.632l1.21-2.153v14.16c0,.937.056,2.315-.67,2.867a1.945,1.945,0,0,1-.856.366,1.284,1.284,0,0,0-.192-.379l-.627-1.21a14.085,14.085,0,0,1-.683-1.768c-.081-.3-.18-.614-.261-.962a15.723,15.723,0,0,1-.385-3.289Zm28.053,6.249c-.006-.155-.056-.527-.074-.664-.031-.236.006-.484-.019-.726-.093-.831-.037-9.618-.037-10.667l.037.05a19.4,19.4,0,0,1,1.4,4.145c.043.261.093.571.124.838.012.143.056.819.043.906-.056.472-.043,1.011-.137,1.75a14.171,14.171,0,0,1-.751,3.053l-.422,1.024-.074.149-.105.161ZM60.862,41.235a34.33,34.33,0,0,0,2.29,4.654l2.65,4.3c-.385,0-1.011-.019-1.278.248-.441.441.112,1.52.633,1.62a7.568,7.568,0,0,1,1.88.217c.279.093.211.081.49.515a9.27,9.27,0,0,1,.993,1.632c.087.583.037,7.043.037,8.178H55.365V54.954a6.161,6.161,0,0,1,.217-1.75,2.412,2.412,0,0,1,1.936-1.08c.347-.043.6-.019.949-.056.434-.05.831-.689.831-1.179,0-.658-.645-.7-1.309-.7H55.936a2.879,2.879,0,0,1,.31-.521c.1-.168.223-.36.335-.534.856-1.266,1.526-2.575,2.271-3.8l.912-1.706c.105-.211.192-.372.285-.59.062-.155.732-1.731.825-1.8Zm.13-4.325a24.165,24.165,0,0,1,11.07,2.476l.5.248a23.849,23.849,0,0,1,4.766,3.189c.1.087.1.093.211.18a22.392,22.392,0,0,1,2.277,2.265c.236.279.447.527.676.813s.434.565.664.869a24.109,24.109,0,0,1,4.418,10.7,24.777,24.777,0,0,1-.5,9.63,23.863,23.863,0,0,1-4.493,9.01,14.127,14.127,0,0,1-1.049,1.222c-.149.149-.2.248-.347.4-.347.347-1.154,1.179-1.533,1.477L76,80.706a24.93,24.93,0,0,1-2.755,1.787c-.335.186-.639.341-.974.509-.18.087-.3.149-.509.236-.974.4-1.632.732-2.712,1.092a25.184,25.184,0,0,1-13.3.639,24.717,24.717,0,0,1-5.1-1.762c-.192-.1-.329-.168-.521-.261l-3.326-2c-.583-.434-1.16-.869-1.706-1.353-.093-.081-.124-.087-.217-.174l-.98-.937c-.267-.267-.5-.5-.763-.763l-.714-.813c-.472-.583-.894-1.1-1.328-1.725a24.377,24.377,0,0,1-3.115-6.062,24.877,24.877,0,0,1-1.142-10.7,22.575,22.575,0,0,1,1.719-6.54c.087-.192.174-.372.242-.546a20.45,20.45,0,0,1,1.57-2.929,26.837,26.837,0,0,1,2.445-3.239l.546-.589a12.474,12.474,0,0,1,1.315-1.309c.621-.521,1.229-1.049,1.88-1.533L49.811,39.7A25.324,25.324,0,0,1,55.3,37.63a21.9,21.9,0,0,1,2.525-.49,24.069,24.069,0,0,1,2.83-.23c-.025.323-.41,1.595-.5,1.948A17.057,17.057,0,0,1,58.808,42.4c-.143.292-.261.527-.41.819-.41.825-.831,1.62-1.3,2.408-.161.267-.3.515-.453.769l-1.874,3.022c-.168.273-.341.5-.49.776H46.454a1.865,1.865,0,0,0-.856.279c-.459.36.025,1.21.372,1.477.267.2,1.3.074,2.029.242,1.657.379,1.824,1.005,1.824,2.674v2.1c0,.261-.248.509-.372.72-.149.242-.273.453-.41.683a42,42,0,0,0-3.022,5.845c-.211.527-.391,1.055-.589,1.638a15.35,15.35,0,0,0-.459,1.768,14.593,14.593,0,0,0,1.415,8.948c.149.292.279.527.422.8-.484,0-.807-.012-1.092.391s-.5,1.241.192,1.427a11.385,11.385,0,0,0,2.166.062c.23.348.54.639.794.956a10.191,10.191,0,0,0,1.526,1.489l2.048,1.489A15.792,15.792,0,0,0,60.3,85.5c.248,0,.31.056.565.05.223-.006.267-.05.521-.05a15.032,15.032,0,0,0,5.485-1.117,15.937,15.937,0,0,0,4.8-2.935,20.254,20.254,0,0,0,1.5-1.508,7.885,7.885,0,0,0,.534-.689h2.358c.751,0,1.75.081,1.75-.658,0-.534-.391-1.185-.875-1.222a4.471,4.471,0,0,1-1.75-.347,15.234,15.234,0,0,0,1.775-8.675A16.871,16.871,0,0,0,75.78,64.2a27.794,27.794,0,0,0-1.514-3.165,1.2,1.2,0,0,1-.211-.49c0-2.19-.081-4.468.093-6.639a1.634,1.634,0,0,1,.484-1.173,1.116,1.116,0,0,1,.354-.211,3.589,3.589,0,0,1,.788-.3c.726-.18,1.347.05,1.731-.5.428-.6.534-1.315-.4-1.483-.695-.124-8.755-.05-9.655-.05-.143-.267-.329-.49-.478-.745l-1.44-2.271c-.31-.509-.614-1.018-.918-1.533-.428-.72-1.409-2.426-1.731-3.2a24.012,24.012,0,0,1-1.371-3.568l-.385-1.452a3.414,3.414,0,0,0-.143-.515ZM35.26,61.2c0,17.827,17.709,29.952,34.2,24.454.416-.137.769-.254,1.167-.41a25.573,25.573,0,0,0,5.721-3.059l1.793-1.4c.093-.081.13-.1.217-.174l2.755-2.792a26.668,26.668,0,0,0,1.88-2.488c.223-.335.416-.645.621-.993.254-.416.943-1.663,1.117-2.073.093-.211.168-.354.248-.54a26.585,26.585,0,0,0,1.452-4.139,24.164,24.164,0,0,0,.776-7.173,25.839,25.839,0,0,0-2.445-10.139c-.354-.714-.707-1.371-1.092-2.054-.186-.323-.4-.658-.608-.962a24.948,24.948,0,0,0-1.843-2.482l-.366-.422c-.36-.465-1.3-1.371-1.756-1.831-.149-.149-.261-.211-.416-.372-.137-.136-.267-.236-.416-.372A25.589,25.589,0,0,0,72.28,37.94c-.118-.056-.174-.093-.3-.143-.887-.366-1.309-.571-2.259-.887-.41-.136-.757-.254-1.191-.379s-.825-.217-1.247-.323a26.2,26.2,0,0,0-9.481-.478,25.85,25.85,0,0,0-5.15,1.229l-1.737.664a26.242,26.242,0,0,0-2.674,1.34,26.577,26.577,0,0,0-2.861,1.9,21.793,21.793,0,0,0-2.153,1.868c-.347.347-.31.217-.614.608-.137.168-.459.453-.763.813l-1.272,1.52a27.059,27.059,0,0,0-2.5,3.922,23.2,23.2,0,0,0-.987,2.2A25.636,25.636,0,0,0,35.266,61.2Z" transform="translate(-27.342 -27.261)" fill="#fff5ef" fill-rule="evenodd"/>
    <path id="Trazado_96" data-name="Trazado 96" d="M88.073,58.2a32.661,32.661,0,0,1-.211,3.506c-.13,1.16-.316,2.153-.54,3.214a31.712,31.712,0,0,1-1.874,5.6L84.2,72.982a28.085,28.085,0,0,1-1.831,2.842c-.149.2-.261.36-.4.558-.4.534-.844,1.018-1.253,1.545L79.349,79.4c-.379.379-.745.769-1.16,1.111L76.917,81.6c-.192.155-.354.267-.54.422-.683.565-1.44,1.042-2.178,1.539L72.449,84.6c-.118.062-.211.1-.316.161s-.186.112-.3.174a31.747,31.747,0,0,1-6.807,2.544A30.221,30.221,0,0,1,45.891,85.8c-.2-.081-.372-.155-.546-.242l-1.061-.509a30.34,30.34,0,0,1-5.957-4l-.621-.558c-.292-.223-.515-.534-.813-.763a32.3,32.3,0,0,1-2.265-2.5,33.733,33.733,0,0,1-2.91-4.3l-.8-1.557a22.19,22.19,0,0,1-1.191-2.83c-.137-.41-.285-.776-.4-1.173a.909.909,0,0,0-1.8.23c0,.751,1.682,4.368,2.141,5.287S30.682,74.633,31.2,75.5a27.943,27.943,0,0,0,1.88,2.619c.074.1.118.13.2.236.137.168.242.3.372.453a28,28,0,0,0,2.408,2.569l1.086.968c.689.552,1.334,1.148,2.066,1.651.484.335.968.72,1.471,1.024.186.112.316.211.509.323.515.31,1.03.645,1.57.918A31.8,31.8,0,0,0,66.02,89.09a35.827,35.827,0,0,0,3.469-1.117l1.272-.521a31.324,31.324,0,0,0,7.868-4.933c.1-.087.143-.1.242-.2l1.179-1.092c.428-.428.993-.918,1.371-1.378l2.836-3.543a28.911,28.911,0,0,0,1.737-2.8c.335-.6.608-1.222.918-1.837a29.266,29.266,0,0,0,2.29-6.838,38.645,38.645,0,0,0,.621-4.362c.012-.161-.006-.3.012-.465l.006-3.525c-.087-.571-.056-1.111-.13-1.663a37.794,37.794,0,0,0-.85-4.654,29.4,29.4,0,0,0-3.332-8.029A37.325,37.325,0,0,0,82.3,37.582c-.41-.5-.9-.956-1.3-1.452-.217-.273-.627-.639-.887-.9l-1.2-1.08c-.112-.087-.143-.137-.254-.223L77.134,32.7a30.518,30.518,0,0,0-6.962-3.965A14.783,14.783,0,0,0,67.4,27.79a.912.912,0,0,0-.323,1.762l1.241.416c.416.149.782.3,1.191.465.794.316,1.5.664,2.24,1.036a29.968,29.968,0,0,1,5.926,3.99l3.1,3.1c.081.1.13.13.2.23.112.143.236.279.354.434l.54.689c.087.112.112.124.192.242.124.18.23.3.348.484a29.922,29.922,0,0,1,3.525,6.441A30.275,30.275,0,0,1,88.067,58.2Z" transform="translate(-24.409 -24.334)" fill="#fff5ef" fill-rule="evenodd"/>
    <path id="Trazado_97" data-name="Trazado 97" d="M83.257,27.887c-.571-.012-2.178-.2-2.885-.261l-1.787-.137a8.575,8.575,0,0,1,.074-.931c.05-.354.025-.621.074-.974l.155-1.942c.825,0,1.57.143,2.358.174l2.358.217-.261,2.885c-.012.23-.037.267-.043.478-.006.23-.037.3-.043.478Zm-5.547-.434c0,.819.838.943,1.483.962l2.259.186c.329.043.757.05,1.123.1a1.84,1.84,0,0,0,1.049-.05c.664-.316.5-1.042.608-1.88l.155-1.682a2.449,2.449,0,0,0-.1-1.551c-.292-.422-.906-.416-1.384-.453l-2.83-.23c-.863-.093-1.725-.3-2,.546l-.143,1.34c-.006.261-.031.379-.043.652l-.124,1.359c-.019.273-.05.428-.05.695Z" transform="translate(-43.451 -22.426)" fill="#fff5ef" fill-rule="evenodd"/>
    <path id="Trazado_98" data-name="Trazado 98" d="M23.21,63.219c0,1.179,2.1,1.806,2.817.763a6.025,6.025,0,0,0,.54-1.818c.068-.347.13-.639.2-.98.05-.248.087-.8.385-.8a2.957,2.957,0,0,1,.745.087c.664.217.279,1.1.118,1.7-.1.372-.211.763-.329,1.16a6.951,6.951,0,0,1-.354,1.129c-.223.292-.285-.093-.4.347a4.483,4.483,0,0,0-.137.608c1.291.3,1.489-1.03,1.706-1.787A22.467,22.467,0,0,0,29.155,61a1.493,1.493,0,0,0-.577-1.129,2.428,2.428,0,0,0-1.52-.36c-.925,0-1.067,1.111-1.16,1.589-.056.292-.1.515-.168.794-.292,1.26-.168,1.868-.987,1.725a.973.973,0,0,1-.658-.31,2.331,2.331,0,0,1,.105-.422l.341-1.272a7.8,7.8,0,0,1,.515-1.626h.347l.347-.745a1.122,1.122,0,0,0-1.545.465c-.192.391-.689,2.308-.831,2.885a3.839,3.839,0,0,0-.155.627Z" transform="translate(-22.769 -36.221)" fill="#fff5ef" fill-rule="evenodd"/>
    <path id="Trazado_99" data-name="Trazado 99" d="M23.331,80.77c0-.875.416-1.7,1.44-1.7a2.183,2.183,0,0,1,1.582.422,2.053,2.053,0,0,1,.6,1.018c.093.434.118.956.192,1.427.031.223.143,1.278.2,1.409L24.6,83.7c-.273.031-.652.1-.925.124,0-.608-.347-2.5-.347-3.059Zm-.831-.13a32.3,32.3,0,0,0,.5,4.114l3.909-.484c.23-.025.422-.062.658-.087.211-.025.5-.081.7-.087a36.993,36.993,0,0,0-.571-4.015,2.861,2.861,0,0,0-3.754-1.706,1.959,1.959,0,0,0-1.024.813,2.842,2.842,0,0,0-.416,1.458Z" transform="translate(-22.5 -43.458)" fill="#fff5ef" fill-rule="evenodd"/>
    <path id="Trazado_100" data-name="Trazado 100" d="M41.261,33.331a1.372,1.372,0,0,0,.174.2l2.358,2.488a2.584,2.584,0,0,1,.36.428c-.192-.006-.211-.043-.434-.043l-3.68-.211c-.155-.019-.316,0-.478-.006-.217-.006-.217-.043-.434-.05l-.925-.05c-.223.006-.223.012-.329.149-.155.211-.3.335-.453.552.149.1,2.116,2.308,2.482,2.674.105.105.124.155.217.261a8.333,8.333,0,0,1,.887.993,3.833,3.833,0,0,0,.658-.565l-1.8-1.961a3.946,3.946,0,0,0-.379-.41l-.707-.819c.279,0,.527.043.875.043l4.548.211a4.062,4.062,0,0,0,.478.012c.254,0,.223.019.36-.124a3.848,3.848,0,0,0,.465-.5l-.931-.949a2.225,2.225,0,0,1-.2-.236c-.155-.192-.447-.428-.7-.745L41.832,32.76l-.577.558Z" transform="translate(-28.162 -26.22)" fill="#fff5ef" fill-rule="evenodd"/>
    <path id="Trazado_101" data-name="Trazado 101" d="M68.484,26.979c-.174-.05-.645-.8-.751-.956-.316-.465-2-2.73-2.178-3.065-.105.05-.714.18-.875.217a.828.828,0,0,0,.2.323l3.171,4.43c.087.13.118.236.335.23.019,0,.434-.056.459-.068.137-.043.124-.037.217-.31l.894-2.383c.2-.546.385-1.042.6-1.589l.6-1.589c-1.148,0-.931.006-1.173.664l-1.5,4.1Z" transform="translate(-38.507 -22.22)" fill="#fff5ef" fill-rule="evenodd"/>
    <path id="Trazado_102" data-name="Trazado 102" d="M48.06,28.919c.056.217.285.478.348.745.2-.019,2.023-1.024,2.315-1.179.087.161.161.316.248.5s.168.3.261.478l1.545,2.96c.254-.137.49-.261.745-.391l-2.054-3.934c.738-.391,1.483-.782,2.228-1.179l-.347-.745a14.91,14.91,0,0,0-1.34.67L48.06,28.925Z" transform="translate(-32.2 -23.719)" fill="#fff5ef" fill-rule="evenodd"/>
    <path id="Trazado_103" data-name="Trazado 103" d="M26.45,52.083c.273.062.447.279.745.348l1.036-1.893c.062-.112.093-.192.149-.292l2.947,1.595a5.246,5.246,0,0,0,1.03.5A3.57,3.57,0,0,0,32.7,51.6c-.161-.037-1.8-.943-1.942-1.03l-1.948-1.024a11.7,11.7,0,0,1,.863-1.675c.062-.112.087-.192.149-.292a.6.6,0,0,0,.13-.31c-.118-.062-.236-.112-.347-.174-.155-.081-.192-.155-.391-.174-.056.105-.1.2-.161.323L26.63,51.717a1.13,1.13,0,0,0-.168.36Z" transform="translate(-23.999 -31.593)" fill="#fff5ef" fill-rule="evenodd"/>
    <path id="Trazado_104" data-name="Trazado 104" d="M33,43.835l1.073.763c.391.292,3.047,2.246,3.251,2.3a1.553,1.553,0,0,1,.217-.347,1.035,1.035,0,0,0,.217-.347c-.292-.155-2.941-2.1-3.208-2.3l-1.073-.763a7.014,7.014,0,0,1-.484.7Z" transform="translate(-26.481 -30.159)" fill="#fff5ef" fill-rule="evenodd"/>
    <path id="Trazado_105" data-name="Trazado 105" d="M22.5,73.337V73.6l.745.043c.707.006,2.439.186,3.059.174l1.173.056c.143.019.2.1.261-.068a4.92,4.92,0,0,0,.056-.782L22.55,72.76c0,.248-.043.3-.043.571Z" transform="translate(-22.5 -41.399)" fill="#fff5ef" fill-rule="evenodd"/>
    <path id="Trazado_106" data-name="Trazado 106" d="M59.606,25.014a4.859,4.859,0,0,1,.211.621c.192.583,1.433,4.176,1.446,4.362l.825-.267-1.26-3.711a9.43,9.43,0,0,1-.4-1.26,5.188,5.188,0,0,0-.831.261Z" transform="translate(-36.579 -23.184)" fill="#fff5ef" fill-rule="evenodd"/>
  </g>
</svg>
