<svg id="_2492137757184" xmlns="http://www.w3.org/2000/svg" width="93.35" height="93.35" viewBox="0 0 93.35 93.35">
  <ellipse id="Elipse_7" data-name="Elipse 7" cx="46.675" cy="46.675" rx="46.675" ry="46.675" fill="none"/>
  <g id="Grupo_21" data-name="Grupo 21" transform="translate(5.562 30.472)">
    <g id="Grupo_17" data-name="Grupo 17">
      <path id="Trazado_54" data-name="Trazado 54" d="M67.376,234.281l4.581.659c-2.647,1.678-8.343,4.043-12.857,2.457-4.932-1.731-5.012-7.522-.5-14.2s14.519-9.829,19.417-9.655,10.772,1.181,11.009,9.105c0,0,1.7-10.959-12.729-10.906-15.027.056-29.929,15.046-26.356,24.182,2.957,7.56,19.612,5.849,27.553-4.5L67.378,234.28Z" transform="translate(-47.856 -211.739)" fill="#fff5ef"/>
      <path id="Trazado_55" data-name="Trazado 55" d="M60.362,242.768l-4.581-.659c2.648-1.677,8.343-4.041,12.857-2.457,4.932,1.733,5.012,7.522.5,14.2s-14.519,9.831-19.418,9.656-10.772-1.181-11.009-9.105c0,0-1.7,10.959,12.729,10.907,15.027-.056,29.929-15.047,26.356-24.182-2.957-7.56-19.612-5.85-27.552,4.494l10.116-2.855Z" transform="translate(-38.652 -232.905)" fill="#fff5ef"/>
      <g id="Grupo_16" data-name="Grupo 16" transform="translate(13.445 13.456)">
        <path id="Trazado_56" data-name="Trazado 56" d="M132.89,305.75h2.9l-.142.944h-1.789l-.177,1.182h1.7l-.15.957h-1.692l-.2,1.317h1.734l-.142.95H132.08Z" transform="translate(-132.08 -305.677)" fill="#fff5ef"/>
        <path id="Trazado_57" data-name="Trazado 57" d="M132.89,305.75h2.9l-.142.944h-1.789l-.177,1.182h1.7l-.15.957h-1.692l-.2,1.317h1.734l-.142.95H132.08Z" transform="translate(-132.08 -305.677)" fill="#fff5ef"/>
        <path id="Trazado_58" data-name="Trazado 58" d="M166.616,305.879l-.594.779a5.124,5.124,0,0,0-.508-.325.83.83,0,0,0-.4-.111.714.714,0,0,0-.5.177.582.582,0,0,0-.194.45.538.538,0,0,0,.21.419,2.96,2.96,0,0,0,.718.4,4.567,4.567,0,0,1,.558.393,1.364,1.364,0,0,1,.282.409,1.342,1.342,0,0,1,.132.593,1.557,1.557,0,0,1-.52,1.18,1.768,1.768,0,0,1-1.258.486,2.611,2.611,0,0,1-1.7-.692l.627-.774c.141.1.3.206.485.324a.983.983,0,0,0,.543.177.706.706,0,0,0,.5-.194.616.616,0,0,0,.209-.466.574.574,0,0,0-.206-.436,2.166,2.166,0,0,0-.617-.358,2.91,2.91,0,0,1-.584-.3,1.46,1.46,0,0,1-.347-.414,1.327,1.327,0,0,1-.173-.7,1.518,1.518,0,0,1,.52-1.182,1.887,1.887,0,0,1,1.314-.469,2.207,2.207,0,0,1,1.5.64Z" transform="translate(-158.413 -305.24)" fill="#fff5ef"/>
        <path id="Trazado_59" data-name="Trazado 59" d="M166.616,305.879l-.594.779a5.124,5.124,0,0,0-.508-.325.83.83,0,0,0-.4-.111.714.714,0,0,0-.5.177.582.582,0,0,0-.194.45.538.538,0,0,0,.21.419,2.96,2.96,0,0,0,.718.4,4.567,4.567,0,0,1,.558.393,1.364,1.364,0,0,1,.282.409,1.342,1.342,0,0,1,.132.593,1.557,1.557,0,0,1-.52,1.18,1.768,1.768,0,0,1-1.258.486,2.611,2.611,0,0,1-1.7-.692l.627-.774c.141.1.3.206.485.324a.983.983,0,0,0,.543.177.706.706,0,0,0,.5-.194.616.616,0,0,0,.209-.466.574.574,0,0,0-.206-.436,2.166,2.166,0,0,0-.617-.358,2.91,2.91,0,0,1-.584-.3,1.46,1.46,0,0,1-.347-.414,1.327,1.327,0,0,1-.173-.7,1.518,1.518,0,0,1,.52-1.182,1.887,1.887,0,0,1,1.314-.469,2.207,2.207,0,0,1,1.5.64Z" transform="translate(-158.413 -305.24)" fill="#fff5ef"/>
        <path id="Trazado_60" data-name="Trazado 60" d="M199.11,306.694l-.223,1.513.225.009a1.1,1.1,0,0,0,.711-.233.7.7,0,0,0,.292-.568.617.617,0,0,0-.245-.548A1.385,1.385,0,0,0,199.11,306.694Zm-.964-.944h1.015a2.487,2.487,0,0,1,1.547.413,1.426,1.426,0,0,1,.531,1.2,2.029,2.029,0,0,1-.289,1.085,1.445,1.445,0,0,1-.969.626l1.042,2.031H199.9l-.993-1.936h-.167l-.286,1.936H197.35l.794-5.351Z" transform="translate(-187.957 -305.677)" fill="#fff5ef"/>
        <path id="Trazado_61" data-name="Trazado 61" d="M199.11,306.694l-.223,1.513.225.009a1.1,1.1,0,0,0,.711-.233.7.7,0,0,0,.292-.568.617.617,0,0,0-.245-.548A1.385,1.385,0,0,0,199.11,306.694Zm-.964-.944h1.015a2.487,2.487,0,0,1,1.547.413,1.426,1.426,0,0,1,.531,1.2,2.029,2.029,0,0,1-.289,1.085,1.445,1.445,0,0,1-.969.626l1.042,2.031H199.9l-.993-1.936h-.167l-.286,1.936H197.35l.794-5.351Z" transform="translate(-187.957 -305.677)" fill="#fff5ef"/>
      </g>
    </g>
    <g id="Grupo_18" data-name="Grupo 18" transform="translate(42.457 7.651)">
      <path id="Trazado_62" data-name="Trazado 62" d="M334.346,265.35h2.413l-.118.787h-1.491l-.148.984h1.415l-.125.8h-1.409l-.165,1.1h1.445l-.119.792H333.67Z" transform="translate(-333.67 -265.285)" fill="#fff5ef"/>
      <path id="Trazado_63" data-name="Trazado 63" d="M334.346,265.35h2.413l-.118.787h-1.491l-.148.984h1.415l-.125.8h-1.409l-.165,1.1h1.445l-.119.792H333.67Z" transform="translate(-333.67 -265.285)" fill="#fff5ef"/>
      <path id="Trazado_64" data-name="Trazado 64" d="M353.781,265.35h.848l.459,2.506,1.256-2.506h.856v4.458h-.825v-2.664l-1.359,2.664h-.43l-.5-2.777-.94,2.777h-.875Z" transform="translate(-349.593 -265.285)" fill="#fff5ef"/>
      <path id="Trazado_65" data-name="Trazado 65" d="M391.015,266.129l-.191,1.252h.248a.807.807,0,0,0,.551-.2.616.616,0,0,0,.222-.481.526.526,0,0,0-.183-.409.65.65,0,0,0-.453-.165h-.194Zm-.82-.789h.928q1.673,0,1.674,1.413a1.453,1.453,0,0,1-.167.689,1.226,1.226,0,0,1-.422.484,1.309,1.309,0,0,1-.525.206,8.366,8.366,0,0,1-.97.049l-.239,1.619h-.924l.645-4.458Z" transform="translate(-381.508 -265.277)" fill="#fff5ef"/>
      <path id="Trazado_66" data-name="Trazado 66" d="M415.265,266.12l-.186,1.259.187.007a.922.922,0,0,0,.594-.194.586.586,0,0,0,.242-.473.514.514,0,0,0-.2-.456A1.159,1.159,0,0,0,415.265,266.12Zm-.8-.789h.846a2.072,2.072,0,0,1,1.288.344,1.187,1.187,0,0,1,.443,1,1.681,1.681,0,0,1-.242.9,1.208,1.208,0,0,1-.807.522l.868,1.691h-.931l-.828-1.613h-.14l-.237,1.613H413.8l.662-4.458Z" transform="translate(-402.268 -265.268)" fill="#fff5ef"/>
      <path id="Trazado_67" data-name="Trazado 67" d="M439.536,265.35h2.413l-.118.787h-1.491l-.148.984h1.416l-.127.8h-1.409l-.166,1.1h1.445l-.118.792H438.86Z" transform="translate(-423.722 -265.285)" fill="#fff5ef"/>
      <path id="Trazado_68" data-name="Trazado 68" d="M461.384,265.435l-.5.649c-.17-.119-.311-.21-.422-.272a.7.7,0,0,0-.335-.092.6.6,0,0,0-.416.147.486.486,0,0,0-.161.376.447.447,0,0,0,.174.35,2.567,2.567,0,0,0,.6.334,3.884,3.884,0,0,1,.465.327,1.137,1.137,0,0,1,.236.34,1.114,1.114,0,0,1,.111.494,1.3,1.3,0,0,1-.433.983,1.48,1.48,0,0,1-1.048.406,2.178,2.178,0,0,1-1.419-.577l.524-.645c.118.081.252.171.4.269a.819.819,0,0,0,.452.148.592.592,0,0,0,.417-.161.511.511,0,0,0,.174-.39.483.483,0,0,0-.171-.364,1.831,1.831,0,0,0-.515-.3,2.334,2.334,0,0,1-.486-.252,1.227,1.227,0,0,1-.288-.344,1.1,1.1,0,0,1-.145-.586,1.272,1.272,0,0,1,.433-.984,1.573,1.573,0,0,1,1.1-.39,1.838,1.838,0,0,1,1.253.533Z" transform="translate(-440.313 -264.9)" fill="#fff5ef"/>
      <path id="Trazado_69" data-name="Trazado 69" d="M481.406,266.816l-.705,1.314h1.036Zm-.16-1.466h.639l1.135,4.458h-.863l-.226-.9h-1.651l-.481.9h-.95Z" transform="translate(-457.957 -265.285)" fill="#fff5ef"/>
    </g>
    <g id="Grupo_19" data-name="Grupo 19" transform="translate(42.458 20.165)">
      <path id="Trazado_70" data-name="Trazado 70" d="M335.145,353.11l-.186,1.259.187.007a.921.921,0,0,0,.593-.194.586.586,0,0,0,.243-.473.511.511,0,0,0-.2-.456A1.157,1.157,0,0,0,335.145,353.11Zm-.8-.789h.846a2.077,2.077,0,0,1,1.289.344,1.186,1.186,0,0,1,.442,1,1.693,1.693,0,0,1-.24.9,1.211,1.211,0,0,1-.807.522l.866,1.691h-.93l-.827-1.613h-.138l-.239,1.613h-.924l.662-4.458Z" transform="translate(-333.68 -352.254)" fill="#fff5ef"/>
      <path id="Trazado_71" data-name="Trazado 71" d="M335.145,353.11l-.186,1.259.187.007a.921.921,0,0,0,.593-.194.586.586,0,0,0,.243-.473.511.511,0,0,0-.2-.456A1.157,1.157,0,0,0,335.145,353.11Zm-.8-.789h.846a2.077,2.077,0,0,1,1.289.344,1.186,1.186,0,0,1,.442,1,1.693,1.693,0,0,1-.24.9,1.211,1.211,0,0,1-.807.522l.866,1.691h-.93l-.827-1.613h-.138l-.239,1.613h-.924l.662-4.458Z" transform="translate(-333.68 -352.254)" fill="#fff5ef"/>
      <path id="Trazado_72" data-name="Trazado 72" d="M359.406,352.33h2.415l-.119.789h-1.491l-.148.984h1.415l-.124.8h-1.41l-.165,1.1h1.445l-.119.792H358.73Z" transform="translate(-355.125 -352.262)" fill="#fff5ef"/>
      <path id="Trazado_73" data-name="Trazado 73" d="M381.253,352.425l-.5.649c-.17-.119-.311-.21-.422-.272a.7.7,0,0,0-.334-.092.59.59,0,0,0-.416.147.491.491,0,0,0-.161.376.444.444,0,0,0,.176.35,2.53,2.53,0,0,0,.6.332,4.081,4.081,0,0,1,.466.328,1.205,1.205,0,0,1,.345.833,1.3,1.3,0,0,1-.433.983,1.475,1.475,0,0,1-1.048.406,2.183,2.183,0,0,1-1.419-.577l.522-.646c.118.082.253.171.4.271a.818.818,0,0,0,.452.148.59.59,0,0,0,.417-.163.51.51,0,0,0,.173-.389.483.483,0,0,0-.171-.364,1.809,1.809,0,0,0-.514-.3,2.3,2.3,0,0,1-.486-.252,1.228,1.228,0,0,1-.289-.344,1.1,1.1,0,0,1-.144-.586,1.268,1.268,0,0,1,.433-.984,1.57,1.57,0,0,1,1.1-.39,1.837,1.837,0,0,1,1.252.533Z" transform="translate(-371.716 -351.886)" fill="#fff5ef"/>
      <path id="Trazado_74" data-name="Trazado 74" d="M400.915,353.119l-.191,1.252h.248a.811.811,0,0,0,.553-.2.618.618,0,0,0,.222-.481.526.526,0,0,0-.183-.409.652.652,0,0,0-.453-.165h-.194Zm-.819-.789h.927q1.675,0,1.675,1.413a1.469,1.469,0,0,1-.167.689,1.238,1.238,0,0,1-.422.484,1.31,1.31,0,0,1-.525.206,8.132,8.132,0,0,1-.971.047l-.239,1.62h-.924l.646-4.458Z" transform="translate(-389.985 -352.262)" fill="#fff5ef"/>
      <path id="Trazado_75" data-name="Trazado 75" d="M428.258,354.071a1.46,1.46,0,0,0-.355-1.022,1.2,1.2,0,0,0-.931-.39,1.372,1.372,0,0,0-1.032.466,1.57,1.57,0,0,0-.436,1.111,1.457,1.457,0,0,0,.358,1.015,1.178,1.178,0,0,0,.915.4,1.384,1.384,0,0,0,1.045-.465,1.574,1.574,0,0,0,.436-1.114Zm-1.2-2.211a2.063,2.063,0,0,1,1.57.581,2.248,2.248,0,0,1,.551,1.616,2.287,2.287,0,0,1-.689,1.731,2.467,2.467,0,0,1-1.8.659,2.058,2.058,0,0,1-1.547-.593,2.222,2.222,0,0,1-.566-1.6,2.3,2.3,0,0,1,.692-1.71,2.439,2.439,0,0,1,1.783-.681Z" transform="translate(-411.498 -351.86)" fill="#fff5ef"/>
      <path id="Trazado_76" data-name="Trazado 76" d="M459.6,352.33h.943l1.428,2.985.437-2.985h.914l-.656,4.458h-.856l-1.494-3.1-.45,3.1h-.92Z" transform="translate(-440.922 -352.262)" fill="#fff5ef"/>
      <path id="Trazado_77" data-name="Trazado 77" d="M491.465,352.425l-.5.649c-.17-.119-.311-.21-.422-.272a.7.7,0,0,0-.335-.092.6.6,0,0,0-.416.147.487.487,0,0,0-.163.376.448.448,0,0,0,.176.35,2.516,2.516,0,0,0,.6.332,4.035,4.035,0,0,1,.465.328,1.137,1.137,0,0,1,.236.34,1.114,1.114,0,0,1,.111.494,1.3,1.3,0,0,1-.433.983,1.479,1.479,0,0,1-1.048.406,2.178,2.178,0,0,1-1.419-.577l.524-.646c.118.082.252.171.4.271a.818.818,0,0,0,.452.148.587.587,0,0,0,.417-.163.506.506,0,0,0,.174-.389.483.483,0,0,0-.171-.364,1.808,1.808,0,0,0-.514-.3,2.356,2.356,0,0,1-.488-.252,1.227,1.227,0,0,1-.288-.344,1.1,1.1,0,0,1-.145-.586,1.272,1.272,0,0,1,.433-.984,1.573,1.573,0,0,1,1.1-.39,1.84,1.84,0,0,1,1.253.533Z" transform="translate(-466.065 -351.886)" fill="#fff5ef"/>
      <path id="Trazado_78" data-name="Trazado 78" d="M511.5,353.8l-.705,1.314h1.036Zm-.16-1.466h.639l1.135,4.458h-.864l-.226-.9h-1.651l-.481.9h-.95Z" transform="translate(-483.718 -352.262)" fill="#fff5ef"/>
      <path id="Trazado_79" data-name="Trazado 79" d="M542.345,353.067l-.16,1.066h.347a.918.918,0,0,0,.543-.15.444.444,0,0,0,.214-.374.484.484,0,0,0-.183-.4.768.768,0,0,0-.5-.148h-.26Zm-.265,1.77-.181,1.215h.459a1.2,1.2,0,0,0,.663-.164.491.491,0,0,0,.255-.426.548.548,0,0,0-.236-.443.923.923,0,0,0-.579-.181h-.38Zm-.544-2.507h1.056q1.53,0,1.531,1.141a1.2,1.2,0,0,1-.632,1.035,1.106,1.106,0,0,1,.186,1.947,2.528,2.528,0,0,1-1.412.335H540.86l.675-4.458Z" transform="translate(-511.044 -352.262)" fill="#fff5ef"/>
      <path id="Trazado_80" data-name="Trazado 80" d="M567.266,352.33h.915L567.649,356h1.474l-.112.792h-2.4Z" transform="translate(-533.089 -352.262)" fill="#fff5ef"/>
      <path id="Trazado_81" data-name="Trazado 81" d="M587.816,352.33h2.413l-.118.789h-1.491l-.148.984h1.415l-.125.8h-1.41l-.164,1.1h1.443l-.118.792H587.14Z" transform="translate(-550.664 -352.262)" fill="#fff5ef"/>
    </g>
    <g id="Grupo_20" data-name="Grupo 20" transform="translate(42.458 13.79)">
      <path id="Trazado_82" data-name="Trazado 82" d="M336.825,308.125l-.5.649c-.17-.119-.311-.21-.422-.272a.7.7,0,0,0-.335-.092.6.6,0,0,0-.416.147.486.486,0,0,0-.161.376.447.447,0,0,0,.174.35,2.564,2.564,0,0,0,.6.334,3.883,3.883,0,0,1,.465.327,1.135,1.135,0,0,1,.236.34,1.113,1.113,0,0,1,.111.494,1.3,1.3,0,0,1-.433.983,1.48,1.48,0,0,1-1.048.406,2.177,2.177,0,0,1-1.419-.577l.524-.646c.118.082.253.171.4.271a.818.818,0,0,0,.452.148.592.592,0,0,0,.417-.161.511.511,0,0,0,.174-.39.483.483,0,0,0-.171-.364,1.808,1.808,0,0,0-.514-.3,2.353,2.353,0,0,1-.488-.252,1.226,1.226,0,0,1-.288-.344,1.1,1.1,0,0,1-.145-.586,1.272,1.272,0,0,1,.433-.984,1.573,1.573,0,0,1,1.1-.39,1.838,1.838,0,0,1,1.253.532Z" transform="translate(-333.68 -307.586)" fill="#fff5ef"/>
      <path id="Trazado_83" data-name="Trazado 83" d="M336.825,308.125l-.5.649c-.17-.119-.311-.21-.422-.272a.7.7,0,0,0-.335-.092.6.6,0,0,0-.416.147.486.486,0,0,0-.161.376.447.447,0,0,0,.174.35,2.564,2.564,0,0,0,.6.334,3.883,3.883,0,0,1,.465.327,1.135,1.135,0,0,1,.236.34,1.113,1.113,0,0,1,.111.494,1.3,1.3,0,0,1-.433.983,1.48,1.48,0,0,1-1.048.406,2.177,2.177,0,0,1-1.419-.577l.524-.646c.118.082.253.171.4.271a.818.818,0,0,0,.452.148.592.592,0,0,0,.417-.161.511.511,0,0,0,.174-.39.483.483,0,0,0-.171-.364,1.808,1.808,0,0,0-.514-.3,2.353,2.353,0,0,1-.488-.252,1.226,1.226,0,0,1-.288-.344,1.1,1.1,0,0,1-.145-.586,1.272,1.272,0,0,1,.433-.984,1.573,1.573,0,0,1,1.1-.39,1.838,1.838,0,0,1,1.253.532Z" transform="translate(-333.68 -307.586)" fill="#fff5ef"/>
      <path id="Trazado_84" data-name="Trazado 84" d="M360.678,309.771a1.459,1.459,0,0,0-.354-1.022,1.2,1.2,0,0,0-.933-.39,1.366,1.366,0,0,0-1.03.466,1.564,1.564,0,0,0-.436,1.111,1.463,1.463,0,0,0,.357,1.015,1.174,1.174,0,0,0,.917.4,1.384,1.384,0,0,0,1.043-.465,1.568,1.568,0,0,0,.436-1.114Zm-1.2-2.211a2.061,2.061,0,0,1,1.57.581,2.249,2.249,0,0,1,.553,1.616,2.292,2.292,0,0,1-.689,1.731,2.473,2.473,0,0,1-1.8.659,2.06,2.06,0,0,1-1.547-.593,2.222,2.222,0,0,1-.566-1.6,2.3,2.3,0,0,1,.694-1.71,2.433,2.433,0,0,1,1.782-.681Z" transform="translate(-353.644 -307.56)" fill="#fff5ef"/>
      <path id="Trazado_85" data-name="Trazado 85" d="M396.319,307.934l-.119.815a1.563,1.563,0,0,0-1.035-.37,1.61,1.61,0,0,0-1.166.489,1.541,1.541,0,0,0-.5,1.134,1.28,1.28,0,0,0,.357.938,1.253,1.253,0,0,0,.93.363,2.4,2.4,0,0,0,1.128-.33l-.132.905a2.413,2.413,0,0,1-1.121.286,1.978,1.978,0,0,1-1.551-.625,2.143,2.143,0,0,1-.56-1.484,2.327,2.327,0,0,1,.75-1.819,2.485,2.485,0,0,1,3.019-.3Z" transform="translate(-384.078 -307.56)" fill="#fff5ef"/>
      <path id="Trazado_86" data-name="Trazado 86" d="M419.132,308.03h.918l-.659,4.46h-.921Z" transform="translate(-406.268 -307.962)" fill="#fff5ef"/>
      <path id="Trazado_87" data-name="Trazado 87" d="M430.846,309.507l-.705,1.314h1.036Zm-.16-1.466h.639l1.135,4.458H431.6l-.226-.9h-1.651l-.481.9h-.95Z" transform="translate(-414.675 -307.971)" fill="#fff5ef"/>
      <path id="Trazado_88" data-name="Trazado 88" d="M460.965,308.03h.918l-.534,3.668h1.475l-.114.792h-2.4Z" transform="translate(-442.086 -307.962)" fill="#fff5ef"/>
      <path id="Trazado_89" data-name="Trazado 89" d="M480.321,308.03h.848l.461,2.507,1.255-2.507h.856v4.46h-.825v-2.664l-1.357,2.664h-.43l-.5-2.779-.941,2.779h-.875Z" transform="translate(-457.924 -307.962)" fill="#fff5ef"/>
      <path id="Trazado_90" data-name="Trazado 90" d="M517.285,308.03H519.7l-.118.789h-1.492l-.147.984h1.415l-.125.8h-1.41l-.164,1.1H519.1l-.118.792H516.61Z" transform="translate(-490.284 -307.962)" fill="#fff5ef"/>
      <path id="Trazado_91" data-name="Trazado 91" d="M537.935,308.03h.944l1.426,2.986.439-2.986h.912L541,312.49h-.858l-1.494-3.1-.452,3.1h-.92Z" transform="translate(-507.98 -307.962)" fill="#fff5ef"/>
      <path id="Trazado_92" data-name="Trazado 92" d="M570.209,308.03h2.733l-.12.789h-.909l-.537,3.671h-.909l.53-3.671h-.9Z" transform="translate(-536.076 -307.962)" fill="#fff5ef"/>
      <path id="Trazado_93" data-name="Trazado 93" d="M589.2,308.03h2.415l-.118.789h-1.491l-.148.984h1.415l-.125.8h-1.41l-.164,1.1h1.445l-.118.792H588.53Z" transform="translate(-551.854 -307.962)" fill="#fff5ef"/>
    </g>
  </g>
</svg>
