<?xml version="1.0" encoding="UTF-8"?>
<!DOCTYPE svg PUBLIC "-//W3C//DTD SVG 1.1//EN" "http://www.w3.org/Graphics/SVG/1.1/DTD/svg11.dtd">
<!-- Creator: CorelDRAW -->
<svg xmlns="http://www.w3.org/2000/svg" xml:space="preserve" width="29.9999mm" height="7.345mm" version="1.1" style="shape-rendering:geometricPrecision; text-rendering:geometricPrecision; image-rendering:optimizeQuality; fill-rule:evenodd; clip-rule:evenodd"
viewBox="0 0 592.84 145.15"
 xmlns:xlink="http://www.w3.org/1999/xlink"
 xmlns:xodm="http://www.corel.com/coreldraw/odm/2003">
 <defs>
  <style type="text/css">
   <![CDATA[
    .fil0 {fill:#A17535;fill-rule:nonzero}
   ]]>
  </style>
 </defs>
 <g id="Capa_x0020_1">
  <metadata id="CorelCorpID_0Corel-Layer"/>
  <g id="_2490417949840">
   <path class="fil0" d="M265.14 96.54c0,-3.16 0.53,-6.12 1.58,-8.88 1.06,-2.76 2.53,-5.16 4.41,-7.21 1.89,-2.05 4.16,-3.66 6.82,-4.84 2.66,-1.18 5.57,-1.76 8.73,-1.76 2.35,0 4.53,0.18 6.54,0.55 2.01,0.37 3.86,0.89 5.57,1.58l1.34 13.02 -0.06 0c-0.73,-1.62 -1.6,-3.24 -2.62,-4.87 -1.02,-1.62 -2.18,-3.07 -3.5,-4.35 -1.32,-1.28 -2.79,-2.31 -4.41,-3.1 -1.62,-0.79 -3.43,-1.19 -5.41,-1.19 -1.87,0 -3.62,0.37 -5.26,1.09 -1.64,0.73 -3.07,1.79 -4.29,3.17 -1.22,1.38 -2.17,3.07 -2.86,5.08 -0.69,2.01 -1.04,4.29 -1.04,6.84 0,3.08 0.47,5.91 1.4,8.49 0.93,2.58 2.21,4.8 3.83,6.66 1.62,1.87 3.54,3.32 5.75,4.35 2.21,1.04 4.59,1.55 7.15,1.55 1.38,0 2.74,-0.15 4.08,-0.46 1.34,-0.3 2.61,-0.81 3.8,-1.52 1.2,-0.71 2.25,-1.61 3.16,-2.71 0.91,-1.1 1.63,-2.43 2.16,-4.02l0.24 0.06c-0.53,2.48 -1.37,4.6 -2.53,6.39 -1.16,1.79 -2.5,3.24 -4.05,4.35 -1.54,1.11 -3.23,1.94 -5.08,2.46 -1.85,0.53 -3.74,0.79 -5.69,0.79 -2.68,0 -5.22,-0.44 -7.64,-1.31 -2.41,-0.87 -4.51,-2.2 -6.3,-3.99 -1.78,-1.78 -3.2,-4.03 -4.26,-6.72 -1.06,-2.7 -1.58,-5.87 -1.58,-9.52z"/>
   <path class="fil0" d="M303.96 74.82l0 -0.37 16.49 0 0 0.37c-1.42,0.08 -2.52,0.64 -3.29,1.67 -0.77,1.04 -1.16,2.4 -1.16,4.11l0 30.85c0,1.7 0.4,3.07 1.19,4.11 0.79,1.04 1.9,1.59 3.32,1.67l0 0.37 -16.49 0 0 -0.37c1.42,-0.08 2.52,-0.64 3.29,-1.67 0.77,-1.03 1.16,-2.4 1.16,-4.11l0 -30.85c0,-1.7 -0.4,-3.07 -1.19,-4.11 -0.79,-1.03 -1.9,-1.59 -3.32,-1.67z"/>
   <path class="fil0" d="M371.31 111.45c0.16,1.74 0.59,3.12 1.28,4.14 0.69,1.01 1.74,1.56 3.16,1.64l0 0.37 -16.49 0 0 -0.37c1.42,-0.08 2.56,-0.64 3.41,-1.67 0.85,-1.03 1.22,-2.4 1.09,-4.11l-2.31 -30.91 -13.81 36.26 -1.76 0 -14.36 -35.35 -2.13 29.39c-0.12,1.7 0.25,3.15 1.1,4.35 0.85,1.2 1.99,1.88 3.41,2.04l0 0.37 -10.47 0 0 -0.37c1.42,-0.16 2.48,-0.84 3.19,-2.04 0.71,-1.2 1.13,-2.65 1.25,-4.35l2.13 -29.02c0.08,-1.22 0.05,-2.23 -0.09,-3.04 -0.14,-0.81 -0.4,-1.48 -0.76,-2.01 -0.37,-0.53 -0.81,-0.94 -1.34,-1.25 -0.53,-0.3 -1.14,-0.54 -1.83,-0.7l0 -0.37 10.59 0 13.14 32.13 12.05 -32.13 10.34 0 0 0.37c-0.41,0.2 -0.82,0.45 -1.25,0.73 -0.42,0.28 -0.8,0.69 -1.12,1.22 -0.33,0.53 -0.57,1.19 -0.73,1.98 -0.16,0.79 -0.2,1.78 -0.12,2.95l2.43 29.75z"/>
   <path class="fil0" d="M389.38 102.75l15.45 0 -8.03 -19.53 -7.42 19.53zm-4.2 6.21l13.45 -34.92 1.71 0 15.82 37.42c0.32,0.77 0.65,1.49 0.97,2.16 0.32,0.67 0.69,1.26 1.09,1.76 0.41,0.51 0.85,0.92 1.34,1.25 0.49,0.33 1.08,0.53 1.76,0.61l0 0.37 -16.73 0 0 -0.37c1.42,-0.16 2.47,-0.51 3.16,-1.04 0.69,-0.53 1.03,-1.32 1.03,-2.37 0,-0.53 -0.07,-1.06 -0.21,-1.58 -0.14,-0.53 -0.33,-1.09 -0.58,-1.7l-2.49 -6.15 -16.79 0 -1.95 5.17c-0.49,1.26 -0.73,2.43 -0.73,3.53 0,1.26 0.34,2.19 1,2.8 0.67,0.61 1.71,1.06 3.13,1.34l0 0.37 -11.38 0 0 -0.37c1.42,-0.41 2.65,-1.4 3.68,-2.98 1.03,-1.58 1.94,-3.35 2.71,-5.29z"/>
   <path class="fil0" d="M436.05 96.05l3.04 0c3.69,0 6.43,-0.85 8.21,-2.56 1.78,-1.7 2.68,-4.18 2.68,-7.42 0,-1.5 -0.2,-2.88 -0.61,-4.14 -0.41,-1.26 -1,-2.33 -1.79,-3.23 -0.79,-0.89 -1.74,-1.58 -2.83,-2.07 -1.09,-0.49 -2.35,-0.73 -3.77,-0.73 -1.54,0 -2.75,0.35 -3.62,1.03 -0.87,0.69 -1.31,1.89 -1.31,3.59l0 15.51zm22.15 16.31c0.77,1.42 1.52,2.5 2.25,3.25 0.73,0.75 1.68,1.29 2.86,1.61l0 0.36 -10.65 0c-0.2,-0.28 -0.46,-0.67 -0.76,-1.15 -0.3,-0.49 -0.62,-1.01 -0.94,-1.58 -0.33,-0.57 -0.65,-1.16 -0.97,-1.76 -0.33,-0.61 -0.61,-1.16 -0.85,-1.64l-3.71 -7.91c-0.49,-1.01 -1,-1.9 -1.52,-2.65 -0.53,-0.75 -1.14,-1.37 -1.83,-1.86 -0.69,-0.49 -1.48,-0.84 -2.37,-1.07 -0.89,-0.22 -1.97,-0.34 -3.22,-0.34l-0.43 0 0 13.81c0,1.82 0.31,3.23 0.94,4.2 0.63,0.97 1.84,1.5 3.62,1.58l0 0.36 -16.55 0 0 -0.36c1.42,-0.08 2.51,-0.61 3.28,-1.58 0.77,-0.97 1.16,-2.37 1.16,-4.2l0 -30.85c0,-1.74 -0.39,-3.12 -1.16,-4.14 -0.77,-1.01 -1.87,-1.56 -3.28,-1.64l0 -0.37 17.4 0c5.39,0 9.45,0.9 12.17,2.71 2.72,1.81 4.08,4.61 4.08,8.43 0,1.46 -0.28,2.79 -0.85,3.99 -0.57,1.2 -1.35,2.26 -2.34,3.19 -1,0.93 -2.19,1.74 -3.59,2.4 -1.4,0.67 -2.93,1.21 -4.59,1.61 1.05,0.08 2.12,0.46 3.19,1.12 1.07,0.67 2.02,1.78 2.83,3.32l5.84 11.14z"/>
   <path class="fil0" d="M478.33 96.05l3.04 0c3.69,0 6.43,-0.85 8.21,-2.56 1.78,-1.7 2.68,-4.18 2.68,-7.42 0,-1.5 -0.2,-2.88 -0.61,-4.14 -0.41,-1.26 -1,-2.33 -1.79,-3.23 -0.79,-0.89 -1.74,-1.58 -2.83,-2.07 -1.09,-0.49 -2.35,-0.73 -3.77,-0.73 -1.54,0 -2.75,0.35 -3.62,1.03 -0.87,0.69 -1.31,1.89 -1.31,3.59l0 15.51zm22.15 16.31c0.77,1.42 1.52,2.5 2.25,3.25 0.73,0.75 1.68,1.29 2.86,1.61l0 0.36 -10.65 0c-0.2,-0.28 -0.46,-0.67 -0.76,-1.15 -0.3,-0.49 -0.62,-1.01 -0.94,-1.58 -0.33,-0.57 -0.65,-1.16 -0.97,-1.76 -0.33,-0.61 -0.61,-1.16 -0.85,-1.64l-3.71 -7.91c-0.49,-1.01 -0.99,-1.9 -1.52,-2.65 -0.53,-0.75 -1.14,-1.37 -1.82,-1.86 -0.69,-0.49 -1.48,-0.84 -2.37,-1.07 -0.89,-0.22 -1.97,-0.34 -3.23,-0.34l-0.43 0 0 13.81c0,1.82 0.31,3.23 0.94,4.2 0.63,0.97 1.83,1.5 3.62,1.58l0 0.36 -16.55 0 0 -0.36c1.42,-0.08 2.51,-0.61 3.28,-1.58 0.77,-0.97 1.16,-2.37 1.16,-4.2l0 -30.85c0,-1.74 -0.39,-3.12 -1.16,-4.14 -0.77,-1.01 -1.87,-1.56 -3.28,-1.64l0 -0.37 17.4 0c5.39,0 9.45,0.9 12.17,2.71 2.72,1.81 4.08,4.61 4.08,8.43 0,1.46 -0.28,2.79 -0.85,3.99 -0.57,1.2 -1.35,2.26 -2.34,3.19 -0.99,0.93 -2.19,1.74 -3.59,2.4 -1.4,0.67 -2.93,1.21 -4.59,1.61 1.05,0.08 2.12,0.46 3.19,1.12 1.08,0.67 2.02,1.78 2.83,3.32l5.84 11.14z"/>
   <path class="fil0" d="M520.01 72.08l-0.12 -0.12 9.74 -12.11 6.14 5.96 -0.3 1.09 -15.45 5.17zm8.46 44.6c1.95,0 3.72,-0.46 5.32,-1.37 1.6,-0.91 2.97,-2.19 4.11,-3.83 1.13,-1.64 2.01,-3.63 2.62,-5.96 0.61,-2.33 0.91,-4.92 0.91,-7.76 0,-3.28 -0.36,-6.31 -1.07,-9.06 -0.71,-2.76 -1.69,-5.14 -2.95,-7.15 -1.26,-2.01 -2.75,-3.57 -4.47,-4.69 -1.73,-1.11 -3.62,-1.67 -5.69,-1.67 -1.83,0 -3.5,0.46 -5.02,1.37 -1.52,0.91 -2.83,2.21 -3.92,3.89 -1.1,1.68 -1.95,3.69 -2.56,6.02 -0.61,2.33 -0.91,4.92 -0.91,7.76 0,3.28 0.33,6.3 1,9.03 0.67,2.74 1.6,5.1 2.8,7.09 1.2,1.99 2.64,3.54 4.32,4.65 1.68,1.12 3.52,1.67 5.51,1.67zm-0.61 1.4c-3.04,0 -5.87,-0.56 -8.49,-1.67 -2.61,-1.11 -4.9,-2.65 -6.84,-4.59 -1.95,-1.95 -3.47,-4.26 -4.56,-6.94 -1.09,-2.68 -1.64,-5.6 -1.64,-8.76 0,-3.08 0.57,-5.97 1.7,-8.67 1.13,-2.7 2.68,-5.06 4.62,-7.09 1.95,-2.03 4.23,-3.63 6.85,-4.81 2.62,-1.18 5.4,-1.76 8.37,-1.76 3.04,0 5.87,0.56 8.49,1.67 2.62,1.12 4.9,2.66 6.85,4.62 1.95,1.97 3.47,4.29 4.56,6.97 1.09,2.68 1.64,5.58 1.64,8.7 0,3.04 -0.57,5.92 -1.7,8.64 -1.14,2.72 -2.68,5.09 -4.62,7.12 -1.95,2.03 -4.23,3.63 -6.85,4.81 -2.62,1.18 -5.4,1.76 -8.37,1.76z"/>
   <path class="fil0" d="M581.16 74.46l11.68 0 0 0.37c-1.74,0.16 -3.02,0.84 -3.83,2.04 -0.81,1.2 -1.22,2.65 -1.22,4.35l0 36.38 -2.43 0 -26.71 -36.75 0 30c0,1.7 0.41,3.15 1.25,4.35 0.83,1.2 2.12,1.88 3.86,2.04l0 0.37 -11.68 0 0 -0.37c1.74,-0.16 3.02,-0.84 3.83,-2.04 0.81,-1.2 1.22,-2.65 1.22,-4.35l0 -30.67c0,-1.13 -0.47,-2.21 -1.4,-3.23 -0.93,-1.01 -2.15,-1.72 -3.65,-2.13l0 -0.37 11.13 0 23.06 31.82 0 -25.07c0,-1.71 -0.41,-3.15 -1.25,-4.35 -0.83,-1.2 -2.12,-1.88 -3.86,-2.04l0 -0.37z"/>
   <path class="fil0" d="M280.71 27.11c1.7,0 3.4,0.13 5.08,0.4 1.69,0.27 3.16,0.66 4.41,1.16l1.03 9.58 -0.05 0c-0.69,-1.34 -1.41,-2.62 -2.17,-3.83 -0.76,-1.21 -1.64,-2.26 -2.62,-3.16 -0.98,-0.9 -2.1,-1.61 -3.36,-2.15 -1.25,-0.54 -2.72,-0.81 -4.39,-0.81 -1.37,0 -2.66,0.26 -3.85,0.78 -1.2,0.52 -2.23,1.29 -3.11,2.3 -0.88,1.02 -1.57,2.28 -2.08,3.78 -0.51,1.51 -0.76,3.23 -0.76,5.17 0,2.54 0.42,4.87 1.25,7.01 0.84,2.14 1.94,3.97 3.31,5.51 1.37,1.54 2.93,2.73 4.68,3.58 1.74,0.85 3.51,1.28 5.3,1.28 0.75,0 1.44,-0.04 2.08,-0.11 0.64,-0.07 1.13,-0.17 1.45,-0.29l0 -9.63c0,-1.22 -0.29,-2.22 -0.87,-3 -0.58,-0.78 -1.42,-1.19 -2.53,-1.25l0 -0.27 11.82 0 0 0.27c-1.1,0.06 -1.94,0.48 -2.51,1.25 -0.57,0.78 -0.85,1.77 -0.85,3l0 11.95 -0.13 0c-0.24,-0.69 -0.63,-1.19 -1.16,-1.52 -0.54,-0.33 -1.12,-0.49 -1.75,-0.49 -0.27,0 -0.51,0.01 -0.72,0.04 -0.21,0.03 -0.46,0.1 -0.76,0.22 -1.08,0.48 -2.31,0.89 -3.69,1.23 -1.39,0.34 -3.02,0.51 -4.9,0.51 -1.85,0 -3.64,-0.31 -5.37,-0.92 -1.73,-0.61 -3.27,-1.56 -4.61,-2.84 -1.34,-1.28 -2.42,-2.9 -3.22,-4.84 -0.8,-1.94 -1.21,-4.24 -1.21,-6.89 0,-2.45 0.37,-4.71 1.12,-6.78 0.75,-2.07 1.83,-3.87 3.24,-5.39 1.42,-1.52 3.13,-2.72 5.13,-3.58 2,-0.87 4.25,-1.3 6.76,-1.3z"/>
   <path class="fil0" d="M304.8 43.45l2.24 0c2.72,0 4.73,-0.63 6.05,-1.88 1.31,-1.25 1.97,-3.07 1.97,-5.46 0,-1.1 -0.15,-2.12 -0.45,-3.04 -0.3,-0.92 -0.74,-1.72 -1.32,-2.37 -0.58,-0.66 -1.28,-1.16 -2.08,-1.52 -0.81,-0.36 -1.73,-0.54 -2.77,-0.54 -1.13,0 -2.02,0.25 -2.66,0.76 -0.64,0.51 -0.96,1.39 -0.96,2.64l0 11.41zm16.3 12c0.57,1.05 1.12,1.84 1.66,2.4 0.54,0.55 1.24,0.95 2.1,1.19l0 0.27 -7.84 0c-0.15,-0.21 -0.34,-0.49 -0.56,-0.85 -0.22,-0.36 -0.45,-0.75 -0.69,-1.16 -0.24,-0.42 -0.48,-0.85 -0.72,-1.3 -0.24,-0.45 -0.45,-0.85 -0.63,-1.21l-2.73 -5.82c-0.36,-0.75 -0.73,-1.4 -1.12,-1.95 -0.39,-0.55 -0.84,-1.01 -1.34,-1.37 -0.51,-0.36 -1.09,-0.62 -1.74,-0.78 -0.66,-0.16 -1.45,-0.25 -2.37,-0.25l-0.31 0 0 10.16c0,1.34 0.23,2.37 0.69,3.09 0.46,0.72 1.35,1.1 2.66,1.16l0 0.27 -12.18 0 0 -0.27c1.04,-0.06 1.85,-0.45 2.42,-1.16 0.57,-0.72 0.85,-1.75 0.85,-3.09l0 -22.7c0,-1.28 -0.28,-2.3 -0.85,-3.04 -0.57,-0.75 -1.37,-1.15 -2.42,-1.21l0 -0.27 12.8 0c3.97,0 6.95,0.67 8.95,1.99 2,1.33 3,3.4 3,6.2 0,1.08 -0.21,2.05 -0.63,2.93 -0.42,0.88 -0.99,1.66 -1.72,2.35 -0.73,0.69 -1.61,1.28 -2.64,1.77 -1.03,0.49 -2.16,0.89 -3.38,1.19 0.78,0.06 1.56,0.34 2.35,0.83 0.79,0.49 1.49,1.31 2.08,2.44l4.3 8.19z"/>
   <path class="fil0" d="M335.95 27.56l0 0.27c-1.05,0.06 -1.85,0.46 -2.42,1.21 -0.57,0.75 -0.85,1.76 -0.85,3.04l0 16.88c0,3.04 0.71,5.37 2.13,6.96 1.42,1.6 3.44,2.4 6.06,2.4 2.6,0 4.68,-0.81 6.24,-2.42 1.57,-1.61 2.35,-4.06 2.35,-7.34l0 -15.58c0,-1.25 -0.29,-2.37 -0.87,-3.36 -0.58,-0.98 -1.4,-1.58 -2.44,-1.79l0 -0.27 7.75 0 0 0.27c-1.05,0.21 -1.85,0.8 -2.42,1.77 -0.57,0.97 -0.85,2.1 -0.85,3.38l0 15.58c0,1.73 -0.23,3.28 -0.69,4.66 -0.46,1.37 -1.15,2.54 -2.06,3.49 -0.91,0.95 -2.06,1.69 -3.45,2.19 -1.39,0.51 -3.01,0.76 -4.86,0.76 -4.03,0 -7.11,-0.98 -9.24,-2.95 -2.13,-1.97 -3.2,-4.97 -3.2,-9l0 -15.63c0,-1.25 -0.29,-2.26 -0.87,-3.02 -0.58,-0.76 -1.4,-1.17 -2.44,-1.23l0 -0.27 12.13 0z"/>
   <path class="fil0" d="M376.15 37.37c0,-1.25 -0.15,-2.41 -0.45,-3.47 -0.3,-1.06 -0.73,-1.98 -1.3,-2.75 -0.57,-0.77 -1.26,-1.39 -2.08,-1.84 -0.82,-0.45 -1.75,-0.67 -2.8,-0.67 -1.23,0 -2.13,0.28 -2.73,0.83 -0.6,0.55 -0.9,1.35 -0.9,2.4l0 14.01 1.83 0c5.61,0 8.42,-2.84 8.42,-8.51zm-10.25 9.71l0 6.71c0,0.93 0.07,1.71 0.22,2.35 0.15,0.64 0.38,1.16 0.69,1.57 0.31,0.4 0.71,0.71 1.19,0.92 0.48,0.21 1.04,0.34 1.7,0.4l0 0.27 -12.62 0 0 -0.27c1.04,-0.06 1.85,-0.46 2.42,-1.21 0.57,-0.75 0.85,-1.76 0.85,-3.04l0 -22.7c0,-1.28 -0.28,-2.3 -0.85,-3.04 -0.57,-0.75 -1.37,-1.15 -2.42,-1.21l0 -0.27 13.25 0c3.88,0 6.8,0.75 8.75,2.26 1.95,1.51 2.93,3.84 2.93,7.01 0,1.61 -0.35,3.05 -1.05,4.32 -0.7,1.27 -1.68,2.34 -2.93,3.22 -1.25,0.88 -2.75,1.55 -4.5,2.01 -1.74,0.46 -3.68,0.69 -5.8,0.69l-1.83 0z"/>
   <path class="fil0" d="M390.97 42.11c0,2.42 0.25,4.63 0.74,6.65 0.49,2.01 1.18,3.75 2.06,5.22 0.88,1.46 1.94,2.6 3.18,3.42 1.24,0.82 2.59,1.23 4.05,1.23 1.43,0 2.74,-0.34 3.92,-1.01 1.18,-0.67 2.19,-1.61 3.02,-2.82 0.83,-1.21 1.48,-2.67 1.92,-4.39 0.45,-1.72 0.67,-3.62 0.67,-5.71 0,-2.42 -0.26,-4.64 -0.78,-6.67 -0.52,-2.03 -1.25,-3.78 -2.17,-5.26 -0.92,-1.48 -2.02,-2.63 -3.29,-3.45 -1.27,-0.82 -2.66,-1.23 -4.19,-1.23 -1.34,0 -2.57,0.34 -3.69,1.01 -1.12,0.67 -2.08,1.63 -2.89,2.87 -0.81,1.24 -1.43,2.72 -1.88,4.43 -0.45,1.72 -0.67,3.62 -0.67,5.71zm-6.27 1.39c0,-2.27 0.42,-4.39 1.25,-6.38 0.84,-1.99 1.97,-3.72 3.4,-5.22 1.43,-1.49 3.11,-2.67 5.04,-3.54 1.92,-0.87 3.98,-1.3 6.16,-1.3 2.24,0 4.32,0.41 6.24,1.23 1.92,0.82 3.6,1.95 5.04,3.4 1.43,1.45 2.55,3.16 3.36,5.13 0.8,1.97 1.21,4.1 1.21,6.4 0,2.24 -0.42,4.36 -1.25,6.36 -0.84,2 -1.97,3.74 -3.4,5.24 -1.43,1.49 -3.11,2.67 -5.04,3.54 -1.92,0.87 -3.98,1.3 -6.15,1.3 -2.24,0 -4.32,-0.41 -6.25,-1.23 -1.92,-0.82 -3.6,-1.95 -5.04,-3.38 -1.43,-1.43 -2.55,-3.13 -3.36,-5.1 -0.81,-1.97 -1.21,-4.12 -1.21,-6.45z"/>
   <path class="fil0" d="M42.34 18.62c-0.03,-0.01 -0.06,-0.01 -0.09,-0.02 -0,0 -0,0.01 -0,0.02l0.1 0z"/>
   <path class="fil0" d="M184.69 89.42c0.01,0 0.02,0 0.03,0 -0.01,-0.04 -0.02,-0.08 -0.03,-0.12l0 0.12z"/>
   <path class="fil0" d="M42.24 18.6c0.67,-4.2 2.05,-8.26 4.08,-12 1.4,-2.25 3.21,-4.21 5.33,-5.79 -16.38,2.59 -30.84,12.16 -39.63,26.23 5.39,-5.14 15.12,-10.97 30.22,-8.44z"/>
   <path class="fil0" d="M54.35 110.72l-2.08 0c-4.13,0.3 -8.26,-0.66 -11.84,-2.75 -2.59,3.38 -5.87,6.17 -9.61,8.2 -4.58,2.44 -9.68,3.73 -14.86,3.76 -1.47,0 -2.95,-0.11 -4.41,-0.32 10.13,14.86 24.1,17.14 40.32,10.92 11.47,-4.38 15.28,-15.95 15.93,-26.85 -3.2,4.24 -8.14,6.82 -13.45,7.03z"/>
   <path class="fil0" d="M29.43 113.55l0 0.1c10.82,-5.67 15.6,-19.49 16.99,-24.35 -2.95,0 -9.68,0 -21.47,0.35 -7.91,0.31 -15.74,1.78 -23.23,4.36 1.13,6.82 3.23,13.44 6.24,19.66 0.45,0.89 0.92,1.76 1.41,2.48 6.78,1.59 13.91,0.67 20.06,-2.6z"/>
   <path class="fil0" d="M46.57 86.38c-0.56,-4.74 -0.4,-9.54 0.47,-14.24 -3.78,1.74 -7.88,2.65 -12.04,2.68 -3.33,-0 -6.62,-0.61 -9.73,-1.78 -9.91,-3.76 -16.49,-9.44 -19.49,-16.92 -1.41,-3.56 -2.02,-7.39 -1.81,-11.22 -4.11,15.03 -5.04,30.75 -2.75,46.16 7.62,-2.56 15.57,-4.02 23.6,-4.33 12.06,-0.44 18.8,-0.4 21.74,-0.35z"/>
   <path class="fil0" d="M26.29 70.35c7.13,2.59 15.04,1.91 21.62,-1.86 0.63,-2.31 1.46,-4.57 2.48,-6.74 -1.61,-3.27 -2.72,-6.77 -3.29,-10.38 -0.18,-1.3 0.53,-2.55 1.73,-3.07 5.37,-2.21 11.05,-3.56 16.84,-4.01 1.57,-0.07 3.14,0.05 4.68,0.35 -2.3,-9.4 -9.21,-17 -18.35,-20.18l0.05 -0.07c-30.61,-11.69 -42.28,9.61 -42.8,10.6 -2.76,6.38 -3.03,13.56 -0.77,20.13 2.7,6.66 8.69,11.79 17.81,15.23z"/>
   <path class="fil0" d="M48.7 8.14l0.1 0c-1.83,3.45 -3.07,7.19 -3.69,11.05 2.71,0.64 5.38,1.46 7.97,2.48 6.32,2.28 11.77,6.51 15.55,12.06 2.92,-6.13 7.93,-11.02 14.14,-13.77 6.26,-3.07 13.39,-3.89 20.18,-2.3 -7.67,-8.98 -18.3,-14.94 -29.97,-16.79 -4.53,-0.7 -9.12,-0.97 -13.7,-0.82 -4.36,1.39 -8.11,4.25 -10.6,8.1z"/>
   <path class="fil0" d="M84.07 22.61c-11.91,6.04 -13.4,14.09 -13.45,14.41 0,0.04 0,0.08 0,0.12 1.3,2.63 2.27,5.41 2.9,8.27 1.41,0.47 2.77,1.09 4.06,1.83 1.14,0.64 3,-0.37 3.52,-0.69 0.52,-0.32 1.16,-0.72 1.68,-1.09 3.31,-2.2 6.89,-3.95 10.65,-5.23 4.78,-1.88 9.7,-3.38 14.71,-4.48 2.42,-0.53 3.94,-2.93 3.41,-5.34 -0.09,-0.43 -0.25,-0.84 -0.46,-1.22 -1.46,-2.64 -3.12,-5.16 -4.95,-7.55 -7.19,-2.64 -15.14,-2.3 -22.07,0.97z"/>
   <path class="fil0" d="M60.66 71.92c-2.33,-3.02 -4.58,-3.79 -5.82,-3.59l-0.02 0.15 -0.35 0c-2.06,0.79 -1.41,8.87 -2.85,14.09 -0.48,1.7 -1.11,3.36 -1.88,4.95 0.04,0.17 0.04,0.35 0,0.52 -1.48,6.23 -4.05,12.15 -7.58,17.48 1.41,0.92 4.95,2.48 12.06,2.13 5.99,-0.46 11.23,-4.21 13.6,-9.73 -0.12,-3.74 -0.56,-7.47 -1.29,-11.15 -0.84,-5.33 -2.84,-10.4 -5.87,-14.86z"/>
   <path class="fil0" d="M72.6 70.06c-3.74,-1.45 -7.15,-3.62 -10.05,-6.39 -2.43,-2.48 -4.19,-5.53 -5.13,-8.87 -0.25,-0.78 0.19,-1.62 0.97,-1.87 0.13,-0.04 0.26,-0.06 0.39,-0.07 5.58,-0.31 11.13,1.04 15.95,3.86l-2.13 13.33zm28.1 53.77c-0.37,-0.5 -0.63,-1.07 -0.77,-1.67 -0.18,-0.65 -0.23,-1.36 -0.15,-2.08l0.43 -3.69 0.72 -7.92c-0.11,0.07 -0.23,0.14 -0.35,0.21 -1.22,0.69 -2.69,0.72 -3.93,0.07 -1.98,-1.03 -4.84,-2.97 -5.78,-3.6l-0.04 -0.03c-0.8,-0.56 -1.4,-1.32 -1.74,-2.23 -0.72,-1.87 -1.22,-3.82 -1.51,-5.8 -0.81,-2.64 -2.04,-5.13 -3.64,-7.38 -2.06,-3.03 -3.74,-6.29 -5.03,-9.7l-0.02 -0.06c-1.09,-4.12 -0.71,-8.53 1.08,-12.4 0.51,-1.2 1.65,-2.06 2.96,-2.24l0.02 -0c1.74,-0.18 3.36,0.84 3.78,2.36 0.99,3.59 3.61,3.96 6.64,4.38 1.86,0.26 3.77,0.52 5.4,1.56 0.14,-1.09 0.3,-2.82 0.1,-3.95 -1.48,-1.22 -3.14,-2.18 -4.93,-2.85l-0.03 -0.01c-0.93,-0.4 -1.77,-0.8 -2.51,-1.18 -1.44,-0.79 -2.18,-2.45 -1.8,-4.04l0.01 -0.02c0.46,-1.67 1.98,-2.83 3.72,-2.81l10.82 0c3.13,0.01 5.97,1.15 8.33,3.2 0.11,0.1 0.25,0.14 0.4,0.14 0.14,-0.01 0.28,-0.08 0.37,-0.18 0.09,-0.1 0.13,-0.23 0.14,-0.36l0.8 -21.04c0.03,-1.37 -1.06,-2.5 -2.43,-2.53 -0.18,-0 -0.37,0.01 -0.55,0.05 -5.78,1.1 -11.43,2.76 -16.89,4.95 -4.25,1.43 -8.27,3.48 -11.91,6.09 -1.87,1.4 -4.36,1.67 -6.49,0.72 -3.13,-1.77 -6.69,-2.62 -10.28,-2.48 -5.44,0.44 -10.77,1.71 -15.83,3.76 1.13,7.03 4.54,13.49 9.71,18.38 0.79,0.67 1.56,1.29 2.28,1.83 8.12,5.82 12.38,5.82 14.04,13.5 1.83,7.06 2.03,14.45 0.59,21.6 -2.77,12.09 -7.78,38.78 -7.78,38.78l29.59 0c6.48,-0.03 11.99,-4.71 13.08,-11.09l1.41 -8.26 -8.4 0c-1.49,0 -2.79,-0.78 -3.63,-1.97z"/>
   <path class="fil0" d="M173.82 54.68c-0.93,3.38 -2.7,6.46 -5.15,8.97 -2.9,2.77 -6.31,4.94 -10.05,6.39l-2.1 -13.42c4.81,-2.83 10.35,-4.17 15.92,-3.86 0.83,0.04 1.48,0.74 1.45,1.57 -0.01,0.12 -0.03,0.24 -0.06,0.36zm7.28 -3.76c-5.04,-2.06 -10.37,-3.33 -15.8,-3.76 -3.6,-0.15 -7.17,0.71 -10.3,2.48 -2.13,1 -4.64,0.77 -6.54,-0.62 -3.64,-2.61 -7.65,-4.66 -11.89,-6.09 -5.47,-2.19 -11.13,-3.85 -16.92,-4.95 -1.34,-0.26 -2.64,0.62 -2.9,1.96 -0.03,0.17 -0.05,0.34 -0.04,0.52l0.92 21.09c0,0.13 0.05,0.25 0.14,0.35 0.09,0.11 0.23,0.18 0.38,0.18 0.14,0.01 0.28,-0.04 0.4,-0.13 2.36,-2.06 5.2,-3.19 8.33,-3.2l10.83 0c0.01,0 0.03,0 0.05,0 1.71,0 3.22,1.15 3.67,2.81l0.01 0.02c0.38,1.58 -0.36,3.24 -1.79,4.03 -0.75,0.39 -1.6,0.79 -2.53,1.19l-0.03 0.01c-1.79,0.67 -3.45,1.63 -4.93,2.85 -0.2,1.13 -0.04,2.86 0.1,3.95 1.63,-1.03 3.55,-1.3 5.4,-1.56 3.03,-0.42 5.65,-0.78 6.64,-4.38 0.42,-1.52 2.04,-2.53 3.78,-2.36l0.02 0c1.31,0.17 2.44,1.03 2.96,2.24 1.78,3.87 2.17,8.27 1.07,12.4l-0.02 0.06c-1.28,3.41 -2.97,6.67 -5.02,9.69 -1.61,2.27 -2.83,4.75 -3.65,7.39 -0.29,1.98 -0.8,3.93 -1.51,5.81 -0.34,0.9 -0.94,1.67 -1.74,2.22l-0.05 0.04c-0.94,0.63 -3.79,2.57 -5.77,3.6 -1.24,0.65 -2.71,0.62 -3.93,-0.07 -0.12,-0.07 -0.24,-0.14 -0.35,-0.21l0.72 7.92 0.43 3.69c0.08,0.73 0.03,1.43 -0.15,2.08 -0.14,0.6 -0.4,1.17 -0.77,1.67 -0.83,1.19 -2.14,1.97 -3.63,1.97l-8.34 0 1.43 8.26c1.1,6.39 6.64,11.07 13.13,11.07l29.72 0c0,0 -4.95,-26.7 -7.78,-38.78 -1.45,-7.15 -1.25,-14.54 0.59,-21.6 1.68,-7.78 5.92,-7.6 13.8,-13.65 0.74,-0.55 1.49,-1.16 2.28,-1.83 5.17,-4.89 8.58,-11.35 9.71,-18.38l-0.1 0.03z"/>
   <path class="fil0" d="M113.2 70.8c-0.37,-4.88 -3.95,-8.64 -8.85,-8.58l-10.97 0c-0.13,0.01 -0.24,0.12 -0.24,0.25 0,0.08 0.04,0.16 0.11,0.2 0.55,0.3 1.33,0.65 2.16,1.03 2.72,1.23 6.11,2.77 6.81,4.72 0.95,2.66 0.26,5.61 -0.41,8.47 -0.41,1.76 -0.84,3.57 -0.84,5.23 0.08,2.5 0.28,3.78 0.61,5.89 0.07,0.44 0.14,0.91 0.22,1.43 0.07,0.43 -0.06,0.87 -0.35,1.21 -0.28,0.33 -0.69,0.51 -1.12,0.51 -0.03,0 -0.07,0 -0.1,0 -1.53,0 -2.17,0.26 -3.51,1.43 -0.28,0.24 -0.65,0.33 -1.03,0.25 -0.45,-0.09 -0.88,-0.43 -1.09,-0.86l-5.7 -10.16c-0.21,-0.44 -0.2,-0.94 0.03,-1.38 0.23,-0.43 0.63,-0.73 1.11,-0.81 0.31,-0.05 0.76,-0.08 1.34,-0.13 1.69,-0.12 5.65,-0.41 5.93,-1.73 0.11,-0.51 0.02,-0.96 -0.27,-1.37 -0.73,-1.03 -2.65,-1.8 -5.41,-2.17l-1.72 -0.17c-2.67,-0.23 -5.01,-2 -5.96,-4.51l-0.28 -0.68c-0.03,-0.07 -0.1,-0.12 -0.17,-0.11l-0.02 0 -0.02 0c-0.05,-0.01 -0.1,0.03 -0.12,0.08l-0.02 0.04c-1.5,3.16 -1.84,6.76 -0.95,10.14 0.9,2.91 2.76,5.96 4.56,8.91 1.94,3.19 3.78,6.2 4.13,8.68 0.25,1.76 0.71,3.5 1.34,5.17 0.47,0.76 5.44,3.92 6.62,4.24 0.04,-0.04 0.08,-0.08 0.1,-0.13 1.47,-3.51 3.84,-6.59 6.84,-8.93l0.03 -0.02c3.8,-2.62 5.98,-3.25 7.01,-3.38l0.19 -22.78z"/>
   <path class="fil0" d="M131.86 105.91c0.03,0.05 0.06,0.09 0.1,0.13 1.18,-0.32 6.15,-3.48 6.62,-4.24 0.63,-1.66 1.09,-3.4 1.35,-5.17 0.35,-2.48 2.19,-5.49 4.13,-8.68 1.8,-2.95 3.65,-6 4.56,-8.91 0.89,-3.38 0.55,-6.98 -0.95,-10.14l-0.02 -0.04c-0.02,-0.05 -0.07,-0.09 -0.12,-0.08l-0.02 0 -0.02 0c-0.07,-0 -0.14,0.04 -0.17,0.11l-0.01 0.02 -0.27 0.67c-0.95,2.5 -3.29,4.26 -5.97,4.49l-1.72 0.17c-2.76,0.37 -4.69,1.14 -5.41,2.17 -0.29,0.41 -0.38,0.86 -0.27,1.37 0.28,1.32 4.24,1.61 5.93,1.73 0.58,0.04 1.03,0.08 1.34,0.13 0.48,0.08 0.89,0.37 1.11,0.81 0.23,0.43 0.24,0.93 0.03,1.38l-0.02 0.04 -5.68 10.13c-0.21,0.43 -0.64,0.76 -1.09,0.86 -0.38,0.08 -0.75,-0.01 -1.03,-0.25 -1.37,-1.19 -2.01,-1.44 -3.6,-1.43 -0.43,0 -0.85,-0.19 -1.13,-0.52 -0.29,-0.33 -0.41,-0.77 -0.35,-1.21 0.08,-0.52 0.15,-1 0.22,-1.43 0.33,-2.11 0.53,-3.39 0.61,-5.89 -0,-1.65 -0.43,-3.47 -0.84,-5.23 -0.67,-2.85 -1.36,-5.8 -0.41,-8.46 0.7,-1.95 4.08,-3.49 6.81,-4.72 0.83,-0.38 1.61,-0.73 2.16,-1.03 0.07,-0.04 0.11,-0.12 0.11,-0.2 0,-0.13 -0.1,-0.25 -0.24,-0.25l-10.96 0c-4.91,-0.06 -8.49,3.71 -8.86,8.58l0.19 22.78c1.03,0.13 3.21,0.75 7.01,3.38l0.03 0.02c3,2.34 5.37,5.43 6.84,8.93z"/>
   <path class="fil0" d="M123.28 118.46c-0,0 -0.01,0 -0.01,0l-6.03 -0.61 0 -9.24c0,-1.73 3.13,-3.1 4.64,-3.49 0.72,-0.18 1.17,-0.94 1.01,-1.7 -0,-0.01 -0.01,-0.02 -0.01,-0.03 -0.17,-0.76 -0.89,-1.24 -1.62,-1.06 -0.01,0 -0.02,0.01 -0.03,0.01 -0.79,0.2 -1.57,0.46 -2.32,0.81l-0.25 0c-0.94,0.29 -1.9,0.46 -2.88,0.51 -1.06,-0.06 -2.12,-0.25 -3.13,-0.58 -0.75,-0.34 -1.53,-0.61 -2.32,-0.81 -0.75,-0.11 -1.44,0.44 -1.55,1.23 -0.09,0.68 0.28,1.32 0.9,1.55 1.53,0.39 4.64,1.76 4.64,3.49l0 9.34 -5.87 0.68c-0.75,0.1 -1.28,0.83 -1.18,1.61 0.08,0.65 0.57,1.16 1.18,1.24l0.14 0 7.17 -0.71 7.26 0.61 0.14 0c0.7,-0.01 1.29,-0.56 1.37,-1.29 0.07,-0.79 -0.49,-1.49 -1.24,-1.56z"/>
   <path class="fil0" d="M188.9 18.6c-0.67,-4.2 -2.06,-8.26 -4.08,-12 -1.4,-2.25 -3.2,-4.21 -5.32,-5.79 16.38,2.59 30.83,12.16 39.63,26.23 -5.39,-5.14 -15.12,-10.97 -30.22,-8.44z"/>
   <path class="fil0" d="M176.79 110.72l2.08 0c4.13,0.3 8.26,-0.66 11.84,-2.75 2.59,3.38 5.87,6.17 9.61,8.2 4.57,2.44 9.67,3.73 14.86,3.76 1.48,0 2.95,-0.11 4.41,-0.32 -10.13,14.86 -24.1,17.14 -40.32,10.92 -11.47,-4.38 -15.28,-15.95 -15.92,-26.85 3.2,4.24 8.14,6.82 13.45,7.03z"/>
   <path class="fil0" d="M201.7 113.55l0 0.1c-10.82,-5.67 -15.6,-19.49 -16.99,-24.35 2.95,0 9.68,0 21.47,0.35 7.91,0.31 15.74,1.78 23.23,4.36 -1.13,6.82 -3.23,13.44 -6.24,19.66 -0.44,0.89 -0.91,1.76 -1.41,2.48 -6.78,1.59 -13.91,0.67 -20.06,-2.6z"/>
   <path class="fil0" d="M184.56 86.38c0.56,-4.74 0.4,-9.54 -0.47,-14.24 3.77,1.74 7.88,2.65 12.04,2.68 3.32,-0 6.62,-0.61 9.73,-1.78 9.91,-3.76 16.49,-9.44 19.49,-16.92 1.41,-3.56 2.02,-7.39 1.81,-11.22 4.11,15.03 5.05,30.75 2.75,46.16 -7.62,-2.56 -15.57,-4.02 -23.6,-4.33 -12.06,-0.44 -18.8,-0.4 -21.75,-0.35z"/>
   <path class="fil0" d="M204.85 70.35c-7.13,2.59 -15.04,1.91 -21.62,-1.86 -0.63,-2.31 -1.46,-4.57 -2.48,-6.74 1.61,-3.27 2.72,-6.77 3.29,-10.38 0.17,-1.3 -0.53,-2.55 -1.74,-3.07 -5.37,-2.21 -11.05,-3.56 -16.84,-4.01 -1.57,-0.07 -3.14,0.05 -4.68,0.35 2.3,-9.4 9.21,-17 18.35,-20.18l-0.05 -0.07c30.61,-11.69 42.28,9.61 42.8,10.6 2.76,6.38 3.03,13.56 0.77,20.13 -2.7,6.66 -8.69,11.79 -17.81,15.23z"/>
   <path class="fil0" d="M182.43 8.14l-0.1 0c1.83,3.45 3.07,7.19 3.69,11.05 -2.71,0.64 -5.38,1.46 -7.97,2.48 -6.32,2.28 -11.77,6.51 -15.55,12.06 -2.92,-6.13 -7.94,-11.02 -14.14,-13.77 -6.26,-3.07 -13.39,-3.89 -20.18,-2.3 7.68,-8.98 18.3,-14.94 29.97,-16.79 4.53,-0.7 9.11,-0.97 13.69,-0.82 4.36,1.39 8.11,4.25 10.6,8.1z"/>
   <path class="fil0" d="M147.07 22.61c11.91,6.04 13.4,14.09 13.45,14.41 -0,0.04 -0,0.08 0,0.12 -1.3,2.63 -2.27,5.41 -2.9,8.27 -1.41,0.47 -2.77,1.09 -4.06,1.83 -1.14,0.64 -3,-0.37 -3.52,-0.69 -0.52,-0.32 -1.16,-0.72 -1.68,-1.09 -3.31,-2.2 -6.89,-3.95 -10.65,-5.23 -4.78,-1.88 -9.69,-3.38 -14.71,-4.48 -2.42,-0.53 -3.94,-2.93 -3.41,-5.34 0.09,-0.43 0.25,-0.84 0.46,-1.22 1.46,-2.64 3.12,-5.16 4.95,-7.55 7.19,-2.64 15.14,-2.3 22.07,0.97z"/>
   <path class="fil0" d="M170.47 71.92c2.33,-3.02 4.58,-3.79 5.82,-3.59l0.03 0.15 0.35 0c2.06,0.79 1.41,8.87 2.85,14.09 0.48,1.7 1.11,3.36 1.88,4.95 -0.04,0.17 -0.04,0.35 0,0.52 1.48,6.23 4.05,12.15 7.58,17.48 -1.41,0.92 -4.95,2.48 -12.06,2.13 -5.99,-0.46 -11.23,-4.21 -13.6,-9.73 0.12,-3.74 0.56,-7.47 1.29,-11.15 0.84,-5.33 2.84,-10.4 5.87,-14.86z"/>
  </g>
 </g>
</svg>
