<svg id="_2491323391904" xmlns="http://www.w3.org/2000/svg" width="93.35" height="93.35" viewBox="0 0 93.35 93.35">
  <ellipse id="Elipse_8" data-name="Elipse 8" cx="46.675" cy="46.675" rx="46.675" ry="46.675" fill="none"/>
  <path id="Trazado_94" data-name="Trazado 94" d="M73.14,131.626h58.494V73.13H73.14ZM84.7,103.7v1.84H81.93v7.916H79.907v-7.916H77.15V103.7H84.7Zm2.509-3.141V90.382H89.1v10.175Zm25.625,26.392h-2.2l-2.669-3.329v3.329h-1.892V116.681h1.892v6.16l2.523-3.226h2.259l-2.948,3.622,3.036,3.712Zm-17.5-1.644a1.924,1.924,0,0,0,1.423-.572,2.13,2.13,0,0,0,0-2.9,2.055,2.055,0,0,0-2.845,0,2.17,2.17,0,0,0,0,2.9A1.924,1.924,0,0,0,95.336,125.3Zm0,1.847a3.833,3.833,0,1,1,2.757-1.115A3.75,3.75,0,0,1,95.336,127.151Zm19.849-1.616c.186,0,.284-.083.284-.238v-.007c0-.172-.1-.231-.284-.231h-.21v.479h.21Zm-.567-.755h.574c.381,0,.627.157.627.493v.007a.43.43,0,0,1-.336.441l.434.7h-.372l-.4-.636h-.172v.636h-.36V124.78Zm1.928.836A1.361,1.361,0,1,0,115.185,127,1.329,1.329,0,0,0,116.546,125.617Zm-3.019.007a1.658,1.658,0,1,1,1.658,1.644A1.633,1.633,0,0,1,113.527,125.624Zm-11.075-4.751a2.249,2.249,0,0,1,2.228-1.408v2.114a2.2,2.2,0,0,0-1.556.353,1.678,1.678,0,0,0-.674,1.511v3.505h-1.892v-7.334h1.892v1.263ZM99.589,83.3a1.771,1.771,0,0,0-1.818-1.482A1.829,1.829,0,0,0,95.851,83.3Zm-3.71,1.468a1.868,1.868,0,0,0,2.068,1.377,1.943,1.943,0,0,0,1.642-.734l1.527.879a3.645,3.645,0,0,1-3.2,1.57A3.937,3.937,0,0,1,95,86.76a4.04,4.04,0,0,1-.014-5.528,3.7,3.7,0,0,1,2.786-1.113,3.467,3.467,0,0,1,2.657,1.113,3.862,3.862,0,0,1,1.056,2.757,4.794,4.794,0,0,1-.074.777H95.879Zm-5.154-3.183a2.136,2.136,0,0,1,2.118-1.408V82.29a2,2,0,0,0-1.477.353,1.72,1.72,0,0,0-.641,1.511v3.505h-1.8V80.324h1.8v1.263ZM80.3,126.946l-2.874-10.268h2.128l1.966,7.613,2.142-7.613h1.73l2.156,7.613,1.966-7.613h2.128l-2.876,10.268h-2.3L84.53,120.17l-1.921,6.777h-2.3Zm36.1-44.8h-1.656v3.05c0,.793.572.808,1.656.748v1.716c-2.595.293-3.55-.455-3.55-2.466V82.14h-1.277v-1.82h1.277v-1.48l1.892-.572v2.054H116.4v1.82ZM114.144,96.2a1.771,1.771,0,0,0-1.818-1.482A1.832,1.832,0,0,0,110.4,96.2Zm-3.712,1.468a1.87,1.87,0,0,0,2.068,1.377,1.951,1.951,0,0,0,1.644-.734l1.525.882a3.644,3.644,0,0,1-3.2,1.568,3.937,3.937,0,0,1-2.919-1.1,4.04,4.04,0,0,1-.014-5.528,3.7,3.7,0,0,1,2.788-1.115,3.456,3.456,0,0,1,2.654,1.115,3.858,3.858,0,0,1,1.056,2.757,4.818,4.818,0,0,1-.074.777h-5.531Zm-15.77,1.289a1.966,1.966,0,0,0,1.451-.572,2.025,2.025,0,0,0,.586-1.5,1.962,1.962,0,0,0-.586-1.48,2.092,2.092,0,0,0-2.9,0,2.01,2.01,0,0,0-.572,1.48,2.068,2.068,0,0,0,.572,1.5A1.968,1.968,0,0,0,94.662,98.955ZM96.7,93.22h1.892v7.334H96.7v-.865a2.869,2.869,0,0,1-2.39,1.072,3.328,3.328,0,0,1-2.523-1.115,4.151,4.151,0,0,1,0-5.5,3.35,3.35,0,0,1,2.523-1.129,2.874,2.874,0,0,1,2.39,1.07v-.865ZM87.692,82.142v.791A4.74,4.74,0,0,1,86.284,86.5a5.016,5.016,0,0,1-3.639,1.365A5.4,5.4,0,0,1,78.7,86.321a5.147,5.147,0,0,1-1.556-3.784A5.385,5.385,0,0,1,87,79.576l-1.732,1a3.163,3.163,0,0,0-2.757-1.423,3.425,3.425,0,0,0-2.407,5.8,3.49,3.49,0,0,0,2.554.939,2.838,2.838,0,0,0,2.99-1.952h-3.11v-1.79H87.69Zm13.63,17.5a3.872,3.872,0,0,1,2.771-6.629,3.655,3.655,0,0,1,3.286,1.892l-1.627.953a1.815,1.815,0,0,0-1.673-.982,1.924,1.924,0,0,0-1.966,2.011,2,2,0,0,0,.558,1.437,1.912,1.912,0,0,0,1.408.558,1.81,1.81,0,0,0,1.687-.967l1.644.939a3.9,3.9,0,0,1-6.086.791Zm4.942-13.587a1.966,1.966,0,0,0,1.451-.572,2.025,2.025,0,0,0,.586-1.5,1.962,1.962,0,0,0-.586-1.48,2.086,2.086,0,0,0-2.9,0,2.01,2.01,0,0,0-.572,1.48,2.062,2.062,0,0,0,.572,1.5A1.968,1.968,0,0,0,106.264,86.057Zm2.037-5.735h1.892v7.334H108.3v-.865a2.87,2.87,0,0,1-2.39,1.07,3.342,3.342,0,0,1-2.523-1.113,4.151,4.151,0,0,1,0-5.5,3.35,3.35,0,0,1,2.523-1.129,2.871,2.871,0,0,1,2.39,1.07v-.865Zm-20.45,31.484a1.924,1.924,0,0,0,1.423-.572,2.13,2.13,0,0,0,0-2.9,2.055,2.055,0,0,0-2.845,0,2.17,2.17,0,0,0,0,2.9A1.924,1.924,0,0,0,87.852,111.806Zm0,1.849a3.833,3.833,0,1,1,2.757-1.115A3.743,3.743,0,0,1,87.852,113.655ZM82.323,95.286a1.556,1.556,0,0,0,0-3.11h-1.8v3.11Zm0-5a3.439,3.439,0,0,1,2.492,1,3.475,3.475,0,0,1,0,4.9,3.441,3.441,0,0,1-2.492,1h-1.8v3.374H78.5V90.284h3.829Z" transform="translate(-55.712 -55.704)" fill="#fff5ef"/>
</svg>
