<svg id="_2488430970672" xmlns="http://www.w3.org/2000/svg" width="93.35" height="93.35" viewBox="0 0 93.35 93.35">
  <ellipse id="Elipse_10" data-name="Elipse 10" cx="46.675" cy="46.675" rx="46.675" ry="46.675" fill="none"/>
  <g id="Grupo_23" data-name="Grupo 23" transform="translate(7.761 9.547)">
    <path id="Trazado_107" data-name="Trazado 107" d="M139.6,360.049a33.913,33.913,0,0,1-8.592-.9,33.357,33.357,0,0,1-9.146-3.506l-1-.579a30.233,30.233,0,0,1-5.453-4.037c-.151-.151-.255-.2-.409-.355a33.318,33.318,0,0,1-2.713-2.848l-2.99-4.1c-.615-1.032-.531-.7-2.1-.318-.2.049-.62.085-.567.39a1.361,1.361,0,0,0,.269.491,39.2,39.2,0,0,0,3.209,4.6l.9,1.035c.177.229.328.331.488.531a26.365,26.365,0,0,0,1.944,1.986c.183.186.325.269.511.461a1.681,1.681,0,0,0,.242.216l1.338,1.111a34.928,34.928,0,0,0,4.027,2.809c.924.557,2.2,1.239,3.2,1.743.423.213.892.414,1.327.612.912.414,1.877.725,2.812,1.065a41.922,41.922,0,0,0,4.677,1.241,36.568,36.568,0,0,0,5.214.653c.635,0,1.31-.022,1.94,0a6.135,6.135,0,0,0,1.754.023l1.823-.167a11.434,11.434,0,0,0,1.764-.174c1.046-.2,2.278-.33,3.309-.622,1.013-.286,2.068-.533,3.062-.865l2.839-1.038a38.476,38.476,0,0,0,9.714-5.948,33.56,33.56,0,0,0,2.777-2.629l1.154-1.3c.318-.357.609-.7.9-1.088a38.325,38.325,0,0,0,3.871-5.872,36.472,36.472,0,0,0,3.935-11.779l.387-3.542a15.463,15.463,0,0,0,0-1.89,8.177,8.177,0,0,0-1.744.448,3.131,3.131,0,0,0-.427.134c-.26.161-.174,1.2-.21,1.474l-.2,2c-.1.705-.18,1.281-.291,1.953a30.437,30.437,0,0,1-2.655,8.416l-.935,1.82c-.081.163-.124.2-.2.357-.141.266-.248.465-.4.718l-1.277,2.039c-.525.757-1.046,1.536-1.638,2.239a3.338,3.338,0,0,1-.258.305,2.375,2.375,0,0,0-.26.3l-.789.9c-.466.557-1.124,1.176-1.631,1.687l-3.916,3.278-3.051,1.949c-.712.429-1.465.767-2.221,1.146a31.677,31.677,0,0,1-6.512,2.363,30.826,30.826,0,0,1-5.712.922c-.684.052-1.33.15-2.1.15Z" transform="translate(-99.043 -288.169)" fill="#fff5ef" fill-rule="evenodd"/>
    <path id="Trazado_108" data-name="Trazado 108" d="M72.382,102.714c0,.1.092.2.153.2a11.548,11.548,0,0,0,2.195-.561c0-.4.02-.64.049-.97.083-.956.131-1.99.286-2.929a43.482,43.482,0,0,1,1.711-6.808,33.065,33.065,0,0,1,3.116-6.475,30.272,30.272,0,0,1,3.37-4.588,3.015,3.015,0,0,0,.265-.3,29.888,29.888,0,0,1,2.337-2.406l1.455-1.251a25.633,25.633,0,0,1,3.716-2.661l1.671-.981a38.4,38.4,0,0,1,4-1.868c1.043-.416,2.1-.764,3.2-1.089a28.3,28.3,0,0,1,6.3-1.194,31.037,31.037,0,0,1,8.481.2,33.873,33.873,0,0,1,3.634.754c.409.1.764.219,1.153.327a28.564,28.564,0,0,1,3.258,1.128l1.026.452a35.718,35.718,0,0,1,3.848,2.019,33.594,33.594,0,0,1,4.451,3.2c.079.068.105.106.183.174l.409.357a4.121,4.121,0,0,1,.38.334c.154.157.258.2.409.355l2.143,2.245c.066.075.111.105.177.18.639.72,1.229,1.5,1.809,2.271l.911,1.282c.115.19.178.286.3.468.718,1.094.469.958,1.816.583.191-.055.358-.105.561-.153.227-.055.459-.06.459-.305a25.473,25.473,0,0,0-1.888-2.907l-2.31-2.944a2.491,2.491,0,0,0-.2-.206c-.163-.161-.217-.273-.38-.435l-.792-.842a33.656,33.656,0,0,0-3.395-3.034L130.8,72.973a28.008,28.008,0,0,0-2.976-1.871L125.711,70a35.536,35.536,0,0,0-8.456-2.868,38.367,38.367,0,0,0-5.64-.789c-.579,0-1,.055-1.584.055-.322,0-.423-.056-.763-.055a36.026,36.026,0,0,0-3.959.226,40.879,40.879,0,0,0-8.294,1.911c-.548.183-1.117.4-1.625.62l-1.6.7a35.2,35.2,0,0,0-5.729,3.3A27.329,27.329,0,0,0,85.5,75.077c-.822.764-1.53,1.377-2.346,2.193l-1.1,1.148c-.2.2-.344.381-.535.586a28.323,28.323,0,0,0-2.493,3.17c-.164.248-.3.42-.461.663a25.38,25.38,0,0,0-1.7,2.837c-.37.753-.815,1.51-1.13,2.288s-.714,1.57-1.006,2.36a37.726,37.726,0,0,0-2.033,8.17c-.043.334-.1.7-.115,1.007-.06,1.1-.206,2.1-.206,3.214Z" transform="translate(-69.724 -66.34)" fill="#fff5ef" fill-rule="evenodd"/>
    <path id="Trazado_109" data-name="Trazado 109" d="M63.318,316.605a4.819,4.819,0,0,0,.246,1.284l.979,3.765a1.2,1.2,0,0,1-.52.194l-3.5.94a2.468,2.468,0,0,1-.623.142,15.9,15.9,0,0,1-.734-2.531l-.511-1.939c-.178-.738-.164-.6-1.429-.246l-2.275.583c-1.348.328-1.166.014-.591,2.327l1.426,5.41c.178.61.289,1.169.463,1.782s.325,1.225.478,1.819c.158.615.311,1.2.479,1.815.073.269.164.609.235.888.142.573.063.481.315.858.473-.01,3.113-.766,3.806-.94.629-.157.853-.108.64-.8-.256-.835-.44-1.677-.688-2.527-.092-.315-.646-2.278-.646-2.569,0-.2.268-.256.419-.3l2.949-.776c1.652-.462,1.157-.855,2.1,2.59l.58,2.275a1.844,1.844,0,0,0,.105.355c.183.376.485.214.816.117.2-.06.364-.094.57-.145l2.828-.744c.524-.128.571-.108.249-1.192-.092-.312-.155-.6-.24-.933-.079-.315-.15-.571-.235-.887l-2.967-11.368c-.134-.579-.222-.4-1.359-.121l-3.368.868Z" transform="translate(-53.927 -279.619)" fill="#fff5ef" fill-rule="evenodd"/>
    <path id="Trazado_110" data-name="Trazado 110" d="M192.231,303.653v-1.174c0-.715.105-1.252.1-1.938,0-.738.047-1.336.1-1.989l2.356,3.765a1.557,1.557,0,0,1,.3.622,8.9,8.9,0,0,1-1.4.387,8.639,8.639,0,0,1-1.459.327Zm-5,7.194c0,.39.875.049,1.357-.072l2.186-.57c1.125-.245,1.253-.128,1.252-1.551,0-.308,0-.615,0-.922,0-.377.075-.45.378-.538,1.1-.318,2.481-.6,3.687-.956,1.1-.318.833-.458,1.966,1.439.315.527.318.557,1.052.355.181-.05.377-.1.6-.164.409-.115.744-.209,1.164-.314a15.948,15.948,0,0,0,2.326-.684,1.06,1.06,0,0,0-.255-.461l-8.1-11.385c-.194-.294-.39-.543-.593-.836-.305-.443-.3-.551-.908-.39-.757.2-1.523.416-2.244.613-.417.114-2.072.445-2.206.7l-.435,3.9c-.029.435-.072.9-.134,1.346l-.268,2.589c-.1.9-.164,1.724-.279,2.629l-.547,5.269Z" transform="translate(-168.046 -261.005)" fill="#fff5ef" fill-rule="evenodd"/>
    <path id="Trazado_111" data-name="Trazado 111" d="M394.971,243.821a13.107,13.107,0,0,0,1.088,4.575,8.3,8.3,0,0,0,.718,1.219,6.419,6.419,0,0,0,4.825,2.777,9.489,9.489,0,0,0,4.12-.622,7.571,7.571,0,0,0,2.395-1.179l.691-.635a6.442,6.442,0,0,0,1.518-4.656c0-.216-.2-.145-.394-.168-.128-.016-.321-.075-.478-.086a2.118,2.118,0,0,0-.512.049,2.033,2.033,0,0,1-.508-.049c-.491-.04-1.2.023-1.682,0-.263-.014-.307-.1-.508-.1-.892,0,.442,2.077-1.705,3.346a2.725,2.725,0,0,1-2.96-.109,3.721,3.721,0,0,1-1.065-1.587,8.828,8.828,0,0,1-.617-2.087,3.706,3.706,0,0,1,.286-2.921,2.755,2.755,0,0,1,3.92-.776c1.363,1.042-.381,1.5,4.217-.781a1.169,1.169,0,0,0,.425-.289,7.564,7.564,0,0,0-2.021-2.213c-1.928-1.341-4.438-1.158-6.6-.433a7.488,7.488,0,0,0-3.665,2.251,7.089,7.089,0,0,0-1.492,4.477Z" transform="translate(-345.89 -212.038)" fill="#fff5ef" fill-rule="evenodd"/>
    <path id="Trazado_112" data-name="Trazado 112" d="M285.44,272.325a10.059,10.059,0,0,0,.669,3.819c.073.222.157.455.25.668s.171.422.288.63a6.329,6.329,0,0,0,1.147,1.609,6.666,6.666,0,0,0,6.783,1.9,11.109,11.109,0,0,0,1.456-.381,6.094,6.094,0,0,0,4.084-3.262,8.2,8.2,0,0,0,.629-3.094c0-.63-1.616-.24-2.72-.393-2.038-.281-1.612-.01-1.741.933-.147,1.078-.312,1.81-1.374,2.3a2.612,2.612,0,0,1-3.032-.249,6.917,6.917,0,0,1-1.584-3.976,3.08,3.08,0,0,1,.666-2.939,2.626,2.626,0,0,1,3.976.082c.589.747.284.594,2.39-.45l.9-.476c.933-.466,1.092-.427.643-1.018-.122-.161-.206-.281-.331-.435a6.1,6.1,0,0,0-2.562-1.928c-2.421-.927-6.047.023-8.1,1.553a5.645,5.645,0,0,0-1.138,1.107A6.618,6.618,0,0,0,285.44,272.325Z" transform="translate(-252.123 -236.665)" fill="#fff5ef" fill-rule="evenodd"/>
    <path id="Trazado_113" data-name="Trazado 113" d="M503.649,213.346c0-.387,1.96-.568,2.31-.6a1.51,1.51,0,0,1,.7,2.74,5.376,5.376,0,0,1-2.244.717c-.145-.617-.766-2.471-.766-2.857Zm-5.509-1.838c0,.246,1.146,4.381,1.246,4.775l1.877,7.152c.086.308.538,2.244.64,2.37.22.273.771,0,1.114-.085l3.031-.794c.531-.13.426-.05.509-.255l.016-.059c0-.006,0-.024,0-.032l-.036-.193c-.032-.125-.058-.22-.085-.33l-.846-3.235c-.438-1.738-.825-1.33,1.622-1.959a12.1,12.1,0,0,0,2-.655,4.51,4.51,0,0,0,2.59-2.716,4.171,4.171,0,0,0,.138-2.244,5.225,5.225,0,0,0-1.869-3.434c-1.528-1.128-3.52-.7-5.191-.278-.8.2-1.544.4-2.317.591l-4.02,1.03c-.184.048-.417.1-.417.347Z" transform="translate(-434.212 -188.553)" fill="#fff5ef" fill-rule="evenodd"/>
    <path id="Trazado_114" data-name="Trazado 114" d="M230.666,368.716a19.446,19.446,0,0,1-8.5-1.905,19.1,19.1,0,0,1-3.047-1.8l-2.008-1.665c-.6-.609-.584-.579-1.4-.355-.247.068-.443.112-.694.174-1.7.426-1.527.321-.659,1.3a17.037,17.037,0,0,0,1.787,1.681,24.8,24.8,0,0,0,3.556,2.464A20.861,20.861,0,0,0,226.345,371c.54.108,1.164.242,1.684.305.648.081,1.33,0,1.969.072a19.787,19.787,0,0,0,3.724-.22,23.878,23.878,0,0,0,5.489-1.5,20.537,20.537,0,0,0,2.019-.992,23.876,23.876,0,0,0,3.559-2.461,25.579,25.579,0,0,0,2.524-2.475c.1-.115.115-.161.229-.281a22.631,22.631,0,0,0,1.884-2.6,28.107,28.107,0,0,0,1.393-2.636l.59-1.451c.1-.253.158-.462.246-.724.112-.34.826-2.572.489-2.572l-1.841.453a2.1,2.1,0,0,0-.822.3,1.406,1.406,0,0,0-.391.781,16.788,16.788,0,0,1-1.331,3.26,21.7,21.7,0,0,1-2.539,3.737,2.736,2.736,0,0,0-.289.322,18.939,18.939,0,0,1-3.735,3.155,19.86,19.86,0,0,1-6.437,2.744,19.246,19.246,0,0,1-4.091.5Z" transform="translate(-190.717 -312.14)" fill="#fff5ef" fill-rule="evenodd"/>
    <path id="Trazado_115" data-name="Trazado 115" d="M200.678,172.965a19.331,19.331,0,0,1,6.282.758,19.775,19.775,0,0,1,6.836,3.621l1.1.99c.357.353.6.212,1.046.1.383-.1.722-.173,1.1-.276a5.91,5.91,0,0,0,1.082-.347c-.027-.328-.446-.623-.65-.829l-1.582-1.478c-.094-.083-.107-.078-.2-.157l-1.507-1.147a20.763,20.763,0,0,0-2.88-1.711,21.459,21.459,0,0,0-4.456-1.615,23.712,23.712,0,0,0-5.919-.663,21.1,21.1,0,0,0-4.1.54,20.078,20.078,0,0,0-3.565,1.078,22.1,22.1,0,0,0-6.145,3.7l-.917.816a22.411,22.411,0,0,0-3.156,3.834l-1.074,1.783a6.233,6.233,0,0,0-.4.776,29.815,29.815,0,0,0-1.426,3.83c-.355,1.193-.492,1.374.357,1.124,1.265-.374,2.226-.3,2.475-.994.239-.665.281-.93.6-1.743a18.587,18.587,0,0,1,1.151-2.318l.91-1.438,1.548-1.921a2.378,2.378,0,0,0,.26-.3,20.579,20.579,0,0,1,4.225-3.324,19.5,19.5,0,0,1,8.995-2.687Z" transform="translate(-161.749 -155.262)" fill="#fff5ef" fill-rule="evenodd"/>
    <path id="Trazado_116" data-name="Trazado 116" d="M137.218,210.174c0,.351,1.582.827,1.582,1.02,0,.76-.934-.135-1.658-.393-.338-.119-.425.223-.623.613-.163.319-.243.448.086.648.222.132.448.25.7.374l1.072.561a11.811,11.811,0,0,0,2.618,1.258c.291,0,.563-.789.563-.918,0-.328-.528-.463-1.038-.748-.74-.414-.963-.36-.648-.833.358.083,1.756.969,1.94.969s.663-1.02.663-1.02c0-.2-.789-.573-1.038-.7l-.866-.459c-.127-.071-.165-.106-.289-.171-.4-.209-.757-.4-1.157-.627-.206-.114-.36-.194-.561-.305-.879-.488-.833-.335-1.087.171C137.39,209.78,137.218,209.958,137.218,210.174Z" transform="translate(-124.512 -188.595)" fill="#fff5ef" fill-rule="evenodd"/>
    <path id="Trazado_117" data-name="Trazado 117" d="M278.8,107.323a6.47,6.47,0,0,1,.409,1.02,2.212,2.212,0,0,1,.255,1.124,1.156,1.156,0,0,1-.409.05c-.046-.55-.255-1.8-.255-2.193Zm-.714,4.386c1.675-.138,1.225-.423,1.225-1.225l.37-.119c.193,0,.223.138.288.33.046.135.075.265.108.4a2.5,2.5,0,0,0,1.275-.154c.081-.35-.22-.879-.416-1.37l-1.115-2.762c-.461-1.156-.26-.963-1.684-.612-.8.2-.705,0-.443,2.025.073.57.255,3.2.393,3.484Z" transform="translate(-245.335 -100.232)" fill="#fff5ef" fill-rule="evenodd"/>
    <path id="Trazado_118" data-name="Trazado 118" d="M232.525,123.336c0-.55.309-.278.5.066.134.248.248.45.371.7a7.368,7.368,0,0,1,.663,1.479c0,.158-.092.144-.2.2a9.3,9.3,0,0,1-1.02-1.786,2.542,2.542,0,0,1-.307-.663Zm0-.816c-.64,0-1.325.164-1.325.918a12.6,12.6,0,0,0,1.133,2.49c.235.387.354.8.885.9a1.033,1.033,0,0,0,1.043-.741,1.307,1.307,0,0,0,1.325-.459,1.35,1.35,0,0,0-.245-.622l-1.524-2.966c-.125-.25-.486-1.1-.679-1.1a1.732,1.732,0,0,0-.9.528c-.151.258.262.722.289,1.052Z" transform="translate(-205.688 -113.082)" fill="#fff5ef" fill-rule="evenodd"/>
    <path id="Trazado_119" data-name="Trazado 119" d="M165.961,441.392a1.709,1.709,0,0,0,.422,1.058,2.891,2.891,0,0,0,.836.643c.665.285,1.087-.009,1.576-.4s.478-.338.216-.633c-.094-.107-.106-.145-.207-.253-.075-.081-.13-.119-.2-.206-.138-.161-.076-.214-.3-.214s-.5.612-1.02.612c-.176,0-.322-.17.037-.524.2-.191.347-.289.537-.484s.327-.279.509-.461a3.1,3.1,0,0,1,.279-.232l.793-.685c.13-.117.479-.44.62-.132.167.36-.836.781-.836,1.242,0,.269.517.747.714.918.416-.22,1.225-.938,1.225-1.479a1.679,1.679,0,0,0-.548-1.392,1.317,1.317,0,0,0-.453-.363c-1.059-.518-1.679.194-2.484.871l-.685.589c-.443.448-1.033.885-1.033,1.518Z" transform="translate(-149.837 -384.714)" fill="#fff5ef" fill-rule="evenodd"/>
    <path id="Trazado_120" data-name="Trazado 120" d="M334.708,506.256c0,.846-.035,3.235.547,3.737.663.576,2.372.433,2.675-.414a3.958,3.958,0,0,0,.092-1.33c-.02-.091-.056-.209-.3-.209-.338,0-.871.056-.95.325-.131.436.217,1.052-.325,1.052-.305,0-.3-1.156-.305-1.481l-.053-.866a4.158,4.158,0,0,1-.006-1.182c.125-.412.471-.207.512.216.086.9-.213.964.77,1.017.321.016.612.107.612-.256a3.721,3.721,0,0,0-.273-1.511c-.446-.8-2.99-1.028-2.99.9Z" transform="translate(-294.3 -441.67)" fill="#fff5ef" fill-rule="evenodd"/>
    <path id="Trazado_121" data-name="Trazado 121" d="M306.1,108.266a1.062,1.062,0,0,0-.05-.305.949.949,0,0,0-.32-.014c-.145.012-.253.009-.4.013-.888.035-.416.659-.305,2.449.023.361.079.7.1,1.069a1.869,1.869,0,0,0,.2.971c.22,0,1.007-.039,1.107-.17a26.56,26.56,0,0,0-.239-3.5c0-.1.492-.95.612,1.481.119,2.449.1,1.941.92,1.939.853,0,.492-.427.41-1.484a22.579,22.579,0,0,0-.279-2.271c-.158-.816-.856-.8-1.338-.512C306.318,108.053,306.261,108.157,306.1,108.266Z" transform="translate(-268.696 -101.789)" fill="#fff5ef" fill-rule="evenodd"/>
    <path id="Trazado_122" data-name="Trazado 122" d="M516.684,370.171c0,.387.183.4.2.663-.344-.082-.335-.138-.492.426-.235.836-.455.705,1.033,1.127.737.209,1.913.623,2.668.806.255.06.354-.073.435-.348.347-1.176.456-.671-2.436-1.633-.217-.072-.8-.2-.8-.427,0-.6,2.772.714,3.468.714.246,0,.288-.43.371-.649.242-.626.131-.531-.553-.7-.135-.033-.26-.072-.4-.112-.289-.086-.544-.184-.8-.268-.519-.165-1.062-.337-1.589-.455a.849.849,0,0,0-1.11.856Z" transform="translate(-449.697 -325.686)" fill="#fff5ef" fill-rule="evenodd"/>
    <path id="Trazado_123" data-name="Trazado 123" d="M388.39,501.57h-.1c-.1-.38-.442-.151-.789-.022-.544.2-.54.2-.3.908l.652,1.951c.4,1.2.331,1.538,1.1,1.289.971-.315.543-.161-.242-2.857-.072-.246-.26-.705-.16-.912.19-.092.278-.04.368.142l.492,1.394a11.025,11.025,0,0,0,.671,1.831s1.122-.229,1.122-.459-.871-2.721-1.026-3.106c-.294-.718-.361-.771-.911-.771a.914.914,0,0,0-.868.612Z" transform="translate(-339.106 -438.413)" fill="#fff5ef" fill-rule="evenodd"/>
    <path id="Trazado_124" data-name="Trazado 124" d="M481.677,427.739c0,.41-.439.027-.554-.059a3.267,3.267,0,0,0-.62-.4C480.521,426.435,481.677,427.384,481.677,427.739Zm-2.706-.052c0,.213,1.413,1.187,1.648,1.363.6.448,1.161.853,1.749,1.311.773.6.761.645,1.268,0,.1-.13.305-.253.308-.437.006-.34-1.35-.94-1.6-1.42.527-1,.92-1.241-.233-2.114a2.247,2.247,0,0,0-1.248-.589c-.619,0-1.141.807-1.508,1.3-.094.125-.38.453-.38.59Z" transform="translate(-417.801 -374.069)" fill="#fff5ef" fill-rule="evenodd"/>
    <path id="Trazado_125" data-name="Trazado 125" d="M162.4,192.7c.353.082.96.461.969.868C162.673,193.734,162.4,193.059,162.4,192.7Zm-2.449-.509a1.3,1.3,0,0,0,.868,1.327c.17-.114.663-.676.663-.918,0-.351-.563-.371-.563-.612a.715.715,0,0,1,.052-.255.762.762,0,0,1,.744.744c-.1,1.37-.553,1.344.4,2.039.458.334,1.16.537,1.541-.049a1.608,1.608,0,0,0,.122-.9c.319.214.239.278.553-.161.1-.134.2-.242.3-.37.262-.368-.076-.509-.338-.694-.508-.355-.983-.727-1.51-1.091-.589-.409-1.094-.865-1.749-.583a2.154,2.154,0,0,0-1.078,1.523Z" transform="translate(-144.692 -172.703)" fill="#fff5ef" fill-rule="evenodd"/>
    <path id="Trazado_126" data-name="Trazado 126" d="M445.322,473.7c0-.341.416-.083.694.327l.45.622c.3.409.744.819.744,1.348-.281.066-.229.024-.568-.4A9.49,9.49,0,0,1,445.322,473.7Zm-1.072.255a1.475,1.475,0,0,0,.357,1.072c.294.44,1.223,1.989,1.838,1.989.912,0,2.585-.911,1.541-2.459-.412-.612-1.156-1.979-2-1.979-.583,0-.338.023-.748.222-.463.224-.987.512-.987,1.156Z" transform="translate(-388.078 -414.117)" fill="#fff5ef" fill-rule="evenodd"/>
    <path id="Trazado_127" data-name="Trazado 127" d="M194.436,158.572c0-.443.151-.353.461.05a1.85,1.85,0,0,1,.407.613c-.095.107-.132.151-.256.108a.762.762,0,0,1-.268-.2.855.855,0,0,1-.343-.576Zm-2.245-1.071a1.32,1.32,0,0,0,.613,1.225c.178-.119.894-.587.868-.817-.03-.262-.461-.269-.461-.815.471-.109.714.425.714.612a4.223,4.223,0,0,1-.223.744c-.181.453-.579.781.082,1.488a2,2,0,0,0,.635.54.908.908,0,0,0,1.189-.937c.174.042.272.212.65-.115.449-.39.708-.5.206-.994-.157-.154-.2-.227-.332-.381l-1.3-1.459c-.413-.514-.492-.57-1.114-.57-.5,0-1.531.674-1.531,1.481Z" transform="translate(-172.292 -143.114)" fill="#fff5ef" fill-rule="evenodd"/>
    <path id="Trazado_128" data-name="Trazado 128" d="M502.048,409.89c0-.4.439-.141.794.073.235.14.422.224.655.364.281.167,1.111.492,1.2.838-.288.319-.615-.055-1.343-.442-.253-.135-.449-.24-.686-.383s-.622-.282-.622-.449Zm3.52,1.02c0-.779-.17-.99-.884-1.413-.894-.53-2.026-1.338-2.9-.636a2.009,2.009,0,0,0-.685,1.393c-.023.882,1.016,1.3,1.8,1.744.6.337,1.338.712,1.914.248a2.124,2.124,0,0,0,.757-1.336Z" transform="translate(-436.744 -359.334)" fill="#fff5ef" fill-rule="evenodd"/>
    <path id="Trazado_129" data-name="Trazado 129" d="M273.021,508.924c-.754-.016-.189-1.148.357-1.277A3.518,3.518,0,0,1,273.021,508.924ZM272,506.578c.5.115.246.255,1.123.255a2.728,2.728,0,0,1,.305-.866c.5.134.3.777.013.981-.5.35-1.523-.063-1.844.911-.144.435-.338,1.076,0,1.413a1.467,1.467,0,0,0,.625.295c.335.058.4-.16.692-.184.105.449.157.258.8.481l.19.056c.383.024.334-.353.423-.658.075-.26.124-.453.191-.727.129-.522.24-.943.348-1.487.1-.512.3-.9-.2-1.353-.768-.7-2.667-.861-2.667.881Z" transform="translate(-240.112 -442.042)" fill="#fff5ef" fill-rule="evenodd"/>
    <path id="Trazado_130" data-name="Trazado 130" d="M334.484,111.176c-.255,0-.194-.1-.209-.354-.01-.225-.066-.243-.029-.442a.6.6,0,0,1,.492-.531c0,.319-.055.4-.052.712C334.69,110.835,334.757,111.176,334.484,111.176Zm-1.376-2.6c0,.461.2.613.866.613.291,0,.317-.381.345-.623.069-.587.471-.3.471-.141,0,.925-.2.7-1.124,1.171-1.045.538-.97,2.668.448,2.34.354-.082.286-.138.524-.3.112.214.13.3.456.308s.5.049.768.049a15.621,15.621,0,0,0,.153-3.317c0-1.114-.64-1.225-1.684-1.225a1.171,1.171,0,0,0-1.225,1.123Z" transform="translate(-292.801 -101.534)" fill="#fff5ef" fill-rule="evenodd"/>
    <path id="Trazado_131" data-name="Trazado 131" d="M364.465,509.41c0-.118.3-.577.5.37.059.279.1.481.144.776a4.8,4.8,0,0,1,.176,1.56h-.305c-.049-.2-.105-.391-.15-.616a15.8,15.8,0,0,1-.361-2.088Zm.2,3.52a2.149,2.149,0,0,0,1.37-.314,1.168,1.168,0,0,0,.518-.757,10.8,10.8,0,0,0-.345-2.257c-.191-.747-.518-1.213-1.387-1.213-.663,0-1.564.4-1.554,1.222a8.4,8.4,0,0,0,.036.908,5.091,5.091,0,0,0,.661,2.146,1.15,1.15,0,0,0,.7.265Z" transform="translate(-318.751 -444.774)" fill="#fff5ef" fill-rule="evenodd"/>
    <path id="Trazado_132" data-name="Trazado 132" d="M371.93,116.758c0,.39,1.033.511,1.479.511.6,0,.8-.492.963-.925l1.065-2.813c.294-.748.354-.956-.648-.956-.435,0-.322.5-.6,1.189l-.525,1.259c0-.888.2-1.665.2-2.6,0-.217-.347-.217-.557-.262-.3-.063-.475-.069-.557.22a15.145,15.145,0,0,0-.073,1.661l-.089,1.645c0,.34.032.547-.2.666s-.461.026-.461.407Z" transform="translate(-326.166 -105.535)" fill="#fff5ef" fill-rule="evenodd"/>
    <path id="Trazado_133" data-name="Trazado 133" d="M396.482,121.5c0,1.085,1.62,1.806.663,2.449-.75-.174.4-.792-.531-1.052-.705-.2-.672-.282-.822.57-.222,1.266,2.883,2.238,2.883.023a2.19,2.19,0,0,0-.8-1.494.565.565,0,0,1-.078-.766c.083-.112.209-.2.345-.066.158.157-.027.26-.027.437,0,.307.517.511.917.511.537,0,.574-1.888-1.58-1.888-.553,0-.969.692-.969,1.275Z" transform="translate(-346.584 -112.466)" fill="#fff5ef" fill-rule="evenodd"/>
    <path id="Trazado_134" data-name="Trazado 134" d="M432.464,141.867c0,.807-.613.767-.613.509,0-.445.475-.494.135-.8a1.049,1.049,0,0,0-.747-.376c-.305,0-.459.551-.459.969,0,.648,1.458,2,2.54.907.586-.6.469-1.1.114-1.774a1.859,1.859,0,0,1-.358-.866c0-.543.561-.531.561-.357,0,.574-.678.436.715,1.173.222-.332.675-.744.132-1.459a2.268,2.268,0,0,0-1.51-.784,1.385,1.385,0,0,0-.9,2.075A7.9,7.9,0,0,1,432.464,141.867Z" transform="translate(-376.546 -128.552)" fill="#fff5ef" fill-rule="evenodd"/>
    <path id="Trazado_135" data-name="Trazado 135" d="M247.755,501.546a1.586,1.586,0,0,0,1.53-1.225c-.312-.36-.848-.589-1.223,0-.081.125-.183.407-.358.407-.731,0,.82-2.752.826-2.755.128-.112.3-.072.3.1,0,.3-.153.417-.153.663,0,.1,1.225,1.2,1.225-.2a1.067,1.067,0,0,0-.5-1.085,1.613,1.613,0,0,0-1.9-.143,6.8,6.8,0,0,0-.974,1.986,1.748,1.748,0,0,0-.055,1.55,1.7,1.7,0,0,0,1.288.7Z" transform="translate(-218.621 -435.073)" fill="#fff5ef" fill-rule="evenodd"/>
    <path id="Trazado_136" data-name="Trazado 136" d="M174.471,173.166c0,.06.446.889.856.245.1-.158.137-.226.368-.245.233.486,1.006,2.166,1.194,2.428.761,1.046.927.317,1.42-.171.282-.281.973-.776.479-1.169-.594-.473-.531.265-1,.39a16.353,16.353,0,0,1-.969-1.941c-.145-.3-.6-.981-.927-1-.243-.019-.731.648-1,.917-.125.124-.422.351-.422.548Z" transform="translate(-157.122 -156.535)" fill="#fff5ef" fill-rule="evenodd"/>
    <path id="Trazado_137" data-name="Trazado 137" d="M457.37,456.429c0,.258.626.8,1.007,1.238l1.528,1.635c1.009,1.207.859,1.146,1.557.508.42-.384.566-.2-.381-1.225-.1-.106-.18-.177-.282-.281-.132-.132-.158-.2-.279-.332-.1-.107-.183-.171-.282-.281l-.815-.92c-1.284-1.336-1.058-1.471-1.658-.866-.121.121-.4.328-.4.522Z" transform="translate(-399.31 -399.547)" fill="#fff5ef" fill-rule="evenodd"/>
    <path id="Trazado_138" data-name="Trazado 138" d="M358.82,107.847a.722.722,0,0,0,.05.255l1.122.153c.2-.381.669-4.1.757-4.7.1-.708.127-.573-.547-.711-.649-.134-.7-.036-.763.42-.115.84-.619,4.084-.619,4.585Z" transform="translate(-314.942 -97.541)" fill="#fff5ef" fill-rule="evenodd"/>
    <path id="Trazado_139" data-name="Trazado 139" d="M298.181,508.026c0,.537.627.436.907.476.534.076.377.042.659-1.664a32.454,32.454,0,0,0,.475-3.454c0-.305-.97-.305-1.225-.305-.151.643-.263,1.759-.38,2.478l-.357,2.141a1.1,1.1,0,0,0-.081.328Z" transform="translate(-263.029 -440.228)" fill="#fff5ef" fill-rule="evenodd"/>
    <path id="Trazado_140" data-name="Trazado 140" d="M410.22,490.863c0,.255.148.17.13.443a2.823,2.823,0,0,0-.079.473c0,.23.239.209.383.282s.19.249.265.4c.3.609,1.038,2.533,1.445,2.533a1.527,1.527,0,0,0,.9-.17c.4-.18.7-.167.272-.8h-.409c-.216-.409-.406-.789-.6-1.239a6.3,6.3,0,0,1-.576-1.311c0-.081.153-.068.153-.407,0-.273-.344-.247-.484-.334-.173-.106-.114-.432-.384-.432s-1.02.327-1.02.561Z" transform="translate(-358.945 -429.287)" fill="#fff5ef" fill-rule="evenodd"/>
    <path id="Trazado_141" data-name="Trazado 141" d="M217.593,477.545a.6.6,0,0,0-.509.153c0,.917-.058.774-.705,1.746-.171.255-.315.484-.479.744-.567.9-.449,1.146.315,1.694.145.105.291.223.468.165.5-.161.2-.658.2-.676,0-.635,1.215-1.92,1.327-2.4l.406.06a1.408,1.408,0,0,0,.225-.347c.055-.216-.121-.233-.121-.427,0-.37.491-.419-.22-.851-.426-.259-.55-.531-.9.137Z" transform="translate(-192.286 -418.01)" fill="#fff5ef" fill-rule="evenodd"/>
    <path id="Trazado_142" data-name="Trazado 142" d="M519.708,352c-.286,0-.361.086-.413.505a1.721,1.721,0,0,0-.047.718.971.971,0,0,1,.525.188c.191.183.137.322.5.322.157,0,.22-.125.255-.255l2.15.4c.438.073,1.271.307,1.5-.319a6.2,6.2,0,0,0,.224-1c-.6-.4-.662.052-.849.121l-2.5-.4c-.364-.083-.193-.191-.364-.4-.281-.34-.59.073-.673.114-.235.114-.035,0-.305,0Z" transform="translate(-452.26 -310.681)" fill="#fff5ef" fill-rule="evenodd"/>
    <path id="Trazado_143" data-name="Trazado 143" d="M213.027,140.887l-.138-.168c-.229-.237-.314-.161-.761.137a1.9,1.9,0,0,0-.427.338,23.921,23.921,0,0,0,1.836,2.857,4.938,4.938,0,0,0,.4.567c.4.386,1.127-.455,1.127-.517,0-.255-.491-.859-.663-1.123a2.846,2.846,0,0,1-.612-1.225c0-.378.7-.21-.016-1.158-.186-.246-.291-.525-.445-.525-.315,0-.239.531-.305.816Z" transform="translate(-188.995 -129.459)" fill="#fff5ef" fill-rule="evenodd"/>
    <path id="Trazado_144" data-name="Trazado 144" d="M184.05,463.035a3.536,3.536,0,0,0,.5.525c.54.532.741-.055,1.353-.717l.534-.537c.521-.633.581-.34.941-.194.294.119.41-.148.568-.337.01-.012.994-.832.19-.832-.256,0-.229.046-.459.05.094-.406.4-.361-.242-.83a3.408,3.408,0,0,0-.473-.344,1.1,1.1,0,0,0-.416.351l-2.173,2.418c-.16.157-.263.207-.318.446Z" transform="translate(-165.324 -403.194)" fill="#fff5ef" fill-rule="evenodd"/>
    <path id="Trazado_145" data-name="Trazado 145" d="M426.837,484.4h-.1c-.055-.24-.092-.19-.2-.357a1.961,1.961,0,0,0-1.072.613,24.868,24.868,0,0,0,2.193,3.673c.18,0,.969-.325.969-.561a1.206,1.206,0,0,0-.245-.622c-1.587-2.6-.521-1.721-.521-2.388a3.051,3.051,0,0,0-.712-1.174.989.989,0,0,0-.307.816Z" transform="translate(-371.992 -423.534)" fill="#fff5ef" fill-rule="evenodd"/>
    <path id="Trazado_146" data-name="Trazado 146" d="M416.6,132.859c0,.294.091.276.425.44.862.426.6.466,1.9-2.141.445-.887.943-1.468.281-1.777-.943-.439-.7-.45-1.692,1.538A15.671,15.671,0,0,0,416.6,132.859Z" transform="translate(-364.407 -120.104)" fill="#fff5ef" fill-rule="evenodd"/>
    <path id="Trazado_147" data-name="Trazado 147" d="M229.07,492.269c0,.285.823.656,1.072.714a4.449,4.449,0,0,0,.563-.917l1.445-2.785c.036-.3-.242-.338-.461-.448-.911-.456-.537-.363-1.646,1.548l-.973,1.885Z" transform="translate(-203.865 -427.836)" fill="#fff5ef" fill-rule="evenodd"/>
    <path id="Trazado_148" data-name="Trazado 148" d="M200.01,475.376c0,.167.809.849,1.072.718.105-.053,1.819-2.382,2.1-2.752.463-.616.512-.63-.1-1.087-.173-.128-.425-.33-.63-.158l-.407.517c-.177.216-2.032,2.67-2.032,2.763Z" transform="translate(-178.987 -413.647)" fill="#fff5ef" fill-rule="evenodd"/>
    <path id="Trazado_149" data-name="Trazado 149" d="M510.531,394.242a3.122,3.122,0,0,0,.911.466l2,.861a6.742,6.742,0,0,0,1.022.407l.305-.511a1.841,1.841,0,0,0,.255-.612.8.8,0,0,0-.4-.263l-1.479-.612a11.845,11.845,0,0,0-2.048-.809c-.223,0-.512.859-.561,1.072Z" transform="translate(-444.819 -346.135)" fill="#fff5ef" fill-rule="evenodd"/>
    <path id="Trazado_150" data-name="Trazado 150" d="M258.85,125.859a1.089,1.089,0,0,0,.579,1,1.071,1.071,0,1,0-.579-1Z" transform="translate(-229.359 -116.421)" fill="#fff5ef" fill-rule="evenodd"/>
    <path id="Trazado_151" data-name="Trazado 151" d="M315.21,517.7a1.025,1.025,0,0,0,1.02,1.1,1.046,1.046,0,1,0,.039-2.092A1,1,0,0,0,315.21,517.7Z" transform="translate(-277.608 -451.895)" fill="#fff5ef" fill-rule="evenodd"/>
    <path id="Trazado_152" data-name="Trazado 152" d="M478.48,454.831a1.046,1.046,0,1,0,0-2.091A1.046,1.046,0,0,0,478.48,454.831Z" transform="translate(-416.542 -397.132)" fill="#fff5ef" fill-rule="evenodd"/>
    <path id="Trazado_153" data-name="Trazado 153" d="M504.16,391.409c.587.675.686.1.846-.276.131-.308.22-.436.073-.744-.648-.151-.466.006-.809.722a1.114,1.114,0,0,0-.109.3Z" transform="translate(-439.366 -343.709)" fill="#fff5ef" fill-rule="evenodd"/>
    <path id="Trazado_154" data-name="Trazado 154" d="M431.13,123.636c0,.081,1.1.933,1.321.294,0-.012.019-.1.019-.106.013-.272-.166-.263-.489-.425C431.637,123.225,431.13,122.955,431.13,123.636Z" transform="translate(-376.846 -115.014)" fill="#fff5ef" fill-rule="evenodd"/>
    <path id="Trazado_155" data-name="Trazado 155" d="M220.21,466.925c0,.137.249.337.344.422s.128.094.227.181c.367.325.486.167.7-.245-.086-.132-.676-.714-1.02-.714-.145,0-.255.248-.255.357Z" transform="translate(-196.28 -408.972)" fill="#fff5ef" fill-rule="evenodd"/>
    <path id="Trazado_156" data-name="Trazado 156" d="M244.67,483.341c0,.214,1.275,1.066,1.275.256,0-.252-.4-.426-.617-.505C245.03,482.982,244.67,482.9,244.67,483.341Z" transform="translate(-217.22 -423.042)" fill="#fff5ef" fill-rule="evenodd"/>
  </g>
</svg>
