<?xml version="1.0" encoding="UTF-8"?>
<!DOCTYPE svg PUBLIC "-//W3C//DTD SVG 1.1//EN" "http://www.w3.org/Graphics/SVG/1.1/DTD/svg11.dtd">
<!-- Creator: CorelDRAW -->
<svg xmlns="http://www.w3.org/2000/svg" xml:space="preserve" width="3.0905mm" height="3.0906mm" version="1.1" style="shape-rendering:geometricPrecision; text-rendering:geometricPrecision; image-rendering:optimizeQuality; fill-rule:evenodd; clip-rule:evenodd"
viewBox="0 0 6.73 6.73"
 xmlns:xlink="http://www.w3.org/1999/xlink"
 xmlns:xodm="http://www.corel.com/coreldraw/odm/2003">
 <defs>
  <style type="text/css">
   <![CDATA[
    .fil0 {fill:#A37535;fill-rule:nonzero}
   ]]>
  </style>
 </defs>
 <g id="Capa_x0020_1">
  <metadata id="CorelCorpID_0Corel-Layer"/>
  <path class="fil0" d="M6.56 5.78c-0.14,0.36 -0.42,0.64 -0.78,0.78 -0.54,0.21 -1.82,0.17 -2.42,0.17 -0.6,0 -1.88,0.05 -2.42,-0.17 -0.36,-0.14 -0.63,-0.42 -0.78,-0.78 -0.21,-0.54 -0.17,-1.82 -0.17,-2.42 0,-0.6 -0.05,-1.88 0.17,-2.42 0.14,-0.36 0.42,-0.63 0.78,-0.78 0.54,-0.22 1.82,-0.17 2.42,-0.17 0.6,0 1.88,-0.05 2.42,0.17 0.36,0.14 0.64,0.42 0.78,0.78 0.22,0.54 0.17,1.82 0.17,2.42 0,0.6 0.05,1.88 -0.17,2.42zm-3.19 -4.52c-1.16,0 -2.1,0.94 -2.1,2.1 0,1.16 0.94,2.1 2.1,2.1 1.16,0 2.1,-0.94 2.1,-2.1 0,-1.16 -0.94,-2.1 -2.1,-2.1zm0 3.47c-0.75,0 -1.37,-0.61 -1.37,-1.37 0,-0.75 0.61,-1.37 1.37,-1.37 0.75,0 1.37,0.61 1.37,1.37 0,0.75 -0.61,1.37 -1.37,1.37zm2.19 -4.04c-0.27,0 -0.49,0.22 -0.49,0.49 0,0.27 0.22,0.49 0.49,0.49 0.27,0 0.49,-0.22 0.49,-0.49 0,-0.27 -0.22,-0.49 -0.49,-0.49z"/>
 </g>
</svg>
