<?xml version="1.0" encoding="UTF-8"?>
<!DOCTYPE svg PUBLIC "-//W3C//DTD SVG 1.1//EN" "http://www.w3.org/Graphics/SVG/1.1/DTD/svg11.dtd">
<!-- Creator: CorelDRAW -->
<svg xmlns="http://www.w3.org/2000/svg" xml:space="preserve" width="3.0906mm" height="3.0906mm" version="1.1" style="shape-rendering:geometricPrecision; text-rendering:geometricPrecision; image-rendering:optimizeQuality; fill-rule:evenodd; clip-rule:evenodd"
viewBox="0 0 7.39 7.39"
 xmlns:xlink="http://www.w3.org/1999/xlink"
 xmlns:xodm="http://www.corel.com/coreldraw/odm/2003">
 <defs>
  <style type="text/css">
   <![CDATA[
    .fil0 {fill:#A37535;fill-rule:nonzero}
   ]]>
  </style>
 </defs>
 <g id="Capa_x0020_1">
  <metadata id="CorelCorpID_0Corel-Layer"/>
  <path class="fil0" d="M6.86 0l-6.34 0c-0.29,0 -0.53,0.24 -0.53,0.53l0 6.33c0,0.29 0.24,0.53 0.53,0.53l6.34 0c0.29,0 0.53,-0.24 0.53,-0.53l0 -6.33c0,-0.29 -0.24,-0.53 -0.53,-0.53zm-4.63 6.34l-1.1 0 0 -3.53 1.1 0 0 3.53 -0 0zm-0.55 -4.01c-0.35,0 -0.64,-0.28 -0.64,-0.63 0,-0.35 0.28,-0.64 0.64,-0.64 0.35,0 0.64,0.29 0.64,0.64 0,0.35 -0.28,0.63 -0.64,0.63l0 0zm4.66 4.01l-1.1 0 0 -1.72c0,-0.41 -0.01,-0.94 -0.57,-0.94 -0.57,0 -0.66,0.44 -0.66,0.91l0 1.75 -1.1 0 0 -3.53 1.05 0 0 0.48 0.01 0c0.15,-0.28 0.51,-0.57 1.04,-0.57 1.11,0 1.32,0.73 1.32,1.68l0 1.93z"/>
 </g>
</svg>
