<svg xmlns="http://www.w3.org/2000/svg" width="36.931" height="36.93" viewBox="0 0 36.931 36.93">
  <path id="Trazado_302" data-name="Trazado 302" d="M35.959,31.691a7.452,7.452,0,0,1-4.268,4.268c-2.955,1.149-9.958.93-13.241.93s-10.286.274-13.241-.93A7.61,7.61,0,0,1,.942,31.691C-.207,28.736.012,21.733.012,18.45S-.262,8.164.942,5.21A7.61,7.61,0,0,1,5.21.942c2.955-1.2,9.958-.93,13.241-.93s10.286-.274,13.241.93A7.452,7.452,0,0,1,35.959,5.21c1.2,2.955.93,9.958.93,13.241s.274,10.286-.93,13.241ZM18.505,6.96A11.49,11.49,0,1,0,30,18.45,11.488,11.488,0,0,0,18.505,6.96Zm0,18.985a7.5,7.5,0,1,1,7.5-7.5A7.507,7.507,0,0,1,18.505,25.946Zm11.982-22.1a2.681,2.681,0,1,0,2.681,2.681,2.685,2.685,0,0,0-2.681-2.681Z" transform="translate(0.015 0.015)" fill="#a37535"/>
</svg>
