<?xml version="1.0" encoding="UTF-8"?>
<!DOCTYPE svg PUBLIC "-//W3C//DTD SVG 1.1//EN" "http://www.w3.org/Graphics/SVG/1.1/DTD/svg11.dtd">
<!-- Creator: CorelDRAW -->
<svg xmlns="http://www.w3.org/2000/svg" xml:space="preserve" width="3.8047mm" height="3.0906mm" version="1.1" style="shape-rendering:geometricPrecision; text-rendering:geometricPrecision; image-rendering:optimizeQuality; fill-rule:evenodd; clip-rule:evenodd"
viewBox="0 0 12.43 10.1"
 xmlns:xlink="http://www.w3.org/1999/xlink"
 xmlns:xodm="http://www.corel.com/coreldraw/odm/2003">
 <defs>
  <style type="text/css">
   <![CDATA[
    .fil0 {fill:#A37535;fill-rule:nonzero}
   ]]>
  </style>
 </defs>
 <g id="Capa_x0020_1">
  <metadata id="CorelCorpID_0Corel-Layer"/>
  <path class="fil0" d="M11.15 2.52c0.01,0.11 0.01,0.22 0.01,0.33 0,3.37 -2.56,7.25 -7.25,7.25 -1.44,0 -2.78,-0.42 -3.91,-1.14 0.21,0.02 0.4,0.03 0.62,0.03 1.19,0 2.29,-0.4 3.16,-1.09 -1.12,-0.02 -2.06,-0.76 -2.38,-1.76 0.16,0.02 0.31,0.04 0.48,0.04 0.23,0 0.46,-0.03 0.67,-0.09 -1.17,-0.24 -2.04,-1.26 -2.04,-2.5l0 -0.03c0.34,0.19 0.73,0.31 1.15,0.32 -0.69,-0.46 -1.14,-1.24 -1.14,-2.12 0,-0.47 0.13,-0.91 0.35,-1.29 1.25,1.55 3.14,2.56 5.25,2.67 -0.04,-0.19 -0.06,-0.39 -0.06,-0.58 0,-1.4 1.14,-2.55 2.55,-2.55 0.73,0 1.39,0.31 1.86,0.81 0.58,-0.11 1.13,-0.32 1.62,-0.62 -0.19,0.59 -0.59,1.09 -1.12,1.4 0.51,-0.05 1.01,-0.2 1.47,-0.39 -0.35,0.51 -0.78,0.95 -1.28,1.32l0 0z"/>
 </g>
</svg>
