<?xml version="1.0" encoding="UTF-8"?>
<!DOCTYPE svg PUBLIC "-//W3C//DTD SVG 1.1//EN" "http://www.w3.org/Graphics/SVG/1.1/DTD/svg11.dtd">
<!-- Creator: CorelDRAW -->
<svg xmlns="http://www.w3.org/2000/svg" xml:space="preserve" width="3.0905mm" height="3.0906mm" version="1.1" style="shape-rendering:geometricPrecision; text-rendering:geometricPrecision; image-rendering:optimizeQuality; fill-rule:evenodd; clip-rule:evenodd"
viewBox="0 0 9.34 9.34"
 xmlns:xlink="http://www.w3.org/1999/xlink"
 xmlns:xodm="http://www.corel.com/coreldraw/odm/2003">
 <defs>
  <style type="text/css">
   <![CDATA[
    .fil0 {fill:#A37535;fill-rule:nonzero}
   ]]>
  </style>
 </defs>
 <g id="Capa_x0020_1">
  <metadata id="CorelCorpID_0Corel-Layer"/>
  <path class="fil0" d="M7.94 1.36c-0.87,-0.87 -2.04,-1.36 -3.27,-1.36 -2.55,0 -4.63,2.08 -4.63,4.63 0,0.81 0.21,1.61 0.62,2.31l-0.66 2.4 2.45 -0.64c0.68,0.37 1.44,0.56 2.21,0.56l0 0c2.55,0 4.67,-2.08 4.67,-4.63 0,-1.24 -0.52,-2.4 -1.4,-3.27l0 0zm-3.27 7.12c-0.69,0 -1.37,-0.19 -1.96,-0.54l-0.14 -0.08 -1.45 0.38 0.39 -1.42 -0.09 -0.15c-0.39,-0.61 -0.59,-1.32 -0.59,-2.04 0,-2.12 1.73,-3.85 3.85,-3.85 1.03,0 1.99,0.4 2.72,1.13 0.73,0.73 1.17,1.69 1.17,2.72 0,2.12 -1.77,3.85 -3.89,3.85zm2.11 -2.88c-0.12,-0.06 -0.68,-0.34 -0.79,-0.37 -0.11,-0.04 -0.18,-0.06 -0.26,0.06 -0.08,0.12 -0.3,0.38 -0.37,0.46 -0.07,0.08 -0.14,0.09 -0.25,0.03 -0.68,-0.34 -1.13,-0.61 -1.57,-1.37 -0.12,-0.2 0.12,-0.19 0.34,-0.63 0.04,-0.08 0.02,-0.14 -0.01,-0.2 -0.03,-0.06 -0.26,-0.63 -0.36,-0.86 -0.09,-0.22 -0.19,-0.19 -0.26,-0.2 -0.07,-0 -0.14,-0 -0.22,-0 -0.08,0 -0.2,0.03 -0.31,0.14 -0.11,0.12 -0.4,0.4 -0.4,0.97 0,0.57 0.41,1.12 0.47,1.2 0.06,0.08 0.81,1.24 1.98,1.75 0.73,0.32 1.02,0.34 1.39,0.29 0.22,-0.03 0.68,-0.28 0.78,-0.55 0.1,-0.27 0.1,-0.5 0.07,-0.55 -0.03,-0.05 -0.1,-0.08 -0.22,-0.14z"/>
 </g>
</svg>
