<?xml version="1.0" encoding="UTF-8"?>
<!DOCTYPE svg PUBLIC "-//W3C//DTD SVG 1.1//EN" "http://www.w3.org/Graphics/SVG/1.1/DTD/svg11.dtd">
<!-- Creator: CorelDRAW -->
<svg xmlns="http://www.w3.org/2000/svg" xml:space="preserve" width="16.7871mm" height="16.7871mm" version="1.1" style="shape-rendering:geometricPrecision; text-rendering:geometricPrecision; image-rendering:optimizeQuality; fill-rule:evenodd; clip-rule:evenodd"
viewBox="0 0 39.4 39.4"
 xmlns:xlink="http://www.w3.org/1999/xlink"
 xmlns:xodm="http://www.corel.com/coreldraw/odm/2003">
 <defs>
  <style type="text/css">
   <![CDATA[
    .fil0 {fill:none}
    .fil2 {fill:#373435}
    .fil1 {fill:#373435;fill-rule:nonzero}
   ]]>
  </style>
 </defs>
 <g id="Capa_x0020_1">
  <metadata id="CorelCorpID_0Corel-Layer"/>
  <g id="_2489479941392">
   <circle class="fil0" cx="19.7" cy="19.7" r="19.7"/>
   <g>
    <path class="fil1" d="M21.04 23.03c0,1.29 -1.45,2.07 -3.24,2.07 -1.78,0 -3.24,-0.77 -3.24,-2.07 0,-1.27 1.46,-2.09 3.24,-2.09 1.78,0 3.24,0.82 3.24,2.09zm-4.33 0.02c0,0.46 0.45,0.77 1.09,0.77 0.64,0 1.09,-0.31 1.09,-0.77 0,-0.43 -0.42,-0.78 -1.09,-0.78 -0.67,0 -1.09,0.36 -1.09,0.78zm6.77 -2.04l-2.18 0 0 4.03 2.17 0 0 -2.05 1.92 2.05 2.17 0 0 -4.03 -2.17 0 0 2.09 -1.92 -2.09zm4.45 -0l3.36 0c3.05,0 5.38,0.59 5.38,2.07 0,1.2 -1.9,1.95 -4.56,1.95l-4.18 0 0 -4.03 0 0zm3.3 2.82l0.2 0c1.1,0 1.94,-0.22 1.94,-0.75 0,-0.57 -0.73,-0.81 -1.94,-0.81l-0.2 0 0 1.56 0 0zm4.73 -2.77c-0,-0.14 0.06,-0.28 0.16,-0.38 0.1,-0.1 0.24,-0.16 0.38,-0.16 0.14,-0 0.28,0.05 0.38,0.15 0.1,0.1 0.16,0.24 0.16,0.38 0,0.14 -0.06,0.28 -0.16,0.38 -0.1,0.1 -0.24,0.16 -0.38,0.15 -0.14,0 -0.28,-0.05 -0.38,-0.15 -0.1,-0.1 -0.16,-0.24 -0.16,-0.38zm1 0c0,-0.25 -0.21,-0.45 -0.46,-0.45 -0.25,0 -0.46,0.2 -0.46,0.45 0,0.25 0.21,0.45 0.46,0.45 0.25,0 0.46,-0.2 0.46,-0.45zm-0.2 0.29l-0.1 0 -0.18 -0.27 -0.1 0 0 0.27 -0.08 0 0 -0.59 0.26 0c0.11,0 0.21,0.03 0.21,0.16 0,0.12 -0.08,0.16 -0.19,0.16l0.18 0.27zm-0.28 -0.35c0.07,0 0.2,0.01 0.2,-0.08 0,-0.06 -0.08,-0.07 -0.14,-0.07l-0.16 0 0 0.15 0.1 0 -0 0z"/>
    <path class="fil1" d="M24.66 19.86l-0.67 0 0 -4.72 -1.27 0 0 -0.61 3.2 0 0 0.61 -1.27 0 0 4.72zm4.84 -3.18l0 -2.15 0.67 0 0 5.33 -0.67 0 0 -2.56 -2.54 0 0 2.56 -0.67 0 0 -5.33 0.67 0 0 2.15 2.54 0zm5.64 2.46c-0.4,0.47 -0.97,0.83 -1.6,0.83 -0.89,0 -1.64,-0.65 -1.64,-1.57 0,-0.68 0.43,-1.05 0.94,-1.41l0.33 -0.24c-0.3,-0.32 -0.59,-0.71 -0.59,-1.17 0,-0.74 0.53,-1.17 1.23,-1.17 0.65,0 1.23,0.41 1.23,1.11 0,0.6 -0.52,1 -0.97,1.33l1.11 1.34 0.62 -0.72 0.42 0.44 -0.65 0.76 0.96 1.18 -0.82 0 -0.58 -0.72zm-1.64 -1.87c-0.37,0.25 -0.97,0.61 -0.97,1.12 0,0.51 0.48,0.98 0.99,0.98 0.5,0 0.89,-0.37 1.23,-0.71l-1.18 -1.44 -0.06 0.04 -0 0zm0.29 -0.93c0.27,-0.21 0.64,-0.43 0.64,-0.82 0,-0.37 -0.27,-0.58 -0.62,-0.58 -0.32,0 -0.6,0.23 -0.6,0.57 0,0.27 0.16,0.47 0.32,0.66l0.18 0.23 0.09 -0.06zm-31.43 4.67l1.88 0c0.86,0 1.74,0.19 1.74,1.12 0,0.35 -0.19,0.7 -0.58,0.81l0 0.03c0.48,0.15 0.79,0.47 0.79,0.96 0,0.83 -0.85,1.11 -1.62,1.11l-2.19 0 0 -4.03zm1.64 1.55c0.24,0 0.5,-0.02 0.5,-0.3 0,-0.3 -0.3,-0.28 -0.54,-0.28l-0.11 0 0 0.58 0.15 0zm-0.15 1.52l0.18 0c0.26,0 0.65,-0.01 0.65,-0.34 0,-0.34 -0.41,-0.33 -0.67,-0.33l-0.16 0 0 0.67zm2.58 -3.06l3.26 0 0 1.1 -1.48 0 0 0.38 1.35 0 0 1.05 -1.35 0 0 0.39 1.53 0 0 1.1 -3.31 0 0 -4.03zm5.54 0l0.61 1.05 0.06 0c0.06,-0.13 0.11,-0.26 0.18,-0.38l0.39 -0.67 2.22 0 -1.86 2.29 0 1.74 -1.94 0 0 -1.74 -1.9 -2.29 2.24 0z"/>
    <path class="fil2" d="M20.93 15.76l-0.95 2.16 1.9 0 -0.95 -2.16zm-1.23 2.76l-0.61 1.34 -0.72 0 2.55 -5.56 2.55 5.56 -0.72 0 -0.61 -1.34 -2.45 0 0 0z"/>
    <path class="fil1" d="M5.85 14.53l2.87 0 0 0.61 -2.2 0 0 1.49 2.14 0 0 0.61 -2.14 0 0 2.01 2.2 0 0 0.61 -2.87 0 0 -5.33zm3.49 0l1.11 0c1.64,0 3,0.86 3,2.64 0,1.82 -1.33,2.69 -3.02,2.69l-1.08 0 0 -5.33 0 0zm0.67 4.72l0.23 0c1.36,0 2.54,-0.51 2.54,-2.06 0,-1.56 -1.18,-2.06 -2.54,-2.06l-0.23 0 0 4.11zm5.31 -4.72l0.65 0c1.01,0 1.96,0.26 1.96,1.46 0,0.39 -0.21,0.84 -0.57,1.01l0 0.01c0.63,0.11 1.07,0.73 1.07,1.35 0,1.07 -0.91,1.49 -1.86,1.49l-1.25 0 0 -5.33zm0.67 2.36l0.17 0c0.63,0 1.15,-0.13 1.15,-0.89 0,-0.75 -0.51,-0.88 -1.13,-0.88l-0.18 0 0 1.77zm0 2.37l0.51 0c0.62,0 1.26,-0.18 1.26,-0.94 0,-0.75 -0.76,-0.91 -1.36,-0.91l-0.41 0 0 1.84z"/>
    <path class="fil2" d="M3.02 16.89l0.17 0c0.63,0 1.15,-0.13 1.15,-0.89 0,-0.75 -0.51,-0.88 -1.13,-0.88l-0.18 0 0 1.77zm0 2.38l0.51 0c0.62,0 1.26,-0.18 1.26,-0.94 0,-0.75 -0.77,-0.91 -1.36,-0.91l-0.41 0 0 1.85zm-0.67 -4.74l0.65 0c1.01,0 1.96,0.26 1.96,1.46 0,0.39 -0.21,0.84 -0.57,1.01 0.63,0.13 1.07,0.74 1.07,1.36 0,1.07 -0.91,1.49 -1.86,1.49l-1.25 0 0 -5.33z"/>
   </g>
  </g>
 </g>
</svg>
