<?xml version="1.0" encoding="UTF-8"?>
<!DOCTYPE svg PUBLIC "-//W3C//DTD SVG 1.1//EN" "http://www.w3.org/Graphics/SVG/1.1/DTD/svg11.dtd">
<!-- Creator: CorelDRAW -->
<svg xmlns="http://www.w3.org/2000/svg" xml:space="preserve" width="16.7871mm" height="16.7871mm" version="1.1" style="shape-rendering:geometricPrecision; text-rendering:geometricPrecision; image-rendering:optimizeQuality; fill-rule:evenodd; clip-rule:evenodd"
viewBox="0 0 36.9 36.9"
 xmlns:xlink="http://www.w3.org/1999/xlink"
 xmlns:xodm="http://www.corel.com/coreldraw/odm/2003">
 <defs>
  <style type="text/css">
   <![CDATA[
    .fil0 {fill:none}
    .fil2 {fill:#FEFEFE}
    .fil3 {fill:#373435}
    .fil1 {fill:#ED3237}
   ]]>
  </style>
 </defs>
 <g id="Capa_x0020_1">
  <metadata id="CorelCorpID_0Corel-Layer"/>
  <g id="_2503497145504">
   <circle class="fil0" cx="18.45" cy="18.45" r="18.45"/>
   <g id="City_Club.cdr">
    <polygon class="fil1" points="4.88,14.82 21.61,4.26 26.6,12.17 9.87,22.73 "/>
    <path class="fil2" d="M12.39 15.44l-1.67 1.05 -0.7 -1.12c-0.2,-0.32 -0.35,-0.51 -0.44,-0.57 -0.09,-0.06 -0.19,-0.05 -0.31,0.03 -0.14,0.09 -0.19,0.19 -0.17,0.31 0.03,0.12 0.14,0.34 0.34,0.67l1.88 2.98c0.2,0.31 0.34,0.5 0.44,0.57 0.1,0.07 0.21,0.07 0.34,-0.01 0.12,-0.08 0.18,-0.18 0.15,-0.3 -0.02,-0.12 -0.14,-0.35 -0.36,-0.71l-0.51 -0.8 1.67 -1.05 0.16 0.25c0.42,0.66 0.67,1.16 0.75,1.5 0.08,0.34 0.03,0.71 -0.16,1.12 -0.19,0.41 -0.52,0.77 -0.99,1.06 -0.49,0.31 -0.95,0.47 -1.38,0.5 -0.43,0.02 -0.79,-0.09 -1.09,-0.34 -0.3,-0.25 -0.65,-0.69 -1.04,-1.31l-1.18 -1.87c-0.29,-0.46 -0.49,-0.82 -0.61,-1.07 -0.11,-0.25 -0.16,-0.53 -0.14,-0.85 0.02,-0.31 0.13,-0.62 0.33,-0.92 0.2,-0.3 0.48,-0.56 0.84,-0.79 0.49,-0.31 0.96,-0.47 1.4,-0.48 0.44,-0.01 0.8,0.09 1.08,0.31 0.28,0.22 0.61,0.63 0.99,1.23l0.38 0.61z"/>
    <polygon class="fil2" points="12.93,11.2 16.97,17.6 15.3,18.66 11.26,12.25 "/>
    <polygon class="fil2" points="16.91,8.68 17.72,9.96 16.73,10.59 19.97,15.71 18.3,16.76 15.07,11.64 14.08,12.26 13.27,10.98 "/>
    <path class="fil2" d="M21.14 6.01l1.37 4.85 1.46 2.32 -1.54 0.97 -1.46 -2.32 -3.75 -3.35 1.53 -0.97c1.03,1.1 1.69,1.85 1.99,2.27 -0.34,-0.74 -0.71,-1.68 -1.13,-2.81l1.53 -0.97z"/>
    <g>
     <path class="fil3" d="M16.29 23.44l-1.67 1.05 -0.7 -1.12c-0.2,-0.32 -0.35,-0.51 -0.44,-0.57 -0.09,-0.06 -0.19,-0.05 -0.31,0.03 -0.14,0.09 -0.19,0.19 -0.17,0.31 0.03,0.12 0.14,0.34 0.34,0.67l1.88 2.98c0.2,0.31 0.34,0.5 0.44,0.57 0.1,0.07 0.21,0.07 0.34,-0.01 0.12,-0.08 0.18,-0.18 0.15,-0.3 -0.02,-0.12 -0.14,-0.35 -0.36,-0.71l-0.51 -0.8 1.67 -1.05 0.16 0.25c0.42,0.66 0.67,1.16 0.75,1.5 0.08,0.34 0.03,0.71 -0.16,1.12 -0.19,0.41 -0.52,0.77 -0.99,1.06 -0.49,0.31 -0.95,0.47 -1.38,0.5 -0.43,0.02 -0.79,-0.09 -1.09,-0.34 -0.3,-0.25 -0.65,-0.69 -1.04,-1.31l-1.18 -1.87c-0.29,-0.46 -0.49,-0.82 -0.61,-1.07 -0.11,-0.25 -0.16,-0.53 -0.14,-0.85 0.02,-0.31 0.13,-0.62 0.33,-0.92 0.2,-0.3 0.48,-0.56 0.84,-0.79 0.49,-0.31 0.96,-0.47 1.4,-0.48 0.44,-0.01 0.8,0.09 1.08,0.31 0.28,0.22 0.61,0.63 0.99,1.23l0.38 0.61z"/>
     <polygon class="fil3" points="16.88,19.16 20.11,24.28 21.13,23.64 21.94,24.92 19.26,26.61 15.21,20.21 "/>
     <path class="fil3" d="M22.37 15.69l2.7 4.28c0.31,0.48 0.51,0.84 0.6,1.05 0.09,0.22 0.13,0.48 0.1,0.78 -0.03,0.31 -0.13,0.59 -0.32,0.86 -0.19,0.27 -0.45,0.51 -0.8,0.73 -0.38,0.24 -0.76,0.39 -1.13,0.45 -0.37,0.06 -0.7,0.03 -0.97,-0.08 -0.27,-0.11 -0.49,-0.27 -0.66,-0.48 -0.17,-0.21 -0.48,-0.67 -0.94,-1.4l-2.39 -3.79 1.67 -1.05 3.03 4.8c0.18,0.28 0.3,0.45 0.38,0.51 0.08,0.06 0.16,0.06 0.26,0 0.11,-0.07 0.15,-0.15 0.12,-0.26 -0.02,-0.11 -0.14,-0.32 -0.34,-0.64l-2.98 -4.72 1.67 -1.05z"/>
     <path class="fil3" d="M23.06 15.26l1.66 -1.05c0.52,-0.33 0.95,-0.54 1.27,-0.63 0.32,-0.09 0.64,-0.06 0.97,0.08 0.32,0.15 0.66,0.49 1.01,1.05 0.24,0.38 0.34,0.67 0.32,0.89 -0.02,0.22 -0.18,0.48 -0.48,0.78 0.44,-0.15 0.79,-0.18 1.06,-0.06 0.26,0.12 0.53,0.38 0.79,0.8l0.38 0.59c0.27,0.43 0.43,0.78 0.46,1.06 0.03,0.27 -0.04,0.51 -0.2,0.73 -0.17,0.21 -0.59,0.53 -1.26,0.95l-1.93 1.22 -4.04 -6.41zm2.36 0.04l0.9 1.42c0.07,-0.05 0.12,-0.08 0.16,-0.11 0.16,-0.1 0.24,-0.21 0.24,-0.32 -0.01,-0.11 -0.13,-0.35 -0.37,-0.73 -0.13,-0.2 -0.23,-0.33 -0.32,-0.39 -0.09,-0.06 -0.17,-0.08 -0.24,-0.06 -0.07,0.02 -0.2,0.08 -0.37,0.18zm1.53 2.42l1.13 1.79c0.23,-0.15 0.36,-0.29 0.38,-0.39 0.02,-0.11 -0.05,-0.29 -0.21,-0.55l-0.38 -0.6c-0.17,-0.27 -0.31,-0.42 -0.4,-0.44 -0.09,-0.02 -0.27,0.04 -0.52,0.19z"/>
    </g>
    <polygon class="fil1" points="14.53,30.13 31.28,19.56 32.86,22.07 16.11,32.64 "/>
    <path class="fil2" d="M16.8 29.28l1.06 1.67 -0.44 0.27 -0.44 -0.7 -0.13 0.08 0.44 0.7 -0.44 0.27 -1.06 -1.67 0.44 -0.27 0.38 0.6 0.13 -0.08 -0.38 -0.6 0.43 -0.27zm1.79 0.24c0.11,0.17 0.18,0.29 0.21,0.36 0.04,0.08 0.05,0.15 0.05,0.24 -0.01,0.08 -0.03,0.16 -0.08,0.24 -0.05,0.08 -0.12,0.14 -0.22,0.2 -0.09,0.06 -0.18,0.09 -0.27,0.11 -0.09,0.02 -0.17,0.01 -0.26,-0.02 -0.08,-0.03 -0.15,-0.08 -0.2,-0.14 -0.05,-0.06 -0.13,-0.18 -0.24,-0.35l-0.18 -0.29c-0.11,-0.17 -0.18,-0.29 -0.21,-0.37 -0.04,-0.07 -0.05,-0.15 -0.05,-0.24 0.01,-0.08 0.03,-0.16 0.09,-0.24 0.05,-0.08 0.12,-0.14 0.22,-0.2 0.09,-0.06 0.18,-0.09 0.27,-0.11 0.09,-0.02 0.17,-0.01 0.26,0.02 0.08,0.03 0.15,0.08 0.2,0.14 0.05,0.06 0.13,0.18 0.24,0.35l0.18 0.29zm-0.78 -0.28c-0.05,-0.08 -0.08,-0.13 -0.11,-0.14 -0.02,-0.02 -0.05,-0.02 -0.07,0 -0.02,0.01 -0.03,0.03 -0.04,0.06 -0,0.03 0.03,0.08 0.08,0.17l0.49 0.78c0.06,0.1 0.1,0.15 0.13,0.17 0.02,0.02 0.05,0.02 0.08,-0 0.03,-0.02 0.04,-0.04 0.03,-0.07 -0.01,-0.03 -0.04,-0.1 -0.11,-0.2l-0.49 -0.77zm1.67 -1.65l1.06 1.67 -0.38 0.24 -0.71 -1.13 0.56 1.23 -0.27 0.17 -0.86 -1 0.7 1.1 -0.38 0.24 -1.06 -1.67 0.56 -0.36c0.08,0.09 0.17,0.2 0.28,0.32l0.33 0.39 -0.39 -0.84 0.57 -0.36zm0.17 -0.11l0.73 -0.46 0.21 0.33 -0.29 0.18 0.2 0.32 0.27 -0.17 0.2 0.32 -0.27 0.17 0.23 0.37 0.32 -0.2 0.21 0.33 -0.75 0.48 -1.06 -1.67zm3.01 -0.45l0.18 0.28 -0.07 0.15 0.32 0.19 -0.39 0.24 -0.11 -0.06c-0.08,0.17 -0.17,0.29 -0.29,0.36 -0.12,0.08 -0.24,0.09 -0.36,0.06 -0.12,-0.04 -0.21,-0.12 -0.28,-0.23 -0.06,-0.09 -0.08,-0.17 -0.08,-0.25 0.01,-0.08 0.04,-0.15 0.09,-0.24 -0.16,-0.01 -0.28,-0.08 -0.37,-0.22 -0.07,-0.12 -0.09,-0.24 -0.06,-0.36 0.03,-0.12 0.12,-0.22 0.26,-0.31 0.12,-0.08 0.24,-0.1 0.36,-0.08 0.12,0.02 0.21,0.09 0.28,0.2 0.07,0.11 0.09,0.24 0.06,0.38l0.32 0.17 0.13 -0.29zm-0.83 0.11c0.01,-0.09 -0.01,-0.16 -0.04,-0.22 -0.01,-0.02 -0.04,-0.04 -0.06,-0.05 -0.03,-0.01 -0.05,-0.01 -0.08,0.01 -0.02,0.01 -0.03,0.03 -0.04,0.05 -0,0.02 0.01,0.05 0.03,0.08 0.04,0.06 0.1,0.11 0.19,0.13zm0.5 0.59l-0.28 -0.14c-0.02,0.08 -0.02,0.15 0.02,0.2 0.02,0.04 0.05,0.06 0.08,0.07 0.03,0.01 0.06,0 0.09,-0.02 0.03,-0.02 0.06,-0.06 0.09,-0.12zm0.16 -2.05l0.43 -0.27c0.14,-0.09 0.25,-0.14 0.33,-0.16 0.08,-0.02 0.17,-0.02 0.25,0.02 0.08,0.04 0.17,0.13 0.26,0.27 0.06,0.1 0.09,0.18 0.08,0.23 -0.01,0.06 -0.05,0.13 -0.13,0.2 0.12,-0.04 0.21,-0.05 0.28,-0.02 0.07,0.03 0.14,0.1 0.21,0.21l0.1 0.16c0.07,0.11 0.11,0.2 0.12,0.28 0.01,0.07 -0.01,0.13 -0.05,0.19 -0.04,0.06 -0.15,0.14 -0.33,0.25l-0.5 0.32 -1.06 -1.67zm0.62 0.01l0.23 0.37c0.02,-0.01 0.03,-0.02 0.04,-0.03 0.04,-0.03 0.06,-0.05 0.06,-0.08 -0,-0.03 -0.03,-0.09 -0.1,-0.19 -0.03,-0.05 -0.06,-0.09 -0.08,-0.1 -0.02,-0.01 -0.04,-0.02 -0.06,-0.02 -0.02,0 -0.05,0.02 -0.1,0.05zm0.4 0.63l0.3 0.47c0.06,-0.04 0.09,-0.07 0.1,-0.1 0.01,-0.03 -0.01,-0.08 -0.05,-0.14l-0.1 -0.16c-0.05,-0.07 -0.08,-0.11 -0.11,-0.12 -0.02,-0.01 -0.07,0.01 -0.14,0.05zm1.14 -2.01l0.71 1.12c0.08,0.13 0.13,0.22 0.16,0.27 0.02,0.06 0.03,0.12 0.03,0.2 -0.01,0.08 -0.03,0.15 -0.08,0.22 -0.05,0.07 -0.12,0.13 -0.21,0.19 -0.1,0.06 -0.2,0.1 -0.3,0.12 -0.1,0.02 -0.18,0.01 -0.25,-0.02 -0.07,-0.03 -0.13,-0.07 -0.17,-0.13 -0.04,-0.05 -0.13,-0.18 -0.25,-0.37l-0.62 -0.99 0.43 -0.27 0.79 1.26c0.05,0.07 0.08,0.12 0.1,0.13 0.02,0.02 0.04,0.02 0.07,0 0.03,-0.02 0.04,-0.04 0.03,-0.07 -0.01,-0.03 -0.04,-0.08 -0.09,-0.17l-0.78 -1.23 0.44 -0.27zm1.41 -0.18l-0.4 0.25 -0.08 -0.12c-0.04,-0.06 -0.07,-0.09 -0.09,-0.1 -0.02,-0.01 -0.04,-0.01 -0.07,0.01 -0.03,0.02 -0.04,0.04 -0.04,0.07 0,0.03 0.01,0.07 0.04,0.11 0.04,0.06 0.07,0.09 0.1,0.11 0.03,0.02 0.09,0.03 0.19,0.02 0.27,-0.01 0.45,0.01 0.54,0.05 0.1,0.04 0.2,0.15 0.3,0.31 0.08,0.12 0.12,0.22 0.12,0.29 0.01,0.07 -0.02,0.16 -0.07,0.24 -0.06,0.09 -0.14,0.17 -0.24,0.23 -0.12,0.07 -0.23,0.11 -0.34,0.12 -0.11,0.01 -0.2,-0.01 -0.27,-0.07 -0.07,-0.05 -0.14,-0.14 -0.22,-0.27l-0.07 -0.11 0.4 -0.26 0.13 0.2c0.04,0.06 0.07,0.1 0.09,0.11 0.02,0.01 0.05,0.01 0.08,-0.01 0.03,-0.02 0.04,-0.04 0.04,-0.08 -0,-0.03 -0.01,-0.07 -0.04,-0.11 -0.06,-0.1 -0.12,-0.15 -0.16,-0.17 -0.05,-0.01 -0.15,-0.02 -0.3,-0.02 -0.15,-0 -0.26,-0.01 -0.31,-0.02 -0.06,-0.01 -0.11,-0.04 -0.17,-0.08 -0.06,-0.04 -0.12,-0.11 -0.17,-0.2 -0.08,-0.13 -0.12,-0.23 -0.13,-0.31 -0,-0.08 0.02,-0.16 0.07,-0.24 0.05,-0.08 0.13,-0.15 0.23,-0.22 0.11,-0.07 0.22,-0.11 0.32,-0.13 0.1,-0.01 0.18,-0 0.25,0.04 0.06,0.04 0.13,0.13 0.22,0.26l0.04 0.07zm0.29 -0.89l1.06 1.67 -0.44 0.27 -1.06 -1.67 0.44 -0.27zm1.15 -0.72l1.06 1.67 -0.38 0.24 -0.71 -0.62 0.48 0.76 -0.36 0.23 -1.06 -1.67 0.36 -0.23 0.72 0.6 -0.48 -0.75 0.36 -0.23zm0.17 -0.11l0.73 -0.46 0.21 0.33 -0.29 0.18 0.2 0.32 0.27 -0.17 0.2 0.32 -0.27 0.17 0.23 0.37 0.32 -0.2 0.21 0.33 -0.76 0.48 -1.06 -1.67zm2.12 -0.63l-0.4 0.25 -0.08 -0.12c-0.04,-0.06 -0.07,-0.09 -0.09,-0.1 -0.02,-0.01 -0.04,-0.01 -0.07,0.01 -0.03,0.02 -0.04,0.04 -0.04,0.07 0,0.03 0.01,0.07 0.04,0.11 0.04,0.06 0.07,0.09 0.1,0.11 0.03,0.02 0.09,0.03 0.19,0.02 0.27,-0.01 0.45,0.01 0.54,0.05 0.1,0.04 0.2,0.14 0.3,0.31 0.08,0.12 0.12,0.22 0.12,0.29 0.01,0.07 -0.02,0.16 -0.07,0.24 -0.06,0.09 -0.14,0.17 -0.24,0.23 -0.12,0.07 -0.23,0.11 -0.34,0.12 -0.11,0.01 -0.2,-0.01 -0.27,-0.07 -0.07,-0.05 -0.14,-0.14 -0.22,-0.27l-0.07 -0.11 0.4 -0.25 0.13 0.2c0.04,0.06 0.07,0.1 0.09,0.11 0.02,0.01 0.05,0.01 0.08,-0.01 0.03,-0.02 0.04,-0.04 0.04,-0.08 0,-0.03 -0.01,-0.07 -0.04,-0.11 -0.06,-0.1 -0.12,-0.15 -0.16,-0.17 -0.05,-0.01 -0.15,-0.02 -0.3,-0.02 -0.15,-0 -0.26,-0.01 -0.31,-0.02 -0.06,-0.01 -0.11,-0.04 -0.17,-0.08 -0.06,-0.04 -0.12,-0.11 -0.17,-0.2 -0.08,-0.13 -0.12,-0.23 -0.13,-0.31 -0,-0.08 0.02,-0.16 0.07,-0.24 0.05,-0.08 0.13,-0.15 0.23,-0.22 0.11,-0.07 0.22,-0.11 0.32,-0.13 0.1,-0.01 0.18,-0 0.25,0.04 0.06,0.04 0.13,0.13 0.22,0.26l0.04 0.07zm1.1 -0.69l-0.4 0.25 -0.08 -0.12c-0.04,-0.06 -0.07,-0.09 -0.09,-0.1 -0.02,-0.01 -0.04,-0.01 -0.07,0.01 -0.03,0.02 -0.04,0.04 -0.04,0.07 0,0.03 0.01,0.07 0.04,0.11 0.04,0.06 0.07,0.09 0.1,0.11 0.03,0.02 0.09,0.03 0.19,0.02 0.27,-0.01 0.45,0.01 0.54,0.05 0.1,0.04 0.2,0.15 0.3,0.31 0.08,0.12 0.12,0.22 0.12,0.29 0.01,0.07 -0.02,0.16 -0.07,0.24 -0.06,0.09 -0.14,0.17 -0.24,0.23 -0.12,0.07 -0.23,0.11 -0.34,0.12 -0.11,0.01 -0.2,-0.01 -0.27,-0.07 -0.07,-0.05 -0.14,-0.14 -0.22,-0.27l-0.07 -0.11 0.4 -0.26 0.13 0.2c0.04,0.06 0.07,0.1 0.09,0.11 0.02,0.01 0.05,0.01 0.08,-0.01 0.03,-0.02 0.04,-0.04 0.04,-0.07 -0,-0.03 -0.01,-0.07 -0.04,-0.11 -0.06,-0.1 -0.12,-0.15 -0.16,-0.17 -0.05,-0.01 -0.15,-0.02 -0.3,-0.02 -0.15,-0 -0.26,-0.01 -0.31,-0.02 -0.06,-0.01 -0.11,-0.04 -0.17,-0.08 -0.06,-0.04 -0.12,-0.11 -0.17,-0.2 -0.08,-0.13 -0.12,-0.23 -0.13,-0.31 -0,-0.08 0.02,-0.16 0.07,-0.24 0.05,-0.08 0.13,-0.15 0.23,-0.22 0.11,-0.07 0.22,-0.11 0.32,-0.13 0.1,-0.01 0.18,-0 0.25,0.04 0.06,0.04 0.13,0.13 0.22,0.26l0.04 0.07z"/>
    <path class="fil1" d="M33.54 20.6l0.5 0.79 -0.18 0.11 -0.33 -0.53 0.26 0.57 -0.13 0.08 -0.4 -0.47 0.33 0.52 -0.18 0.11 -0.5 -0.79 0.26 -0.17c0.04,0.04 0.08,0.09 0.13,0.15l0.15 0.18 -0.18 -0.4 0.27 -0.17zm0.6 0.49l0.1 0.16 -0.15 0.09 -0.1 -0.16 0.15 -0.09zm-0.34 -0.66l0.14 -0.09c0.1,-0.06 0.16,-0.1 0.2,-0.11 0.04,-0.01 0.08,-0.01 0.12,0 0.04,0.02 0.08,0.06 0.12,0.13 0.04,0.06 0.06,0.11 0.05,0.14 -0,0.03 -0.02,0.06 -0.07,0.09 0.05,-0.02 0.08,-0.02 0.11,-0.01 0.02,0.01 0.04,0.02 0.05,0.03 0.01,0.01 0.04,0.05 0.08,0.11l0.13 0.21 -0.19 0.12 -0.16 -0.26c-0.03,-0.04 -0.05,-0.07 -0.06,-0.07 -0.01,-0.01 -0.03,0 -0.06,0.02l0.22 0.35 -0.2 0.13 -0.5 -0.79zm0.29 0.01l0.11 0.17c0.02,-0.01 0.04,-0.03 0.04,-0.04 0.01,-0.01 -0,-0.04 -0.02,-0.07l-0.03 -0.04c-0.02,-0.02 -0.03,-0.04 -0.04,-0.04 -0.01,-0 -0.03,0 -0.06,0.02zm0.76 0.2l0.1 0.16 -0.15 0.09 -0.1 -0.16 0.15 -0.09z"/>
   </g>
  </g>
 </g>
</svg>
