<?xml version="1.0" encoding="UTF-8"?>
<!DOCTYPE svg PUBLIC "-//W3C//DTD SVG 1.1//EN" "http://www.w3.org/Graphics/SVG/1.1/DTD/svg11.dtd">
<!-- Creator: CorelDRAW -->
<svg xmlns="http://www.w3.org/2000/svg" xml:space="preserve" width="16.7871mm" height="16.7872mm" version="1.1" style="shape-rendering:geometricPrecision; text-rendering:geometricPrecision; image-rendering:optimizeQuality; fill-rule:evenodd; clip-rule:evenodd"
viewBox="0 0 42.26 42.26"
 xmlns:xlink="http://www.w3.org/1999/xlink"
 xmlns:xodm="http://www.corel.com/coreldraw/odm/2003">
 <defs>
  <style type="text/css">
   <![CDATA[
    .fil0 {fill:none}
    .fil1 {fill:#005DAA;fill-rule:nonzero}
    .fil2 {fill:#E31837;fill-rule:nonzero}
   ]]>
  </style>
 </defs>
 <g id="Capa_x0020_1">
  <metadata id="CorelCorpID_0Corel-Layer"/>
  <g id="_2504455973200">
   <circle class="fil0" cx="21.13" cy="21.13" r="21.13"/>
   <g>
    <path class="fil1" d="M15.72 23.49l0.09 1.37 0.02 0c0.04,-0.14 0.09,-0.29 0.16,-0.42l0.47 -0.95 0.77 0 0.12 1.37 0.02 0c0.04,-0.13 0.08,-0.27 0.15,-0.41l0.46 -0.96 1.04 0 -1.41 2.29 -0.87 0 -0.08 -1.25 -0.03 0c-0.03,0.12 -0.06,0.23 -0.12,0.35l-0.45 0.9 -0.85 0 -0.53 -2.29 1.04 0z"/>
    <polygon class="fil1" points="18.94,23.49 19.91,23.49 19.76,24.27 20.37,24.27 20.52,23.49 21.49,23.49 21.05,25.79 20.08,25.79 20.24,24.99 19.62,24.99 19.47,25.79 18.51,25.79 "/>
    <path class="fil1" d="M24.31 24.65c-0.14,0.74 -0.91,1.18 -1.75,1.18 -0.84,0 -1.44,-0.44 -1.3,-1.18 0.14,-0.72 0.91,-1.19 1.75,-1.19 0.84,0 1.43,0.47 1.3,1.19zm-2.04 0.01c-0.05,0.26 0.13,0.44 0.43,0.44 0.3,0 0.55,-0.18 0.6,-0.44 0.05,-0.24 -0.11,-0.45 -0.43,-0.45 -0.32,0 -0.55,0.2 -0.6,0.45zm2.26 -1.17l1 0 -0.3 1.56 0.84 0 -0.14 0.74 -1.84 0 0.44 -2.29zm3.91 1.47l0.04 0.03c0.16,0.12 0.35,0.21 0.58,0.21 0.1,0 0.26,-0.03 0.28,-0.14 0.02,-0.1 -0.11,-0.11 -0.2,-0.13l-0.2 -0.03c-0.38,-0.06 -0.67,-0.25 -0.6,-0.61 0.1,-0.54 0.76,-0.85 1.36,-0.85 0.31,0 0.59,0.06 0.83,0.2l-0.38 0.59c-0.15,-0.1 -0.33,-0.17 -0.55,-0.17 -0.09,0 -0.22,0.03 -0.24,0.12 -0.02,0.09 0.11,0.1 0.18,0.11l0.22 0.04c0.41,0.08 0.68,0.27 0.61,0.66 -0.1,0.55 -0.76,0.82 -1.35,0.82 -0.35,0 -0.73,-0.08 -1.02,-0.21l0.43 -0.65z"/>
    <path class="fil1" d="M31.88 24.96l-0.04 -0.4c-0.01,-0.1 -0.01,-0.2 -0.01,-0.3l-0.04 0 -0.32 0.7 0.4 0zm-0.87 0.83l-1.06 0 1.39 -2.29 1.11 0 0.55 2.29 -1.06 0 -0.04 -0.29 -0.76 0 -0.14 0.29z"/>
    <path class="fil1" d="M33.35 23.49l1 0 -0.3 1.56 0.84 0 -0.14 0.74 -1.84 0 0.44 -2.29zm2.03 0l1.85 0 -0.12 0.63 -0.84 0 -0.04 0.22 0.77 0 -0.11 0.6 -0.77 0 -0.04 0.23 0.87 0 -0.12 0.63 -1.88 0 0.44 -2.29z"/>
    <g>
     <path class="fil2" d="M21.8 19.37l1.26 -0.05 -1.06 3.49 2.27 0 1.06 -3.49 1.24 0.05 0.5 -1.66 -4.77 0 -0.5 1.66 0 0zm-4.69 0.91c-0.32,1.64 -2.05,2.62 -3.96,2.62 -1.9,0 -3.26,-0.98 -2.94,-2.62 0.31,-1.61 2.07,-2.65 3.96,-2.65 1.89,0 3.25,1.04 2.94,2.65l0 0zm-4.62 0.03c-0.11,0.58 0.29,0.98 0.98,0.98 0.69,0 1.24,-0.4 1.36,-0.98 0.1,-0.54 -0.25,-0.99 -0.97,-0.99 -0.72,-0 -1.25,0.45 -1.36,0.99l0 0z"/>
     <path class="fil2" d="M16.4 22.43c0.65,0.29 1.52,0.47 2.31,0.47 1.35,0 2.82,-0.6 3.06,-1.82 0.17,-0.87 -0.45,-1.29 -1.37,-1.46l-0.49 -0.09c-0.17,-0.03 -0.44,-0.06 -0.41,-0.25 0.04,-0.21 0.34,-0.27 0.54,-0.27 0.49,0 0.89,0.17 1.24,0.39l0.87 -1.31c-0.55,-0.3 -1.18,-0.45 -1.89,-0.45 -1.36,0 -2.84,0.68 -3.07,1.89 -0.15,0.8 0.51,1.23 1.37,1.35l0.44 0.07c0.2,0.03 0.49,0.05 0.45,0.28 -0.04,0.23 -0.41,0.3 -0.64,0.3 -0.52,0 -0.97,-0.21 -1.32,-0.47l-0.1 -0.07 -0.97 1.44 0 0zm15.08 -4.59c-0.45,-0.14 -0.97,-0.21 -1.48,-0.21 -1.83,0 -3.49,1.19 -3.78,2.68 -0.28,1.46 0.89,2.59 2.67,2.59 0.41,0 1.26,-0.06 1.65,-0.2l0.44 -1.91c-0.42,0.29 -0.87,0.47 -1.39,0.47 -0.68,0 -1.18,-0.43 -1.07,-1 0.11,-0.56 0.75,-1 1.43,-1 0.51,0 0.92,0.24 1.23,0.52l0.31 -1.94 0 0zm3.63 -0.21c-1.89,0 -3.65,1.04 -3.96,2.65 -0.32,1.64 1.04,2.62 2.94,2.62 1.9,0 3.64,-0.98 3.96,-2.62 0.31,-1.6 -1.04,-2.65 -2.94,-2.65zm-0.32 1.68c0.72,0 1.08,0.45 0.97,1 -0.11,0.58 -0.67,0.98 -1.36,0.98 -0.69,0 -1.09,-0.4 -0.98,-0.98 0.1,-0.54 0.64,-1 1.36,-1zm-24 -2.62c-0.57,-0.16 -1.21,-0.25 -1.85,-0.25 -2.28,0 -4.35,1.44 -4.71,3.24 -0.35,1.76 1.11,3.13 3.33,3.13 0.51,0 1.57,-0.07 2.06,-0.25l0.54 -2.31c-0.52,0.35 -1.08,0.57 -1.73,0.57 -0.85,0 -1.47,-0.52 -1.34,-1.2 0.13,-0.67 0.93,-1.2 1.78,-1.2 0.64,0 1.15,0.29 1.54,0.62l0.39 -2.35 0 0z"/>
     <path class="fil2" d="M36.65 22.57c0.03,-0.18 0.23,-0.32 0.45,-0.32 0.21,0 0.36,0.14 0.33,0.32 -0.03,0.18 -0.23,0.32 -0.45,0.32 -0.22,0 -0.36,-0.14 -0.33,-0.32zm0.67 0c0.03,-0.14 -0.08,-0.24 -0.24,-0.24 -0.17,0 -0.3,0.09 -0.33,0.24 -0.03,0.14 0.07,0.24 0.24,0.24 0.17,0 0.3,-0.09 0.33,-0.24l0 0zm-0.14 0.17l-0.1 0 -0.06 -0.14 -0.07 0 -0.03 0.14 -0.09 0 0.06 -0.34 0.2 0c0.09,0 0.13,0.02 0.12,0.1 -0.01,0.06 -0.06,0.09 -0.11,0.09l0.07 0.14zm-0.12 -0.21c0.04,0 0.08,0 0.09,-0.04 0.01,-0.03 -0.03,-0.03 -0.07,-0.03l-0.09 0 -0.01 0.07 0.09 0z"/>
    </g>
    <path class="fil1" d="M4.38 25.79l10.61 0 -0 -0 -0.01 0 -0.13 -0.58 -10.47 0 0 0.59zm0 -0.83l10.41 0 -0.14 -0.59 -10.28 0 0 0.59zm0 -0.84l10.22 0 -0.05 -0.21 -0.09 -0.41 -10.08 0 0 0.62zm22.18 -0.63l1.85 0 -0.12 0.63 -0.84 0 -0.04 0.22 0.77 0 -0.11 0.6 -0.77 0 -0.04 0.23 0.87 0 -0.12 0.63 -1.88 0 0.44 -2.29z"/>
   </g>
  </g>
 </g>
</svg>
