<?xml version="1.0" encoding="UTF-8"?>
<!DOCTYPE svg PUBLIC "-//W3C//DTD SVG 1.1//EN" "http://www.w3.org/Graphics/SVG/1.1/DTD/svg11.dtd">
<!-- Creator: CorelDRAW -->
<svg xmlns="http://www.w3.org/2000/svg" xml:space="preserve" width="16.7871mm" height="16.7871mm" version="1.1" style="shape-rendering:geometricPrecision; text-rendering:geometricPrecision; image-rendering:optimizeQuality; fill-rule:evenodd; clip-rule:evenodd"
viewBox="0 0 39.4 39.4"
 xmlns:xlink="http://www.w3.org/1999/xlink"
 xmlns:xodm="http://www.corel.com/coreldraw/odm/2003">
 <defs>
  <style type="text/css">
   <![CDATA[
    .fil0 {fill:none}
    .fil1 {fill:#FEFEFE;fill-rule:nonzero}
    .fil3 {fill:#EF2B2D;fill-rule:nonzero}
    .fil2 {fill:#009CD9;fill-rule:nonzero}
   ]]>
  </style>
 </defs>
 <g id="Capa_x0020_1">
  <metadata id="CorelCorpID_0Corel-Layer"/>
  <g id="_2504448660432">
   <circle class="fil0" cx="19.7" cy="19.7" r="19.7"/>
   <g>
    <path class="fil1" d="M21.16 2.31c4.68,0 8.5,4.42 8.5,9.83 0,5.41 -3.82,9.82 -8.5,9.82 -4.68,0 -8.5,-4.41 -8.5,-9.82 0,-5.41 3.82,-9.83 8.5,-9.83z"/>
    <path class="fil2" d="M29.32 11.6c-0.08,-1.1 -0.2,-1.72 -0.42,-2.5 -0.29,-0.92 -0.52,-1.44 -0.98,-2.27 -0.23,-0.39 -0.42,-0.63 -0.7,-1.03 -0.55,-0.67 -0.76,-0.88 -1.22,-1.28 -0.73,-0.64 -1.42,-1.01 -2.19,-1.33 -0.7,-0.26 -1.08,-0.38 -1.98,-0.48 -0.77,-0.05 -1.06,-0.05 -1.94,0.08 -1.2,0.22 -1.9,0.58 -2.9,1.19 -0.74,0.52 -1.24,1 -1.87,1.78 -0.33,0.46 -0.62,0.85 -0.88,1.3 -0.54,1.03 -0.66,1.41 -0.84,2 -0.19,0.74 -0.34,1.4 -0.4,2.16 -0.07,0.89 -0.07,1.07 -0.01,1.9 0.15,1.07 0.13,1.07 0.34,1.88 0.38,1.24 0.44,1.3 0.84,2.13 0.5,0.87 0.7,1.12 1.37,1.94 0.74,0.76 1.44,1.3 2.39,1.79 1.11,0.5 1.65,0.67 2.93,0.75l0.04 0c0.93,0.01 1.45,-0.07 2.19,-0.26 1.2,-0.39 1.89,-0.74 2.94,-1.63 1.22,-1.12 1.49,-1.63 2,-2.48 0.26,-0.53 0.31,-0.56 0.63,-1.37 0.25,-0.73 0.3,-0.89 0.49,-1.77 0.16,-1.12 0.19,-1.35 0.15,-2.49zm-0.68 2.65l0 0c-0.11,0.6 -0.32,1.25 -0.51,1.71 -0.17,0.42 -0.24,0.53 -0.44,0.94 -0.29,0.53 -0.36,0.62 -0.62,1 -0.58,0.75 -0.9,1.14 -1.83,1.87 -0.69,0.51 -1.35,0.81 -2.13,1.08 -0.27,0.08 -0.86,0.25 -1.65,0.29 -1.4,0.04 -2.36,-0.29 -2.63,-0.4 -0.58,-0.23 -1.12,-0.45 -1.88,-1.02 -0.6,-0.46 -1.32,-1.24 -1.32,-1.24 -0.53,-0.63 -1.03,-1.42 -1.4,-2.28 -0.31,-0.79 -0.41,-1.21 -0.41,-1.21 0,0 -0.11,-0.58 -0.13,-1.04 -0.02,-0.37 -0.04,-0.69 -0.01,-1.13 0.12,0.83 -0.04,0.52 0.43,2.35 0.27,0.85 0.37,0.97 0.5,1.24 0.29,0.59 0.47,0.95 1.05,1.7 0.8,0.98 1.37,1.45 2.36,1.99 1.3,0.73 2.72,0.92 4.18,0.72 0.93,-0.21 1.64,-0.46 2.5,-0.99 0.86,-0.53 1.61,-1.29 2.16,-2.08 0.35,-0.59 0.7,-1.15 0.95,-1.79 0.34,-0.83 0.52,-1.51 0.64,-2.37 0.1,-0.88 0.16,-1.25 0.07,-2.17 -0.05,-0.68 -0.06,-0.8 -0.18,-1.34 0.41,1.11 0.38,1.16 0.46,1.7 0.06,1.04 0.02,1.61 -0.15,2.49zm-14.8 -2.07l0 0c0.06,-1.7 0.26,-2.5 0.78,-3.85 0.63,-1.32 1.07,-1.97 2.21,-3.02 0.99,-0.89 2.24,-1.49 3.55,-1.64 0.55,-0.06 1.22,-0.08 2.04,0.08 0.99,0.28 1.09,0.31 1.98,0.8 0.73,0.41 0.96,0.65 1.65,1.33 0.72,0.88 1.16,1.4 1.65,2.6 0.4,1.07 0.49,1.45 0.63,2.43 0.13,1.39 0.11,1.95 -0.05,2.91 -0.16,1.09 -0.4,1.6 -0.67,2.26 -0.47,0.98 -0.61,1.23 -1.32,2.15 -0.99,1.07 -1.37,1.32 -2.33,1.84 -0.82,0.32 -1.65,0.82 -3.59,0.62 -1.62,-0.26 -2.59,-0.78 -3.61,-1.65 -1.43,-1.28 -2,-2.53 -2.5,-3.99 -0.28,-1.19 -0.35,-1.5 -0.41,-2.86zm15.36 0.42l0 0c-0.03,0.4 -0.04,0.78 -0.11,1.12 -0.03,-1.09 -0.04,-1.25 -0.18,-2.4 -0.08,-0.78 -0.18,-1.27 -0.32,-1.84 -0.11,-0.46 -0.25,-0.75 -0.4,-1.19 -0.2,-0.46 -0.29,-0.63 -0.56,-1.14 -0.52,-0.82 -1.06,-1.62 -2.14,-2.46 -0.69,-0.53 -1.32,-0.85 -1.95,-1.1 -0.59,-0.22 -1.35,-0.42 -2.4,-0.43 -0.85,0 -1.65,0.18 -2.42,0.45 -1.24,0.46 -2.38,1.36 -3.08,2.21 -0.58,0.67 -1.01,1.36 -1.26,1.88 -0.27,0.56 -0.37,0.85 -0.54,1.35 -0.17,0.57 -0.25,0.87 -0.38,1.65 -0.09,0.74 -0.09,0.95 -0.11,1.73 0.05,0.79 0.07,0.9 0.12,1.37 0,0 0.17,1.04 0.31,1.7l0.17 0.83 -0.16 -0.41c-0.19,-0.54 -0.24,-0.79 -0.42,-1.42 -0.15,-0.77 -0.24,-1.27 -0.27,-2.18 0.01,-1.23 0.16,-2.21 0.49,-3.37 0.35,-1.09 0.89,-2.14 1.62,-3.06 0.47,-0.57 0.83,-0.94 1.44,-1.46 0.87,-0.59 1.22,-0.83 2.09,-1.16 0.65,-0.22 1.06,-0.34 1.88,-0.42 0.76,-0.04 1.3,-0.02 2.04,0.14 1.32,0.32 2.03,0.74 2.8,1.3 0.7,0.53 0.78,0.64 1.22,1.09 0.6,0.69 0.92,1.13 1.37,1.95 0.49,1.02 0.59,1.3 0.86,2.26 0.15,0.73 0.18,0.9 0.25,1.54 0.05,0.65 0.07,0.65 0.05,1.46z"/>
    <path class="fil2" d="M17.65 19.49c0.86,0.52 1.3,0.68 2.14,0.92 0.9,0.17 1.6,0.19 2.67,0.02 1.6,-0.5 1.98,-0.8 3.1,-1.72 0.69,-0.7 1.11,-1.16 1.65,-2.24 0.53,-1.16 0.71,-1.44 0.98,-3.19 0.1,-1.35 0.07,-1.56 -0.12,-2.95 -0.33,-1.58 -0.88,-2.67 -1.7,-3.81 -0.92,-1.15 -1.57,-1.55 -2.56,-2.09 -0.82,-0.36 -1.18,-0.48 -2.21,-0.62 -1.18,0 -1.71,0.12 -2.31,0.28 -1.16,0.46 -1.39,0.56 -2.21,1.22 -0.52,0.45 -0.53,0.47 -1.05,1.05 -0.54,0.68 -0.52,0.67 -0.9,1.31 -0.46,0.98 -0.53,1.16 -0.79,2 -0.23,0.92 -0.24,1.22 -0.32,2.03 0,1.18 0.02,1.29 0.16,2.28 0.28,1.48 0.73,2.49 1.74,3.88 0.5,0.67 1.09,1.15 1.73,1.61zm-0.68 -1.43l0 0c-0.01,0.1 -0.1,0.19 -0.24,0.19l-0.31 -0.01c-0.14,-0.01 -0.17,-0.13 -0.17,-0.27 0,-0.66 0.02,-1.62 0.01,-1.76 0,-0.1 0.05,-0.2 0.16,-0.19l0.53 0 0 0.39 -0.38 0 0 0.54 0.28 0.01c0.09,0.01 0.13,0.1 0.13,0.18l0 0.92zm0.95 0.02l0 0c-0.02,0.18 -0.14,0.22 -0.23,0.22l-0.44 -0.02c-0.09,-0.02 -0.15,-0.09 -0.15,-0.2l0.01 -2.04 0.33 0.01 0.01 1.87 0.16 0 0 -1.87 0.32 0.01 0 2.03zm0.6 0.26l0 0 -0.01 0 0 -0.25 -0.17 0 -0.02 0.24 -0.31 -0.01 0.2 -2.27 0.51 0.01c0.03,0.77 0.09,1.53 0.13,2.3l-0.34 -0.01zm1.23 -1.92l0 0 0 1.61c-0.03,0.19 -0.11,0.32 -0.29,0.34l-0.46 -0.01 0 -2.3 0.5 0c0.21,0.01 0.27,0.18 0.26,0.35zm0.57 2.01l0 0 -0.02 -0.26 -0.16 0 -0.01 0.24 -0.32 0.01c0.04,-0.61 0.1,-1.5 0.17,-2.33l0.49 0 0.16 2.34 -0.31 0zm1.1 -0.36l0 0 0 0.36 -0.65 0.01 0 -2.33 0.34 0 0 1.96 0.31 0zm-0.22 1.61l0 0c-0.13,0 -0.24,-0.1 -0.24,-0.24 0,-0.13 0.11,-0.24 0.24,-0.24 0.13,0 0.23,0.11 0.23,0.24 0,0.14 -0.11,0.24 -0.23,0.24zm0.81 -1.26l0 0 -0.02 -0.25 -0.18 0 -0.01 0.25 -0.31 0 0.14 -2.31 0.49 0 0.19 2.31 -0.3 0.01zm1.17 -0.31l0 0c-0.01,0.23 -0.1,0.29 -0.27,0.29l-0.27 0c-0.15,0 -0.24,-0.04 -0.26,-0.18l0 -0.57 0.32 0 0 0.38c0,0.03 0.01,0.06 0.04,0.06l0.06 0c0.03,0 0.05,-0.02 0.05,-0.05l0 -1.98 0.35 0 -0.01 2.05zm0.61 0.23l0 0 -0.01 -0.25 -0.19 0 0.01 0.27 -0.33 0.01 0.13 -2.32 0.55 -0.01 0.18 2.28 -0.33 0.01zm0.94 -0.04l0 0 -0.12 -0.78 -0.04 0 0 0.79 -0.34 0.01 0 -2.29 0.52 -0.01c0.17,0.01 0.28,0.15 0.28,0.36 0,0 0,0.87 -0,0.87 -0,0 0.02,0.14 -0.11,0.2l0.17 0.82 -0.37 0.02zm0.91 -0.09l0 0 -0.01 -0.28 -0.16 0.01 0 0.3 -0.33 0.03 0.13 -2.26 0.52 -0.01 0.16 2.19 -0.31 0.03zm-2.17 -12.77l0 0 0.43 0 0 -0.39 0.5 0 0 0.39 0.43 0 0 0.43 -0.43 0 0 0.39 -0.5 -0 0 -0.39 -0.43 0 0 -0.44zm-3.01 -1.03l0 0c0.44,0 0.93,0 1.37,0l0 0.24 -0.95 0 0 0.13 0.93 -0 0 0.26 -0.94 0 0 0.21 -0.42 0 0 -0.84zm0.4 1.1l0 0 0.58 -0 0.45 0.85 -0.44 0 -0.05 -0.15 -0.48 0 -0.05 0.15 -0.44 0 0.44 -0.85zm1 1.9l0 0 -0.5 0 -0.12 -0.24 -0.36 0 0 0.24 -0.43 0 0 -0.83 1.22 0c0.11,0.01 0.15,0.04 0.15,0.15l0.01 0.27c0,0.08 -0.09,0.13 -0.19,0.13l0.22 0.29zm-1.48 0.26l0 0 0.52 0 0.24 0.45 0.26 -0.45 0.51 0 0 0.84 -0.4 0 0 -0.43 -0.22 0.43 -0.3 -0 -0.21 -0.43 0 0.44 -0.39 0.01 0 -0.85zm1.3 6.47l0 0 -1.24 0 0 -0.25 1.07 0c0.01,-0.01 0.03,-0.01 0.03,-0.03l0 -0.07c0,-0.02 -0.02,-0.04 -0.05,-0.04l-0.92 0c-0.12,0 -0.14,-0.06 -0.15,-0.14l0 -0.32c0,-0.07 0.06,-0.13 0.14,-0.13l1.29 0 0 0.24 -0.97 0c-0.02,0 -0.05,0.02 -0.05,0.04l0 0.05c0,0.03 0.03,0.05 0.06,0.05l0.8 0c0.11,0.01 0.17,0.05 0.17,0.15l-0 0.32c0.01,0.08 -0.07,0.15 -0.19,0.15zm-0.23 -1.2l0 0 -0.06 -0.14 -0.47 0 -0.06 0.14 -0.43 0 0.44 -0.84 0.58 0 0.44 0.84 -0.44 0zm-0.52 -2.45l0 0 0.92 0 0 0.28 -1.2 0c-0.07,-0.01 -0.18,-0.04 -0.19,-0.18l0 -0.59c0,-0.09 0.06,-0.15 0.18,-0.18l1.2 0 0 0.3 -0.91 0c-0.05,0 -0.08,0.03 -0.08,0.09l0 0.18c0,0.05 0.03,0.09 0.08,0.09zm0.43 0.52l0 0 0 0.86 -0.41 0 0 -0.86 0.41 0zm0.1 -1.42l0 0 -0.06 -0.15 -0.47 0 -0.06 0.15 -0.43 0 0.44 -0.85 0.58 0.01 0.44 0.84 -0.44 0zm-3.98 -4.17l0 0 0.43 0 0 -0.4 0.49 0 -0.01 0.4 0.43 0 0 0.42 -0.43 0 0 0.41 -0.48 0 -0.01 0 0 -0.4 -0.43 0 0 -0.43zm-1.08 8.41l0 0 0.22 1.27 1.19 -8.51 0.7 0.01 1.19 8.41c0.66,-0.65 2.37,-0.67 3.02,0.01l1.07 -8.44 0.72 0 1.17 8.51 0.22 -1.27 0.45 0 -0.32 1.66 -0.78 0 -1.06 -7.66 -0.06 0 -0.95 7.66 -0.69 0c-0.52,-0.61 -2.06,-0.61 -2.61,0l-0.66 0 -1.03 -7.66 -0.06 0 -1.02 7.66 -0.83 0 -0.03 0 -0.32 -1.66 0.49 0z"/>
    <path class="fil2" d="M19.36 16.44c0,0 -0.03,0 -0.05,0 0,0 -0,1.56 0,1.55 0,-0 0.04,0 0.04,0 0.11,-0.01 0.1,-0.14 0.1,-0.14l0 -1.26c0,0 0.01,-0.15 -0.09,-0.16z"/>
    <polygon class="fil2" points="20.2,16.81 20.15,17.87 20.27,17.87 20.29,17.87 20.25,16.81 "/>
    <path class="fil2" d="M16.68 17.33c0,-0.04 -0.01,-0.06 -0.12,-0.05l0 0.6 0.08 0.01c0.04,-0.01 0.05,-0.04 0.05,-0.1l0 -0.45z"/>
    <polygon class="fil2" points="21.88,16.75 21.83,17.86 21.98,17.86 21.91,16.75 "/>
    <polygon class="fil2" points="18.43,16.75 18.36,17.8 18.51,17.8 18.48,16.75 "/>
    <polygon class="fil2" points="23.66,16.72 23.62,17.78 23.78,17.78 23.71,16.72 "/>
    <path class="fil2" d="M25.53 16.65l-0.03 1.02 0.13 -0.01 -0.05 -1.02c-0.04,-0.01 -0.04,0.01 -0.05,0.01z"/>
    <path class="fil2" d="M24.65 16.41l-0.08 0 0 0.74 0.07 -0c0.04,-0.01 0.07,-0.05 0.07,-0.14l0 -0.45c0,-0.07 -0.01,-0.14 -0.06,-0.16z"/>
    <path class="fil2" d="M21.4 6.85l-0.48 0 0 0.1 0.46 -0c0.02,0 0.03,-0.02 0.03,-0.03l0 -0.04c0,0 0.01,-0.03 -0.02,-0.03z"/>
    <polygon class="fil2" points="21.12,9.03 21.02,9.25 21.34,9.25 21.24,9.03 "/>
    <polygon class="fil2" points="21.22,5.78 21.11,5.78 21.01,6.01 21.32,6.01 "/>
    <polygon class="fil2" points="21.12,12.37 21.03,12.59 21.34,12.59 21.24,12.37 "/>
    <path class="fil2" d="M22.56 29.26c-0.01,0.06 0.05,0.13 0.14,0.11l0.33 -0.85c-0.05,-0.01 -0.52,0.27 -0.47,0.74z"/>
    <path class="fil2" d="M12.46 29.92c-0.01,0.06 0.05,0.1 0.13,0.1l0.36 -0.87c-0.14,0 -0.52,0.33 -0.49,0.77z"/>
    <path class="fil2" d="M14.46 29.04l-0.36 0.94 0.09 0 0.37 -0.94c-0.03,0.03 -0.12,0 -0.1,0z"/>
    <polygon class="fil2" points="27.93,29.09 28,29.09 28.1,28.74 28.07,28.74 "/>
    <path class="fil2" d="M32.4 26.17l-2.35 0.14c-0.36,0.02 -0.66,0.1 -0.95,0.31l0.64 -1.62 -1.88 0.11 -0.51 0.67 -0.27 0.71c-0.65,0 -1.17,0.01 -1.83,0.38l0.13 -0.3 -2.48 0.16c-0.38,0.01 -0.87,0.24 -1.08,0.55 -0.02,-0.28 -0.34,-0.48 -0.86,-0.44l-7.82 0.45c-0.55,0.04 -0.55,0.07 -0.89,0.26l0.54 -1.38 -2.92 0.17 -2.04 2.43 0.68 -0.04 -1.51 3.83 2.31 -0.14 0.48 -0.61 0.52 -1.34c-0.1,0.74 0.41,1.8 1.44,1.79l3.16 -0.19 0.41 -0.61 0.8 -2.06 0.2 0 -1.01 2.65 4.85 -0.31 0.61 -0.94c0.13,0.43 0.65,0.88 1.11,0.88l1.35 -0.11 0.37 -0.53c0.14,-0.23 0.22,-0.4 0.2,-0.37 0.18,0.48 0.54,0.75 1.04,0.81l2.22 -0.16 0.41 -0.58 0.18 -0.25c0.13,0.55 0.61,0.72 1.02,0.77l1.54 -0.1 0.36 -0.48 1.34 -2.05 -0.52 0.01 0.98 -2.5zm-4.44 -0.87l0 0 1.51 -0.1 -0.47 1.25 -1.49 0.06 0.46 -1.21zm3.47 3.65l0 0 -0.97 1.48 -1.61 0.1c-0.59,0 -0.8,-0.6 -0.87,-0.82l-0.64 0.9 -1.44 0.09 0.85 -2.17 0 -0.07c-0.37,-0.04 -0.97,0 -1.07,0.53 -0.06,0.45 0.43,0.35 0.65,0.31l-0.56 1.42c-0.5,0.04 -1.19,0.1 -1.47,-0.57 -0.05,-0.11 -0.09,-0.26 -0.11,-0.38l-0.7 1.08 -1.57 0.09c-0.27,0.01 -0.6,-0.3 -0.7,-0.53 -0.1,-0.11 -0.12,-0.24 -0.13,-0.25l-0.6 0.87 -1.4 0.08 0.87 -2.29 -0.09 0 -0.89 2.29 -1.4 0.09 0.91 -2.33 -0.09 0.01 -0.91 2.33 -1.47 0.08 0.86 -2.33 -0.75 0.03 -0.89 2.33 -3.46 0.2c-0.26,-0.01 -0.6,-0.28 -0.69,-0.6 -0.15,-0.41 -0.09,-0.82 -0.08,-0.95 -0.27,0.03 -0.47,0.04 -0.74,0.06l-0.64 1.62 -1.71 0.1 1.42 -3.66 -0.41 0.01 1.06 -1.48 2.49 -0.16 -0.59 1.53 -0.91 0.06 -0.17 0.42 0.84 -0.04 -0.09 0.23c0.38,-0.62 0.79,-0.98 1.4,-1.05l2.07 -0.11 -0.19 0.51 0.42 -0.54 2.23 -0.11c-0.04,0.17 -0.05,0.23 -0.04,0.2l0.17 -0.23 1.33 -0.07 -0.05 0.19 0.15 -0.19 0.76 -0.06c0.16,-0.01 0.37,0 0.41,0.29l0.29 -0.31c0.37,-0.03 0.96,-0.18 1.12,0.26 0.04,0.2 0.06,0.23 0.03,0.47 0,0 0.51,-0.91 1.58,-0.88l1.83 -0.1 -0.29 0.87c0.01,-0.04 0.46,-1.2 2.57,-0.97l-0.14 0.31 0.31 -0.36 1.42 -0.08 -0.27 0.65c0.35,-0.34 0.68,-0.61 1.17,-0.71l2.2 -0.14 -1.02 2.53 0.43 -0.03zm-5.14 -0.21l0 0 -0.14 0.37c-0.05,0.03 -0.28,0.11 -0.28,-0.11 0.03,-0.27 0.34,-0.3 0.42,-0.26z"/>
    <path class="fil2" d="M29.41 28.88c0,0.06 0.05,0.13 0.13,0.11l0.34 -0.85c-0.12,0 -0.49,0.3 -0.47,0.74z"/>
    <path class="fil2" d="M21.67 23.47l-0.18 0.48c0.17,-0.05 0.31,-0.32 0.28,-0.48 -0.01,-0.03 -0.08,-0.04 -0.1,-0z"/>
    <polygon class="fil2" points="20.01,24.28 20.07,24.29 20.34,23.58 20.29,23.58 "/>
    <path class="fil2" d="M17.48 23.99l0.11 -0.27 -0.19 -0.01c0.04,0.09 0.08,0.14 0.08,0.28z"/>
    <path class="fil2" d="M16.6 22.8c-0.13,0 -0.12,0.16 0.01,0.23 0.23,0.14 0.61,0.37 0.73,0.57l0.46 -0.77c-0.61,-0.16 -1.15,-0.09 -1.2,-0.03zm0.63 0.34l0 0c0.1,0 0.13,0 0.26,0.06l-0.14 0.16 -0.24 -0.21 0.13 0z"/>
    <path class="fil2" d="M24.4 23.98c0.23,0 0.33,-0.06 0.51,-0.14l-0.73 0.04c0.05,0.13 0.15,0.1 0.22,0.1z"/>
    <path class="fil2" d="M26.18 21.59l-0.37 0.45c-0.57,-0.64 -1.79,-0.58 -2.55,0.31 -0.17,-0.31 -0.31,-0.45 -0.82,-0.55l-4.06 0.23 0.23 -0.57 -1.48 -0.67 -0.18 0.24c-1.31,0 -2.04,0.67 -2.46,1.24 -0.51,0.84 -0.31,1.51 0.28,1.89 -0.22,-0.03 -0.59,-0.2 -0.75,-0.28l-0.61 0.95 -0.55 1.38c0.73,0.44 2.11,0.67 2.83,0.3 0.31,-0.08 0.73,-0.37 0.94,-0.51 0.14,0.21 0.31,0.37 0.66,0.47l1.47 -0.08 -0.18 0.5 1.95 -0.11 0.27 -0.3 0.09 -0.24c0.68,0.08 1.48,-0.27 1.67,-1.01 0.01,0.62 0.75,0.92 1.34,0.88l2.18 -0.14 0.35 -0.48 0.61 -1.56 0.46 -0.02 0.42 -0.5 0.78 -1.97 -2.53 0.17zm1.65 1.56l0 0 -0.78 0.04 -0.79 1.99 -1.39 0.1 0.48 -1.32 -0.04 0 -0.46 1.19c-0.27,0.16 -0.54,0.18 -0.84,0.21 -1.19,0.1 -1.19,-0.84 -1.23,-0.82 -0.22,0.38 -0.89,1.04 -1.79,0.88l-0.29 0.78 -1.44 0.09 0.25 -0.7 -1.82 0.11c-0.6,0.06 -0.52,-0.61 -0.54,-0.61 -0.75,1.31 -2.56,1.23 -3.66,0.59l0.64 -1.53c0.45,0.2 1.04,0.34 1.49,0.23l0.04 -0.03c0.22,-0.11 0.03,-0.3 -0.17,-0.4 0.01,0 -0.75,-0.26 -0.83,-0.8 -0.08,-0.55 0.27,-1.05 0.84,-1.43 0.45,-0.31 0.8,-0.44 1.47,-0.45l0.2 -0.23 1.17 0.54 -0.43 1.04 0.27 -0.35 1.21 -0.07 -0.83 2.12c-0.01,0.03 0,0.04 0.01,0.04l0.09 -0.01 0.84 -2.16 1.3 -0.07 -0.11 0.4 0.26 -0.4 1.33 -0.09c0.64,0.01 0.86,0.44 0.91,0.84 0.49,-1.11 2.08,-1.42 2.57,-0.44l0.5 -0.62 2.16 -0.11 -0.59 1.46z"/>
    <polygon class="fil3" points="27.84,26.3 28.12,25.54 29.09,25.5 28.8,26.24 "/>
    <polygon class="fil3" points="8.39,31.38 9.73,27.84 9.39,27.87 10.13,26.85 12.09,26.75 11.73,27.73 10.78,27.79 10.38,28.78 11.33,28.72 10.94,29.69 10.04,29.75 9.45,31.32 "/>
    <path class="fil3" d="M14.07 31.05l0.87 -2.22 -0.36 0.01 0.8 -1.08 0.88 -0.06 -0.24 0.64c0.06,-0.07 0.51,-0.58 0.57,-0.65l0.64 -0.04 -0.41 1.06 -0.97 0.06 -0.87 2.23 -0.92 0.04z"/>
    <path class="fil3" d="M17.29 28.68l-0.32 0.03 0.73 -1.08 0.98 -0.07 -0.29 0.74 0.69 -0.75 0.54 -0.03c0.5,0.04 0.38,0.47 0.3,0.71l0.78 -0.78 0.42 -0.03c0.2,0.01 0.45,0.2 0.32,0.57l-0.73 1.9 0.28 -0.03 -0.59 0.82 -0.94 0.06 0.88 -2.24 -0.54 0.06 -0.87 2.2 -0.97 0.06 0.86 -2.22 -0.55 0.04 -0.87 2.2 -0.94 0.06 0.84 -2.22z"/>
    <path class="fil3" d="M24.41 29.26c0.15,-1.36 1.22,-2.26 2.56,-2.16l-0.38 1.01c-1.08,-0.26 -1.88,1.66 -0.57,1.48l-0.35 0.87c-0.22,0 -1.26,0.14 -1.26,-1.19z"/>
    <polygon class="fil3" points="26.28,30.37 27.17,28.06 26.75,28.08 27.56,27.05 28.5,26.99 27.55,29.48 27.86,29.46 27.27,30.3 "/>
    <path class="fil3" d="M14.59 27.81l-0.89 0.04 -0.06 0.17c-0.01,0.01 -0.14,-0.23 -0.73,-0.07 -0.98,0.21 -1.61,1.33 -1.61,2.2 -0.01,0.47 0.13,0.84 0.52,1.01 0.13,0.06 0.24,0.03 0.32,0.04l0.55 -0.72 -0.28 0.67 0.96 -0.06 0.64 -0.81 -0.35 0.01 0.93 -2.49zm-1.86 2.54l0 0c-0.1,0.01 -0.32,0.07 -0.45,-0.09 -0.2,-0.31 0.04,-0.82 0.15,-0.99 0.27,-0.43 0.74,-0.5 0.87,-0.41l-0.57 1.49z"/>
    <path class="fil3" d="M24.66 27.2l-0.89 0.06 -0.04 0.16c0,0.01 -0.35,-0.21 -0.84,-0.07 -1.03,0.33 -1.52,1.36 -1.56,2.26 0.05,0.92 0.66,1.04 0.82,0.99l0.62 -0.8 -0.31 0.74 0.93 -0.04 0.56 -0.82 -0.25 0.01 0.96 -2.48zm-1.86 2.54l0 0c-0.28,0.06 -0.74,-0.03 -0.46,-0.87 0.28,-0.75 1.06,-0.68 1.02,-0.58l-0.56 1.45z"/>
    <path class="fil3" d="M13.85 25.54l0.41 -1.04c0.37,0.11 0.78,0.28 1.33,0.17 0.21,-0.04 0.34,-0.16 0.44,-0.38 0.09,-0.42 -0.75,-0.55 -0.98,-0.85 -0.33,-0.5 0.06,-1.05 0.49,-1.41 0.18,-0.14 0.52,-0.3 0.75,-0.38 0.26,-0.08 0.59,-0.11 0.83,-0.13l0.1 -0.17 0.87 0.4 -0.36 0.88c-0.26,-0.04 -0.28,-0.07 -0.7,-0.1 -0.23,0.03 -0.86,0.04 -0.83,0.41 -0.04,0.16 0.38,0.38 0.69,0.58 0.38,0.41 0.38,0.97 0.03,1.46 -0.54,0.79 -1.68,1.11 -3.05,0.55z"/>
    <polygon class="fil3" points="26.03,22.97 25.67,23 26.4,22.08 27.21,22.02 27,22.53 27.44,22.02 28.06,21.98 27.72,22.87 26.86,22.93 26.12,24.92 25.26,24.98 "/>
    <path class="fil3" d="M17.52 25.3c-0.18,-0.13 -0.14,-0.37 -0.08,-0.61l0.5 -1.24 -0.31 0.03 0.65 -0.94 0.8 -0.04 -0.73 1.93c-0.04,0.2 0.33,0.17 0.49,0.13l0.8 -2.1 0.88 -0.04 -0.8 2.13 0.28 -0.03 -0.57 0.77 -0.89 0.06 0.25 -0.63c-0.02,0.01 -0.63,0.72 -0.54,0.64 -0.16,0.01 -0.61,0.09 -0.74,-0.06z"/>
    <path class="fil3" d="M22.26 22.33l-0.57 0.57 0.23 -0.57 -0.88 0.06 -0.61 0.92 0.29 -0.01 -1.03 2.69 0.87 -0.06 0.45 -1.21 0.01 0 0.05 0.38c1.68,0.21 2.46,-2.57 1.2,-2.77zm-0.24 1.22l0 0c-0.08,0.41 -0.34,0.77 -0.85,0.71l0.4 -1.02c0.21,-0.01 0.51,-0.1 0.46,0.31z"/>
    <path class="fil3" d="M25.38 23.63c0.13,-0.27 0.19,-0.47 0.18,-0.8 0,-0.27 -0.22,-0.57 -0.47,-0.65 -0.83,-0.2 -1.25,0.28 -1.54,0.64 -0.28,0.43 -0.5,0.85 -0.51,1.38 0.01,0.2 0.03,0.26 0.1,0.45 0.05,0.14 0.13,0.24 0.26,0.31 0.11,0.07 0.22,0.11 0.37,0.11l0.01 0c0.32,0.03 0.65,-0.06 0.93,-0.2l0.36 -0.78c-0.39,0.14 -1.49,0.41 -1.11,-0.4l1.43 -0.07zm-0.8 -0.81l0 0 0.02 -0c0.14,-0 0.29,-0.01 0.26,0.31l-0.64 0.02c0.04,-0.11 0.25,-0.33 0.37,-0.33z"/>
    <path class="fil3" d="M31.5 26.82l-0.89 0.06 -0.04 0.13c-0.01,0.03 -0.18,-0.2 -0.73,-0.07 -0.87,0.18 -1.58,1.12 -1.62,2.23 -0.03,0.51 0.22,1.07 0.84,1.04 0,0 0.49,-0.63 0.59,-0.76 0,-0.01 -0.32,0.73 -0.32,0.73l0.88 -0.04 0.64 -0.85 -0.32 0.01 0.97 -2.47zm-1.83 2.58l0 0c-0.28,0.05 -0.74,-0.03 -0.46,-0.87 0.28,-0.75 1.06,-0.68 1.02,-0.58l-0.56 1.45z"/>
   </g>
  </g>
 </g>
</svg>
