<?xml version="1.0" encoding="UTF-8"?>
<!DOCTYPE svg PUBLIC "-//W3C//DTD SVG 1.1//EN" "http://www.w3.org/Graphics/SVG/1.1/DTD/svg11.dtd">
<!-- Creator: CorelDRAW -->
<svg xmlns="http://www.w3.org/2000/svg" xml:space="preserve" width="16.7871mm" height="16.7871mm" version="1.1" style="shape-rendering:geometricPrecision; text-rendering:geometricPrecision; image-rendering:optimizeQuality; fill-rule:evenodd; clip-rule:evenodd"
viewBox="0 0 36.9 36.9"
 xmlns:xlink="http://www.w3.org/1999/xlink"
 xmlns:xodm="http://www.corel.com/coreldraw/odm/2003">
 <defs>
  <style type="text/css">
   <![CDATA[
    .fil0 {fill:none}
    .fil3 {fill:#ED3237}
    .fil1 {fill:#FEFEFE;fill-rule:nonzero}
    .fil2 {fill:#ED3237;fill-rule:nonzero}
   ]]>
  </style>
 </defs>
 <g id="Capa_x0020_1">
  <metadata id="CorelCorpID_0Corel-Layer"/>
  <g id="_2488460801136">
   <circle class="fil0" cx="18.45" cy="18.45" r="18.45"/>
   <g>
    <path class="fil1" d="M29.32 24.01l-21.49 0c-2.86,0 -5.19,-2.42 -5.19,-5.52 0,-3.1 2.32,-5.61 5.19,-5.61l21.47 0c2.88,0 5.2,2.51 5.2,5.61 0,3.1 -2.32,5.52 -5.19,5.52z"/>
    <path class="fil2" d="M29.09 23.53c2.78,0 4.95,-2.21 4.95,-5.04 0,-2.83 -2.08,-5.12 -4.86,-5.12l-21.27 0c-2.78,0 -4.78,2.29 -4.78,5.12 0,2.83 2,5.04 4.78,5.04l21.18 0zm0.24 0.48l-21.49 0c-2.86,0 -5.19,-2.42 -5.19,-5.52 0,-3.1 2.32,-5.61 5.19,-5.61l21.47 0c2.88,0 5.2,2.51 5.2,5.61 0,3.1 -2.32,5.52 -5.19,5.52z"/>
    <path class="fil3" d="M7.09 15.86l0.24 5.1 2.01 0 0.03 -1.75 1.47 0 0.06 1.78 1.94 0 0.21 -5.11 -2.31 0 0.09 2.28 -1.44 0 0.06 -2.31 -2.37 0zm8.98 0.07l0.21 5.1 5.47 0 0.03 -0.95 -3.44 0 0 -0.87 2.53 0 0.03 -1.02 -2.53 0 0 -0.86 3.53 0 0.06 -1.41 -5.9 0zm-2.27 2.31l0.03 0.95 1.43 0 0 -0.95 -1.46 0zm8.86 0.98l1.4 0 0 -0.98 -1.4 0 0 0.98zm2.44 1.85l3.84 0.01c0.57,0 1.64,-0.08 1.64,-1.3 0,-0.62 -0.27,-0.86 -0.7,-0.97l-0 -0.04c0.27,-0.02 1,-0.36 1,-1.36 0,-0.91 -0.66,-1.47 -1.53,-1.47l-4.46 0 0.21 5.14zm3.79 2.03l-20.63 0c-2.7,0 -4.63,-2.02 -4.63,-4.6 0,-2.58 1.94,-4.67 4.63,-4.67l-0.07 0 20.52 0 0.18 -0c2.7,0 4.72,2.09 4.72,4.67 0,2.58 -2.02,4.6 -4.71,4.6z"/>
    <path class="fil3" d="M34.47 23.15c0.25,0 0.45,-0.21 0.45,-0.49 0,-0.28 -0.21,-0.49 -0.45,-0.49 -0.25,0 -0.46,0.21 -0.46,0.49 0,0.28 0.21,0.49 0.46,0.49zm-0.37 -0.49c0,-0.23 0.16,-0.41 0.37,-0.41 0.2,0 0.37,0.17 0.37,0.41 0,0.24 -0.16,0.41 -0.37,0.41 -0.21,0 -0.37,-0.17 -0.37,-0.41zm0.27 0.04l0.09 0 0.14 0.24 0.09 0 -0.15 -0.25c0.08,-0.01 0.13,-0.05 0.13,-0.15 0,-0.11 -0.06,-0.16 -0.18,-0.16l-0.2 0 0 0.56 0.08 0 0 -0.24zm0 -0.07l0 -0.17 0.11 0c0.05,0 0.11,0.01 0.11,0.08 0,0.08 -0.06,0.09 -0.13,0.09l-0.09 0z"/>
    <path class="fil2" d="M27.22 20.13l0 -0.94 0.81 0c0.24,0 0.48,0.15 0.48,0.46 0,0.3 -0.31,0.48 -0.63,0.48l-0.65 0z"/>
    <path class="fil2" d="M27.23 18.32l0 -1.08 0.81 0c0.32,0 0.64,0.2 0.64,0.56 0,0.3 -0.37,0.53 -0.71,0.52 -0.28,-0.01 -0.74,0 -0.74,0z"/>
   </g>
  </g>
 </g>
</svg>
