<?xml version="1.0" encoding="UTF-8"?>
<!DOCTYPE svg PUBLIC "-//W3C//DTD SVG 1.1//EN" "http://www.w3.org/Graphics/SVG/1.1/DTD/svg11.dtd">
<!-- Creator: CorelDRAW -->
<svg xmlns="http://www.w3.org/2000/svg" xml:space="preserve" width="16.7872mm" height="16.7871mm" version="1.1" style="shape-rendering:geometricPrecision; text-rendering:geometricPrecision; image-rendering:optimizeQuality; fill-rule:evenodd; clip-rule:evenodd"
viewBox="0 0 34.7 34.7"
 xmlns:xlink="http://www.w3.org/1999/xlink"
 xmlns:xodm="http://www.corel.com/coreldraw/odm/2003">
 <defs>
  <style type="text/css">
   <![CDATA[
    .fil0 {fill:none}
    .fil2 {fill:#FEFEFE;fill-rule:nonzero}
    .fil19 {fill:#F58340;fill-rule:nonzero}
    .fil3 {fill:#F7FBFE;fill-rule:nonzero}
    .fil4 {fill:#F7F5F5;fill-rule:nonzero}
    .fil5 {fill:#F1F3F4;fill-rule:nonzero}
    .fil6 {fill:#F1EFEE;fill-rule:nonzero}
    .fil7 {fill:#EEEEEE;fill-rule:nonzero}
    .fil8 {fill:#EAECED;fill-rule:nonzero}
    .fil9 {fill:#EAEAEA;fill-rule:nonzero}
    .fil10 {fill:#EAEAE9;fill-rule:nonzero}
    .fil11 {fill:#EAE9E6;fill-rule:nonzero}
    .fil12 {fill:#E5E8E6;fill-rule:nonzero}
    .fil13 {fill:#E2E3E3;fill-rule:nonzero}
    .fil14 {fill:#E2E3E0;fill-rule:nonzero}
    .fil15 {fill:#E0E1E0;fill-rule:nonzero}
    .fil16 {fill:#DEE0DD;fill-rule:nonzero}
    .fil17 {fill:#DCDDDC;fill-rule:nonzero}
    .fil18 {fill:#D9DCDA;fill-rule:nonzero}
    .fil1 {fill:#87C65D;fill-rule:nonzero}
   ]]>
  </style>
 </defs>
 <g id="Capa_x0020_1">
  <metadata id="CorelCorpID_0Corel-Layer"/>
  <g id="_2491980468272">
   <circle class="fil0" cx="17.35" cy="17.35" r="17.35"/>
   <g>
    <polygon class="fil1" points="3.57,14.65 3.57,18.93 2.53,18.93 2.53,14.65 "/>
    <path class="fil1" d="M5.09 17.37c-0.16,0.12 -0.25,0.21 -0.28,0.29 -0.03,0.08 -0.04,0.19 -0.04,0.34 0,0.17 0.01,0.28 0.03,0.33 0.02,0.05 0.07,0.07 0.13,0.07 0.06,0 0.1,-0.02 0.12,-0.06 0.02,-0.04 0.03,-0.14 0.03,-0.31l0 -0.67zm-0.32 -0.45l-0.94 0 0 -0.22c0,-0.25 0.03,-0.45 0.09,-0.59 0.06,-0.14 0.18,-0.26 0.35,-0.36 0.18,-0.11 0.4,-0.16 0.69,-0.16 0.34,0 0.59,0.06 0.76,0.18 0.17,0.12 0.27,0.27 0.31,0.44 0.03,0.17 0.05,0.53 0.05,1.07l0 1.64 -0.97 0 -0 -0.29c-0.06,0.12 -0.14,0.21 -0.24,0.26 -0.1,0.06 -0.21,0.09 -0.34,0.09 -0.17,0 -0.33,-0.05 -0.48,-0.15 -0.15,-0.1 -0.22,-0.31 -0.22,-0.64l0 -0.27c0,-0.25 0.04,-0.41 0.12,-0.5 0.08,-0.09 0.27,-0.19 0.58,-0.31 0.33,-0.13 0.5,-0.21 0.53,-0.26 0.02,-0.04 0.03,-0.13 0.03,-0.27 0,-0.17 -0.01,-0.28 -0.04,-0.33 -0.03,-0.05 -0.07,-0.08 -0.13,-0.08 -0.07,0 -0.11,0.02 -0.13,0.07 -0.02,0.04 -0.02,0.16 -0.02,0.34l0 0.34z"/>
    <path class="fil1" d="M9.78 17.03l-1.4 0 0 -0.93c0,-0.27 -0.02,-0.44 -0.04,-0.51 -0.03,-0.07 -0.1,-0.1 -0.2,-0.1 -0.11,0 -0.19,0.04 -0.22,0.12 -0.03,0.08 -0.05,0.26 -0.05,0.53l0 2.5c0,0.26 0.02,0.43 0.05,0.51 0.03,0.08 0.1,0.12 0.21,0.12 0.1,0 0.17,-0.04 0.2,-0.12 0.03,-0.08 0.05,-0.27 0.05,-0.56l0 -0.68 1.4 0 0 0.21c0,0.56 -0.04,0.95 -0.12,1.18 -0.08,0.23 -0.25,0.44 -0.52,0.61 -0.27,0.17 -0.6,0.26 -0.99,0.26 -0.41,0 -0.75,-0.07 -1.01,-0.22 -0.27,-0.15 -0.44,-0.35 -0.53,-0.62 -0.09,-0.26 -0.13,-0.66 -0.13,-1.18l0 -1.57c0,-0.39 0.01,-0.68 0.04,-0.87 0.03,-0.19 0.11,-0.38 0.24,-0.56 0.13,-0.18 0.31,-0.32 0.55,-0.42 0.23,-0.1 0.5,-0.15 0.81,-0.15 0.41,0 0.75,0.08 1.02,0.24 0.27,0.16 0.44,0.36 0.53,0.6 0.08,0.24 0.13,0.61 0.13,1.11l0 0.51z"/>
    <path class="fil1" d="M11.79 16.87c0,-0.23 -0.01,-0.37 -0.04,-0.43 -0.02,-0.06 -0.08,-0.09 -0.16,-0.09 -0.08,0 -0.13,0.03 -0.16,0.09 -0.03,0.06 -0.04,0.2 -0.04,0.43l0 1.99c0,0.21 0.01,0.34 0.04,0.41 0.03,0.06 0.08,0.09 0.16,0.09 0.08,0 0.13,-0.03 0.16,-0.09 0.03,-0.06 0.04,-0.18 0.04,-0.37l0 -2.03zm1.34 0.33l0 1.08c0,0.4 -0.02,0.69 -0.06,0.87 -0.04,0.18 -0.13,0.36 -0.26,0.52 -0.13,0.16 -0.3,0.28 -0.5,0.36 -0.2,0.08 -0.44,0.11 -0.71,0.11 -0.3,0 -0.55,-0.03 -0.75,-0.1 -0.21,-0.07 -0.37,-0.16 -0.48,-0.3 -0.11,-0.13 -0.2,-0.29 -0.24,-0.48 -0.05,-0.19 -0.07,-0.47 -0.07,-0.84l0 -1.13c0,-0.41 0.04,-0.73 0.13,-0.96 0.09,-0.23 0.25,-0.41 0.48,-0.55 0.23,-0.14 0.52,-0.21 0.88,-0.21 0.3,0 0.56,0.04 0.78,0.13 0.22,0.09 0.38,0.21 0.5,0.35 0.12,0.14 0.2,0.29 0.24,0.44 0.04,0.15 0.06,0.39 0.06,0.7z"/>
    <path class="fil1" d="M14.77 15.65l-0.02 0.42c0.1,-0.17 0.23,-0.29 0.37,-0.37 0.14,-0.08 0.31,-0.12 0.49,-0.12 0.36,0 0.64,0.17 0.85,0.5 0.11,-0.17 0.24,-0.29 0.38,-0.37 0.14,-0.08 0.3,-0.12 0.47,-0.12 0.23,0 0.42,0.06 0.57,0.17 0.15,0.11 0.25,0.25 0.29,0.41 0.04,0.16 0.06,0.42 0.06,0.78l0 3.13 -1.3 0 -0 -2.87c0,-0.38 -0.01,-0.61 -0.04,-0.7 -0.03,-0.09 -0.08,-0.13 -0.18,-0.13 -0.1,0 -0.16,0.04 -0.18,0.13 -0.03,0.09 -0.04,0.32 -0.04,0.7l0 2.87 -1.3 0 0 -2.8c0,-0.43 -0.01,-0.69 -0.03,-0.78 -0.02,-0.09 -0.08,-0.13 -0.17,-0.13 -0.06,0 -0.11,0.02 -0.15,0.07 -0.04,0.05 -0.07,0.1 -0.07,0.17 -0,0.07 -0.01,0.2 -0.01,0.42l0 3.05 -1.3 0 0 -4.41 1.32 0z"/>
    <path class="fil1" d="M20.26 17.22l0 -0.32c0,-0.23 -0.01,-0.38 -0.04,-0.44 -0.02,-0.07 -0.07,-0.1 -0.15,-0.1 -0.09,0 -0.15,0.03 -0.17,0.08 -0.02,0.06 -0.03,0.21 -0.03,0.46l0 0.32 0.39 0zm1.34 0.72l-1.74 0 0 0.95c0,0.2 0.01,0.33 0.04,0.39 0.03,0.06 0.08,0.09 0.17,0.09 0.1,0 0.17,-0.04 0.2,-0.11 0.03,-0.08 0.05,-0.22 0.05,-0.44l0 -0.58 1.27 0 0 0.33c0,0.27 -0.02,0.48 -0.05,0.63 -0.03,0.15 -0.11,0.3 -0.24,0.47 -0.13,0.17 -0.29,0.29 -0.48,0.37 -0.19,0.08 -0.44,0.12 -0.73,0.12 -0.28,0 -0.53,-0.04 -0.75,-0.12 -0.22,-0.08 -0.39,-0.19 -0.51,-0.34 -0.12,-0.14 -0.2,-0.3 -0.25,-0.47 -0.05,-0.17 -0.07,-0.42 -0.07,-0.75l0 -1.28c0,-0.39 0.05,-0.69 0.16,-0.91 0.1,-0.22 0.27,-0.39 0.51,-0.51 0.24,-0.12 0.51,-0.18 0.82,-0.18 0.38,0 0.69,0.07 0.93,0.21 0.24,0.14 0.42,0.33 0.51,0.57 0.1,0.24 0.15,0.57 0.15,0.99l0 0.58z"/>
    <path class="fil1" d="M23.25 15.65l-0.05 0.58c0.19,-0.42 0.48,-0.63 0.85,-0.66l0 1.55c-0.25,0 -0.43,0.03 -0.54,0.1 -0.12,0.07 -0.19,0.16 -0.21,0.28 -0.03,0.12 -0.04,0.39 -0.04,0.82l0 1.74 -1.34 0 0 -4.41 1.34 0z"/>
    <path class="fil2" d="M28.4 14.29c-1,0 -1.94,0.31 -2.64,0.88 -0.72,0.58 -1.12,1.35 -1.12,2.18 0,0.83 0.4,1.6 1.12,2.18 0.71,0.57 1.65,0.88 2.64,0.88 1,0 1.94,-0.31 2.64,-0.88 0.72,-0.58 1.12,-1.35 1.12,-2.18 0,-0.83 -0.4,-1.6 -1.12,-2.18 -0.71,-0.57 -1.65,-0.88 -2.64,-0.88zm0 6.11c-1,0 -1.93,-0.31 -2.64,-0.88 -0.72,-0.58 -1.12,-1.35 -1.12,-2.18 0,-0.83 0.4,-1.6 1.12,-2.18 0.71,-0.57 1.65,-0.88 2.64,-0.88 1,0 1.93,0.31 2.64,0.88 0.72,0.58 1.12,1.35 1.12,2.18 0,0.83 -0.4,1.6 -1.12,2.18 -0.71,0.57 -1.65,0.88 -2.64,0.88z"/>
    <path class="fil2" d="M28.4 14.29c-1,0 -1.93,0.31 -2.64,0.88 -0.72,0.58 -1.12,1.35 -1.12,2.18 0,0.83 0.4,1.6 1.12,2.18 0.71,0.57 1.65,0.88 2.64,0.88 1,0 1.93,-0.31 2.64,-0.88 0.72,-0.58 1.12,-1.35 1.12,-2.18 0,-0.83 -0.4,-1.6 -1.12,-2.18 -0.71,-0.57 -1.65,-0.88 -2.64,-0.88zm0 6.1c-1,0 -1.93,-0.31 -2.64,-0.88 -0.72,-0.58 -1.12,-1.35 -1.12,-2.17 0,-0.83 0.4,-1.6 1.12,-2.17 0.71,-0.57 1.65,-0.88 2.64,-0.88 1,0 1.93,0.31 2.64,0.88 0.72,0.58 1.12,1.35 1.12,2.17 0,0.82 -0.4,1.6 -1.12,2.17 -0.71,0.57 -1.65,0.88 -2.64,0.88z"/>
    <path class="fil2" d="M28.4 14.3c-1,0 -1.93,0.31 -2.64,0.88 -0.72,0.58 -1.12,1.35 -1.12,2.17 0,0.82 0.4,1.6 1.12,2.17 0.71,0.57 1.65,0.88 2.64,0.88 1,0 1.93,-0.31 2.64,-0.88 0.72,-0.58 1.12,-1.35 1.12,-2.17 0,-0.82 -0.4,-1.6 -1.12,-2.17 -0.71,-0.57 -1.65,-0.88 -2.64,-0.88zm0 6.1c-0.99,0 -1.93,-0.31 -2.64,-0.88 -0.72,-0.58 -1.12,-1.35 -1.12,-2.17 0,-0.82 0.4,-1.6 1.12,-2.17 0.71,-0.57 1.64,-0.88 2.64,-0.88 0.99,0 1.93,0.31 2.64,0.88 0.72,0.58 1.12,1.35 1.12,2.17 0,0.82 -0.4,1.6 -1.12,2.17 -0.71,0.56 -1.64,0.88 -2.64,0.88z"/>
    <path class="fil3" d="M28.4 14.3c-0.99,0 -1.93,0.31 -2.64,0.88 -0.72,0.58 -1.12,1.35 -1.12,2.17 0,0.82 0.4,1.6 1.12,2.17 0.71,0.56 1.64,0.88 2.64,0.88 0.99,0 1.93,-0.31 2.64,-0.88 0.72,-0.58 1.12,-1.35 1.12,-2.17 0,-0.82 -0.4,-1.6 -1.12,-2.17 -0.71,-0.57 -1.64,-0.88 -2.64,-0.88zm0 6.09c-0.99,0 -1.93,-0.31 -2.64,-0.88 -0.72,-0.58 -1.12,-1.35 -1.12,-2.17 0,-0.82 0.4,-1.59 1.12,-2.17 0.71,-0.56 1.64,-0.88 2.64,-0.88 0.99,0 1.93,0.31 2.64,0.88 0.72,0.58 1.12,1.35 1.12,2.17 0,0.82 -0.4,1.59 -1.12,2.17 -0.71,0.56 -1.64,0.88 -2.64,0.88z"/>
    <path class="fil3" d="M28.4 14.3c-0.99,0 -1.93,0.31 -2.64,0.88 -0.72,0.58 -1.12,1.35 -1.12,2.17 0,0.82 0.4,1.59 1.12,2.17 0.71,0.56 1.64,0.88 2.64,0.88 0.99,0 1.93,-0.31 2.64,-0.88 0.72,-0.58 1.12,-1.35 1.12,-2.17 0,-0.82 -0.4,-1.59 -1.12,-2.17 -0.71,-0.56 -1.64,-0.88 -2.64,-0.88zm0 6.09c-0.99,0 -1.93,-0.31 -2.64,-0.87 -0.72,-0.58 -1.12,-1.35 -1.12,-2.17 0,-0.82 0.4,-1.59 1.12,-2.17 0.71,-0.56 1.64,-0.87 2.64,-0.87 0.99,0 1.93,0.31 2.64,0.87 0.72,0.58 1.12,1.35 1.12,2.17 0,0.82 -0.4,1.59 -1.12,2.17 -0.71,0.56 -1.64,0.87 -2.64,0.87z"/>
    <path class="fil4" d="M28.4 14.3c-0.99,0 -1.93,0.31 -2.64,0.87 -0.72,0.58 -1.12,1.35 -1.12,2.17 0,0.82 0.4,1.59 1.12,2.17 0.71,0.56 1.64,0.87 2.64,0.87 0.99,0 1.93,-0.31 2.64,-0.87 0.72,-0.58 1.12,-1.35 1.12,-2.17 0,-0.82 -0.4,-1.59 -1.12,-2.17 -0.71,-0.56 -1.64,-0.87 -2.64,-0.87zm0 6.09c-0.99,0 -1.93,-0.31 -2.63,-0.87 -0.72,-0.58 -1.12,-1.35 -1.12,-2.17 0,-0.82 0.4,-1.59 1.12,-2.17 0.71,-0.56 1.64,-0.87 2.63,-0.87 0.99,0 1.93,0.31 2.63,0.87 0.72,0.58 1.12,1.35 1.12,2.17 0,0.82 -0.4,1.59 -1.12,2.17 -0.71,0.56 -1.64,0.87 -2.63,0.87z"/>
    <path class="fil5" d="M28.4 14.31c-0.99,0 -1.93,0.31 -2.63,0.87 -0.72,0.58 -1.12,1.35 -1.12,2.17 0,0.82 0.4,1.59 1.12,2.17 0.71,0.56 1.64,0.87 2.63,0.87 0.99,0 1.93,-0.31 2.63,-0.87 0.72,-0.58 1.12,-1.35 1.12,-2.17 0,-0.82 -0.4,-1.59 -1.12,-2.17 -0.71,-0.56 -1.64,-0.87 -2.63,-0.87zm0 6.08c-0.99,0 -1.93,-0.31 -2.63,-0.87 -0.72,-0.57 -1.12,-1.34 -1.12,-2.17 0,-0.82 0.4,-1.59 1.12,-2.17 0.71,-0.56 1.64,-0.87 2.63,-0.87 0.99,0 1.93,0.31 2.63,0.87 0.72,0.57 1.12,1.34 1.12,2.17 0,0.82 -0.4,1.59 -1.12,2.17 -0.71,0.56 -1.64,0.87 -2.63,0.87z"/>
    <path class="fil5" d="M28.4 14.31c-0.99,0 -1.93,0.31 -2.63,0.87 -0.72,0.57 -1.12,1.34 -1.12,2.17 0,0.82 0.4,1.59 1.12,2.17 0.71,0.56 1.64,0.87 2.63,0.87 0.99,0 1.93,-0.31 2.63,-0.87 0.72,-0.57 1.12,-1.34 1.12,-2.17 0,-0.82 -0.4,-1.59 -1.12,-2.17 -0.71,-0.56 -1.64,-0.87 -2.63,-0.87zm0 6.08c-0.99,0 -1.93,-0.31 -2.63,-0.87 -0.72,-0.57 -1.12,-1.34 -1.12,-2.16 0,-0.82 0.4,-1.59 1.12,-2.16 0.71,-0.56 1.64,-0.87 2.63,-0.87 0.99,0 1.93,0.31 2.63,0.87 0.72,0.57 1.12,1.34 1.12,2.16 0,0.82 -0.4,1.59 -1.12,2.16 -0.71,0.56 -1.64,0.87 -2.63,0.87z"/>
    <path class="fil5" d="M28.4 14.31c-0.99,0 -1.93,0.31 -2.63,0.87 -0.72,0.57 -1.12,1.34 -1.12,2.16 0,0.82 0.4,1.59 1.12,2.16 0.71,0.56 1.64,0.87 2.63,0.87 0.99,0 1.93,-0.31 2.63,-0.87 0.72,-0.57 1.12,-1.34 1.12,-2.16 0,-0.82 -0.4,-1.59 -1.12,-2.16 -0.71,-0.56 -1.64,-0.87 -2.63,-0.87zm0 6.07c-0.99,0 -1.93,-0.31 -2.63,-0.87 -0.72,-0.57 -1.11,-1.34 -1.11,-2.16 0,-0.82 0.4,-1.59 1.11,-2.16 0.7,-0.56 1.64,-0.87 2.63,-0.87 0.99,0 1.93,0.31 2.63,0.87 0.72,0.57 1.11,1.34 1.11,2.16 0,0.82 -0.4,1.59 -1.11,2.16 -0.7,0.56 -1.64,0.87 -2.63,0.87z"/>
    <path class="fil5" d="M28.4 14.31c-0.99,0 -1.93,0.31 -2.63,0.87 -0.72,0.57 -1.11,1.34 -1.11,2.16 0,0.82 0.4,1.59 1.11,2.16 0.7,0.56 1.64,0.87 2.63,0.87 0.99,0 1.93,-0.31 2.63,-0.87 0.72,-0.57 1.11,-1.34 1.11,-2.16 0,-0.82 -0.4,-1.59 -1.11,-2.16 -0.7,-0.56 -1.64,-0.87 -2.63,-0.87zm0 6.07c-0.99,0 -1.92,-0.31 -2.63,-0.87 -0.72,-0.57 -1.11,-1.34 -1.11,-2.16 0,-0.82 0.4,-1.59 1.11,-2.16 0.7,-0.56 1.64,-0.87 2.63,-0.87 0.99,0 1.92,0.31 2.63,0.87 0.72,0.57 1.11,1.34 1.11,2.16 0,0.82 -0.4,1.59 -1.11,2.16 -0.7,0.56 -1.64,0.87 -2.63,0.87z"/>
    <path class="fil6" d="M28.4 14.32c-0.99,0 -1.92,0.31 -2.63,0.87 -0.72,0.57 -1.11,1.34 -1.11,2.16 0,0.82 0.4,1.59 1.11,2.16 0.7,0.56 1.64,0.87 2.63,0.87 0.99,0 1.92,-0.31 2.63,-0.87 0.72,-0.57 1.11,-1.34 1.11,-2.16 0,-0.82 -0.4,-1.59 -1.11,-2.16 -0.7,-0.56 -1.64,-0.87 -2.63,-0.87zm0 6.06c-0.99,0 -1.92,-0.31 -2.63,-0.87 -0.72,-0.57 -1.11,-1.34 -1.11,-2.16 0,-0.82 0.4,-1.58 1.11,-2.16 0.7,-0.56 1.64,-0.87 2.63,-0.87 0.99,0 1.92,0.31 2.63,0.87 0.72,0.57 1.11,1.34 1.11,2.16 0,0.82 -0.4,1.58 -1.11,2.16 -0.7,0.56 -1.64,0.87 -2.63,0.87z"/>
    <path class="fil7" d="M28.4 14.32c-0.99,0 -1.92,0.31 -2.63,0.87 -0.72,0.57 -1.11,1.34 -1.11,2.16 0,0.82 0.4,1.58 1.11,2.16 0.7,0.56 1.64,0.87 2.63,0.87 0.99,0 1.92,-0.31 2.63,-0.87 0.72,-0.57 1.11,-1.34 1.11,-2.16 0,-0.82 -0.4,-1.58 -1.11,-2.16 -0.7,-0.56 -1.64,-0.87 -2.63,-0.87zm0 6.06c-0.99,0 -1.92,-0.31 -2.63,-0.87 -0.72,-0.57 -1.11,-1.34 -1.11,-2.16 0,-0.82 0.39,-1.58 1.11,-2.16 0.7,-0.56 1.64,-0.87 2.63,-0.87 0.99,0 1.92,0.31 2.63,0.87 0.72,0.57 1.11,1.34 1.11,2.16 0,0.82 -0.39,1.58 -1.11,2.16 -0.7,0.56 -1.64,0.87 -2.63,0.87z"/>
    <path class="fil7" d="M28.4 14.32c-0.99,0 -1.92,0.31 -2.63,0.87 -0.72,0.57 -1.11,1.34 -1.11,2.16 0,0.82 0.39,1.58 1.11,2.16 0.7,0.56 1.64,0.87 2.63,0.87 0.99,0 1.92,-0.31 2.63,-0.87 0.72,-0.57 1.11,-1.34 1.11,-2.16 0,-0.82 -0.39,-1.58 -1.11,-2.16 -0.7,-0.56 -1.64,-0.87 -2.63,-0.87zm0 6.05c-0.99,0 -1.92,-0.31 -2.62,-0.87 -0.72,-0.57 -1.11,-1.34 -1.11,-2.15 0,-0.82 0.39,-1.58 1.11,-2.15 0.7,-0.56 1.64,-0.87 2.62,-0.87 0.99,0 1.92,0.31 2.62,0.87 0.72,0.57 1.11,1.34 1.11,2.15 0,0.82 -0.39,1.58 -1.11,2.15 -0.7,0.56 -1.64,0.87 -2.62,0.87z"/>
    <path class="fil7" d="M28.4 14.32c-0.99,0 -1.92,0.31 -2.62,0.87 -0.72,0.57 -1.11,1.34 -1.11,2.15 0,0.82 0.39,1.58 1.11,2.15 0.7,0.56 1.64,0.87 2.62,0.87 0.99,0 1.92,-0.31 2.62,-0.87 0.72,-0.57 1.11,-1.34 1.11,-2.15 0,-0.82 -0.39,-1.58 -1.11,-2.15 -0.7,-0.56 -1.64,-0.87 -2.62,-0.87zm0 6.05c-0.99,0 -1.92,-0.31 -2.62,-0.87 -0.72,-0.57 -1.11,-1.34 -1.11,-2.15 0,-0.82 0.39,-1.58 1.11,-2.15 0.7,-0.56 1.63,-0.87 2.62,-0.87 0.99,0 1.92,0.31 2.62,0.87 0.72,0.57 1.11,1.34 1.11,2.15 0,0.82 -0.39,1.58 -1.11,2.15 -0.7,0.56 -1.63,0.87 -2.62,0.87z"/>
    <path class="fil7" d="M28.4 14.33c-0.99,0 -1.92,0.31 -2.62,0.87 -0.72,0.57 -1.11,1.34 -1.11,2.15 0,0.82 0.39,1.58 1.11,2.15 0.7,0.56 1.63,0.87 2.62,0.87 0.99,0 1.92,-0.31 2.62,-0.87 0.72,-0.57 1.11,-1.34 1.11,-2.15 0,-0.82 -0.39,-1.58 -1.11,-2.15 -0.7,-0.56 -1.63,-0.87 -2.62,-0.87zm0 6.04c-0.99,0 -1.92,-0.31 -2.62,-0.87 -0.72,-0.57 -1.11,-1.34 -1.11,-2.15 0,-0.82 0.39,-1.58 1.11,-2.15 0.7,-0.56 1.63,-0.87 2.62,-0.87 0.99,0 1.92,0.31 2.62,0.87 0.72,0.57 1.11,1.33 1.11,2.15 0,0.82 -0.39,1.58 -1.11,2.15 -0.7,0.56 -1.63,0.87 -2.62,0.87z"/>
    <path class="fil8" d="M28.4 14.33c-0.99,0 -1.92,0.31 -2.62,0.87 -0.72,0.57 -1.11,1.33 -1.11,2.15 0,0.82 0.39,1.58 1.11,2.15 0.7,0.56 1.63,0.87 2.62,0.87 0.99,0 1.92,-0.31 2.62,-0.87 0.72,-0.57 1.11,-1.34 1.11,-2.15 0,-0.82 -0.39,-1.58 -1.11,-2.15 -0.7,-0.56 -1.63,-0.87 -2.62,-0.87zm0 6.04c-0.99,0 -1.92,-0.31 -2.62,-0.87 -0.72,-0.57 -1.11,-1.33 -1.11,-2.15 0,-0.81 0.39,-1.58 1.11,-2.15 0.7,-0.56 1.63,-0.87 2.62,-0.87 0.99,0 1.92,0.31 2.62,0.87 0.71,0.57 1.11,1.33 1.11,2.15 0,0.81 -0.39,1.58 -1.11,2.15 -0.7,0.56 -1.63,0.87 -2.62,0.87z"/>
    <path class="fil9" d="M28.4 14.33c-0.99,0 -1.92,0.31 -2.62,0.87 -0.72,0.57 -1.11,1.33 -1.11,2.15 0,0.81 0.39,1.58 1.11,2.15 0.7,0.56 1.63,0.87 2.62,0.87 0.99,0 1.92,-0.31 2.62,-0.87 0.71,-0.57 1.11,-1.33 1.11,-2.15 0,-0.81 -0.39,-1.58 -1.11,-2.15 -0.7,-0.56 -1.63,-0.87 -2.62,-0.87zm0 6.03c-0.99,0 -1.92,-0.31 -2.62,-0.87 -0.71,-0.57 -1.11,-1.33 -1.11,-2.15 0,-0.81 0.39,-1.58 1.11,-2.15 0.7,-0.56 1.63,-0.87 2.62,-0.87 0.99,0 1.92,0.31 2.62,0.87 0.71,0.57 1.11,1.33 1.11,2.15 0,0.81 -0.39,1.58 -1.11,2.15 -0.7,0.56 -1.63,0.87 -2.62,0.87z"/>
    <path class="fil9" d="M28.4 14.33c-0.99,0 -1.92,0.31 -2.62,0.87 -0.71,0.57 -1.11,1.33 -1.11,2.15 0,0.81 0.39,1.58 1.11,2.15 0.7,0.56 1.63,0.87 2.62,0.87 0.99,0 1.92,-0.31 2.62,-0.87 0.71,-0.57 1.11,-1.33 1.11,-2.15 0,-0.81 -0.39,-1.58 -1.11,-2.15 -0.7,-0.56 -1.63,-0.87 -2.62,-0.87zm0 6.03c-0.99,0 -1.92,-0.31 -2.62,-0.87 -0.71,-0.57 -1.11,-1.33 -1.11,-2.14 0,-0.81 0.39,-1.57 1.11,-2.14 0.7,-0.56 1.63,-0.87 2.62,-0.87 0.99,0 1.92,0.31 2.62,0.87 0.71,0.57 1.11,1.33 1.11,2.14 0,0.81 -0.39,1.57 -1.11,2.14 -0.7,0.56 -1.63,0.87 -2.62,0.87z"/>
    <path class="fil9" d="M28.4 14.33c-0.99,0 -1.92,0.31 -2.62,0.87 -0.71,0.57 -1.11,1.33 -1.11,2.14 0,0.81 0.39,1.57 1.11,2.14 0.7,0.56 1.63,0.87 2.62,0.87 0.99,0 1.92,-0.31 2.62,-0.87 0.71,-0.57 1.11,-1.33 1.11,-2.14 0,-0.81 -0.39,-1.57 -1.11,-2.14 -0.7,-0.56 -1.63,-0.87 -2.62,-0.87zm0 6.02c-0.99,0 -1.92,-0.31 -2.62,-0.87 -0.71,-0.57 -1.11,-1.33 -1.11,-2.14 0,-0.81 0.39,-1.57 1.11,-2.14 0.7,-0.56 1.63,-0.87 2.62,-0.87 0.99,0 1.92,0.31 2.62,0.87 0.71,0.57 1.11,1.33 1.11,2.14 0,0.81 -0.39,1.57 -1.11,2.14 -0.7,0.56 -1.63,0.87 -2.62,0.87z"/>
    <path class="fil10" d="M28.4 14.34c-0.99,0 -1.92,0.31 -2.62,0.87 -0.71,0.57 -1.11,1.33 -1.11,2.14 0,0.81 0.39,1.57 1.11,2.14 0.7,0.56 1.63,0.87 2.62,0.87 0.99,0 1.92,-0.31 2.62,-0.87 0.71,-0.57 1.11,-1.33 1.11,-2.14 0,-0.81 -0.39,-1.57 -1.11,-2.14 -0.7,-0.56 -1.63,-0.87 -2.62,-0.87zm0 6.02c-0.99,0 -1.91,-0.31 -2.61,-0.87 -0.71,-0.57 -1.1,-1.33 -1.1,-2.14 0,-0.81 0.39,-1.57 1.1,-2.14 0.7,-0.56 1.63,-0.87 2.61,-0.87 0.99,0 1.91,0.31 2.61,0.87 0.71,0.57 1.1,1.33 1.1,2.14 0,0.81 -0.39,1.57 -1.1,2.14 -0.7,0.56 -1.63,0.87 -2.61,0.87z"/>
    <path class="fil11" d="M28.4 14.34c-0.99,0 -1.91,0.31 -2.61,0.87 -0.71,0.57 -1.1,1.33 -1.1,2.14 0,0.81 0.39,1.57 1.1,2.14 0.7,0.56 1.63,0.87 2.61,0.87 0.99,0 1.91,-0.31 2.61,-0.87 0.71,-0.57 1.1,-1.33 1.1,-2.14 0,-0.81 -0.39,-1.57 -1.1,-2.14 -0.7,-0.56 -1.63,-0.87 -2.61,-0.87zm0 6.01c-0.99,0 -1.91,-0.31 -2.61,-0.87 -0.71,-0.57 -1.1,-1.33 -1.1,-2.14 0,-0.81 0.39,-1.57 1.1,-2.14 0.7,-0.56 1.63,-0.87 2.61,-0.87 0.99,0 1.91,0.31 2.61,0.87 0.71,0.57 1.1,1.33 1.1,2.14 0,0.81 -0.39,1.57 -1.1,2.14 -0.7,0.56 -1.63,0.87 -2.61,0.87z"/>
    <path class="fil12" d="M28.4 14.34c-0.99,0 -1.91,0.31 -2.61,0.87 -0.71,0.57 -1.1,1.33 -1.1,2.14 0,0.81 0.39,1.57 1.1,2.14 0.7,0.56 1.63,0.87 2.61,0.87 0.99,0 1.91,-0.31 2.61,-0.87 0.71,-0.57 1.1,-1.33 1.1,-2.14 0,-0.81 -0.39,-1.57 -1.1,-2.14 -0.7,-0.56 -1.63,-0.87 -2.61,-0.87zm0 6.01c-0.98,0 -1.91,-0.31 -2.61,-0.87 -0.71,-0.57 -1.1,-1.33 -1.1,-2.14 0,-0.81 0.39,-1.57 1.1,-2.14 0.7,-0.56 1.63,-0.87 2.61,-0.87 0.98,0 1.91,0.31 2.61,0.87 0.71,0.57 1.1,1.33 1.1,2.14 0,0.81 -0.39,1.57 -1.1,2.14 -0.7,0.56 -1.63,0.87 -2.61,0.87z"/>
    <path class="fil12" d="M28.4 14.34c-0.98,0 -1.91,0.31 -2.61,0.87 -0.71,0.57 -1.1,1.33 -1.1,2.14 0,0.81 0.39,1.57 1.1,2.14 0.7,0.56 1.63,0.87 2.61,0.87 0.98,0 1.91,-0.31 2.61,-0.87 0.71,-0.57 1.1,-1.33 1.1,-2.14 0,-0.81 -0.39,-1.57 -1.1,-2.14 -0.7,-0.56 -1.63,-0.87 -2.61,-0.87zm0 6c-0.98,0 -1.91,-0.31 -2.61,-0.87 -0.71,-0.57 -1.1,-1.33 -1.1,-2.14 0,-0.81 0.39,-1.57 1.1,-2.14 0.7,-0.56 1.63,-0.87 2.61,-0.87 0.98,0 1.91,0.31 2.61,0.87 0.71,0.57 1.1,1.33 1.1,2.14 0,0.81 -0.39,1.57 -1.1,2.14 -0.7,0.56 -1.63,0.87 -2.61,0.87z"/>
    <path class="fil12" d="M28.4 14.35c-0.98,0 -1.91,0.31 -2.61,0.87 -0.71,0.57 -1.1,1.33 -1.1,2.14 0,0.81 0.39,1.57 1.1,2.14 0.7,0.56 1.63,0.87 2.61,0.87 0.98,0 1.91,-0.31 2.61,-0.87 0.71,-0.57 1.1,-1.33 1.1,-2.14 0,-0.81 -0.39,-1.57 -1.1,-2.14 -0.7,-0.56 -1.63,-0.87 -2.61,-0.87zm0 6c-0.98,0 -1.91,-0.31 -2.61,-0.86 -0.71,-0.57 -1.1,-1.32 -1.1,-2.13 0,-0.81 0.39,-1.57 1.1,-2.13 0.7,-0.56 1.62,-0.87 2.61,-0.87 0.98,0 1.91,0.31 2.61,0.87 0.71,0.57 1.1,1.33 1.1,2.13 0,0.81 -0.39,1.57 -1.1,2.13 -0.7,0.56 -1.62,0.86 -2.61,0.86z"/>
    <path class="fil13" d="M28.4 14.35c-0.98,0 -1.91,0.31 -2.61,0.87 -0.71,0.57 -1.1,1.33 -1.1,2.13 0,0.81 0.39,1.57 1.1,2.13 0.7,0.56 1.62,0.86 2.61,0.86 0.98,0 1.91,-0.31 2.61,-0.86 0.71,-0.57 1.1,-1.32 1.1,-2.13 0,-0.81 -0.39,-1.57 -1.1,-2.13 -0.7,-0.56 -1.62,-0.87 -2.61,-0.87zm0 5.99c-0.98,0 -1.91,-0.31 -2.61,-0.86 -0.71,-0.57 -1.1,-1.32 -1.1,-2.13 0,-0.81 0.39,-1.56 1.1,-2.13 0.7,-0.56 1.62,-0.86 2.61,-0.86 0.98,0 1.91,0.31 2.61,0.86 0.71,0.57 1.1,1.32 1.1,2.13 0,0.81 -0.39,1.56 -1.1,2.13 -0.7,0.56 -1.62,0.86 -2.61,0.86z"/>
    <path class="fil13" d="M28.4 14.35c-0.98,0 -1.91,0.31 -2.61,0.86 -0.71,0.57 -1.1,1.32 -1.1,2.13 0,0.81 0.39,1.56 1.1,2.13 0.7,0.56 1.62,0.86 2.61,0.86 0.98,0 1.91,-0.31 2.61,-0.86 0.71,-0.57 1.1,-1.32 1.1,-2.13 0,-0.81 -0.39,-1.56 -1.1,-2.13 -0.7,-0.56 -1.62,-0.86 -2.61,-0.86zm0 5.99c-0.98,0 -1.91,-0.31 -2.61,-0.86 -0.71,-0.57 -1.1,-1.32 -1.1,-2.13 0,-0.81 0.39,-1.56 1.1,-2.13 0.7,-0.56 1.62,-0.86 2.61,-0.86 0.98,0 1.91,0.31 2.61,0.86 0.71,0.57 1.1,1.32 1.1,2.13 0,0.81 -0.39,1.56 -1.1,2.13 -0.7,0.56 -1.62,0.86 -2.61,0.86z"/>
    <path class="fil13" d="M28.4 14.35c-0.98,0 -1.91,0.31 -2.61,0.86 -0.71,0.57 -1.1,1.32 -1.1,2.13 0,0.81 0.39,1.56 1.1,2.13 0.7,0.56 1.62,0.86 2.61,0.86 0.98,0 1.91,-0.31 2.61,-0.86 0.71,-0.57 1.1,-1.32 1.1,-2.13 0,-0.81 -0.39,-1.56 -1.1,-2.13 -0.7,-0.56 -1.62,-0.86 -2.61,-0.86zm0 5.99c-0.98,0 -1.91,-0.31 -2.6,-0.86 -0.71,-0.57 -1.1,-1.32 -1.1,-2.13 0,-0.81 0.39,-1.56 1.1,-2.13 0.7,-0.56 1.62,-0.86 2.6,-0.86 0.98,0 1.91,0.31 2.6,0.86 0.71,0.57 1.1,1.32 1.1,2.13 0,0.81 -0.39,1.56 -1.1,2.13 -0.7,0.56 -1.62,0.86 -2.6,0.86z"/>
    <path class="fil14" d="M28.4 14.36c-0.98,0 -1.91,0.31 -2.6,0.86 -0.71,0.57 -1.1,1.32 -1.1,2.13 0,0.81 0.39,1.56 1.1,2.13 0.7,0.56 1.62,0.86 2.6,0.86 0.98,0 1.91,-0.31 2.6,-0.86 0.71,-0.57 1.1,-1.32 1.1,-2.13 0,-0.81 -0.39,-1.56 -1.1,-2.13 -0.7,-0.56 -1.62,-0.86 -2.6,-0.86zm0 5.98c-0.98,0 -1.91,-0.31 -2.6,-0.86 -0.71,-0.57 -1.1,-1.32 -1.1,-2.13 0,-0.81 0.39,-1.56 1.1,-2.13 0.7,-0.56 1.62,-0.86 2.6,-0.86 0.98,0 1.91,0.31 2.6,0.86 0.71,0.57 1.1,1.32 1.1,2.13 0,0.81 -0.39,1.56 -1.1,2.13 -0.7,0.56 -1.62,0.86 -2.6,0.86z"/>
    <path class="fil15" d="M28.4 14.36c-0.98,0 -1.91,0.31 -2.6,0.86 -0.71,0.57 -1.1,1.32 -1.1,2.13 0,0.81 0.39,1.56 1.1,2.13 0.7,0.56 1.62,0.86 2.6,0.86 0.98,0 1.91,-0.31 2.6,-0.86 0.71,-0.57 1.1,-1.32 1.1,-2.13 0,-0.81 -0.39,-1.56 -1.1,-2.13 -0.7,-0.56 -1.62,-0.86 -2.6,-0.86zm0 5.98c-0.98,0 -1.9,-0.31 -2.6,-0.86 -0.71,-0.57 -1.1,-1.32 -1.1,-2.12 0,-0.8 0.39,-1.56 1.1,-2.12 0.7,-0.56 1.62,-0.86 2.6,-0.86 0.98,0 1.9,0.31 2.6,0.86 0.71,0.56 1.1,1.32 1.1,2.12 0,0.8 -0.39,1.56 -1.1,2.12 -0.7,0.56 -1.62,0.86 -2.6,0.86z"/>
    <path class="fil15" d="M28.4 14.36c-0.98,0 -1.9,0.31 -2.6,0.86 -0.71,0.56 -1.1,1.32 -1.1,2.12 0,0.81 0.39,1.56 1.1,2.12 0.7,0.56 1.62,0.86 2.6,0.86 0.98,0 1.9,-0.31 2.6,-0.86 0.71,-0.56 1.1,-1.32 1.1,-2.12 0,-0.81 -0.39,-1.56 -1.1,-2.12 -0.7,-0.56 -1.62,-0.86 -2.6,-0.86zm0 5.97c-0.98,0 -1.9,-0.31 -2.6,-0.86 -0.71,-0.56 -1.1,-1.32 -1.1,-2.12 0,-0.8 0.39,-1.56 1.1,-2.12 0.7,-0.56 1.62,-0.86 2.6,-0.86 0.98,0 1.9,0.31 2.6,0.86 0.71,0.56 1.1,1.32 1.1,2.12 0,0.8 -0.39,1.56 -1.1,2.12 -0.7,0.56 -1.62,0.86 -2.6,0.86z"/>
    <path class="fil15" d="M28.4 14.36c-0.98,0 -1.9,0.31 -2.6,0.86 -0.71,0.56 -1.1,1.32 -1.1,2.12 0,0.8 0.39,1.56 1.1,2.12 0.7,0.56 1.62,0.86 2.6,0.86 0.98,0 1.9,-0.31 2.6,-0.86 0.71,-0.56 1.1,-1.32 1.1,-2.12 0,-0.8 -0.39,-1.56 -1.1,-2.12 -0.7,-0.56 -1.62,-0.86 -2.6,-0.86zm0 5.97c-0.98,0 -1.9,-0.31 -2.6,-0.86 -0.71,-0.56 -1.09,-1.32 -1.09,-2.12 0,-0.8 0.39,-1.56 1.09,-2.12 0.7,-0.56 1.62,-0.86 2.6,-0.86 0.98,0 1.9,0.31 2.6,0.86 0.71,0.56 1.09,1.32 1.09,2.12 0,0.8 -0.39,1.56 -1.09,2.12 -0.7,0.56 -1.62,0.86 -2.6,0.86z"/>
    <path class="fil15" d="M28.4 14.37c-0.98,0 -1.9,0.31 -2.6,0.86 -0.71,0.56 -1.09,1.32 -1.09,2.12 0,0.8 0.39,1.56 1.09,2.12 0.7,0.56 1.62,0.86 2.6,0.86 0.98,0 1.9,-0.31 2.6,-0.86 0.71,-0.56 1.09,-1.32 1.09,-2.12 0,-0.8 -0.39,-1.56 -1.09,-2.12 -0.7,-0.56 -1.62,-0.86 -2.6,-0.86zm0 5.96c-0.98,0 -1.9,-0.31 -2.6,-0.86 -0.71,-0.56 -1.09,-1.32 -1.09,-2.12 0,-0.8 0.39,-1.56 1.09,-2.12 0.69,-0.56 1.62,-0.86 2.6,-0.86 0.98,0 1.9,0.31 2.6,0.86 0.71,0.56 1.09,1.32 1.09,2.12 0,0.8 -0.39,1.56 -1.09,2.12 -0.7,0.56 -1.62,0.86 -2.6,0.86z"/>
    <path class="fil16" d="M28.4 14.37c-0.98,0 -1.9,0.31 -2.6,0.86 -0.71,0.56 -1.09,1.32 -1.09,2.12 0,0.8 0.39,1.56 1.09,2.12 0.69,0.56 1.62,0.86 2.6,0.86 0.98,0 1.9,-0.31 2.6,-0.86 0.71,-0.56 1.09,-1.32 1.09,-2.12 0,-0.8 -0.39,-1.56 -1.09,-2.12 -0.7,-0.55 -1.62,-0.86 -2.6,-0.86zm0 5.96c-0.98,0 -1.9,-0.31 -2.6,-0.86 -0.7,-0.56 -1.09,-1.31 -1.09,-2.12 0,-0.8 0.39,-1.55 1.09,-2.12 0.69,-0.55 1.62,-0.86 2.6,-0.86 0.98,0 1.9,0.31 2.59,0.86 0.7,0.56 1.09,1.31 1.09,2.12 0,0.8 -0.39,1.55 -1.09,2.12 -0.69,0.55 -1.62,0.86 -2.59,0.86z"/>
    <path class="fil16" d="M28.4 14.37c-0.98,0 -1.9,0.31 -2.6,0.86 -0.7,0.56 -1.09,1.31 -1.09,2.12 0,0.8 0.39,1.55 1.09,2.12 0.69,0.55 1.62,0.86 2.6,0.86 0.98,0 1.9,-0.31 2.59,-0.86 0.7,-0.56 1.09,-1.31 1.09,-2.12 0,-0.8 -0.39,-1.55 -1.09,-2.12 -0.69,-0.55 -1.62,-0.86 -2.59,-0.86zm0 5.95c-0.98,0 -1.9,-0.31 -2.59,-0.86 -0.7,-0.56 -1.09,-1.31 -1.09,-2.11 0,-0.8 0.39,-1.55 1.09,-2.11 0.69,-0.55 1.62,-0.86 2.59,-0.86 0.98,0 1.9,0.31 2.59,0.86 0.7,0.56 1.09,1.31 1.09,2.11 0,0.8 -0.39,1.55 -1.09,2.11 -0.69,0.55 -1.62,0.86 -2.59,0.86z"/>
    <path class="fil17" d="M28.4 14.37c-0.98,0 -1.9,0.31 -2.59,0.86 -0.7,0.56 -1.09,1.31 -1.09,2.11 0,0.8 0.39,1.55 1.09,2.11 0.69,0.55 1.62,0.86 2.59,0.86 0.98,0 1.9,-0.31 2.59,-0.86 0.7,-0.56 1.09,-1.31 1.09,-2.11 0,-0.8 -0.39,-1.55 -1.09,-2.11 -0.69,-0.55 -1.62,-0.86 -2.59,-0.86zm0 5.95c-0.98,0 -1.9,-0.31 -2.59,-0.86 -0.7,-0.56 -1.09,-1.31 -1.09,-2.11 0,-0.8 0.39,-1.55 1.09,-2.11 0.69,-0.55 1.61,-0.86 2.59,-0.86 0.98,0 1.9,0.31 2.59,0.86 0.7,0.56 1.09,1.31 1.09,2.11 0,0.8 -0.39,1.55 -1.09,2.11 -0.69,0.55 -1.61,0.86 -2.59,0.86z"/>
    <path class="fil17" d="M28.4 14.38c-0.98,0 -1.9,0.31 -2.59,0.86 -0.7,0.56 -1.09,1.31 -1.09,2.11 0,0.8 0.39,1.55 1.09,2.11 0.69,0.55 1.61,0.86 2.59,0.86 0.98,0 1.9,-0.31 2.59,-0.86 0.7,-0.56 1.09,-1.31 1.09,-2.11 0,-0.8 -0.39,-1.55 -1.09,-2.11 -0.69,-0.55 -1.61,-0.86 -2.59,-0.86zm0 5.94c-0.98,0 -1.9,-0.31 -2.59,-0.86 -0.7,-0.56 -1.09,-1.31 -1.09,-2.11 0,-0.8 0.39,-1.55 1.09,-2.11 0.69,-0.55 1.61,-0.86 2.59,-0.86 0.98,0 1.9,0.31 2.59,0.86 0.7,0.56 1.09,1.31 1.09,2.11 0,0.8 -0.39,1.55 -1.09,2.11 -0.69,0.55 -1.61,0.86 -2.59,0.86z"/>
    <path class="fil18" d="M28.4 14.38c-0.98,0 -1.9,0.31 -2.59,0.86 -0.7,0.56 -1.09,1.31 -1.09,2.11 0,0.8 0.39,1.55 1.09,2.11 0.69,0.55 1.61,0.86 2.59,0.86 0.98,0 1.9,-0.31 2.59,-0.86 0.7,-0.56 1.09,-1.31 1.09,-2.11 0,-0.8 -0.39,-1.55 -1.09,-2.11 -0.69,-0.55 -1.61,-0.86 -2.59,-0.86zm0 5.94c-0.98,0 -1.9,-0.3 -2.59,-0.86 -0.7,-0.56 -1.09,-1.31 -1.09,-2.11 0,-0.8 0.39,-1.55 1.09,-2.11 0.69,-0.55 1.61,-0.86 2.59,-0.86 0.98,0 1.9,0.3 2.59,0.86 0.7,0.56 1.09,1.31 1.09,2.11 0,0.8 -0.39,1.55 -1.09,2.11 -0.69,0.55 -1.61,0.86 -2.59,0.86z"/>
    <path class="fil18" d="M28.4 14.38c-0.98,0 -1.9,0.3 -2.59,0.86 -0.7,0.56 -1.09,1.31 -1.09,2.11 0,0.8 0.39,1.55 1.09,2.11 0.69,0.55 1.61,0.86 2.59,0.86 0.98,0 1.9,-0.3 2.59,-0.86 0.7,-0.56 1.09,-1.31 1.09,-2.11 0,-0.8 -0.39,-1.55 -1.09,-2.11 -0.69,-0.55 -1.61,-0.86 -2.59,-0.86z"/>
    <path class="fil2" d="M28.4 20.32c-0.98,0 -1.9,-0.3 -2.59,-0.86 -0.7,-0.56 -1.09,-1.31 -1.09,-2.11 0,-0.8 0.39,-1.55 1.09,-2.11 0.69,-0.55 1.61,-0.86 2.59,-0.86 0.98,0 1.9,0.3 2.59,0.86 0.7,0.56 1.09,1.31 1.09,2.11 0,0.8 -0.39,1.55 -1.09,2.11 -0.69,0.55 -1.61,0.86 -2.59,0.86z"/>
    <path class="fil19" d="M31.9 17.35c0,-1.54 -1.57,-2.79 -3.5,-2.79 -1.93,0 -3.5,1.25 -3.5,2.79 0,1.35 1.2,2.47 2.79,2.73 0.22,-1.15 1.46,-1.94 2.02,-2.39 0.43,-0.35 0.43,-0.67 0.34,-0.9 -0.02,-0.05 -0.07,-0.03 -0.1,-0.02 -0.06,0.04 -0.33,0.14 -0.47,-0.1 -0.01,-0.02 -0.03,-0.02 -0.04,-0.01 -0.01,0.01 -0.01,0.03 -0,0.05 0.05,0.15 0.13,0.25 0.24,0.26 0.07,0.01 0.14,-0.03 0.19,-0.04 0.05,-0.02 0.06,0.01 0.06,0.03 0.02,0.32 -0.38,0.58 -0.5,0.68 -0.26,0.21 -1.32,0.96 -1.57,1.11 -0.42,0.24 -0.85,0.43 -1.26,0.06 -0.32,-0.29 -0.39,-0.76 -0.46,-1.07 -0.05,-0.2 -0.16,-0.31 -0.27,-0.37 -0.1,-0.05 -0.07,-0.09 0.01,-0.11 0.74,-0.18 2.72,-0.57 3.29,-0.7 0.03,-0.01 0.14,-0.03 0.13,-0.1 -0.01,-0.06 -0.14,-0.04 -0.18,-0.03 -0.73,0.13 -3.12,0.57 -3.29,0.6 -0.12,0.02 -0.19,0.1 -0.22,0.16 -0.03,0.07 -0.09,0.09 -0.12,-0.01 -0.01,-0.03 -0.01,-0.07 -0.01,-0.11 0.02,-0.16 0.07,-0.26 0.24,-0.28 0.16,-0.01 0.56,-0.07 0.68,-0.1 0.52,-0.11 1.61,-0.28 2.68,-0.57 0,0 0.2,-0.34 0.72,-0.44 0.37,-0.07 0.88,0.07 1.16,0.53 0.14,0.23 0.21,0.52 0.17,0.53 -0.03,0.01 -0.17,-0.12 -0.17,-0.01 0,0.06 -0.01,0.13 -0.01,0.19 -0.08,0.67 -0.73,1.23 -1.21,1.73 -0.09,0.09 -0.17,0.2 -0.23,0.31 -0.08,0.15 -0.11,0.33 -0.04,0.46 0.08,0.15 0.21,0.18 0.31,0.19 0.14,0.01 0.37,-0.01 0.73,-0.13 0.24,-0.08 0.46,-0.24 0.6,-0.38 0.5,-0.48 0.8,-1.1 0.8,-1.77z"/>
    <path class="fil19" d="M29.43 16.17c0,0.08 0.07,0.14 0.14,0.14 0.08,-0 0.14,-0.07 0.14,-0.14 -0,-0.08 -0.07,-0.14 -0.14,-0.14 -0.08,0 -0.14,0.07 -0.14,0.14z"/>
   </g>
  </g>
 </g>
</svg>
