<svg id="Capa_x0020_1" xmlns="http://www.w3.org/2000/svg" width="959.47" height="574.354" viewBox="0 0 959.47 574.354">
  <g id="_2503212358800">
    <path id="Trazado_397" data-name="Trazado 397" d="M3430.78,1291.155v118.039l107.954-102.207V1188.95Z" transform="translate(-3090.175 -1070.912)" fill="#eaeaea" fill-rule="evenodd"/>
    <path id="Trazado_398" data-name="Trazado 398" d="M1993.637,1188.95h-170.3l-107.955,102.2h170.3Z" transform="translate(-1545.079 -1070.912)" fill="#a37535" fill-rule="evenodd"/>
    <path id="Trazado_399" data-name="Trazado 399" d="M5146.162,2480.095l0,118.038,107.954-102.205V2377.89Z" transform="translate(-4635.254 -2141.815)" fill="#eaeaea" fill-rule="evenodd"/>
    <path id="Trazado_400" data-name="Trazado 400" d="M3709.027,2377.89h-170.3L3430.77,2480.095h170.3Z" transform="translate(-3090.166 -2141.815)" fill="#a37535" fill-rule="evenodd"/>
    <path id="Trazado_401" data-name="Trazado 401" d="M1715.391,102.206V220.244l107.954-102.2V0Z" transform="translate(-1545.088)" fill="#eaeaea" fill-rule="evenodd"/>
    <path id="Trazado_402" data-name="Trazado 402" d="M278.257,0h-170.3L0,102.206H170.3Z" fill="#a37535" fill-rule="evenodd"/>
    <path id="Trazado_403" data-name="Trazado 403" d="M5424.438,3566.82h-170.3L5146.18,3669.026h170.3Z" transform="translate(-4635.272 -3212.71)" fill="#a37535" fill-rule="evenodd"/>
    <path id="Trazado_404" data-name="Trazado 404" d="M6861.58,3669.026v118.037l107.953-102.2V3566.82Z" transform="translate(-6180.368 -3212.71)" fill="#eaeaea" fill-rule="evenodd"/>
    <path id="Trazado_405" data-name="Trazado 405" d="M7139.847,4755.76h-170.3L6861.59,4857.966h170.3Z" transform="translate(-6180.377 -4283.612)" fill="#a37535" fill-rule="evenodd"/>
  </g>
</svg>
