<?xml version="1.0" encoding="UTF-8"?>
<!DOCTYPE svg PUBLIC "-//W3C//DTD SVG 1.1//EN" "http://www.w3.org/Graphics/SVG/1.1/DTD/svg11.dtd">
<!-- Creator: CorelDRAW -->
<svg xmlns="http://www.w3.org/2000/svg" xml:space="preserve" width="16.7871mm" height="16.7871mm" version="1.1" style="shape-rendering:geometricPrecision; text-rendering:geometricPrecision; image-rendering:optimizeQuality; fill-rule:evenodd; clip-rule:evenodd"
viewBox="0 0 39.4 39.4"
 xmlns:xlink="http://www.w3.org/1999/xlink"
 xmlns:xodm="http://www.corel.com/coreldraw/odm/2003">
 <defs>
  <style type="text/css">
   <![CDATA[
    .fil0 {fill:none}
    .fil1 {fill:#D4368E;fill-rule:nonzero}
   ]]>
  </style>
 </defs>
 <g id="Capa_x0020_1">
  <metadata id="CorelCorpID_0Corel-Layer"/>
  <g id="_2503490093520">
   <circle class="fil0" cx="19.7" cy="19.7" r="19.7"/>
   <g>
    <path class="fil1" d="M2.7 16.32c0.17,0 0.34,0 0.51,0 0,1.5 0,2.96 0,4.45 0,0.14 0,0.27 0.1,0.37 0.07,0.1 0.2,0.07 0.31,0.1 0.85,0 1.7,0 2.58,0 0,0.17 0,0.34 0,0.51 -0.92,0 -1.87,0 -2.79,0 -0.2,0 -0.41,-0.04 -0.54,-0.21 -0.14,-0.14 -0.14,-0.31 -0.14,-0.48 -0.04,-1.59 -0.04,-3.16 -0.04,-4.76z"/>
    <path class="fil1" d="M3.38 16.32c0.17,0 0.34,0 0.51,0 0,1.29 0,2.55 0,3.84 0,0.1 0,0.24 0.1,0.31 0.07,0.07 0.2,0.07 0.31,0.07 0.64,0 1.26,0 1.9,0 0,0.17 0,0.34 0,0.51 -0.78,0 -1.56,0 -2.35,0 -0.14,0 -0.27,0 -0.34,-0.07 -0.1,-0.07 -0.1,-0.2 -0.1,-0.31 -0.03,-1.46 -0.03,-2.89 -0.03,-4.35z"/>
    <path class="fil1" d="M4.06 16.32c0.17,0 0.34,0 0.51,0 0,1.09 0,2.18 0,3.3 0,0.1 0.04,0.24 0.14,0.24 0.48,0.04 0.99,0 1.46,0 0,0.17 0,0.34 0,0.51 -0.61,0 -1.22,0 -1.83,0 -0.17,0.04 -0.27,-0.14 -0.27,-0.31 -0.01,-1.26 -0.01,-2.49 -0.01,-3.74z"/>
    <path class="fil1" d="M4.74 16.32c0.17,0 0.34,0 0.51,0 0,0.95 -0.04,1.87 0,2.82 0.31,0.07 0.61,0.04 0.92,0.04 0,0.17 0,0.34 0,0.51 -0.41,0 -0.78,0 -1.19,0 -0.1,0 -0.24,-0.04 -0.24,-0.17 0,-1.1 0,-2.15 0,-3.2z"/>
    <path class="fil1" d="M5.42 16.32c1.02,0 2,0 3.03,0 0.2,-0.04 0.34,0.14 0.41,0.31 0.07,0.2 0.04,0.41 0.04,0.58 0,1.5 0,2.99 0,4.49 -0.17,0 -0.34,0 -0.51,0 0,-1.53 0,-3.06 0,-4.55 0,-0.14 -0.04,-0.27 -0.17,-0.34 -0.1,-0.04 -0.2,-0.04 -0.31,-0.04 -0.85,0 -1.67,0 -2.51,0 0.03,-0.14 0.03,-0.28 0.03,-0.45z"/>
    <path class="fil1" d="M10.59 16.32c0.2,0 0.44,0 0.64,0 0,1.46 0,2.89 0,4.35 -0.04,0.2 0.14,0.41 0.37,0.41 0.54,0 1.05,0 1.6,0 0,0.2 0,0.41 0,0.61 -0.68,0 -1.4,0 -2.08,0 -0.17,0 -0.41,-0.04 -0.48,-0.24 -0.04,-0.17 -0.04,-0.34 -0.04,-0.48 -0.03,-1.53 -0.03,-3.09 -0.03,-4.66z"/>
    <path class="fil1" d="M13.44 16.32c0.2,0 0.44,0 0.64,0 0,0.2 0,0.37 0,0.58 -0.2,0 -0.44,0 -0.64,0 0,-0.17 0,-0.37 0,-0.58z"/>
    <path class="fil1" d="M36.06 16.32c0.2,0 0.44,0 0.64,0 0,1.8 0,3.6 0,5.4 -0.2,0 -0.44,0 -0.64,0 0,-1.8 0,-3.6 0,-5.4z"/>
    <path class="fil1" d="M5.42 16.96c0.82,0 1.63,0 2.48,0 0.17,0 0.34,0.14 0.31,0.31 0,1.5 0,2.96 0,4.45 -0.17,0 -0.34,0 -0.48,-0.04 -0.04,-1.36 0,-2.68 -0.04,-4.04 0,-0.14 -0.14,-0.2 -0.27,-0.2 -0.68,0 -1.36,0 -2,0 0,-0.13 0,-0.3 0,-0.48z"/>
    <path class="fil1" d="M5.42 17.64c0.61,0 1.22,0 1.87,0 0.17,0 0.27,0.14 0.24,0.31 0,1.26 0,2.51 0,3.77 -0.17,0 -0.34,0 -0.51,0 0,-1.09 0,-2.18 0,-3.3 0,-0.07 0,-0.14 -0.04,-0.24 -0.07,-0.07 -0.2,-0.07 -0.27,-0.07 -0.44,0 -0.88,0 -1.29,0 0,-0.13 0,-0.3 0,-0.48z"/>
    <path class="fil1" d="M13.44 17.68c0.2,0 0.44,0 0.64,0 0,1.36 0,2.68 0,4.04 -0.2,0 -0.44,0 -0.64,0 0,-1.36 0,-2.68 0,-4.04z"/>
    <path class="fil1" d="M14.33 17.68c0.24,0 0.48,0 0.75,0 0.44,1.09 0.85,2.14 1.29,3.23 0.44,-1.09 0.85,-2.14 1.29,-3.23 0.24,0 0.51,0 0.75,0 -0.51,1.29 -1.02,2.62 -1.56,3.91 -0.04,0.04 -0.04,0.14 -0.1,0.14 -0.27,0 -0.51,0 -0.78,0 -0.54,-1.37 -1.08,-2.69 -1.63,-4.05z"/>
    <path class="fil1" d="M22.73 18.6c0,-0.44 0.34,-0.85 0.78,-0.89 0.27,-0.04 0.54,0 0.82,0 0,0.2 0,0.44 0,0.64 -0.24,0 -0.44,-0.04 -0.68,0 -0.17,0.04 -0.27,0.24 -0.27,0.41 0,0.99 0,1.97 0,2.96 -0.2,0 -0.41,0 -0.64,0 -0.01,-1.02 -0.01,-2.08 -0.01,-3.13z"/>
    <path class="fil1" d="M19.53 18.32c-0.34,0.17 -0.54,0.51 -0.72,0.85 0.95,0 1.94,0 2.89,0 -0.1,-0.27 -0.24,-0.51 -0.48,-0.68 -0.44,-0.44 -1.15,-0.5 -1.7,-0.17zm-0.07 -0.64c0.75,-0.34 1.67,-0.17 2.24,0.37 0.48,0.41 0.72,1.05 0.72,1.67 -1.22,0 -2.41,0 -3.64,0 0.07,0.54 0.44,1.09 0.95,1.29 0.61,0.24 1.32,0.04 1.73,-0.48 0.1,-0.14 0.17,-0.31 0.24,-0.44 0.2,0 0.41,0 0.61,0 -0.14,0.44 -0.37,0.88 -0.75,1.15 -0.48,0.37 -1.12,0.51 -1.7,0.41 -0.61,-0.1 -1.16,-0.51 -1.43,-1.02 -0.27,-0.44 -0.34,-0.99 -0.24,-1.5 0.18,-0.64 0.65,-1.19 1.26,-1.46z"/>
    <path class="fil1" d="M33.84 21.08c-0.78,0.14 -1.6,-0.44 -1.7,-1.19 -0.14,-0.72 0.34,-1.53 1.05,-1.7 0.82,-0.27 1.73,0.31 1.87,1.16 0.21,0.79 -0.4,1.64 -1.22,1.74zm-3.6 0c-0.74,0.17 -1.56,-0.37 -1.7,-1.12 -0.2,-0.78 0.34,-1.63 1.12,-1.8 0.78,-0.2 1.63,0.34 1.8,1.12 0.19,0.81 -0.39,1.7 -1.21,1.8zm-3.6 0c-0.75,0.17 -1.56,-0.37 -1.73,-1.15 -0.2,-0.78 0.34,-1.63 1.12,-1.77 0.78,-0.21 1.63,0.34 1.77,1.12 0.23,0.79 -0.34,1.7 -1.15,1.81zm8.97 -2.18c-0.31,-0.92 -1.36,-1.56 -2.31,-1.4 -0.61,0.07 -1.15,0.47 -1.5,0.99 -0.44,-0.72 -1.29,-1.12 -2.1,-0.99 -0.61,0.07 -1.19,0.47 -1.53,0.99 -0.34,-0.51 -0.88,-0.88 -1.5,-0.99 -0.75,-0.14 -1.56,0.2 -2.04,0.85 -0.27,0.37 -0.41,0.85 -0.41,1.29 0,1.16 0,2.28 0,3.44 0.2,0 0.44,0 0.64,0 0,-0.64 0,-1.29 0,-1.94 0.41,0.37 0.95,0.61 1.53,0.61 0.72,0 1.4,-0.41 1.77,-0.99 0.41,0.68 1.22,1.09 2,0.99 0.64,-0.07 1.26,-0.44 1.63,-0.99 0.21,0.34 0.51,0.61 0.85,0.78 0.68,0.34 1.56,0.31 2.18,-0.17 0.79,-0.54 1.14,-1.6 0.79,-2.49z"/>
    <path class="fil1" d="M5.42 18.32c0.48,0 0.92,-0.04 1.4,0.04 0.04,0.1 0.07,0.24 0.07,0.37 0,1.02 0,2 0,3.03 -0.17,0 -0.34,0 -0.51,0 0,-0.95 0,-1.9 0,-2.86 -0.31,-0.07 -0.61,-0.04 -0.92,-0.04 -0.03,-0.2 -0.03,-0.36 -0.03,-0.54z"/>
   </g>
  </g>
 </g>
</svg>
