<?xml version="1.0" encoding="UTF-8"?>
<!DOCTYPE svg PUBLIC "-//W3C//DTD SVG 1.1//EN" "http://www.w3.org/Graphics/SVG/1.1/DTD/svg11.dtd">
<!-- Creator: CorelDRAW -->
<svg xmlns="http://www.w3.org/2000/svg" xml:space="preserve" width="16.7872mm" height="16.7871mm" version="1.1" style="shape-rendering:geometricPrecision; text-rendering:geometricPrecision; image-rendering:optimizeQuality; fill-rule:evenodd; clip-rule:evenodd"
viewBox="0 0 32.74 32.74"
 xmlns:xlink="http://www.w3.org/1999/xlink"
 xmlns:xodm="http://www.corel.com/coreldraw/odm/2003">
 <defs>
  <style type="text/css">
   <![CDATA[
    .fil0 {fill:none}
    .fil2 {fill:#FEFEFE}
    .fil3 {fill:#ED3237}
    .fil1 {fill:#EEA73D}
   ]]>
  </style>
 </defs>
 <g id="Capa_x0020_1">
  <metadata id="CorelCorpID_0Corel-Layer"/>
  <g id="_2504448655728">
   <circle class="fil0" cx="16.37" cy="16.37" r="16.37"/>
   <g>
    <path class="fil1" d="M3.31 11.16c0,-0.45 0.37,-0.81 0.81,-0.81l24.5 0c0.45,0 0.81,0.37 0.81,0.81l0 10.41c0,0.45 -0.37,0.81 -0.81,0.81l-24.5 0c-0.45,0 -0.81,-0.37 -0.81,-0.81l0 -10.41z"/>
    <polygon class="fil2" points="3.31,21.21 29.43,21.21 29.43,11.53 3.31,11.53 "/>
    <path class="fil3" d="M25.45 14.05c-1.2,0 -2.17,0.97 -2.17,2.17 0,1.19 0.97,2.17 2.17,2.17 1.19,0 2.17,-0.97 2.17,-2.17 0,-1.2 -0.97,-2.17 -2.17,-2.17z"/>
    <path class="fil3" d="M7.57 14.05c-1.2,0 -2.17,0.97 -2.17,2.17 0,1.19 0.97,2.17 2.17,2.17 1.19,0 2.17,-0.97 2.17,-2.17 0,-1.2 -0.97,-2.17 -2.17,-2.17z"/>
    <path class="fil3" d="M25.28 12.14c-2.01,-0.05 -2.95,1.24 -4.32,2.83l-1.29 1.5 2.05 2.45c0.49,0.75 -0.44,1.5 -1.02,0.81l-1.89 -2.26 -1.84 2.14c-0.59,0.68 -1.51,-0.08 -1.01,-0.83l2 -2.33 -1.31 -1.56 0.84 -1.05 1.33 1.6 1.15 -1.34c0.56,-0.66 1.14,-1.52 1.89,-1.97l-18.54 0 0 8.47 4.33 0c2.01,0 2.92,-1.2 4.25,-2.82l1.26 -1.53 -2.1 -2.4c-0.5,-0.74 0.41,-1.51 1,-0.83l1.94 2.21 1.79 -2.18c0.57,-0.69 1.51,0.04 1.03,0.8l-1.95 2.37 1.35 1.53 -0.85 1.01 -1.34 -1.51 -1.12 1.36c-0.55,0.67 -1.1,1.52 -1.84,1.99l18.36 0 0 -8.47 -4.16 0zm-14.29 4.08c0,1.89 -1.54,3.43 -3.43,3.43 -1.89,0 -3.43,-1.54 -3.43,-3.43 0,-1.89 1.54,-3.43 3.43,-3.43 1.89,0 3.43,1.54 3.43,3.43zm14.46 3.43c-1.89,0 -3.43,-1.54 -3.43,-3.43 0,-1.89 1.54,-3.43 3.43,-3.43 1.89,0 3.43,1.54 3.43,3.43 0,1.89 -1.54,3.43 -3.43,3.43z"/>
   </g>
  </g>
 </g>
</svg>
