<?xml version="1.0" encoding="UTF-8"?>
<!DOCTYPE svg PUBLIC "-//W3C//DTD SVG 1.1//EN" "http://www.w3.org/Graphics/SVG/1.1/DTD/svg11.dtd">
<!-- Creator: CorelDRAW -->
<svg xmlns="http://www.w3.org/2000/svg" xml:space="preserve" width="16.787mm" height="16.787mm" version="1.1" style="shape-rendering:geometricPrecision; text-rendering:geometricPrecision; image-rendering:optimizeQuality; fill-rule:evenodd; clip-rule:evenodd"
viewBox="0 0 18.78 18.78"
 xmlns:xlink="http://www.w3.org/1999/xlink"
 xmlns:xodm="http://www.corel.com/coreldraw/odm/2003">
 <defs>
  <style type="text/css">
   <![CDATA[
    .fil0 {fill:none}
    .fil1 {fill:#1066A5}
   ]]>
  </style>
 </defs>
 <g id="Capa_x0020_1">
  <metadata id="CorelCorpID_0Corel-Layer"/>
  <g id="_2999904577504">
   <circle class="fil0" cx="9.39" cy="9.39" r="9.39"/>
   <path class="fil1" d="M10.13 2.89l3.02 3.05c0.14,0.14 0.14,0.36 0,0.5l-3.02 3.05 -0.52 -0.53c-0.14,-0.14 -0.14,-0.37 0,-0.51l2.24 -2.26 -2.22 -2.24c-0.15,-0.15 -0.15,-0.4 0,-0.55l0.5 -0.51zm-1.47 0l0.5 0.5c0.15,0.15 0.15,0.4 0,0.56l-2.22 2.24 2.22 2.24c0.15,0.15 0.15,0.4 0,0.56l-0.5 0.5 -3 -3.04c-0.15,-0.15 -0.15,-0.39 0,-0.53l3 -3.04z"/>
   <path class="fil1" d="M16.11 11.11c0.46,0 0.83,0.36 0.83,0.93 0,0.57 -0.37,0.93 -0.83,0.93 -0.27,0 -0.51,-0.14 -0.63,-0.4l0 0.37 -0.36 0 0 -2.45 0.36 -0.07 0 1.09c0.12,-0.26 0.35,-0.4 0.63,-0.4zm0.44 0.93c0,0.34 -0.22,0.59 -0.53,0.59 -0.31,0 -0.53,-0.26 -0.53,-0.59 0,-0.33 0.22,-0.6 0.53,-0.6 0.32,0 0.53,0.26 0.53,0.59l0 0zm-12.36 -0.59c-0.32,0 -0.53,0.26 -0.53,0.59 0,0.33 0.22,0.59 0.53,0.59 0.31,0 0.53,-0.26 0.53,-0.6 0,-0.33 -0.22,-0.59 -0.53,-0.59l0 0zm9.45 -0.31l0 1.09c0,0.24 0.15,0.4 0.4,0.4 0.25,0 0.4,-0.16 0.4,-0.4l0 -1.09 0.36 0 0 1.06c0,0.49 -0.3,0.77 -0.75,0.77 -0.45,0 -0.75,-0.28 -0.75,-0.77l0 -1.06 0.36 0zm-0.82 1.21c0,0.17 0.09,0.25 0.22,0.25l0.09 0 0 0.35c-0.03,0.01 -0.07,0.01 -0.1,0.01 -0.37,0.01 -0.57,-0.18 -0.57,-0.61l0 -1.86 0.36 -0.07 0 1.93zm-4.55 -1.73l0.38 0 -0.22 0.71 -0.3 0 0.14 -0.71zm-0.83 0.49c0.37,0 0.65,0.28 0.65,0.74l0 1.09 -0.36 0 0 -1.09c0,-0.23 -0.12,-0.4 -0.36,-0.4 -0.26,0 -0.44,0.23 -0.44,0.53l0 0.97 -0.36 0 0 -1.09c0,-0.23 -0.12,-0.4 -0.36,-0.4 -0.26,0 -0.44,0.23 -0.44,0.53l0 0.97 -0.36 0 0 -1.8 0.36 0 0 0.32c0.11,-0.23 0.3,-0.35 0.53,-0.35 0.24,0 0.43,0.13 0.54,0.34 0.15,-0.24 0.35,-0.34 0.59,-0.34zm-4.86 0.75c0.38,0.12 0.57,0.26 0.57,0.56 0,0.34 -0.27,0.55 -0.65,0.55 -0.26,0 -0.51,-0.09 -0.65,-0.19l0.16 -0.33c0.12,0.09 0.33,0.18 0.49,0.18 0.2,0 0.28,-0.1 0.28,-0.2 0,-0.12 -0.1,-0.17 -0.31,-0.24 -0.35,-0.11 -0.55,-0.23 -0.55,-0.56 0,-0.3 0.23,-0.52 0.64,-0.52 0.21,0 0.41,0.07 0.57,0.18l-0.16 0.3c-0.09,-0.06 -0.25,-0.14 -0.42,-0.14 -0.15,0 -0.25,0.06 -0.25,0.18 0,0.1 0.07,0.16 0.29,0.23zm1.53 -0.74c0.27,0 0.51,0.14 0.63,0.4l0 -0.37 0.36 0 0 1.8 -0.36 0 0 -0.37c-0.12,0.26 -0.35,0.4 -0.63,0.4 -0.46,0 -0.83,-0.36 -0.83,-0.93 0,-0.57 0.37,-0.93 0.83,-0.93zm5.69 0.18l-0.16 0.3c-0.09,-0.06 -0.25,-0.14 -0.42,-0.14 -0.15,0 -0.25,0.06 -0.25,0.18 0,0.1 0.07,0.16 0.29,0.23 0.38,0.12 0.57,0.26 0.57,0.56 0,0.34 -0.27,0.55 -0.65,0.55 -0.26,0 -0.51,-0.09 -0.65,-0.19l0.16 -0.33c0.12,0.09 0.33,0.18 0.49,0.18 0.2,0 0.28,-0.1 0.28,-0.2 0,-0.12 -0.1,-0.17 -0.31,-0.24 -0.35,-0.11 -0.55,-0.23 -0.55,-0.56 0,-0.3 0.23,-0.52 0.64,-0.52 0.2,-0 0.4,0.06 0.57,0.18zm0.91 0.75c0,-0.57 0.39,-0.93 0.94,-0.93 0.26,0 0.48,0.08 0.66,0.26l-0.22 0.27c-0.14,-0.14 -0.3,-0.19 -0.44,-0.19 -0.33,0 -0.56,0.2 -0.56,0.59 0,0.39 0.23,0.59 0.56,0.59 0.14,0 0.3,-0.06 0.44,-0.2l0.22 0.27c-0.17,0.18 -0.4,0.27 -0.66,0.27 -0.54,0 -0.94,-0.36 -0.94,-0.93z"/>
  </g>
 </g>
</svg>
