<?xml version="1.0" encoding="UTF-8"?>
<!DOCTYPE svg PUBLIC "-//W3C//DTD SVG 1.1//EN" "http://www.w3.org/Graphics/SVG/1.1/DTD/svg11.dtd">
<!-- Creator: CorelDRAW -->
<svg xmlns="http://www.w3.org/2000/svg" xml:space="preserve" width="16.7871mm" height="16.7871mm" version="1.1" style="shape-rendering:geometricPrecision; text-rendering:geometricPrecision; image-rendering:optimizeQuality; fill-rule:evenodd; clip-rule:evenodd"
viewBox="0 0 32.74 32.74"
 xmlns:xlink="http://www.w3.org/1999/xlink"
 xmlns:xodm="http://www.corel.com/coreldraw/odm/2003">
 <defs>
  <style type="text/css">
   <![CDATA[
    .fil0 {fill:none}
    .fil1 {fill:black}
    .fil2 {fill:white}
   ]]>
  </style>
 </defs>
 <g id="Capa_x0020_1">
  <metadata id="CorelCorpID_0Corel-Layer"/>
  <g id="_2504448634656">
   <circle class="fil0" cx="16.37" cy="16.37" r="16.37"/>
   <g>
    <g>
     <path class="fil1" d="M12.45 10.33c0,0 0.78,0.78 1.8,0.34l-0.08 0.18c0,0 0.35,0.23 0.33,0.65 0,0 -0.03,0.48 -0.51,0.55 0,0 0.4,0.27 0.37,0.78 0,0 0.08,0.58 -1.34,1.88 0,0 -0.96,-0.89 -1.36,-2.11 0,0 -0.14,-0.54 0.48,-0.81 0,0 -0.42,-0.4 -0.21,-0.79 0,0 0.16,-0.31 0.49,-0.35l0.03 -0.31 0 0zm0.11 0.37c0,0 -0.57,0.29 -0.47,0.64 0,0 0.11,0.46 0.74,0.51 0,0 -0.94,0.25 -0.5,1.07 0,0 -0.41,-0.07 -0.29,-0.82 0,0 -0.34,0.14 -0.18,0.49 0,0 0.49,1.17 1.16,1.82 0,0 0.69,-0.53 1.11,-1.54 0,0 0.07,-0.25 -0.13,-0.53 0,0 0.05,0.57 -0.32,0.69 0,0 0.3,-0.82 -0.16,-1.11 0,0 0.83,-0.01 0.77,-0.55 0,0 -0.08,-0.35 -0.38,-0.46l-0.22 0.18c0,0 0.17,0.13 0.14,0.29 0,0 0.05,0.26 -0.5,0.26l-0.21 0.18 -0.14 -0.25c0,0 -0.51,-0.02 -0.4,-0.42 0,0 0.08,-0.14 0.16,-0.19l-0.18 -0.26 0 0zm-0.31 0.62c0.01,0.24 0.33,0.25 0.33,0.25 -0.32,-0.21 -0.13,-0.56 -0.13,-0.56 -0.23,0.07 -0.21,0.31 -0.21,0.31zm1.73 -0.15c0,0 0.15,0.43 -0.29,0.57 0,0 0.32,0.05 0.45,-0.26 0,0 0.05,-0.25 -0.16,-0.31l0 0zm-1.17 1.06c-0.03,-0 -0.05,-0.02 -0.07,-0.02 -0.01,-0 -0.08,0 -0.08,0.01 -0.01,0.11 0.28,0.15 0.24,-0 -0.03,-0 -0.06,0.01 -0.09,0.01l0 0zm0.56 0.05c-0.03,-0 -0.05,-0.02 -0.07,-0.02 -0.01,-0 -0.08,0 -0.08,0.01 -0.01,0.11 0.28,0.15 0.24,-0 -0.03,-0 -0.06,0.01 -0.09,0.01zm-0.35 0.44c0.04,0.01 0.1,0.03 0.09,-0.04 -0,-0.06 -0.08,-0.09 -0.14,-0.09 -0.04,0 -0.15,0.03 -0.11,0.1 0.02,0.04 0.12,0.02 0.16,0.03zm-0.48 0.16c0.02,0.04 0.17,0.09 0.2,0.03 0.05,-0.12 -0.28,-0.17 -0.2,-0.03zm1.01 -0.04c-0.02,-0.02 -0.08,0 -0.1,0 -0.05,0 -0.21,-0.02 -0.19,0.07 0.02,0.08 0.22,0.07 0.27,0.03 0.02,-0.01 0.04,-0.08 0.02,-0.1l0 0zm-0.66 -1.97l0.31 0.58 0.39 -0.47c0,-0 -0.3,0.09 -0.7,-0.11zm-0.18 0.42c0.01,0.14 0.21,0.07 0.21,0.07l-0.08 -0.19c-0.13,0 -0.13,0.13 -0.13,0.13zm0.86 -0.03l-0.11 0.18c0,0 0.18,0.1 0.21,-0.03 0,-0 0.02,-0.12 -0.1,-0.15zm6.83 -0.63c0.33,0.05 0.49,0.35 0.49,0.35 0.22,0.39 -0.21,0.79 -0.21,0.79 0.62,0.27 0.48,0.81 0.48,0.81 -0.4,1.21 -1.36,2.11 -1.36,2.11 -1.42,-1.29 -1.34,-1.88 -1.34,-1.88 -0.03,-0.5 0.37,-0.78 0.37,-0.78 -0.48,-0.07 -0.51,-0.55 -0.51,-0.55 -0.02,-0.42 0.33,-0.65 0.33,-0.65l-0.08 -0.18c1.02,0.44 1.8,-0.34 1.8,-0.34l0.03 0.31 0 0zm-0.32 0.33c0.08,0.06 0.16,0.19 0.16,0.19 0.11,0.4 -0.4,0.42 -0.4,0.42l-0.14 0.25 -0.21 -0.18c-0.55,0 -0.5,-0.26 -0.5,-0.26 -0.03,-0.16 0.14,-0.29 0.14,-0.29l-0.22 -0.18c-0.3,0.1 -0.38,0.46 -0.38,0.46 -0.07,0.54 0.77,0.55 0.77,0.55 -0.46,0.29 -0.16,1.11 -0.16,1.11 -0.37,-0.11 -0.32,-0.69 -0.32,-0.69 -0.19,0.27 -0.13,0.53 -0.13,0.53 0.42,1.02 1.11,1.54 1.11,1.54 0.66,-0.65 1.15,-1.82 1.15,-1.82 0.16,-0.35 -0.18,-0.49 -0.18,-0.49 0.13,0.76 -0.29,0.82 -0.29,0.82 0.44,-0.82 -0.5,-1.07 -0.5,-1.07 0.63,-0.06 0.74,-0.51 0.74,-0.51 0.1,-0.35 -0.47,-0.64 -0.47,-0.64l-0.18 0.26 0 0zm0.29 0.05c0,0 0.2,0.35 -0.13,0.56 0,0 0.32,-0.01 0.33,-0.25 0,0 0.02,-0.24 -0.21,-0.31zm-1.68 0.47c0.13,0.31 0.45,0.26 0.45,0.26 -0.43,-0.14 -0.29,-0.57 -0.29,-0.57 -0.21,0.06 -0.16,0.31 -0.16,0.31l0 0zm1.25 0.75c-0.04,0.15 0.25,0.11 0.24,0 -0,-0.01 -0.07,-0.02 -0.08,-0.01 -0.03,0 -0.05,0.02 -0.07,0.02 -0.03,0 -0.06,-0.01 -0.09,-0.01l0 0zm-0.56 0.05c-0.04,0.15 0.25,0.11 0.24,0 -0,-0.01 -0.07,-0.01 -0.08,-0.01 -0.03,0 -0.05,0.02 -0.07,0.02 -0.03,0 -0.06,-0.01 -0.09,-0.01zm0.59 0.41c0.04,-0.06 -0.07,-0.09 -0.11,-0.1 -0.05,-0 -0.13,0.02 -0.14,0.09 -0.01,0.07 0.05,0.05 0.09,0.04 0.04,-0.01 0.13,0.01 0.16,-0.03zm0.12 0.22c0.03,0.06 0.18,0.01 0.2,-0.03 0.08,-0.14 -0.25,-0.09 -0.2,0.03zm-0.79 0.03c0.05,0.04 0.25,0.05 0.27,-0.03 0.02,-0.09 -0.14,-0.07 -0.19,-0.07 -0.02,-0 -0.09,-0.02 -0.1,-0 -0.02,0.02 0.01,0.09 0.02,0.1zm-0.06 -1.96l0.39 0.47 0.31 -0.58c-0.4,0.21 -0.7,0.11 -0.7,0.11l0 0zm0.75 0.18l-0.08 0.19c0,0 0.2,0.07 0.21,-0.07 0,0 0,-0.13 -0.13,-0.13zm-0.84 0.25c0.04,0.13 0.21,0.03 0.21,0.03l-0.11 -0.18c-0.12,0.02 -0.1,0.15 -0.1,0.15l0 0zm-4.2 -3.36c0,0 0.69,0.81 1.69,0.79 0,0 0.82,0.02 1.57,-0.5l-0.44 0.52c0,0 0.67,0.34 0.67,1.01 0,0 -0.01,0.76 -0.73,1.07 0,0 0.76,0.47 0.66,1.37 0,0 -0.24,1.37 -2,2.97l-1.51 -2.09c0,0 -1.01,-1.34 0.35,-2.3 0,0 -0.88,-0.26 -0.72,-1.33 0,0 0.03,-0.58 0.76,-0.81l-0.3 -0.7zm1.48 1.98l0.78 -0.99c-0.59,0.27 -1.37,-0.06 -1.37,-0.06l0.59 1.05zm-0.68 -0.23c0.03,0.24 0.37,0.08 0.37,0.08l-0.22 -0.34c-0.2,0.05 -0.15,0.26 -0.15,0.26l0 0zm1.43 0.11c0.18,-0.24 -0.09,-0.35 -0.09,-0.35l-0.29 0.35c0.11,0.23 0.38,0 0.38,0zm-1.8 -0.98c0,0 -0.7,0.23 -0.63,0.98 0,0 0.08,0.84 1.25,0.84 0,0 -1.22,0.69 -0.53,2.09 0,0 -0.64,-0.44 -0.37,-1.42 0,0 -0.37,0.2 -0.32,0.85 0,0 -0.03,0.61 0.7,1.34l0.93 1.28c0,0 0.7,-0.82 1.08,-1.28 0,0 1.1,-1.56 0.27,-2.24 0,0 0.27,1.01 -0.43,1.45 0,0 0.63,-1.43 -0.47,-1.97 0,0 1.2,-0.01 1.31,-0.91 0,0 0.11,-0.59 -0.56,-0.95l-0.26 0.29c0,0 0.27,0.47 0.05,0.69 0,0 -0.24,0.37 -0.78,0.15l-0.26 0.46 -0.2 -0.41c0,0 -0.76,0.18 -0.73,-0.59 0,0 0.02,-0.21 0.26,-0.32l-0.32 -0.32 0 0zm-0.35 1.05c0.23,0.7 0.81,0.41 0.81,0.41 -0.93,-0.24 -0.47,-1.19 -0.47,-1.19 -0.49,0.18 -0.34,0.78 -0.34,0.78zm2.58 -0.64c0,0 0.29,1.04 -0.78,1.19 0,0 0.64,0.26 0.99,-0.4 0,0 0.17,-0.64 -0.21,-0.79l0 0zm-1.66 2.17c-0.02,-0 -0.16,-0.05 -0.17,-0.01 -0.06,0.19 0.46,0.25 0.39,-0.02 -0.08,-0.01 -0.14,0.04 -0.23,0.03zm1.08 0.15c0.04,-0.03 0.1,-0.11 0.04,-0.15 -0.06,-0.05 -0.15,0.04 -0.2,0.05 -0.05,0.01 -0.12,-0.02 -0.16,0.02 -0.04,0.04 -0.03,0.07 0.02,0.09 0.07,0.03 0.24,0.03 0.31,-0.02l0 0zm-1.16 0.49c-0.03,-0.03 -0.14,0.01 -0.19,0.01 -0.05,-0 -0.14,-0.02 -0.18,0.03 -0.02,0.02 -0.01,0.09 0,0.11 0.03,0.03 0.11,0.04 0.19,0.02 0.13,-0.02 0.25,-0.09 0.17,-0.17zm0.45 0.09c0.06,0 0.36,-0.02 0.2,-0.14 -0.06,-0.05 -0.15,0.01 -0.21,-0 -0.06,-0.01 -0.14,-0.08 -0.16,0.02 -0.03,0.1 0.11,0.12 0.18,0.13l0 0zm0.98 -0.18c-0.05,-0.06 -0.16,0.02 -0.22,0.02 -0.05,-0.01 -0.15,-0.06 -0.17,0.02 -0.02,0.1 0.1,0.09 0.17,0.09 0.04,0 0.32,-0.02 0.22,-0.13l0 0zm-1.45 0.54c-0.08,0.13 0.38,0.23 0.35,0.02 -0,-0.01 -0.14,-0.01 -0.16,0.01 -0.03,-0 -0.17,-0.06 -0.19,-0.03l0 0zm0.96 0.03c-0.05,0 -0.09,-0.04 -0.14,-0.04 -0.11,0.01 -0.07,0.13 -0,0.17 0.09,0.05 0.31,0.06 0.35,-0.07 0.04,-0.16 -0.14,-0.06 -0.21,-0.06l0 0z"/>
     <path class="fil1" d="M17.51 12.97c-0.08,0.05 -0.19,0.02 -0.19,0.02 -0.09,-0.1 -0.18,-0.02 -0.18,-0.02 -0.16,0.09 -0.27,0.02 -0.27,0.02 -0.22,-0.09 -0.29,0.13 -0.29,0.13 -0.03,0.24 -0.15,0.24 -0.15,0.24 -0.11,0 -0.17,-0.17 -0.17,-0.17 -0.03,-0.1 -0.1,-0.18 -0.25,-0.05 -0.06,0.05 -0.12,-0.05 -0.12,-0.05 -0.08,-0.11 -0.17,0 -0.17,0 -0.1,0.07 -0.17,0 -0.17,0 -0.26,-0.12 -0.54,0.28 -0.54,0.28 -0.21,0.01 -0.46,-0.02 -0.57,-0.02 -0.21,0 -0.3,-0.08 -0.3,-0.08l-0.14 -0.03c-0.1,0.04 -0.17,-0.02 -0.26,-0.01 -0.05,0 -0.14,0.1 -0.18,-0 -0.07,0 -0.1,0.05 -0.18,0.03 -0.04,-0.01 -0.04,-0.04 -0.08,-0.05 -0.03,-0.01 -0.08,0 -0.11,0 -0.04,0 -0.08,-0.01 -0.12,0 -0.03,0 -0.07,0.04 -0.09,0.03 -0.1,-0.01 -0.06,-0.05 -0.16,-0.02 -0.04,0.01 -0.03,0.05 -0.08,0.05 -0.05,-0 -0.03,-0.05 -0.07,-0.06 -0.09,-0.02 -0.1,0.04 -0.15,0.06 -0.08,0.03 -0.06,-0.01 -0.14,-0.04 -0.06,-0.03 -0.14,-0.02 -0.21,-0 0,0 -0.16,0.05 -0.32,0.04l-0.04 0c0,0 -0.91,0.09 -1.2,0.01l-0.42 0.08 0.3 0.41 0.59 0.01c0,0 -0.53,0.4 -0.84,0.46l-0.08 0.05 0.23 0.37c0,0 0.75,-0.15 1.06,-0.44 0,0 0.35,-0.3 0.37,-0.36 0,0 0.56,0 1.59,0.02 0,0 2.02,0.08 2.63,0.08 0,0 1.4,-0.03 2.14,-0.1 0,0 2.5,0.06 3.3,-0.05 0,0 0.46,-0.02 0.57,0.02l0.08 -0.4 0.01 -0.03 -1.43 -0.09c-0.09,-0.07 -0.17,-0.08 -0.24,-0.05 -0.08,0.03 -0.05,0.07 -0.14,0.04 -0.05,-0.02 -0.06,-0.08 -0.15,-0.06 -0.03,0.01 -0.02,0.06 -0.07,0.06 -0.05,0 -0.05,-0.03 -0.08,-0.05 -0.09,-0.03 -0.06,0.01 -0.16,0.02 -0.02,0 -0.06,-0.03 -0.09,-0.03 -0.04,-0.01 -0.08,0 -0.11,0 -0.04,0 -0.08,-0.01 -0.11,0 -0.04,0.01 -0.04,0.04 -0.08,0.05 -0.08,0.02 -0.11,-0.03 -0.18,-0.03 -0.04,0.11 -0.12,0 -0.18,0 -0.11,-0.01 -0.2,0.04 -0.3,0.08 -0.1,0.03 -0.2,0.04 -0.31,0.04 -0.21,0 -0.42,0.04 -0.63,-0.01 -0.02,-0.01 -0.06,0 -0.06,-0.02 -0.05,-0.48 -0.35,-0.35 -0.35,-0.35l0 0z"/>
     <path class="fil2" d="M15.27 13.47c0.08,-0.04 0.03,-0.12 0.1,-0.18 0.12,-0.12 0.18,0.14 0.26,0.19 0.09,0.06 0.1,-0.05 0.13,-0.11 0.07,-0.14 0.1,0.01 0.19,0.05 0.11,0.05 0.12,-0.16 0.21,-0.1 0.07,0.04 0.05,0.18 0.11,0.23 0.08,0.06 0.22,0.05 0.3,-0.01 0.08,-0.06 0.07,-0.25 0.18,-0.28 0.08,-0.02 0.12,0.07 0.18,0.1 0.1,0.03 0.13,-0.06 0.18,-0.13 0.09,-0.1 0.09,0 0.13,0.07 0.09,0.15 0.15,-0.06 0.22,-0.1 0.13,-0.08 0.16,0.15 0.22,0.21 0.07,0.09 0.19,0.1 0.3,0.11 0.19,0.02 0.38,0.02 0.58,0.02 0.1,0 0.21,-0.01 0.31,-0.04 0.1,-0.03 0.18,-0.09 0.3,-0.08 0.05,0 0.14,0.1 0.18,-0 0.07,-0 0.1,0.05 0.18,0.03 0.04,-0.01 0.04,-0.04 0.08,-0.05 0.03,-0.01 0.08,0 0.11,0 0.04,0 0.08,-0.01 0.11,0 0.03,0.01 0.07,0.04 0.09,0.03 0.09,-0.01 0.06,-0.05 0.16,-0.02 0.04,0.01 0.03,0.05 0.08,0.05 0.05,-0 0.03,-0.05 0.07,-0.06 0.09,-0.02 0.1,0.04 0.15,0.06 0.09,0.03 0.05,-0.01 0.14,-0.04 0.06,-0.02 0.14,-0.02 0.21,-0 0,0 -0.05,0.07 0.6,0.05l0.64 0.03 -0.04 0.12c0,0 -1.23,0.02 -1.6,0.08 0,0 -1,0.02 -1.18,0.01 0,0 -1.65,-0.02 -1.75,0.03 0,0 -1.4,0.07 -1.85,0.01 0,0 -2.55,-0.1 -3.72,-0.05 0,0 -0.34,0.46 -1.32,0.76l-0.08 -0.11c0,0 0.83,-0.28 0.99,-0.55l-0.15 -0.18c0,0 -0.52,0.04 -0.67,-0.06l-0.06 -0.08 1.36 -0.02c0.16,0.01 0.32,-0.04 0.32,-0.04 0.06,-0.01 0.14,-0.02 0.21,0 0.08,0.03 0.05,0.07 0.14,0.04 0.05,-0.02 0.06,-0.08 0.15,-0.06 0.03,0.01 0.02,0.06 0.07,0.06 0.05,0 0.05,-0.03 0.08,-0.05 0.09,-0.03 0.06,0.01 0.16,0.02 0.02,0 0.06,-0.03 0.09,-0.03 0.04,-0.01 0.08,0 0.12,0 0.03,0 0.08,-0.01 0.11,0 0.04,0.01 0.04,0.04 0.08,0.05 0.08,0.02 0.11,-0.03 0.18,-0.03 0.04,0.11 0.12,0.01 0.18,0 0.09,-0.01 0.16,0.04 0.26,0.01l0.14 0.03c0,0 0.09,0.08 0.3,0.08 0,0 0.57,0.02 0.64,0 0.06,-0.02 0.12,-0.02 0.17,-0.05 0.01,-0 0.01,-0 0.01,-0.01l0 0z"/>
     <path class="fil1" d="M13.21 9.03c0,0 0,0 0,0 -0.51,0 -0.93,-0.42 -0.93,-0.93 0,-0 0,-0 0,-0 0,-0 0,-0 0,-0 0,-0.51 0.42,-0.93 0.93,-0.93 0,0 0,0 0,0 0.19,0 0.36,0.06 0.51,0.15 -0.23,-0.26 -0.57,-0.41 -0.92,-0.41 -0,0 -0,0 -0,0 -0.67,0.01 -1.21,0.56 -1.21,1.23 0,0.67 0.54,1.22 1.21,1.24 0,0 0,0 0,0 0.46,0 0.88,-0.25 1.09,-0.66 -0.17,0.19 -0.41,0.31 -0.69,0.31l0 0zm-9.03 6.99c0,0 -1.11,0.46 -1.16,0.72 0,0 -0.21,0.32 0.63,0.24 0,0 2.52,-0.24 2.61,0.88 0,0 0.03,0.46 -0.46,0.84 0,0 -1.1,1.04 -3.05,0.7 0,0 -0.88,-0.06 -0.85,-0.58 0,0 0.14,-0.24 0.47,0 0,0 1.78,0.46 2.64,-0.26 0,0 0.38,-0.37 0.11,-0.53 0,0 -0.5,-0.26 -1.17,-0.27 0,0 -2,0.23 -2.09,-0.58 0,0 -0.17,-0.7 1.05,-1.37 0,0 1.8,-0.87 3.35,-0.81 0,0 0.85,-0.23 0.92,0.49 0,0 -0.31,0.69 -1.43,0.75 0,0 -1.11,0.05 -1.22,-0.23 -0,0 -0.05,-0.08 -0.34,0.02l0 0zm1.37 -0.12c0,0 0.32,-0.05 0.24,-0.27 0,0 -0.4,-0.18 -0.75,0.12 0,0 -0.14,0.24 0.5,0.15zm3.78 1.6c0,0 0.11,-0.44 -1.11,-0.29 0,0 -1.81,0.32 -1.78,1.57 0,0 0.18,0.99 1.24,0.52 0,0 0.69,-0.37 0.85,-0.47 0,0 0.06,0.79 0.87,0.72 0,0 0.53,0.05 1.02,-0.61 0,0 0.49,-0.63 0.59,-0.59 0,0 0.26,-0.03 0.09,0.24 0,0 -0.38,0.61 0.15,0.73 0,0 0.58,0.2 0.92,-0.32 0,0 0.52,-0.79 0.82,-0.79 0,0 0.12,0.05 -0.08,0.32 0,0 -0.29,0.79 0.52,0.85 0,0 0.79,0.08 0.93,-0.27 0,0 0.15,-0.34 -0.26,-0.12 0,0 -0.56,0.34 -0.35,-0.17 0,0 0.85,-1.11 0.03,-1.42 0,0 -0.44,-0.2 -0.76,0.03 0,0 -0.47,0.5 -0.69,0.53 0,0 -0.17,0.03 -0.2,-0.34 0,0 -0.17,-0.55 -0.85,-0.21 0,0 -0.44,0.38 -1.25,1.36 0,0 -0.75,0.76 -0.55,0.02 0,0 0.53,-0.84 -0.03,-1.04 0,0 -0.32,-0.15 -0.81,0.35 0,0 -0.99,0.87 -1.23,0.87 0,0 -0.3,-0.05 0.14,-0.61 0,0 0.47,-0.64 1.3,-0.7 0,-0 0.49,-0 0.49,-0.15l0 0zm6.74 -0.27c-0.18,0.52 0.2,0.12 0.2,0.12 0.95,-0.49 0.95,0.5 0.95,0.5 0.18,0.24 0.55,-0.06 0.55,-0.06 0.18,-0.12 0.41,-0.35 0.41,-0.35 0.61,-0.55 1.01,-0.14 1.01,-0.14 0.09,0.24 0.32,0.06 0.32,0.06 0.78,-0.23 0.62,0.37 0.62,0.37 -0.23,0.06 -0.11,0.32 -0.11,0.32 0.09,0.32 0.56,-0.18 0.56,-0.18 0.27,-0.08 0.14,-0.46 0.14,-0.46 0.01,-0.31 0.4,-0.18 0.4,-0.18 0.26,0.2 0.63,0.05 0.63,0.05 0.61,-0.03 0.55,0.29 0.55,0.29 0.23,0.23 0,0.49 0,0.49 -0.43,0.4 -0.44,0.84 -0.44,0.84 0.03,0.5 1.05,-0.69 1.05,-0.69 0.78,-1.1 1.46,-0.93 1.46,-0.93 0.63,-0.01 0.46,0.93 0.46,0.93l0.78 -0.72c0.27,-0.38 0.67,-0.26 0.67,-0.26 0.85,0.21 0.21,1.27 0.21,1.27 -0.17,0.43 0.24,0.26 0.24,0.26 0.29,-0.41 0.98,-1.05 0.98,-1.05 1.1,-1.01 1.65,-0.76 1.65,-0.76 0.43,0.09 0.06,0.43 0.06,0.43 -0.21,0.3 -0.06,0.85 -0.06,0.85l1.54 0.02 -0.46 0.53 -1.3 -0.02c-0.21,0.46 -0.82,0.46 -0.82,0.46 -0.75,-0.08 -0.81,-0.69 -0.81,-0.69 -0.12,-0.02 -0.55,0.46 -0.55,0.46 -0.29,0.38 -1.14,0.09 -1.14,0.09 -0.46,-0.14 -0.17,-0.87 -0.17,-0.87 -0.14,-0.12 -0.82,0.67 -0.82,0.67 -0.38,0.56 -0.87,0.34 -0.87,0.34 -0.58,-0.17 -0.23,-0.87 -0.23,-0.87 0.21,-0.35 0.15,-0.44 0.15,-0.44 -0.32,0.18 -0.88,0.88 -0.88,0.88 -1.16,1.13 -1.92,0.26 -1.92,0.26 -0.37,-0.55 0.47,-1.27 0.47,-1.27 -0.18,-0.14 -0.35,0.02 -0.35,0.02 -0.52,0.94 -1.46,0.85 -1.46,0.85 -0.26,0.46 -0.88,0.66 -0.88,0.66 -1.62,0.43 -1.23,-0.88 -1.23,-0.88 -0.41,0.12 -0.47,-0.01 -0.47,-0.01 -0.03,0.11 -0.32,0.15 -0.32,0.15 0,0 -0.61,0.82 -1.31,0.84 -0.7,0.01 -0.9,-0.4 -0.79,-1.08 0.11,-0.69 1.02,-2.03 1.02,-2.03 -0.14,0.08 -0.29,-0.03 -0.29,-0.03 -0.12,-0.26 0.7,-0.59 0.7,-0.59 0.66,-0.29 0.44,0.14 0.44,0.14l-0.52 1.43 0 0zm-0.47 0.98c-0.27,0.84 0.05,0.92 0.05,0.92 0.3,-0.02 0.55,-0.58 0.55,-0.58 0.08,-0.3 -0.26,-0.69 -0.26,-0.69 -0.2,-0.05 -0.34,0.35 -0.34,0.35zm2.99 -0.12c-0.46,1.2 0.14,0.93 0.14,0.93 0.46,-0.27 0.46,-0.63 0.46,-0.63 0.01,-0.21 -0.23,-0.58 -0.23,-0.58 -0.17,-0.11 -0.37,0.27 -0.37,0.27zm9.91 -0.49c0,0 -0.53,0.15 -0.55,0.61 0,0 0.26,0.14 0.47,-0.05 0,-0 0.09,-0.43 0.08,-0.56z"/>
    </g>
   </g>
  </g>
 </g>
</svg>
