<?xml version="1.0" encoding="UTF-8"?>
<!DOCTYPE svg PUBLIC "-//W3C//DTD SVG 1.1//EN" "http://www.w3.org/Graphics/SVG/1.1/DTD/svg11.dtd">
<!-- Creator: CorelDRAW -->
<svg xmlns="http://www.w3.org/2000/svg" xml:space="preserve" width="16.7871mm" height="16.7871mm" version="1.1" style="shape-rendering:geometricPrecision; text-rendering:geometricPrecision; image-rendering:optimizeQuality; fill-rule:evenodd; clip-rule:evenodd"
viewBox="0 0 36.9 36.9"
 xmlns:xlink="http://www.w3.org/1999/xlink"
 xmlns:xodm="http://www.corel.com/coreldraw/odm/2003">
 <defs>
  <style type="text/css">
   <![CDATA[
    .fil0 {fill:none}
    .fil1 {fill:#EC0F29;fill-rule:nonzero}
   ]]>
  </style>
 </defs>
 <g id="Capa_x0020_1">
  <metadata id="CorelCorpID_0Corel-Layer"/>
  <g id="_2504448624432">
   <circle class="fil0" cx="18.45" cy="18.45" r="18.45"/>
   <g>
    <g id="_23214e9eff">
     <path class="fil1" d="M5.48 15.02c0.46,-0.09 0.94,-0.12 1.41,-0.12 0.35,0.01 0.69,0.03 1.03,0.13 0.32,0.11 0.63,0.27 0.85,0.53 0.25,0.28 0.35,0.65 0.41,1.01 0.03,0.19 0.05,0.38 0.05,0.58 -0.31,-0 -0.61,-0 -0.92,0 -0.01,-0.37 -0.09,-0.77 -0.35,-1.05 -0.32,-0.32 -0.77,-0.5 -1.22,-0.53 -0.28,-0.02 -0.55,0.01 -0.82,0.07 -0.33,0.07 -0.66,0.19 -0.92,0.39 -0.24,0.19 -0.46,0.45 -0.55,0.76 -0.08,0.29 -0.06,0.62 0.1,0.88 0.18,0.27 0.47,0.45 0.77,0.56 0.5,0.19 1.03,0.3 1.55,0.43 0.22,0.05 0.43,0.15 0.61,0.28 0.12,0.09 0.24,0.21 0.26,0.37 0.03,0.29 -0.02,0.59 -0.19,0.84 -0.16,0.25 -0.4,0.43 -0.66,0.57 -0.44,0.25 -0.96,0.36 -1.46,0.32 -0.29,-0.02 -0.58,-0.08 -0.85,-0.2 -0.25,-0.11 -0.46,-0.31 -0.55,-0.56 -0.14,-0.37 -0.16,-0.76 -0.17,-1.15 0.31,0 0.61,0 0.92,0 -0.01,0.3 0.02,0.63 0.2,0.88 0.14,0.2 0.39,0.28 0.62,0.3 0.25,0.02 0.51,-0.03 0.71,-0.19 0.11,-0.11 0.23,-0.23 0.25,-0.39 0.01,-0.11 -0.06,-0.22 -0.13,-0.3 -0.09,-0.11 -0.23,-0.16 -0.36,-0.21 -0.39,-0.14 -0.8,-0.19 -1.2,-0.29 -0.37,-0.11 -0.75,-0.26 -1.02,-0.55 -0.25,-0.27 -0.37,-0.64 -0.4,-1 -0.03,-0.36 0.03,-0.74 0.22,-1.05 0.08,-0.12 0.16,-0.23 0.25,-0.33 0.39,-0.47 0.93,-0.85 1.54,-0.98z"/>
     <path class="fil1" d="M30.79 15.07c0.23,-0.03 0.46,-0.05 0.69,-0.05 0.2,0 0.41,-0 0.61,0.02 0.3,0.02 0.6,0.06 0.88,0.19 0.3,0.12 0.58,0.31 0.77,0.58 0.18,0.26 0.27,0.56 0.32,0.87 0.03,0.2 0.05,0.4 0.06,0.61 -0.31,0 -0.61,0 -0.92,0 -0,-0.37 -0.09,-0.75 -0.34,-1.03 -0.27,-0.28 -0.65,-0.46 -1.04,-0.52 -0.39,-0.07 -0.79,-0.02 -1.17,0.08 -0.37,0.1 -0.75,0.26 -1,0.56 -0.26,0.28 -0.41,0.68 -0.35,1.06 0.03,0.22 0.15,0.43 0.32,0.58 0.22,0.19 0.49,0.32 0.76,0.42 0.46,0.16 0.93,0.26 1.4,0.38 0.2,0.05 0.38,0.14 0.55,0.25 0.13,0.09 0.26,0.21 0.3,0.37 0.03,0.17 0.01,0.34 -0.03,0.51 -0.07,0.29 -0.27,0.54 -0.5,0.72 -0.36,0.28 -0.8,0.47 -1.26,0.52 -0.43,0.04 -0.87,-0.01 -1.28,-0.15 -0.28,-0.1 -0.53,-0.31 -0.64,-0.59 -0.14,-0.37 -0.15,-0.78 -0.17,-1.17 0.31,0 0.61,0 0.92,0 -0.01,0.24 0.01,0.48 0.1,0.7 0.07,0.16 0.18,0.31 0.35,0.39 0.29,0.14 0.65,0.13 0.94,-0 0.14,-0.06 0.25,-0.17 0.33,-0.3 0.05,-0.08 0.08,-0.18 0.06,-0.27 -0.03,-0.12 -0.13,-0.22 -0.22,-0.3 -0.16,-0.1 -0.34,-0.15 -0.52,-0.2 -0.22,-0.06 -0.44,-0.1 -0.66,-0.14 -0.25,-0.05 -0.49,-0.13 -0.72,-0.23 -0.32,-0.14 -0.62,-0.37 -0.77,-0.68 -0.25,-0.51 -0.29,-1.15 -0.02,-1.66 0.16,-0.27 0.38,-0.51 0.61,-0.73 0.32,-0.28 0.7,-0.51 1.11,-0.64 0.18,-0.06 0.36,-0.08 0.54,-0.11z"/>
     <path class="fil1" d="M10.23 15.14c1.64,0 3.29,0 4.93,0 -0.06,0.26 -0.12,0.52 -0.18,0.78 -1.32,0 -2.64,0 -3.96,0 -0.4,1.66 -0.81,3.32 -1.21,4.99 1.31,0 2.62,0 3.92,0 -0.05,0.25 -0.11,0.5 -0.15,0.76 -0.97,0 -1.94,-0.01 -2.92,-0 -0.68,-0.01 -1.37,0.01 -2.06,-0.01 0.54,-2.17 1.08,-4.34 1.62,-6.51z"/>
     <path class="fil1" d="M17.72 15.16c0.29,0 0.57,0 0.86,0 -1.31,2.18 -2.63,4.35 -3.95,6.52 -0.3,0 -0.6,0 -0.9,0 0.37,-0.61 0.75,-1.22 1.12,-1.83 0.96,-1.57 1.92,-3.13 2.87,-4.69z"/>
     <g>
      <path class="fil1" d="M18.85 15.16c0.29,-0 0.58,0 0.87,-0 0.37,2.17 0.74,4.35 1.12,6.52 -0.27,0 -0.54,0 -0.81,0 -0.32,-1.82 -0.64,-3.63 -0.97,-5.45 -0.05,0.08 -0.11,0.15 -0.14,0.23 0.18,1.08 0.37,2.16 0.56,3.24 -0.84,0 -1.69,0 -2.53,0 -0.03,0.07 -0.08,0.13 -0.11,0.2 0.88,0 1.77,0 2.65,0 0.11,0.59 0.22,1.18 0.33,1.78 -0.29,-0 -0.58,0 -0.87,0 -0.04,-0.35 -0.08,-0.69 -0.12,-1.03 -0.82,0 -1.64,-0 -2.47,0 -0.2,0.35 -0.42,0.69 -0.62,1.03 -0.29,0 -0.58,0 -0.86,0 0.82,-1.34 1.63,-2.68 2.45,-4.02 0.51,-0.83 1.02,-1.66 1.52,-2.5l0 0zm-0.55 2.34c-0.3,0.49 -0.62,0.98 -0.92,1.47 0.39,0 0.77,0 1.16,0 -0.08,-0.49 -0.16,-0.98 -0.24,-1.47z"/>
     </g>
     <path class="fil1" d="M22.49 15.16c0.96,0 1.92,0 2.88,0 0.2,0 0.39,-0.01 0.59,0.01 0.36,0.03 0.73,0.06 1.07,0.21 0.32,0.18 0.63,0.4 0.84,0.71 0.1,0.14 0.14,0.32 0.18,0.48 0.06,0.21 0.1,0.43 0.08,0.64 -0.01,0.19 -0.06,0.37 -0.11,0.55 -0.07,0.23 -0.17,0.46 -0.32,0.64 -0.09,0.11 -0.2,0.2 -0.3,0.31 -0.15,0.11 -0.31,0.22 -0.47,0.34 0.13,0.13 0.27,0.25 0.34,0.42 0.07,0.2 0.1,0.41 0.1,0.63 -0.03,0.27 -0.05,0.55 -0.12,0.82 -0.03,0.14 -0.1,0.27 -0.1,0.42 0.01,0.12 0.06,0.23 0.08,0.35 -0.29,0 -0.57,0 -0.86,0 -0.07,-0.19 -0.15,-0.38 -0.13,-0.58 0.02,-0.22 0.05,-0.45 0.09,-0.67 0.04,-0.25 0.04,-0.5 0.03,-0.74 -0.01,-0.15 -0.06,-0.31 -0.15,-0.43 -0.08,-0.11 -0.21,-0.2 -0.34,-0.22 0.18,-0.09 0.37,-0.17 0.53,-0.29 0.11,-0.07 0.19,-0.18 0.28,-0.27 0.18,-0.17 0.35,-0.37 0.43,-0.62 0.04,-0.14 0.07,-0.29 0.1,-0.43 0.05,-0.24 0.05,-0.5 -0.07,-0.71 -0.27,-0.47 -0.82,-0.77 -1.36,-0.75 -0.85,0 -1.7,0 -2.54,0 -0.45,1.91 -0.91,3.81 -1.36,5.72 -0.31,0 -0.61,-0 -0.92,0 0.51,-2.17 1.03,-4.34 1.54,-6.52z"/>
     <path class="fil1" d="M5.21 16.08c0.41,-0.22 0.88,-0.35 1.36,-0.33 0.23,0.01 0.47,0.04 0.7,0.11 0.19,0.06 0.36,0.17 0.49,0.32 0.1,0.11 0.22,0.23 0.25,0.39 0.05,0.19 0.07,0.4 0.08,0.59 -0.31,0 -0.63,-0 -0.94,0 -0,-0.16 -0.04,-0.33 -0.13,-0.47 -0.06,-0.1 -0.16,-0.18 -0.27,-0.22 -0.24,-0.09 -0.51,-0.12 -0.76,-0.05 -0.15,0.04 -0.28,0.14 -0.36,0.28 -0.08,0.18 0.01,0.39 0.16,0.49 0.21,0.15 0.47,0.22 0.72,0.29 0.45,0.13 0.91,0.22 1.35,0.4 0.13,0.05 0.24,0.12 0.35,0.2 0.26,0.19 0.51,0.44 0.59,0.77 0.09,0.42 0.1,0.88 -0.06,1.29 -0.19,0.45 -0.5,0.86 -0.91,1.13 -0.2,0.14 -0.43,0.22 -0.66,0.31 -0.57,0.21 -1.19,0.34 -1.8,0.28 -0.45,-0.03 -0.91,-0.09 -1.32,-0.28 -0.24,-0.11 -0.45,-0.28 -0.63,-0.47 -0.28,-0.28 -0.52,-0.62 -0.6,-1.01 -0.06,-0.32 -0.06,-0.65 -0.03,-0.97 0.29,0 0.59,0 0.88,0 -0,0.15 0.01,0.3 0.01,0.44 0.02,0.25 0.04,0.51 0.12,0.75 0.11,0.27 0.3,0.51 0.55,0.64 0.09,0.05 0.18,0.09 0.28,0.12 0.66,0.19 1.39,0.21 2.04,-0.05 0.3,-0.12 0.58,-0.28 0.81,-0.5 0.29,-0.28 0.44,-0.68 0.46,-1.07 0,-0.18 -0.04,-0.36 -0.15,-0.5 -0.13,-0.17 -0.32,-0.27 -0.51,-0.34 -0.47,-0.18 -0.96,-0.28 -1.44,-0.43 -0.31,-0.09 -0.62,-0.21 -0.88,-0.4 -0.19,-0.14 -0.34,-0.34 -0.37,-0.58 -0.07,-0.45 0.2,-0.92 0.6,-1.13z"/>
     <path class="fil1" d="M31.03 15.89c0.27,-0.03 0.55,-0.02 0.82,0.02 0.22,0.04 0.44,0.1 0.63,0.23 0.11,0.07 0.19,0.19 0.27,0.3 0.08,0.12 0.14,0.25 0.15,0.39 0.02,0.15 0.04,0.3 0.06,0.44 -0.31,0 -0.61,0 -0.92,0 -0.01,-0.21 -0.06,-0.43 -0.21,-0.57 -0.09,-0.09 -0.22,-0.13 -0.34,-0.17 -0.23,-0.06 -0.5,-0.07 -0.72,0.04 -0.1,0.07 -0.21,0.15 -0.26,0.27 -0.05,0.12 -0,0.25 0.06,0.35 0.11,0.14 0.27,0.21 0.43,0.27 0.37,0.14 0.76,0.22 1.14,0.33 0.33,0.1 0.67,0.18 0.96,0.39 0.27,0.18 0.51,0.43 0.59,0.75 0.05,0.23 0.07,0.46 0.06,0.69 -0.01,0.25 -0.05,0.49 -0.16,0.72 -0.22,0.48 -0.58,0.91 -1.06,1.14 -0.58,0.27 -1.2,0.47 -1.84,0.5 -0.23,0.01 -0.47,-0.01 -0.7,-0.04 -0.36,-0.04 -0.72,-0.1 -1.06,-0.26 -0.18,-0.08 -0.34,-0.19 -0.48,-0.33 -0.32,-0.28 -0.6,-0.63 -0.72,-1.05 -0.09,-0.35 -0.09,-0.72 -0.06,-1.08 0.29,0 0.59,0 0.88,0 0.01,0.29 0.01,0.57 0.06,0.85 0.02,0.14 0.05,0.28 0.11,0.4 0.07,0.15 0.16,0.29 0.28,0.4 0.17,0.17 0.39,0.27 0.62,0.33 0.42,0.1 0.85,0.15 1.28,0.09 0.43,-0.06 0.85,-0.22 1.21,-0.46 0.24,-0.16 0.45,-0.39 0.56,-0.66 0.09,-0.22 0.16,-0.45 0.15,-0.69 -0,-0.15 -0.05,-0.3 -0.14,-0.42 -0.11,-0.15 -0.27,-0.25 -0.44,-0.32 -0.37,-0.15 -0.76,-0.25 -1.15,-0.35 -0.31,-0.09 -0.63,-0.16 -0.92,-0.31 -0.22,-0.11 -0.43,-0.24 -0.57,-0.44 -0.11,-0.15 -0.16,-0.35 -0.15,-0.54 0.02,-0.39 0.27,-0.73 0.59,-0.92 0.3,-0.17 0.63,-0.27 0.96,-0.32z"/>
     <path class="fil1" d="M11.11 16.33c0.02,-0.09 0.04,-0.18 0.07,-0.26 1.25,-0 2.5,0 3.75,0 -0.06,0.23 -0.11,0.46 -0.17,0.69 -0.96,-0.01 -1.92,-0 -2.88,-0 -0.08,0.28 -0.15,0.56 -0.24,0.85 0.92,0 1.83,0 2.75,0 -0.06,0.23 -0.11,0.47 -0.16,0.71 -0.92,0 -1.83,0 -2.75,0 -0.01,0.07 -0.03,0.14 -0.04,0.22 0.91,0 1.82,0 2.72,0 -0.06,0.22 -0.13,0.44 -0.19,0.67 -0.91,0.01 -1.82,0 -2.74,0 -0.07,0.3 -0.14,0.59 -0.2,0.89 0.96,-0 1.93,0 2.89,-0 -0.05,0.22 -0.11,0.44 -0.16,0.66 -1.25,0 -2.49,-0 -3.74,0 0.36,-1.47 0.71,-2.95 1.07,-4.42z"/>
     <g>
      <path class="fil1" d="M23.36 16.14c0.86,0 1.72,0 2.58,0 0.19,0.02 0.38,0.05 0.55,0.14 0.19,0.11 0.36,0.26 0.47,0.46 0.07,0.13 0.1,0.29 0.1,0.44 0,0.23 -0.01,0.48 -0.11,0.7 -0.06,0.13 -0.15,0.24 -0.24,0.35 -0.12,0.14 -0.24,0.28 -0.39,0.39 -0.17,0.1 -0.36,0.17 -0.55,0.23 -0.69,0.01 -1.38,0 -2.07,0 -0.03,0.07 -0.06,0.13 -0.09,0.2 0.58,0 1.17,0 1.75,0 0.19,0.02 0.4,0.04 0.56,0.17 0.12,0.12 0.24,0.27 0.27,0.45 0.02,0.15 -0,0.3 -0.02,0.45 -0.03,0.25 -0.07,0.51 -0.07,0.77 -0,0.27 0.03,0.54 0.09,0.81 -0.34,-0 -0.68,0 -1.02,-0 -0.05,-0.23 -0.1,-0.47 -0.08,-0.71 0.02,-0.23 0.04,-0.45 0.09,-0.67 0.05,-0.14 0.02,-0.3 -0.07,-0.42 -0.07,-0.08 -0.18,-0.11 -0.28,-0.11 -0.46,0 -0.91,0 -1.37,0 -0.17,0.64 -0.34,1.27 -0.5,1.91 -0.3,0 -0.61,0 -0.91,0 0.44,-1.85 0.88,-3.7 1.33,-5.54l0 0zm0.51 1.92c0.42,0 0.83,-0 1.25,0 0.2,-0.01 0.42,-0.06 0.58,-0.18 0.12,-0.1 0.23,-0.22 0.27,-0.37 0.02,-0.13 0,-0.27 -0.06,-0.39 -0.1,-0.12 -0.26,-0.17 -0.4,-0.23 -0.07,-0.04 -0.16,-0.02 -0.24,-0.02 -0.39,0 -0.78,0 -1.16,0 -0.08,0.39 -0.16,0.79 -0.24,1.18z"/>
     </g>
    </g>
   </g>
  </g>
 </g>
</svg>
