<?xml version="1.0" encoding="UTF-8"?>
<!DOCTYPE svg PUBLIC "-//W3C//DTD SVG 1.1//EN" "http://www.w3.org/Graphics/SVG/1.1/DTD/svg11.dtd">
<!-- Creator: CorelDRAW -->
<svg xmlns="http://www.w3.org/2000/svg" xml:space="preserve" width="16.7871mm" height="16.7871mm" version="1.1" style="shape-rendering:geometricPrecision; text-rendering:geometricPrecision; image-rendering:optimizeQuality; fill-rule:evenodd; clip-rule:evenodd"
viewBox="0 0 42.26 42.26"
 xmlns:xlink="http://www.w3.org/1999/xlink"
 xmlns:xodm="http://www.corel.com/coreldraw/odm/2003">
 <defs>
  <style type="text/css">
   <![CDATA[
    .fil0 {fill:none}
    .fil2 {fill:#BCC032;fill-rule:nonzero}
    .fil1 {fill:#DD1F26;fill-rule:nonzero}
   ]]>
  </style>
 </defs>
 <g id="Capa_x0020_1">
  <metadata id="CorelCorpID_0Corel-Layer"/>
  <g id="_2503498361888">
   <circle class="fil0" cx="21.13" cy="21.13" r="21.13"/>
   <g>
    <g>
     <path class="fil1" d="M10.67 17.49c-0.49,0 -1.18,0.21 -1.68,0.89 -0.09,0.13 -0.17,0.28 -0.21,0.44 -0.15,0.54 -0.05,1.11 0.29,1.56 0.26,0.34 0.58,0.6 0.87,0.83 0.14,0.11 0.44,0.39 0.54,0.51 0.14,0.18 0.25,0.28 0.38,0.68 0.08,0.24 0.09,0.55 0.05,0.73 0.9,-0.9 1.89,-2.08 1.89,-3.36 0,-1.47 -1.06,-2.26 -2.13,-2.26l0 0zm0 0l0 0 0 0z"/>
    </g>
    <g>
     <path class="fil2" d="M8.79 22.41c-0.38,-0.52 -0.81,-0.83 -1.17,-1.16 -0.16,-0.14 -0.33,-0.25 -0.45,-0.38 -0.61,-0.61 -0.89,-1.36 -0.75,-2.28 0.11,-0.72 0.47,-1.2 0.9,-1.55 -0.51,-0.38 -1.12,-0.59 -1.81,-0.59 -1.71,0 -3.14,1.39 -3.1,3.1 0.08,3.09 3.91,5.72 5.49,6.26 0.85,-0.44 1.29,-1.25 1.29,-2.09 -0,-0.61 -0.26,-1.11 -0.4,-1.31l0 0zm0 0l0 0 0 0z"/>
    </g>
    <g>
     <path class="fil1" d="M15.48 22.25c0.3,0.21 0.88,0.47 1.3,0.47 0.32,0 0.59,-0.12 0.59,-0.46 0,-0.33 -0.43,-0.45 -0.87,-0.62 -0.5,-0.19 -1.01,-0.5 -1.01,-1.3 0,-1.07 0.79,-1.63 1.94,-1.63 0.76,0 1.43,0.38 1.78,0.78l-0.76 0.79c-0.34,-0.29 -0.72,-0.5 -1.08,-0.5 -0.3,0 -0.52,0.12 -0.52,0.39 0,0.36 0.32,0.45 0.86,0.67 0.52,0.21 1.05,0.53 1.05,1.29 0,1.04 -0.85,1.71 -2.05,1.71 -0.85,0 -1.56,-0.35 -1.84,-0.57l0.59 -1.01zm5.98 -0.36c0.05,-0.24 0.06,-0.45 0.06,-0.62 0,-0.36 -0.11,-0.57 -0.37,-0.57 -0.35,0 -0.58,0.34 -0.69,0.96 -0.05,0.24 -0.07,0.49 -0.07,0.68 0,0.33 0.09,0.59 0.36,0.59 0.36,0 0.58,-0.32 0.7,-1.05l0 0zm-0.1 -2.08c0.53,0 1.45,0.2 1.45,1.43 0,0.19 -0.01,0.37 -0.04,0.56 -0.23,1.45 -1.15,2.04 -2.2,2.04 -0.92,0 -1.44,-0.53 -1.44,-1.48 0,-0.18 0.01,-0.39 0.05,-0.6 0.27,-1.56 1.33,-1.94 2.18,-1.94l0 0zm2.9 3.91l-1.24 0 0.54 -3.08 0.03 -0.72 0.99 0 0.02 0.53c0.27,-0.47 0.66,-0.64 0.97,-0.64 0.22,0 0.45,0.05 0.59,0.15l-0.36 1.03c-0.15,-0.08 -0.33,-0.13 -0.5,-0.13 -0.32,0 -0.57,0.19 -0.64,0.54l-0.42 2.32zm1.65 0l0.67 -3.8 1.24 0 -0.67 3.8 -1.24 0zm1.58 -5.42c0.35,0 0.56,0.24 0.56,0.53 0,0.39 -0.34,0.7 -0.78,0.7 -0.36,0 -0.56,-0.21 -0.56,-0.51 0,-0.38 0.33,-0.72 0.77,-0.72l0 0zm2.99 2.44c-0.11,-0.04 -0.22,-0.06 -0.33,-0.06 -0.67,0 -0.92,1.02 -0.92,1.63 0,0.36 0.08,0.65 0.44,0.65 0.25,0 0.43,-0.16 0.5,-0.42l0.31 -1.79zm0.83 2.18l-0.05 0.8 -1.05 0 0 -0.35 -0.04 -0.01c-0.26,0.3 -0.59,0.47 -1.04,0.47 -0.79,0 -1.15,-0.59 -1.15,-1.39 0,-1.52 0.85,-2.63 2.4,-2.63 0.31,0 0.87,0.08 1.42,0.3l-0.49 2.81zm0.64 0.8l0.53 -3.03 0.05 -0.76 1.02 0 0.02 0.41c0.29,-0.32 0.67,-0.52 1.17,-0.52 0.62,0 0.99,0.28 0.99,0.92 0,0.12 -0.01,0.27 -0.04,0.41l-0.46 2.58 -1.24 0 0.39 -2.22c0.02,-0.12 0.06,-0.29 0.06,-0.43 0,-0.15 -0.06,-0.31 -0.28,-0.31 -0.32,0 -0.5,0.24 -0.56,0.55l-0.42 2.41 -1.23 0zm6.59 -2.98c-0.11,-0.04 -0.22,-0.06 -0.33,-0.06 -0.67,0 -0.92,1.02 -0.92,1.63 0,0.36 0.08,0.65 0.44,0.65 0.25,0 0.43,-0.16 0.5,-0.42l0.31 -1.79zm0.83 2.18l-0.05 0.8 -1.05 0 0 -0.35 -0.04 -0.01c-0.26,0.3 -0.59,0.47 -1.04,0.47 -0.79,0 -1.15,-0.59 -1.15,-1.39 0,-1.52 0.85,-2.63 2.4,-2.63 0.31,0 0.87,0.08 1.42,0.3l-0.5 2.81z"/>
    </g>
   </g>
  </g>
 </g>
</svg>
