<?xml version="1.0" encoding="UTF-8"?>
<!DOCTYPE svg PUBLIC "-//W3C//DTD SVG 1.1//EN" "http://www.w3.org/Graphics/SVG/1.1/DTD/svg11.dtd">
<!-- Creator: CorelDRAW -->
<svg xmlns="http://www.w3.org/2000/svg" xml:space="preserve" width="16.7871mm" height="16.7871mm" version="1.1" style="shape-rendering:geometricPrecision; text-rendering:geometricPrecision; image-rendering:optimizeQuality; fill-rule:evenodd; clip-rule:evenodd"
viewBox="0 0 32.74 32.74"
 xmlns:xlink="http://www.w3.org/1999/xlink"
 xmlns:xodm="http://www.corel.com/coreldraw/odm/2003">
 <defs>
  <style type="text/css">
   <![CDATA[
    .fil0 {fill:none}
    .fil2 {fill:#1A75CF;fill-rule:nonzero}
    .fil1 {fill:#FDBB30;fill-rule:nonzero}
   ]]>
  </style>
 </defs>
 <g id="Capa_x0020_1">
  <metadata id="CorelCorpID_0Corel-Layer"/>
  <g id="_2504455984912">
   <circle class="fil0" cx="16.37" cy="16.37" r="16.37"/>
   <g>
    <g>
     <path class="fil1" d="M27.23 15.26c0.16,0 0.29,-0.08 0.31,-0.19l0.16 -1.79c0,-0.18 -0.21,-0.32 -0.47,-0.32 -0.26,0 -0.47,0.14 -0.47,0.32l0.16 1.78c0.02,0.11 0.15,0.19 0.31,0.19l-0 0zm-0.96 0.56c0.08,-0.14 0.07,-0.29 -0.01,-0.36l-1.47 -1.03c-0.15,-0.09 -0.38,0.02 -0.51,0.24 -0.13,0.22 -0.11,0.48 0.04,0.56l1.62 0.76c0.1,0.04 0.24,-0.03 0.32,-0.17l-0 0zm1.93 -0c0.08,0.14 0.22,0.21 0.32,0.17l1.62 -0.76c0.15,-0.09 0.17,-0.34 0.05,-0.56 -0.13,-0.22 -0.36,-0.33 -0.51,-0.24l-1.47 1.03c-0.08,0.07 -0.09,0.22 -0.01,0.36l-0 -0zm-0.97 1.67c0.16,0 0.29,0.08 0.31,0.19l0.16 1.78c0,0.18 -0.21,0.32 -0.47,0.32 -0.26,0 -0.47,-0.14 -0.47,-0.32l0.16 -1.78c0.02,-0.11 0.15,-0.19 0.31,-0.19l-0 0zm0.97 -0.56c0.08,-0.14 0.22,-0.21 0.32,-0.17l1.62 0.76c0.15,0.09 0.17,0.34 0.05,0.56 -0.13,0.22 -0.36,0.33 -0.51,0.24l-1.47 -1.03c-0.08,-0.07 -0.09,-0.23 -0.01,-0.36l-0 0 0 0zm-1.93 -0c0.08,0.14 0.07,0.29 -0.01,0.36l-1.47 1.03c-0.15,0.09 -0.38,-0.02 -0.51,-0.24 -0.13,-0.23 -0.11,-0.48 0.04,-0.56l1.62 -0.76c0.1,-0.04 0.24,0.03 0.32,0.17l-0 0 0 -0z"/>
    </g>
    <g>
     <path class="fil2" d="M17.98 17.29c0,0.05 -0,0.11 -0.02,0.16 -0.06,0.21 -0.28,0.38 -0.54,0.38 -0.22,0 -0.4,-0.13 -0.4,-0.39 0,-0.41 0.45,-0.52 0.96,-0.52l0 0.37zm0.8 -0.71c0,-0.67 -0.29,-1.27 -1.26,-1.27 -0.5,0 -0.9,0.14 -1.11,0.27l0.16 0.54c0.2,-0.12 0.51,-0.23 0.81,-0.23 0.49,-0 0.57,0.28 0.57,0.46l0 0.04c-1.08,-0 -1.76,0.37 -1.76,1.13 0,0.46 0.35,0.9 0.95,0.9 0.37,0 0.68,-0.15 0.87,-0.38l0.02 0c0,0 0.12,0.51 0.8,0.32 -0.04,-0.21 -0.05,-0.44 -0.05,-0.72l0 -1.06 -0 0zm-16.76 -2.18c0,0 0.7,2.88 0.82,3.35 0.13,0.55 0.37,0.75 1.05,0.61l0.44 -1.79c0.11,-0.44 0.19,-0.76 0.26,-1.21l0.01 0c0.05,0.46 0.12,0.77 0.21,1.21 0,0 0.18,0.81 0.27,1.24 0.09,0.43 0.35,0.69 1.01,0.55l1.05 -3.96 -0.84 0 -0.36 1.71c-0.1,0.5 -0.18,0.89 -0.25,1.34l-0.01 0c-0.06,-0.45 -0.14,-0.83 -0.24,-1.31l-0.37 -1.74 -0.88 0 -0.4 1.7c-0.11,0.52 -0.22,0.93 -0.28,1.37l-0.01 0c-0.07,-0.41 -0.16,-0.94 -0.26,-1.44 0,0 -0.24,-1.22 -0.32,-1.64l-0.89 0zm6.71 2.9c0,0.05 -0.01,0.11 -0.02,0.16 -0.06,0.21 -0.28,0.38 -0.54,0.38 -0.22,0 -0.4,-0.13 -0.4,-0.39 0,-0.41 0.45,-0.52 0.96,-0.52l0 0.37zm0.8 -0.71c0,-0.67 -0.29,-1.27 -1.26,-1.27 -0.5,0 -0.9,0.14 -1.11,0.27l0.16 0.54c0.2,-0.12 0.51,-0.23 0.81,-0.23 0.49,-0 0.57,0.28 0.57,0.46l0 0.04c-1.08,-0 -1.76,0.37 -1.76,1.13 0,0.46 0.35,0.9 0.95,0.9 0.37,0 0.68,-0.15 0.87,-0.38l0.02 0c0,0 0.12,0.51 0.8,0.32 -0.04,-0.21 -0.05,-0.44 -0.05,-0.72l0 -1.06zm1.34 0.93l0 -3.12 -0.8 0 0 3.96 0.8 0 0 -0.84zm10.52 -3.12l0 2.92c0,0.4 0.08,0.68 0.24,0.86 0.14,0.15 0.37,0.25 0.65,0.25 0.24,0 0.47,-0.05 0.58,-0.09l-0.01 -0.63c-0.08,0.02 -0.18,0.04 -0.31,0.04 -0.27,0 -0.37,-0.18 -0.37,-0.54l0 -1.12 0.7 0 0 -0.76 -0.7 0 0 -0.94 -0.79 0zm-2.08 0.98l0 2.97 0.83 0 0 -1.52c0,-0.08 0,-0.15 0.02,-0.22 0.06,-0.32 0.31,-0.52 0.66,-0.52 0.1,0 0.16,0.01 0.24,0.02l0 -0.78c-0.06,-0.01 -0.1,-0.02 -0.18,-0.02 -0.31,0 -0.66,0.2 -0.81,0.63l-0.02 0 0 -0.56 -0.73 0zm-7.88 0l0 2.97 0.81 0 0 -1.74c0,-0.08 0.01,-0.17 0.04,-0.24 0.07,-0.18 0.23,-0.38 0.49,-0.38 0.33,0 0.48,0.28 0.48,0.67l0 1.69 0.81 0 0 -1.77c0,-0.08 0.01,-0.17 0.03,-0.24 0.07,-0.2 0.24,-0.36 0.48,-0.36 0.33,0 0.49,0.27 0.49,0.74l0 1.63 0.81 0 0 -1.75c0,-0.92 -0.47,-1.29 -1,-1.29 -0.23,0 -0.42,0.06 -0.59,0.16 -0.14,0.09 -0.27,0.21 -0.38,0.37l-0.01 0c-0.13,-0.32 -0.43,-0.53 -0.82,-0.53 -0.5,0 -0.73,0.26 -0.87,0.47l-0.01 0 0 -0.4 -0.77 0 0 0z"/>
    </g>
    <path class="fil1" d="M30.55 18.21l0.01 0c0.02,0 0.03,-0.01 0.03,-0.02 0,-0.01 -0.01,-0.02 -0.02,-0.02 -0.01,0 -0.01,0 -0.01,0l0 0.03 0 -0 0 0zm-0 0.08l-0.04 0 0 -0.14c0.01,-0 0.03,-0.01 0.06,-0.01 0.03,0 0.05,0 0.06,0.01 0.01,0.01 0.02,0.02 0.02,0.03 0,0.01 -0.01,0.03 -0.03,0.03l0 0c0.02,0 0.02,0.02 0.03,0.04 0,0.02 0.01,0.03 0.01,0.03l-0.05 0c-0,-0.01 -0.01,-0.02 -0.01,-0.03 -0,-0.01 -0.01,-0.02 -0.02,-0.02l-0.01 0 0 0.05zm0.02 -0.19c-0.06,0 -0.11,0.05 -0.11,0.11 0,0.06 0.05,0.11 0.11,0.11 0.06,0 0.11,-0.05 0.11,-0.11 0,-0.06 -0.05,-0.11 -0.11,-0.11l-0 0zm0 -0.04c0.09,0 0.15,0.07 0.15,0.15 0,0.08 -0.07,0.15 -0.16,0.15 -0.09,0 -0.16,-0.07 -0.16,-0.15 0,-0.08 0.07,-0.15 0.16,-0.15l0 0 0 0z"/>
   </g>
  </g>
 </g>
</svg>
