<?xml version="1.0" encoding="UTF-8"?>
<!DOCTYPE svg PUBLIC "-//W3C//DTD SVG 1.1//EN" "http://www.w3.org/Graphics/SVG/1.1/DTD/svg11.dtd">
<!-- Creator: CorelDRAW -->
<svg xmlns="http://www.w3.org/2000/svg" xml:space="preserve" width="5.2793mm" height="5.2793mm" version="1.1" style="shape-rendering:geometricPrecision; text-rendering:geometricPrecision; image-rendering:optimizeQuality; fill-rule:evenodd; clip-rule:evenodd"
viewBox="0 0 12.21 12.21"
 xmlns:xlink="http://www.w3.org/1999/xlink"
 xmlns:xodm="http://www.corel.com/coreldraw/odm/2003">
 <defs>
  <style type="text/css">
   <![CDATA[
    .fil0 {fill:white}
   ]]>
  </style>
 </defs>
 <g id="Capa_x0020_1">
  <metadata id="CorelCorpID_0Corel-Layer"/>
  <path class="fil0" d="M6.11 0c3.37,0 6.11,2.73 6.11,6.11 0,3.37 -2.73,6.11 -6.11,6.11 -3.37,0 -6.11,-2.73 -6.11,-6.11 0,-3.37 2.73,-6.11 6.11,-6.11zm-3.84 5.09l4 0c0.11,0 0.2,-0.09 0.2,-0.2l0 -0.93c0,-0.07 0.04,-0.14 0.1,-0.17 0.07,-0.03 0.14,-0.03 0.2,0.01l3.15 2.14c0.06,0.04 0.09,0.1 0.09,0.16 0,0.07 -0.03,0.12 -0.09,0.16l-3.15 2.14c-0.06,0.04 -0.14,0.05 -0.2,0.01 -0.07,-0.03 -0.1,-0.1 -0.1,-0.17l0 -0.93c0,-0.11 -0.09,-0.2 -0.2,-0.2l-4 0c-0.11,0 -0.2,-0.09 -0.2,-0.2l0 -1.64c0,-0.11 0.09,-0.2 0.2,-0.2z"/>
 </g>
</svg>
